<?xml version="1.0" encoding="utf-8" standalone="no"?>
<!DOCTYPE svg PUBLIC "-//W3C//DTD SVG 1.1//EN"
  "http://www.w3.org/Graphics/SVG/1.1/DTD/svg11.dtd">
<svg xmlns:xlink="http://www.w3.org/1999/xlink" width="1024.744962pt" height="855.136698pt" viewBox="0 0 1024.744962 855.136698" xmlns="http://www.w3.org/2000/svg" version="1.1">
 <metadata>
  <rdf:RDF xmlns:dc="http://purl.org/dc/elements/1.1/" xmlns:cc="http://creativecommons.org/ns#" xmlns:rdf="http://www.w3.org/1999/02/22-rdf-syntax-ns#">
   <cc:Work>
    <dc:type rdf:resource="http://purl.org/dc/dcmitype/StillImage"/>
    <dc:date>2026-02-17T22:05:11.576908</dc:date>
    <dc:format>image/svg+xml</dc:format>
    <dc:creator>
     <cc:Agent>
      <dc:title>Matplotlib v3.10.8, https://matplotlib.org/</dc:title>
     </cc:Agent>
    </dc:creator>
   </cc:Work>
  </rdf:RDF>
 </metadata>
 <defs>
  <style type="text/css">*{stroke-linejoin: round; stroke-linecap: butt}</style>
 </defs>
 <g id="figure_1">
  <g id="patch_1">
   <path d="M 0 855.136698 
L 1024.744962 855.136698 
L 1024.744962 0 
L 0 0 
z
" style="fill: #ffffff"/>
  </g>
  <g id="axes_1">
   <g id="patch_2">
    <path d="M 23.103125 842.218676 
L 830.964301 842.218676 
L 830.964301 34.3575 
L 23.103125 34.3575 
z
" style="fill: #ffffff"/>
   </g>
   <g id="patch_3">
    <path d="M 427.033713 834.298469 
C 532.056894 834.298469 632.792736 792.572317 707.055339 718.309714 
C 781.317942 644.047111 823.044094 543.311269 823.044094 438.288088 
C 823.044094 333.264908 781.317942 232.529066 707.055339 158.266463 
C 632.792736 84.00386 532.056894 42.277708 427.033713 42.277708 
C 322.010533 42.277708 221.274691 84.00386 147.012088 158.266463 
C 72.749485 232.529066 31.023333 333.264908 31.023333 438.288088 
C 31.023333 543.311269 72.749485 644.047111 147.012088 718.309714 
C 221.274691 792.572317 322.010533 834.298469 427.033713 834.298469 
L 427.033713 834.298469 
z
" clip-path="url(#p59d331dd2a)" style="fill: none; stroke: #000000; stroke-linejoin: miter"/>
   </g>
   <g id="patch_4">
    <path d="M 493.035443 768.296739 
C 580.55476 768.296739 664.501295 733.524946 726.386798 671.639443 
C 788.272301 609.75394 823.044094 525.807405 823.044094 438.288088 
C 823.044094 350.768771 788.272301 266.822236 726.386798 204.936734 
C 664.501295 143.051231 580.55476 108.279438 493.035443 108.279438 
C 405.516126 108.279438 321.569591 143.051231 259.684089 204.936734 
C 197.798586 266.822236 163.026793 350.768771 163.026793 438.288088 
C 163.026793 525.807405 197.798586 609.75394 259.684089 671.639443 
C 321.569591 733.524946 405.516126 768.296739 493.035443 768.296739 
L 493.035443 768.296739 
z
" clip-path="url(#pe2a8de2530)" style="fill: none; stroke: #808080; stroke-linejoin: miter"/>
   </g>
   <g id="patch_5">
    <path d="M 559.037173 702.295009 
C 629.052627 702.295009 696.209855 674.477574 745.718257 624.969172 
C 795.226659 575.46077 823.044094 508.303542 823.044094 438.288088 
C 823.044094 368.272635 795.226659 301.115407 745.718257 251.607005 
C 696.209855 202.098602 629.052627 174.281168 559.037173 174.281168 
C 489.02172 174.281168 421.864492 202.098602 372.35609 251.607005 
C 322.847688 301.115407 295.030253 368.272635 295.030253 438.288088 
C 295.030253 508.303542 322.847688 575.46077 372.35609 624.969172 
C 421.864492 674.477574 489.02172 702.295009 559.037173 702.295009 
L 559.037173 702.295009 
z
" clip-path="url(#pe2a8de2530)" style="fill: none; stroke: #808080; stroke-linejoin: miter"/>
   </g>
   <g id="patch_6">
    <path d="M 625.038904 636.293279 
C 677.550494 636.293279 727.918415 615.430203 765.049716 578.298901 
C 802.181018 541.167599 823.044094 490.799679 823.044094 438.288088 
C 823.044094 385.776498 802.181018 335.408577 765.049716 298.277275 
C 727.918415 261.145974 677.550494 240.282898 625.038904 240.282898 
C 572.527313 240.282898 522.159392 261.145974 485.028091 298.277275 
C 447.896789 335.408577 427.033713 385.776498 427.033713 438.288088 
C 427.033713 490.799679 447.896789 541.167599 485.028091 578.298901 
C 522.159392 615.430203 572.527313 636.293279 625.038904 636.293279 
L 625.038904 636.293279 
z
" clip-path="url(#pe2a8de2530)" style="fill: none; stroke: #808080; stroke-linejoin: miter"/>
   </g>
   <g id="patch_7">
    <path d="M 691.040634 570.291548 
C 726.048361 570.291548 759.626974 556.382831 784.381176 531.62863 
C 809.135377 506.874429 823.044094 473.295815 823.044094 438.288088 
C 823.044094 403.280361 809.135377 369.701747 784.381176 344.947546 
C 759.626974 320.193345 726.048361 306.284628 691.040634 306.284628 
C 656.032907 306.284628 622.454293 320.193345 597.700092 344.947546 
C 572.945891 369.701747 559.037173 403.280361 559.037173 438.288088 
C 559.037173 473.295815 572.945891 506.874429 597.700092 531.62863 
C 622.454293 556.382831 656.032907 570.291548 691.040634 570.291548 
L 691.040634 570.291548 
z
" clip-path="url(#pe2a8de2530)" style="fill: none; stroke: #808080; stroke-linejoin: miter"/>
   </g>
   <g id="patch_8">
    <path d="M 757.042364 504.289818 
C 774.546227 504.289818 791.335534 497.33546 803.712635 484.958359 
C 816.089735 472.581259 823.044094 455.791952 823.044094 438.288088 
C 823.044094 420.784225 816.089735 403.994918 803.712635 391.617817 
C 791.335534 379.240717 774.546227 372.286358 757.042364 372.286358 
C 739.5385 372.286358 722.749193 379.240717 710.372093 391.617817 
C 697.994992 403.994918 691.040634 420.784225 691.040634 438.288088 
C 691.040634 455.791952 697.994992 472.581259 710.372093 484.958359 
C 722.749193 497.33546 739.5385 504.289818 757.042364 504.289818 
L 757.042364 504.289818 
z
" clip-path="url(#pe2a8de2530)" style="fill: none; stroke: #808080; stroke-linejoin: miter"/>
   </g>
   <g id="patch_9">
    <path d="M 823.044094 438.288088 
C 1348.159997 438.288088 1851.839206 229.657329 2223.152222 -141.655687 
C 2594.465237 -512.968703 2803.095997 -1016.647912 2803.095997 -1541.763815 
C 2803.095997 -2066.879718 2594.465237 -2570.558927 2223.152222 -2941.871943 
C 1851.839206 -3313.184958 1348.159997 -3521.815718 823.044094 -3521.815718 
C 297.928191 -3521.815718 -205.751018 -3313.184958 -577.064034 -2941.871943 
C -948.37705 -2570.558927 -1157.007809 -2066.879718 -1157.007809 -1541.763815 
C -1157.007809 -1016.647912 -948.37705 -512.968703 -577.064034 -141.655687 
C -205.751018 229.657329 297.928191 438.288088 823.044094 438.288088 
L 823.044094 438.288088 
z
" clip-path="url(#pe2a8de2530)" style="fill: none; stroke: #808080; stroke-linejoin: miter"/>
   </g>
   <g id="patch_10">
    <path d="M 823.044094 438.288088 
C 1033.090455 438.288088 1234.562139 354.835784 1383.087345 206.310578 
C 1531.612551 57.785372 1615.064855 -143.686312 1615.064855 -353.732673 
C 1615.064855 -563.779034 1531.612551 -765.250718 1383.087345 -913.775924 
C 1234.562139 -1062.30113 1033.090455 -1145.753434 823.044094 -1145.753434 
C 612.997733 -1145.753434 411.526049 -1062.30113 263.000843 -913.775924 
C 114.475636 -765.250718 31.023333 -563.779034 31.023333 -353.732673 
C 31.023333 -143.686312 114.475636 57.785372 263.000843 206.310578 
C 411.526049 354.835784 612.997733 438.288088 823.044094 438.288088 
L 823.044094 438.288088 
z
" clip-path="url(#pe2a8de2530)" style="fill: none; stroke: #808080; stroke-linejoin: miter"/>
   </g>
   <g id="patch_11">
    <path d="M 823.044094 438.288088 
C 928.067274 438.288088 1028.803116 396.561936 1103.065719 322.299333 
C 1177.328323 248.03673 1219.054474 147.300888 1219.054474 42.277708 
C 1219.054474 -62.745473 1177.328323 -163.481315 1103.065719 -237.743918 
C 1028.803116 -312.006521 928.067274 -353.732673 823.044094 -353.732673 
C 718.020913 -353.732673 617.285071 -312.006521 543.022468 -237.743918 
C 468.759865 -163.481315 427.033713 -62.745473 427.033713 42.277708 
C 427.033713 147.300888 468.759865 248.03673 543.022468 322.299333 
C 617.285071 396.561936 718.020913 438.288088 823.044094 438.288088 
L 823.044094 438.288088 
z
" clip-path="url(#pe2a8de2530)" style="fill: none; stroke: #808080; stroke-linejoin: miter"/>
   </g>
   <g id="patch_12">
    <path d="M 823.044094 438.288088 
C 875.555684 438.288088 925.923605 417.425012 963.054907 380.293711 
C 1000.186208 343.162409 1021.049284 292.794488 1021.049284 240.282898 
C 1021.049284 187.771308 1000.186208 137.403387 963.054907 100.272085 
C 925.923605 63.140784 875.555684 42.277708 823.044094 42.277708 
C 770.532504 42.277708 720.164583 63.140784 683.033281 100.272085 
C 645.901979 137.403387 625.038904 187.771308 625.038904 240.282898 
C 625.038904 292.794488 645.901979 343.162409 683.033281 380.293711 
C 720.164583 417.425012 770.532504 438.288088 823.044094 438.288088 
L 823.044094 438.288088 
z
" clip-path="url(#pe2a8de2530)" style="fill: none; stroke: #808080; stroke-linejoin: miter"/>
   </g>
   <g id="patch_13">
    <path d="M 823.044094 438.288088 
C 844.04873 438.288088 864.195898 429.942858 879.048419 415.090337 
C 893.90094 400.237817 902.24617 380.090648 902.24617 359.086012 
C 902.24617 338.081376 893.90094 317.934208 879.048419 303.081687 
C 864.195898 288.229166 844.04873 279.883936 823.044094 279.883936 
C 802.039458 279.883936 781.892289 288.229166 767.039769 303.081687 
C 752.187248 317.934208 743.842018 338.081376 743.842018 359.086012 
C 743.842018 380.090648 752.187248 400.237817 767.039769 415.090337 
C 781.892289 429.942858 802.039458 438.288088 823.044094 438.288088 
L 823.044094 438.288088 
z
" clip-path="url(#pe2a8de2530)" style="fill: none; stroke: #808080; stroke-linejoin: miter"/>
   </g>
   <g id="patch_14">
    <path d="M 823.044094 438.288088 
C 297.928191 438.288088 -205.751018 646.918848 -577.064034 1018.231864 
C -948.37705 1389.544879 -1157.007809 1893.224088 -1157.007809 2418.339991 
C -1157.007809 2943.455894 -948.37705 3447.135103 -577.064034 3818.448119 
C -205.751018 4189.761135 297.928191 4398.391894 823.044094 4398.391894 
C 1348.159997 4398.391894 1851.839206 4189.761135 2223.152222 3818.448119 
C 2594.465237 3447.135103 2803.095997 2943.455894 2803.095997 2418.339991 
C 2803.095997 1893.224088 2594.465237 1389.544879 2223.152222 1018.231864 
C 1851.839206 646.918848 1348.159997 438.288088 823.044094 438.288088 
L 823.044094 438.288088 
z
" clip-path="url(#pe2a8de2530)" style="fill: none; stroke: #808080; stroke-linejoin: miter"/>
   </g>
   <g id="patch_15">
    <path d="M 823.044094 438.288088 
C 612.997733 438.288088 411.526049 521.740392 263.000843 670.265598 
C 114.475636 818.790805 31.023333 1020.262488 31.023333 1230.308849 
C 31.023333 1440.355211 114.475636 1641.826894 263.000843 1790.352101 
C 411.526049 1938.877307 612.997733 2022.329611 823.044094 2022.329611 
C 1033.090455 2022.329611 1234.562139 1938.877307 1383.087345 1790.352101 
C 1531.612551 1641.826894 1615.064855 1440.355211 1615.064855 1230.308849 
C 1615.064855 1020.262488 1531.612551 818.790805 1383.087345 670.265598 
C 1234.562139 521.740392 1033.090455 438.288088 823.044094 438.288088 
L 823.044094 438.288088 
z
" clip-path="url(#pe2a8de2530)" style="fill: none; stroke: #808080; stroke-linejoin: miter"/>
   </g>
   <g id="patch_16">
    <path d="M 823.044094 438.288088 
C 718.020913 438.288088 617.285071 480.01424 543.022468 554.276843 
C 468.759865 628.539446 427.033713 729.275288 427.033713 834.298469 
C 427.033713 939.321649 468.759865 1040.057491 543.022468 1114.320094 
C 617.285071 1188.582698 718.020913 1230.308849 823.044094 1230.308849 
C 928.067274 1230.308849 1028.803116 1188.582698 1103.065719 1114.320094 
C 1177.328323 1040.057491 1219.054474 939.321649 1219.054474 834.298469 
C 1219.054474 729.275288 1177.328323 628.539446 1103.065719 554.276843 
C 1028.803116 480.01424 928.067274 438.288088 823.044094 438.288088 
L 823.044094 438.288088 
z
" clip-path="url(#pe2a8de2530)" style="fill: none; stroke: #808080; stroke-linejoin: miter"/>
   </g>
   <g id="patch_17">
    <path d="M 823.044094 438.288088 
C 770.532504 438.288088 720.164583 459.151164 683.033281 496.282466 
C 645.901979 533.413767 625.038904 583.781688 625.038904 636.293279 
C 625.038904 688.804869 645.901979 739.17279 683.033281 776.304091 
C 720.164583 813.435393 770.532504 834.298469 823.044094 834.298469 
C 875.555684 834.298469 925.923605 813.435393 963.054907 776.304091 
C 1000.186208 739.17279 1021.049284 688.804869 1021.049284 636.293279 
C 1021.049284 583.781688 1000.186208 533.413767 963.054907 496.282466 
C 925.923605 459.151164 875.555684 438.288088 823.044094 438.288088 
L 823.044094 438.288088 
z
" clip-path="url(#pe2a8de2530)" style="fill: none; stroke: #808080; stroke-linejoin: miter"/>
   </g>
   <g id="patch_18">
    <path d="M 823.044094 438.288088 
C 802.039458 438.288088 781.892289 446.633319 767.039769 461.485839 
C 752.187248 476.33836 743.842018 496.485528 743.842018 517.490164 
C 743.842018 538.4948 752.187248 558.641969 767.039769 573.494489 
C 781.892289 588.34701 802.039458 596.69224 823.044094 596.69224 
C 844.04873 596.69224 864.195898 588.34701 879.048419 573.494489 
C 893.90094 558.641969 902.24617 538.4948 902.24617 517.490164 
C 902.24617 496.485528 893.90094 476.33836 879.048419 461.485839 
C 864.195898 446.633319 844.04873 438.288088 823.044094 438.288088 
L 823.044094 438.288088 
z
" clip-path="url(#pe2a8de2530)" style="fill: none; stroke: #808080; stroke-linejoin: miter"/>
   </g>
   <g id="patch_19">
    <path d="M 427.033713 834.298469 
C 532.056894 834.298469 632.792736 792.572317 707.055339 718.309714 
C 781.317942 644.047111 823.044094 543.311269 823.044094 438.288088 
C 823.044094 333.264908 781.317942 232.529066 707.055339 158.266463 
C 632.792736 84.00386 532.056894 42.277708 427.033713 42.277708 
C 322.010533 42.277708 221.274691 84.00386 147.012088 158.266463 
C 72.749485 232.529066 31.023333 333.264908 31.023333 438.288088 
C 31.023333 543.311269 72.749485 644.047111 147.012088 718.309714 
C 221.274691 792.572317 322.010533 834.298469 427.033713 834.298469 
L 427.033713 834.298469 
z
" clip-path="url(#pe2a8de2530)" style="fill: none; stroke: #000000; stroke-linejoin: miter"/>
   </g>
   <g id="patch_20">
    <path d="M 625.038904 636.293279 
C 677.550494 636.293279 727.918415 615.430203 765.049716 578.298901 
C 802.181018 541.167599 823.044094 490.799679 823.044094 438.288088 
C 823.044094 385.776498 802.181018 335.408577 765.049716 298.277275 
C 727.918415 261.145974 677.550494 240.282898 625.038904 240.282898 
C 572.527313 240.282898 522.159392 261.145974 485.028091 298.277275 
C 447.896789 335.408577 427.033713 385.776498 427.033713 438.288088 
C 427.033713 490.799679 447.896789 541.167599 485.028091 578.298901 
C 522.159392 615.430203 572.527313 636.293279 625.038904 636.293279 
L 625.038904 636.293279 
z
" clip-path="url(#pe2a8de2530)" style="fill: none; stroke: #000000; stroke-linejoin: miter"/>
   </g>
   <g id="patch_21">
    <path d="M 823.044094 438.288088 
C 928.067274 438.288088 1028.803116 396.561936 1103.065719 322.299333 
C 1177.328323 248.03673 1219.054474 147.300888 1219.054474 42.277708 
C 1219.054474 -62.745473 1177.328323 -163.481315 1103.065719 -237.743918 
C 1028.803116 -312.006521 928.067274 -353.732673 823.044094 -353.732673 
C 718.020913 -353.732673 617.285071 -312.006521 543.022468 -237.743918 
C 468.759865 -163.481315 427.033713 -62.745473 427.033713 42.277708 
C 427.033713 147.300888 468.759865 248.03673 543.022468 322.299333 
C 617.285071 396.561936 718.020913 438.288088 823.044094 438.288088 
L 823.044094 438.288088 
z
" clip-path="url(#pe2a8de2530)" style="fill: none; stroke: #000000; stroke-linejoin: miter"/>
   </g>
   <g id="patch_22">
    <path d="M 823.044094 438.288088 
C 718.020913 438.288088 617.285071 480.01424 543.022468 554.276843 
C 468.759865 628.539446 427.033713 729.275288 427.033713 834.298469 
C 427.033713 939.321649 468.759865 1040.057491 543.022468 1114.320094 
C 617.285071 1188.582698 718.020913 1230.308849 823.044094 1230.308849 
C 928.067274 1230.308849 1028.803116 1188.582698 1103.065719 1114.320094 
C 1177.328323 1040.057491 1219.054474 939.321649 1219.054474 834.298469 
C 1219.054474 729.275288 1177.328323 628.539446 1103.065719 554.276843 
C 1028.803116 480.01424 928.067274 438.288088 823.044094 438.288088 
L 823.044094 438.288088 
z
" clip-path="url(#pe2a8de2530)" style="fill: none; stroke: #000000; stroke-linejoin: miter"/>
   </g>
   <g id="matplotlib.axis_1"/>
   <g id="matplotlib.axis_2"/>
   <g id="line2d_1">
    <path d="M 23.103125 438.288088 
L 830.964301 438.288088 
" clip-path="url(#pe2a8de2530)" style="fill: none; stroke: #000000; stroke-width: 0.1; stroke-linecap: square"/>
   </g>
   <g id="line2d_2">
    <path d="M 823.044094 842.218676 
L 823.044094 34.3575 
" clip-path="url(#pe2a8de2530)" style="fill: none; stroke: #000000; stroke-width: 1.5; stroke-linecap: square"/>
   </g>
   <g id="line2d_3"/>
   <g id="line2d_4"/>
   <g id="line2d_5">
    <path d="M 496.31467 660.440253 
L 508.294969 654.772401 
L 513.962821 651.366009 
L 521.322836 648.482689 
L 528.990345 645.412729 
L 533.280401 643.711105 
L 535.627146 643.469419 
L 550.984791 642.735863 
L 552.59798 642.585567 
L 554.52238 643.047073 
L 566.379009 646.659224 
L 571.91556 647.778302 
L 579.34305 653.012763 
L 589.674409 658.881523 
L 591.233139 659.816942 
L 591.505453 660.167939 
L 591.749642 660.440253 
L 592.445753 661.652867 
L 597.789351 673.20162 
L 604.217602 679.757833 
L 607.139399 683.169153 
L 610.550719 683.968922 
L 616.416933 693.209198 
L 620.628654 699.075412 
L 622.646944 706.296767 
L 622.314877 710.839571 
L 623.513832 718.392992 
L 617.988497 725.830769 
L 617.457942 730.803348 
L 615.070992 737.710571 
L 612.649702 739.809554 
L 610.550719 742.254524 
L 603.92568 744.33561 
L 598.458293 744.935725 
L 591.233139 749.131826 
L 582.07297 747.867981 
L 580.796095 748.147615 
L 571.91556 745.19034 
L 565.38657 744.239561 
L 561.228897 737.710571 
L 563.3162 729.111212 
L 564.080549 726.228002 
L 566.052064 718.392992 
L 561.962743 709.028228 
L 552.59798 702.596216 
L 547.550238 704.123154 
L 540.397243 706.192254 
L 533.280401 708.428379 
L 526.778392 711.890983 
L 519.371903 718.392992 
L 520.867908 725.298078 
L 521.225762 730.44763 
L 523.527264 737.710571 
L 530.934901 740.056071 
L 533.280401 741.826447 
L 542.280303 748.028249 
L 547.042493 757.028151 
L 537.945237 761.692987 
L 533.280401 766.277421 
L 527.887204 770.952534 
L 523.888142 776.34573 
L 515.73185 778.114759 
L 513.962821 778.429914 
L 511.537286 778.771265 
L 499.017814 780.718303 
L 494.645242 781.312843 
L 490.726842 780.264129 
L 476.831871 776.34573 
L 476.502449 775.170943 
L 475.327662 773.10659 
L 471.114161 761.241652 
L 468.577586 757.028151 
L 468.770322 750.470811 
L 471.001187 742.037046 
L 471.203641 737.710571 
L 469.900373 732.283282 
L 469.09549 724.625164 
L 466.952121 718.392992 
L 466.274811 709.340141 
L 466.222149 708.180925 
L 465.4962 699.075412 
L 468.743414 692.491164 
L 473.574979 681.510515 
L 474.379921 679.757833 
L 474.780316 679.210486 
L 475.327662 678.42255 
L 481.799598 673.285897 
L 485.397448 670.510039 
L 494.645242 661.404843 
L 495.317276 661.112287 
L 496.31467 660.440253 
" clip-path="url(#p59d331dd2a)" style="fill: none; stroke: #1f77b4; stroke-opacity: 0.99; stroke-width: 0.2; stroke-linecap: square"/>
   </g>
   <g id="line2d_6">
    <path d="M 515.760338 660.440253 
L 527.823092 654.982944 
L 533.280401 652.357559 
L 542.825015 650.667287 
L 543.090533 650.630121 
L 552.59798 649.049357 
L 562.190099 650.714793 
L 562.298177 650.740057 
L 571.91556 652.183344 
L 576.89377 655.462043 
L 586.564318 660.440253 
L 588.154685 663.518708 
L 591.233139 666.19202 
L 595.445949 675.545023 
L 600.550209 679.757833 
L 605.634338 684.674214 
L 610.550719 684.799891 
L 616.716578 692.909553 
L 622.771129 699.075412 
L 624.719191 704.224519 
L 624.362577 712.88727 
L 625.473491 718.392992 
L 618.15037 725.992643 
L 617.416838 730.844452 
L 614.673152 737.710571 
L 612.383119 739.542971 
L 610.550719 741.587021 
L 605.180186 743.081104 
L 597.097933 743.575365 
L 591.233139 746.61013 
L 583.381116 745.562594 
L 574.592747 740.387759 
L 571.91556 739.550772 
L 569.904538 739.721593 
L 568.286167 737.710571 
L 569.29557 735.090581 
L 571.91556 727.211478 
L 573.308949 719.78638 
L 573.664747 718.392992 
L 574.443668 715.864883 
L 573.454697 700.614549 
L 575.037953 699.075412 
L 573.8301 697.160872 
L 571.91556 696.824482 
L 569.580054 696.739906 
L 556.592713 695.080679 
L 552.59798 694.961115 
L 549.349873 695.827305 
L 543.468259 699.075412 
L 536.122296 701.917307 
L 533.280401 703.135574 
L 524.954235 707.401578 
L 523.063359 708.17595 
L 513.962821 715.330724 
L 512.004786 716.434956 
L 510.390273 718.392992 
L 511.336719 721.019094 
L 513.962821 737.408516 
L 514.015365 737.658027 
L 514.065007 737.710571 
L 530.637876 740.353096 
L 533.280401 741.43961 
L 542.421917 747.886634 
L 547.572575 757.028151 
L 538.84748 762.59523 
L 533.280401 769.340516 
L 529.015898 772.081228 
L 524.403324 776.34573 
L 515.252193 777.635102 
L 513.962821 777.793453 
L 512.396097 777.912454 
L 497.398552 779.099041 
L 494.645242 779.306741 
L 492.334843 778.656128 
L 484.818177 776.34573 
L 482.247767 769.425625 
L 475.327662 758.658763 
L 474.834943 757.520869 
L 474.519724 757.028151 
L 474.48031 756.180799 
L 475.327662 750.465991 
L 478.070962 740.453871 
L 480.930829 737.710571 
L 480.918778 732.119455 
L 475.554246 718.619575 
L 475.553122 718.392992 
L 475.484874 718.23578 
L 475.327662 717.596817 
L 473.987954 700.41512 
L 473.818384 699.075412 
L 474.258268 698.006018 
L 475.327662 695.116096 
L 482.401994 686.832164 
L 486.627184 679.757833 
L 491.021773 676.134364 
L 494.645242 672.494258 
L 502.928435 668.723446 
L 511.061812 663.341262 
L 513.962821 661.583825 
L 514.775816 661.253248 
L 515.760338 660.440253 
" clip-path="url(#p59d331dd2a)" style="fill: none; stroke: #ff7f0e; stroke-opacity: 0.99; stroke-width: 0.2; stroke-linecap: square"/>
   </g>
   <g id="line2d_7">
    <path d="M 534.386824 660.440253 
L 549.048285 656.890558 
L 552.59798 656.006961 
L 556.487002 656.551232 
L 568.987885 657.512578 
L 571.91556 657.879361 
L 573.47743 658.878383 
L 576.734189 660.440253 
L 579.403268 667.927962 
L 579.552473 672.12092 
L 587.689153 679.757833 
L 576.60529 684.447562 
L 571.91556 683.376037 
L 567.912279 683.761113 
L 557.941617 685.101469 
L 552.59798 685.573745 
L 543.26996 689.085853 
L 542.719615 689.197047 
L 533.280401 695.512823 
L 530.258394 696.053406 
L 527.840036 699.075412 
L 518.022143 703.134734 
L 513.962821 706.181926 
L 505.070786 709.500957 
L 494.798717 718.392992 
L 494.894319 718.642069 
L 500.699243 731.65657 
L 502.596735 737.710571 
L 511.650752 740.022641 
L 513.962821 740.085924 
L 516.73211 740.47986 
L 529.926408 741.064564 
L 533.280401 741.66467 
L 542.215913 748.092639 
L 547.534654 757.028151 
L 539.211776 762.959526 
L 533.280401 771.009532 
L 529.347445 772.412774 
L 520.969516 776.34573 
L 514.433567 776.816476 
L 513.962821 776.852029 
L 513.447259 776.861293 
L 495.303148 777.003637 
L 494.645242 777.015705 
L 494.124196 776.866776 
L 492.501525 776.34573 
L 490.471795 772.172284 
L 487.348774 764.324618 
L 482.325091 757.028151 
L 485.229061 747.61197 
L 486.705339 745.650474 
L 491.671496 737.710571 
L 491.406074 734.471403 
L 494.569033 718.4692 
L 494.557319 718.392992 
L 494.510467 718.258217 
L 489.124789 704.595864 
L 487.461377 699.075412 
L 490.239824 694.669994 
L 494.645242 685.51741 
L 498.859009 683.9716 
L 501.08416 679.757833 
L 510.0766 675.871611 
L 513.962821 673.443812 
L 523.107869 669.585301 
L 530.337093 663.383561 
L 533.280401 661.043547 
L 533.825869 660.985721 
L 534.386824 660.440253 
" clip-path="url(#p59d331dd2a)" style="fill: none; stroke: #2ca02c; stroke-opacity: 0.99; stroke-width: 0.2; stroke-linecap: square"/>
   </g>
   <g id="line2d_8">
    <path d="M 593.140208 699.075412 
L 597.603794 692.704757 
L 595.021421 683.546114 
L 601.689829 688.618722 
L 610.550719 687.208413 
L 616.340415 693.285716 
L 624.893003 699.075412 
L 626.685484 702.258226 
L 626.942338 715.467031 
L 627.739655 718.392992 
L 617.869214 725.711487 
L 616.519117 731.742173 
L 613.682911 737.710571 
L 611.872719 739.032571 
L 610.550719 740.446302 
L 606.882994 741.378296 
L 595.20421 741.681642 
L 591.233139 743.579942 
L 585.961791 742.98192 
L 576.4664 737.710571 
L 577.792612 731.833519 
L 579.082786 725.560218 
L 580.785894 718.392992 
L 582.975066 710.134919 
L 591.233139 701.01477 
L 592.117174 699.959447 
L 593.140208 699.075412 
" clip-path="url(#p59d331dd2a)" style="fill: none; stroke: #2ca02c; stroke-opacity: 0.99; stroke-width: 0.2; stroke-linecap: square"/>
   </g>
   <g id="line2d_9">
    <path d="M 532.09744 679.757833 
L 533.041233 679.518665 
L 533.280401 679.326208 
L 533.71825 679.319983 
L 534.187715 679.757833 
L 533.508872 679.986304 
L 533.280401 680.221596 
L 532.727358 680.310875 
L 532.09744 679.757833 
" clip-path="url(#p59d331dd2a)" style="fill: none; stroke: #d62728; stroke-opacity: 0.99; stroke-width: 0.2; stroke-linecap: square"/>
   </g>
   <g id="line2d_10">
    <path d="M 601.165424 699.075412 
L 604.091836 692.616529 
L 610.550719 690.267019 
L 615.519821 694.10631 
L 629.349584 699.075412 
L 629.614033 699.329678 
L 629.868298 701.290123 
L 630.298986 717.962304 
L 630.2277 718.392992 
L 630.040412 718.565105 
L 629.868298 718.842668 
L 628.451555 719.809735 
L 617.314919 725.157192 
L 614.540077 733.721213 
L 612.267865 737.710571 
L 611.233289 738.393141 
L 610.550719 739.090524 
L 608.762981 739.498309 
L 592.851155 739.328587 
L 591.233139 740.028239 
L 589.101395 739.842316 
L 584.852846 737.710571 
L 586.033839 732.511271 
L 588.586173 721.039957 
L 589.182881 718.392992 
L 589.568212 716.728064 
L 591.233139 714.698924 
L 596.817336 704.659608 
L 601.165424 699.075412 
" clip-path="url(#p59d331dd2a)" style="fill: none; stroke: #d62728; stroke-opacity: 0.99; stroke-width: 0.2; stroke-linecap: square"/>
   </g>
   <g id="line2d_11">
    <path d="M 489.839445 757.028151 
L 490.483253 752.866162 
L 494.645242 744.482419 
L 499.589081 742.654411 
L 508.250898 743.422494 
L 513.962821 742.369685 
L 518.575758 742.323508 
L 529.370189 741.620783 
L 533.280401 741.577124 
L 542.030548 748.278004 
L 547.131498 757.028151 
L 539.237793 762.985543 
L 533.280401 771.391558 
L 528.524674 771.590003 
L 518.30843 772.000122 
L 513.962821 772.180903 
L 506.940935 769.323844 
L 503.12021 767.870762 
L 494.645242 764.099123 
L 492.038637 759.634755 
L 489.839445 757.028151 
" clip-path="url(#p59d331dd2a)" style="fill: none; stroke: #d62728; stroke-opacity: 0.99; stroke-width: 0.2; stroke-linecap: square"/>
   </g>
   <g id="line2d_12">
    <path d="M 606.670108 699.075412 
L 607.595192 696.119885 
L 610.550719 694.522018 
L 613.550284 696.075847 
L 628.306639 697.513753 
L 629.868298 697.971712 
L 630.297021 698.64669 
L 630.475203 699.075412 
L 630.351152 699.558266 
L 631.066935 717.194355 
L 630.876866 718.392992 
L 630.329902 718.854596 
L 629.868298 719.548621 
L 627.318564 720.942726 
L 616.179505 724.021777 
L 610.550719 736.197989 
L 605.672847 732.8327 
L 598.054139 730.889571 
L 599.162842 726.322694 
L 596.57126 718.392992 
L 600.999821 708.842093 
L 601.358128 708.268003 
L 606.670108 699.075412 
" clip-path="url(#p59d331dd2a)" style="fill: none; stroke: #9467bd; stroke-opacity: 0.99; stroke-width: 0.2; stroke-linecap: square"/>
   </g>
   <g id="line2d_13">
    <path d="M 499.224134 757.028151 
L 505.957007 749.022336 
L 513.962821 745.257907 
L 520.32371 744.07146 
L 528.35994 742.631032 
L 533.280401 741.724451 
L 541.735344 748.573207 
L 546.535776 757.028151 
L 538.763159 762.510909 
L 533.280401 769.557824 
L 524.664135 767.729465 
L 523.001718 767.306833 
L 513.962821 765.583079 
L 508.551737 762.439235 
L 499.224134 757.028151 
" clip-path="url(#p59d331dd2a)" style="fill: none; stroke: #9467bd; stroke-opacity: 0.99; stroke-width: 0.2; stroke-linecap: square"/>
   </g>
   <g id="line2d_14">
    <path d="M 622.649827 699.075412 
L 629.221693 698.428806 
L 629.868298 698.530887 
L 630.096042 698.847668 
L 630.202446 699.075412 
L 630.13345 699.340564 
L 631.150211 717.11108 
L 630.950873 718.392992 
L 630.342364 718.867057 
L 629.868298 719.535358 
L 627.800028 720.461262 
L 614.443212 722.285485 
L 610.550719 728.522412 
L 604.284264 724.659447 
L 602.035142 718.392992 
L 604.472097 712.31437 
L 610.550719 701.218681 
L 613.15342 701.678113 
L 622.649827 699.075412 
" clip-path="url(#p59d331dd2a)" style="fill: none; stroke: #8c564b; stroke-opacity: 0.99; stroke-width: 0.2; stroke-linecap: square"/>
   </g>
   <g id="line2d_15">
    <path d="M 508.513786 757.028151 
L 510.219568 753.284898 
L 513.962821 750.115889 
L 522.960376 746.708126 
L 524.718995 746.271976 
L 533.280401 743.591083 
L 540.842315 749.466236 
L 545.906774 757.028151 
L 537.984438 761.732188 
L 533.280401 766.75992 
L 526.231059 764.077493 
L 519.126978 762.192307 
L 513.962821 760.529824 
L 511.854011 759.13696 
L 508.513786 757.028151 
" clip-path="url(#p59d331dd2a)" style="fill: none; stroke: #8c564b; stroke-opacity: 0.99; stroke-width: 0.2; stroke-linecap: square"/>
   </g>
   <g id="line2d_16">
    <path d="M 608.224385 718.392992 
L 608.838863 716.681136 
L 610.550719 713.271533 
L 617.493122 711.450588 
L 623.245749 711.770442 
L 629.868298 707.4027 
L 630.670114 717.591176 
L 630.546435 718.392992 
L 630.149167 718.67386 
L 629.868298 719.040216 
L 628.870813 719.390477 
L 611.699139 719.541412 
L 610.550719 720.845538 
L 608.906028 720.037682 
L 608.224385 718.392992 
" clip-path="url(#p59d331dd2a)" style="fill: none; stroke: #e377c2; stroke-opacity: 0.99; stroke-width: 0.2; stroke-linecap: square"/>
   </g>
   <g id="line2d_17">
    <path d="M 515.724917 757.028151 
L 525.761409 749.509159 
L 533.280401 745.985459 
L 539.643365 750.665187 
L 544.684727 757.028151 
L 536.917089 760.664839 
L 533.280401 763.751399 
L 528.741999 761.566552 
L 515.724917 757.028151 
" clip-path="url(#p59d331dd2a)" style="fill: none; stroke: #e377c2; stroke-opacity: 0.99; stroke-width: 0.2; stroke-linecap: square"/>
   </g>
   <g id="line2d_18">
    <path d="M 570.416002 660.440253 
L 571.666605 660.191298 
L 571.91556 660.101782 
L 572.208827 660.146985 
L 573.635642 660.440253 
L 572.523018 661.047711 
L 571.91556 661.366729 
L 571.00851 661.347303 
L 570.416002 660.440253 
" clip-path="url(#p59d331dd2a)" style="fill: none; stroke: #7f7f7f; stroke-opacity: 0.99; stroke-width: 0.2; stroke-linecap: square"/>
   </g>
   <g id="line2d_19">
    <path d="M 531.076283 679.757833 
L 532.429076 678.906508 
L 533.280401 678.034643 
L 535.318154 677.720079 
L 539.153336 679.757833 
L 534.523789 681.001221 
L 533.280401 682.856648 
L 531.502194 681.536039 
L 531.076283 679.757833 
" clip-path="url(#p59d331dd2a)" style="fill: none; stroke: #7f7f7f; stroke-opacity: 0.99; stroke-width: 0.2; stroke-linecap: square"/>
   </g>
   <g id="line2d_20">
    <path d="M 603.512171 699.075412 
L 604.372782 692.897475 
L 610.550719 688.320916 
L 617.675991 686.883104 
L 621.752239 687.873892 
L 629.868298 687.121047 
L 635.821521 693.12219 
L 639.493161 699.075412 
L 637.239175 706.446289 
L 637.63006 710.63123 
L 636.36799 718.392992 
L 632.41726 720.941954 
L 629.868298 724.05762 
L 622.114979 726.146311 
L 617.891388 725.733661 
L 610.550719 731.705204 
L 600.979381 728.139233 
L 600.629876 728.313835 
L 600.789512 727.949365 
L 596.598949 718.392992 
L 599.298723 710.327408 
L 599.981425 707.823697 
L 603.512171 699.075412 
" clip-path="url(#p59d331dd2a)" style="fill: none; stroke: #7f7f7f; stroke-opacity: 0.99; stroke-width: 0.2; stroke-linecap: square"/>
   </g>
   <g id="line2d_21">
    <path d="M 518.44757 737.710571 
L 525.52471 729.954881 
L 533.280401 727.697156 
L 539.276151 731.714821 
L 549.777765 737.710571 
L 551.61216 738.696391 
L 552.59798 739.680328 
L 561.000893 748.625238 
L 561.642078 757.028151 
L 554.9919 759.42207 
L 552.59798 760.662661 
L 546.17737 763.448761 
L 541.287573 765.035323 
L 533.280401 770.175877 
L 524.77928 765.529271 
L 520.735134 763.800463 
L 513.962821 760.628169 
L 511.892505 759.098467 
L 509.054619 757.028151 
L 509.44025 752.50558 
L 513.962821 741.660939 
L 515.689703 739.437453 
L 518.44757 737.710571 
" clip-path="url(#p59d331dd2a)" style="fill: none; stroke: #7f7f7f; stroke-opacity: 0.99; stroke-width: 0.2; stroke-linecap: square"/>
   </g>
   <g id="line2d_22">
    <path d="M 610.056456 699.075412 
L 610.104684 698.629377 
L 610.550719 698.290633 
L 612.148273 697.477858 
L 621.593385 690.800498 
L 629.868298 689.01112 
L 635.44009 693.503621 
L 639.574819 699.075412 
L 636.825426 706.032539 
L 637.259427 711.001863 
L 635.839722 718.392992 
L 632.024615 720.549308 
L 629.868298 722.916939 
L 624.394553 723.866737 
L 614.007784 721.850057 
L 610.550719 723.411369 
L 606.321052 722.622659 
L 603.612743 718.392992 
L 605.080411 712.922684 
L 609.833254 699.792877 
L 610.056456 699.075412 
" clip-path="url(#p59d331dd2a)" style="fill: none; stroke: #bcbd22; stroke-opacity: 0.99; stroke-width: 0.2; stroke-linecap: square"/>
   </g>
   <g id="line2d_23">
    <path d="M 525.82827 737.710571 
L 528.849834 733.280004 
L 533.280401 731.192126 
L 537.558383 733.432589 
L 548.360303 737.710571 
L 551.296519 739.012032 
L 552.59798 740.043652 
L 560.637982 748.988149 
L 561.483265 757.028151 
L 554.692292 759.122463 
L 552.59798 760.066069 
L 548.002086 761.624045 
L 539.693753 763.441503 
L 533.280401 766.582419 
L 527.214784 763.093767 
L 514.578682 757.028151 
L 515.280144 755.710828 
L 520.063502 743.811252 
L 525.82827 737.710571 
" clip-path="url(#p59d331dd2a)" style="fill: none; stroke: #bcbd22; stroke-opacity: 0.99; stroke-width: 0.2; stroke-linecap: square"/>
   </g>
   <g id="line2d_24">
    <path d="M 617.879185 699.075412 
L 623.866213 693.073327 
L 629.868298 690.730812 
L 635.08141 693.8623 
L 639.979541 699.075412 
L 636.296988 705.504102 
L 636.700835 711.560455 
L 635.049688 718.392992 
L 631.58403 720.108723 
L 629.868298 721.814509 
L 626.060307 722.200983 
L 612.36057 718.392992 
L 613.000721 715.94299 
L 616.570789 705.095482 
L 617.879185 699.075412 
" clip-path="url(#p59d331dd2a)" style="fill: none; stroke: #17becf; stroke-opacity: 0.99; stroke-width: 0.2; stroke-linecap: square"/>
   </g>
   <g id="line2d_25">
    <path d="M 531.647533 737.710571 
L 532.177337 736.607508 
L 533.280401 735.835757 
L 534.64144 736.349532 
L 541.284132 737.710571 
L 549.999677 740.308874 
L 552.59798 741.779273 
L 559.34507 750.281061 
L 559.941121 757.028151 
L 554.061243 758.491413 
L 552.59798 759.037614 
L 549.934029 759.692102 
L 537.430583 761.178333 
L 533.280401 762.610096 
L 529.717644 760.590907 
L 522.703653 757.028151 
L 525.17128 748.91903 
L 530.063827 740.927145 
L 531.647533 737.710571 
" clip-path="url(#p59d331dd2a)" style="fill: none; stroke: #17becf; stroke-opacity: 0.99; stroke-width: 0.2; stroke-linecap: square"/>
   </g>
   <g id="line2d_26">
    <path d="M 624.055345 699.075412 
L 626.536173 695.743287 
L 629.868298 693.821195 
L 633.600396 695.343315 
L 638.158882 699.075412 
L 634.117827 703.324941 
L 634.346585 713.914705 
L 632.92137 718.392992 
L 630.818443 719.343136 
L 629.868298 720.243399 
L 627.877879 720.383411 
L 621.893875 718.392992 
L 622.999761 711.524454 
L 623.193296 705.750415 
L 624.055345 699.075412 
" clip-path="url(#p59d331dd2a)" style="fill: none; stroke: #1f77b4; stroke-opacity: 0.99; stroke-width: 0.2; stroke-linecap: square"/>
   </g>
   <g id="line2d_27">
    <path d="M 530.497134 757.028151 
L 530.826548 754.574298 
L 533.280401 747.78405 
L 542.787616 747.520936 
L 543.109107 747.539277 
L 552.59798 747.226536 
L 557.317514 752.308617 
L 557.939645 757.028151 
L 553.35069 757.78086 
L 552.59798 757.993976 
L 551.470474 758.155656 
L 534.528835 758.276585 
L 533.280401 758.523332 
L 532.315244 757.993307 
L 530.497134 757.028151 
" clip-path="url(#p59d331dd2a)" style="fill: none; stroke: #1f77b4; stroke-opacity: 0.99; stroke-width: 0.2; stroke-linecap: square"/>
   </g>
   <g id="line2d_28">
    <path d="M 563.502003 660.440253 
L 570.162154 658.686847 
L 571.91556 657.856034 
L 574.183651 658.172162 
L 579.196304 660.440253 
L 574.864295 663.388988 
L 571.91556 667.449891 
L 565.901075 666.454737 
L 563.502003 660.440253 
" clip-path="url(#p59d331dd2a)" style="fill: none; stroke: #ff7f0e; stroke-opacity: 0.99; stroke-width: 0.2; stroke-linecap: square"/>
   </g>
   <g id="line2d_29">
    <path d="M 627.638401 679.757833 
L 628.397835 678.287369 
L 629.868298 677.959144 
L 631.020306 678.605825 
L 646.271725 676.84368 
L 649.185878 677.490105 
L 650.089907 678.853804 
L 650.563329 679.757833 
L 650.382304 680.954258 
L 653.036661 695.224629 
L 652.718065 699.075412 
L 651.155356 701.04489 
L 649.185878 708.08341 
L 643.225854 712.432968 
L 640.726308 718.392992 
L 633.010743 721.535436 
L 629.868298 724.378301 
L 623.540643 724.720647 
L 613.088373 720.930646 
L 610.550719 721.284162 
L 607.34917 721.594541 
L 605.647653 718.392992 
L 606.942595 714.784868 
L 610.550719 702.280178 
L 611.168908 699.693601 
L 611.224532 699.075412 
L 612.264456 697.361675 
L 617.006456 686.21357 
L 627.638401 679.757833 
" clip-path="url(#p59d331dd2a)" style="fill: none; stroke: #ff7f0e; stroke-opacity: 0.99; stroke-width: 0.2; stroke-linecap: square"/>
   </g>
   <g id="line2d_30">
    <path d="M 527.521512 737.710571 
L 528.327881 732.758051 
L 533.280401 725.46943 
L 539.393098 724.505689 
L 545.443657 725.547315 
L 552.59798 724.919552 
L 559.221479 725.01649 
L 565.081799 725.226753 
L 571.91556 725.322546 
L 580.719286 728.906845 
L 589.330538 737.710571 
L 580.419129 746.21414 
L 580.144183 748.799528 
L 576.952985 757.028151 
L 573.32037 758.432961 
L 571.91556 758.98927 
L 569.596139 759.347572 
L 555.937364 760.367534 
L 552.59798 760.990926 
L 548.468901 761.15723 
L 536.175221 759.922971 
L 533.280401 760.079613 
L 531.247156 759.061395 
L 527.388434 757.028151 
L 527.079897 750.827647 
L 527.894078 743.096893 
L 527.521512 737.710571 
" clip-path="url(#p59d331dd2a)" style="fill: none; stroke: #ff7f0e; stroke-opacity: 0.99; stroke-width: 0.2; stroke-linecap: square"/>
   </g>
   <g id="patch_23">
    <path d="M 23.103125 842.218676 
L 23.103125 34.3575 
" style="fill: none"/>
   </g>
   <g id="patch_24">
    <path d="M 830.964301 842.218676 
L 830.964301 34.3575 
" style="fill: none"/>
   </g>
   <g id="patch_25">
    <path d="M 23.103125 842.218676 
L 830.964301 842.218676 
" style="fill: none"/>
   </g>
   <g id="patch_26">
    <path d="M 23.103125 34.3575 
L 830.964301 34.3575 
" style="fill: none"/>
   </g>
   <g id="text_1">
    <!-- 0.2 -->
    <g transform="translate(143.163564 434.327984) scale(0.1 -0.1)">
     <defs>
      <path id="DejaVuSans-30" d="M 2034 4250 
Q 1547 4250 1301 3770 
Q 1056 3291 1056 2328 
Q 1056 1369 1301 889 
Q 1547 409 2034 409 
Q 2525 409 2770 889 
Q 3016 1369 3016 2328 
Q 3016 3291 2770 3770 
Q 2525 4250 2034 4250 
z
M 2034 4750 
Q 2819 4750 3233 4129 
Q 3647 3509 3647 2328 
Q 3647 1150 3233 529 
Q 2819 -91 2034 -91 
Q 1250 -91 836 529 
Q 422 1150 422 2328 
Q 422 3509 836 4129 
Q 1250 4750 2034 4750 
z
" transform="scale(0.015625)"/>
      <path id="DejaVuSans-2e" d="M 684 794 
L 1344 794 
L 1344 0 
L 684 0 
L 684 794 
z
" transform="scale(0.015625)"/>
      <path id="DejaVuSans-32" d="M 1228 531 
L 3431 531 
L 3431 0 
L 469 0 
L 469 531 
Q 828 903 1448 1529 
Q 2069 2156 2228 2338 
Q 2531 2678 2651 2914 
Q 2772 3150 2772 3378 
Q 2772 3750 2511 3984 
Q 2250 4219 1831 4219 
Q 1534 4219 1204 4116 
Q 875 4013 500 3803 
L 500 4441 
Q 881 4594 1212 4672 
Q 1544 4750 1819 4750 
Q 2544 4750 2975 4387 
Q 3406 4025 3406 3419 
Q 3406 3131 3298 2873 
Q 3191 2616 2906 2266 
Q 2828 2175 2409 1742 
Q 1991 1309 1228 531 
z
" transform="scale(0.015625)"/>
     </defs>
     <use xlink:href="#DejaVuSans-30"/>
     <use xlink:href="#DejaVuSans-2e" transform="translate(63.623047 0)"/>
     <use xlink:href="#DejaVuSans-32" transform="translate(95.410156 0)"/>
    </g>
   </g>
   <g id="text_2">
    <!-- 0.5 -->
    <g transform="translate(275.167024 434.327984) scale(0.1 -0.1)">
     <defs>
      <path id="DejaVuSans-35" d="M 691 4666 
L 3169 4666 
L 3169 4134 
L 1269 4134 
L 1269 2991 
Q 1406 3038 1543 3061 
Q 1681 3084 1819 3084 
Q 2600 3084 3056 2656 
Q 3513 2228 3513 1497 
Q 3513 744 3044 326 
Q 2575 -91 1722 -91 
Q 1428 -91 1123 -41 
Q 819 9 494 109 
L 494 744 
Q 775 591 1075 516 
Q 1375 441 1709 441 
Q 2250 441 2565 725 
Q 2881 1009 2881 1497 
Q 2881 1984 2565 2268 
Q 2250 2553 1709 2553 
Q 1456 2553 1204 2497 
Q 953 2441 691 2322 
L 691 4666 
z
" transform="scale(0.015625)"/>
     </defs>
     <use xlink:href="#DejaVuSans-30"/>
     <use xlink:href="#DejaVuSans-2e" transform="translate(63.623047 0)"/>
     <use xlink:href="#DejaVuSans-35" transform="translate(95.410156 0)"/>
    </g>
   </g>
   <g id="text_3">
    <!-- 1.0 -->
    <g transform="translate(407.170484 434.327984) scale(0.1 -0.1)">
     <defs>
      <path id="DejaVuSans-31" d="M 794 531 
L 1825 531 
L 1825 4091 
L 703 3866 
L 703 4441 
L 1819 4666 
L 2450 4666 
L 2450 531 
L 3481 531 
L 3481 0 
L 794 0 
L 794 531 
z
" transform="scale(0.015625)"/>
     </defs>
     <use xlink:href="#DejaVuSans-31"/>
     <use xlink:href="#DejaVuSans-2e" transform="translate(63.623047 0)"/>
     <use xlink:href="#DejaVuSans-30" transform="translate(95.410156 0)"/>
    </g>
   </g>
   <g id="text_4">
    <!-- 2.0 -->
    <g transform="translate(539.173945 434.327984) scale(0.1 -0.1)">
     <use xlink:href="#DejaVuSans-32"/>
     <use xlink:href="#DejaVuSans-2e" transform="translate(63.623047 0)"/>
     <use xlink:href="#DejaVuSans-30" transform="translate(95.410156 0)"/>
    </g>
   </g>
   <g id="text_5">
    <!-- 5.0 -->
    <g transform="translate(671.177405 434.327984) scale(0.1 -0.1)">
     <use xlink:href="#DejaVuSans-35"/>
     <use xlink:href="#DejaVuSans-2e" transform="translate(63.623047 0)"/>
     <use xlink:href="#DejaVuSans-30" transform="translate(95.410156 0)"/>
    </g>
   </g>
   <g id="text_6">
    <!-- 0.2j -->
    <g transform="translate(39.148939 282.373599) scale(0.1 -0.1)">
     <defs>
      <path id="DejaVuSans-6a" d="M 603 3500 
L 1178 3500 
L 1178 -63 
Q 1178 -731 923 -1031 
Q 669 -1331 103 -1331 
L -116 -1331 
L -116 -844 
L 38 -844 
Q 366 -844 484 -692 
Q 603 -541 603 -63 
L 603 3500 
z
M 603 4863 
L 1178 4863 
L 1178 4134 
L 603 4134 
L 603 4863 
z
" transform="scale(0.015625)"/>
     </defs>
     <use xlink:href="#DejaVuSans-30"/>
     <use xlink:href="#DejaVuSans-2e" transform="translate(63.623047 0)"/>
     <use xlink:href="#DejaVuSans-32" transform="translate(95.410156 0)"/>
     <use xlink:href="#DejaVuSans-6a" transform="translate(159.033203 0)"/>
    </g>
   </g>
   <g id="text_7">
    <!-- 0.5j -->
    <g transform="translate(168.370173 116.232013) scale(0.1 -0.1)">
     <use xlink:href="#DejaVuSans-30"/>
     <use xlink:href="#DejaVuSans-2e" transform="translate(63.623047 0)"/>
     <use xlink:href="#DejaVuSans-35" transform="translate(95.410156 0)"/>
     <use xlink:href="#DejaVuSans-6a" transform="translate(159.033203 0)"/>
    </g>
   </g>
   <g id="text_8">
    <!-- 1.0j -->
    <g transform="translate(417.693088 36.237916) scale(0.1 -0.1)">
     <use xlink:href="#DejaVuSans-31"/>
     <use xlink:href="#DejaVuSans-2e" transform="translate(63.623047 0)"/>
     <use xlink:href="#DejaVuSans-30" transform="translate(95.410156 0)"/>
     <use xlink:href="#DejaVuSans-6a" transform="translate(159.033203 0)"/>
    </g>
   </g>
   <g id="text_9">
    <!-- 2.0j -->
    <g transform="translate(667.016004 116.232013) scale(0.1 -0.1)">
     <use xlink:href="#DejaVuSans-32"/>
     <use xlink:href="#DejaVuSans-2e" transform="translate(63.623047 0)"/>
     <use xlink:href="#DejaVuSans-30" transform="translate(95.410156 0)"/>
     <use xlink:href="#DejaVuSans-6a" transform="translate(159.033203 0)"/>
    </g>
   </g>
   <g id="text_10">
    <!-- 5.0j -->
    <g transform="translate(796.237237 282.373599) scale(0.1 -0.1)">
     <use xlink:href="#DejaVuSans-35"/>
     <use xlink:href="#DejaVuSans-2e" transform="translate(63.623047 0)"/>
     <use xlink:href="#DejaVuSans-30" transform="translate(95.410156 0)"/>
     <use xlink:href="#DejaVuSans-6a" transform="translate(159.033203 0)"/>
    </g>
   </g>
   <g id="text_11">
    <!-- -0.2j -->
    <g transform="translate(35.541127 599.721327) scale(0.1 -0.1)">
     <defs>
      <path id="DejaVuSans-2d" d="M 313 2009 
L 1997 2009 
L 1997 1497 
L 313 1497 
L 313 2009 
z
" transform="scale(0.015625)"/>
     </defs>
     <use xlink:href="#DejaVuSans-2d"/>
     <use xlink:href="#DejaVuSans-30" transform="translate(36.083984 0)"/>
     <use xlink:href="#DejaVuSans-2e" transform="translate(99.707031 0)"/>
     <use xlink:href="#DejaVuSans-32" transform="translate(131.494141 0)"/>
     <use xlink:href="#DejaVuSans-6a" transform="translate(195.117188 0)"/>
    </g>
   </g>
   <g id="text_12">
    <!-- -0.5j -->
    <g transform="translate(164.76236 765.862913) scale(0.1 -0.1)">
     <use xlink:href="#DejaVuSans-2d"/>
     <use xlink:href="#DejaVuSans-30" transform="translate(36.083984 0)"/>
     <use xlink:href="#DejaVuSans-2e" transform="translate(99.707031 0)"/>
     <use xlink:href="#DejaVuSans-35" transform="translate(131.494141 0)"/>
     <use xlink:href="#DejaVuSans-6a" transform="translate(195.117188 0)"/>
    </g>
   </g>
   <g id="text_13">
    <!-- -1.0j -->
    <g transform="translate(415.889182 845.85701) scale(0.1 -0.1)">
     <use xlink:href="#DejaVuSans-2d"/>
     <use xlink:href="#DejaVuSans-31" transform="translate(36.083984 0)"/>
     <use xlink:href="#DejaVuSans-2e" transform="translate(99.707031 0)"/>
     <use xlink:href="#DejaVuSans-30" transform="translate(131.494141 0)"/>
     <use xlink:href="#DejaVuSans-6a" transform="translate(195.117188 0)"/>
    </g>
   </g>
   <g id="text_14">
    <!-- -2.0j -->
    <g transform="translate(667.016004 765.862913) scale(0.1 -0.1)">
     <use xlink:href="#DejaVuSans-2d"/>
     <use xlink:href="#DejaVuSans-32" transform="translate(36.083984 0)"/>
     <use xlink:href="#DejaVuSans-2e" transform="translate(99.707031 0)"/>
     <use xlink:href="#DejaVuSans-30" transform="translate(131.494141 0)"/>
     <use xlink:href="#DejaVuSans-6a" transform="translate(195.117188 0)"/>
    </g>
   </g>
   <g id="text_15">
    <!-- -5.0j -->
    <g transform="translate(796.237237 599.721327) scale(0.1 -0.1)">
     <use xlink:href="#DejaVuSans-2d"/>
     <use xlink:href="#DejaVuSans-35" transform="translate(36.083984 0)"/>
     <use xlink:href="#DejaVuSans-2e" transform="translate(99.707031 0)"/>
     <use xlink:href="#DejaVuSans-30" transform="translate(131.494141 0)"/>
     <use xlink:href="#DejaVuSans-6a" transform="translate(195.117188 0)"/>
    </g>
   </g>
   <g id="text_16">
    <!-- 0.0 -->
    <g transform="translate(7.2 441.047463) scale(0.1 -0.1)">
     <use xlink:href="#DejaVuSans-30"/>
     <use xlink:href="#DejaVuSans-2e" transform="translate(63.623047 0)"/>
     <use xlink:href="#DejaVuSans-30" transform="translate(95.410156 0)"/>
    </g>
   </g>
   <g id="text_17">
    <!-- $\infty$ -->
    <g transform="translate(827.004198 441.047463) scale(0.1 -0.1)">
     <defs>
      <path id="DejaVuSans-221e" d="M 2916 1091 
Q 2819 1203 2666 1466 
Q 2456 1091 2272 925 
Q 2041 725 1681 725 
Q 1259 725 981 1041 
Q 688 1372 688 1919 
Q 688 2444 981 2800 
Q 1244 3116 1688 3116 
Q 1916 3116 2084 3022 
Q 2281 2919 2416 2741 
Q 2541 2581 2666 2366 
Q 2875 2741 3059 2906 
Q 3291 3106 3650 3106 
Q 4072 3106 4350 2791 
Q 4644 2459 4644 1913 
Q 4644 1388 4350 1031 
Q 4088 716 3644 716 
Q 3416 716 3247 809 
Q 3078 894 2916 1091 
z
M 1647 1134 
Q 2163 1134 2472 1884 
Q 2075 2703 1647 2703 
Q 1334 2703 1175 2478 
Q 1003 2238 1003 1919 
Q 1003 1569 1175 1353 
Q 1350 1134 1647 1134 
z
M 3684 2697 
Q 3219 2697 2859 1947 
Q 3253 1128 3684 1128 
Q 3997 1128 4156 1353 
Q 4328 1594 4328 1913 
Q 4328 2263 4156 2478 
Q 3981 2697 3684 2697 
z
" transform="scale(0.015625)"/>
     </defs>
     <use xlink:href="#DejaVuSans-221e" transform="translate(0 0.3125)"/>
    </g>
   </g>
   <g id="text_18">
    <!-- it1_source_pull - Broadband Optimum Target -->
    <g transform="translate(248.623713 19.3575) scale(0.16 -0.16)">
     <defs>
      <path id="DejaVuSans-69" d="M 603 3500 
L 1178 3500 
L 1178 0 
L 603 0 
L 603 3500 
z
M 603 4863 
L 1178 4863 
L 1178 4134 
L 603 4134 
L 603 4863 
z
" transform="scale(0.015625)"/>
      <path id="DejaVuSans-74" d="M 1172 4494 
L 1172 3500 
L 2356 3500 
L 2356 3053 
L 1172 3053 
L 1172 1153 
Q 1172 725 1289 603 
Q 1406 481 1766 481 
L 2356 481 
L 2356 0 
L 1766 0 
Q 1100 0 847 248 
Q 594 497 594 1153 
L 594 3053 
L 172 3053 
L 172 3500 
L 594 3500 
L 594 4494 
L 1172 4494 
z
" transform="scale(0.015625)"/>
      <path id="DejaVuSans-5f" d="M 3263 -1063 
L 3263 -1509 
L -63 -1509 
L -63 -1063 
L 3263 -1063 
z
" transform="scale(0.015625)"/>
      <path id="DejaVuSans-73" d="M 2834 3397 
L 2834 2853 
Q 2591 2978 2328 3040 
Q 2066 3103 1784 3103 
Q 1356 3103 1142 2972 
Q 928 2841 928 2578 
Q 928 2378 1081 2264 
Q 1234 2150 1697 2047 
L 1894 2003 
Q 2506 1872 2764 1633 
Q 3022 1394 3022 966 
Q 3022 478 2636 193 
Q 2250 -91 1575 -91 
Q 1294 -91 989 -36 
Q 684 19 347 128 
L 347 722 
Q 666 556 975 473 
Q 1284 391 1588 391 
Q 1994 391 2212 530 
Q 2431 669 2431 922 
Q 2431 1156 2273 1281 
Q 2116 1406 1581 1522 
L 1381 1569 
Q 847 1681 609 1914 
Q 372 2147 372 2553 
Q 372 3047 722 3315 
Q 1072 3584 1716 3584 
Q 2034 3584 2315 3537 
Q 2597 3491 2834 3397 
z
" transform="scale(0.015625)"/>
      <path id="DejaVuSans-6f" d="M 1959 3097 
Q 1497 3097 1228 2736 
Q 959 2375 959 1747 
Q 959 1119 1226 758 
Q 1494 397 1959 397 
Q 2419 397 2687 759 
Q 2956 1122 2956 1747 
Q 2956 2369 2687 2733 
Q 2419 3097 1959 3097 
z
M 1959 3584 
Q 2709 3584 3137 3096 
Q 3566 2609 3566 1747 
Q 3566 888 3137 398 
Q 2709 -91 1959 -91 
Q 1206 -91 779 398 
Q 353 888 353 1747 
Q 353 2609 779 3096 
Q 1206 3584 1959 3584 
z
" transform="scale(0.015625)"/>
      <path id="DejaVuSans-75" d="M 544 1381 
L 544 3500 
L 1119 3500 
L 1119 1403 
Q 1119 906 1312 657 
Q 1506 409 1894 409 
Q 2359 409 2629 706 
Q 2900 1003 2900 1516 
L 2900 3500 
L 3475 3500 
L 3475 0 
L 2900 0 
L 2900 538 
Q 2691 219 2414 64 
Q 2138 -91 1772 -91 
Q 1169 -91 856 284 
Q 544 659 544 1381 
z
M 1991 3584 
L 1991 3584 
z
" transform="scale(0.015625)"/>
      <path id="DejaVuSans-72" d="M 2631 2963 
Q 2534 3019 2420 3045 
Q 2306 3072 2169 3072 
Q 1681 3072 1420 2755 
Q 1159 2438 1159 1844 
L 1159 0 
L 581 0 
L 581 3500 
L 1159 3500 
L 1159 2956 
Q 1341 3275 1631 3429 
Q 1922 3584 2338 3584 
Q 2397 3584 2469 3576 
Q 2541 3569 2628 3553 
L 2631 2963 
z
" transform="scale(0.015625)"/>
      <path id="DejaVuSans-63" d="M 3122 3366 
L 3122 2828 
Q 2878 2963 2633 3030 
Q 2388 3097 2138 3097 
Q 1578 3097 1268 2742 
Q 959 2388 959 1747 
Q 959 1106 1268 751 
Q 1578 397 2138 397 
Q 2388 397 2633 464 
Q 2878 531 3122 666 
L 3122 134 
Q 2881 22 2623 -34 
Q 2366 -91 2075 -91 
Q 1284 -91 818 406 
Q 353 903 353 1747 
Q 353 2603 823 3093 
Q 1294 3584 2113 3584 
Q 2378 3584 2631 3529 
Q 2884 3475 3122 3366 
z
" transform="scale(0.015625)"/>
      <path id="DejaVuSans-65" d="M 3597 1894 
L 3597 1613 
L 953 1613 
Q 991 1019 1311 708 
Q 1631 397 2203 397 
Q 2534 397 2845 478 
Q 3156 559 3463 722 
L 3463 178 
Q 3153 47 2828 -22 
Q 2503 -91 2169 -91 
Q 1331 -91 842 396 
Q 353 884 353 1716 
Q 353 2575 817 3079 
Q 1281 3584 2069 3584 
Q 2775 3584 3186 3129 
Q 3597 2675 3597 1894 
z
M 3022 2063 
Q 3016 2534 2758 2815 
Q 2500 3097 2075 3097 
Q 1594 3097 1305 2825 
Q 1016 2553 972 2059 
L 3022 2063 
z
" transform="scale(0.015625)"/>
      <path id="DejaVuSans-70" d="M 1159 525 
L 1159 -1331 
L 581 -1331 
L 581 3500 
L 1159 3500 
L 1159 2969 
Q 1341 3281 1617 3432 
Q 1894 3584 2278 3584 
Q 2916 3584 3314 3078 
Q 3713 2572 3713 1747 
Q 3713 922 3314 415 
Q 2916 -91 2278 -91 
Q 1894 -91 1617 61 
Q 1341 213 1159 525 
z
M 3116 1747 
Q 3116 2381 2855 2742 
Q 2594 3103 2138 3103 
Q 1681 3103 1420 2742 
Q 1159 2381 1159 1747 
Q 1159 1113 1420 752 
Q 1681 391 2138 391 
Q 2594 391 2855 752 
Q 3116 1113 3116 1747 
z
" transform="scale(0.015625)"/>
      <path id="DejaVuSans-6c" d="M 603 4863 
L 1178 4863 
L 1178 0 
L 603 0 
L 603 4863 
z
" transform="scale(0.015625)"/>
      <path id="DejaVuSans-20" transform="scale(0.015625)"/>
      <path id="DejaVuSans-42" d="M 1259 2228 
L 1259 519 
L 2272 519 
Q 2781 519 3026 730 
Q 3272 941 3272 1375 
Q 3272 1813 3026 2020 
Q 2781 2228 2272 2228 
L 1259 2228 
z
M 1259 4147 
L 1259 2741 
L 2194 2741 
Q 2656 2741 2882 2914 
Q 3109 3088 3109 3444 
Q 3109 3797 2882 3972 
Q 2656 4147 2194 4147 
L 1259 4147 
z
M 628 4666 
L 2241 4666 
Q 2963 4666 3353 4366 
Q 3744 4066 3744 3513 
Q 3744 3084 3544 2831 
Q 3344 2578 2956 2516 
Q 3422 2416 3680 2098 
Q 3938 1781 3938 1306 
Q 3938 681 3513 340 
Q 3088 0 2303 0 
L 628 0 
L 628 4666 
z
" transform="scale(0.015625)"/>
      <path id="DejaVuSans-61" d="M 2194 1759 
Q 1497 1759 1228 1600 
Q 959 1441 959 1056 
Q 959 750 1161 570 
Q 1363 391 1709 391 
Q 2188 391 2477 730 
Q 2766 1069 2766 1631 
L 2766 1759 
L 2194 1759 
z
M 3341 1997 
L 3341 0 
L 2766 0 
L 2766 531 
Q 2569 213 2275 61 
Q 1981 -91 1556 -91 
Q 1019 -91 701 211 
Q 384 513 384 1019 
Q 384 1609 779 1909 
Q 1175 2209 1959 2209 
L 2766 2209 
L 2766 2266 
Q 2766 2663 2505 2880 
Q 2244 3097 1772 3097 
Q 1472 3097 1187 3025 
Q 903 2953 641 2809 
L 641 3341 
Q 956 3463 1253 3523 
Q 1550 3584 1831 3584 
Q 2591 3584 2966 3190 
Q 3341 2797 3341 1997 
z
" transform="scale(0.015625)"/>
      <path id="DejaVuSans-64" d="M 2906 2969 
L 2906 4863 
L 3481 4863 
L 3481 0 
L 2906 0 
L 2906 525 
Q 2725 213 2448 61 
Q 2172 -91 1784 -91 
Q 1150 -91 751 415 
Q 353 922 353 1747 
Q 353 2572 751 3078 
Q 1150 3584 1784 3584 
Q 2172 3584 2448 3432 
Q 2725 3281 2906 2969 
z
M 947 1747 
Q 947 1113 1208 752 
Q 1469 391 1925 391 
Q 2381 391 2643 752 
Q 2906 1113 2906 1747 
Q 2906 2381 2643 2742 
Q 2381 3103 1925 3103 
Q 1469 3103 1208 2742 
Q 947 2381 947 1747 
z
" transform="scale(0.015625)"/>
      <path id="DejaVuSans-62" d="M 3116 1747 
Q 3116 2381 2855 2742 
Q 2594 3103 2138 3103 
Q 1681 3103 1420 2742 
Q 1159 2381 1159 1747 
Q 1159 1113 1420 752 
Q 1681 391 2138 391 
Q 2594 391 2855 752 
Q 3116 1113 3116 1747 
z
M 1159 2969 
Q 1341 3281 1617 3432 
Q 1894 3584 2278 3584 
Q 2916 3584 3314 3078 
Q 3713 2572 3713 1747 
Q 3713 922 3314 415 
Q 2916 -91 2278 -91 
Q 1894 -91 1617 61 
Q 1341 213 1159 525 
L 1159 0 
L 581 0 
L 581 4863 
L 1159 4863 
L 1159 2969 
z
" transform="scale(0.015625)"/>
      <path id="DejaVuSans-6e" d="M 3513 2113 
L 3513 0 
L 2938 0 
L 2938 2094 
Q 2938 2591 2744 2837 
Q 2550 3084 2163 3084 
Q 1697 3084 1428 2787 
Q 1159 2491 1159 1978 
L 1159 0 
L 581 0 
L 581 3500 
L 1159 3500 
L 1159 2956 
Q 1366 3272 1645 3428 
Q 1925 3584 2291 3584 
Q 2894 3584 3203 3211 
Q 3513 2838 3513 2113 
z
" transform="scale(0.015625)"/>
      <path id="DejaVuSans-4f" d="M 2522 4238 
Q 1834 4238 1429 3725 
Q 1025 3213 1025 2328 
Q 1025 1447 1429 934 
Q 1834 422 2522 422 
Q 3209 422 3611 934 
Q 4013 1447 4013 2328 
Q 4013 3213 3611 3725 
Q 3209 4238 2522 4238 
z
M 2522 4750 
Q 3503 4750 4090 4092 
Q 4678 3434 4678 2328 
Q 4678 1225 4090 567 
Q 3503 -91 2522 -91 
Q 1538 -91 948 565 
Q 359 1222 359 2328 
Q 359 3434 948 4092 
Q 1538 4750 2522 4750 
z
" transform="scale(0.015625)"/>
      <path id="DejaVuSans-6d" d="M 3328 2828 
Q 3544 3216 3844 3400 
Q 4144 3584 4550 3584 
Q 5097 3584 5394 3201 
Q 5691 2819 5691 2113 
L 5691 0 
L 5113 0 
L 5113 2094 
Q 5113 2597 4934 2840 
Q 4756 3084 4391 3084 
Q 3944 3084 3684 2787 
Q 3425 2491 3425 1978 
L 3425 0 
L 2847 0 
L 2847 2094 
Q 2847 2600 2669 2842 
Q 2491 3084 2119 3084 
Q 1678 3084 1418 2786 
Q 1159 2488 1159 1978 
L 1159 0 
L 581 0 
L 581 3500 
L 1159 3500 
L 1159 2956 
Q 1356 3278 1631 3431 
Q 1906 3584 2284 3584 
Q 2666 3584 2933 3390 
Q 3200 3197 3328 2828 
z
" transform="scale(0.015625)"/>
      <path id="DejaVuSans-54" d="M -19 4666 
L 3928 4666 
L 3928 4134 
L 2272 4134 
L 2272 0 
L 1638 0 
L 1638 4134 
L -19 4134 
L -19 4666 
z
" transform="scale(0.015625)"/>
      <path id="DejaVuSans-67" d="M 2906 1791 
Q 2906 2416 2648 2759 
Q 2391 3103 1925 3103 
Q 1463 3103 1205 2759 
Q 947 2416 947 1791 
Q 947 1169 1205 825 
Q 1463 481 1925 481 
Q 2391 481 2648 825 
Q 2906 1169 2906 1791 
z
M 3481 434 
Q 3481 -459 3084 -895 
Q 2688 -1331 1869 -1331 
Q 1566 -1331 1297 -1286 
Q 1028 -1241 775 -1147 
L 775 -588 
Q 1028 -725 1275 -790 
Q 1522 -856 1778 -856 
Q 2344 -856 2625 -561 
Q 2906 -266 2906 331 
L 2906 616 
Q 2728 306 2450 153 
Q 2172 0 1784 0 
Q 1141 0 747 490 
Q 353 981 353 1791 
Q 353 2603 747 3093 
Q 1141 3584 1784 3584 
Q 2172 3584 2450 3431 
Q 2728 3278 2906 2969 
L 2906 3500 
L 3481 3500 
L 3481 434 
z
" transform="scale(0.015625)"/>
     </defs>
     <use xlink:href="#DejaVuSans-69"/>
     <use xlink:href="#DejaVuSans-74" transform="translate(27.783203 0)"/>
     <use xlink:href="#DejaVuSans-31" transform="translate(66.992188 0)"/>
     <use xlink:href="#DejaVuSans-5f" transform="translate(130.615234 0)"/>
     <use xlink:href="#DejaVuSans-73" transform="translate(180.615234 0)"/>
     <use xlink:href="#DejaVuSans-6f" transform="translate(232.714844 0)"/>
     <use xlink:href="#DejaVuSans-75" transform="translate(293.896484 0)"/>
     <use xlink:href="#DejaVuSans-72" transform="translate(357.275391 0)"/>
     <use xlink:href="#DejaVuSans-63" transform="translate(396.138672 0)"/>
     <use xlink:href="#DejaVuSans-65" transform="translate(451.119141 0)"/>
     <use xlink:href="#DejaVuSans-5f" transform="translate(512.642578 0)"/>
     <use xlink:href="#DejaVuSans-70" transform="translate(562.642578 0)"/>
     <use xlink:href="#DejaVuSans-75" transform="translate(626.119141 0)"/>
     <use xlink:href="#DejaVuSans-6c" transform="translate(689.498047 0)"/>
     <use xlink:href="#DejaVuSans-6c" transform="translate(717.28125 0)"/>
     <use xlink:href="#DejaVuSans-20" transform="translate(745.064453 0)"/>
     <use xlink:href="#DejaVuSans-2d" transform="translate(776.851562 0)"/>
     <use xlink:href="#DejaVuSans-20" transform="translate(812.935547 0)"/>
     <use xlink:href="#DejaVuSans-42" transform="translate(844.722656 0)"/>
     <use xlink:href="#DejaVuSans-72" transform="translate(913.326172 0)"/>
     <use xlink:href="#DejaVuSans-6f" transform="translate(952.189453 0)"/>
     <use xlink:href="#DejaVuSans-61" transform="translate(1013.371094 0)"/>
     <use xlink:href="#DejaVuSans-64" transform="translate(1074.650391 0)"/>
     <use xlink:href="#DejaVuSans-62" transform="translate(1138.126953 0)"/>
     <use xlink:href="#DejaVuSans-61" transform="translate(1201.603516 0)"/>
     <use xlink:href="#DejaVuSans-6e" transform="translate(1262.882812 0)"/>
     <use xlink:href="#DejaVuSans-64" transform="translate(1326.261719 0)"/>
     <use xlink:href="#DejaVuSans-20" transform="translate(1389.738281 0)"/>
     <use xlink:href="#DejaVuSans-4f" transform="translate(1421.525391 0)"/>
     <use xlink:href="#DejaVuSans-70" transform="translate(1500.236328 0)"/>
     <use xlink:href="#DejaVuSans-74" transform="translate(1563.712891 0)"/>
     <use xlink:href="#DejaVuSans-69" transform="translate(1602.921875 0)"/>
     <use xlink:href="#DejaVuSans-6d" transform="translate(1630.705078 0)"/>
     <use xlink:href="#DejaVuSans-75" transform="translate(1728.117188 0)"/>
     <use xlink:href="#DejaVuSans-6d" transform="translate(1791.496094 0)"/>
     <use xlink:href="#DejaVuSans-20" transform="translate(1888.908203 0)"/>
     <use xlink:href="#DejaVuSans-54" transform="translate(1920.695312 0)"/>
     <use xlink:href="#DejaVuSans-61" transform="translate(1965.279297 0)"/>
     <use xlink:href="#DejaVuSans-72" transform="translate(2026.558594 0)"/>
     <use xlink:href="#DejaVuSans-67" transform="translate(2065.921875 0)"/>
     <use xlink:href="#DejaVuSans-65" transform="translate(2129.398438 0)"/>
     <use xlink:href="#DejaVuSans-74" transform="translate(2190.921875 0)"/>
    </g>
   </g>
   <g id="legend_1">
    <g id="patch_27">
     <path d="M 854.121525 535.195901 
L 1015.544962 535.195901 
Q 1017.544962 535.195901 1017.544962 533.195901 
L 1017.544962 343.380276 
Q 1017.544962 341.380276 1015.544962 341.380276 
L 854.121525 341.380276 
Q 852.121525 341.380276 852.121525 343.380276 
L 852.121525 533.195901 
Q 852.121525 535.195901 854.121525 535.195901 
z
" style="fill: #ffffff; opacity: 0.8; stroke: #cccccc; stroke-linejoin: miter"/>
    </g>
    <g id="line2d_31">
     <path d="M 856.121525 349.478713 
L 866.121525 349.478713 
L 876.121525 349.478713 
" style="fill: none; stroke: #1f77b4; stroke-opacity: 0.99; stroke-width: 0.2; stroke-linecap: square"/>
    </g>
    <g id="text_19">
     <!-- 12.70 GHz (Target: 12.25) -->
     <g transform="translate(884.121525 352.978713) scale(0.1 -0.1)">
      <defs>
       <path id="DejaVuSans-37" d="M 525 4666 
L 3525 4666 
L 3525 4397 
L 1831 0 
L 1172 0 
L 2766 4134 
L 525 4134 
L 525 4666 
z
" transform="scale(0.015625)"/>
       <path id="DejaVuSans-47" d="M 3809 666 
L 3809 1919 
L 2778 1919 
L 2778 2438 
L 4434 2438 
L 4434 434 
Q 4069 175 3628 42 
Q 3188 -91 2688 -91 
Q 1594 -91 976 548 
Q 359 1188 359 2328 
Q 359 3472 976 4111 
Q 1594 4750 2688 4750 
Q 3144 4750 3555 4637 
Q 3966 4525 4313 4306 
L 4313 3634 
Q 3963 3931 3569 4081 
Q 3175 4231 2741 4231 
Q 1884 4231 1454 3753 
Q 1025 3275 1025 2328 
Q 1025 1384 1454 906 
Q 1884 428 2741 428 
Q 3075 428 3337 486 
Q 3600 544 3809 666 
z
" transform="scale(0.015625)"/>
       <path id="DejaVuSans-48" d="M 628 4666 
L 1259 4666 
L 1259 2753 
L 3553 2753 
L 3553 4666 
L 4184 4666 
L 4184 0 
L 3553 0 
L 3553 2222 
L 1259 2222 
L 1259 0 
L 628 0 
L 628 4666 
z
" transform="scale(0.015625)"/>
       <path id="DejaVuSans-7a" d="M 353 3500 
L 3084 3500 
L 3084 2975 
L 922 459 
L 3084 459 
L 3084 0 
L 275 0 
L 275 525 
L 2438 3041 
L 353 3041 
L 353 3500 
z
" transform="scale(0.015625)"/>
       <path id="DejaVuSans-28" d="M 1984 4856 
Q 1566 4138 1362 3434 
Q 1159 2731 1159 2009 
Q 1159 1288 1364 580 
Q 1569 -128 1984 -844 
L 1484 -844 
Q 1016 -109 783 600 
Q 550 1309 550 2009 
Q 550 2706 781 3412 
Q 1013 4119 1484 4856 
L 1984 4856 
z
" transform="scale(0.015625)"/>
       <path id="DejaVuSans-3a" d="M 750 794 
L 1409 794 
L 1409 0 
L 750 0 
L 750 794 
z
M 750 3309 
L 1409 3309 
L 1409 2516 
L 750 2516 
L 750 3309 
z
" transform="scale(0.015625)"/>
       <path id="DejaVuSans-29" d="M 513 4856 
L 1013 4856 
Q 1481 4119 1714 3412 
Q 1947 2706 1947 2009 
Q 1947 1309 1714 600 
Q 1481 -109 1013 -844 
L 513 -844 
Q 928 -128 1133 580 
Q 1338 1288 1338 2009 
Q 1338 2731 1133 3434 
Q 928 4138 513 4856 
z
" transform="scale(0.015625)"/>
      </defs>
      <use xlink:href="#DejaVuSans-31"/>
      <use xlink:href="#DejaVuSans-32" transform="translate(63.623047 0)"/>
      <use xlink:href="#DejaVuSans-2e" transform="translate(127.246094 0)"/>
      <use xlink:href="#DejaVuSans-37" transform="translate(159.033203 0)"/>
      <use xlink:href="#DejaVuSans-30" transform="translate(222.65625 0)"/>
      <use xlink:href="#DejaVuSans-20" transform="translate(286.279297 0)"/>
      <use xlink:href="#DejaVuSans-47" transform="translate(318.066406 0)"/>
      <use xlink:href="#DejaVuSans-48" transform="translate(395.556641 0)"/>
      <use xlink:href="#DejaVuSans-7a" transform="translate(470.751953 0)"/>
      <use xlink:href="#DejaVuSans-20" transform="translate(523.242188 0)"/>
      <use xlink:href="#DejaVuSans-28" transform="translate(555.029297 0)"/>
      <use xlink:href="#DejaVuSans-54" transform="translate(594.042969 0)"/>
      <use xlink:href="#DejaVuSans-61" transform="translate(638.626953 0)"/>
      <use xlink:href="#DejaVuSans-72" transform="translate(699.90625 0)"/>
      <use xlink:href="#DejaVuSans-67" transform="translate(739.269531 0)"/>
      <use xlink:href="#DejaVuSans-65" transform="translate(802.746094 0)"/>
      <use xlink:href="#DejaVuSans-74" transform="translate(864.269531 0)"/>
      <use xlink:href="#DejaVuSans-3a" transform="translate(903.478516 0)"/>
      <use xlink:href="#DejaVuSans-20" transform="translate(937.169922 0)"/>
      <use xlink:href="#DejaVuSans-31" transform="translate(968.957031 0)"/>
      <use xlink:href="#DejaVuSans-32" transform="translate(1032.580078 0)"/>
      <use xlink:href="#DejaVuSans-2e" transform="translate(1096.203125 0)"/>
      <use xlink:href="#DejaVuSans-32" transform="translate(1127.990234 0)"/>
      <use xlink:href="#DejaVuSans-35" transform="translate(1191.613281 0)"/>
      <use xlink:href="#DejaVuSans-29" transform="translate(1255.236328 0)"/>
     </g>
    </g>
    <g id="line2d_32">
     <path d="M 856.121525 364.156838 
L 866.121525 364.156838 
L 876.121525 364.156838 
" style="fill: none; stroke: #ff7f0e; stroke-opacity: 0.99; stroke-width: 0.2; stroke-linecap: square"/>
    </g>
    <g id="text_20">
     <!-- 12.75 GHz (Target: 12.25) -->
     <g transform="translate(884.121525 367.656838) scale(0.1 -0.1)">
      <use xlink:href="#DejaVuSans-31"/>
      <use xlink:href="#DejaVuSans-32" transform="translate(63.623047 0)"/>
      <use xlink:href="#DejaVuSans-2e" transform="translate(127.246094 0)"/>
      <use xlink:href="#DejaVuSans-37" transform="translate(159.033203 0)"/>
      <use xlink:href="#DejaVuSans-35" transform="translate(222.65625 0)"/>
      <use xlink:href="#DejaVuSans-20" transform="translate(286.279297 0)"/>
      <use xlink:href="#DejaVuSans-47" transform="translate(318.066406 0)"/>
      <use xlink:href="#DejaVuSans-48" transform="translate(395.556641 0)"/>
      <use xlink:href="#DejaVuSans-7a" transform="translate(470.751953 0)"/>
      <use xlink:href="#DejaVuSans-20" transform="translate(523.242188 0)"/>
      <use xlink:href="#DejaVuSans-28" transform="translate(555.029297 0)"/>
      <use xlink:href="#DejaVuSans-54" transform="translate(594.042969 0)"/>
      <use xlink:href="#DejaVuSans-61" transform="translate(638.626953 0)"/>
      <use xlink:href="#DejaVuSans-72" transform="translate(699.90625 0)"/>
      <use xlink:href="#DejaVuSans-67" transform="translate(739.269531 0)"/>
      <use xlink:href="#DejaVuSans-65" transform="translate(802.746094 0)"/>
      <use xlink:href="#DejaVuSans-74" transform="translate(864.269531 0)"/>
      <use xlink:href="#DejaVuSans-3a" transform="translate(903.478516 0)"/>
      <use xlink:href="#DejaVuSans-20" transform="translate(937.169922 0)"/>
      <use xlink:href="#DejaVuSans-31" transform="translate(968.957031 0)"/>
      <use xlink:href="#DejaVuSans-32" transform="translate(1032.580078 0)"/>
      <use xlink:href="#DejaVuSans-2e" transform="translate(1096.203125 0)"/>
      <use xlink:href="#DejaVuSans-32" transform="translate(1127.990234 0)"/>
      <use xlink:href="#DejaVuSans-35" transform="translate(1191.613281 0)"/>
      <use xlink:href="#DejaVuSans-29" transform="translate(1255.236328 0)"/>
     </g>
    </g>
    <g id="line2d_33">
     <path d="M 856.121525 378.834963 
L 866.121525 378.834963 
L 876.121525 378.834963 
" style="fill: none; stroke: #2ca02c; stroke-opacity: 0.99; stroke-width: 0.2; stroke-linecap: square"/>
    </g>
    <g id="text_21">
     <!-- 12.80 GHz (Target: 12.25) -->
     <g transform="translate(884.121525 382.334963) scale(0.1 -0.1)">
      <defs>
       <path id="DejaVuSans-38" d="M 2034 2216 
Q 1584 2216 1326 1975 
Q 1069 1734 1069 1313 
Q 1069 891 1326 650 
Q 1584 409 2034 409 
Q 2484 409 2743 651 
Q 3003 894 3003 1313 
Q 3003 1734 2745 1975 
Q 2488 2216 2034 2216 
z
M 1403 2484 
Q 997 2584 770 2862 
Q 544 3141 544 3541 
Q 544 4100 942 4425 
Q 1341 4750 2034 4750 
Q 2731 4750 3128 4425 
Q 3525 4100 3525 3541 
Q 3525 3141 3298 2862 
Q 3072 2584 2669 2484 
Q 3125 2378 3379 2068 
Q 3634 1759 3634 1313 
Q 3634 634 3220 271 
Q 2806 -91 2034 -91 
Q 1263 -91 848 271 
Q 434 634 434 1313 
Q 434 1759 690 2068 
Q 947 2378 1403 2484 
z
M 1172 3481 
Q 1172 3119 1398 2916 
Q 1625 2713 2034 2713 
Q 2441 2713 2670 2916 
Q 2900 3119 2900 3481 
Q 2900 3844 2670 4047 
Q 2441 4250 2034 4250 
Q 1625 4250 1398 4047 
Q 1172 3844 1172 3481 
z
" transform="scale(0.015625)"/>
      </defs>
      <use xlink:href="#DejaVuSans-31"/>
      <use xlink:href="#DejaVuSans-32" transform="translate(63.623047 0)"/>
      <use xlink:href="#DejaVuSans-2e" transform="translate(127.246094 0)"/>
      <use xlink:href="#DejaVuSans-38" transform="translate(159.033203 0)"/>
      <use xlink:href="#DejaVuSans-30" transform="translate(222.65625 0)"/>
      <use xlink:href="#DejaVuSans-20" transform="translate(286.279297 0)"/>
      <use xlink:href="#DejaVuSans-47" transform="translate(318.066406 0)"/>
      <use xlink:href="#DejaVuSans-48" transform="translate(395.556641 0)"/>
      <use xlink:href="#DejaVuSans-7a" transform="translate(470.751953 0)"/>
      <use xlink:href="#DejaVuSans-20" transform="translate(523.242188 0)"/>
      <use xlink:href="#DejaVuSans-28" transform="translate(555.029297 0)"/>
      <use xlink:href="#DejaVuSans-54" transform="translate(594.042969 0)"/>
      <use xlink:href="#DejaVuSans-61" transform="translate(638.626953 0)"/>
      <use xlink:href="#DejaVuSans-72" transform="translate(699.90625 0)"/>
      <use xlink:href="#DejaVuSans-67" transform="translate(739.269531 0)"/>
      <use xlink:href="#DejaVuSans-65" transform="translate(802.746094 0)"/>
      <use xlink:href="#DejaVuSans-74" transform="translate(864.269531 0)"/>
      <use xlink:href="#DejaVuSans-3a" transform="translate(903.478516 0)"/>
      <use xlink:href="#DejaVuSans-20" transform="translate(937.169922 0)"/>
      <use xlink:href="#DejaVuSans-31" transform="translate(968.957031 0)"/>
      <use xlink:href="#DejaVuSans-32" transform="translate(1032.580078 0)"/>
      <use xlink:href="#DejaVuSans-2e" transform="translate(1096.203125 0)"/>
      <use xlink:href="#DejaVuSans-32" transform="translate(1127.990234 0)"/>
      <use xlink:href="#DejaVuSans-35" transform="translate(1191.613281 0)"/>
      <use xlink:href="#DejaVuSans-29" transform="translate(1255.236328 0)"/>
     </g>
    </g>
    <g id="line2d_34">
     <path d="M 856.121525 393.513088 
L 866.121525 393.513088 
L 876.121525 393.513088 
" style="fill: none; stroke: #d62728; stroke-opacity: 0.99; stroke-width: 0.2; stroke-linecap: square"/>
    </g>
    <g id="text_22">
     <!-- 12.85 GHz (Target: 12.25) -->
     <g transform="translate(884.121525 397.013088) scale(0.1 -0.1)">
      <use xlink:href="#DejaVuSans-31"/>
      <use xlink:href="#DejaVuSans-32" transform="translate(63.623047 0)"/>
      <use xlink:href="#DejaVuSans-2e" transform="translate(127.246094 0)"/>
      <use xlink:href="#DejaVuSans-38" transform="translate(159.033203 0)"/>
      <use xlink:href="#DejaVuSans-35" transform="translate(222.65625 0)"/>
      <use xlink:href="#DejaVuSans-20" transform="translate(286.279297 0)"/>
      <use xlink:href="#DejaVuSans-47" transform="translate(318.066406 0)"/>
      <use xlink:href="#DejaVuSans-48" transform="translate(395.556641 0)"/>
      <use xlink:href="#DejaVuSans-7a" transform="translate(470.751953 0)"/>
      <use xlink:href="#DejaVuSans-20" transform="translate(523.242188 0)"/>
      <use xlink:href="#DejaVuSans-28" transform="translate(555.029297 0)"/>
      <use xlink:href="#DejaVuSans-54" transform="translate(594.042969 0)"/>
      <use xlink:href="#DejaVuSans-61" transform="translate(638.626953 0)"/>
      <use xlink:href="#DejaVuSans-72" transform="translate(699.90625 0)"/>
      <use xlink:href="#DejaVuSans-67" transform="translate(739.269531 0)"/>
      <use xlink:href="#DejaVuSans-65" transform="translate(802.746094 0)"/>
      <use xlink:href="#DejaVuSans-74" transform="translate(864.269531 0)"/>
      <use xlink:href="#DejaVuSans-3a" transform="translate(903.478516 0)"/>
      <use xlink:href="#DejaVuSans-20" transform="translate(937.169922 0)"/>
      <use xlink:href="#DejaVuSans-31" transform="translate(968.957031 0)"/>
      <use xlink:href="#DejaVuSans-32" transform="translate(1032.580078 0)"/>
      <use xlink:href="#DejaVuSans-2e" transform="translate(1096.203125 0)"/>
      <use xlink:href="#DejaVuSans-32" transform="translate(1127.990234 0)"/>
      <use xlink:href="#DejaVuSans-35" transform="translate(1191.613281 0)"/>
      <use xlink:href="#DejaVuSans-29" transform="translate(1255.236328 0)"/>
     </g>
    </g>
    <g id="line2d_35">
     <path d="M 856.121525 408.191213 
L 866.121525 408.191213 
L 876.121525 408.191213 
" style="fill: none; stroke: #9467bd; stroke-opacity: 0.99; stroke-width: 0.2; stroke-linecap: square"/>
    </g>
    <g id="text_23">
     <!-- 12.90 GHz (Target: 12.25) -->
     <g transform="translate(884.121525 411.691213) scale(0.1 -0.1)">
      <defs>
       <path id="DejaVuSans-39" d="M 703 97 
L 703 672 
Q 941 559 1184 500 
Q 1428 441 1663 441 
Q 2288 441 2617 861 
Q 2947 1281 2994 2138 
Q 2813 1869 2534 1725 
Q 2256 1581 1919 1581 
Q 1219 1581 811 2004 
Q 403 2428 403 3163 
Q 403 3881 828 4315 
Q 1253 4750 1959 4750 
Q 2769 4750 3195 4129 
Q 3622 3509 3622 2328 
Q 3622 1225 3098 567 
Q 2575 -91 1691 -91 
Q 1453 -91 1209 -44 
Q 966 3 703 97 
z
M 1959 2075 
Q 2384 2075 2632 2365 
Q 2881 2656 2881 3163 
Q 2881 3666 2632 3958 
Q 2384 4250 1959 4250 
Q 1534 4250 1286 3958 
Q 1038 3666 1038 3163 
Q 1038 2656 1286 2365 
Q 1534 2075 1959 2075 
z
" transform="scale(0.015625)"/>
      </defs>
      <use xlink:href="#DejaVuSans-31"/>
      <use xlink:href="#DejaVuSans-32" transform="translate(63.623047 0)"/>
      <use xlink:href="#DejaVuSans-2e" transform="translate(127.246094 0)"/>
      <use xlink:href="#DejaVuSans-39" transform="translate(159.033203 0)"/>
      <use xlink:href="#DejaVuSans-30" transform="translate(222.65625 0)"/>
      <use xlink:href="#DejaVuSans-20" transform="translate(286.279297 0)"/>
      <use xlink:href="#DejaVuSans-47" transform="translate(318.066406 0)"/>
      <use xlink:href="#DejaVuSans-48" transform="translate(395.556641 0)"/>
      <use xlink:href="#DejaVuSans-7a" transform="translate(470.751953 0)"/>
      <use xlink:href="#DejaVuSans-20" transform="translate(523.242188 0)"/>
      <use xlink:href="#DejaVuSans-28" transform="translate(555.029297 0)"/>
      <use xlink:href="#DejaVuSans-54" transform="translate(594.042969 0)"/>
      <use xlink:href="#DejaVuSans-61" transform="translate(638.626953 0)"/>
      <use xlink:href="#DejaVuSans-72" transform="translate(699.90625 0)"/>
      <use xlink:href="#DejaVuSans-67" transform="translate(739.269531 0)"/>
      <use xlink:href="#DejaVuSans-65" transform="translate(802.746094 0)"/>
      <use xlink:href="#DejaVuSans-74" transform="translate(864.269531 0)"/>
      <use xlink:href="#DejaVuSans-3a" transform="translate(903.478516 0)"/>
      <use xlink:href="#DejaVuSans-20" transform="translate(937.169922 0)"/>
      <use xlink:href="#DejaVuSans-31" transform="translate(968.957031 0)"/>
      <use xlink:href="#DejaVuSans-32" transform="translate(1032.580078 0)"/>
      <use xlink:href="#DejaVuSans-2e" transform="translate(1096.203125 0)"/>
      <use xlink:href="#DejaVuSans-32" transform="translate(1127.990234 0)"/>
      <use xlink:href="#DejaVuSans-35" transform="translate(1191.613281 0)"/>
      <use xlink:href="#DejaVuSans-29" transform="translate(1255.236328 0)"/>
     </g>
    </g>
    <g id="line2d_36">
     <path d="M 856.121525 422.869338 
L 866.121525 422.869338 
L 876.121525 422.869338 
" style="fill: none; stroke: #8c564b; stroke-opacity: 0.99; stroke-width: 0.2; stroke-linecap: square"/>
    </g>
    <g id="text_24">
     <!-- 12.95 GHz (Target: 12.25) -->
     <g transform="translate(884.121525 426.369338) scale(0.1 -0.1)">
      <use xlink:href="#DejaVuSans-31"/>
      <use xlink:href="#DejaVuSans-32" transform="translate(63.623047 0)"/>
      <use xlink:href="#DejaVuSans-2e" transform="translate(127.246094 0)"/>
      <use xlink:href="#DejaVuSans-39" transform="translate(159.033203 0)"/>
      <use xlink:href="#DejaVuSans-35" transform="translate(222.65625 0)"/>
      <use xlink:href="#DejaVuSans-20" transform="translate(286.279297 0)"/>
      <use xlink:href="#DejaVuSans-47" transform="translate(318.066406 0)"/>
      <use xlink:href="#DejaVuSans-48" transform="translate(395.556641 0)"/>
      <use xlink:href="#DejaVuSans-7a" transform="translate(470.751953 0)"/>
      <use xlink:href="#DejaVuSans-20" transform="translate(523.242188 0)"/>
      <use xlink:href="#DejaVuSans-28" transform="translate(555.029297 0)"/>
      <use xlink:href="#DejaVuSans-54" transform="translate(594.042969 0)"/>
      <use xlink:href="#DejaVuSans-61" transform="translate(638.626953 0)"/>
      <use xlink:href="#DejaVuSans-72" transform="translate(699.90625 0)"/>
      <use xlink:href="#DejaVuSans-67" transform="translate(739.269531 0)"/>
      <use xlink:href="#DejaVuSans-65" transform="translate(802.746094 0)"/>
      <use xlink:href="#DejaVuSans-74" transform="translate(864.269531 0)"/>
      <use xlink:href="#DejaVuSans-3a" transform="translate(903.478516 0)"/>
      <use xlink:href="#DejaVuSans-20" transform="translate(937.169922 0)"/>
      <use xlink:href="#DejaVuSans-31" transform="translate(968.957031 0)"/>
      <use xlink:href="#DejaVuSans-32" transform="translate(1032.580078 0)"/>
      <use xlink:href="#DejaVuSans-2e" transform="translate(1096.203125 0)"/>
      <use xlink:href="#DejaVuSans-32" transform="translate(1127.990234 0)"/>
      <use xlink:href="#DejaVuSans-35" transform="translate(1191.613281 0)"/>
      <use xlink:href="#DejaVuSans-29" transform="translate(1255.236328 0)"/>
     </g>
    </g>
    <g id="line2d_37">
     <path d="M 856.121525 437.547463 
L 866.121525 437.547463 
L 876.121525 437.547463 
" style="fill: none; stroke: #e377c2; stroke-opacity: 0.99; stroke-width: 0.2; stroke-linecap: square"/>
    </g>
    <g id="text_25">
     <!-- 13.00 GHz (Target: 12.25) -->
     <g transform="translate(884.121525 441.047463) scale(0.1 -0.1)">
      <defs>
       <path id="DejaVuSans-33" d="M 2597 2516 
Q 3050 2419 3304 2112 
Q 3559 1806 3559 1356 
Q 3559 666 3084 287 
Q 2609 -91 1734 -91 
Q 1441 -91 1130 -33 
Q 819 25 488 141 
L 488 750 
Q 750 597 1062 519 
Q 1375 441 1716 441 
Q 2309 441 2620 675 
Q 2931 909 2931 1356 
Q 2931 1769 2642 2001 
Q 2353 2234 1838 2234 
L 1294 2234 
L 1294 2753 
L 1863 2753 
Q 2328 2753 2575 2939 
Q 2822 3125 2822 3475 
Q 2822 3834 2567 4026 
Q 2313 4219 1838 4219 
Q 1578 4219 1281 4162 
Q 984 4106 628 3988 
L 628 4550 
Q 988 4650 1302 4700 
Q 1616 4750 1894 4750 
Q 2613 4750 3031 4423 
Q 3450 4097 3450 3541 
Q 3450 3153 3228 2886 
Q 3006 2619 2597 2516 
z
" transform="scale(0.015625)"/>
      </defs>
      <use xlink:href="#DejaVuSans-31"/>
      <use xlink:href="#DejaVuSans-33" transform="translate(63.623047 0)"/>
      <use xlink:href="#DejaVuSans-2e" transform="translate(127.246094 0)"/>
      <use xlink:href="#DejaVuSans-30" transform="translate(159.033203 0)"/>
      <use xlink:href="#DejaVuSans-30" transform="translate(222.65625 0)"/>
      <use xlink:href="#DejaVuSans-20" transform="translate(286.279297 0)"/>
      <use xlink:href="#DejaVuSans-47" transform="translate(318.066406 0)"/>
      <use xlink:href="#DejaVuSans-48" transform="translate(395.556641 0)"/>
      <use xlink:href="#DejaVuSans-7a" transform="translate(470.751953 0)"/>
      <use xlink:href="#DejaVuSans-20" transform="translate(523.242188 0)"/>
      <use xlink:href="#DejaVuSans-28" transform="translate(555.029297 0)"/>
      <use xlink:href="#DejaVuSans-54" transform="translate(594.042969 0)"/>
      <use xlink:href="#DejaVuSans-61" transform="translate(638.626953 0)"/>
      <use xlink:href="#DejaVuSans-72" transform="translate(699.90625 0)"/>
      <use xlink:href="#DejaVuSans-67" transform="translate(739.269531 0)"/>
      <use xlink:href="#DejaVuSans-65" transform="translate(802.746094 0)"/>
      <use xlink:href="#DejaVuSans-74" transform="translate(864.269531 0)"/>
      <use xlink:href="#DejaVuSans-3a" transform="translate(903.478516 0)"/>
      <use xlink:href="#DejaVuSans-20" transform="translate(937.169922 0)"/>
      <use xlink:href="#DejaVuSans-31" transform="translate(968.957031 0)"/>
      <use xlink:href="#DejaVuSans-32" transform="translate(1032.580078 0)"/>
      <use xlink:href="#DejaVuSans-2e" transform="translate(1096.203125 0)"/>
      <use xlink:href="#DejaVuSans-32" transform="translate(1127.990234 0)"/>
      <use xlink:href="#DejaVuSans-35" transform="translate(1191.613281 0)"/>
      <use xlink:href="#DejaVuSans-29" transform="translate(1255.236328 0)"/>
     </g>
    </g>
    <g id="line2d_38">
     <path d="M 856.121525 452.225588 
L 866.121525 452.225588 
L 876.121525 452.225588 
" style="fill: none; stroke: #7f7f7f; stroke-opacity: 0.99; stroke-width: 0.2; stroke-linecap: square"/>
    </g>
    <g id="text_26">
     <!-- 13.05 GHz (Target: 12.0) -->
     <g transform="translate(884.121525 455.725588) scale(0.1 -0.1)">
      <use xlink:href="#DejaVuSans-31"/>
      <use xlink:href="#DejaVuSans-33" transform="translate(63.623047 0)"/>
      <use xlink:href="#DejaVuSans-2e" transform="translate(127.246094 0)"/>
      <use xlink:href="#DejaVuSans-30" transform="translate(159.033203 0)"/>
      <use xlink:href="#DejaVuSans-35" transform="translate(222.65625 0)"/>
      <use xlink:href="#DejaVuSans-20" transform="translate(286.279297 0)"/>
      <use xlink:href="#DejaVuSans-47" transform="translate(318.066406 0)"/>
      <use xlink:href="#DejaVuSans-48" transform="translate(395.556641 0)"/>
      <use xlink:href="#DejaVuSans-7a" transform="translate(470.751953 0)"/>
      <use xlink:href="#DejaVuSans-20" transform="translate(523.242188 0)"/>
      <use xlink:href="#DejaVuSans-28" transform="translate(555.029297 0)"/>
      <use xlink:href="#DejaVuSans-54" transform="translate(594.042969 0)"/>
      <use xlink:href="#DejaVuSans-61" transform="translate(638.626953 0)"/>
      <use xlink:href="#DejaVuSans-72" transform="translate(699.90625 0)"/>
      <use xlink:href="#DejaVuSans-67" transform="translate(739.269531 0)"/>
      <use xlink:href="#DejaVuSans-65" transform="translate(802.746094 0)"/>
      <use xlink:href="#DejaVuSans-74" transform="translate(864.269531 0)"/>
      <use xlink:href="#DejaVuSans-3a" transform="translate(903.478516 0)"/>
      <use xlink:href="#DejaVuSans-20" transform="translate(937.169922 0)"/>
      <use xlink:href="#DejaVuSans-31" transform="translate(968.957031 0)"/>
      <use xlink:href="#DejaVuSans-32" transform="translate(1032.580078 0)"/>
      <use xlink:href="#DejaVuSans-2e" transform="translate(1096.203125 0)"/>
      <use xlink:href="#DejaVuSans-30" transform="translate(1127.990234 0)"/>
      <use xlink:href="#DejaVuSans-29" transform="translate(1191.613281 0)"/>
     </g>
    </g>
    <g id="line2d_39">
     <path d="M 856.121525 466.903713 
L 866.121525 466.903713 
L 876.121525 466.903713 
" style="fill: none; stroke: #bcbd22; stroke-opacity: 0.99; stroke-width: 0.2; stroke-linecap: square"/>
    </g>
    <g id="text_27">
     <!-- 13.10 GHz (Target: 12.0) -->
     <g transform="translate(884.121525 470.403713) scale(0.1 -0.1)">
      <use xlink:href="#DejaVuSans-31"/>
      <use xlink:href="#DejaVuSans-33" transform="translate(63.623047 0)"/>
      <use xlink:href="#DejaVuSans-2e" transform="translate(127.246094 0)"/>
      <use xlink:href="#DejaVuSans-31" transform="translate(159.033203 0)"/>
      <use xlink:href="#DejaVuSans-30" transform="translate(222.65625 0)"/>
      <use xlink:href="#DejaVuSans-20" transform="translate(286.279297 0)"/>
      <use xlink:href="#DejaVuSans-47" transform="translate(318.066406 0)"/>
      <use xlink:href="#DejaVuSans-48" transform="translate(395.556641 0)"/>
      <use xlink:href="#DejaVuSans-7a" transform="translate(470.751953 0)"/>
      <use xlink:href="#DejaVuSans-20" transform="translate(523.242188 0)"/>
      <use xlink:href="#DejaVuSans-28" transform="translate(555.029297 0)"/>
      <use xlink:href="#DejaVuSans-54" transform="translate(594.042969 0)"/>
      <use xlink:href="#DejaVuSans-61" transform="translate(638.626953 0)"/>
      <use xlink:href="#DejaVuSans-72" transform="translate(699.90625 0)"/>
      <use xlink:href="#DejaVuSans-67" transform="translate(739.269531 0)"/>
      <use xlink:href="#DejaVuSans-65" transform="translate(802.746094 0)"/>
      <use xlink:href="#DejaVuSans-74" transform="translate(864.269531 0)"/>
      <use xlink:href="#DejaVuSans-3a" transform="translate(903.478516 0)"/>
      <use xlink:href="#DejaVuSans-20" transform="translate(937.169922 0)"/>
      <use xlink:href="#DejaVuSans-31" transform="translate(968.957031 0)"/>
      <use xlink:href="#DejaVuSans-32" transform="translate(1032.580078 0)"/>
      <use xlink:href="#DejaVuSans-2e" transform="translate(1096.203125 0)"/>
      <use xlink:href="#DejaVuSans-30" transform="translate(1127.990234 0)"/>
      <use xlink:href="#DejaVuSans-29" transform="translate(1191.613281 0)"/>
     </g>
    </g>
    <g id="line2d_40">
     <path d="M 856.121525 481.581838 
L 866.121525 481.581838 
L 876.121525 481.581838 
" style="fill: none; stroke: #17becf; stroke-opacity: 0.99; stroke-width: 0.2; stroke-linecap: square"/>
    </g>
    <g id="text_28">
     <!-- 13.15 GHz (Target: 12.0) -->
     <g transform="translate(884.121525 485.081838) scale(0.1 -0.1)">
      <use xlink:href="#DejaVuSans-31"/>
      <use xlink:href="#DejaVuSans-33" transform="translate(63.623047 0)"/>
      <use xlink:href="#DejaVuSans-2e" transform="translate(127.246094 0)"/>
      <use xlink:href="#DejaVuSans-31" transform="translate(159.033203 0)"/>
      <use xlink:href="#DejaVuSans-35" transform="translate(222.65625 0)"/>
      <use xlink:href="#DejaVuSans-20" transform="translate(286.279297 0)"/>
      <use xlink:href="#DejaVuSans-47" transform="translate(318.066406 0)"/>
      <use xlink:href="#DejaVuSans-48" transform="translate(395.556641 0)"/>
      <use xlink:href="#DejaVuSans-7a" transform="translate(470.751953 0)"/>
      <use xlink:href="#DejaVuSans-20" transform="translate(523.242188 0)"/>
      <use xlink:href="#DejaVuSans-28" transform="translate(555.029297 0)"/>
      <use xlink:href="#DejaVuSans-54" transform="translate(594.042969 0)"/>
      <use xlink:href="#DejaVuSans-61" transform="translate(638.626953 0)"/>
      <use xlink:href="#DejaVuSans-72" transform="translate(699.90625 0)"/>
      <use xlink:href="#DejaVuSans-67" transform="translate(739.269531 0)"/>
      <use xlink:href="#DejaVuSans-65" transform="translate(802.746094 0)"/>
      <use xlink:href="#DejaVuSans-74" transform="translate(864.269531 0)"/>
      <use xlink:href="#DejaVuSans-3a" transform="translate(903.478516 0)"/>
      <use xlink:href="#DejaVuSans-20" transform="translate(937.169922 0)"/>
      <use xlink:href="#DejaVuSans-31" transform="translate(968.957031 0)"/>
      <use xlink:href="#DejaVuSans-32" transform="translate(1032.580078 0)"/>
      <use xlink:href="#DejaVuSans-2e" transform="translate(1096.203125 0)"/>
      <use xlink:href="#DejaVuSans-30" transform="translate(1127.990234 0)"/>
      <use xlink:href="#DejaVuSans-29" transform="translate(1191.613281 0)"/>
     </g>
    </g>
    <g id="line2d_41">
     <path d="M 856.121525 496.259963 
L 866.121525 496.259963 
L 876.121525 496.259963 
" style="fill: none; stroke: #1f77b4; stroke-opacity: 0.99; stroke-width: 0.2; stroke-linecap: square"/>
    </g>
    <g id="text_29">
     <!-- 13.20 GHz (Target: 12.0) -->
     <g transform="translate(884.121525 499.759963) scale(0.1 -0.1)">
      <use xlink:href="#DejaVuSans-31"/>
      <use xlink:href="#DejaVuSans-33" transform="translate(63.623047 0)"/>
      <use xlink:href="#DejaVuSans-2e" transform="translate(127.246094 0)"/>
      <use xlink:href="#DejaVuSans-32" transform="translate(159.033203 0)"/>
      <use xlink:href="#DejaVuSans-30" transform="translate(222.65625 0)"/>
      <use xlink:href="#DejaVuSans-20" transform="translate(286.279297 0)"/>
      <use xlink:href="#DejaVuSans-47" transform="translate(318.066406 0)"/>
      <use xlink:href="#DejaVuSans-48" transform="translate(395.556641 0)"/>
      <use xlink:href="#DejaVuSans-7a" transform="translate(470.751953 0)"/>
      <use xlink:href="#DejaVuSans-20" transform="translate(523.242188 0)"/>
      <use xlink:href="#DejaVuSans-28" transform="translate(555.029297 0)"/>
      <use xlink:href="#DejaVuSans-54" transform="translate(594.042969 0)"/>
      <use xlink:href="#DejaVuSans-61" transform="translate(638.626953 0)"/>
      <use xlink:href="#DejaVuSans-72" transform="translate(699.90625 0)"/>
      <use xlink:href="#DejaVuSans-67" transform="translate(739.269531 0)"/>
      <use xlink:href="#DejaVuSans-65" transform="translate(802.746094 0)"/>
      <use xlink:href="#DejaVuSans-74" transform="translate(864.269531 0)"/>
      <use xlink:href="#DejaVuSans-3a" transform="translate(903.478516 0)"/>
      <use xlink:href="#DejaVuSans-20" transform="translate(937.169922 0)"/>
      <use xlink:href="#DejaVuSans-31" transform="translate(968.957031 0)"/>
      <use xlink:href="#DejaVuSans-32" transform="translate(1032.580078 0)"/>
      <use xlink:href="#DejaVuSans-2e" transform="translate(1096.203125 0)"/>
      <use xlink:href="#DejaVuSans-30" transform="translate(1127.990234 0)"/>
      <use xlink:href="#DejaVuSans-29" transform="translate(1191.613281 0)"/>
     </g>
    </g>
    <g id="line2d_42">
     <path d="M 856.121525 510.938088 
L 866.121525 510.938088 
L 876.121525 510.938088 
" style="fill: none; stroke: #ff7f0e; stroke-opacity: 0.99; stroke-width: 0.2; stroke-linecap: square"/>
    </g>
    <g id="text_30">
     <!-- 13.25 GHz (Target: 11.75) -->
     <g transform="translate(884.121525 514.438088) scale(0.1 -0.1)">
      <use xlink:href="#DejaVuSans-31"/>
      <use xlink:href="#DejaVuSans-33" transform="translate(63.623047 0)"/>
      <use xlink:href="#DejaVuSans-2e" transform="translate(127.246094 0)"/>
      <use xlink:href="#DejaVuSans-32" transform="translate(159.033203 0)"/>
      <use xlink:href="#DejaVuSans-35" transform="translate(222.65625 0)"/>
      <use xlink:href="#DejaVuSans-20" transform="translate(286.279297 0)"/>
      <use xlink:href="#DejaVuSans-47" transform="translate(318.066406 0)"/>
      <use xlink:href="#DejaVuSans-48" transform="translate(395.556641 0)"/>
      <use xlink:href="#DejaVuSans-7a" transform="translate(470.751953 0)"/>
      <use xlink:href="#DejaVuSans-20" transform="translate(523.242188 0)"/>
      <use xlink:href="#DejaVuSans-28" transform="translate(555.029297 0)"/>
      <use xlink:href="#DejaVuSans-54" transform="translate(594.042969 0)"/>
      <use xlink:href="#DejaVuSans-61" transform="translate(638.626953 0)"/>
      <use xlink:href="#DejaVuSans-72" transform="translate(699.90625 0)"/>
      <use xlink:href="#DejaVuSans-67" transform="translate(739.269531 0)"/>
      <use xlink:href="#DejaVuSans-65" transform="translate(802.746094 0)"/>
      <use xlink:href="#DejaVuSans-74" transform="translate(864.269531 0)"/>
      <use xlink:href="#DejaVuSans-3a" transform="translate(903.478516 0)"/>
      <use xlink:href="#DejaVuSans-20" transform="translate(937.169922 0)"/>
      <use xlink:href="#DejaVuSans-31" transform="translate(968.957031 0)"/>
      <use xlink:href="#DejaVuSans-31" transform="translate(1032.580078 0)"/>
      <use xlink:href="#DejaVuSans-2e" transform="translate(1096.203125 0)"/>
      <use xlink:href="#DejaVuSans-37" transform="translate(1127.990234 0)"/>
      <use xlink:href="#DejaVuSans-35" transform="translate(1191.613281 0)"/>
      <use xlink:href="#DejaVuSans-29" transform="translate(1255.236328 0)"/>
     </g>
    </g>
    <g id="line2d_43">
     <path d="M 856.121525 525.616213 
L 866.121525 525.616213 
L 876.121525 525.616213 
" style="fill: none; stroke: #000000; stroke-width: 1.5; stroke-linecap: square"/>
     <defs>
      <path id="md715088d03" d="M -0.025 0.05 
L 0 0.025 
L 0.025 0.05 
L 0.05 0.025 
L 0.025 0 
L 0.05 -0.025 
L 0.025 -0.05 
L 0 -0.025 
L -0.025 -0.05 
L -0.05 -0.025 
L -0.025 0 
L -0.05 0.025 
z
" style="stroke: #000000; stroke-linejoin: miter"/>
     </defs>
     <g>
      <use xlink:href="#md715088d03" x="866.121525" y="525.616213" style="stroke: #000000; stroke-linejoin: miter"/>
     </g>
    </g>
    <g id="text_31">
     <!-- Optimum Target -->
     <g transform="translate(884.121525 529.116213) scale(0.1 -0.1)">
      <use xlink:href="#DejaVuSans-4f"/>
      <use xlink:href="#DejaVuSans-70" transform="translate(78.710938 0)"/>
      <use xlink:href="#DejaVuSans-74" transform="translate(142.1875 0)"/>
      <use xlink:href="#DejaVuSans-69" transform="translate(181.396484 0)"/>
      <use xlink:href="#DejaVuSans-6d" transform="translate(209.179688 0)"/>
      <use xlink:href="#DejaVuSans-75" transform="translate(306.591797 0)"/>
      <use xlink:href="#DejaVuSans-6d" transform="translate(369.970703 0)"/>
      <use xlink:href="#DejaVuSans-20" transform="translate(467.382812 0)"/>
      <use xlink:href="#DejaVuSans-54" transform="translate(499.169922 0)"/>
      <use xlink:href="#DejaVuSans-61" transform="translate(543.753906 0)"/>
      <use xlink:href="#DejaVuSans-72" transform="translate(605.033203 0)"/>
      <use xlink:href="#DejaVuSans-67" transform="translate(644.396484 0)"/>
      <use xlink:href="#DejaVuSans-65" transform="translate(707.873047 0)"/>
      <use xlink:href="#DejaVuSans-74" transform="translate(769.396484 0)"/>
     </g>
    </g>
   </g>
   <g id="patch_28">
    <path d="M 623.192857 718.825063 
L 621.893875 718.392992 
L 622.709623 713.326471 
L 623.513832 718.392992 
z
" clip-path="url(#p59d331dd2a)" style="fill: #ff0000; opacity: 0.6; stroke: #ff0000; stroke-linejoin: miter"/>
   </g>
   <g id="patch_29">
    <path d="M 544.684727 757.028151 
L 542.134135 758.222299 
L 534.528835 758.276585 
L 533.280401 758.523332 
L 530.497134 757.028151 
L 530.826548 754.574298 
L 533.280401 747.78405 
L 535.633579 747.716136 
L 539.643365 750.665187 
z
" clip-path="url(#p59d331dd2a)" style="fill: #ff0000; opacity: 0.6; stroke: #ff0000; stroke-linejoin: miter"/>
   </g>
   <g id="line2d_44">
    <path d="M 623.192857 718.825063 
L 621.893875 718.392992 
L 622.709623 713.326471 
L 623.513832 718.392992 
L 623.192857 718.825063 
" clip-path="url(#p59d331dd2a)" style="fill: none; stroke-dasharray: 0.74,0.32; stroke-dashoffset: 0; stroke: #000000; stroke-width: 0.2"/>
   </g>
   <g id="line2d_45">
    <path d="M 544.684727 757.028151 
L 542.134135 758.222299 
L 534.528835 758.276585 
L 533.280401 758.523332 
L 530.497134 757.028151 
L 530.826548 754.574298 
L 533.280401 747.78405 
L 535.633579 747.716136 
L 539.643365 750.665187 
L 544.684727 757.028151 
" clip-path="url(#p59d331dd2a)" style="fill: none; stroke-dasharray: 0.74,0.32; stroke-dashoffset: 0; stroke: #000000; stroke-width: 0.2"/>
   </g>
   <g id="line2d_46">
    <path d="M 536.656009 754.003278 
" clip-path="url(#p59d331dd2a)" style="fill: none; stroke: #000000; stroke-width: 1.5; stroke-linecap: square"/>
    <g clip-path="url(#p59d331dd2a)">
     <use xlink:href="#md715088d03" x="536.656009" y="754.003278" style="stroke: #000000; stroke-linejoin: miter"/>
    </g>
   </g>
  </g>
 </g>
 <defs>
  <clipPath id="p59d331dd2a">
   <rect x="23.103125" y="34.3575" width="807.861176" height="807.861176"/>
  </clipPath>
  <clipPath id="pe2a8de2530">
   <path d="M 427.033713 834.298469 
C 532.056894 834.298469 632.792736 792.572317 707.055339 718.309714 
C 781.317942 644.047111 823.044094 543.311269 823.044094 438.288088 
C 823.044094 333.264908 781.317942 232.529066 707.055339 158.266463 
C 632.792736 84.00386 532.056894 42.277708 427.033713 42.277708 
C 322.010533 42.277708 221.274691 84.00386 147.012088 158.266463 
C 72.749485 232.529066 31.023333 333.264908 31.023333 438.288088 
C 31.023333 543.311269 72.749485 644.047111 147.012088 718.309714 
C 221.274691 792.572317 322.010533 834.298469 427.033713 834.298469 
z
"/>
  </clipPath>
 </defs>
</svg>
