<?xml version="1.0" encoding="utf-8" standalone="no"?>
<!DOCTYPE svg PUBLIC "-//W3C//DTD SVG 1.1//EN"
  "http://www.w3.org/Graphics/SVG/1.1/DTD/svg11.dtd">
<svg xmlns:xlink="http://www.w3.org/1999/xlink" width="1018.382462pt" height="855.136698pt" viewBox="0 0 1018.382462 855.136698" xmlns="http://www.w3.org/2000/svg" version="1.1">
 <metadata>
  <rdf:RDF xmlns:dc="http://purl.org/dc/elements/1.1/" xmlns:cc="http://creativecommons.org/ns#" xmlns:rdf="http://www.w3.org/1999/02/22-rdf-syntax-ns#">
   <cc:Work>
    <dc:type rdf:resource="http://purl.org/dc/dcmitype/StillImage"/>
    <dc:date>2026-02-25T15:59:45.339601</dc:date>
    <dc:format>image/svg+xml</dc:format>
    <dc:creator>
     <cc:Agent>
      <dc:title>Matplotlib v3.10.8, https://matplotlib.org/</dc:title>
     </cc:Agent>
    </dc:creator>
   </cc:Work>
  </rdf:RDF>
 </metadata>
 <defs>
  <style type="text/css">*{stroke-linejoin: round; stroke-linecap: butt}</style>
 </defs>
 <g id="figure_1">
  <g id="patch_1">
   <path d="M 0 855.136698 
L 1018.382462 855.136698 
L 1018.382462 0 
L 0 0 
z
" style="fill: #ffffff"/>
  </g>
  <g id="axes_1">
   <g id="patch_2">
    <path d="M 23.103125 842.218676 
L 830.964301 842.218676 
L 830.964301 34.3575 
L 23.103125 34.3575 
z
" style="fill: #ffffff"/>
   </g>
   <g id="patch_3">
    <path d="M 427.033713 834.298469 
C 532.056894 834.298469 632.792736 792.572317 707.055339 718.309714 
C 781.317942 644.047111 823.044094 543.311269 823.044094 438.288088 
C 823.044094 333.264908 781.317942 232.529066 707.055339 158.266463 
C 632.792736 84.00386 532.056894 42.277708 427.033713 42.277708 
C 322.010533 42.277708 221.274691 84.00386 147.012088 158.266463 
C 72.749485 232.529066 31.023333 333.264908 31.023333 438.288088 
C 31.023333 543.311269 72.749485 644.047111 147.012088 718.309714 
C 221.274691 792.572317 322.010533 834.298469 427.033713 834.298469 
L 427.033713 834.298469 
z
" clip-path="url(#p650b74f245)" style="fill: none; stroke: #000000; stroke-linejoin: miter"/>
   </g>
   <g id="patch_4">
    <path d="M 493.035443 768.296739 
C 580.55476 768.296739 664.501295 733.524946 726.386798 671.639443 
C 788.272301 609.75394 823.044094 525.807405 823.044094 438.288088 
C 823.044094 350.768771 788.272301 266.822236 726.386798 204.936734 
C 664.501295 143.051231 580.55476 108.279438 493.035443 108.279438 
C 405.516126 108.279438 321.569591 143.051231 259.684089 204.936734 
C 197.798586 266.822236 163.026793 350.768771 163.026793 438.288088 
C 163.026793 525.807405 197.798586 609.75394 259.684089 671.639443 
C 321.569591 733.524946 405.516126 768.296739 493.035443 768.296739 
L 493.035443 768.296739 
z
" clip-path="url(#pbc6680c06c)" style="fill: none; stroke: #808080; stroke-linejoin: miter"/>
   </g>
   <g id="patch_5">
    <path d="M 559.037173 702.295009 
C 629.052627 702.295009 696.209855 674.477574 745.718257 624.969172 
C 795.226659 575.46077 823.044094 508.303542 823.044094 438.288088 
C 823.044094 368.272635 795.226659 301.115407 745.718257 251.607005 
C 696.209855 202.098602 629.052627 174.281168 559.037173 174.281168 
C 489.02172 174.281168 421.864492 202.098602 372.35609 251.607005 
C 322.847688 301.115407 295.030253 368.272635 295.030253 438.288088 
C 295.030253 508.303542 322.847688 575.46077 372.35609 624.969172 
C 421.864492 674.477574 489.02172 702.295009 559.037173 702.295009 
L 559.037173 702.295009 
z
" clip-path="url(#pbc6680c06c)" style="fill: none; stroke: #808080; stroke-linejoin: miter"/>
   </g>
   <g id="patch_6">
    <path d="M 625.038904 636.293279 
C 677.550494 636.293279 727.918415 615.430203 765.049716 578.298901 
C 802.181018 541.167599 823.044094 490.799679 823.044094 438.288088 
C 823.044094 385.776498 802.181018 335.408577 765.049716 298.277275 
C 727.918415 261.145974 677.550494 240.282898 625.038904 240.282898 
C 572.527313 240.282898 522.159392 261.145974 485.028091 298.277275 
C 447.896789 335.408577 427.033713 385.776498 427.033713 438.288088 
C 427.033713 490.799679 447.896789 541.167599 485.028091 578.298901 
C 522.159392 615.430203 572.527313 636.293279 625.038904 636.293279 
L 625.038904 636.293279 
z
" clip-path="url(#pbc6680c06c)" style="fill: none; stroke: #808080; stroke-linejoin: miter"/>
   </g>
   <g id="patch_7">
    <path d="M 691.040634 570.291548 
C 726.048361 570.291548 759.626974 556.382831 784.381176 531.62863 
C 809.135377 506.874429 823.044094 473.295815 823.044094 438.288088 
C 823.044094 403.280361 809.135377 369.701747 784.381176 344.947546 
C 759.626974 320.193345 726.048361 306.284628 691.040634 306.284628 
C 656.032907 306.284628 622.454293 320.193345 597.700092 344.947546 
C 572.945891 369.701747 559.037173 403.280361 559.037173 438.288088 
C 559.037173 473.295815 572.945891 506.874429 597.700092 531.62863 
C 622.454293 556.382831 656.032907 570.291548 691.040634 570.291548 
L 691.040634 570.291548 
z
" clip-path="url(#pbc6680c06c)" style="fill: none; stroke: #808080; stroke-linejoin: miter"/>
   </g>
   <g id="patch_8">
    <path d="M 757.042364 504.289818 
C 774.546227 504.289818 791.335534 497.33546 803.712635 484.958359 
C 816.089735 472.581259 823.044094 455.791952 823.044094 438.288088 
C 823.044094 420.784225 816.089735 403.994918 803.712635 391.617817 
C 791.335534 379.240717 774.546227 372.286358 757.042364 372.286358 
C 739.5385 372.286358 722.749193 379.240717 710.372093 391.617817 
C 697.994992 403.994918 691.040634 420.784225 691.040634 438.288088 
C 691.040634 455.791952 697.994992 472.581259 710.372093 484.958359 
C 722.749193 497.33546 739.5385 504.289818 757.042364 504.289818 
L 757.042364 504.289818 
z
" clip-path="url(#pbc6680c06c)" style="fill: none; stroke: #808080; stroke-linejoin: miter"/>
   </g>
   <g id="patch_9">
    <path d="M 823.044094 438.288088 
C 1348.159997 438.288088 1851.839206 229.657329 2223.152222 -141.655687 
C 2594.465237 -512.968703 2803.095997 -1016.647912 2803.095997 -1541.763815 
C 2803.095997 -2066.879718 2594.465237 -2570.558927 2223.152222 -2941.871943 
C 1851.839206 -3313.184958 1348.159997 -3521.815718 823.044094 -3521.815718 
C 297.928191 -3521.815718 -205.751018 -3313.184958 -577.064034 -2941.871943 
C -948.37705 -2570.558927 -1157.007809 -2066.879718 -1157.007809 -1541.763815 
C -1157.007809 -1016.647912 -948.37705 -512.968703 -577.064034 -141.655687 
C -205.751018 229.657329 297.928191 438.288088 823.044094 438.288088 
L 823.044094 438.288088 
z
" clip-path="url(#pbc6680c06c)" style="fill: none; stroke: #808080; stroke-linejoin: miter"/>
   </g>
   <g id="patch_10">
    <path d="M 823.044094 438.288088 
C 1033.090455 438.288088 1234.562139 354.835784 1383.087345 206.310578 
C 1531.612551 57.785372 1615.064855 -143.686312 1615.064855 -353.732673 
C 1615.064855 -563.779034 1531.612551 -765.250718 1383.087345 -913.775924 
C 1234.562139 -1062.30113 1033.090455 -1145.753434 823.044094 -1145.753434 
C 612.997733 -1145.753434 411.526049 -1062.30113 263.000843 -913.775924 
C 114.475636 -765.250718 31.023333 -563.779034 31.023333 -353.732673 
C 31.023333 -143.686312 114.475636 57.785372 263.000843 206.310578 
C 411.526049 354.835784 612.997733 438.288088 823.044094 438.288088 
L 823.044094 438.288088 
z
" clip-path="url(#pbc6680c06c)" style="fill: none; stroke: #808080; stroke-linejoin: miter"/>
   </g>
   <g id="patch_11">
    <path d="M 823.044094 438.288088 
C 928.067274 438.288088 1028.803116 396.561936 1103.065719 322.299333 
C 1177.328323 248.03673 1219.054474 147.300888 1219.054474 42.277708 
C 1219.054474 -62.745473 1177.328323 -163.481315 1103.065719 -237.743918 
C 1028.803116 -312.006521 928.067274 -353.732673 823.044094 -353.732673 
C 718.020913 -353.732673 617.285071 -312.006521 543.022468 -237.743918 
C 468.759865 -163.481315 427.033713 -62.745473 427.033713 42.277708 
C 427.033713 147.300888 468.759865 248.03673 543.022468 322.299333 
C 617.285071 396.561936 718.020913 438.288088 823.044094 438.288088 
L 823.044094 438.288088 
z
" clip-path="url(#pbc6680c06c)" style="fill: none; stroke: #808080; stroke-linejoin: miter"/>
   </g>
   <g id="patch_12">
    <path d="M 823.044094 438.288088 
C 875.555684 438.288088 925.923605 417.425012 963.054907 380.293711 
C 1000.186208 343.162409 1021.049284 292.794488 1021.049284 240.282898 
C 1021.049284 187.771308 1000.186208 137.403387 963.054907 100.272085 
C 925.923605 63.140784 875.555684 42.277708 823.044094 42.277708 
C 770.532504 42.277708 720.164583 63.140784 683.033281 100.272085 
C 645.901979 137.403387 625.038904 187.771308 625.038904 240.282898 
C 625.038904 292.794488 645.901979 343.162409 683.033281 380.293711 
C 720.164583 417.425012 770.532504 438.288088 823.044094 438.288088 
L 823.044094 438.288088 
z
" clip-path="url(#pbc6680c06c)" style="fill: none; stroke: #808080; stroke-linejoin: miter"/>
   </g>
   <g id="patch_13">
    <path d="M 823.044094 438.288088 
C 844.04873 438.288088 864.195898 429.942858 879.048419 415.090337 
C 893.90094 400.237817 902.24617 380.090648 902.24617 359.086012 
C 902.24617 338.081376 893.90094 317.934208 879.048419 303.081687 
C 864.195898 288.229166 844.04873 279.883936 823.044094 279.883936 
C 802.039458 279.883936 781.892289 288.229166 767.039769 303.081687 
C 752.187248 317.934208 743.842018 338.081376 743.842018 359.086012 
C 743.842018 380.090648 752.187248 400.237817 767.039769 415.090337 
C 781.892289 429.942858 802.039458 438.288088 823.044094 438.288088 
L 823.044094 438.288088 
z
" clip-path="url(#pbc6680c06c)" style="fill: none; stroke: #808080; stroke-linejoin: miter"/>
   </g>
   <g id="patch_14">
    <path d="M 823.044094 438.288088 
C 297.928191 438.288088 -205.751018 646.918848 -577.064034 1018.231864 
C -948.37705 1389.544879 -1157.007809 1893.224088 -1157.007809 2418.339991 
C -1157.007809 2943.455894 -948.37705 3447.135103 -577.064034 3818.448119 
C -205.751018 4189.761135 297.928191 4398.391894 823.044094 4398.391894 
C 1348.159997 4398.391894 1851.839206 4189.761135 2223.152222 3818.448119 
C 2594.465237 3447.135103 2803.095997 2943.455894 2803.095997 2418.339991 
C 2803.095997 1893.224088 2594.465237 1389.544879 2223.152222 1018.231864 
C 1851.839206 646.918848 1348.159997 438.288088 823.044094 438.288088 
L 823.044094 438.288088 
z
" clip-path="url(#pbc6680c06c)" style="fill: none; stroke: #808080; stroke-linejoin: miter"/>
   </g>
   <g id="patch_15">
    <path d="M 823.044094 438.288088 
C 612.997733 438.288088 411.526049 521.740392 263.000843 670.265598 
C 114.475636 818.790805 31.023333 1020.262488 31.023333 1230.308849 
C 31.023333 1440.355211 114.475636 1641.826894 263.000843 1790.352101 
C 411.526049 1938.877307 612.997733 2022.329611 823.044094 2022.329611 
C 1033.090455 2022.329611 1234.562139 1938.877307 1383.087345 1790.352101 
C 1531.612551 1641.826894 1615.064855 1440.355211 1615.064855 1230.308849 
C 1615.064855 1020.262488 1531.612551 818.790805 1383.087345 670.265598 
C 1234.562139 521.740392 1033.090455 438.288088 823.044094 438.288088 
L 823.044094 438.288088 
z
" clip-path="url(#pbc6680c06c)" style="fill: none; stroke: #808080; stroke-linejoin: miter"/>
   </g>
   <g id="patch_16">
    <path d="M 823.044094 438.288088 
C 718.020913 438.288088 617.285071 480.01424 543.022468 554.276843 
C 468.759865 628.539446 427.033713 729.275288 427.033713 834.298469 
C 427.033713 939.321649 468.759865 1040.057491 543.022468 1114.320094 
C 617.285071 1188.582698 718.020913 1230.308849 823.044094 1230.308849 
C 928.067274 1230.308849 1028.803116 1188.582698 1103.065719 1114.320094 
C 1177.328323 1040.057491 1219.054474 939.321649 1219.054474 834.298469 
C 1219.054474 729.275288 1177.328323 628.539446 1103.065719 554.276843 
C 1028.803116 480.01424 928.067274 438.288088 823.044094 438.288088 
L 823.044094 438.288088 
z
" clip-path="url(#pbc6680c06c)" style="fill: none; stroke: #808080; stroke-linejoin: miter"/>
   </g>
   <g id="patch_17">
    <path d="M 823.044094 438.288088 
C 770.532504 438.288088 720.164583 459.151164 683.033281 496.282466 
C 645.901979 533.413767 625.038904 583.781688 625.038904 636.293279 
C 625.038904 688.804869 645.901979 739.17279 683.033281 776.304091 
C 720.164583 813.435393 770.532504 834.298469 823.044094 834.298469 
C 875.555684 834.298469 925.923605 813.435393 963.054907 776.304091 
C 1000.186208 739.17279 1021.049284 688.804869 1021.049284 636.293279 
C 1021.049284 583.781688 1000.186208 533.413767 963.054907 496.282466 
C 925.923605 459.151164 875.555684 438.288088 823.044094 438.288088 
L 823.044094 438.288088 
z
" clip-path="url(#pbc6680c06c)" style="fill: none; stroke: #808080; stroke-linejoin: miter"/>
   </g>
   <g id="patch_18">
    <path d="M 823.044094 438.288088 
C 802.039458 438.288088 781.892289 446.633319 767.039769 461.485839 
C 752.187248 476.33836 743.842018 496.485528 743.842018 517.490164 
C 743.842018 538.4948 752.187248 558.641969 767.039769 573.494489 
C 781.892289 588.34701 802.039458 596.69224 823.044094 596.69224 
C 844.04873 596.69224 864.195898 588.34701 879.048419 573.494489 
C 893.90094 558.641969 902.24617 538.4948 902.24617 517.490164 
C 902.24617 496.485528 893.90094 476.33836 879.048419 461.485839 
C 864.195898 446.633319 844.04873 438.288088 823.044094 438.288088 
L 823.044094 438.288088 
z
" clip-path="url(#pbc6680c06c)" style="fill: none; stroke: #808080; stroke-linejoin: miter"/>
   </g>
   <g id="patch_19">
    <path d="M 427.033713 834.298469 
C 532.056894 834.298469 632.792736 792.572317 707.055339 718.309714 
C 781.317942 644.047111 823.044094 543.311269 823.044094 438.288088 
C 823.044094 333.264908 781.317942 232.529066 707.055339 158.266463 
C 632.792736 84.00386 532.056894 42.277708 427.033713 42.277708 
C 322.010533 42.277708 221.274691 84.00386 147.012088 158.266463 
C 72.749485 232.529066 31.023333 333.264908 31.023333 438.288088 
C 31.023333 543.311269 72.749485 644.047111 147.012088 718.309714 
C 221.274691 792.572317 322.010533 834.298469 427.033713 834.298469 
L 427.033713 834.298469 
z
" clip-path="url(#pbc6680c06c)" style="fill: none; stroke: #000000; stroke-linejoin: miter"/>
   </g>
   <g id="patch_20">
    <path d="M 625.038904 636.293279 
C 677.550494 636.293279 727.918415 615.430203 765.049716 578.298901 
C 802.181018 541.167599 823.044094 490.799679 823.044094 438.288088 
C 823.044094 385.776498 802.181018 335.408577 765.049716 298.277275 
C 727.918415 261.145974 677.550494 240.282898 625.038904 240.282898 
C 572.527313 240.282898 522.159392 261.145974 485.028091 298.277275 
C 447.896789 335.408577 427.033713 385.776498 427.033713 438.288088 
C 427.033713 490.799679 447.896789 541.167599 485.028091 578.298901 
C 522.159392 615.430203 572.527313 636.293279 625.038904 636.293279 
L 625.038904 636.293279 
z
" clip-path="url(#pbc6680c06c)" style="fill: none; stroke: #000000; stroke-linejoin: miter"/>
   </g>
   <g id="patch_21">
    <path d="M 823.044094 438.288088 
C 928.067274 438.288088 1028.803116 396.561936 1103.065719 322.299333 
C 1177.328323 248.03673 1219.054474 147.300888 1219.054474 42.277708 
C 1219.054474 -62.745473 1177.328323 -163.481315 1103.065719 -237.743918 
C 1028.803116 -312.006521 928.067274 -353.732673 823.044094 -353.732673 
C 718.020913 -353.732673 617.285071 -312.006521 543.022468 -237.743918 
C 468.759865 -163.481315 427.033713 -62.745473 427.033713 42.277708 
C 427.033713 147.300888 468.759865 248.03673 543.022468 322.299333 
C 617.285071 396.561936 718.020913 438.288088 823.044094 438.288088 
L 823.044094 438.288088 
z
" clip-path="url(#pbc6680c06c)" style="fill: none; stroke: #000000; stroke-linejoin: miter"/>
   </g>
   <g id="patch_22">
    <path d="M 823.044094 438.288088 
C 718.020913 438.288088 617.285071 480.01424 543.022468 554.276843 
C 468.759865 628.539446 427.033713 729.275288 427.033713 834.298469 
C 427.033713 939.321649 468.759865 1040.057491 543.022468 1114.320094 
C 617.285071 1188.582698 718.020913 1230.308849 823.044094 1230.308849 
C 928.067274 1230.308849 1028.803116 1188.582698 1103.065719 1114.320094 
C 1177.328323 1040.057491 1219.054474 939.321649 1219.054474 834.298469 
C 1219.054474 729.275288 1177.328323 628.539446 1103.065719 554.276843 
C 1028.803116 480.01424 928.067274 438.288088 823.044094 438.288088 
L 823.044094 438.288088 
z
" clip-path="url(#pbc6680c06c)" style="fill: none; stroke: #000000; stroke-linejoin: miter"/>
   </g>
   <g id="matplotlib.axis_1"/>
   <g id="matplotlib.axis_2"/>
   <g id="line2d_1">
    <path d="M 23.103125 438.288088 
L 830.964301 438.288088 
" clip-path="url(#pbc6680c06c)" style="fill: none; stroke: #000000; stroke-width: 0.1; stroke-linecap: square"/>
   </g>
   <g id="line2d_2">
    <path d="M 823.044094 842.218676 
L 823.044094 34.3575 
" clip-path="url(#pbc6680c06c)" style="fill: none; stroke: #000000; stroke-width: 1.5; stroke-linecap: square"/>
   </g>
   <g id="line2d_3"/>
   <g id="line2d_4"/>
   <g id="line2d_5">
    <path d="M 564.267226 726.624743 
L 566.242673 726.406888 
L 566.556767 726.392776 
L 566.80944 726.449489 
L 567.834997 726.624743 
L 575.033709 728.43611 
L 577.64525 728.793393 
L 581.225392 731.832535 
L 584.995771 734.315724 
L 586.457466 735.894545 
L 588.733734 737.516606 
L 590.461114 740.808593 
L 591.245559 742.006704 
L 591.279102 743.772173 
L 591.751463 747.604586 
L 591.7858 749.697685 
L 590.971021 751.249468 
L 590.645202 756.062869 
L 590.211755 757.388665 
L 589.71301 758.067892 
L 588.733734 763.405921 
L 588.212596 764.718184 
L 588.237396 765.079645 
L 587.867058 765.680773 
L 584.455076 769.802945 
L 583.372817 772.770626 
L 580.719582 774.902984 
L 577.64525 778.78481 
L 576.018534 779.333314 
L 573.924373 780.461606 
L 568.301996 781.672098 
L 566.556767 782.306181 
L 563.907069 782.299438 
L 557.270421 781.711571 
L 555.468283 781.705691 
L 554.178568 781.356154 
L 551.495871 780.461606 
L 548.366329 777.696546 
L 544.379799 774.082537 
L 543.679983 773.256018 
L 543.237113 772.770626 
L 542.772313 771.655673 
L 541.514729 767.06686 
L 540.418021 765.079645 
L 540.016452 762.053225 
L 540.360828 760.176226 
L 539.755404 757.388665 
L 539.93991 754.309155 
L 540.697986 752.251393 
L 540.930104 749.697685 
L 541.36173 747.60435 
L 542.366579 743.403075 
L 542.66626 742.006704 
L 543.063587 741.093779 
L 544.379799 737.59806 
L 545.901439 735.371135 
L 546.455998 734.315724 
L 550.960311 731.188991 
L 555.468283 728.429019 
L 557.294315 727.89128 
L 564.267226 726.624743 
" clip-path="url(#p650b74f245)" style="fill: none; stroke: #1f77b4; stroke-opacity: 0.99; stroke-width: 0.2; stroke-linecap: square"/>
   </g>
   <g id="line2d_6">
    <path d="M 548.294823 726.624743 
L 551.742429 724.040489 
L 555.468283 721.529664 
L 558.254644 720.866385 
L 566.146662 719.218212 
L 566.556767 719.126523 
L 566.968236 719.219159 
L 574.495495 721.118436 
L 577.64525 721.749761 
L 581.155191 724.190247 
L 585.247643 726.624743 
L 587.15716 727.718257 
L 588.733734 728.356386 
L 592.333108 731.819196 
L 595.515809 734.315724 
L 597.428699 735.975871 
L 599.822218 737.572668 
L 601.836558 740.609557 
L 602.714259 742.006704 
L 602.698598 744.001764 
L 603.098817 747.425034 
L 603.083805 749.697685 
L 601.916653 751.150386 
L 599.933105 757.311754 
L 599.893136 757.388665 
L 599.862675 757.416726 
L 599.822218 757.495773 
L 595.455947 762.051196 
L 594.309564 765.079645 
L 592.022646 767.360837 
L 589.790951 772.03734 
L 589.315902 772.770626 
L 589.044454 772.986141 
L 588.733734 773.324241 
L 583.238954 776.650423 
L 578.835587 780.461606 
L 578.106096 780.781249 
L 577.64525 781.022568 
L 576.553191 781.21906 
L 568.950417 782.121844 
L 566.556767 782.668998 
L 563.636148 782.487349 
L 557.066666 781.570246 
L 555.468283 781.448148 
L 554.451557 781.166808 
L 552.342151 780.461606 
L 548.587537 777.543116 
L 544.379799 774.11779 
L 543.587994 773.319822 
L 543.034649 772.770626 
L 542.438079 771.423847 
L 541.01639 767.412508 
L 539.781982 765.079645 
L 539.39016 761.618828 
L 539.459425 760.80144 
L 538.937736 757.388665 
L 539.188441 753.787936 
L 539.347681 753.187965 
L 539.663028 749.697685 
L 540.096666 746.7269 
L 540.551268 744.662176 
L 540.97689 742.006704 
L 541.462844 739.983502 
L 542.572363 735.569363 
L 542.8775 734.315724 
L 543.211505 733.505394 
L 544.379799 731.21414 
L 546.766972 728.280488 
L 548.294823 726.624743 
" clip-path="url(#p650b74f245)" style="fill: none; stroke: #ff7f0e; stroke-opacity: 0.99; stroke-width: 0.2; stroke-linecap: square"/>
   </g>
   <g id="line2d_7">
    <path d="M 562.719983 734.315724 
L 564.88013 733.152808 
L 566.556767 732.315754 
L 569.059659 732.579716 
L 575.294498 732.68524 
L 577.64525 732.883698 
L 579.04915 733.341978 
L 584.54089 734.315724 
L 587.839771 734.935778 
L 588.733734 735.040478 
L 592.686639 737.057461 
L 594.486745 738.016412 
L 599.822218 740.144511 
L 600.813691 741.319018 
L 601.379971 742.006704 
L 601.273835 743.013547 
L 601.62015 748.450638 
L 601.514599 749.697685 
L 600.809442 750.382424 
L 599.822218 753.018342 
L 597.222496 755.585496 
L 596.692655 757.388665 
L 593.717191 760.845194 
L 593.669781 761.656 
L 592.245788 765.079645 
L 590.614713 766.384293 
L 588.733734 769.228317 
L 586.056908 770.913977 
L 584.346843 772.770626 
L 579.932457 774.357034 
L 577.64525 775.612155 
L 573.256843 775.814428 
L 570.864972 775.7588 
L 566.556767 776.005016 
L 563.409653 774.953466 
L 557.977485 772.770626 
L 557.030942 771.686765 
L 555.468283 770.286863 
L 552.765592 766.954234 
L 550.99608 765.079645 
L 550.285293 761.48472 
L 550.259163 761.001714 
L 549.35832 757.388665 
L 550.038372 753.622475 
L 550.107021 753.41626 
L 550.917639 749.697685 
L 551.832276 747.175748 
L 553.516166 743.360694 
L 554.052014 742.006704 
L 554.398948 741.265013 
L 555.468283 739.285478 
L 558.813601 736.636039 
L 562.719983 734.315724 
" clip-path="url(#p650b74f245)" style="fill: none; stroke: #2ca02c; stroke-opacity: 0.99; stroke-width: 0.2; stroke-linecap: square"/>
   </g>
   <g id="line2d_8">
    <path d="M 564.163381 718.933763 
L 565.35959 718.103401 
L 566.556767 717.057494 
L 569.107204 717.164778 
L 575.434068 717.400086 
L 577.64525 717.491874 
L 578.825547 718.115108 
L 581.037858 718.933763 
L 585.190154 721.391593 
L 588.733734 722.493738 
L 591.632759 724.613978 
L 595.674782 726.624743 
L 598.012792 727.879763 
L 599.822218 728.414899 
L 603.033458 732.088406 
L 605.217032 734.315724 
L 606.885953 737.107292 
L 610.498583 741.720859 
L 610.703609 742.006704 
L 610.351173 742.394794 
L 606.340538 746.527816 
L 604.06342 749.697685 
L 601.616976 750.94253 
L 599.822218 753.676704 
L 596.37985 755.001036 
L 594.580038 757.388665 
L 592.259201 759.833932 
L 592.667541 762.351154 
L 591.721409 765.079645 
L 590.252666 766.133177 
L 588.733734 768.391612 
L 585.198673 770.318705 
L 582.548377 772.770626 
L 578.973533 773.691923 
L 577.64525 774.22174 
L 575.714361 774.109892 
L 567.201379 773.217729 
L 566.556767 773.175422 
L 566.169912 773.038948 
L 565.468087 772.770626 
L 562.049261 769.644216 
L 561.187688 768.803642 
L 558.148569 766.938694 
L 555.468283 765.255753 
L 555.349925 765.161739 
L 555.224674 765.079645 
L 555.026515 764.773235 
L 552.365639 759.540661 
L 550.388325 757.388665 
L 549.739827 753.670946 
L 549.636496 753.343733 
L 548.878583 749.697685 
L 549.38036 746.229292 
L 549.513881 745.567707 
L 549.985574 742.006704 
L 550.795933 738.765959 
L 551.048696 737.381152 
L 551.756375 734.315724 
L 552.726453 732.413989 
L 555.340098 726.713652 
L 555.383115 726.624743 
L 555.409595 726.584037 
L 555.468283 726.480127 
L 560.736948 722.588113 
L 564.163381 718.933763 
" clip-path="url(#p650b74f245)" style="fill: none; stroke: #d62728; stroke-opacity: 0.99; stroke-width: 0.2; stroke-linecap: square"/>
   </g>
   <g id="line2d_9">
    <path d="M 570.250253 711.242783 
L 575.692968 709.888678 
L 577.64525 709.328267 
L 580.00394 709.606794 
L 587.712892 710.534726 
L 588.733734 710.655953 
L 589.227479 710.900321 
L 589.983018 711.242783 
L 595.324816 714.362184 
L 599.822218 716.667487 
L 601.101216 718.046649 
L 602.014523 718.933763 
L 604.042532 721.860976 
L 604.876694 723.118955 
L 607.506247 726.624743 
L 608.717569 728.145902 
L 610.910702 730.081244 
L 612.183703 733.43277 
L 612.39909 734.315724 
L 612.671427 735.536964 
L 613.777122 740.018554 
L 614.203553 742.006704 
L 613.647482 743.904937 
L 611.607543 749.214355 
L 611.45023 749.697685 
L 611.16319 749.872811 
L 610.910702 750.163712 
L 609.552532 750.639712 
L 602.902903 751.83445 
L 599.822218 755.054423 
L 596.402864 755.016999 
L 592.87854 757.388665 
L 592.18459 759.782181 
L 593.78631 761.575176 
L 593.595145 765.079645 
L 591.134263 766.744654 
L 588.733734 770.896602 
L 587.101206 771.638303 
L 585.836815 772.770626 
L 579.193393 773.844419 
L 577.64525 774.258986 
L 575.944694 773.950133 
L 570.166954 772.770626 
L 568.751652 771.248252 
L 566.556767 769.83969 
L 564.154362 766.745955 
L 561.820493 765.079645 
L 561.472895 761.553468 
L 561.915066 760.608152 
L 561.134979 757.388665 
L 560.389871 753.975048 
L 558.150317 751.557945 
L 557.139929 749.697685 
L 556.082253 749.271834 
L 555.468283 748.960467 
L 552.797693 743.859027 
L 552.162484 742.006704 
L 551.706033 739.397205 
L 551.120412 737.33141 
L 550.676187 734.315724 
L 551.618255 731.645342 
L 552.409826 728.746091 
L 553.094511 726.624743 
L 553.818547 725.480486 
L 555.468283 722.638213 
L 557.806947 720.555862 
L 559.121927 718.933763 
L 562.578747 716.174606 
L 566.556767 712.498528 
L 567.803665 712.107632 
L 570.250253 711.242783 
" clip-path="url(#p650b74f245)" style="fill: none; stroke: #9467bd; stroke-opacity: 0.99; stroke-width: 0.2; stroke-linecap: square"/>
   </g>
   <g id="line2d_10">
    <path d="M 574.087481 711.242783 
L 576.329439 710.330135 
L 577.64525 709.758402 
L 580.175499 709.487801 
L 585.53262 709.022487 
L 588.733734 708.655863 
L 591.218743 709.519179 
L 596.083188 711.242783 
L 597.995159 712.510032 
L 599.822218 713.74148 
L 602.088467 717.361891 
L 603.276688 718.933763 
L 604.845058 722.417608 
L 605.058466 722.992878 
L 606.97738 726.624743 
L 608.790526 728.095299 
L 610.910702 729.069556 
L 613.126719 732.778693 
L 613.849673 734.315724 
L 616.189491 737.977096 
L 616.349188 738.234566 
L 618.87543 742.006704 
L 618.648685 744.330614 
L 619.034746 747.641547 
L 618.75808 749.697685 
L 613.646619 751.595319 
L 610.910702 753.989703 
L 606.853248 754.574412 
L 602.444014 757.388665 
L 600.766948 758.04393 
L 599.822218 760.562857 
L 596.665623 762.890229 
L 596.785018 765.079645 
L 591.94689 767.308293 
L 588.733734 771.073057 
L 586.720791 771.374447 
L 582.84204 772.770626 
L 578.149599 773.120442 
L 577.64525 773.195785 
L 577.173956 773.097516 
L 575.702034 772.770626 
L 571.921941 769.049337 
L 566.556767 765.464663 
L 566.346164 765.22572 
L 566.148092 765.079645 
L 566.114573 764.77294 
L 566.556767 763.303991 
L 569.017227 759.095242 
L 572.831654 757.388665 
L 574.605812 755.280508 
L 577.64525 753.675023 
L 581.362229 752.275784 
L 584.854806 749.697685 
L 580.011784 748.056255 
L 577.64525 747.074717 
L 572.155829 745.814171 
L 571.968005 745.759943 
L 566.556767 744.347439 
L 564.945158 743.124517 
L 563.380943 742.006704 
L 559.81954 738.988669 
L 555.468283 734.750974 
L 555.328744 734.412508 
L 555.296744 734.315724 
L 555.317668 734.211257 
L 555.468283 733.159542 
L 557.13923 727.783713 
L 557.236249 726.624743 
L 559.61031 723.75183 
L 560.682968 722.550673 
L 563.087606 718.933763 
L 564.582357 717.564311 
L 566.556767 715.531651 
L 570.116763 713.711999 
L 574.087481 711.242783 
" clip-path="url(#p650b74f245)" style="fill: none; stroke: #8c564b; stroke-opacity: 0.99; stroke-width: 0.2; stroke-linecap: square"/>
   </g>
   <g id="line2d_11">
    <path d="M 577.40795 734.315724 
L 577.458119 734.185929 
L 577.64525 733.834614 
L 582.963806 730.313697 
L 583.458835 730.283418 
L 588.733734 728.936249 
L 593.199436 729.722157 
L 594.587788 730.255348 
L 599.822218 730.64831 
L 604.368965 731.162097 
L 606.190836 731.042022 
L 610.910702 731.381724 
L 612.989774 732.873678 
L 614.658755 734.315724 
L 618.63451 736.649465 
L 621.999186 738.497144 
L 623.054695 741.274602 
L 623.067091 742.006704 
L 623.01554 742.711648 
L 623.5906 748.593879 
L 623.526246 749.697685 
L 623.001036 750.392569 
L 621.999186 752.390925 
L 616.847679 753.815576 
L 611.585191 756.920839 
L 610.910702 757.285497 
L 610.766623 757.288731 
L 610.544085 757.388665 
L 602.451171 759.212109 
L 599.822218 762.49303 
L 597.331186 763.351864 
L 596.0423 765.079645 
L 590.711309 766.451293 
L 588.733734 767.506894 
L 585.130175 767.579077 
L 580.865314 767.313084 
L 577.64525 767.395566 
L 575.628931 766.478166 
L 572.306097 765.079645 
L 572.30766 761.377489 
L 572.38004 761.040619 
L 572.382121 757.388665 
L 573.430738 754.465476 
L 575.381682 751.267697 
L 576.127662 749.697685 
L 575.981567 748.543753 
L 576.05829 743.107422 
L 575.885537 742.006704 
L 575.868984 740.774685 
L 577.411096 734.478134 
L 577.40795 734.315724 
" clip-path="url(#p650b74f245)" style="fill: none; stroke: #e377c2; stroke-opacity: 0.99; stroke-width: 0.2; stroke-linecap: square"/>
   </g>
   <g id="line2d_12">
    <path d="M 590.647771 742.006704 
L 595.998439 739.354528 
L 599.822218 738.392062 
L 603.129943 736.609964 
L 610.730602 734.440641 
L 610.910702 734.376702 
L 611.034876 734.401851 
L 619.237825 736.231006 
L 621.999186 736.745516 
L 623.782857 740.769548 
L 623.795038 742.006704 
L 623.6699 743.165512 
L 624.103366 748.238223 
L 623.980739 749.697685 
L 623.224407 750.547499 
L 621.999186 752.668748 
L 617.05078 753.129902 
L 615.665574 752.995667 
L 610.910702 753.849386 
L 605.810544 753.851192 
L 603.669877 754.719926 
L 599.822218 754.725118 
L 596.679243 755.208695 
L 595.317638 757.388665 
L 591.147859 759.063104 
L 588.733734 762.241479 
L 583.574302 760.967251 
L 582.457075 760.72615 
L 577.64525 759.614003 
L 576.705275 758.040632 
L 576.075626 757.388665 
L 576.28211 756.44319 
L 577.64525 753.294266 
L 580.568872 751.725511 
L 582.866479 749.697685 
L 585.93469 747.756265 
L 588.733734 745.199661 
L 590.444498 743.193291 
L 590.647771 742.006704 
" clip-path="url(#p650b74f245)" style="fill: none; stroke: #7f7f7f; stroke-opacity: 0.99; stroke-width: 0.2; stroke-linecap: square"/>
   </g>
   <g id="line2d_13">
    <path d="M 584.63584 703.551802 
L 587.187672 702.479452 
L 588.733734 701.851293 
L 591.544201 701.602461 
L 596.363066 701.152532 
L 599.822218 700.851118 
L 602.32115 701.818542 
L 608.070836 703.551802 
L 609.766352 704.345525 
L 610.910702 704.575911 
L 615.889811 707.789269 
L 617.552535 708.158583 
L 621.999186 709.649795 
L 623.02308 710.532609 
L 624.398431 711.242783 
L 628.924516 714.130349 
L 633.08767 715.482678 
L 634.903529 717.674282 
L 636.216154 718.933763 
L 635.871581 720.864686 
L 635.663803 724.837935 
L 635.391015 726.624743 
L 634.118837 727.339962 
L 633.08767 730.65426 
L 631.009792 732.874506 
L 630.92382 734.315724 
L 630.775898 735.91917 
L 628.946311 739.134255 
L 628.819687 742.006704 
L 628.127514 745.447071 
L 627.888433 746.09149 
L 627.337609 749.697685 
L 625.059856 751.820568 
L 621.999186 756.248973 
L 620.210949 756.148343 
L 610.928766 757.376136 
L 610.910702 757.374265 
L 610.886484 757.371868 
L 610.805192 757.388665 
L 601.599099 758.621111 
L 599.822218 760.358257 
L 595.894831 762.355607 
L 593.092103 765.079645 
L 589.790874 765.812878 
L 588.733734 766.176471 
L 587.177159 766.159287 
L 579.041931 766.048384 
L 577.64525 766.032851 
L 576.706858 765.730515 
L 574.247037 765.079645 
L 570.865642 762.091007 
L 566.556767 759.798642 
L 565.340851 758.232025 
L 564.549763 757.388665 
L 564.18241 755.741809 
L 563.800388 751.609511 
L 563.271543 749.697685 
L 563.369253 747.486823 
L 564.228078 743.621884 
L 564.318893 742.006704 
L 564.460923 740.553025 
L 565.880911 734.784498 
L 565.936488 734.315724 
L 565.958318 733.900639 
L 566.556767 731.087799 
L 567.997547 727.62407 
L 568.557069 726.624743 
L 569.477253 724.599092 
L 570.679153 721.793053 
L 572.048109 718.933763 
L 573.47209 716.039256 
L 574.617551 713.342797 
L 575.581321 711.242783 
L 576.353788 710.347023 
L 577.64525 709.012959 
L 581.458987 706.197013 
L 584.63584 703.551802 
" clip-path="url(#p650b74f245)" style="fill: none; stroke: #bcbd22; stroke-opacity: 0.99; stroke-width: 0.2; stroke-linecap: square"/>
   </g>
   <g id="line2d_14">
    <path d="M 598.915759 711.242783 
L 599.446219 710.981989 
L 599.822218 710.814179 
L 600.625908 710.685343 
L 607.153054 708.636475 
L 610.910702 708.303492 
L 614.335461 708.867367 
L 618.014294 708.478859 
L 621.999186 708.820713 
L 624.013878 709.845391 
L 629.917388 711.242783 
L 632.128401 711.908132 
L 633.08767 711.980798 
L 637.22442 716.06451 
L 641.023066 718.933763 
L 640.273637 721.640551 
L 639.577904 723.435394 
L 638.84821 726.624743 
L 635.375616 728.211665 
L 633.86912 733.773709 
L 633.502956 734.315724 
L 633.320909 734.477499 
L 633.08767 735.926003 
L 630.877948 740.47404 
L 630.960334 742.006704 
L 630.639848 743.704515 
L 629.392923 747.135006 
L 629.027579 749.697685 
L 625.707085 752.269486 
L 621.999186 756.664481 
L 620.631183 756.439817 
L 612.638839 756.190028 
L 610.910702 755.715813 
L 607.535395 755.047549 
L 603.213221 755.036663 
L 599.822218 753.490848 
L 594.720138 753.236491 
L 592.683804 752.437456 
L 588.733734 751.904035 
L 586.286734 751.394926 
L 582.424027 749.697685 
L 579.713578 748.263091 
L 577.64525 745.616768 
L 576.729755 742.641692 
L 576.59759 742.006704 
L 576.548265 741.245834 
L 576.131002 735.366007 
L 576.06352 734.315724 
L 576.220512 733.327524 
L 577.64525 728.133879 
L 578.549018 727.251597 
L 579.914176 726.624743 
L 585.208923 724.179932 
L 588.733734 721.403151 
L 591.518936 720.865581 
L 593.606457 718.933763 
L 596.175881 716.404661 
L 598.151087 712.401881 
L 598.915759 711.242783 
" clip-path="url(#p650b74f245)" style="fill: none; stroke: #17becf; stroke-opacity: 0.99; stroke-width: 0.2; stroke-linecap: square"/>
   </g>
   <g id="line2d_15">
    <path d="M 619.019957 718.933763 
L 619.226523 717.010642 
L 621.999186 711.339584 
L 622.057716 711.283379 
L 631.418253 712.400691 
L 633.08767 712.063925 
L 636.645649 716.465946 
L 640.294138 718.933763 
L 637.311932 721.863714 
L 633.692798 726.205026 
L 633.32512 726.624743 
L 633.155908 726.672074 
L 633.08767 727.010056 
L 629.575645 731.879781 
L 630.417278 734.315724 
L 631.32549 735.537973 
L 630.566704 740.258161 
L 631.105576 742.006704 
L 631.074157 743.403278 
L 630.109784 747.632221 
L 630.075074 749.697685 
L 626.109506 752.548605 
L 621.999186 757.016836 
L 621.262938 756.878003 
L 612.618868 756.20388 
L 610.910702 755.70117 
L 606.932078 754.629088 
L 604.335693 754.258116 
L 599.822218 752.007188 
L 597.411166 751.369992 
L 594.132763 749.697685 
L 592.012244 747.423708 
L 588.733734 743.924341 
L 587.569765 742.814034 
L 586.663017 742.006704 
L 586.022321 740.126066 
L 586.32568 735.985952 
L 585.071065 734.315724 
L 586.426951 732.715737 
L 588.733734 731.732815 
L 591.580197 732.341415 
L 596.009454 731.671188 
L 599.822218 732.018581 
L 604.620887 729.953104 
L 606.579044 729.629184 
L 610.910702 728.476144 
L 613.002493 728.075612 
L 620.559105 726.624743 
L 620.493896 725.580673 
L 619.108592 720.938681 
L 619.019957 718.933763 
" clip-path="url(#p650b74f245)" style="fill: none; stroke: #1f77b4; stroke-opacity: 0.99; stroke-width: 0.2; stroke-linecap: square"/>
   </g>
   <g id="line2d_16">
    <path d="M 583.807996 688.169842 
L 586.545701 686.65222 
L 588.733734 685.324451 
L 594.017961 684.504698 
L 594.438427 684.43564 
L 599.822218 683.628234 
L 604.571815 683.773185 
L 605.998228 683.886157 
L 610.910702 684.01557 
L 615.570235 684.937986 
L 617.723635 685.204316 
L 621.999186 685.920523 
L 623.793748 686.925132 
L 626.328033 688.169842 
L 629.862288 690.406969 
L 633.08767 692.252872 
L 634.856633 694.633867 
L 635.831807 695.860822 
L 637.709316 699.066399 
L 638.252527 699.969454 
L 640.274541 703.551802 
L 641.7479 705.236041 
L 644.176153 706.966311 
L 645.884113 710.058141 
L 646.280328 711.242783 
L 646.53942 712.881946 
L 647.705118 716.486071 
L 648.003703 718.933763 
L 647.07899 720.947173 
L 646.060119 725.318024 
L 645.587592 726.624743 
L 644.820303 727.071526 
L 644.176153 727.872943 
L 640.91831 728.884386 
L 636.314924 728.863169 
L 635.024725 732.972181 
L 633.842193 734.315724 
L 633.478994 734.587146 
L 633.355127 741.821195 
L 633.266819 742.006704 
L 633.214436 742.094629 
L 633.08767 743.953384 
L 631.926025 748.891967 
L 631.931841 749.697685 
L 626.861231 753.070003 
L 623.895258 756.073548 
L 622.507518 757.388665 
L 622.190014 757.521024 
L 621.999186 757.643831 
L 621.53212 757.712622 
L 611.175238 757.572148 
L 610.910702 757.643625 
L 610.474898 757.690939 
L 599.871359 757.422749 
L 599.822218 757.43125 
L 599.75635 757.434351 
L 598.710185 757.388665 
L 589.89233 756.585062 
L 588.733734 756.290104 
L 584.089548 752.918896 
L 579.735853 749.697685 
L 579.043235 748.728041 
L 577.64525 747.449505 
L 575.298981 743.634079 
L 573.863891 742.006704 
L 571.694643 738.443069 
L 570.611372 737.128001 
L 568.4984 734.315724 
L 568.24477 733.144924 
L 566.556767 729.028613 
L 566.025715 726.993081 
L 565.888208 726.624743 
L 565.871031 726.149117 
L 566.398412 719.043598 
L 566.393769 718.933763 
L 566.40769 718.830363 
L 566.556767 718.121615 
L 568.509853 712.597445 
L 568.977083 711.242783 
L 569.745814 709.030857 
L 570.7166 706.437066 
L 571.671514 703.551802 
L 573.18767 700.460021 
L 574.169943 698.271298 
L 575.302177 695.860822 
L 576.107865 694.79449 
L 577.64525 692.648186 
L 580.808957 690.364191 
L 583.807996 688.169842 
" clip-path="url(#p650b74f245)" style="fill: none; stroke: #ff7f0e; stroke-opacity: 0.99; stroke-width: 0.2; stroke-linecap: square"/>
   </g>
   <g id="patch_23">
    <path d="M 23.103125 842.218676 
L 23.103125 34.3575 
" style="fill: none"/>
   </g>
   <g id="patch_24">
    <path d="M 830.964301 842.218676 
L 830.964301 34.3575 
" style="fill: none"/>
   </g>
   <g id="patch_25">
    <path d="M 23.103125 842.218676 
L 830.964301 842.218676 
" style="fill: none"/>
   </g>
   <g id="patch_26">
    <path d="M 23.103125 34.3575 
L 830.964301 34.3575 
" style="fill: none"/>
   </g>
   <g id="text_1">
    <!-- 0.2 -->
    <g transform="translate(143.163564 434.327984) scale(0.1 -0.1)">
     <defs>
      <path id="DejaVuSans-30" d="M 2034 4250 
Q 1547 4250 1301 3770 
Q 1056 3291 1056 2328 
Q 1056 1369 1301 889 
Q 1547 409 2034 409 
Q 2525 409 2770 889 
Q 3016 1369 3016 2328 
Q 3016 3291 2770 3770 
Q 2525 4250 2034 4250 
z
M 2034 4750 
Q 2819 4750 3233 4129 
Q 3647 3509 3647 2328 
Q 3647 1150 3233 529 
Q 2819 -91 2034 -91 
Q 1250 -91 836 529 
Q 422 1150 422 2328 
Q 422 3509 836 4129 
Q 1250 4750 2034 4750 
z
" transform="scale(0.015625)"/>
      <path id="DejaVuSans-2e" d="M 684 794 
L 1344 794 
L 1344 0 
L 684 0 
L 684 794 
z
" transform="scale(0.015625)"/>
      <path id="DejaVuSans-32" d="M 1228 531 
L 3431 531 
L 3431 0 
L 469 0 
L 469 531 
Q 828 903 1448 1529 
Q 2069 2156 2228 2338 
Q 2531 2678 2651 2914 
Q 2772 3150 2772 3378 
Q 2772 3750 2511 3984 
Q 2250 4219 1831 4219 
Q 1534 4219 1204 4116 
Q 875 4013 500 3803 
L 500 4441 
Q 881 4594 1212 4672 
Q 1544 4750 1819 4750 
Q 2544 4750 2975 4387 
Q 3406 4025 3406 3419 
Q 3406 3131 3298 2873 
Q 3191 2616 2906 2266 
Q 2828 2175 2409 1742 
Q 1991 1309 1228 531 
z
" transform="scale(0.015625)"/>
     </defs>
     <use xlink:href="#DejaVuSans-30"/>
     <use xlink:href="#DejaVuSans-2e" transform="translate(63.623047 0)"/>
     <use xlink:href="#DejaVuSans-32" transform="translate(95.410156 0)"/>
    </g>
   </g>
   <g id="text_2">
    <!-- 0.5 -->
    <g transform="translate(275.167024 434.327984) scale(0.1 -0.1)">
     <defs>
      <path id="DejaVuSans-35" d="M 691 4666 
L 3169 4666 
L 3169 4134 
L 1269 4134 
L 1269 2991 
Q 1406 3038 1543 3061 
Q 1681 3084 1819 3084 
Q 2600 3084 3056 2656 
Q 3513 2228 3513 1497 
Q 3513 744 3044 326 
Q 2575 -91 1722 -91 
Q 1428 -91 1123 -41 
Q 819 9 494 109 
L 494 744 
Q 775 591 1075 516 
Q 1375 441 1709 441 
Q 2250 441 2565 725 
Q 2881 1009 2881 1497 
Q 2881 1984 2565 2268 
Q 2250 2553 1709 2553 
Q 1456 2553 1204 2497 
Q 953 2441 691 2322 
L 691 4666 
z
" transform="scale(0.015625)"/>
     </defs>
     <use xlink:href="#DejaVuSans-30"/>
     <use xlink:href="#DejaVuSans-2e" transform="translate(63.623047 0)"/>
     <use xlink:href="#DejaVuSans-35" transform="translate(95.410156 0)"/>
    </g>
   </g>
   <g id="text_3">
    <!-- 1.0 -->
    <g transform="translate(407.170484 434.327984) scale(0.1 -0.1)">
     <defs>
      <path id="DejaVuSans-31" d="M 794 531 
L 1825 531 
L 1825 4091 
L 703 3866 
L 703 4441 
L 1819 4666 
L 2450 4666 
L 2450 531 
L 3481 531 
L 3481 0 
L 794 0 
L 794 531 
z
" transform="scale(0.015625)"/>
     </defs>
     <use xlink:href="#DejaVuSans-31"/>
     <use xlink:href="#DejaVuSans-2e" transform="translate(63.623047 0)"/>
     <use xlink:href="#DejaVuSans-30" transform="translate(95.410156 0)"/>
    </g>
   </g>
   <g id="text_4">
    <!-- 2.0 -->
    <g transform="translate(539.173945 434.327984) scale(0.1 -0.1)">
     <use xlink:href="#DejaVuSans-32"/>
     <use xlink:href="#DejaVuSans-2e" transform="translate(63.623047 0)"/>
     <use xlink:href="#DejaVuSans-30" transform="translate(95.410156 0)"/>
    </g>
   </g>
   <g id="text_5">
    <!-- 5.0 -->
    <g transform="translate(671.177405 434.327984) scale(0.1 -0.1)">
     <use xlink:href="#DejaVuSans-35"/>
     <use xlink:href="#DejaVuSans-2e" transform="translate(63.623047 0)"/>
     <use xlink:href="#DejaVuSans-30" transform="translate(95.410156 0)"/>
    </g>
   </g>
   <g id="text_6">
    <!-- 0.2j -->
    <g transform="translate(39.148939 282.373599) scale(0.1 -0.1)">
     <defs>
      <path id="DejaVuSans-6a" d="M 603 3500 
L 1178 3500 
L 1178 -63 
Q 1178 -731 923 -1031 
Q 669 -1331 103 -1331 
L -116 -1331 
L -116 -844 
L 38 -844 
Q 366 -844 484 -692 
Q 603 -541 603 -63 
L 603 3500 
z
M 603 4863 
L 1178 4863 
L 1178 4134 
L 603 4134 
L 603 4863 
z
" transform="scale(0.015625)"/>
     </defs>
     <use xlink:href="#DejaVuSans-30"/>
     <use xlink:href="#DejaVuSans-2e" transform="translate(63.623047 0)"/>
     <use xlink:href="#DejaVuSans-32" transform="translate(95.410156 0)"/>
     <use xlink:href="#DejaVuSans-6a" transform="translate(159.033203 0)"/>
    </g>
   </g>
   <g id="text_7">
    <!-- 0.5j -->
    <g transform="translate(168.370173 116.232013) scale(0.1 -0.1)">
     <use xlink:href="#DejaVuSans-30"/>
     <use xlink:href="#DejaVuSans-2e" transform="translate(63.623047 0)"/>
     <use xlink:href="#DejaVuSans-35" transform="translate(95.410156 0)"/>
     <use xlink:href="#DejaVuSans-6a" transform="translate(159.033203 0)"/>
    </g>
   </g>
   <g id="text_8">
    <!-- 1.0j -->
    <g transform="translate(417.693088 36.237916) scale(0.1 -0.1)">
     <use xlink:href="#DejaVuSans-31"/>
     <use xlink:href="#DejaVuSans-2e" transform="translate(63.623047 0)"/>
     <use xlink:href="#DejaVuSans-30" transform="translate(95.410156 0)"/>
     <use xlink:href="#DejaVuSans-6a" transform="translate(159.033203 0)"/>
    </g>
   </g>
   <g id="text_9">
    <!-- 2.0j -->
    <g transform="translate(667.016004 116.232013) scale(0.1 -0.1)">
     <use xlink:href="#DejaVuSans-32"/>
     <use xlink:href="#DejaVuSans-2e" transform="translate(63.623047 0)"/>
     <use xlink:href="#DejaVuSans-30" transform="translate(95.410156 0)"/>
     <use xlink:href="#DejaVuSans-6a" transform="translate(159.033203 0)"/>
    </g>
   </g>
   <g id="text_10">
    <!-- 5.0j -->
    <g transform="translate(796.237237 282.373599) scale(0.1 -0.1)">
     <use xlink:href="#DejaVuSans-35"/>
     <use xlink:href="#DejaVuSans-2e" transform="translate(63.623047 0)"/>
     <use xlink:href="#DejaVuSans-30" transform="translate(95.410156 0)"/>
     <use xlink:href="#DejaVuSans-6a" transform="translate(159.033203 0)"/>
    </g>
   </g>
   <g id="text_11">
    <!-- -0.2j -->
    <g transform="translate(35.541127 599.721327) scale(0.1 -0.1)">
     <defs>
      <path id="DejaVuSans-2d" d="M 313 2009 
L 1997 2009 
L 1997 1497 
L 313 1497 
L 313 2009 
z
" transform="scale(0.015625)"/>
     </defs>
     <use xlink:href="#DejaVuSans-2d"/>
     <use xlink:href="#DejaVuSans-30" transform="translate(36.083984 0)"/>
     <use xlink:href="#DejaVuSans-2e" transform="translate(99.707031 0)"/>
     <use xlink:href="#DejaVuSans-32" transform="translate(131.494141 0)"/>
     <use xlink:href="#DejaVuSans-6a" transform="translate(195.117188 0)"/>
    </g>
   </g>
   <g id="text_12">
    <!-- -0.5j -->
    <g transform="translate(164.76236 765.862913) scale(0.1 -0.1)">
     <use xlink:href="#DejaVuSans-2d"/>
     <use xlink:href="#DejaVuSans-30" transform="translate(36.083984 0)"/>
     <use xlink:href="#DejaVuSans-2e" transform="translate(99.707031 0)"/>
     <use xlink:href="#DejaVuSans-35" transform="translate(131.494141 0)"/>
     <use xlink:href="#DejaVuSans-6a" transform="translate(195.117188 0)"/>
    </g>
   </g>
   <g id="text_13">
    <!-- -1.0j -->
    <g transform="translate(415.889182 845.85701) scale(0.1 -0.1)">
     <use xlink:href="#DejaVuSans-2d"/>
     <use xlink:href="#DejaVuSans-31" transform="translate(36.083984 0)"/>
     <use xlink:href="#DejaVuSans-2e" transform="translate(99.707031 0)"/>
     <use xlink:href="#DejaVuSans-30" transform="translate(131.494141 0)"/>
     <use xlink:href="#DejaVuSans-6a" transform="translate(195.117188 0)"/>
    </g>
   </g>
   <g id="text_14">
    <!-- -2.0j -->
    <g transform="translate(667.016004 765.862913) scale(0.1 -0.1)">
     <use xlink:href="#DejaVuSans-2d"/>
     <use xlink:href="#DejaVuSans-32" transform="translate(36.083984 0)"/>
     <use xlink:href="#DejaVuSans-2e" transform="translate(99.707031 0)"/>
     <use xlink:href="#DejaVuSans-30" transform="translate(131.494141 0)"/>
     <use xlink:href="#DejaVuSans-6a" transform="translate(195.117188 0)"/>
    </g>
   </g>
   <g id="text_15">
    <!-- -5.0j -->
    <g transform="translate(796.237237 599.721327) scale(0.1 -0.1)">
     <use xlink:href="#DejaVuSans-2d"/>
     <use xlink:href="#DejaVuSans-35" transform="translate(36.083984 0)"/>
     <use xlink:href="#DejaVuSans-2e" transform="translate(99.707031 0)"/>
     <use xlink:href="#DejaVuSans-30" transform="translate(131.494141 0)"/>
     <use xlink:href="#DejaVuSans-6a" transform="translate(195.117188 0)"/>
    </g>
   </g>
   <g id="text_16">
    <!-- 0.0 -->
    <g transform="translate(7.2 441.047463) scale(0.1 -0.1)">
     <use xlink:href="#DejaVuSans-30"/>
     <use xlink:href="#DejaVuSans-2e" transform="translate(63.623047 0)"/>
     <use xlink:href="#DejaVuSans-30" transform="translate(95.410156 0)"/>
    </g>
   </g>
   <g id="text_17">
    <!-- $\infty$ -->
    <g transform="translate(827.004198 441.047463) scale(0.1 -0.1)">
     <defs>
      <path id="DejaVuSans-221e" d="M 2916 1091 
Q 2819 1203 2666 1466 
Q 2456 1091 2272 925 
Q 2041 725 1681 725 
Q 1259 725 981 1041 
Q 688 1372 688 1919 
Q 688 2444 981 2800 
Q 1244 3116 1688 3116 
Q 1916 3116 2084 3022 
Q 2281 2919 2416 2741 
Q 2541 2581 2666 2366 
Q 2875 2741 3059 2906 
Q 3291 3106 3650 3106 
Q 4072 3106 4350 2791 
Q 4644 2459 4644 1913 
Q 4644 1388 4350 1031 
Q 4088 716 3644 716 
Q 3416 716 3247 809 
Q 3078 894 2916 1091 
z
M 1647 1134 
Q 2163 1134 2472 1884 
Q 2075 2703 1647 2703 
Q 1334 2703 1175 2478 
Q 1003 2238 1003 1919 
Q 1003 1569 1175 1353 
Q 1350 1134 1647 1134 
z
M 3684 2697 
Q 3219 2697 2859 1947 
Q 3253 1128 3684 1128 
Q 3997 1128 4156 1353 
Q 4328 1594 4328 1913 
Q 4328 2263 4156 2478 
Q 3981 2697 3684 2697 
z
" transform="scale(0.015625)"/>
     </defs>
     <use xlink:href="#DejaVuSans-221e" transform="translate(0 0.3125)"/>
    </g>
   </g>
   <g id="text_18">
    <!-- it2_source_pull - Broadband Optimum Target -->
    <g transform="translate(248.623713 19.3575) scale(0.16 -0.16)">
     <defs>
      <path id="DejaVuSans-69" d="M 603 3500 
L 1178 3500 
L 1178 0 
L 603 0 
L 603 3500 
z
M 603 4863 
L 1178 4863 
L 1178 4134 
L 603 4134 
L 603 4863 
z
" transform="scale(0.015625)"/>
      <path id="DejaVuSans-74" d="M 1172 4494 
L 1172 3500 
L 2356 3500 
L 2356 3053 
L 1172 3053 
L 1172 1153 
Q 1172 725 1289 603 
Q 1406 481 1766 481 
L 2356 481 
L 2356 0 
L 1766 0 
Q 1100 0 847 248 
Q 594 497 594 1153 
L 594 3053 
L 172 3053 
L 172 3500 
L 594 3500 
L 594 4494 
L 1172 4494 
z
" transform="scale(0.015625)"/>
      <path id="DejaVuSans-5f" d="M 3263 -1063 
L 3263 -1509 
L -63 -1509 
L -63 -1063 
L 3263 -1063 
z
" transform="scale(0.015625)"/>
      <path id="DejaVuSans-73" d="M 2834 3397 
L 2834 2853 
Q 2591 2978 2328 3040 
Q 2066 3103 1784 3103 
Q 1356 3103 1142 2972 
Q 928 2841 928 2578 
Q 928 2378 1081 2264 
Q 1234 2150 1697 2047 
L 1894 2003 
Q 2506 1872 2764 1633 
Q 3022 1394 3022 966 
Q 3022 478 2636 193 
Q 2250 -91 1575 -91 
Q 1294 -91 989 -36 
Q 684 19 347 128 
L 347 722 
Q 666 556 975 473 
Q 1284 391 1588 391 
Q 1994 391 2212 530 
Q 2431 669 2431 922 
Q 2431 1156 2273 1281 
Q 2116 1406 1581 1522 
L 1381 1569 
Q 847 1681 609 1914 
Q 372 2147 372 2553 
Q 372 3047 722 3315 
Q 1072 3584 1716 3584 
Q 2034 3584 2315 3537 
Q 2597 3491 2834 3397 
z
" transform="scale(0.015625)"/>
      <path id="DejaVuSans-6f" d="M 1959 3097 
Q 1497 3097 1228 2736 
Q 959 2375 959 1747 
Q 959 1119 1226 758 
Q 1494 397 1959 397 
Q 2419 397 2687 759 
Q 2956 1122 2956 1747 
Q 2956 2369 2687 2733 
Q 2419 3097 1959 3097 
z
M 1959 3584 
Q 2709 3584 3137 3096 
Q 3566 2609 3566 1747 
Q 3566 888 3137 398 
Q 2709 -91 1959 -91 
Q 1206 -91 779 398 
Q 353 888 353 1747 
Q 353 2609 779 3096 
Q 1206 3584 1959 3584 
z
" transform="scale(0.015625)"/>
      <path id="DejaVuSans-75" d="M 544 1381 
L 544 3500 
L 1119 3500 
L 1119 1403 
Q 1119 906 1312 657 
Q 1506 409 1894 409 
Q 2359 409 2629 706 
Q 2900 1003 2900 1516 
L 2900 3500 
L 3475 3500 
L 3475 0 
L 2900 0 
L 2900 538 
Q 2691 219 2414 64 
Q 2138 -91 1772 -91 
Q 1169 -91 856 284 
Q 544 659 544 1381 
z
M 1991 3584 
L 1991 3584 
z
" transform="scale(0.015625)"/>
      <path id="DejaVuSans-72" d="M 2631 2963 
Q 2534 3019 2420 3045 
Q 2306 3072 2169 3072 
Q 1681 3072 1420 2755 
Q 1159 2438 1159 1844 
L 1159 0 
L 581 0 
L 581 3500 
L 1159 3500 
L 1159 2956 
Q 1341 3275 1631 3429 
Q 1922 3584 2338 3584 
Q 2397 3584 2469 3576 
Q 2541 3569 2628 3553 
L 2631 2963 
z
" transform="scale(0.015625)"/>
      <path id="DejaVuSans-63" d="M 3122 3366 
L 3122 2828 
Q 2878 2963 2633 3030 
Q 2388 3097 2138 3097 
Q 1578 3097 1268 2742 
Q 959 2388 959 1747 
Q 959 1106 1268 751 
Q 1578 397 2138 397 
Q 2388 397 2633 464 
Q 2878 531 3122 666 
L 3122 134 
Q 2881 22 2623 -34 
Q 2366 -91 2075 -91 
Q 1284 -91 818 406 
Q 353 903 353 1747 
Q 353 2603 823 3093 
Q 1294 3584 2113 3584 
Q 2378 3584 2631 3529 
Q 2884 3475 3122 3366 
z
" transform="scale(0.015625)"/>
      <path id="DejaVuSans-65" d="M 3597 1894 
L 3597 1613 
L 953 1613 
Q 991 1019 1311 708 
Q 1631 397 2203 397 
Q 2534 397 2845 478 
Q 3156 559 3463 722 
L 3463 178 
Q 3153 47 2828 -22 
Q 2503 -91 2169 -91 
Q 1331 -91 842 396 
Q 353 884 353 1716 
Q 353 2575 817 3079 
Q 1281 3584 2069 3584 
Q 2775 3584 3186 3129 
Q 3597 2675 3597 1894 
z
M 3022 2063 
Q 3016 2534 2758 2815 
Q 2500 3097 2075 3097 
Q 1594 3097 1305 2825 
Q 1016 2553 972 2059 
L 3022 2063 
z
" transform="scale(0.015625)"/>
      <path id="DejaVuSans-70" d="M 1159 525 
L 1159 -1331 
L 581 -1331 
L 581 3500 
L 1159 3500 
L 1159 2969 
Q 1341 3281 1617 3432 
Q 1894 3584 2278 3584 
Q 2916 3584 3314 3078 
Q 3713 2572 3713 1747 
Q 3713 922 3314 415 
Q 2916 -91 2278 -91 
Q 1894 -91 1617 61 
Q 1341 213 1159 525 
z
M 3116 1747 
Q 3116 2381 2855 2742 
Q 2594 3103 2138 3103 
Q 1681 3103 1420 2742 
Q 1159 2381 1159 1747 
Q 1159 1113 1420 752 
Q 1681 391 2138 391 
Q 2594 391 2855 752 
Q 3116 1113 3116 1747 
z
" transform="scale(0.015625)"/>
      <path id="DejaVuSans-6c" d="M 603 4863 
L 1178 4863 
L 1178 0 
L 603 0 
L 603 4863 
z
" transform="scale(0.015625)"/>
      <path id="DejaVuSans-20" transform="scale(0.015625)"/>
      <path id="DejaVuSans-42" d="M 1259 2228 
L 1259 519 
L 2272 519 
Q 2781 519 3026 730 
Q 3272 941 3272 1375 
Q 3272 1813 3026 2020 
Q 2781 2228 2272 2228 
L 1259 2228 
z
M 1259 4147 
L 1259 2741 
L 2194 2741 
Q 2656 2741 2882 2914 
Q 3109 3088 3109 3444 
Q 3109 3797 2882 3972 
Q 2656 4147 2194 4147 
L 1259 4147 
z
M 628 4666 
L 2241 4666 
Q 2963 4666 3353 4366 
Q 3744 4066 3744 3513 
Q 3744 3084 3544 2831 
Q 3344 2578 2956 2516 
Q 3422 2416 3680 2098 
Q 3938 1781 3938 1306 
Q 3938 681 3513 340 
Q 3088 0 2303 0 
L 628 0 
L 628 4666 
z
" transform="scale(0.015625)"/>
      <path id="DejaVuSans-61" d="M 2194 1759 
Q 1497 1759 1228 1600 
Q 959 1441 959 1056 
Q 959 750 1161 570 
Q 1363 391 1709 391 
Q 2188 391 2477 730 
Q 2766 1069 2766 1631 
L 2766 1759 
L 2194 1759 
z
M 3341 1997 
L 3341 0 
L 2766 0 
L 2766 531 
Q 2569 213 2275 61 
Q 1981 -91 1556 -91 
Q 1019 -91 701 211 
Q 384 513 384 1019 
Q 384 1609 779 1909 
Q 1175 2209 1959 2209 
L 2766 2209 
L 2766 2266 
Q 2766 2663 2505 2880 
Q 2244 3097 1772 3097 
Q 1472 3097 1187 3025 
Q 903 2953 641 2809 
L 641 3341 
Q 956 3463 1253 3523 
Q 1550 3584 1831 3584 
Q 2591 3584 2966 3190 
Q 3341 2797 3341 1997 
z
" transform="scale(0.015625)"/>
      <path id="DejaVuSans-64" d="M 2906 2969 
L 2906 4863 
L 3481 4863 
L 3481 0 
L 2906 0 
L 2906 525 
Q 2725 213 2448 61 
Q 2172 -91 1784 -91 
Q 1150 -91 751 415 
Q 353 922 353 1747 
Q 353 2572 751 3078 
Q 1150 3584 1784 3584 
Q 2172 3584 2448 3432 
Q 2725 3281 2906 2969 
z
M 947 1747 
Q 947 1113 1208 752 
Q 1469 391 1925 391 
Q 2381 391 2643 752 
Q 2906 1113 2906 1747 
Q 2906 2381 2643 2742 
Q 2381 3103 1925 3103 
Q 1469 3103 1208 2742 
Q 947 2381 947 1747 
z
" transform="scale(0.015625)"/>
      <path id="DejaVuSans-62" d="M 3116 1747 
Q 3116 2381 2855 2742 
Q 2594 3103 2138 3103 
Q 1681 3103 1420 2742 
Q 1159 2381 1159 1747 
Q 1159 1113 1420 752 
Q 1681 391 2138 391 
Q 2594 391 2855 752 
Q 3116 1113 3116 1747 
z
M 1159 2969 
Q 1341 3281 1617 3432 
Q 1894 3584 2278 3584 
Q 2916 3584 3314 3078 
Q 3713 2572 3713 1747 
Q 3713 922 3314 415 
Q 2916 -91 2278 -91 
Q 1894 -91 1617 61 
Q 1341 213 1159 525 
L 1159 0 
L 581 0 
L 581 4863 
L 1159 4863 
L 1159 2969 
z
" transform="scale(0.015625)"/>
      <path id="DejaVuSans-6e" d="M 3513 2113 
L 3513 0 
L 2938 0 
L 2938 2094 
Q 2938 2591 2744 2837 
Q 2550 3084 2163 3084 
Q 1697 3084 1428 2787 
Q 1159 2491 1159 1978 
L 1159 0 
L 581 0 
L 581 3500 
L 1159 3500 
L 1159 2956 
Q 1366 3272 1645 3428 
Q 1925 3584 2291 3584 
Q 2894 3584 3203 3211 
Q 3513 2838 3513 2113 
z
" transform="scale(0.015625)"/>
      <path id="DejaVuSans-4f" d="M 2522 4238 
Q 1834 4238 1429 3725 
Q 1025 3213 1025 2328 
Q 1025 1447 1429 934 
Q 1834 422 2522 422 
Q 3209 422 3611 934 
Q 4013 1447 4013 2328 
Q 4013 3213 3611 3725 
Q 3209 4238 2522 4238 
z
M 2522 4750 
Q 3503 4750 4090 4092 
Q 4678 3434 4678 2328 
Q 4678 1225 4090 567 
Q 3503 -91 2522 -91 
Q 1538 -91 948 565 
Q 359 1222 359 2328 
Q 359 3434 948 4092 
Q 1538 4750 2522 4750 
z
" transform="scale(0.015625)"/>
      <path id="DejaVuSans-6d" d="M 3328 2828 
Q 3544 3216 3844 3400 
Q 4144 3584 4550 3584 
Q 5097 3584 5394 3201 
Q 5691 2819 5691 2113 
L 5691 0 
L 5113 0 
L 5113 2094 
Q 5113 2597 4934 2840 
Q 4756 3084 4391 3084 
Q 3944 3084 3684 2787 
Q 3425 2491 3425 1978 
L 3425 0 
L 2847 0 
L 2847 2094 
Q 2847 2600 2669 2842 
Q 2491 3084 2119 3084 
Q 1678 3084 1418 2786 
Q 1159 2488 1159 1978 
L 1159 0 
L 581 0 
L 581 3500 
L 1159 3500 
L 1159 2956 
Q 1356 3278 1631 3431 
Q 1906 3584 2284 3584 
Q 2666 3584 2933 3390 
Q 3200 3197 3328 2828 
z
" transform="scale(0.015625)"/>
      <path id="DejaVuSans-54" d="M -19 4666 
L 3928 4666 
L 3928 4134 
L 2272 4134 
L 2272 0 
L 1638 0 
L 1638 4134 
L -19 4134 
L -19 4666 
z
" transform="scale(0.015625)"/>
      <path id="DejaVuSans-67" d="M 2906 1791 
Q 2906 2416 2648 2759 
Q 2391 3103 1925 3103 
Q 1463 3103 1205 2759 
Q 947 2416 947 1791 
Q 947 1169 1205 825 
Q 1463 481 1925 481 
Q 2391 481 2648 825 
Q 2906 1169 2906 1791 
z
M 3481 434 
Q 3481 -459 3084 -895 
Q 2688 -1331 1869 -1331 
Q 1566 -1331 1297 -1286 
Q 1028 -1241 775 -1147 
L 775 -588 
Q 1028 -725 1275 -790 
Q 1522 -856 1778 -856 
Q 2344 -856 2625 -561 
Q 2906 -266 2906 331 
L 2906 616 
Q 2728 306 2450 153 
Q 2172 0 1784 0 
Q 1141 0 747 490 
Q 353 981 353 1791 
Q 353 2603 747 3093 
Q 1141 3584 1784 3584 
Q 2172 3584 2450 3431 
Q 2728 3278 2906 2969 
L 2906 3500 
L 3481 3500 
L 3481 434 
z
" transform="scale(0.015625)"/>
     </defs>
     <use xlink:href="#DejaVuSans-69"/>
     <use xlink:href="#DejaVuSans-74" transform="translate(27.783203 0)"/>
     <use xlink:href="#DejaVuSans-32" transform="translate(66.992188 0)"/>
     <use xlink:href="#DejaVuSans-5f" transform="translate(130.615234 0)"/>
     <use xlink:href="#DejaVuSans-73" transform="translate(180.615234 0)"/>
     <use xlink:href="#DejaVuSans-6f" transform="translate(232.714844 0)"/>
     <use xlink:href="#DejaVuSans-75" transform="translate(293.896484 0)"/>
     <use xlink:href="#DejaVuSans-72" transform="translate(357.275391 0)"/>
     <use xlink:href="#DejaVuSans-63" transform="translate(396.138672 0)"/>
     <use xlink:href="#DejaVuSans-65" transform="translate(451.119141 0)"/>
     <use xlink:href="#DejaVuSans-5f" transform="translate(512.642578 0)"/>
     <use xlink:href="#DejaVuSans-70" transform="translate(562.642578 0)"/>
     <use xlink:href="#DejaVuSans-75" transform="translate(626.119141 0)"/>
     <use xlink:href="#DejaVuSans-6c" transform="translate(689.498047 0)"/>
     <use xlink:href="#DejaVuSans-6c" transform="translate(717.28125 0)"/>
     <use xlink:href="#DejaVuSans-20" transform="translate(745.064453 0)"/>
     <use xlink:href="#DejaVuSans-2d" transform="translate(776.851562 0)"/>
     <use xlink:href="#DejaVuSans-20" transform="translate(812.935547 0)"/>
     <use xlink:href="#DejaVuSans-42" transform="translate(844.722656 0)"/>
     <use xlink:href="#DejaVuSans-72" transform="translate(913.326172 0)"/>
     <use xlink:href="#DejaVuSans-6f" transform="translate(952.189453 0)"/>
     <use xlink:href="#DejaVuSans-61" transform="translate(1013.371094 0)"/>
     <use xlink:href="#DejaVuSans-64" transform="translate(1074.650391 0)"/>
     <use xlink:href="#DejaVuSans-62" transform="translate(1138.126953 0)"/>
     <use xlink:href="#DejaVuSans-61" transform="translate(1201.603516 0)"/>
     <use xlink:href="#DejaVuSans-6e" transform="translate(1262.882812 0)"/>
     <use xlink:href="#DejaVuSans-64" transform="translate(1326.261719 0)"/>
     <use xlink:href="#DejaVuSans-20" transform="translate(1389.738281 0)"/>
     <use xlink:href="#DejaVuSans-4f" transform="translate(1421.525391 0)"/>
     <use xlink:href="#DejaVuSans-70" transform="translate(1500.236328 0)"/>
     <use xlink:href="#DejaVuSans-74" transform="translate(1563.712891 0)"/>
     <use xlink:href="#DejaVuSans-69" transform="translate(1602.921875 0)"/>
     <use xlink:href="#DejaVuSans-6d" transform="translate(1630.705078 0)"/>
     <use xlink:href="#DejaVuSans-75" transform="translate(1728.117188 0)"/>
     <use xlink:href="#DejaVuSans-6d" transform="translate(1791.496094 0)"/>
     <use xlink:href="#DejaVuSans-20" transform="translate(1888.908203 0)"/>
     <use xlink:href="#DejaVuSans-54" transform="translate(1920.695312 0)"/>
     <use xlink:href="#DejaVuSans-61" transform="translate(1965.279297 0)"/>
     <use xlink:href="#DejaVuSans-72" transform="translate(2026.558594 0)"/>
     <use xlink:href="#DejaVuSans-67" transform="translate(2065.921875 0)"/>
     <use xlink:href="#DejaVuSans-65" transform="translate(2129.398438 0)"/>
     <use xlink:href="#DejaVuSans-74" transform="translate(2190.921875 0)"/>
    </g>
   </g>
   <g id="legend_1">
    <g id="patch_27">
     <path d="M 854.121525 535.195901 
L 1009.182462 535.195901 
Q 1011.182462 535.195901 1011.182462 533.195901 
L 1011.182462 343.380276 
Q 1011.182462 341.380276 1009.182462 341.380276 
L 854.121525 341.380276 
Q 852.121525 341.380276 852.121525 343.380276 
L 852.121525 533.195901 
Q 852.121525 535.195901 854.121525 535.195901 
z
" style="fill: #ffffff; opacity: 0.8; stroke: #cccccc; stroke-linejoin: miter"/>
    </g>
    <g id="line2d_17">
     <path d="M 856.121525 349.478713 
L 866.121525 349.478713 
L 876.121525 349.478713 
" style="fill: none; stroke: #1f77b4; stroke-opacity: 0.99; stroke-width: 0.2; stroke-linecap: square"/>
    </g>
    <g id="text_19">
     <!-- 12.70 GHz (Target: 47.5) -->
     <g transform="translate(884.121525 352.978713) scale(0.1 -0.1)">
      <defs>
       <path id="DejaVuSans-37" d="M 525 4666 
L 3525 4666 
L 3525 4397 
L 1831 0 
L 1172 0 
L 2766 4134 
L 525 4134 
L 525 4666 
z
" transform="scale(0.015625)"/>
       <path id="DejaVuSans-47" d="M 3809 666 
L 3809 1919 
L 2778 1919 
L 2778 2438 
L 4434 2438 
L 4434 434 
Q 4069 175 3628 42 
Q 3188 -91 2688 -91 
Q 1594 -91 976 548 
Q 359 1188 359 2328 
Q 359 3472 976 4111 
Q 1594 4750 2688 4750 
Q 3144 4750 3555 4637 
Q 3966 4525 4313 4306 
L 4313 3634 
Q 3963 3931 3569 4081 
Q 3175 4231 2741 4231 
Q 1884 4231 1454 3753 
Q 1025 3275 1025 2328 
Q 1025 1384 1454 906 
Q 1884 428 2741 428 
Q 3075 428 3337 486 
Q 3600 544 3809 666 
z
" transform="scale(0.015625)"/>
       <path id="DejaVuSans-48" d="M 628 4666 
L 1259 4666 
L 1259 2753 
L 3553 2753 
L 3553 4666 
L 4184 4666 
L 4184 0 
L 3553 0 
L 3553 2222 
L 1259 2222 
L 1259 0 
L 628 0 
L 628 4666 
z
" transform="scale(0.015625)"/>
       <path id="DejaVuSans-7a" d="M 353 3500 
L 3084 3500 
L 3084 2975 
L 922 459 
L 3084 459 
L 3084 0 
L 275 0 
L 275 525 
L 2438 3041 
L 353 3041 
L 353 3500 
z
" transform="scale(0.015625)"/>
       <path id="DejaVuSans-28" d="M 1984 4856 
Q 1566 4138 1362 3434 
Q 1159 2731 1159 2009 
Q 1159 1288 1364 580 
Q 1569 -128 1984 -844 
L 1484 -844 
Q 1016 -109 783 600 
Q 550 1309 550 2009 
Q 550 2706 781 3412 
Q 1013 4119 1484 4856 
L 1984 4856 
z
" transform="scale(0.015625)"/>
       <path id="DejaVuSans-3a" d="M 750 794 
L 1409 794 
L 1409 0 
L 750 0 
L 750 794 
z
M 750 3309 
L 1409 3309 
L 1409 2516 
L 750 2516 
L 750 3309 
z
" transform="scale(0.015625)"/>
       <path id="DejaVuSans-34" d="M 2419 4116 
L 825 1625 
L 2419 1625 
L 2419 4116 
z
M 2253 4666 
L 3047 4666 
L 3047 1625 
L 3713 1625 
L 3713 1100 
L 3047 1100 
L 3047 0 
L 2419 0 
L 2419 1100 
L 313 1100 
L 313 1709 
L 2253 4666 
z
" transform="scale(0.015625)"/>
       <path id="DejaVuSans-29" d="M 513 4856 
L 1013 4856 
Q 1481 4119 1714 3412 
Q 1947 2706 1947 2009 
Q 1947 1309 1714 600 
Q 1481 -109 1013 -844 
L 513 -844 
Q 928 -128 1133 580 
Q 1338 1288 1338 2009 
Q 1338 2731 1133 3434 
Q 928 4138 513 4856 
z
" transform="scale(0.015625)"/>
      </defs>
      <use xlink:href="#DejaVuSans-31"/>
      <use xlink:href="#DejaVuSans-32" transform="translate(63.623047 0)"/>
      <use xlink:href="#DejaVuSans-2e" transform="translate(127.246094 0)"/>
      <use xlink:href="#DejaVuSans-37" transform="translate(159.033203 0)"/>
      <use xlink:href="#DejaVuSans-30" transform="translate(222.65625 0)"/>
      <use xlink:href="#DejaVuSans-20" transform="translate(286.279297 0)"/>
      <use xlink:href="#DejaVuSans-47" transform="translate(318.066406 0)"/>
      <use xlink:href="#DejaVuSans-48" transform="translate(395.556641 0)"/>
      <use xlink:href="#DejaVuSans-7a" transform="translate(470.751953 0)"/>
      <use xlink:href="#DejaVuSans-20" transform="translate(523.242188 0)"/>
      <use xlink:href="#DejaVuSans-28" transform="translate(555.029297 0)"/>
      <use xlink:href="#DejaVuSans-54" transform="translate(594.042969 0)"/>
      <use xlink:href="#DejaVuSans-61" transform="translate(638.626953 0)"/>
      <use xlink:href="#DejaVuSans-72" transform="translate(699.90625 0)"/>
      <use xlink:href="#DejaVuSans-67" transform="translate(739.269531 0)"/>
      <use xlink:href="#DejaVuSans-65" transform="translate(802.746094 0)"/>
      <use xlink:href="#DejaVuSans-74" transform="translate(864.269531 0)"/>
      <use xlink:href="#DejaVuSans-3a" transform="translate(903.478516 0)"/>
      <use xlink:href="#DejaVuSans-20" transform="translate(937.169922 0)"/>
      <use xlink:href="#DejaVuSans-34" transform="translate(968.957031 0)"/>
      <use xlink:href="#DejaVuSans-37" transform="translate(1032.580078 0)"/>
      <use xlink:href="#DejaVuSans-2e" transform="translate(1096.203125 0)"/>
      <use xlink:href="#DejaVuSans-35" transform="translate(1127.990234 0)"/>
      <use xlink:href="#DejaVuSans-29" transform="translate(1191.613281 0)"/>
     </g>
    </g>
    <g id="line2d_18">
     <path d="M 856.121525 364.156838 
L 866.121525 364.156838 
L 876.121525 364.156838 
" style="fill: none; stroke: #ff7f0e; stroke-opacity: 0.99; stroke-width: 0.2; stroke-linecap: square"/>
    </g>
    <g id="text_20">
     <!-- 12.75 GHz (Target: 47.5) -->
     <g transform="translate(884.121525 367.656838) scale(0.1 -0.1)">
      <use xlink:href="#DejaVuSans-31"/>
      <use xlink:href="#DejaVuSans-32" transform="translate(63.623047 0)"/>
      <use xlink:href="#DejaVuSans-2e" transform="translate(127.246094 0)"/>
      <use xlink:href="#DejaVuSans-37" transform="translate(159.033203 0)"/>
      <use xlink:href="#DejaVuSans-35" transform="translate(222.65625 0)"/>
      <use xlink:href="#DejaVuSans-20" transform="translate(286.279297 0)"/>
      <use xlink:href="#DejaVuSans-47" transform="translate(318.066406 0)"/>
      <use xlink:href="#DejaVuSans-48" transform="translate(395.556641 0)"/>
      <use xlink:href="#DejaVuSans-7a" transform="translate(470.751953 0)"/>
      <use xlink:href="#DejaVuSans-20" transform="translate(523.242188 0)"/>
      <use xlink:href="#DejaVuSans-28" transform="translate(555.029297 0)"/>
      <use xlink:href="#DejaVuSans-54" transform="translate(594.042969 0)"/>
      <use xlink:href="#DejaVuSans-61" transform="translate(638.626953 0)"/>
      <use xlink:href="#DejaVuSans-72" transform="translate(699.90625 0)"/>
      <use xlink:href="#DejaVuSans-67" transform="translate(739.269531 0)"/>
      <use xlink:href="#DejaVuSans-65" transform="translate(802.746094 0)"/>
      <use xlink:href="#DejaVuSans-74" transform="translate(864.269531 0)"/>
      <use xlink:href="#DejaVuSans-3a" transform="translate(903.478516 0)"/>
      <use xlink:href="#DejaVuSans-20" transform="translate(937.169922 0)"/>
      <use xlink:href="#DejaVuSans-34" transform="translate(968.957031 0)"/>
      <use xlink:href="#DejaVuSans-37" transform="translate(1032.580078 0)"/>
      <use xlink:href="#DejaVuSans-2e" transform="translate(1096.203125 0)"/>
      <use xlink:href="#DejaVuSans-35" transform="translate(1127.990234 0)"/>
      <use xlink:href="#DejaVuSans-29" transform="translate(1191.613281 0)"/>
     </g>
    </g>
    <g id="line2d_19">
     <path d="M 856.121525 378.834963 
L 866.121525 378.834963 
L 876.121525 378.834963 
" style="fill: none; stroke: #2ca02c; stroke-opacity: 0.99; stroke-width: 0.2; stroke-linecap: square"/>
    </g>
    <g id="text_21">
     <!-- 12.80 GHz (Target: 48.0) -->
     <g transform="translate(884.121525 382.334963) scale(0.1 -0.1)">
      <defs>
       <path id="DejaVuSans-38" d="M 2034 2216 
Q 1584 2216 1326 1975 
Q 1069 1734 1069 1313 
Q 1069 891 1326 650 
Q 1584 409 2034 409 
Q 2484 409 2743 651 
Q 3003 894 3003 1313 
Q 3003 1734 2745 1975 
Q 2488 2216 2034 2216 
z
M 1403 2484 
Q 997 2584 770 2862 
Q 544 3141 544 3541 
Q 544 4100 942 4425 
Q 1341 4750 2034 4750 
Q 2731 4750 3128 4425 
Q 3525 4100 3525 3541 
Q 3525 3141 3298 2862 
Q 3072 2584 2669 2484 
Q 3125 2378 3379 2068 
Q 3634 1759 3634 1313 
Q 3634 634 3220 271 
Q 2806 -91 2034 -91 
Q 1263 -91 848 271 
Q 434 634 434 1313 
Q 434 1759 690 2068 
Q 947 2378 1403 2484 
z
M 1172 3481 
Q 1172 3119 1398 2916 
Q 1625 2713 2034 2713 
Q 2441 2713 2670 2916 
Q 2900 3119 2900 3481 
Q 2900 3844 2670 4047 
Q 2441 4250 2034 4250 
Q 1625 4250 1398 4047 
Q 1172 3844 1172 3481 
z
" transform="scale(0.015625)"/>
      </defs>
      <use xlink:href="#DejaVuSans-31"/>
      <use xlink:href="#DejaVuSans-32" transform="translate(63.623047 0)"/>
      <use xlink:href="#DejaVuSans-2e" transform="translate(127.246094 0)"/>
      <use xlink:href="#DejaVuSans-38" transform="translate(159.033203 0)"/>
      <use xlink:href="#DejaVuSans-30" transform="translate(222.65625 0)"/>
      <use xlink:href="#DejaVuSans-20" transform="translate(286.279297 0)"/>
      <use xlink:href="#DejaVuSans-47" transform="translate(318.066406 0)"/>
      <use xlink:href="#DejaVuSans-48" transform="translate(395.556641 0)"/>
      <use xlink:href="#DejaVuSans-7a" transform="translate(470.751953 0)"/>
      <use xlink:href="#DejaVuSans-20" transform="translate(523.242188 0)"/>
      <use xlink:href="#DejaVuSans-28" transform="translate(555.029297 0)"/>
      <use xlink:href="#DejaVuSans-54" transform="translate(594.042969 0)"/>
      <use xlink:href="#DejaVuSans-61" transform="translate(638.626953 0)"/>
      <use xlink:href="#DejaVuSans-72" transform="translate(699.90625 0)"/>
      <use xlink:href="#DejaVuSans-67" transform="translate(739.269531 0)"/>
      <use xlink:href="#DejaVuSans-65" transform="translate(802.746094 0)"/>
      <use xlink:href="#DejaVuSans-74" transform="translate(864.269531 0)"/>
      <use xlink:href="#DejaVuSans-3a" transform="translate(903.478516 0)"/>
      <use xlink:href="#DejaVuSans-20" transform="translate(937.169922 0)"/>
      <use xlink:href="#DejaVuSans-34" transform="translate(968.957031 0)"/>
      <use xlink:href="#DejaVuSans-38" transform="translate(1032.580078 0)"/>
      <use xlink:href="#DejaVuSans-2e" transform="translate(1096.203125 0)"/>
      <use xlink:href="#DejaVuSans-30" transform="translate(1127.990234 0)"/>
      <use xlink:href="#DejaVuSans-29" transform="translate(1191.613281 0)"/>
     </g>
    </g>
    <g id="line2d_20">
     <path d="M 856.121525 393.513088 
L 866.121525 393.513088 
L 876.121525 393.513088 
" style="fill: none; stroke: #d62728; stroke-opacity: 0.99; stroke-width: 0.2; stroke-linecap: square"/>
    </g>
    <g id="text_22">
     <!-- 12.85 GHz (Target: 48.0) -->
     <g transform="translate(884.121525 397.013088) scale(0.1 -0.1)">
      <use xlink:href="#DejaVuSans-31"/>
      <use xlink:href="#DejaVuSans-32" transform="translate(63.623047 0)"/>
      <use xlink:href="#DejaVuSans-2e" transform="translate(127.246094 0)"/>
      <use xlink:href="#DejaVuSans-38" transform="translate(159.033203 0)"/>
      <use xlink:href="#DejaVuSans-35" transform="translate(222.65625 0)"/>
      <use xlink:href="#DejaVuSans-20" transform="translate(286.279297 0)"/>
      <use xlink:href="#DejaVuSans-47" transform="translate(318.066406 0)"/>
      <use xlink:href="#DejaVuSans-48" transform="translate(395.556641 0)"/>
      <use xlink:href="#DejaVuSans-7a" transform="translate(470.751953 0)"/>
      <use xlink:href="#DejaVuSans-20" transform="translate(523.242188 0)"/>
      <use xlink:href="#DejaVuSans-28" transform="translate(555.029297 0)"/>
      <use xlink:href="#DejaVuSans-54" transform="translate(594.042969 0)"/>
      <use xlink:href="#DejaVuSans-61" transform="translate(638.626953 0)"/>
      <use xlink:href="#DejaVuSans-72" transform="translate(699.90625 0)"/>
      <use xlink:href="#DejaVuSans-67" transform="translate(739.269531 0)"/>
      <use xlink:href="#DejaVuSans-65" transform="translate(802.746094 0)"/>
      <use xlink:href="#DejaVuSans-74" transform="translate(864.269531 0)"/>
      <use xlink:href="#DejaVuSans-3a" transform="translate(903.478516 0)"/>
      <use xlink:href="#DejaVuSans-20" transform="translate(937.169922 0)"/>
      <use xlink:href="#DejaVuSans-34" transform="translate(968.957031 0)"/>
      <use xlink:href="#DejaVuSans-38" transform="translate(1032.580078 0)"/>
      <use xlink:href="#DejaVuSans-2e" transform="translate(1096.203125 0)"/>
      <use xlink:href="#DejaVuSans-30" transform="translate(1127.990234 0)"/>
      <use xlink:href="#DejaVuSans-29" transform="translate(1191.613281 0)"/>
     </g>
    </g>
    <g id="line2d_21">
     <path d="M 856.121525 408.191213 
L 866.121525 408.191213 
L 876.121525 408.191213 
" style="fill: none; stroke: #9467bd; stroke-opacity: 0.99; stroke-width: 0.2; stroke-linecap: square"/>
    </g>
    <g id="text_23">
     <!-- 12.90 GHz (Target: 48.0) -->
     <g transform="translate(884.121525 411.691213) scale(0.1 -0.1)">
      <defs>
       <path id="DejaVuSans-39" d="M 703 97 
L 703 672 
Q 941 559 1184 500 
Q 1428 441 1663 441 
Q 2288 441 2617 861 
Q 2947 1281 2994 2138 
Q 2813 1869 2534 1725 
Q 2256 1581 1919 1581 
Q 1219 1581 811 2004 
Q 403 2428 403 3163 
Q 403 3881 828 4315 
Q 1253 4750 1959 4750 
Q 2769 4750 3195 4129 
Q 3622 3509 3622 2328 
Q 3622 1225 3098 567 
Q 2575 -91 1691 -91 
Q 1453 -91 1209 -44 
Q 966 3 703 97 
z
M 1959 2075 
Q 2384 2075 2632 2365 
Q 2881 2656 2881 3163 
Q 2881 3666 2632 3958 
Q 2384 4250 1959 4250 
Q 1534 4250 1286 3958 
Q 1038 3666 1038 3163 
Q 1038 2656 1286 2365 
Q 1534 2075 1959 2075 
z
" transform="scale(0.015625)"/>
      </defs>
      <use xlink:href="#DejaVuSans-31"/>
      <use xlink:href="#DejaVuSans-32" transform="translate(63.623047 0)"/>
      <use xlink:href="#DejaVuSans-2e" transform="translate(127.246094 0)"/>
      <use xlink:href="#DejaVuSans-39" transform="translate(159.033203 0)"/>
      <use xlink:href="#DejaVuSans-30" transform="translate(222.65625 0)"/>
      <use xlink:href="#DejaVuSans-20" transform="translate(286.279297 0)"/>
      <use xlink:href="#DejaVuSans-47" transform="translate(318.066406 0)"/>
      <use xlink:href="#DejaVuSans-48" transform="translate(395.556641 0)"/>
      <use xlink:href="#DejaVuSans-7a" transform="translate(470.751953 0)"/>
      <use xlink:href="#DejaVuSans-20" transform="translate(523.242188 0)"/>
      <use xlink:href="#DejaVuSans-28" transform="translate(555.029297 0)"/>
      <use xlink:href="#DejaVuSans-54" transform="translate(594.042969 0)"/>
      <use xlink:href="#DejaVuSans-61" transform="translate(638.626953 0)"/>
      <use xlink:href="#DejaVuSans-72" transform="translate(699.90625 0)"/>
      <use xlink:href="#DejaVuSans-67" transform="translate(739.269531 0)"/>
      <use xlink:href="#DejaVuSans-65" transform="translate(802.746094 0)"/>
      <use xlink:href="#DejaVuSans-74" transform="translate(864.269531 0)"/>
      <use xlink:href="#DejaVuSans-3a" transform="translate(903.478516 0)"/>
      <use xlink:href="#DejaVuSans-20" transform="translate(937.169922 0)"/>
      <use xlink:href="#DejaVuSans-34" transform="translate(968.957031 0)"/>
      <use xlink:href="#DejaVuSans-38" transform="translate(1032.580078 0)"/>
      <use xlink:href="#DejaVuSans-2e" transform="translate(1096.203125 0)"/>
      <use xlink:href="#DejaVuSans-30" transform="translate(1127.990234 0)"/>
      <use xlink:href="#DejaVuSans-29" transform="translate(1191.613281 0)"/>
     </g>
    </g>
    <g id="line2d_22">
     <path d="M 856.121525 422.869338 
L 866.121525 422.869338 
L 876.121525 422.869338 
" style="fill: none; stroke: #8c564b; stroke-opacity: 0.99; stroke-width: 0.2; stroke-linecap: square"/>
    </g>
    <g id="text_24">
     <!-- 12.95 GHz (Target: 48.0) -->
     <g transform="translate(884.121525 426.369338) scale(0.1 -0.1)">
      <use xlink:href="#DejaVuSans-31"/>
      <use xlink:href="#DejaVuSans-32" transform="translate(63.623047 0)"/>
      <use xlink:href="#DejaVuSans-2e" transform="translate(127.246094 0)"/>
      <use xlink:href="#DejaVuSans-39" transform="translate(159.033203 0)"/>
      <use xlink:href="#DejaVuSans-35" transform="translate(222.65625 0)"/>
      <use xlink:href="#DejaVuSans-20" transform="translate(286.279297 0)"/>
      <use xlink:href="#DejaVuSans-47" transform="translate(318.066406 0)"/>
      <use xlink:href="#DejaVuSans-48" transform="translate(395.556641 0)"/>
      <use xlink:href="#DejaVuSans-7a" transform="translate(470.751953 0)"/>
      <use xlink:href="#DejaVuSans-20" transform="translate(523.242188 0)"/>
      <use xlink:href="#DejaVuSans-28" transform="translate(555.029297 0)"/>
      <use xlink:href="#DejaVuSans-54" transform="translate(594.042969 0)"/>
      <use xlink:href="#DejaVuSans-61" transform="translate(638.626953 0)"/>
      <use xlink:href="#DejaVuSans-72" transform="translate(699.90625 0)"/>
      <use xlink:href="#DejaVuSans-67" transform="translate(739.269531 0)"/>
      <use xlink:href="#DejaVuSans-65" transform="translate(802.746094 0)"/>
      <use xlink:href="#DejaVuSans-74" transform="translate(864.269531 0)"/>
      <use xlink:href="#DejaVuSans-3a" transform="translate(903.478516 0)"/>
      <use xlink:href="#DejaVuSans-20" transform="translate(937.169922 0)"/>
      <use xlink:href="#DejaVuSans-34" transform="translate(968.957031 0)"/>
      <use xlink:href="#DejaVuSans-38" transform="translate(1032.580078 0)"/>
      <use xlink:href="#DejaVuSans-2e" transform="translate(1096.203125 0)"/>
      <use xlink:href="#DejaVuSans-30" transform="translate(1127.990234 0)"/>
      <use xlink:href="#DejaVuSans-29" transform="translate(1191.613281 0)"/>
     </g>
    </g>
    <g id="line2d_23">
     <path d="M 856.121525 437.547463 
L 866.121525 437.547463 
L 876.121525 437.547463 
" style="fill: none; stroke: #e377c2; stroke-opacity: 0.99; stroke-width: 0.2; stroke-linecap: square"/>
    </g>
    <g id="text_25">
     <!-- 13.00 GHz (Target: 48.0) -->
     <g transform="translate(884.121525 441.047463) scale(0.1 -0.1)">
      <defs>
       <path id="DejaVuSans-33" d="M 2597 2516 
Q 3050 2419 3304 2112 
Q 3559 1806 3559 1356 
Q 3559 666 3084 287 
Q 2609 -91 1734 -91 
Q 1441 -91 1130 -33 
Q 819 25 488 141 
L 488 750 
Q 750 597 1062 519 
Q 1375 441 1716 441 
Q 2309 441 2620 675 
Q 2931 909 2931 1356 
Q 2931 1769 2642 2001 
Q 2353 2234 1838 2234 
L 1294 2234 
L 1294 2753 
L 1863 2753 
Q 2328 2753 2575 2939 
Q 2822 3125 2822 3475 
Q 2822 3834 2567 4026 
Q 2313 4219 1838 4219 
Q 1578 4219 1281 4162 
Q 984 4106 628 3988 
L 628 4550 
Q 988 4650 1302 4700 
Q 1616 4750 1894 4750 
Q 2613 4750 3031 4423 
Q 3450 4097 3450 3541 
Q 3450 3153 3228 2886 
Q 3006 2619 2597 2516 
z
" transform="scale(0.015625)"/>
      </defs>
      <use xlink:href="#DejaVuSans-31"/>
      <use xlink:href="#DejaVuSans-33" transform="translate(63.623047 0)"/>
      <use xlink:href="#DejaVuSans-2e" transform="translate(127.246094 0)"/>
      <use xlink:href="#DejaVuSans-30" transform="translate(159.033203 0)"/>
      <use xlink:href="#DejaVuSans-30" transform="translate(222.65625 0)"/>
      <use xlink:href="#DejaVuSans-20" transform="translate(286.279297 0)"/>
      <use xlink:href="#DejaVuSans-47" transform="translate(318.066406 0)"/>
      <use xlink:href="#DejaVuSans-48" transform="translate(395.556641 0)"/>
      <use xlink:href="#DejaVuSans-7a" transform="translate(470.751953 0)"/>
      <use xlink:href="#DejaVuSans-20" transform="translate(523.242188 0)"/>
      <use xlink:href="#DejaVuSans-28" transform="translate(555.029297 0)"/>
      <use xlink:href="#DejaVuSans-54" transform="translate(594.042969 0)"/>
      <use xlink:href="#DejaVuSans-61" transform="translate(638.626953 0)"/>
      <use xlink:href="#DejaVuSans-72" transform="translate(699.90625 0)"/>
      <use xlink:href="#DejaVuSans-67" transform="translate(739.269531 0)"/>
      <use xlink:href="#DejaVuSans-65" transform="translate(802.746094 0)"/>
      <use xlink:href="#DejaVuSans-74" transform="translate(864.269531 0)"/>
      <use xlink:href="#DejaVuSans-3a" transform="translate(903.478516 0)"/>
      <use xlink:href="#DejaVuSans-20" transform="translate(937.169922 0)"/>
      <use xlink:href="#DejaVuSans-34" transform="translate(968.957031 0)"/>
      <use xlink:href="#DejaVuSans-38" transform="translate(1032.580078 0)"/>
      <use xlink:href="#DejaVuSans-2e" transform="translate(1096.203125 0)"/>
      <use xlink:href="#DejaVuSans-30" transform="translate(1127.990234 0)"/>
      <use xlink:href="#DejaVuSans-29" transform="translate(1191.613281 0)"/>
     </g>
    </g>
    <g id="line2d_24">
     <path d="M 856.121525 452.225588 
L 866.121525 452.225588 
L 876.121525 452.225588 
" style="fill: none; stroke: #7f7f7f; stroke-opacity: 0.99; stroke-width: 0.2; stroke-linecap: square"/>
    </g>
    <g id="text_26">
     <!-- 13.05 GHz (Target: 48.0) -->
     <g transform="translate(884.121525 455.725588) scale(0.1 -0.1)">
      <use xlink:href="#DejaVuSans-31"/>
      <use xlink:href="#DejaVuSans-33" transform="translate(63.623047 0)"/>
      <use xlink:href="#DejaVuSans-2e" transform="translate(127.246094 0)"/>
      <use xlink:href="#DejaVuSans-30" transform="translate(159.033203 0)"/>
      <use xlink:href="#DejaVuSans-35" transform="translate(222.65625 0)"/>
      <use xlink:href="#DejaVuSans-20" transform="translate(286.279297 0)"/>
      <use xlink:href="#DejaVuSans-47" transform="translate(318.066406 0)"/>
      <use xlink:href="#DejaVuSans-48" transform="translate(395.556641 0)"/>
      <use xlink:href="#DejaVuSans-7a" transform="translate(470.751953 0)"/>
      <use xlink:href="#DejaVuSans-20" transform="translate(523.242188 0)"/>
      <use xlink:href="#DejaVuSans-28" transform="translate(555.029297 0)"/>
      <use xlink:href="#DejaVuSans-54" transform="translate(594.042969 0)"/>
      <use xlink:href="#DejaVuSans-61" transform="translate(638.626953 0)"/>
      <use xlink:href="#DejaVuSans-72" transform="translate(699.90625 0)"/>
      <use xlink:href="#DejaVuSans-67" transform="translate(739.269531 0)"/>
      <use xlink:href="#DejaVuSans-65" transform="translate(802.746094 0)"/>
      <use xlink:href="#DejaVuSans-74" transform="translate(864.269531 0)"/>
      <use xlink:href="#DejaVuSans-3a" transform="translate(903.478516 0)"/>
      <use xlink:href="#DejaVuSans-20" transform="translate(937.169922 0)"/>
      <use xlink:href="#DejaVuSans-34" transform="translate(968.957031 0)"/>
      <use xlink:href="#DejaVuSans-38" transform="translate(1032.580078 0)"/>
      <use xlink:href="#DejaVuSans-2e" transform="translate(1096.203125 0)"/>
      <use xlink:href="#DejaVuSans-30" transform="translate(1127.990234 0)"/>
      <use xlink:href="#DejaVuSans-29" transform="translate(1191.613281 0)"/>
     </g>
    </g>
    <g id="line2d_25">
     <path d="M 856.121525 466.903713 
L 866.121525 466.903713 
L 876.121525 466.903713 
" style="fill: none; stroke: #bcbd22; stroke-opacity: 0.99; stroke-width: 0.2; stroke-linecap: square"/>
    </g>
    <g id="text_27">
     <!-- 13.10 GHz (Target: 47.5) -->
     <g transform="translate(884.121525 470.403713) scale(0.1 -0.1)">
      <use xlink:href="#DejaVuSans-31"/>
      <use xlink:href="#DejaVuSans-33" transform="translate(63.623047 0)"/>
      <use xlink:href="#DejaVuSans-2e" transform="translate(127.246094 0)"/>
      <use xlink:href="#DejaVuSans-31" transform="translate(159.033203 0)"/>
      <use xlink:href="#DejaVuSans-30" transform="translate(222.65625 0)"/>
      <use xlink:href="#DejaVuSans-20" transform="translate(286.279297 0)"/>
      <use xlink:href="#DejaVuSans-47" transform="translate(318.066406 0)"/>
      <use xlink:href="#DejaVuSans-48" transform="translate(395.556641 0)"/>
      <use xlink:href="#DejaVuSans-7a" transform="translate(470.751953 0)"/>
      <use xlink:href="#DejaVuSans-20" transform="translate(523.242188 0)"/>
      <use xlink:href="#DejaVuSans-28" transform="translate(555.029297 0)"/>
      <use xlink:href="#DejaVuSans-54" transform="translate(594.042969 0)"/>
      <use xlink:href="#DejaVuSans-61" transform="translate(638.626953 0)"/>
      <use xlink:href="#DejaVuSans-72" transform="translate(699.90625 0)"/>
      <use xlink:href="#DejaVuSans-67" transform="translate(739.269531 0)"/>
      <use xlink:href="#DejaVuSans-65" transform="translate(802.746094 0)"/>
      <use xlink:href="#DejaVuSans-74" transform="translate(864.269531 0)"/>
      <use xlink:href="#DejaVuSans-3a" transform="translate(903.478516 0)"/>
      <use xlink:href="#DejaVuSans-20" transform="translate(937.169922 0)"/>
      <use xlink:href="#DejaVuSans-34" transform="translate(968.957031 0)"/>
      <use xlink:href="#DejaVuSans-37" transform="translate(1032.580078 0)"/>
      <use xlink:href="#DejaVuSans-2e" transform="translate(1096.203125 0)"/>
      <use xlink:href="#DejaVuSans-35" transform="translate(1127.990234 0)"/>
      <use xlink:href="#DejaVuSans-29" transform="translate(1191.613281 0)"/>
     </g>
    </g>
    <g id="line2d_26">
     <path d="M 856.121525 481.581838 
L 866.121525 481.581838 
L 876.121525 481.581838 
" style="fill: none; stroke: #17becf; stroke-opacity: 0.99; stroke-width: 0.2; stroke-linecap: square"/>
    </g>
    <g id="text_28">
     <!-- 13.15 GHz (Target: 47.5) -->
     <g transform="translate(884.121525 485.081838) scale(0.1 -0.1)">
      <use xlink:href="#DejaVuSans-31"/>
      <use xlink:href="#DejaVuSans-33" transform="translate(63.623047 0)"/>
      <use xlink:href="#DejaVuSans-2e" transform="translate(127.246094 0)"/>
      <use xlink:href="#DejaVuSans-31" transform="translate(159.033203 0)"/>
      <use xlink:href="#DejaVuSans-35" transform="translate(222.65625 0)"/>
      <use xlink:href="#DejaVuSans-20" transform="translate(286.279297 0)"/>
      <use xlink:href="#DejaVuSans-47" transform="translate(318.066406 0)"/>
      <use xlink:href="#DejaVuSans-48" transform="translate(395.556641 0)"/>
      <use xlink:href="#DejaVuSans-7a" transform="translate(470.751953 0)"/>
      <use xlink:href="#DejaVuSans-20" transform="translate(523.242188 0)"/>
      <use xlink:href="#DejaVuSans-28" transform="translate(555.029297 0)"/>
      <use xlink:href="#DejaVuSans-54" transform="translate(594.042969 0)"/>
      <use xlink:href="#DejaVuSans-61" transform="translate(638.626953 0)"/>
      <use xlink:href="#DejaVuSans-72" transform="translate(699.90625 0)"/>
      <use xlink:href="#DejaVuSans-67" transform="translate(739.269531 0)"/>
      <use xlink:href="#DejaVuSans-65" transform="translate(802.746094 0)"/>
      <use xlink:href="#DejaVuSans-74" transform="translate(864.269531 0)"/>
      <use xlink:href="#DejaVuSans-3a" transform="translate(903.478516 0)"/>
      <use xlink:href="#DejaVuSans-20" transform="translate(937.169922 0)"/>
      <use xlink:href="#DejaVuSans-34" transform="translate(968.957031 0)"/>
      <use xlink:href="#DejaVuSans-37" transform="translate(1032.580078 0)"/>
      <use xlink:href="#DejaVuSans-2e" transform="translate(1096.203125 0)"/>
      <use xlink:href="#DejaVuSans-35" transform="translate(1127.990234 0)"/>
      <use xlink:href="#DejaVuSans-29" transform="translate(1191.613281 0)"/>
     </g>
    </g>
    <g id="line2d_27">
     <path d="M 856.121525 496.259963 
L 866.121525 496.259963 
L 876.121525 496.259963 
" style="fill: none; stroke: #1f77b4; stroke-opacity: 0.99; stroke-width: 0.2; stroke-linecap: square"/>
    </g>
    <g id="text_29">
     <!-- 13.20 GHz (Target: 47.5) -->
     <g transform="translate(884.121525 499.759963) scale(0.1 -0.1)">
      <use xlink:href="#DejaVuSans-31"/>
      <use xlink:href="#DejaVuSans-33" transform="translate(63.623047 0)"/>
      <use xlink:href="#DejaVuSans-2e" transform="translate(127.246094 0)"/>
      <use xlink:href="#DejaVuSans-32" transform="translate(159.033203 0)"/>
      <use xlink:href="#DejaVuSans-30" transform="translate(222.65625 0)"/>
      <use xlink:href="#DejaVuSans-20" transform="translate(286.279297 0)"/>
      <use xlink:href="#DejaVuSans-47" transform="translate(318.066406 0)"/>
      <use xlink:href="#DejaVuSans-48" transform="translate(395.556641 0)"/>
      <use xlink:href="#DejaVuSans-7a" transform="translate(470.751953 0)"/>
      <use xlink:href="#DejaVuSans-20" transform="translate(523.242188 0)"/>
      <use xlink:href="#DejaVuSans-28" transform="translate(555.029297 0)"/>
      <use xlink:href="#DejaVuSans-54" transform="translate(594.042969 0)"/>
      <use xlink:href="#DejaVuSans-61" transform="translate(638.626953 0)"/>
      <use xlink:href="#DejaVuSans-72" transform="translate(699.90625 0)"/>
      <use xlink:href="#DejaVuSans-67" transform="translate(739.269531 0)"/>
      <use xlink:href="#DejaVuSans-65" transform="translate(802.746094 0)"/>
      <use xlink:href="#DejaVuSans-74" transform="translate(864.269531 0)"/>
      <use xlink:href="#DejaVuSans-3a" transform="translate(903.478516 0)"/>
      <use xlink:href="#DejaVuSans-20" transform="translate(937.169922 0)"/>
      <use xlink:href="#DejaVuSans-34" transform="translate(968.957031 0)"/>
      <use xlink:href="#DejaVuSans-37" transform="translate(1032.580078 0)"/>
      <use xlink:href="#DejaVuSans-2e" transform="translate(1096.203125 0)"/>
      <use xlink:href="#DejaVuSans-35" transform="translate(1127.990234 0)"/>
      <use xlink:href="#DejaVuSans-29" transform="translate(1191.613281 0)"/>
     </g>
    </g>
    <g id="line2d_28">
     <path d="M 856.121525 510.938088 
L 866.121525 510.938088 
L 876.121525 510.938088 
" style="fill: none; stroke: #ff7f0e; stroke-opacity: 0.99; stroke-width: 0.2; stroke-linecap: square"/>
    </g>
    <g id="text_30">
     <!-- 13.25 GHz (Target: 47.0) -->
     <g transform="translate(884.121525 514.438088) scale(0.1 -0.1)">
      <use xlink:href="#DejaVuSans-31"/>
      <use xlink:href="#DejaVuSans-33" transform="translate(63.623047 0)"/>
      <use xlink:href="#DejaVuSans-2e" transform="translate(127.246094 0)"/>
      <use xlink:href="#DejaVuSans-32" transform="translate(159.033203 0)"/>
      <use xlink:href="#DejaVuSans-35" transform="translate(222.65625 0)"/>
      <use xlink:href="#DejaVuSans-20" transform="translate(286.279297 0)"/>
      <use xlink:href="#DejaVuSans-47" transform="translate(318.066406 0)"/>
      <use xlink:href="#DejaVuSans-48" transform="translate(395.556641 0)"/>
      <use xlink:href="#DejaVuSans-7a" transform="translate(470.751953 0)"/>
      <use xlink:href="#DejaVuSans-20" transform="translate(523.242188 0)"/>
      <use xlink:href="#DejaVuSans-28" transform="translate(555.029297 0)"/>
      <use xlink:href="#DejaVuSans-54" transform="translate(594.042969 0)"/>
      <use xlink:href="#DejaVuSans-61" transform="translate(638.626953 0)"/>
      <use xlink:href="#DejaVuSans-72" transform="translate(699.90625 0)"/>
      <use xlink:href="#DejaVuSans-67" transform="translate(739.269531 0)"/>
      <use xlink:href="#DejaVuSans-65" transform="translate(802.746094 0)"/>
      <use xlink:href="#DejaVuSans-74" transform="translate(864.269531 0)"/>
      <use xlink:href="#DejaVuSans-3a" transform="translate(903.478516 0)"/>
      <use xlink:href="#DejaVuSans-20" transform="translate(937.169922 0)"/>
      <use xlink:href="#DejaVuSans-34" transform="translate(968.957031 0)"/>
      <use xlink:href="#DejaVuSans-37" transform="translate(1032.580078 0)"/>
      <use xlink:href="#DejaVuSans-2e" transform="translate(1096.203125 0)"/>
      <use xlink:href="#DejaVuSans-30" transform="translate(1127.990234 0)"/>
      <use xlink:href="#DejaVuSans-29" transform="translate(1191.613281 0)"/>
     </g>
    </g>
    <g id="line2d_29">
     <path d="M 856.121525 525.616213 
L 866.121525 525.616213 
L 876.121525 525.616213 
" style="fill: none; stroke: #000000; stroke-width: 1.5; stroke-linecap: square"/>
     <defs>
      <path id="m0e85f6edbe" d="M -0.025 0.05 
L 0 0.025 
L 0.025 0.05 
L 0.05 0.025 
L 0.025 0 
L 0.05 -0.025 
L 0.025 -0.05 
L 0 -0.025 
L -0.025 -0.05 
L -0.05 -0.025 
L -0.025 0 
L -0.05 0.025 
z
" style="stroke: #000000; stroke-linejoin: miter"/>
     </defs>
     <g>
      <use xlink:href="#m0e85f6edbe" x="866.121525" y="525.616213" style="stroke: #000000; stroke-linejoin: miter"/>
     </g>
    </g>
    <g id="text_31">
     <!-- Optimum Target -->
     <g transform="translate(884.121525 529.116213) scale(0.1 -0.1)">
      <use xlink:href="#DejaVuSans-4f"/>
      <use xlink:href="#DejaVuSans-70" transform="translate(78.710938 0)"/>
      <use xlink:href="#DejaVuSans-74" transform="translate(142.1875 0)"/>
      <use xlink:href="#DejaVuSans-69" transform="translate(181.396484 0)"/>
      <use xlink:href="#DejaVuSans-6d" transform="translate(209.179688 0)"/>
      <use xlink:href="#DejaVuSans-75" transform="translate(306.591797 0)"/>
      <use xlink:href="#DejaVuSans-6d" transform="translate(369.970703 0)"/>
      <use xlink:href="#DejaVuSans-20" transform="translate(467.382812 0)"/>
      <use xlink:href="#DejaVuSans-54" transform="translate(499.169922 0)"/>
      <use xlink:href="#DejaVuSans-61" transform="translate(543.753906 0)"/>
      <use xlink:href="#DejaVuSans-72" transform="translate(605.033203 0)"/>
      <use xlink:href="#DejaVuSans-67" transform="translate(644.396484 0)"/>
      <use xlink:href="#DejaVuSans-65" transform="translate(707.873047 0)"/>
      <use xlink:href="#DejaVuSans-74" transform="translate(769.396484 0)"/>
     </g>
    </g>
   </g>
   <g id="patch_28">
    <path d="M 591.279102 743.772173 
L 591.687111 747.082475 
L 589.302535 744.532576 
L 590.444498 743.193291 
L 590.647771 742.006704 
L 591.099091 741.782998 
L 591.245559 742.006704 
z
" clip-path="url(#p650b74f245)" style="fill: #ff0000; opacity: 0.6; stroke: #ff0000; stroke-linejoin: miter"/>
   </g>
   <g id="line2d_30">
    <path d="M 591.279102 743.772173 
L 591.687111 747.082475 
L 589.302535 744.532576 
L 590.444498 743.193291 
L 590.647771 742.006704 
L 591.099091 741.782998 
L 591.245559 742.006704 
L 591.279102 743.772173 
" clip-path="url(#p650b74f245)" style="fill: none; stroke-dasharray: 0.74,0.32; stroke-dashoffset: 0; stroke: #000000; stroke-width: 0.2"/>
   </g>
   <g id="line2d_31">
    <path d="M 590.724341 744.417488 
" clip-path="url(#p650b74f245)" style="fill: none; stroke: #000000; stroke-width: 1.5; stroke-linecap: square"/>
    <g clip-path="url(#p650b74f245)">
     <use xlink:href="#m0e85f6edbe" x="590.724341" y="744.417488" style="stroke: #000000; stroke-linejoin: miter"/>
    </g>
   </g>
  </g>
 </g>
 <defs>
  <clipPath id="p650b74f245">
   <rect x="23.103125" y="34.3575" width="807.861176" height="807.861176"/>
  </clipPath>
  <clipPath id="pbc6680c06c">
   <path d="M 427.033713 834.298469 
C 532.056894 834.298469 632.792736 792.572317 707.055339 718.309714 
C 781.317942 644.047111 823.044094 543.311269 823.044094 438.288088 
C 823.044094 333.264908 781.317942 232.529066 707.055339 158.266463 
C 632.792736 84.00386 532.056894 42.277708 427.033713 42.277708 
C 322.010533 42.277708 221.274691 84.00386 147.012088 158.266463 
C 72.749485 232.529066 31.023333 333.264908 31.023333 438.288088 
C 31.023333 543.311269 72.749485 644.047111 147.012088 718.309714 
C 221.274691 792.572317 322.010533 834.298469 427.033713 834.298469 
z
"/>
  </clipPath>
 </defs>
</svg>
