<?xml version="1.0" encoding="utf-8" standalone="no"?>
<!DOCTYPE svg PUBLIC "-//W3C//DTD SVG 1.1//EN"
  "http://www.w3.org/Graphics/SVG/1.1/DTD/svg11.dtd">
<svg xmlns:xlink="http://www.w3.org/1999/xlink" width="1018.382462pt" height="855.136698pt" viewBox="0 0 1018.382462 855.136698" xmlns="http://www.w3.org/2000/svg" version="1.1">
 <metadata>
  <rdf:RDF xmlns:dc="http://purl.org/dc/elements/1.1/" xmlns:cc="http://creativecommons.org/ns#" xmlns:rdf="http://www.w3.org/1999/02/22-rdf-syntax-ns#">
   <cc:Work>
    <dc:type rdf:resource="http://purl.org/dc/dcmitype/StillImage"/>
    <dc:date>2026-02-25T13:48:10.887851</dc:date>
    <dc:format>image/svg+xml</dc:format>
    <dc:creator>
     <cc:Agent>
      <dc:title>Matplotlib v3.10.8, https://matplotlib.org/</dc:title>
     </cc:Agent>
    </dc:creator>
   </cc:Work>
  </rdf:RDF>
 </metadata>
 <defs>
  <style type="text/css">*{stroke-linejoin: round; stroke-linecap: butt}</style>
 </defs>
 <g id="figure_1">
  <g id="patch_1">
   <path d="M 0 855.136698 
L 1018.382462 855.136698 
L 1018.382462 0 
L 0 0 
z
" style="fill: #ffffff"/>
  </g>
  <g id="axes_1">
   <g id="patch_2">
    <path d="M 23.103125 842.218676 
L 830.964301 842.218676 
L 830.964301 34.3575 
L 23.103125 34.3575 
z
" style="fill: #ffffff"/>
   </g>
   <g id="patch_3">
    <path d="M 427.033713 834.298469 
C 532.056894 834.298469 632.792736 792.572317 707.055339 718.309714 
C 781.317942 644.047111 823.044094 543.311269 823.044094 438.288088 
C 823.044094 333.264908 781.317942 232.529066 707.055339 158.266463 
C 632.792736 84.00386 532.056894 42.277708 427.033713 42.277708 
C 322.010533 42.277708 221.274691 84.00386 147.012088 158.266463 
C 72.749485 232.529066 31.023333 333.264908 31.023333 438.288088 
C 31.023333 543.311269 72.749485 644.047111 147.012088 718.309714 
C 221.274691 792.572317 322.010533 834.298469 427.033713 834.298469 
L 427.033713 834.298469 
z
" clip-path="url(#p15b10c5e17)" style="fill: none; stroke: #000000; stroke-linejoin: miter"/>
   </g>
   <g id="patch_4">
    <path d="M 493.035443 768.296739 
C 580.55476 768.296739 664.501295 733.524946 726.386798 671.639443 
C 788.272301 609.75394 823.044094 525.807405 823.044094 438.288088 
C 823.044094 350.768771 788.272301 266.822236 726.386798 204.936734 
C 664.501295 143.051231 580.55476 108.279438 493.035443 108.279438 
C 405.516126 108.279438 321.569591 143.051231 259.684089 204.936734 
C 197.798586 266.822236 163.026793 350.768771 163.026793 438.288088 
C 163.026793 525.807405 197.798586 609.75394 259.684089 671.639443 
C 321.569591 733.524946 405.516126 768.296739 493.035443 768.296739 
L 493.035443 768.296739 
z
" clip-path="url(#pbf0497836b)" style="fill: none; stroke: #808080; stroke-linejoin: miter"/>
   </g>
   <g id="patch_5">
    <path d="M 559.037173 702.295009 
C 629.052627 702.295009 696.209855 674.477574 745.718257 624.969172 
C 795.226659 575.46077 823.044094 508.303542 823.044094 438.288088 
C 823.044094 368.272635 795.226659 301.115407 745.718257 251.607005 
C 696.209855 202.098602 629.052627 174.281168 559.037173 174.281168 
C 489.02172 174.281168 421.864492 202.098602 372.35609 251.607005 
C 322.847688 301.115407 295.030253 368.272635 295.030253 438.288088 
C 295.030253 508.303542 322.847688 575.46077 372.35609 624.969172 
C 421.864492 674.477574 489.02172 702.295009 559.037173 702.295009 
L 559.037173 702.295009 
z
" clip-path="url(#pbf0497836b)" style="fill: none; stroke: #808080; stroke-linejoin: miter"/>
   </g>
   <g id="patch_6">
    <path d="M 625.038904 636.293279 
C 677.550494 636.293279 727.918415 615.430203 765.049716 578.298901 
C 802.181018 541.167599 823.044094 490.799679 823.044094 438.288088 
C 823.044094 385.776498 802.181018 335.408577 765.049716 298.277275 
C 727.918415 261.145974 677.550494 240.282898 625.038904 240.282898 
C 572.527313 240.282898 522.159392 261.145974 485.028091 298.277275 
C 447.896789 335.408577 427.033713 385.776498 427.033713 438.288088 
C 427.033713 490.799679 447.896789 541.167599 485.028091 578.298901 
C 522.159392 615.430203 572.527313 636.293279 625.038904 636.293279 
L 625.038904 636.293279 
z
" clip-path="url(#pbf0497836b)" style="fill: none; stroke: #808080; stroke-linejoin: miter"/>
   </g>
   <g id="patch_7">
    <path d="M 691.040634 570.291548 
C 726.048361 570.291548 759.626974 556.382831 784.381176 531.62863 
C 809.135377 506.874429 823.044094 473.295815 823.044094 438.288088 
C 823.044094 403.280361 809.135377 369.701747 784.381176 344.947546 
C 759.626974 320.193345 726.048361 306.284628 691.040634 306.284628 
C 656.032907 306.284628 622.454293 320.193345 597.700092 344.947546 
C 572.945891 369.701747 559.037173 403.280361 559.037173 438.288088 
C 559.037173 473.295815 572.945891 506.874429 597.700092 531.62863 
C 622.454293 556.382831 656.032907 570.291548 691.040634 570.291548 
L 691.040634 570.291548 
z
" clip-path="url(#pbf0497836b)" style="fill: none; stroke: #808080; stroke-linejoin: miter"/>
   </g>
   <g id="patch_8">
    <path d="M 757.042364 504.289818 
C 774.546227 504.289818 791.335534 497.33546 803.712635 484.958359 
C 816.089735 472.581259 823.044094 455.791952 823.044094 438.288088 
C 823.044094 420.784225 816.089735 403.994918 803.712635 391.617817 
C 791.335534 379.240717 774.546227 372.286358 757.042364 372.286358 
C 739.5385 372.286358 722.749193 379.240717 710.372093 391.617817 
C 697.994992 403.994918 691.040634 420.784225 691.040634 438.288088 
C 691.040634 455.791952 697.994992 472.581259 710.372093 484.958359 
C 722.749193 497.33546 739.5385 504.289818 757.042364 504.289818 
L 757.042364 504.289818 
z
" clip-path="url(#pbf0497836b)" style="fill: none; stroke: #808080; stroke-linejoin: miter"/>
   </g>
   <g id="patch_9">
    <path d="M 823.044094 438.288088 
C 1348.159997 438.288088 1851.839206 229.657329 2223.152222 -141.655687 
C 2594.465237 -512.968703 2803.095997 -1016.647912 2803.095997 -1541.763815 
C 2803.095997 -2066.879718 2594.465237 -2570.558927 2223.152222 -2941.871943 
C 1851.839206 -3313.184958 1348.159997 -3521.815718 823.044094 -3521.815718 
C 297.928191 -3521.815718 -205.751018 -3313.184958 -577.064034 -2941.871943 
C -948.37705 -2570.558927 -1157.007809 -2066.879718 -1157.007809 -1541.763815 
C -1157.007809 -1016.647912 -948.37705 -512.968703 -577.064034 -141.655687 
C -205.751018 229.657329 297.928191 438.288088 823.044094 438.288088 
L 823.044094 438.288088 
z
" clip-path="url(#pbf0497836b)" style="fill: none; stroke: #808080; stroke-linejoin: miter"/>
   </g>
   <g id="patch_10">
    <path d="M 823.044094 438.288088 
C 1033.090455 438.288088 1234.562139 354.835784 1383.087345 206.310578 
C 1531.612551 57.785372 1615.064855 -143.686312 1615.064855 -353.732673 
C 1615.064855 -563.779034 1531.612551 -765.250718 1383.087345 -913.775924 
C 1234.562139 -1062.30113 1033.090455 -1145.753434 823.044094 -1145.753434 
C 612.997733 -1145.753434 411.526049 -1062.30113 263.000843 -913.775924 
C 114.475636 -765.250718 31.023333 -563.779034 31.023333 -353.732673 
C 31.023333 -143.686312 114.475636 57.785372 263.000843 206.310578 
C 411.526049 354.835784 612.997733 438.288088 823.044094 438.288088 
L 823.044094 438.288088 
z
" clip-path="url(#pbf0497836b)" style="fill: none; stroke: #808080; stroke-linejoin: miter"/>
   </g>
   <g id="patch_11">
    <path d="M 823.044094 438.288088 
C 928.067274 438.288088 1028.803116 396.561936 1103.065719 322.299333 
C 1177.328323 248.03673 1219.054474 147.300888 1219.054474 42.277708 
C 1219.054474 -62.745473 1177.328323 -163.481315 1103.065719 -237.743918 
C 1028.803116 -312.006521 928.067274 -353.732673 823.044094 -353.732673 
C 718.020913 -353.732673 617.285071 -312.006521 543.022468 -237.743918 
C 468.759865 -163.481315 427.033713 -62.745473 427.033713 42.277708 
C 427.033713 147.300888 468.759865 248.03673 543.022468 322.299333 
C 617.285071 396.561936 718.020913 438.288088 823.044094 438.288088 
L 823.044094 438.288088 
z
" clip-path="url(#pbf0497836b)" style="fill: none; stroke: #808080; stroke-linejoin: miter"/>
   </g>
   <g id="patch_12">
    <path d="M 823.044094 438.288088 
C 875.555684 438.288088 925.923605 417.425012 963.054907 380.293711 
C 1000.186208 343.162409 1021.049284 292.794488 1021.049284 240.282898 
C 1021.049284 187.771308 1000.186208 137.403387 963.054907 100.272085 
C 925.923605 63.140784 875.555684 42.277708 823.044094 42.277708 
C 770.532504 42.277708 720.164583 63.140784 683.033281 100.272085 
C 645.901979 137.403387 625.038904 187.771308 625.038904 240.282898 
C 625.038904 292.794488 645.901979 343.162409 683.033281 380.293711 
C 720.164583 417.425012 770.532504 438.288088 823.044094 438.288088 
L 823.044094 438.288088 
z
" clip-path="url(#pbf0497836b)" style="fill: none; stroke: #808080; stroke-linejoin: miter"/>
   </g>
   <g id="patch_13">
    <path d="M 823.044094 438.288088 
C 844.04873 438.288088 864.195898 429.942858 879.048419 415.090337 
C 893.90094 400.237817 902.24617 380.090648 902.24617 359.086012 
C 902.24617 338.081376 893.90094 317.934208 879.048419 303.081687 
C 864.195898 288.229166 844.04873 279.883936 823.044094 279.883936 
C 802.039458 279.883936 781.892289 288.229166 767.039769 303.081687 
C 752.187248 317.934208 743.842018 338.081376 743.842018 359.086012 
C 743.842018 380.090648 752.187248 400.237817 767.039769 415.090337 
C 781.892289 429.942858 802.039458 438.288088 823.044094 438.288088 
L 823.044094 438.288088 
z
" clip-path="url(#pbf0497836b)" style="fill: none; stroke: #808080; stroke-linejoin: miter"/>
   </g>
   <g id="patch_14">
    <path d="M 823.044094 438.288088 
C 297.928191 438.288088 -205.751018 646.918848 -577.064034 1018.231864 
C -948.37705 1389.544879 -1157.007809 1893.224088 -1157.007809 2418.339991 
C -1157.007809 2943.455894 -948.37705 3447.135103 -577.064034 3818.448119 
C -205.751018 4189.761135 297.928191 4398.391894 823.044094 4398.391894 
C 1348.159997 4398.391894 1851.839206 4189.761135 2223.152222 3818.448119 
C 2594.465237 3447.135103 2803.095997 2943.455894 2803.095997 2418.339991 
C 2803.095997 1893.224088 2594.465237 1389.544879 2223.152222 1018.231864 
C 1851.839206 646.918848 1348.159997 438.288088 823.044094 438.288088 
L 823.044094 438.288088 
z
" clip-path="url(#pbf0497836b)" style="fill: none; stroke: #808080; stroke-linejoin: miter"/>
   </g>
   <g id="patch_15">
    <path d="M 823.044094 438.288088 
C 612.997733 438.288088 411.526049 521.740392 263.000843 670.265598 
C 114.475636 818.790805 31.023333 1020.262488 31.023333 1230.308849 
C 31.023333 1440.355211 114.475636 1641.826894 263.000843 1790.352101 
C 411.526049 1938.877307 612.997733 2022.329611 823.044094 2022.329611 
C 1033.090455 2022.329611 1234.562139 1938.877307 1383.087345 1790.352101 
C 1531.612551 1641.826894 1615.064855 1440.355211 1615.064855 1230.308849 
C 1615.064855 1020.262488 1531.612551 818.790805 1383.087345 670.265598 
C 1234.562139 521.740392 1033.090455 438.288088 823.044094 438.288088 
L 823.044094 438.288088 
z
" clip-path="url(#pbf0497836b)" style="fill: none; stroke: #808080; stroke-linejoin: miter"/>
   </g>
   <g id="patch_16">
    <path d="M 823.044094 438.288088 
C 718.020913 438.288088 617.285071 480.01424 543.022468 554.276843 
C 468.759865 628.539446 427.033713 729.275288 427.033713 834.298469 
C 427.033713 939.321649 468.759865 1040.057491 543.022468 1114.320094 
C 617.285071 1188.582698 718.020913 1230.308849 823.044094 1230.308849 
C 928.067274 1230.308849 1028.803116 1188.582698 1103.065719 1114.320094 
C 1177.328323 1040.057491 1219.054474 939.321649 1219.054474 834.298469 
C 1219.054474 729.275288 1177.328323 628.539446 1103.065719 554.276843 
C 1028.803116 480.01424 928.067274 438.288088 823.044094 438.288088 
L 823.044094 438.288088 
z
" clip-path="url(#pbf0497836b)" style="fill: none; stroke: #808080; stroke-linejoin: miter"/>
   </g>
   <g id="patch_17">
    <path d="M 823.044094 438.288088 
C 770.532504 438.288088 720.164583 459.151164 683.033281 496.282466 
C 645.901979 533.413767 625.038904 583.781688 625.038904 636.293279 
C 625.038904 688.804869 645.901979 739.17279 683.033281 776.304091 
C 720.164583 813.435393 770.532504 834.298469 823.044094 834.298469 
C 875.555684 834.298469 925.923605 813.435393 963.054907 776.304091 
C 1000.186208 739.17279 1021.049284 688.804869 1021.049284 636.293279 
C 1021.049284 583.781688 1000.186208 533.413767 963.054907 496.282466 
C 925.923605 459.151164 875.555684 438.288088 823.044094 438.288088 
L 823.044094 438.288088 
z
" clip-path="url(#pbf0497836b)" style="fill: none; stroke: #808080; stroke-linejoin: miter"/>
   </g>
   <g id="patch_18">
    <path d="M 823.044094 438.288088 
C 802.039458 438.288088 781.892289 446.633319 767.039769 461.485839 
C 752.187248 476.33836 743.842018 496.485528 743.842018 517.490164 
C 743.842018 538.4948 752.187248 558.641969 767.039769 573.494489 
C 781.892289 588.34701 802.039458 596.69224 823.044094 596.69224 
C 844.04873 596.69224 864.195898 588.34701 879.048419 573.494489 
C 893.90094 558.641969 902.24617 538.4948 902.24617 517.490164 
C 902.24617 496.485528 893.90094 476.33836 879.048419 461.485839 
C 864.195898 446.633319 844.04873 438.288088 823.044094 438.288088 
L 823.044094 438.288088 
z
" clip-path="url(#pbf0497836b)" style="fill: none; stroke: #808080; stroke-linejoin: miter"/>
   </g>
   <g id="patch_19">
    <path d="M 427.033713 834.298469 
C 532.056894 834.298469 632.792736 792.572317 707.055339 718.309714 
C 781.317942 644.047111 823.044094 543.311269 823.044094 438.288088 
C 823.044094 333.264908 781.317942 232.529066 707.055339 158.266463 
C 632.792736 84.00386 532.056894 42.277708 427.033713 42.277708 
C 322.010533 42.277708 221.274691 84.00386 147.012088 158.266463 
C 72.749485 232.529066 31.023333 333.264908 31.023333 438.288088 
C 31.023333 543.311269 72.749485 644.047111 147.012088 718.309714 
C 221.274691 792.572317 322.010533 834.298469 427.033713 834.298469 
L 427.033713 834.298469 
z
" clip-path="url(#pbf0497836b)" style="fill: none; stroke: #000000; stroke-linejoin: miter"/>
   </g>
   <g id="patch_20">
    <path d="M 625.038904 636.293279 
C 677.550494 636.293279 727.918415 615.430203 765.049716 578.298901 
C 802.181018 541.167599 823.044094 490.799679 823.044094 438.288088 
C 823.044094 385.776498 802.181018 335.408577 765.049716 298.277275 
C 727.918415 261.145974 677.550494 240.282898 625.038904 240.282898 
C 572.527313 240.282898 522.159392 261.145974 485.028091 298.277275 
C 447.896789 335.408577 427.033713 385.776498 427.033713 438.288088 
C 427.033713 490.799679 447.896789 541.167599 485.028091 578.298901 
C 522.159392 615.430203 572.527313 636.293279 625.038904 636.293279 
L 625.038904 636.293279 
z
" clip-path="url(#pbf0497836b)" style="fill: none; stroke: #000000; stroke-linejoin: miter"/>
   </g>
   <g id="patch_21">
    <path d="M 823.044094 438.288088 
C 928.067274 438.288088 1028.803116 396.561936 1103.065719 322.299333 
C 1177.328323 248.03673 1219.054474 147.300888 1219.054474 42.277708 
C 1219.054474 -62.745473 1177.328323 -163.481315 1103.065719 -237.743918 
C 1028.803116 -312.006521 928.067274 -353.732673 823.044094 -353.732673 
C 718.020913 -353.732673 617.285071 -312.006521 543.022468 -237.743918 
C 468.759865 -163.481315 427.033713 -62.745473 427.033713 42.277708 
C 427.033713 147.300888 468.759865 248.03673 543.022468 322.299333 
C 617.285071 396.561936 718.020913 438.288088 823.044094 438.288088 
L 823.044094 438.288088 
z
" clip-path="url(#pbf0497836b)" style="fill: none; stroke: #000000; stroke-linejoin: miter"/>
   </g>
   <g id="patch_22">
    <path d="M 823.044094 438.288088 
C 718.020913 438.288088 617.285071 480.01424 543.022468 554.276843 
C 468.759865 628.539446 427.033713 729.275288 427.033713 834.298469 
C 427.033713 939.321649 468.759865 1040.057491 543.022468 1114.320094 
C 617.285071 1188.582698 718.020913 1230.308849 823.044094 1230.308849 
C 928.067274 1230.308849 1028.803116 1188.582698 1103.065719 1114.320094 
C 1177.328323 1040.057491 1219.054474 939.321649 1219.054474 834.298469 
C 1219.054474 729.275288 1177.328323 628.539446 1103.065719 554.276843 
C 1028.803116 480.01424 928.067274 438.288088 823.044094 438.288088 
L 823.044094 438.288088 
z
" clip-path="url(#pbf0497836b)" style="fill: none; stroke: #000000; stroke-linejoin: miter"/>
   </g>
   <g id="matplotlib.axis_1"/>
   <g id="matplotlib.axis_2"/>
   <g id="line2d_1">
    <path d="M 23.103125 438.288088 
L 830.964301 438.288088 
" clip-path="url(#pbf0497836b)" style="fill: none; stroke: #000000; stroke-width: 0.1; stroke-linecap: square"/>
   </g>
   <g id="line2d_2">
    <path d="M 823.044094 842.218676 
L 823.044094 34.3575 
" clip-path="url(#pbf0497836b)" style="fill: none; stroke: #000000; stroke-width: 1.5; stroke-linecap: square"/>
   </g>
   <g id="line2d_3"/>
   <g id="line2d_4"/>
   <g id="line2d_5">
    <path d="M 536.550491 684.536268 
L 543.942577 682.522814 
L 546.386992 681.971116 
L 549.377731 682.07281 
L 553.509819 682.083185 
L 556.487961 682.177278 
L 558.616889 682.782679 
L 564.983012 684.536268 
L 566.166157 684.884505 
L 566.58893 684.988906 
L 567.973345 685.676603 
L 572.528713 687.963818 
L 576.6899 689.964298 
L 578.640188 691.249946 
L 581.052457 692.85639 
L 584.327167 694.88573 
L 586.790869 696.390678 
L 589.638063 698.831291 
L 592.150011 701.176512 
L 594.301556 703.310115 
L 596.891838 706.049275 
L 598.401495 708.253137 
L 599.136452 709.496634 
L 600.574921 712.530374 
L 601.368382 714.129448 
L 603.015586 717.816757 
L 603.843462 720.410858 
L 605.134487 724.606189 
L 605.615772 726.136879 
L 605.901994 727.035376 
L 606.992807 731.046995 
L 607.602703 733.954632 
L 607.686872 734.457001 
L 607.918392 735.219402 
L 609.944404 740.345907 
L 610.547801 742.777124 
L 610.433571 745.611265 
L 610.613127 748.115205 
L 610.512642 751.097246 
L 608.950678 752.709935 
L 606.992807 755.196278 
L 604.492323 757.357731 
L 603.225351 759.417368 
L 599.227083 761.340899 
L 596.891838 764.513225 
L 595.213624 766.355153 
L 594.821857 767.737491 
L 591.20157 771.370565 
L 590.872727 772.695405 
L 589.216947 776.057613 
L 588.032232 777.080118 
L 586.790869 778.5457 
L 582.214598 780.608282 
L 577.520212 784.377735 
L 577.020446 784.650005 
L 576.6899 784.909016 
L 575.677087 785.211984 
L 569.175637 786.508394 
L 566.58893 787.645473 
L 562.092117 788.08174 
L 560.958285 788.05992 
L 556.487961 788.658821 
L 551.453088 788.550656 
L 551.41962 788.552504 
L 546.386992 788.421517 
L 542.084778 787.921449 
L 540.245389 787.639047 
L 536.286023 787.140799 
L 533.681949 786.522699 
L 526.77098 784.860359 
L 526.185054 784.720449 
L 525.903726 784.609463 
L 525.324384 784.377735 
L 520.838202 780.46179 
L 516.084085 776.897822 
L 515.581003 776.471999 
L 515.01722 776.057613 
L 514.083638 774.409854 
L 512.297949 770.856113 
L 510.142741 767.737491 
L 509.167881 765.114214 
L 506.907985 760.179179 
L 506.592288 759.417368 
L 506.464415 759.020924 
L 505.983115 757.516956 
L 504.503862 752.315701 
L 504.152782 751.097246 
L 503.891613 749.374485 
L 503.284809 744.999707 
L 502.939588 742.777124 
L 502.743581 740.108734 
L 502.643191 737.208082 
L 502.42686 734.457001 
L 502.495253 731.584065 
L 502.766007 728.786797 
L 502.836996 726.136879 
L 503.240686 723.877953 
L 504.525067 719.017744 
L 504.767789 717.816757 
L 505.102932 717.091754 
L 505.983115 715.547705 
L 508.910211 711.90767 
L 511.039486 709.496634 
L 513.347182 707.242261 
L 516.084085 704.229563 
L 517.789685 702.581408 
L 518.977465 701.176512 
L 522.050786 697.771135 
L 524.974844 693.853235 
L 525.750856 692.85639 
L 525.93083 692.646987 
L 526.185054 692.360926 
L 531.00689 688.507992 
L 535.222209 685.412526 
L 536.286023 684.627682 
L 536.36093 684.597968 
L 536.550491 684.536268 
" clip-path="url(#p15b10c5e17)" style="fill: none; stroke: #1f77b4; stroke-opacity: 0.99; stroke-width: 0.2; stroke-linecap: square"/>
   </g>
   <g id="line2d_6">
    <path d="M 546.081809 692.85639 
L 546.295467 692.781001 
L 546.386992 692.755677 
L 546.512358 692.753126 
L 555.627366 692.147521 
L 556.487961 692.131909 
L 557.208092 692.263221 
L 561.309178 692.85639 
L 565.796732 693.50892 
L 566.58893 693.580964 
L 568.064151 694.071522 
L 573.08937 695.82213 
L 576.6899 696.944642 
L 579.858852 698.566261 
L 584.76281 701.176512 
L 585.943151 701.874773 
L 586.790869 702.399064 
L 590.87345 706.133831 
L 594.247991 709.496634 
L 595.236549 710.860089 
L 596.891838 713.199056 
L 598.536506 716.462051 
L 599.162903 717.816757 
L 599.983217 720.363112 
L 600.809912 722.909579 
L 601.843801 726.136879 
L 603.018611 729.410406 
L 603.759242 731.793528 
L 604.658387 734.457001 
L 605.50705 735.680813 
L 606.992807 737.442101 
L 609.004813 741.119844 
L 609.609863 742.777124 
L 609.745624 745.044606 
L 610.323001 748.35418 
L 610.457572 751.097246 
L 608.853696 752.630052 
L 606.992807 754.822985 
L 604.068143 757.008336 
L 602.433224 759.417368 
L 598.719883 760.923121 
L 596.891838 763.166823 
L 594.38979 765.676565 
L 593.761289 767.737491 
L 590.46859 770.766813 
L 589.661595 773.693009 
L 588.431212 776.057613 
L 587.612415 776.734317 
L 586.790869 777.668662 
L 582.609924 779.501438 
L 581.372487 779.914639 
L 576.6899 783.4939 
L 575.737808 783.593502 
L 573.668301 784.377735 
L 567.955969 785.503758 
L 566.58893 786.067169 
L 564.294138 786.267945 
L 558.713221 786.210671 
L 556.487961 786.464984 
L 554.113736 786.333374 
L 547.783171 785.527761 
L 546.386992 785.436596 
L 545.298567 785.274266 
L 540.533048 784.377735 
L 537.788605 783.140065 
L 536.286023 782.428649 
L 531.824751 779.732342 
L 526.986746 776.717963 
L 526.185054 776.220591 
L 526.088281 776.137324 
L 525.984113 776.057613 
L 525.877936 775.804641 
L 523.656375 769.820352 
L 522.668495 767.737491 
L 521.642859 763.996106 
L 521.510477 763.267796 
L 520.224884 759.417368 
L 519.160792 756.883098 
L 516.084085 751.478294 
L 515.948193 751.209179 
L 515.888798 751.097246 
L 515.808165 750.869972 
L 513.729046 744.716958 
L 513.013234 742.777124 
L 512.958795 740.202837 
L 513.027497 736.974698 
L 512.970328 734.457001 
L 513.569337 732.385615 
L 516.031826 726.179924 
L 516.046194 726.136879 
L 516.0572 726.114735 
L 516.084085 726.072693 
L 519.918062 720.974786 
L 522.730744 717.816757 
L 524.016714 716.030705 
L 526.185054 712.946896 
L 527.678091 710.726443 
L 528.548849 709.496634 
L 530.740592 705.744258 
L 531.04911 705.183013 
L 533.659571 701.176512 
L 534.6534 699.831728 
L 536.286023 697.94365 
L 539.675323 695.648141 
L 546.081809 692.85639 
" clip-path="url(#p15b10c5e17)" style="fill: none; stroke: #ff7f0e; stroke-opacity: 0.99; stroke-width: 0.2; stroke-linecap: square"/>
   </g>
   <g id="line2d_7">
    <path d="M 543.391329 709.496634 
L 544.731826 708.133282 
L 546.386992 706.933439 
L 551.403656 705.364432 
L 551.451005 705.347717 
L 556.487961 704.002419 
L 560.104017 704.155041 
L 562.837638 704.266435 
L 566.58893 704.425356 
L 571.220885 705.681315 
L 572.503632 706.048425 
L 576.6899 707.215154 
L 578.406956 708.082303 
L 581.070588 709.496634 
L 584.028324 711.77213 
L 586.790869 713.896965 
L 588.750855 716.202325 
L 590.106948 717.816757 
L 592.15394 721.719342 
L 592.65595 722.647798 
L 594.520415 726.136879 
L 595.296969 727.450566 
L 596.891838 729.522203 
L 598.47145 733.155882 
L 598.956988 734.457001 
L 602.236863 738.37445 
L 606.992807 742.695563 
L 607.028836 742.747447 
L 607.043268 742.777124 
L 607.049582 742.823889 
L 608.691856 749.697747 
L 608.847618 751.097246 
L 607.908268 751.851307 
L 606.992807 752.751846 
L 602.292633 755.545856 
L 599.1932 759.417368 
L 597.559748 759.967523 
L 596.891838 760.763361 
L 593.177267 764.677815 
L 592.338281 767.737491 
L 589.673063 770.111541 
L 588.325997 774.793135 
L 587.653823 776.057613 
L 587.212286 776.404732 
L 586.790869 776.855864 
L 584.911817 777.605379 
L 580.230275 778.973804 
L 576.6899 781.331856 
L 573.271939 781.562377 
L 568.15507 783.087713 
L 566.58893 783.267114 
L 564.903862 782.989752 
L 558.625301 782.617218 
L 556.487961 782.131678 
L 552.140447 780.796708 
L 551.089307 780.504459 
L 546.386992 778.888578 
L 544.072546 777.964012 
L 539.66537 776.057613 
L 538.693702 774.074418 
L 536.286023 770.64623 
L 535.226374 768.610319 
L 534.701186 767.737491 
L 534.483717 766.252939 
L 534.40076 760.97025 
L 534.109763 759.417368 
L 533.713694 757.298553 
L 533.579191 753.326851 
L 533.01644 751.097246 
L 532.174041 747.710226 
L 531.94807 746.350276 
L 530.893167 742.777124 
L 530.843622 738.939882 
L 530.8456 738.295872 
L 530.797309 734.457001 
L 532.047457 730.965714 
L 532.478062 729.273479 
L 533.462308 726.136879 
L 534.337547 724.531928 
L 536.286023 720.103547 
L 537.156766 718.533984 
L 537.452584 717.816757 
L 538.991711 715.588094 
L 540.651115 713.092141 
L 543.391329 709.496634 
" clip-path="url(#p15b10c5e17)" style="fill: none; stroke: #2ca02c; stroke-opacity: 0.99; stroke-width: 0.2; stroke-linecap: square"/>
   </g>
   <g id="line2d_8">
    <path d="M 547.264483 709.496634 
L 553.944439 707.401546 
L 556.487961 706.744634 
L 559.797468 706.770609 
L 563.469068 706.926818 
L 566.58893 706.953437 
L 569.147403 707.389232 
L 575.942762 708.88122 
L 576.6899 709.021745 
L 577.095052 709.162912 
L 578.007946 709.496634 
L 583.47205 712.23033 
L 586.790869 713.937988 
L 589.076066 715.93445 
L 591.194491 717.816757 
L 593.430893 720.667522 
L 596.891838 725.507478 
L 597.094002 725.970358 
L 597.164535 726.136879 
L 597.355667 726.518933 
L 600.19783 731.73387 
L 601.39947 734.457001 
L 604.027284 736.899689 
L 606.992807 738.79355 
L 609.144166 741.005059 
L 610.415771 742.777124 
L 611.500879 746.490402 
L 611.755237 747.174454 
L 612.719298 751.097246 
L 609.465189 753.133736 
L 606.992807 755.032044 
L 603.522178 756.558627 
L 600.786444 759.417368 
L 597.854837 760.210586 
L 596.891838 761.374618 
L 593.714153 765.120046 
L 593.145969 767.737491 
L 590.077723 770.444857 
L 588.984701 774.250563 
L 588.021962 776.057613 
L 587.377355 776.540699 
L 586.790869 777.131173 
L 584.526554 777.922719 
L 580.212793 778.959404 
L 576.6899 780.928426 
L 572.531238 780.952265 
L 570.210028 781.395053 
L 566.58893 781.42773 
L 561.770246 780.408607 
L 561.371459 780.35522 
L 556.487961 779.022458 
L 553.810635 778.262914 
L 547.415786 776.057613 
L 547.073448 775.492182 
L 546.386992 774.809365 
L 542.753618 770.730284 
L 539.571574 767.737491 
L 539.413708 765.161231 
L 538.267484 761.049489 
L 538.126347 759.417368 
L 538.39113 757.683401 
L 538.561211 752.971308 
L 538.918034 751.097246 
L 538.942764 748.908901 
L 538.997979 745.01095 
L 539.023103 742.777124 
L 538.846216 740.668304 
L 538.493761 736.275505 
L 538.34208 734.457001 
L 538.358113 732.75023 
L 538.441867 727.912638 
L 538.458331 726.136879 
L 539.049501 723.860615 
L 539.910144 720.801929 
L 540.651003 717.816757 
L 542.661999 714.748497 
L 546.386992 709.943839 
L 546.711369 709.763823 
L 547.264483 709.496634 
" clip-path="url(#p15b10c5e17)" style="fill: none; stroke: #d62728; stroke-opacity: 0.99; stroke-width: 0.2; stroke-linecap: square"/>
   </g>
   <g id="line2d_9">
    <path d="M 570.285908 742.777124 
L 572.636457 739.438322 
L 576.6899 737.298879 
L 579.766673 736.991326 
L 583.15384 737.452806 
L 586.790869 737.237325 
L 591.277549 739.081466 
L 592.794602 739.402249 
L 596.891838 740.61766 
L 598.3616 741.566487 
L 602.296486 742.777124 
L 604.869992 744.525677 
L 606.992807 745.035729 
L 609.505376 749.027655 
L 610.561192 751.097246 
L 608.264537 752.144764 
L 606.992807 752.845147 
L 603.947787 753.605415 
L 599.936078 753.604772 
L 596.891838 755.536367 
L 595.054652 757.904086 
L 595.062101 759.417368 
L 592.700988 762.869352 
L 591.954225 763.670401 
L 590.946964 767.737491 
L 588.828435 769.415824 
L 586.790869 775.550146 
L 586.422461 775.754157 
L 586.188097 776.057613 
L 578.546485 777.586874 
L 576.6899 778.487415 
L 573.790684 778.445683 
L 568.214186 777.396328 
L 566.58893 777.360694 
L 565.319935 777.102878 
L 562.124859 776.057613 
L 560.968627 772.366909 
L 559.985718 770.618577 
L 558.731641 767.737491 
L 561.965522 763.92921 
L 566.58893 761.535007 
L 567.68682 760.321695 
L 568.670649 759.417368 
L 569.275578 757.204389 
L 569.011534 753.092733 
L 570.167636 751.097246 
L 570.545133 747.83854 
L 569.536479 745.205006 
L 570.285908 742.777124 
" clip-path="url(#p15b10c5e17)" style="fill: none; stroke: #9467bd; stroke-opacity: 0.99; stroke-width: 0.2; stroke-linecap: square"/>
   </g>
   <g id="line2d_10">
    <path d="M 585.825469 742.777124 
L 586.320256 742.389482 
L 586.790869 742.213667 
L 587.669297 742.053566 
L 593.676043 740.128288 
L 596.891838 739.750047 
L 599.728911 740.44024 
L 604.011976 740.321827 
L 606.992807 740.753301 
L 608.570479 741.477603 
L 610.836806 742.777124 
L 613.481411 745.752613 
L 617.093776 750.600535 
L 617.151644 751.049581 
L 617.146001 751.097246 
L 617.126763 751.124417 
L 617.093776 751.19873 
L 616.884103 751.269953 
L 609.853286 753.45341 
L 606.992807 754.549521 
L 602.319051 754.946998 
L 601.308512 754.73524 
L 596.891838 755.609228 
L 594.451227 757.407048 
L 594.254898 759.417368 
L 590.668683 762.611506 
L 590.875213 764.373235 
L 589.716937 767.737491 
L 588.111928 768.825641 
L 586.790869 772.005094 
L 583.474201 773.325689 
L 580.592429 776.057613 
L 577.373891 776.621013 
L 576.6899 776.918748 
L 575.649307 776.914745 
L 570.592611 776.057613 
L 569.225761 773.885668 
L 567.733149 768.679978 
L 567.325938 767.737491 
L 568.468367 766.189407 
L 570.807261 762.891988 
L 573.699818 759.417368 
L 573.87092 757.095388 
L 576.6899 751.921218 
L 577.204245 751.52091 
L 577.766618 751.097246 
L 579.45186 748.822232 
L 580.961975 746.296012 
L 585.825469 742.777124 
L 585.825469 742.777124 
" clip-path="url(#p15b10c5e17)" style="fill: none; stroke: #8c564b; stroke-opacity: 0.99; stroke-width: 0.2; stroke-linecap: square"/>
   </g>
   <g id="line2d_11">
    <path d="M 603.673394 751.097246 
L 604.567248 749.099324 
L 606.992807 746.698655 
L 610.244747 748.418637 
L 615.97367 751.097246 
L 608.010759 751.935728 
L 606.992807 752.09316 
L 605.872653 752.019912 
L 603.673394 751.097246 
" clip-path="url(#p15b10c5e17)" style="fill: none; stroke: #e377c2; stroke-opacity: 0.99; stroke-width: 0.2; stroke-linecap: square"/>
   </g>
   <g id="line2d_12">
    <path d="M 584.612561 759.417368 
L 585.836674 758.631402 
L 586.790869 758.036253 
L 587.618035 758.736035 
L 587.565666 759.417368 
L 587.205332 759.758759 
L 588.275045 766.514981 
L 587.883976 767.737491 
L 587.276581 768.137569 
L 586.790869 769.257601 
L 583.491023 770.455559 
L 580.625875 770.979536 
L 576.6899 774.243841 
L 573.439729 770.414642 
L 572.003051 767.737491 
L 573.735212 765.303728 
L 576.6899 761.865913 
L 579.595471 761.810674 
L 584.612561 759.417368 
" clip-path="url(#p15b10c5e17)" style="fill: none; stroke: #e377c2; stroke-opacity: 0.99; stroke-width: 0.2; stroke-linecap: square"/>
   </g>
   <g id="line2d_13">
    <path d="M 604.827612 742.777124 
L 606.062072 742.010481 
L 606.992807 741.873244 
L 608.158334 741.817084 
L 615.155938 741.180935 
L 617.093776 741.097315 
L 617.873306 742.135028 
L 618.050864 742.777124 
L 618.045575 743.561116 
L 619.735376 748.921373 
L 619.726823 751.097246 
L 618.664906 752.391378 
L 617.093776 755.664211 
L 612.2351 755.099316 
L 611.768825 755.031231 
L 606.992807 754.439641 
L 603.822299 753.708779 
L 599.930466 751.097246 
L 601.478995 747.318825 
L 601.568995 746.629676 
L 604.827612 742.777124 
" clip-path="url(#p15b10c5e17)" style="fill: none; stroke: #7f7f7f; stroke-opacity: 0.99; stroke-width: 0.2; stroke-linecap: square"/>
   </g>
   <g id="line2d_14">
    <path d="M 576.572296 759.417368 
L 576.586181 759.331936 
L 576.6899 759.184616 
L 577.31933 758.898909 
L 582.997065 756.292429 
L 586.790869 754.617753 
L 589.824944 756.918214 
L 589.89277 759.417368 
L 588.603718 760.910604 
L 589.604513 765.419904 
L 588.976884 767.737491 
L 587.751683 768.528909 
L 586.790869 770.684658 
L 582.072764 772.171331 
L 578.209635 774.805813 
L 576.6899 775.739836 
L 572.533523 771.161079 
L 570.292517 767.737491 
L 572.519373 764.302247 
L 576.353014 759.694859 
L 576.572296 759.417368 
" clip-path="url(#p15b10c5e17)" style="fill: none; stroke: #7f7f7f; stroke-opacity: 0.99; stroke-width: 0.2; stroke-linecap: square"/>
   </g>
   <g id="line2d_15">
    <path d="M 605.266124 751.097246 
L 605.800904 750.115481 
L 606.992807 749.122142 
L 611.516126 746.502961 
L 613.420142 745.803079 
L 617.093776 744.233218 
L 619.739056 748.918341 
L 620.043374 751.097246 
L 618.7879 752.492688 
L 617.093776 755.880396 
L 613.083922 754.400145 
L 609.26567 752.969393 
L 606.992807 752.122499 
L 606.128876 751.808862 
L 605.266124 751.097246 
" clip-path="url(#p15b10c5e17)" style="fill: none; stroke: #bcbd22; stroke-opacity: 0.99; stroke-width: 0.2; stroke-linecap: square"/>
   </g>
   <g id="line2d_16">
    <path d="M 575.168861 767.737491 
L 575.589771 766.831319 
L 576.6899 765.058427 
L 579.961621 765.042589 
L 585.475241 767.737491 
L 577.800846 768.652572 
L 576.6899 769.124783 
L 575.838367 768.438894 
L 575.168861 767.737491 
" clip-path="url(#p15b10c5e17)" style="fill: none; stroke: #bcbd22; stroke-opacity: 0.99; stroke-width: 0.2; stroke-linecap: square"/>
   </g>
   <g id="line2d_17">
    <path d="M 605.907063 742.777124 
L 606.662621 742.505151 
L 606.992807 742.481389 
L 607.574929 742.297632 
L 613.964317 740.199403 
L 617.093776 739.259822 
L 619.981633 740.39841 
L 622.212362 742.777124 
L 623.435761 745.873382 
L 623.017649 747.656591 
L 623.612489 751.097246 
L 620.413395 753.831601 
L 617.093776 758.821784 
L 615.983933 758.503195 
L 610.053947 756.895921 
L 606.992807 755.963135 
L 602.524234 754.777989 
L 597.201664 751.352448 
L 596.891838 751.182763 
L 596.663421 751.285392 
L 596.404893 751.097246 
L 596.751063 750.98129 
L 596.891838 750.917047 
L 600.409062 745.674245 
L 605.907063 742.777124 
" clip-path="url(#p15b10c5e17)" style="fill: none; stroke: #17becf; stroke-opacity: 0.99; stroke-width: 0.2; stroke-linecap: square"/>
   </g>
   <g id="line2d_18">
    <path d="M 582.542774 759.417368 
L 584.316141 757.378947 
L 586.790869 754.360717 
L 589.779185 756.955905 
L 589.226238 759.417368 
L 587.681255 760.150776 
L 586.790869 764.959476 
L 582.320507 763.099585 
L 582.542774 759.417368 
" clip-path="url(#p15b10c5e17)" style="fill: none; stroke: #17becf; stroke-opacity: 0.99; stroke-width: 0.2; stroke-linecap: square"/>
   </g>
   <g id="line2d_19">
    <path d="M 576.258683 767.737491 
L 576.31555 767.429141 
L 576.6899 766.014108 
L 580.402026 764.679829 
L 580.91162 767.737491 
L 576.9617 767.961371 
L 576.6899 768.038091 
L 576.478758 767.911407 
L 576.258683 767.737491 
" clip-path="url(#p15b10c5e17)" style="fill: none; stroke: #17becf; stroke-opacity: 0.99; stroke-width: 0.2; stroke-linecap: square"/>
   </g>
   <g id="line2d_20">
    <path d="M 619.148176 734.457001 
L 625.424255 732.998657 
L 627.194745 732.610846 
L 627.692821 734.046738 
L 627.701967 734.457001 
L 627.615484 734.803561 
L 628.891555 741.379469 
L 628.705021 742.777124 
L 628.233752 743.632948 
L 627.503145 750.843218 
L 627.42004 751.097246 
L 627.321581 751.20172 
L 627.194745 751.429738 
L 624.729649 753.127735 
L 621.851148 755.015871 
L 620.288676 756.785744 
L 617.799961 759.417368 
L 617.266049 759.559269 
L 617.093776 759.613876 
L 616.839892 759.626491 
L 613.475298 759.417368 
L 608.638105 758.062144 
L 606.992807 757.551255 
L 603.80531 756.791842 
L 600.405183 756.523442 
L 596.891838 755.060546 
L 592.777099 756.028077 
L 590.315204 759.417368 
L 587.79208 760.242062 
L 586.790869 762.654966 
L 584.179333 761.568479 
L 583.027685 759.417368 
L 583.220857 756.476766 
L 583.375735 753.910276 
L 583.558989 751.097246 
L 583.835822 748.663187 
L 585.707547 743.669451 
L 585.858714 742.777124 
L 586.088279 742.198404 
L 586.790869 741.517694 
L 588.639196 741.254665 
L 593.061405 739.622014 
L 596.891838 739.349248 
L 601.746175 738.778628 
L 602.025797 738.68582 
L 606.992807 738.373885 
L 610.222699 737.117449 
L 616.755807 734.735385 
L 617.093776 734.609098 
L 617.338868 734.658882 
L 619.148176 734.457001 
" clip-path="url(#p15b10c5e17)" style="fill: none; stroke: #1f77b4; stroke-opacity: 0.99; stroke-width: 0.2; stroke-linecap: square"/>
   </g>
   <g id="line2d_21">
    <path d="M 607.880635 742.777124 
L 613.634008 739.927328 
L 617.093776 738.538283 
L 621.054157 739.514976 
L 625.939952 742.777124 
L 626.357517 743.466745 
L 625.331601 749.562583 
L 625.706309 751.097246 
L 620.614297 753.997083 
L 617.093776 757.354803 
L 612.203666 755.125208 
L 611.533828 754.837664 
L 606.992807 752.851763 
L 605.46689 752.354137 
L 603.195275 751.097246 
L 603.66692 748.357728 
L 606.992807 743.776666 
L 607.434324 743.140799 
L 607.880635 742.777124 
" clip-path="url(#p15b10c5e17)" style="fill: none; stroke: #ff7f0e; stroke-opacity: 0.99; stroke-width: 0.2; stroke-linecap: square"/>
   </g>
   <g id="line2d_22">
    <path d="M 609.63566 742.777124 
L 614.029553 740.253137 
L 617.093776 738.959942 
L 620.897831 739.643741 
L 626.657841 742.334878 
L 627.194745 742.508884 
L 627.27352 742.712237 
L 627.274054 742.777124 
L 627.252902 742.825027 
L 627.321512 750.992829 
L 627.295112 751.097246 
L 627.247937 751.14106 
L 627.194745 751.226494 
L 626.777405 751.441008 
L 620.801455 754.151244 
L 617.093776 756.981905 
L 612.686979 754.727105 
L 609.676904 753.308124 
L 606.992807 752.015144 
L 606.205109 751.746069 
L 605.037202 751.097246 
L 605.164948 749.591647 
L 606.992807 746.50052 
L 608.385269 743.924088 
L 609.63566 742.777124 
" clip-path="url(#p15b10c5e17)" style="fill: none; stroke: #2ca02c; stroke-opacity: 0.99; stroke-width: 0.2; stroke-linecap: square"/>
   </g>
   <g id="line2d_23">
    <path d="M 612.17027 742.777124 
L 614.961448 741.020735 
L 617.093776 740.075623 
L 620.089744 740.309359 
L 626.587113 742.27662 
L 627.194745 742.355504 
L 627.343288 742.65477 
L 627.349174 742.777124 
L 627.301113 742.864739 
L 627.194745 746.354256 
L 626.631946 750.63367 
L 626.792314 751.097246 
L 619.896324 753.405692 
L 617.093776 755.005982 
L 613.920508 753.711053 
L 607.388534 751.097246 
L 607.738183 750.483283 
L 610.014917 745.266421 
L 612.17027 742.777124 
" clip-path="url(#p15b10c5e17)" style="fill: none; stroke: #d62728; stroke-opacity: 0.99; stroke-width: 0.2; stroke-linecap: square"/>
   </g>
   <g id="patch_23">
    <path d="M 23.103125 842.218676 
L 23.103125 34.3575 
" style="fill: none"/>
   </g>
   <g id="patch_24">
    <path d="M 830.964301 842.218676 
L 830.964301 34.3575 
" style="fill: none"/>
   </g>
   <g id="patch_25">
    <path d="M 23.103125 842.218676 
L 830.964301 842.218676 
" style="fill: none"/>
   </g>
   <g id="patch_26">
    <path d="M 23.103125 34.3575 
L 830.964301 34.3575 
" style="fill: none"/>
   </g>
   <g id="text_1">
    <!-- 0.2 -->
    <g transform="translate(143.163564 434.327984) scale(0.1 -0.1)">
     <defs>
      <path id="DejaVuSans-30" d="M 2034 4250 
Q 1547 4250 1301 3770 
Q 1056 3291 1056 2328 
Q 1056 1369 1301 889 
Q 1547 409 2034 409 
Q 2525 409 2770 889 
Q 3016 1369 3016 2328 
Q 3016 3291 2770 3770 
Q 2525 4250 2034 4250 
z
M 2034 4750 
Q 2819 4750 3233 4129 
Q 3647 3509 3647 2328 
Q 3647 1150 3233 529 
Q 2819 -91 2034 -91 
Q 1250 -91 836 529 
Q 422 1150 422 2328 
Q 422 3509 836 4129 
Q 1250 4750 2034 4750 
z
" transform="scale(0.015625)"/>
      <path id="DejaVuSans-2e" d="M 684 794 
L 1344 794 
L 1344 0 
L 684 0 
L 684 794 
z
" transform="scale(0.015625)"/>
      <path id="DejaVuSans-32" d="M 1228 531 
L 3431 531 
L 3431 0 
L 469 0 
L 469 531 
Q 828 903 1448 1529 
Q 2069 2156 2228 2338 
Q 2531 2678 2651 2914 
Q 2772 3150 2772 3378 
Q 2772 3750 2511 3984 
Q 2250 4219 1831 4219 
Q 1534 4219 1204 4116 
Q 875 4013 500 3803 
L 500 4441 
Q 881 4594 1212 4672 
Q 1544 4750 1819 4750 
Q 2544 4750 2975 4387 
Q 3406 4025 3406 3419 
Q 3406 3131 3298 2873 
Q 3191 2616 2906 2266 
Q 2828 2175 2409 1742 
Q 1991 1309 1228 531 
z
" transform="scale(0.015625)"/>
     </defs>
     <use xlink:href="#DejaVuSans-30"/>
     <use xlink:href="#DejaVuSans-2e" transform="translate(63.623047 0)"/>
     <use xlink:href="#DejaVuSans-32" transform="translate(95.410156 0)"/>
    </g>
   </g>
   <g id="text_2">
    <!-- 0.5 -->
    <g transform="translate(275.167024 434.327984) scale(0.1 -0.1)">
     <defs>
      <path id="DejaVuSans-35" d="M 691 4666 
L 3169 4666 
L 3169 4134 
L 1269 4134 
L 1269 2991 
Q 1406 3038 1543 3061 
Q 1681 3084 1819 3084 
Q 2600 3084 3056 2656 
Q 3513 2228 3513 1497 
Q 3513 744 3044 326 
Q 2575 -91 1722 -91 
Q 1428 -91 1123 -41 
Q 819 9 494 109 
L 494 744 
Q 775 591 1075 516 
Q 1375 441 1709 441 
Q 2250 441 2565 725 
Q 2881 1009 2881 1497 
Q 2881 1984 2565 2268 
Q 2250 2553 1709 2553 
Q 1456 2553 1204 2497 
Q 953 2441 691 2322 
L 691 4666 
z
" transform="scale(0.015625)"/>
     </defs>
     <use xlink:href="#DejaVuSans-30"/>
     <use xlink:href="#DejaVuSans-2e" transform="translate(63.623047 0)"/>
     <use xlink:href="#DejaVuSans-35" transform="translate(95.410156 0)"/>
    </g>
   </g>
   <g id="text_3">
    <!-- 1.0 -->
    <g transform="translate(407.170484 434.327984) scale(0.1 -0.1)">
     <defs>
      <path id="DejaVuSans-31" d="M 794 531 
L 1825 531 
L 1825 4091 
L 703 3866 
L 703 4441 
L 1819 4666 
L 2450 4666 
L 2450 531 
L 3481 531 
L 3481 0 
L 794 0 
L 794 531 
z
" transform="scale(0.015625)"/>
     </defs>
     <use xlink:href="#DejaVuSans-31"/>
     <use xlink:href="#DejaVuSans-2e" transform="translate(63.623047 0)"/>
     <use xlink:href="#DejaVuSans-30" transform="translate(95.410156 0)"/>
    </g>
   </g>
   <g id="text_4">
    <!-- 2.0 -->
    <g transform="translate(539.173945 434.327984) scale(0.1 -0.1)">
     <use xlink:href="#DejaVuSans-32"/>
     <use xlink:href="#DejaVuSans-2e" transform="translate(63.623047 0)"/>
     <use xlink:href="#DejaVuSans-30" transform="translate(95.410156 0)"/>
    </g>
   </g>
   <g id="text_5">
    <!-- 5.0 -->
    <g transform="translate(671.177405 434.327984) scale(0.1 -0.1)">
     <use xlink:href="#DejaVuSans-35"/>
     <use xlink:href="#DejaVuSans-2e" transform="translate(63.623047 0)"/>
     <use xlink:href="#DejaVuSans-30" transform="translate(95.410156 0)"/>
    </g>
   </g>
   <g id="text_6">
    <!-- 0.2j -->
    <g transform="translate(39.148939 282.373599) scale(0.1 -0.1)">
     <defs>
      <path id="DejaVuSans-6a" d="M 603 3500 
L 1178 3500 
L 1178 -63 
Q 1178 -731 923 -1031 
Q 669 -1331 103 -1331 
L -116 -1331 
L -116 -844 
L 38 -844 
Q 366 -844 484 -692 
Q 603 -541 603 -63 
L 603 3500 
z
M 603 4863 
L 1178 4863 
L 1178 4134 
L 603 4134 
L 603 4863 
z
" transform="scale(0.015625)"/>
     </defs>
     <use xlink:href="#DejaVuSans-30"/>
     <use xlink:href="#DejaVuSans-2e" transform="translate(63.623047 0)"/>
     <use xlink:href="#DejaVuSans-32" transform="translate(95.410156 0)"/>
     <use xlink:href="#DejaVuSans-6a" transform="translate(159.033203 0)"/>
    </g>
   </g>
   <g id="text_7">
    <!-- 0.5j -->
    <g transform="translate(168.370173 116.232013) scale(0.1 -0.1)">
     <use xlink:href="#DejaVuSans-30"/>
     <use xlink:href="#DejaVuSans-2e" transform="translate(63.623047 0)"/>
     <use xlink:href="#DejaVuSans-35" transform="translate(95.410156 0)"/>
     <use xlink:href="#DejaVuSans-6a" transform="translate(159.033203 0)"/>
    </g>
   </g>
   <g id="text_8">
    <!-- 1.0j -->
    <g transform="translate(417.693088 36.237916) scale(0.1 -0.1)">
     <use xlink:href="#DejaVuSans-31"/>
     <use xlink:href="#DejaVuSans-2e" transform="translate(63.623047 0)"/>
     <use xlink:href="#DejaVuSans-30" transform="translate(95.410156 0)"/>
     <use xlink:href="#DejaVuSans-6a" transform="translate(159.033203 0)"/>
    </g>
   </g>
   <g id="text_9">
    <!-- 2.0j -->
    <g transform="translate(667.016004 116.232013) scale(0.1 -0.1)">
     <use xlink:href="#DejaVuSans-32"/>
     <use xlink:href="#DejaVuSans-2e" transform="translate(63.623047 0)"/>
     <use xlink:href="#DejaVuSans-30" transform="translate(95.410156 0)"/>
     <use xlink:href="#DejaVuSans-6a" transform="translate(159.033203 0)"/>
    </g>
   </g>
   <g id="text_10">
    <!-- 5.0j -->
    <g transform="translate(796.237237 282.373599) scale(0.1 -0.1)">
     <use xlink:href="#DejaVuSans-35"/>
     <use xlink:href="#DejaVuSans-2e" transform="translate(63.623047 0)"/>
     <use xlink:href="#DejaVuSans-30" transform="translate(95.410156 0)"/>
     <use xlink:href="#DejaVuSans-6a" transform="translate(159.033203 0)"/>
    </g>
   </g>
   <g id="text_11">
    <!-- -0.2j -->
    <g transform="translate(35.541127 599.721327) scale(0.1 -0.1)">
     <defs>
      <path id="DejaVuSans-2d" d="M 313 2009 
L 1997 2009 
L 1997 1497 
L 313 1497 
L 313 2009 
z
" transform="scale(0.015625)"/>
     </defs>
     <use xlink:href="#DejaVuSans-2d"/>
     <use xlink:href="#DejaVuSans-30" transform="translate(36.083984 0)"/>
     <use xlink:href="#DejaVuSans-2e" transform="translate(99.707031 0)"/>
     <use xlink:href="#DejaVuSans-32" transform="translate(131.494141 0)"/>
     <use xlink:href="#DejaVuSans-6a" transform="translate(195.117188 0)"/>
    </g>
   </g>
   <g id="text_12">
    <!-- -0.5j -->
    <g transform="translate(164.76236 765.862913) scale(0.1 -0.1)">
     <use xlink:href="#DejaVuSans-2d"/>
     <use xlink:href="#DejaVuSans-30" transform="translate(36.083984 0)"/>
     <use xlink:href="#DejaVuSans-2e" transform="translate(99.707031 0)"/>
     <use xlink:href="#DejaVuSans-35" transform="translate(131.494141 0)"/>
     <use xlink:href="#DejaVuSans-6a" transform="translate(195.117188 0)"/>
    </g>
   </g>
   <g id="text_13">
    <!-- -1.0j -->
    <g transform="translate(415.889182 845.85701) scale(0.1 -0.1)">
     <use xlink:href="#DejaVuSans-2d"/>
     <use xlink:href="#DejaVuSans-31" transform="translate(36.083984 0)"/>
     <use xlink:href="#DejaVuSans-2e" transform="translate(99.707031 0)"/>
     <use xlink:href="#DejaVuSans-30" transform="translate(131.494141 0)"/>
     <use xlink:href="#DejaVuSans-6a" transform="translate(195.117188 0)"/>
    </g>
   </g>
   <g id="text_14">
    <!-- -2.0j -->
    <g transform="translate(667.016004 765.862913) scale(0.1 -0.1)">
     <use xlink:href="#DejaVuSans-2d"/>
     <use xlink:href="#DejaVuSans-32" transform="translate(36.083984 0)"/>
     <use xlink:href="#DejaVuSans-2e" transform="translate(99.707031 0)"/>
     <use xlink:href="#DejaVuSans-30" transform="translate(131.494141 0)"/>
     <use xlink:href="#DejaVuSans-6a" transform="translate(195.117188 0)"/>
    </g>
   </g>
   <g id="text_15">
    <!-- -5.0j -->
    <g transform="translate(796.237237 599.721327) scale(0.1 -0.1)">
     <use xlink:href="#DejaVuSans-2d"/>
     <use xlink:href="#DejaVuSans-35" transform="translate(36.083984 0)"/>
     <use xlink:href="#DejaVuSans-2e" transform="translate(99.707031 0)"/>
     <use xlink:href="#DejaVuSans-30" transform="translate(131.494141 0)"/>
     <use xlink:href="#DejaVuSans-6a" transform="translate(195.117188 0)"/>
    </g>
   </g>
   <g id="text_16">
    <!-- 0.0 -->
    <g transform="translate(7.2 441.047463) scale(0.1 -0.1)">
     <use xlink:href="#DejaVuSans-30"/>
     <use xlink:href="#DejaVuSans-2e" transform="translate(63.623047 0)"/>
     <use xlink:href="#DejaVuSans-30" transform="translate(95.410156 0)"/>
    </g>
   </g>
   <g id="text_17">
    <!-- $\infty$ -->
    <g transform="translate(827.004198 441.047463) scale(0.1 -0.1)">
     <defs>
      <path id="DejaVuSans-221e" d="M 2916 1091 
Q 2819 1203 2666 1466 
Q 2456 1091 2272 925 
Q 2041 725 1681 725 
Q 1259 725 981 1041 
Q 688 1372 688 1919 
Q 688 2444 981 2800 
Q 1244 3116 1688 3116 
Q 1916 3116 2084 3022 
Q 2281 2919 2416 2741 
Q 2541 2581 2666 2366 
Q 2875 2741 3059 2906 
Q 3291 3106 3650 3106 
Q 4072 3106 4350 2791 
Q 4644 2459 4644 1913 
Q 4644 1388 4350 1031 
Q 4088 716 3644 716 
Q 3416 716 3247 809 
Q 3078 894 2916 1091 
z
M 1647 1134 
Q 2163 1134 2472 1884 
Q 2075 2703 1647 2703 
Q 1334 2703 1175 2478 
Q 1003 2238 1003 1919 
Q 1003 1569 1175 1353 
Q 1350 1134 1647 1134 
z
M 3684 2697 
Q 3219 2697 2859 1947 
Q 3253 1128 3684 1128 
Q 3997 1128 4156 1353 
Q 4328 1594 4328 1913 
Q 4328 2263 4156 2478 
Q 3981 2697 3684 2697 
z
" transform="scale(0.015625)"/>
     </defs>
     <use xlink:href="#DejaVuSans-221e" transform="translate(0 0.3125)"/>
    </g>
   </g>
   <g id="text_18">
    <!-- it2_source_pull - Broadband Optimum Target -->
    <g transform="translate(248.623713 19.3575) scale(0.16 -0.16)">
     <defs>
      <path id="DejaVuSans-69" d="M 603 3500 
L 1178 3500 
L 1178 0 
L 603 0 
L 603 3500 
z
M 603 4863 
L 1178 4863 
L 1178 4134 
L 603 4134 
L 603 4863 
z
" transform="scale(0.015625)"/>
      <path id="DejaVuSans-74" d="M 1172 4494 
L 1172 3500 
L 2356 3500 
L 2356 3053 
L 1172 3053 
L 1172 1153 
Q 1172 725 1289 603 
Q 1406 481 1766 481 
L 2356 481 
L 2356 0 
L 1766 0 
Q 1100 0 847 248 
Q 594 497 594 1153 
L 594 3053 
L 172 3053 
L 172 3500 
L 594 3500 
L 594 4494 
L 1172 4494 
z
" transform="scale(0.015625)"/>
      <path id="DejaVuSans-5f" d="M 3263 -1063 
L 3263 -1509 
L -63 -1509 
L -63 -1063 
L 3263 -1063 
z
" transform="scale(0.015625)"/>
      <path id="DejaVuSans-73" d="M 2834 3397 
L 2834 2853 
Q 2591 2978 2328 3040 
Q 2066 3103 1784 3103 
Q 1356 3103 1142 2972 
Q 928 2841 928 2578 
Q 928 2378 1081 2264 
Q 1234 2150 1697 2047 
L 1894 2003 
Q 2506 1872 2764 1633 
Q 3022 1394 3022 966 
Q 3022 478 2636 193 
Q 2250 -91 1575 -91 
Q 1294 -91 989 -36 
Q 684 19 347 128 
L 347 722 
Q 666 556 975 473 
Q 1284 391 1588 391 
Q 1994 391 2212 530 
Q 2431 669 2431 922 
Q 2431 1156 2273 1281 
Q 2116 1406 1581 1522 
L 1381 1569 
Q 847 1681 609 1914 
Q 372 2147 372 2553 
Q 372 3047 722 3315 
Q 1072 3584 1716 3584 
Q 2034 3584 2315 3537 
Q 2597 3491 2834 3397 
z
" transform="scale(0.015625)"/>
      <path id="DejaVuSans-6f" d="M 1959 3097 
Q 1497 3097 1228 2736 
Q 959 2375 959 1747 
Q 959 1119 1226 758 
Q 1494 397 1959 397 
Q 2419 397 2687 759 
Q 2956 1122 2956 1747 
Q 2956 2369 2687 2733 
Q 2419 3097 1959 3097 
z
M 1959 3584 
Q 2709 3584 3137 3096 
Q 3566 2609 3566 1747 
Q 3566 888 3137 398 
Q 2709 -91 1959 -91 
Q 1206 -91 779 398 
Q 353 888 353 1747 
Q 353 2609 779 3096 
Q 1206 3584 1959 3584 
z
" transform="scale(0.015625)"/>
      <path id="DejaVuSans-75" d="M 544 1381 
L 544 3500 
L 1119 3500 
L 1119 1403 
Q 1119 906 1312 657 
Q 1506 409 1894 409 
Q 2359 409 2629 706 
Q 2900 1003 2900 1516 
L 2900 3500 
L 3475 3500 
L 3475 0 
L 2900 0 
L 2900 538 
Q 2691 219 2414 64 
Q 2138 -91 1772 -91 
Q 1169 -91 856 284 
Q 544 659 544 1381 
z
M 1991 3584 
L 1991 3584 
z
" transform="scale(0.015625)"/>
      <path id="DejaVuSans-72" d="M 2631 2963 
Q 2534 3019 2420 3045 
Q 2306 3072 2169 3072 
Q 1681 3072 1420 2755 
Q 1159 2438 1159 1844 
L 1159 0 
L 581 0 
L 581 3500 
L 1159 3500 
L 1159 2956 
Q 1341 3275 1631 3429 
Q 1922 3584 2338 3584 
Q 2397 3584 2469 3576 
Q 2541 3569 2628 3553 
L 2631 2963 
z
" transform="scale(0.015625)"/>
      <path id="DejaVuSans-63" d="M 3122 3366 
L 3122 2828 
Q 2878 2963 2633 3030 
Q 2388 3097 2138 3097 
Q 1578 3097 1268 2742 
Q 959 2388 959 1747 
Q 959 1106 1268 751 
Q 1578 397 2138 397 
Q 2388 397 2633 464 
Q 2878 531 3122 666 
L 3122 134 
Q 2881 22 2623 -34 
Q 2366 -91 2075 -91 
Q 1284 -91 818 406 
Q 353 903 353 1747 
Q 353 2603 823 3093 
Q 1294 3584 2113 3584 
Q 2378 3584 2631 3529 
Q 2884 3475 3122 3366 
z
" transform="scale(0.015625)"/>
      <path id="DejaVuSans-65" d="M 3597 1894 
L 3597 1613 
L 953 1613 
Q 991 1019 1311 708 
Q 1631 397 2203 397 
Q 2534 397 2845 478 
Q 3156 559 3463 722 
L 3463 178 
Q 3153 47 2828 -22 
Q 2503 -91 2169 -91 
Q 1331 -91 842 396 
Q 353 884 353 1716 
Q 353 2575 817 3079 
Q 1281 3584 2069 3584 
Q 2775 3584 3186 3129 
Q 3597 2675 3597 1894 
z
M 3022 2063 
Q 3016 2534 2758 2815 
Q 2500 3097 2075 3097 
Q 1594 3097 1305 2825 
Q 1016 2553 972 2059 
L 3022 2063 
z
" transform="scale(0.015625)"/>
      <path id="DejaVuSans-70" d="M 1159 525 
L 1159 -1331 
L 581 -1331 
L 581 3500 
L 1159 3500 
L 1159 2969 
Q 1341 3281 1617 3432 
Q 1894 3584 2278 3584 
Q 2916 3584 3314 3078 
Q 3713 2572 3713 1747 
Q 3713 922 3314 415 
Q 2916 -91 2278 -91 
Q 1894 -91 1617 61 
Q 1341 213 1159 525 
z
M 3116 1747 
Q 3116 2381 2855 2742 
Q 2594 3103 2138 3103 
Q 1681 3103 1420 2742 
Q 1159 2381 1159 1747 
Q 1159 1113 1420 752 
Q 1681 391 2138 391 
Q 2594 391 2855 752 
Q 3116 1113 3116 1747 
z
" transform="scale(0.015625)"/>
      <path id="DejaVuSans-6c" d="M 603 4863 
L 1178 4863 
L 1178 0 
L 603 0 
L 603 4863 
z
" transform="scale(0.015625)"/>
      <path id="DejaVuSans-20" transform="scale(0.015625)"/>
      <path id="DejaVuSans-42" d="M 1259 2228 
L 1259 519 
L 2272 519 
Q 2781 519 3026 730 
Q 3272 941 3272 1375 
Q 3272 1813 3026 2020 
Q 2781 2228 2272 2228 
L 1259 2228 
z
M 1259 4147 
L 1259 2741 
L 2194 2741 
Q 2656 2741 2882 2914 
Q 3109 3088 3109 3444 
Q 3109 3797 2882 3972 
Q 2656 4147 2194 4147 
L 1259 4147 
z
M 628 4666 
L 2241 4666 
Q 2963 4666 3353 4366 
Q 3744 4066 3744 3513 
Q 3744 3084 3544 2831 
Q 3344 2578 2956 2516 
Q 3422 2416 3680 2098 
Q 3938 1781 3938 1306 
Q 3938 681 3513 340 
Q 3088 0 2303 0 
L 628 0 
L 628 4666 
z
" transform="scale(0.015625)"/>
      <path id="DejaVuSans-61" d="M 2194 1759 
Q 1497 1759 1228 1600 
Q 959 1441 959 1056 
Q 959 750 1161 570 
Q 1363 391 1709 391 
Q 2188 391 2477 730 
Q 2766 1069 2766 1631 
L 2766 1759 
L 2194 1759 
z
M 3341 1997 
L 3341 0 
L 2766 0 
L 2766 531 
Q 2569 213 2275 61 
Q 1981 -91 1556 -91 
Q 1019 -91 701 211 
Q 384 513 384 1019 
Q 384 1609 779 1909 
Q 1175 2209 1959 2209 
L 2766 2209 
L 2766 2266 
Q 2766 2663 2505 2880 
Q 2244 3097 1772 3097 
Q 1472 3097 1187 3025 
Q 903 2953 641 2809 
L 641 3341 
Q 956 3463 1253 3523 
Q 1550 3584 1831 3584 
Q 2591 3584 2966 3190 
Q 3341 2797 3341 1997 
z
" transform="scale(0.015625)"/>
      <path id="DejaVuSans-64" d="M 2906 2969 
L 2906 4863 
L 3481 4863 
L 3481 0 
L 2906 0 
L 2906 525 
Q 2725 213 2448 61 
Q 2172 -91 1784 -91 
Q 1150 -91 751 415 
Q 353 922 353 1747 
Q 353 2572 751 3078 
Q 1150 3584 1784 3584 
Q 2172 3584 2448 3432 
Q 2725 3281 2906 2969 
z
M 947 1747 
Q 947 1113 1208 752 
Q 1469 391 1925 391 
Q 2381 391 2643 752 
Q 2906 1113 2906 1747 
Q 2906 2381 2643 2742 
Q 2381 3103 1925 3103 
Q 1469 3103 1208 2742 
Q 947 2381 947 1747 
z
" transform="scale(0.015625)"/>
      <path id="DejaVuSans-62" d="M 3116 1747 
Q 3116 2381 2855 2742 
Q 2594 3103 2138 3103 
Q 1681 3103 1420 2742 
Q 1159 2381 1159 1747 
Q 1159 1113 1420 752 
Q 1681 391 2138 391 
Q 2594 391 2855 752 
Q 3116 1113 3116 1747 
z
M 1159 2969 
Q 1341 3281 1617 3432 
Q 1894 3584 2278 3584 
Q 2916 3584 3314 3078 
Q 3713 2572 3713 1747 
Q 3713 922 3314 415 
Q 2916 -91 2278 -91 
Q 1894 -91 1617 61 
Q 1341 213 1159 525 
L 1159 0 
L 581 0 
L 581 4863 
L 1159 4863 
L 1159 2969 
z
" transform="scale(0.015625)"/>
      <path id="DejaVuSans-6e" d="M 3513 2113 
L 3513 0 
L 2938 0 
L 2938 2094 
Q 2938 2591 2744 2837 
Q 2550 3084 2163 3084 
Q 1697 3084 1428 2787 
Q 1159 2491 1159 1978 
L 1159 0 
L 581 0 
L 581 3500 
L 1159 3500 
L 1159 2956 
Q 1366 3272 1645 3428 
Q 1925 3584 2291 3584 
Q 2894 3584 3203 3211 
Q 3513 2838 3513 2113 
z
" transform="scale(0.015625)"/>
      <path id="DejaVuSans-4f" d="M 2522 4238 
Q 1834 4238 1429 3725 
Q 1025 3213 1025 2328 
Q 1025 1447 1429 934 
Q 1834 422 2522 422 
Q 3209 422 3611 934 
Q 4013 1447 4013 2328 
Q 4013 3213 3611 3725 
Q 3209 4238 2522 4238 
z
M 2522 4750 
Q 3503 4750 4090 4092 
Q 4678 3434 4678 2328 
Q 4678 1225 4090 567 
Q 3503 -91 2522 -91 
Q 1538 -91 948 565 
Q 359 1222 359 2328 
Q 359 3434 948 4092 
Q 1538 4750 2522 4750 
z
" transform="scale(0.015625)"/>
      <path id="DejaVuSans-6d" d="M 3328 2828 
Q 3544 3216 3844 3400 
Q 4144 3584 4550 3584 
Q 5097 3584 5394 3201 
Q 5691 2819 5691 2113 
L 5691 0 
L 5113 0 
L 5113 2094 
Q 5113 2597 4934 2840 
Q 4756 3084 4391 3084 
Q 3944 3084 3684 2787 
Q 3425 2491 3425 1978 
L 3425 0 
L 2847 0 
L 2847 2094 
Q 2847 2600 2669 2842 
Q 2491 3084 2119 3084 
Q 1678 3084 1418 2786 
Q 1159 2488 1159 1978 
L 1159 0 
L 581 0 
L 581 3500 
L 1159 3500 
L 1159 2956 
Q 1356 3278 1631 3431 
Q 1906 3584 2284 3584 
Q 2666 3584 2933 3390 
Q 3200 3197 3328 2828 
z
" transform="scale(0.015625)"/>
      <path id="DejaVuSans-54" d="M -19 4666 
L 3928 4666 
L 3928 4134 
L 2272 4134 
L 2272 0 
L 1638 0 
L 1638 4134 
L -19 4134 
L -19 4666 
z
" transform="scale(0.015625)"/>
      <path id="DejaVuSans-67" d="M 2906 1791 
Q 2906 2416 2648 2759 
Q 2391 3103 1925 3103 
Q 1463 3103 1205 2759 
Q 947 2416 947 1791 
Q 947 1169 1205 825 
Q 1463 481 1925 481 
Q 2391 481 2648 825 
Q 2906 1169 2906 1791 
z
M 3481 434 
Q 3481 -459 3084 -895 
Q 2688 -1331 1869 -1331 
Q 1566 -1331 1297 -1286 
Q 1028 -1241 775 -1147 
L 775 -588 
Q 1028 -725 1275 -790 
Q 1522 -856 1778 -856 
Q 2344 -856 2625 -561 
Q 2906 -266 2906 331 
L 2906 616 
Q 2728 306 2450 153 
Q 2172 0 1784 0 
Q 1141 0 747 490 
Q 353 981 353 1791 
Q 353 2603 747 3093 
Q 1141 3584 1784 3584 
Q 2172 3584 2450 3431 
Q 2728 3278 2906 2969 
L 2906 3500 
L 3481 3500 
L 3481 434 
z
" transform="scale(0.015625)"/>
     </defs>
     <use xlink:href="#DejaVuSans-69"/>
     <use xlink:href="#DejaVuSans-74" transform="translate(27.783203 0)"/>
     <use xlink:href="#DejaVuSans-32" transform="translate(66.992188 0)"/>
     <use xlink:href="#DejaVuSans-5f" transform="translate(130.615234 0)"/>
     <use xlink:href="#DejaVuSans-73" transform="translate(180.615234 0)"/>
     <use xlink:href="#DejaVuSans-6f" transform="translate(232.714844 0)"/>
     <use xlink:href="#DejaVuSans-75" transform="translate(293.896484 0)"/>
     <use xlink:href="#DejaVuSans-72" transform="translate(357.275391 0)"/>
     <use xlink:href="#DejaVuSans-63" transform="translate(396.138672 0)"/>
     <use xlink:href="#DejaVuSans-65" transform="translate(451.119141 0)"/>
     <use xlink:href="#DejaVuSans-5f" transform="translate(512.642578 0)"/>
     <use xlink:href="#DejaVuSans-70" transform="translate(562.642578 0)"/>
     <use xlink:href="#DejaVuSans-75" transform="translate(626.119141 0)"/>
     <use xlink:href="#DejaVuSans-6c" transform="translate(689.498047 0)"/>
     <use xlink:href="#DejaVuSans-6c" transform="translate(717.28125 0)"/>
     <use xlink:href="#DejaVuSans-20" transform="translate(745.064453 0)"/>
     <use xlink:href="#DejaVuSans-2d" transform="translate(776.851562 0)"/>
     <use xlink:href="#DejaVuSans-20" transform="translate(812.935547 0)"/>
     <use xlink:href="#DejaVuSans-42" transform="translate(844.722656 0)"/>
     <use xlink:href="#DejaVuSans-72" transform="translate(913.326172 0)"/>
     <use xlink:href="#DejaVuSans-6f" transform="translate(952.189453 0)"/>
     <use xlink:href="#DejaVuSans-61" transform="translate(1013.371094 0)"/>
     <use xlink:href="#DejaVuSans-64" transform="translate(1074.650391 0)"/>
     <use xlink:href="#DejaVuSans-62" transform="translate(1138.126953 0)"/>
     <use xlink:href="#DejaVuSans-61" transform="translate(1201.603516 0)"/>
     <use xlink:href="#DejaVuSans-6e" transform="translate(1262.882812 0)"/>
     <use xlink:href="#DejaVuSans-64" transform="translate(1326.261719 0)"/>
     <use xlink:href="#DejaVuSans-20" transform="translate(1389.738281 0)"/>
     <use xlink:href="#DejaVuSans-4f" transform="translate(1421.525391 0)"/>
     <use xlink:href="#DejaVuSans-70" transform="translate(1500.236328 0)"/>
     <use xlink:href="#DejaVuSans-74" transform="translate(1563.712891 0)"/>
     <use xlink:href="#DejaVuSans-69" transform="translate(1602.921875 0)"/>
     <use xlink:href="#DejaVuSans-6d" transform="translate(1630.705078 0)"/>
     <use xlink:href="#DejaVuSans-75" transform="translate(1728.117188 0)"/>
     <use xlink:href="#DejaVuSans-6d" transform="translate(1791.496094 0)"/>
     <use xlink:href="#DejaVuSans-20" transform="translate(1888.908203 0)"/>
     <use xlink:href="#DejaVuSans-54" transform="translate(1920.695312 0)"/>
     <use xlink:href="#DejaVuSans-61" transform="translate(1965.279297 0)"/>
     <use xlink:href="#DejaVuSans-72" transform="translate(2026.558594 0)"/>
     <use xlink:href="#DejaVuSans-67" transform="translate(2065.921875 0)"/>
     <use xlink:href="#DejaVuSans-65" transform="translate(2129.398438 0)"/>
     <use xlink:href="#DejaVuSans-74" transform="translate(2190.921875 0)"/>
    </g>
   </g>
   <g id="legend_1">
    <g id="patch_27">
     <path d="M 854.121525 549.874026 
L 1009.182462 549.874026 
Q 1011.182462 549.874026 1011.182462 547.874026 
L 1011.182462 328.702151 
Q 1011.182462 326.702151 1009.182462 326.702151 
L 854.121525 326.702151 
Q 852.121525 326.702151 852.121525 328.702151 
L 852.121525 547.874026 
Q 852.121525 549.874026 854.121525 549.874026 
z
" style="fill: #ffffff; opacity: 0.8; stroke: #cccccc; stroke-linejoin: miter"/>
    </g>
    <g id="line2d_24">
     <path d="M 856.121525 334.800588 
L 866.121525 334.800588 
L 876.121525 334.800588 
" style="fill: none; stroke: #1f77b4; stroke-opacity: 0.99; stroke-width: 0.2; stroke-linecap: square"/>
    </g>
    <g id="text_19">
     <!-- 12.65 GHz (Target: 47.0) -->
     <g transform="translate(884.121525 338.300588) scale(0.1 -0.1)">
      <defs>
       <path id="DejaVuSans-36" d="M 2113 2584 
Q 1688 2584 1439 2293 
Q 1191 2003 1191 1497 
Q 1191 994 1439 701 
Q 1688 409 2113 409 
Q 2538 409 2786 701 
Q 3034 994 3034 1497 
Q 3034 2003 2786 2293 
Q 2538 2584 2113 2584 
z
M 3366 4563 
L 3366 3988 
Q 3128 4100 2886 4159 
Q 2644 4219 2406 4219 
Q 1781 4219 1451 3797 
Q 1122 3375 1075 2522 
Q 1259 2794 1537 2939 
Q 1816 3084 2150 3084 
Q 2853 3084 3261 2657 
Q 3669 2231 3669 1497 
Q 3669 778 3244 343 
Q 2819 -91 2113 -91 
Q 1303 -91 875 529 
Q 447 1150 447 2328 
Q 447 3434 972 4092 
Q 1497 4750 2381 4750 
Q 2619 4750 2861 4703 
Q 3103 4656 3366 4563 
z
" transform="scale(0.015625)"/>
       <path id="DejaVuSans-47" d="M 3809 666 
L 3809 1919 
L 2778 1919 
L 2778 2438 
L 4434 2438 
L 4434 434 
Q 4069 175 3628 42 
Q 3188 -91 2688 -91 
Q 1594 -91 976 548 
Q 359 1188 359 2328 
Q 359 3472 976 4111 
Q 1594 4750 2688 4750 
Q 3144 4750 3555 4637 
Q 3966 4525 4313 4306 
L 4313 3634 
Q 3963 3931 3569 4081 
Q 3175 4231 2741 4231 
Q 1884 4231 1454 3753 
Q 1025 3275 1025 2328 
Q 1025 1384 1454 906 
Q 1884 428 2741 428 
Q 3075 428 3337 486 
Q 3600 544 3809 666 
z
" transform="scale(0.015625)"/>
       <path id="DejaVuSans-48" d="M 628 4666 
L 1259 4666 
L 1259 2753 
L 3553 2753 
L 3553 4666 
L 4184 4666 
L 4184 0 
L 3553 0 
L 3553 2222 
L 1259 2222 
L 1259 0 
L 628 0 
L 628 4666 
z
" transform="scale(0.015625)"/>
       <path id="DejaVuSans-7a" d="M 353 3500 
L 3084 3500 
L 3084 2975 
L 922 459 
L 3084 459 
L 3084 0 
L 275 0 
L 275 525 
L 2438 3041 
L 353 3041 
L 353 3500 
z
" transform="scale(0.015625)"/>
       <path id="DejaVuSans-28" d="M 1984 4856 
Q 1566 4138 1362 3434 
Q 1159 2731 1159 2009 
Q 1159 1288 1364 580 
Q 1569 -128 1984 -844 
L 1484 -844 
Q 1016 -109 783 600 
Q 550 1309 550 2009 
Q 550 2706 781 3412 
Q 1013 4119 1484 4856 
L 1984 4856 
z
" transform="scale(0.015625)"/>
       <path id="DejaVuSans-3a" d="M 750 794 
L 1409 794 
L 1409 0 
L 750 0 
L 750 794 
z
M 750 3309 
L 1409 3309 
L 1409 2516 
L 750 2516 
L 750 3309 
z
" transform="scale(0.015625)"/>
       <path id="DejaVuSans-34" d="M 2419 4116 
L 825 1625 
L 2419 1625 
L 2419 4116 
z
M 2253 4666 
L 3047 4666 
L 3047 1625 
L 3713 1625 
L 3713 1100 
L 3047 1100 
L 3047 0 
L 2419 0 
L 2419 1100 
L 313 1100 
L 313 1709 
L 2253 4666 
z
" transform="scale(0.015625)"/>
       <path id="DejaVuSans-37" d="M 525 4666 
L 3525 4666 
L 3525 4397 
L 1831 0 
L 1172 0 
L 2766 4134 
L 525 4134 
L 525 4666 
z
" transform="scale(0.015625)"/>
       <path id="DejaVuSans-29" d="M 513 4856 
L 1013 4856 
Q 1481 4119 1714 3412 
Q 1947 2706 1947 2009 
Q 1947 1309 1714 600 
Q 1481 -109 1013 -844 
L 513 -844 
Q 928 -128 1133 580 
Q 1338 1288 1338 2009 
Q 1338 2731 1133 3434 
Q 928 4138 513 4856 
z
" transform="scale(0.015625)"/>
      </defs>
      <use xlink:href="#DejaVuSans-31"/>
      <use xlink:href="#DejaVuSans-32" transform="translate(63.623047 0)"/>
      <use xlink:href="#DejaVuSans-2e" transform="translate(127.246094 0)"/>
      <use xlink:href="#DejaVuSans-36" transform="translate(159.033203 0)"/>
      <use xlink:href="#DejaVuSans-35" transform="translate(222.65625 0)"/>
      <use xlink:href="#DejaVuSans-20" transform="translate(286.279297 0)"/>
      <use xlink:href="#DejaVuSans-47" transform="translate(318.066406 0)"/>
      <use xlink:href="#DejaVuSans-48" transform="translate(395.556641 0)"/>
      <use xlink:href="#DejaVuSans-7a" transform="translate(470.751953 0)"/>
      <use xlink:href="#DejaVuSans-20" transform="translate(523.242188 0)"/>
      <use xlink:href="#DejaVuSans-28" transform="translate(555.029297 0)"/>
      <use xlink:href="#DejaVuSans-54" transform="translate(594.042969 0)"/>
      <use xlink:href="#DejaVuSans-61" transform="translate(638.626953 0)"/>
      <use xlink:href="#DejaVuSans-72" transform="translate(699.90625 0)"/>
      <use xlink:href="#DejaVuSans-67" transform="translate(739.269531 0)"/>
      <use xlink:href="#DejaVuSans-65" transform="translate(802.746094 0)"/>
      <use xlink:href="#DejaVuSans-74" transform="translate(864.269531 0)"/>
      <use xlink:href="#DejaVuSans-3a" transform="translate(903.478516 0)"/>
      <use xlink:href="#DejaVuSans-20" transform="translate(937.169922 0)"/>
      <use xlink:href="#DejaVuSans-34" transform="translate(968.957031 0)"/>
      <use xlink:href="#DejaVuSans-37" transform="translate(1032.580078 0)"/>
      <use xlink:href="#DejaVuSans-2e" transform="translate(1096.203125 0)"/>
      <use xlink:href="#DejaVuSans-30" transform="translate(1127.990234 0)"/>
      <use xlink:href="#DejaVuSans-29" transform="translate(1191.613281 0)"/>
     </g>
    </g>
    <g id="line2d_25">
     <path d="M 856.121525 349.478713 
L 866.121525 349.478713 
L 876.121525 349.478713 
" style="fill: none; stroke: #ff7f0e; stroke-opacity: 0.99; stroke-width: 0.2; stroke-linecap: square"/>
    </g>
    <g id="text_20">
     <!-- 12.70 GHz (Target: 47.5) -->
     <g transform="translate(884.121525 352.978713) scale(0.1 -0.1)">
      <use xlink:href="#DejaVuSans-31"/>
      <use xlink:href="#DejaVuSans-32" transform="translate(63.623047 0)"/>
      <use xlink:href="#DejaVuSans-2e" transform="translate(127.246094 0)"/>
      <use xlink:href="#DejaVuSans-37" transform="translate(159.033203 0)"/>
      <use xlink:href="#DejaVuSans-30" transform="translate(222.65625 0)"/>
      <use xlink:href="#DejaVuSans-20" transform="translate(286.279297 0)"/>
      <use xlink:href="#DejaVuSans-47" transform="translate(318.066406 0)"/>
      <use xlink:href="#DejaVuSans-48" transform="translate(395.556641 0)"/>
      <use xlink:href="#DejaVuSans-7a" transform="translate(470.751953 0)"/>
      <use xlink:href="#DejaVuSans-20" transform="translate(523.242188 0)"/>
      <use xlink:href="#DejaVuSans-28" transform="translate(555.029297 0)"/>
      <use xlink:href="#DejaVuSans-54" transform="translate(594.042969 0)"/>
      <use xlink:href="#DejaVuSans-61" transform="translate(638.626953 0)"/>
      <use xlink:href="#DejaVuSans-72" transform="translate(699.90625 0)"/>
      <use xlink:href="#DejaVuSans-67" transform="translate(739.269531 0)"/>
      <use xlink:href="#DejaVuSans-65" transform="translate(802.746094 0)"/>
      <use xlink:href="#DejaVuSans-74" transform="translate(864.269531 0)"/>
      <use xlink:href="#DejaVuSans-3a" transform="translate(903.478516 0)"/>
      <use xlink:href="#DejaVuSans-20" transform="translate(937.169922 0)"/>
      <use xlink:href="#DejaVuSans-34" transform="translate(968.957031 0)"/>
      <use xlink:href="#DejaVuSans-37" transform="translate(1032.580078 0)"/>
      <use xlink:href="#DejaVuSans-2e" transform="translate(1096.203125 0)"/>
      <use xlink:href="#DejaVuSans-35" transform="translate(1127.990234 0)"/>
      <use xlink:href="#DejaVuSans-29" transform="translate(1191.613281 0)"/>
     </g>
    </g>
    <g id="line2d_26">
     <path d="M 856.121525 364.156838 
L 866.121525 364.156838 
L 876.121525 364.156838 
" style="fill: none; stroke: #2ca02c; stroke-opacity: 0.99; stroke-width: 0.2; stroke-linecap: square"/>
    </g>
    <g id="text_21">
     <!-- 12.75 GHz (Target: 48.0) -->
     <g transform="translate(884.121525 367.656838) scale(0.1 -0.1)">
      <defs>
       <path id="DejaVuSans-38" d="M 2034 2216 
Q 1584 2216 1326 1975 
Q 1069 1734 1069 1313 
Q 1069 891 1326 650 
Q 1584 409 2034 409 
Q 2484 409 2743 651 
Q 3003 894 3003 1313 
Q 3003 1734 2745 1975 
Q 2488 2216 2034 2216 
z
M 1403 2484 
Q 997 2584 770 2862 
Q 544 3141 544 3541 
Q 544 4100 942 4425 
Q 1341 4750 2034 4750 
Q 2731 4750 3128 4425 
Q 3525 4100 3525 3541 
Q 3525 3141 3298 2862 
Q 3072 2584 2669 2484 
Q 3125 2378 3379 2068 
Q 3634 1759 3634 1313 
Q 3634 634 3220 271 
Q 2806 -91 2034 -91 
Q 1263 -91 848 271 
Q 434 634 434 1313 
Q 434 1759 690 2068 
Q 947 2378 1403 2484 
z
M 1172 3481 
Q 1172 3119 1398 2916 
Q 1625 2713 2034 2713 
Q 2441 2713 2670 2916 
Q 2900 3119 2900 3481 
Q 2900 3844 2670 4047 
Q 2441 4250 2034 4250 
Q 1625 4250 1398 4047 
Q 1172 3844 1172 3481 
z
" transform="scale(0.015625)"/>
      </defs>
      <use xlink:href="#DejaVuSans-31"/>
      <use xlink:href="#DejaVuSans-32" transform="translate(63.623047 0)"/>
      <use xlink:href="#DejaVuSans-2e" transform="translate(127.246094 0)"/>
      <use xlink:href="#DejaVuSans-37" transform="translate(159.033203 0)"/>
      <use xlink:href="#DejaVuSans-35" transform="translate(222.65625 0)"/>
      <use xlink:href="#DejaVuSans-20" transform="translate(286.279297 0)"/>
      <use xlink:href="#DejaVuSans-47" transform="translate(318.066406 0)"/>
      <use xlink:href="#DejaVuSans-48" transform="translate(395.556641 0)"/>
      <use xlink:href="#DejaVuSans-7a" transform="translate(470.751953 0)"/>
      <use xlink:href="#DejaVuSans-20" transform="translate(523.242188 0)"/>
      <use xlink:href="#DejaVuSans-28" transform="translate(555.029297 0)"/>
      <use xlink:href="#DejaVuSans-54" transform="translate(594.042969 0)"/>
      <use xlink:href="#DejaVuSans-61" transform="translate(638.626953 0)"/>
      <use xlink:href="#DejaVuSans-72" transform="translate(699.90625 0)"/>
      <use xlink:href="#DejaVuSans-67" transform="translate(739.269531 0)"/>
      <use xlink:href="#DejaVuSans-65" transform="translate(802.746094 0)"/>
      <use xlink:href="#DejaVuSans-74" transform="translate(864.269531 0)"/>
      <use xlink:href="#DejaVuSans-3a" transform="translate(903.478516 0)"/>
      <use xlink:href="#DejaVuSans-20" transform="translate(937.169922 0)"/>
      <use xlink:href="#DejaVuSans-34" transform="translate(968.957031 0)"/>
      <use xlink:href="#DejaVuSans-38" transform="translate(1032.580078 0)"/>
      <use xlink:href="#DejaVuSans-2e" transform="translate(1096.203125 0)"/>
      <use xlink:href="#DejaVuSans-30" transform="translate(1127.990234 0)"/>
      <use xlink:href="#DejaVuSans-29" transform="translate(1191.613281 0)"/>
     </g>
    </g>
    <g id="line2d_27">
     <path d="M 856.121525 378.834963 
L 866.121525 378.834963 
L 876.121525 378.834963 
" style="fill: none; stroke: #d62728; stroke-opacity: 0.99; stroke-width: 0.2; stroke-linecap: square"/>
    </g>
    <g id="text_22">
     <!-- 12.80 GHz (Target: 48.0) -->
     <g transform="translate(884.121525 382.334963) scale(0.1 -0.1)">
      <use xlink:href="#DejaVuSans-31"/>
      <use xlink:href="#DejaVuSans-32" transform="translate(63.623047 0)"/>
      <use xlink:href="#DejaVuSans-2e" transform="translate(127.246094 0)"/>
      <use xlink:href="#DejaVuSans-38" transform="translate(159.033203 0)"/>
      <use xlink:href="#DejaVuSans-30" transform="translate(222.65625 0)"/>
      <use xlink:href="#DejaVuSans-20" transform="translate(286.279297 0)"/>
      <use xlink:href="#DejaVuSans-47" transform="translate(318.066406 0)"/>
      <use xlink:href="#DejaVuSans-48" transform="translate(395.556641 0)"/>
      <use xlink:href="#DejaVuSans-7a" transform="translate(470.751953 0)"/>
      <use xlink:href="#DejaVuSans-20" transform="translate(523.242188 0)"/>
      <use xlink:href="#DejaVuSans-28" transform="translate(555.029297 0)"/>
      <use xlink:href="#DejaVuSans-54" transform="translate(594.042969 0)"/>
      <use xlink:href="#DejaVuSans-61" transform="translate(638.626953 0)"/>
      <use xlink:href="#DejaVuSans-72" transform="translate(699.90625 0)"/>
      <use xlink:href="#DejaVuSans-67" transform="translate(739.269531 0)"/>
      <use xlink:href="#DejaVuSans-65" transform="translate(802.746094 0)"/>
      <use xlink:href="#DejaVuSans-74" transform="translate(864.269531 0)"/>
      <use xlink:href="#DejaVuSans-3a" transform="translate(903.478516 0)"/>
      <use xlink:href="#DejaVuSans-20" transform="translate(937.169922 0)"/>
      <use xlink:href="#DejaVuSans-34" transform="translate(968.957031 0)"/>
      <use xlink:href="#DejaVuSans-38" transform="translate(1032.580078 0)"/>
      <use xlink:href="#DejaVuSans-2e" transform="translate(1096.203125 0)"/>
      <use xlink:href="#DejaVuSans-30" transform="translate(1127.990234 0)"/>
      <use xlink:href="#DejaVuSans-29" transform="translate(1191.613281 0)"/>
     </g>
    </g>
    <g id="line2d_28">
     <path d="M 856.121525 393.513088 
L 866.121525 393.513088 
L 876.121525 393.513088 
" style="fill: none; stroke: #9467bd; stroke-opacity: 0.99; stroke-width: 0.2; stroke-linecap: square"/>
    </g>
    <g id="text_23">
     <!-- 12.85 GHz (Target: 48.5) -->
     <g transform="translate(884.121525 397.013088) scale(0.1 -0.1)">
      <use xlink:href="#DejaVuSans-31"/>
      <use xlink:href="#DejaVuSans-32" transform="translate(63.623047 0)"/>
      <use xlink:href="#DejaVuSans-2e" transform="translate(127.246094 0)"/>
      <use xlink:href="#DejaVuSans-38" transform="translate(159.033203 0)"/>
      <use xlink:href="#DejaVuSans-35" transform="translate(222.65625 0)"/>
      <use xlink:href="#DejaVuSans-20" transform="translate(286.279297 0)"/>
      <use xlink:href="#DejaVuSans-47" transform="translate(318.066406 0)"/>
      <use xlink:href="#DejaVuSans-48" transform="translate(395.556641 0)"/>
      <use xlink:href="#DejaVuSans-7a" transform="translate(470.751953 0)"/>
      <use xlink:href="#DejaVuSans-20" transform="translate(523.242188 0)"/>
      <use xlink:href="#DejaVuSans-28" transform="translate(555.029297 0)"/>
      <use xlink:href="#DejaVuSans-54" transform="translate(594.042969 0)"/>
      <use xlink:href="#DejaVuSans-61" transform="translate(638.626953 0)"/>
      <use xlink:href="#DejaVuSans-72" transform="translate(699.90625 0)"/>
      <use xlink:href="#DejaVuSans-67" transform="translate(739.269531 0)"/>
      <use xlink:href="#DejaVuSans-65" transform="translate(802.746094 0)"/>
      <use xlink:href="#DejaVuSans-74" transform="translate(864.269531 0)"/>
      <use xlink:href="#DejaVuSans-3a" transform="translate(903.478516 0)"/>
      <use xlink:href="#DejaVuSans-20" transform="translate(937.169922 0)"/>
      <use xlink:href="#DejaVuSans-34" transform="translate(968.957031 0)"/>
      <use xlink:href="#DejaVuSans-38" transform="translate(1032.580078 0)"/>
      <use xlink:href="#DejaVuSans-2e" transform="translate(1096.203125 0)"/>
      <use xlink:href="#DejaVuSans-35" transform="translate(1127.990234 0)"/>
      <use xlink:href="#DejaVuSans-29" transform="translate(1191.613281 0)"/>
     </g>
    </g>
    <g id="line2d_29">
     <path d="M 856.121525 408.191213 
L 866.121525 408.191213 
L 876.121525 408.191213 
" style="fill: none; stroke: #8c564b; stroke-opacity: 0.99; stroke-width: 0.2; stroke-linecap: square"/>
    </g>
    <g id="text_24">
     <!-- 12.90 GHz (Target: 48.5) -->
     <g transform="translate(884.121525 411.691213) scale(0.1 -0.1)">
      <defs>
       <path id="DejaVuSans-39" d="M 703 97 
L 703 672 
Q 941 559 1184 500 
Q 1428 441 1663 441 
Q 2288 441 2617 861 
Q 2947 1281 2994 2138 
Q 2813 1869 2534 1725 
Q 2256 1581 1919 1581 
Q 1219 1581 811 2004 
Q 403 2428 403 3163 
Q 403 3881 828 4315 
Q 1253 4750 1959 4750 
Q 2769 4750 3195 4129 
Q 3622 3509 3622 2328 
Q 3622 1225 3098 567 
Q 2575 -91 1691 -91 
Q 1453 -91 1209 -44 
Q 966 3 703 97 
z
M 1959 2075 
Q 2384 2075 2632 2365 
Q 2881 2656 2881 3163 
Q 2881 3666 2632 3958 
Q 2384 4250 1959 4250 
Q 1534 4250 1286 3958 
Q 1038 3666 1038 3163 
Q 1038 2656 1286 2365 
Q 1534 2075 1959 2075 
z
" transform="scale(0.015625)"/>
      </defs>
      <use xlink:href="#DejaVuSans-31"/>
      <use xlink:href="#DejaVuSans-32" transform="translate(63.623047 0)"/>
      <use xlink:href="#DejaVuSans-2e" transform="translate(127.246094 0)"/>
      <use xlink:href="#DejaVuSans-39" transform="translate(159.033203 0)"/>
      <use xlink:href="#DejaVuSans-30" transform="translate(222.65625 0)"/>
      <use xlink:href="#DejaVuSans-20" transform="translate(286.279297 0)"/>
      <use xlink:href="#DejaVuSans-47" transform="translate(318.066406 0)"/>
      <use xlink:href="#DejaVuSans-48" transform="translate(395.556641 0)"/>
      <use xlink:href="#DejaVuSans-7a" transform="translate(470.751953 0)"/>
      <use xlink:href="#DejaVuSans-20" transform="translate(523.242188 0)"/>
      <use xlink:href="#DejaVuSans-28" transform="translate(555.029297 0)"/>
      <use xlink:href="#DejaVuSans-54" transform="translate(594.042969 0)"/>
      <use xlink:href="#DejaVuSans-61" transform="translate(638.626953 0)"/>
      <use xlink:href="#DejaVuSans-72" transform="translate(699.90625 0)"/>
      <use xlink:href="#DejaVuSans-67" transform="translate(739.269531 0)"/>
      <use xlink:href="#DejaVuSans-65" transform="translate(802.746094 0)"/>
      <use xlink:href="#DejaVuSans-74" transform="translate(864.269531 0)"/>
      <use xlink:href="#DejaVuSans-3a" transform="translate(903.478516 0)"/>
      <use xlink:href="#DejaVuSans-20" transform="translate(937.169922 0)"/>
      <use xlink:href="#DejaVuSans-34" transform="translate(968.957031 0)"/>
      <use xlink:href="#DejaVuSans-38" transform="translate(1032.580078 0)"/>
      <use xlink:href="#DejaVuSans-2e" transform="translate(1096.203125 0)"/>
      <use xlink:href="#DejaVuSans-35" transform="translate(1127.990234 0)"/>
      <use xlink:href="#DejaVuSans-29" transform="translate(1191.613281 0)"/>
     </g>
    </g>
    <g id="line2d_30">
     <path d="M 856.121525 422.869338 
L 866.121525 422.869338 
L 876.121525 422.869338 
" style="fill: none; stroke: #e377c2; stroke-opacity: 0.99; stroke-width: 0.2; stroke-linecap: square"/>
    </g>
    <g id="text_25">
     <!-- 12.95 GHz (Target: 48.5) -->
     <g transform="translate(884.121525 426.369338) scale(0.1 -0.1)">
      <use xlink:href="#DejaVuSans-31"/>
      <use xlink:href="#DejaVuSans-32" transform="translate(63.623047 0)"/>
      <use xlink:href="#DejaVuSans-2e" transform="translate(127.246094 0)"/>
      <use xlink:href="#DejaVuSans-39" transform="translate(159.033203 0)"/>
      <use xlink:href="#DejaVuSans-35" transform="translate(222.65625 0)"/>
      <use xlink:href="#DejaVuSans-20" transform="translate(286.279297 0)"/>
      <use xlink:href="#DejaVuSans-47" transform="translate(318.066406 0)"/>
      <use xlink:href="#DejaVuSans-48" transform="translate(395.556641 0)"/>
      <use xlink:href="#DejaVuSans-7a" transform="translate(470.751953 0)"/>
      <use xlink:href="#DejaVuSans-20" transform="translate(523.242188 0)"/>
      <use xlink:href="#DejaVuSans-28" transform="translate(555.029297 0)"/>
      <use xlink:href="#DejaVuSans-54" transform="translate(594.042969 0)"/>
      <use xlink:href="#DejaVuSans-61" transform="translate(638.626953 0)"/>
      <use xlink:href="#DejaVuSans-72" transform="translate(699.90625 0)"/>
      <use xlink:href="#DejaVuSans-67" transform="translate(739.269531 0)"/>
      <use xlink:href="#DejaVuSans-65" transform="translate(802.746094 0)"/>
      <use xlink:href="#DejaVuSans-74" transform="translate(864.269531 0)"/>
      <use xlink:href="#DejaVuSans-3a" transform="translate(903.478516 0)"/>
      <use xlink:href="#DejaVuSans-20" transform="translate(937.169922 0)"/>
      <use xlink:href="#DejaVuSans-34" transform="translate(968.957031 0)"/>
      <use xlink:href="#DejaVuSans-38" transform="translate(1032.580078 0)"/>
      <use xlink:href="#DejaVuSans-2e" transform="translate(1096.203125 0)"/>
      <use xlink:href="#DejaVuSans-35" transform="translate(1127.990234 0)"/>
      <use xlink:href="#DejaVuSans-29" transform="translate(1191.613281 0)"/>
     </g>
    </g>
    <g id="line2d_31">
     <path d="M 856.121525 437.547463 
L 866.121525 437.547463 
L 876.121525 437.547463 
" style="fill: none; stroke: #7f7f7f; stroke-opacity: 0.99; stroke-width: 0.2; stroke-linecap: square"/>
    </g>
    <g id="text_26">
     <!-- 13.00 GHz (Target: 48.0) -->
     <g transform="translate(884.121525 441.047463) scale(0.1 -0.1)">
      <defs>
       <path id="DejaVuSans-33" d="M 2597 2516 
Q 3050 2419 3304 2112 
Q 3559 1806 3559 1356 
Q 3559 666 3084 287 
Q 2609 -91 1734 -91 
Q 1441 -91 1130 -33 
Q 819 25 488 141 
L 488 750 
Q 750 597 1062 519 
Q 1375 441 1716 441 
Q 2309 441 2620 675 
Q 2931 909 2931 1356 
Q 2931 1769 2642 2001 
Q 2353 2234 1838 2234 
L 1294 2234 
L 1294 2753 
L 1863 2753 
Q 2328 2753 2575 2939 
Q 2822 3125 2822 3475 
Q 2822 3834 2567 4026 
Q 2313 4219 1838 4219 
Q 1578 4219 1281 4162 
Q 984 4106 628 3988 
L 628 4550 
Q 988 4650 1302 4700 
Q 1616 4750 1894 4750 
Q 2613 4750 3031 4423 
Q 3450 4097 3450 3541 
Q 3450 3153 3228 2886 
Q 3006 2619 2597 2516 
z
" transform="scale(0.015625)"/>
      </defs>
      <use xlink:href="#DejaVuSans-31"/>
      <use xlink:href="#DejaVuSans-33" transform="translate(63.623047 0)"/>
      <use xlink:href="#DejaVuSans-2e" transform="translate(127.246094 0)"/>
      <use xlink:href="#DejaVuSans-30" transform="translate(159.033203 0)"/>
      <use xlink:href="#DejaVuSans-30" transform="translate(222.65625 0)"/>
      <use xlink:href="#DejaVuSans-20" transform="translate(286.279297 0)"/>
      <use xlink:href="#DejaVuSans-47" transform="translate(318.066406 0)"/>
      <use xlink:href="#DejaVuSans-48" transform="translate(395.556641 0)"/>
      <use xlink:href="#DejaVuSans-7a" transform="translate(470.751953 0)"/>
      <use xlink:href="#DejaVuSans-20" transform="translate(523.242188 0)"/>
      <use xlink:href="#DejaVuSans-28" transform="translate(555.029297 0)"/>
      <use xlink:href="#DejaVuSans-54" transform="translate(594.042969 0)"/>
      <use xlink:href="#DejaVuSans-61" transform="translate(638.626953 0)"/>
      <use xlink:href="#DejaVuSans-72" transform="translate(699.90625 0)"/>
      <use xlink:href="#DejaVuSans-67" transform="translate(739.269531 0)"/>
      <use xlink:href="#DejaVuSans-65" transform="translate(802.746094 0)"/>
      <use xlink:href="#DejaVuSans-74" transform="translate(864.269531 0)"/>
      <use xlink:href="#DejaVuSans-3a" transform="translate(903.478516 0)"/>
      <use xlink:href="#DejaVuSans-20" transform="translate(937.169922 0)"/>
      <use xlink:href="#DejaVuSans-34" transform="translate(968.957031 0)"/>
      <use xlink:href="#DejaVuSans-38" transform="translate(1032.580078 0)"/>
      <use xlink:href="#DejaVuSans-2e" transform="translate(1096.203125 0)"/>
      <use xlink:href="#DejaVuSans-30" transform="translate(1127.990234 0)"/>
      <use xlink:href="#DejaVuSans-29" transform="translate(1191.613281 0)"/>
     </g>
    </g>
    <g id="line2d_32">
     <path d="M 856.121525 452.225588 
L 866.121525 452.225588 
L 876.121525 452.225588 
" style="fill: none; stroke: #bcbd22; stroke-opacity: 0.99; stroke-width: 0.2; stroke-linecap: square"/>
    </g>
    <g id="text_27">
     <!-- 13.05 GHz (Target: 48.0) -->
     <g transform="translate(884.121525 455.725588) scale(0.1 -0.1)">
      <use xlink:href="#DejaVuSans-31"/>
      <use xlink:href="#DejaVuSans-33" transform="translate(63.623047 0)"/>
      <use xlink:href="#DejaVuSans-2e" transform="translate(127.246094 0)"/>
      <use xlink:href="#DejaVuSans-30" transform="translate(159.033203 0)"/>
      <use xlink:href="#DejaVuSans-35" transform="translate(222.65625 0)"/>
      <use xlink:href="#DejaVuSans-20" transform="translate(286.279297 0)"/>
      <use xlink:href="#DejaVuSans-47" transform="translate(318.066406 0)"/>
      <use xlink:href="#DejaVuSans-48" transform="translate(395.556641 0)"/>
      <use xlink:href="#DejaVuSans-7a" transform="translate(470.751953 0)"/>
      <use xlink:href="#DejaVuSans-20" transform="translate(523.242188 0)"/>
      <use xlink:href="#DejaVuSans-28" transform="translate(555.029297 0)"/>
      <use xlink:href="#DejaVuSans-54" transform="translate(594.042969 0)"/>
      <use xlink:href="#DejaVuSans-61" transform="translate(638.626953 0)"/>
      <use xlink:href="#DejaVuSans-72" transform="translate(699.90625 0)"/>
      <use xlink:href="#DejaVuSans-67" transform="translate(739.269531 0)"/>
      <use xlink:href="#DejaVuSans-65" transform="translate(802.746094 0)"/>
      <use xlink:href="#DejaVuSans-74" transform="translate(864.269531 0)"/>
      <use xlink:href="#DejaVuSans-3a" transform="translate(903.478516 0)"/>
      <use xlink:href="#DejaVuSans-20" transform="translate(937.169922 0)"/>
      <use xlink:href="#DejaVuSans-34" transform="translate(968.957031 0)"/>
      <use xlink:href="#DejaVuSans-38" transform="translate(1032.580078 0)"/>
      <use xlink:href="#DejaVuSans-2e" transform="translate(1096.203125 0)"/>
      <use xlink:href="#DejaVuSans-30" transform="translate(1127.990234 0)"/>
      <use xlink:href="#DejaVuSans-29" transform="translate(1191.613281 0)"/>
     </g>
    </g>
    <g id="line2d_33">
     <path d="M 856.121525 466.903713 
L 866.121525 466.903713 
L 876.121525 466.903713 
" style="fill: none; stroke: #17becf; stroke-opacity: 0.99; stroke-width: 0.2; stroke-linecap: square"/>
    </g>
    <g id="text_28">
     <!-- 13.10 GHz (Target: 47.5) -->
     <g transform="translate(884.121525 470.403713) scale(0.1 -0.1)">
      <use xlink:href="#DejaVuSans-31"/>
      <use xlink:href="#DejaVuSans-33" transform="translate(63.623047 0)"/>
      <use xlink:href="#DejaVuSans-2e" transform="translate(127.246094 0)"/>
      <use xlink:href="#DejaVuSans-31" transform="translate(159.033203 0)"/>
      <use xlink:href="#DejaVuSans-30" transform="translate(222.65625 0)"/>
      <use xlink:href="#DejaVuSans-20" transform="translate(286.279297 0)"/>
      <use xlink:href="#DejaVuSans-47" transform="translate(318.066406 0)"/>
      <use xlink:href="#DejaVuSans-48" transform="translate(395.556641 0)"/>
      <use xlink:href="#DejaVuSans-7a" transform="translate(470.751953 0)"/>
      <use xlink:href="#DejaVuSans-20" transform="translate(523.242188 0)"/>
      <use xlink:href="#DejaVuSans-28" transform="translate(555.029297 0)"/>
      <use xlink:href="#DejaVuSans-54" transform="translate(594.042969 0)"/>
      <use xlink:href="#DejaVuSans-61" transform="translate(638.626953 0)"/>
      <use xlink:href="#DejaVuSans-72" transform="translate(699.90625 0)"/>
      <use xlink:href="#DejaVuSans-67" transform="translate(739.269531 0)"/>
      <use xlink:href="#DejaVuSans-65" transform="translate(802.746094 0)"/>
      <use xlink:href="#DejaVuSans-74" transform="translate(864.269531 0)"/>
      <use xlink:href="#DejaVuSans-3a" transform="translate(903.478516 0)"/>
      <use xlink:href="#DejaVuSans-20" transform="translate(937.169922 0)"/>
      <use xlink:href="#DejaVuSans-34" transform="translate(968.957031 0)"/>
      <use xlink:href="#DejaVuSans-37" transform="translate(1032.580078 0)"/>
      <use xlink:href="#DejaVuSans-2e" transform="translate(1096.203125 0)"/>
      <use xlink:href="#DejaVuSans-35" transform="translate(1127.990234 0)"/>
      <use xlink:href="#DejaVuSans-29" transform="translate(1191.613281 0)"/>
     </g>
    </g>
    <g id="line2d_34">
     <path d="M 856.121525 481.581838 
L 866.121525 481.581838 
L 876.121525 481.581838 
" style="fill: none; stroke: #1f77b4; stroke-opacity: 0.99; stroke-width: 0.2; stroke-linecap: square"/>
    </g>
    <g id="text_29">
     <!-- 13.15 GHz (Target: 47.0) -->
     <g transform="translate(884.121525 485.081838) scale(0.1 -0.1)">
      <use xlink:href="#DejaVuSans-31"/>
      <use xlink:href="#DejaVuSans-33" transform="translate(63.623047 0)"/>
      <use xlink:href="#DejaVuSans-2e" transform="translate(127.246094 0)"/>
      <use xlink:href="#DejaVuSans-31" transform="translate(159.033203 0)"/>
      <use xlink:href="#DejaVuSans-35" transform="translate(222.65625 0)"/>
      <use xlink:href="#DejaVuSans-20" transform="translate(286.279297 0)"/>
      <use xlink:href="#DejaVuSans-47" transform="translate(318.066406 0)"/>
      <use xlink:href="#DejaVuSans-48" transform="translate(395.556641 0)"/>
      <use xlink:href="#DejaVuSans-7a" transform="translate(470.751953 0)"/>
      <use xlink:href="#DejaVuSans-20" transform="translate(523.242188 0)"/>
      <use xlink:href="#DejaVuSans-28" transform="translate(555.029297 0)"/>
      <use xlink:href="#DejaVuSans-54" transform="translate(594.042969 0)"/>
      <use xlink:href="#DejaVuSans-61" transform="translate(638.626953 0)"/>
      <use xlink:href="#DejaVuSans-72" transform="translate(699.90625 0)"/>
      <use xlink:href="#DejaVuSans-67" transform="translate(739.269531 0)"/>
      <use xlink:href="#DejaVuSans-65" transform="translate(802.746094 0)"/>
      <use xlink:href="#DejaVuSans-74" transform="translate(864.269531 0)"/>
      <use xlink:href="#DejaVuSans-3a" transform="translate(903.478516 0)"/>
      <use xlink:href="#DejaVuSans-20" transform="translate(937.169922 0)"/>
      <use xlink:href="#DejaVuSans-34" transform="translate(968.957031 0)"/>
      <use xlink:href="#DejaVuSans-37" transform="translate(1032.580078 0)"/>
      <use xlink:href="#DejaVuSans-2e" transform="translate(1096.203125 0)"/>
      <use xlink:href="#DejaVuSans-30" transform="translate(1127.990234 0)"/>
      <use xlink:href="#DejaVuSans-29" transform="translate(1191.613281 0)"/>
     </g>
    </g>
    <g id="line2d_35">
     <path d="M 856.121525 496.259963 
L 866.121525 496.259963 
L 876.121525 496.259963 
" style="fill: none; stroke: #ff7f0e; stroke-opacity: 0.99; stroke-width: 0.2; stroke-linecap: square"/>
    </g>
    <g id="text_30">
     <!-- 13.20 GHz (Target: 47.0) -->
     <g transform="translate(884.121525 499.759963) scale(0.1 -0.1)">
      <use xlink:href="#DejaVuSans-31"/>
      <use xlink:href="#DejaVuSans-33" transform="translate(63.623047 0)"/>
      <use xlink:href="#DejaVuSans-2e" transform="translate(127.246094 0)"/>
      <use xlink:href="#DejaVuSans-32" transform="translate(159.033203 0)"/>
      <use xlink:href="#DejaVuSans-30" transform="translate(222.65625 0)"/>
      <use xlink:href="#DejaVuSans-20" transform="translate(286.279297 0)"/>
      <use xlink:href="#DejaVuSans-47" transform="translate(318.066406 0)"/>
      <use xlink:href="#DejaVuSans-48" transform="translate(395.556641 0)"/>
      <use xlink:href="#DejaVuSans-7a" transform="translate(470.751953 0)"/>
      <use xlink:href="#DejaVuSans-20" transform="translate(523.242188 0)"/>
      <use xlink:href="#DejaVuSans-28" transform="translate(555.029297 0)"/>
      <use xlink:href="#DejaVuSans-54" transform="translate(594.042969 0)"/>
      <use xlink:href="#DejaVuSans-61" transform="translate(638.626953 0)"/>
      <use xlink:href="#DejaVuSans-72" transform="translate(699.90625 0)"/>
      <use xlink:href="#DejaVuSans-67" transform="translate(739.269531 0)"/>
      <use xlink:href="#DejaVuSans-65" transform="translate(802.746094 0)"/>
      <use xlink:href="#DejaVuSans-74" transform="translate(864.269531 0)"/>
      <use xlink:href="#DejaVuSans-3a" transform="translate(903.478516 0)"/>
      <use xlink:href="#DejaVuSans-20" transform="translate(937.169922 0)"/>
      <use xlink:href="#DejaVuSans-34" transform="translate(968.957031 0)"/>
      <use xlink:href="#DejaVuSans-37" transform="translate(1032.580078 0)"/>
      <use xlink:href="#DejaVuSans-2e" transform="translate(1096.203125 0)"/>
      <use xlink:href="#DejaVuSans-30" transform="translate(1127.990234 0)"/>
      <use xlink:href="#DejaVuSans-29" transform="translate(1191.613281 0)"/>
     </g>
    </g>
    <g id="line2d_36">
     <path d="M 856.121525 510.938088 
L 866.121525 510.938088 
L 876.121525 510.938088 
" style="fill: none; stroke: #2ca02c; stroke-opacity: 0.99; stroke-width: 0.2; stroke-linecap: square"/>
    </g>
    <g id="text_31">
     <!-- 13.25 GHz (Target: 46.5) -->
     <g transform="translate(884.121525 514.438088) scale(0.1 -0.1)">
      <use xlink:href="#DejaVuSans-31"/>
      <use xlink:href="#DejaVuSans-33" transform="translate(63.623047 0)"/>
      <use xlink:href="#DejaVuSans-2e" transform="translate(127.246094 0)"/>
      <use xlink:href="#DejaVuSans-32" transform="translate(159.033203 0)"/>
      <use xlink:href="#DejaVuSans-35" transform="translate(222.65625 0)"/>
      <use xlink:href="#DejaVuSans-20" transform="translate(286.279297 0)"/>
      <use xlink:href="#DejaVuSans-47" transform="translate(318.066406 0)"/>
      <use xlink:href="#DejaVuSans-48" transform="translate(395.556641 0)"/>
      <use xlink:href="#DejaVuSans-7a" transform="translate(470.751953 0)"/>
      <use xlink:href="#DejaVuSans-20" transform="translate(523.242188 0)"/>
      <use xlink:href="#DejaVuSans-28" transform="translate(555.029297 0)"/>
      <use xlink:href="#DejaVuSans-54" transform="translate(594.042969 0)"/>
      <use xlink:href="#DejaVuSans-61" transform="translate(638.626953 0)"/>
      <use xlink:href="#DejaVuSans-72" transform="translate(699.90625 0)"/>
      <use xlink:href="#DejaVuSans-67" transform="translate(739.269531 0)"/>
      <use xlink:href="#DejaVuSans-65" transform="translate(802.746094 0)"/>
      <use xlink:href="#DejaVuSans-74" transform="translate(864.269531 0)"/>
      <use xlink:href="#DejaVuSans-3a" transform="translate(903.478516 0)"/>
      <use xlink:href="#DejaVuSans-20" transform="translate(937.169922 0)"/>
      <use xlink:href="#DejaVuSans-34" transform="translate(968.957031 0)"/>
      <use xlink:href="#DejaVuSans-36" transform="translate(1032.580078 0)"/>
      <use xlink:href="#DejaVuSans-2e" transform="translate(1096.203125 0)"/>
      <use xlink:href="#DejaVuSans-35" transform="translate(1127.990234 0)"/>
      <use xlink:href="#DejaVuSans-29" transform="translate(1191.613281 0)"/>
     </g>
    </g>
    <g id="line2d_37">
     <path d="M 856.121525 525.616213 
L 866.121525 525.616213 
L 876.121525 525.616213 
" style="fill: none; stroke: #d62728; stroke-opacity: 0.99; stroke-width: 0.2; stroke-linecap: square"/>
    </g>
    <g id="text_32">
     <!-- 13.30 GHz (Target: 46.0) -->
     <g transform="translate(884.121525 529.116213) scale(0.1 -0.1)">
      <use xlink:href="#DejaVuSans-31"/>
      <use xlink:href="#DejaVuSans-33" transform="translate(63.623047 0)"/>
      <use xlink:href="#DejaVuSans-2e" transform="translate(127.246094 0)"/>
      <use xlink:href="#DejaVuSans-33" transform="translate(159.033203 0)"/>
      <use xlink:href="#DejaVuSans-30" transform="translate(222.65625 0)"/>
      <use xlink:href="#DejaVuSans-20" transform="translate(286.279297 0)"/>
      <use xlink:href="#DejaVuSans-47" transform="translate(318.066406 0)"/>
      <use xlink:href="#DejaVuSans-48" transform="translate(395.556641 0)"/>
      <use xlink:href="#DejaVuSans-7a" transform="translate(470.751953 0)"/>
      <use xlink:href="#DejaVuSans-20" transform="translate(523.242188 0)"/>
      <use xlink:href="#DejaVuSans-28" transform="translate(555.029297 0)"/>
      <use xlink:href="#DejaVuSans-54" transform="translate(594.042969 0)"/>
      <use xlink:href="#DejaVuSans-61" transform="translate(638.626953 0)"/>
      <use xlink:href="#DejaVuSans-72" transform="translate(699.90625 0)"/>
      <use xlink:href="#DejaVuSans-67" transform="translate(739.269531 0)"/>
      <use xlink:href="#DejaVuSans-65" transform="translate(802.746094 0)"/>
      <use xlink:href="#DejaVuSans-74" transform="translate(864.269531 0)"/>
      <use xlink:href="#DejaVuSans-3a" transform="translate(903.478516 0)"/>
      <use xlink:href="#DejaVuSans-20" transform="translate(937.169922 0)"/>
      <use xlink:href="#DejaVuSans-34" transform="translate(968.957031 0)"/>
      <use xlink:href="#DejaVuSans-36" transform="translate(1032.580078 0)"/>
      <use xlink:href="#DejaVuSans-2e" transform="translate(1096.203125 0)"/>
      <use xlink:href="#DejaVuSans-30" transform="translate(1127.990234 0)"/>
      <use xlink:href="#DejaVuSans-29" transform="translate(1191.613281 0)"/>
     </g>
    </g>
    <g id="line2d_38">
     <path d="M 856.121525 540.294338 
L 866.121525 540.294338 
L 876.121525 540.294338 
" style="fill: none; stroke: #000000; stroke-width: 1.5; stroke-linecap: square"/>
     <defs>
      <path id="m7e9221f2f3" d="M -0.025 0.05 
L 0 0.025 
L 0.025 0.05 
L 0.05 0.025 
L 0.025 0 
L 0.05 -0.025 
L 0.025 -0.05 
L 0 -0.025 
L -0.025 -0.05 
L -0.05 -0.025 
L -0.025 0 
L -0.05 0.025 
z
" style="stroke: #000000; stroke-linejoin: miter"/>
     </defs>
     <g>
      <use xlink:href="#m7e9221f2f3" x="866.121525" y="540.294338" style="stroke: #000000; stroke-linejoin: miter"/>
     </g>
    </g>
    <g id="text_33">
     <!-- Optimum Target -->
     <g transform="translate(884.121525 543.794338) scale(0.1 -0.1)">
      <use xlink:href="#DejaVuSans-4f"/>
      <use xlink:href="#DejaVuSans-70" transform="translate(78.710938 0)"/>
      <use xlink:href="#DejaVuSans-74" transform="translate(142.1875 0)"/>
      <use xlink:href="#DejaVuSans-69" transform="translate(181.396484 0)"/>
      <use xlink:href="#DejaVuSans-6d" transform="translate(209.179688 0)"/>
      <use xlink:href="#DejaVuSans-75" transform="translate(306.591797 0)"/>
      <use xlink:href="#DejaVuSans-6d" transform="translate(369.970703 0)"/>
      <use xlink:href="#DejaVuSans-20" transform="translate(467.382812 0)"/>
      <use xlink:href="#DejaVuSans-54" transform="translate(499.169922 0)"/>
      <use xlink:href="#DejaVuSans-61" transform="translate(543.753906 0)"/>
      <use xlink:href="#DejaVuSans-72" transform="translate(605.033203 0)"/>
      <use xlink:href="#DejaVuSans-67" transform="translate(644.396484 0)"/>
      <use xlink:href="#DejaVuSans-65" transform="translate(707.873047 0)"/>
      <use xlink:href="#DejaVuSans-74" transform="translate(769.396484 0)"/>
     </g>
    </g>
   </g>
   <g id="patch_28">
    <path d="M 607.738183 750.483283 
L 608.475544 748.793709 
L 608.691856 749.697747 
L 608.847618 751.097246 
L 608.36015 751.488559 
L 607.388534 751.097246 
z
" clip-path="url(#p15b10c5e17)" style="fill: #ff0000; opacity: 0.6; stroke: #ff0000; stroke-linejoin: miter"/>
   </g>
   <g id="line2d_39">
    <path d="M 607.738183 750.483283 
L 608.475544 748.793709 
L 608.691856 749.697747 
L 608.847618 751.097246 
L 608.36015 751.488559 
L 607.388534 751.097246 
L 607.738183 750.483283 
" clip-path="url(#p15b10c5e17)" style="fill: none; stroke-dasharray: 0.74,0.32; stroke-dashoffset: 0; stroke: #000000; stroke-width: 0.2"/>
   </g>
   <g id="line2d_40">
    <path d="M 608.262367 750.447099 
" clip-path="url(#p15b10c5e17)" style="fill: none; stroke: #000000; stroke-width: 1.5; stroke-linecap: square"/>
    <g clip-path="url(#p15b10c5e17)">
     <use xlink:href="#m7e9221f2f3" x="608.262367" y="750.447099" style="stroke: #000000; stroke-linejoin: miter"/>
    </g>
   </g>
  </g>
 </g>
 <defs>
  <clipPath id="p15b10c5e17">
   <rect x="23.103125" y="34.3575" width="807.861176" height="807.861176"/>
  </clipPath>
  <clipPath id="pbf0497836b">
   <path d="M 427.033713 834.298469 
C 532.056894 834.298469 632.792736 792.572317 707.055339 718.309714 
C 781.317942 644.047111 823.044094 543.311269 823.044094 438.288088 
C 823.044094 333.264908 781.317942 232.529066 707.055339 158.266463 
C 632.792736 84.00386 532.056894 42.277708 427.033713 42.277708 
C 322.010533 42.277708 221.274691 84.00386 147.012088 158.266463 
C 72.749485 232.529066 31.023333 333.264908 31.023333 438.288088 
C 31.023333 543.311269 72.749485 644.047111 147.012088 718.309714 
C 221.274691 792.572317 322.010533 834.298469 427.033713 834.298469 
z
"/>
  </clipPath>
 </defs>
</svg>
