<?xml version="1.0" encoding="utf-8" standalone="no"?>
<!DOCTYPE svg PUBLIC "-//W3C//DTD SVG 1.1//EN"
  "http://www.w3.org/Graphics/SVG/1.1/DTD/svg11.dtd">
<svg xmlns:xlink="http://www.w3.org/1999/xlink" width="1018.382462pt" height="855.136698pt" viewBox="0 0 1018.382462 855.136698" xmlns="http://www.w3.org/2000/svg" version="1.1">
 <metadata>
  <rdf:RDF xmlns:dc="http://purl.org/dc/elements/1.1/" xmlns:cc="http://creativecommons.org/ns#" xmlns:rdf="http://www.w3.org/1999/02/22-rdf-syntax-ns#">
   <cc:Work>
    <dc:type rdf:resource="http://purl.org/dc/dcmitype/StillImage"/>
    <dc:date>2026-02-25T13:48:47.727274</dc:date>
    <dc:format>image/svg+xml</dc:format>
    <dc:creator>
     <cc:Agent>
      <dc:title>Matplotlib v3.10.8, https://matplotlib.org/</dc:title>
     </cc:Agent>
    </dc:creator>
   </cc:Work>
  </rdf:RDF>
 </metadata>
 <defs>
  <style type="text/css">*{stroke-linejoin: round; stroke-linecap: butt}</style>
 </defs>
 <g id="figure_1">
  <g id="patch_1">
   <path d="M 0 855.136698 
L 1018.382462 855.136698 
L 1018.382462 0 
L 0 0 
z
" style="fill: #ffffff"/>
  </g>
  <g id="axes_1">
   <g id="patch_2">
    <path d="M 23.103125 842.218676 
L 830.964301 842.218676 
L 830.964301 34.3575 
L 23.103125 34.3575 
z
" style="fill: #ffffff"/>
   </g>
   <g id="patch_3">
    <path d="M 427.033713 834.298469 
C 532.056894 834.298469 632.792736 792.572317 707.055339 718.309714 
C 781.317942 644.047111 823.044094 543.311269 823.044094 438.288088 
C 823.044094 333.264908 781.317942 232.529066 707.055339 158.266463 
C 632.792736 84.00386 532.056894 42.277708 427.033713 42.277708 
C 322.010533 42.277708 221.274691 84.00386 147.012088 158.266463 
C 72.749485 232.529066 31.023333 333.264908 31.023333 438.288088 
C 31.023333 543.311269 72.749485 644.047111 147.012088 718.309714 
C 221.274691 792.572317 322.010533 834.298469 427.033713 834.298469 
L 427.033713 834.298469 
z
" clip-path="url(#pd1100dcdf5)" style="fill: none; stroke: #000000; stroke-linejoin: miter"/>
   </g>
   <g id="patch_4">
    <path d="M 493.035443 768.296739 
C 580.55476 768.296739 664.501295 733.524946 726.386798 671.639443 
C 788.272301 609.75394 823.044094 525.807405 823.044094 438.288088 
C 823.044094 350.768771 788.272301 266.822236 726.386798 204.936734 
C 664.501295 143.051231 580.55476 108.279438 493.035443 108.279438 
C 405.516126 108.279438 321.569591 143.051231 259.684089 204.936734 
C 197.798586 266.822236 163.026793 350.768771 163.026793 438.288088 
C 163.026793 525.807405 197.798586 609.75394 259.684089 671.639443 
C 321.569591 733.524946 405.516126 768.296739 493.035443 768.296739 
L 493.035443 768.296739 
z
" clip-path="url(#p388d0969f5)" style="fill: none; stroke: #808080; stroke-linejoin: miter"/>
   </g>
   <g id="patch_5">
    <path d="M 559.037173 702.295009 
C 629.052627 702.295009 696.209855 674.477574 745.718257 624.969172 
C 795.226659 575.46077 823.044094 508.303542 823.044094 438.288088 
C 823.044094 368.272635 795.226659 301.115407 745.718257 251.607005 
C 696.209855 202.098602 629.052627 174.281168 559.037173 174.281168 
C 489.02172 174.281168 421.864492 202.098602 372.35609 251.607005 
C 322.847688 301.115407 295.030253 368.272635 295.030253 438.288088 
C 295.030253 508.303542 322.847688 575.46077 372.35609 624.969172 
C 421.864492 674.477574 489.02172 702.295009 559.037173 702.295009 
L 559.037173 702.295009 
z
" clip-path="url(#p388d0969f5)" style="fill: none; stroke: #808080; stroke-linejoin: miter"/>
   </g>
   <g id="patch_6">
    <path d="M 625.038904 636.293279 
C 677.550494 636.293279 727.918415 615.430203 765.049716 578.298901 
C 802.181018 541.167599 823.044094 490.799679 823.044094 438.288088 
C 823.044094 385.776498 802.181018 335.408577 765.049716 298.277275 
C 727.918415 261.145974 677.550494 240.282898 625.038904 240.282898 
C 572.527313 240.282898 522.159392 261.145974 485.028091 298.277275 
C 447.896789 335.408577 427.033713 385.776498 427.033713 438.288088 
C 427.033713 490.799679 447.896789 541.167599 485.028091 578.298901 
C 522.159392 615.430203 572.527313 636.293279 625.038904 636.293279 
L 625.038904 636.293279 
z
" clip-path="url(#p388d0969f5)" style="fill: none; stroke: #808080; stroke-linejoin: miter"/>
   </g>
   <g id="patch_7">
    <path d="M 691.040634 570.291548 
C 726.048361 570.291548 759.626974 556.382831 784.381176 531.62863 
C 809.135377 506.874429 823.044094 473.295815 823.044094 438.288088 
C 823.044094 403.280361 809.135377 369.701747 784.381176 344.947546 
C 759.626974 320.193345 726.048361 306.284628 691.040634 306.284628 
C 656.032907 306.284628 622.454293 320.193345 597.700092 344.947546 
C 572.945891 369.701747 559.037173 403.280361 559.037173 438.288088 
C 559.037173 473.295815 572.945891 506.874429 597.700092 531.62863 
C 622.454293 556.382831 656.032907 570.291548 691.040634 570.291548 
L 691.040634 570.291548 
z
" clip-path="url(#p388d0969f5)" style="fill: none; stroke: #808080; stroke-linejoin: miter"/>
   </g>
   <g id="patch_8">
    <path d="M 757.042364 504.289818 
C 774.546227 504.289818 791.335534 497.33546 803.712635 484.958359 
C 816.089735 472.581259 823.044094 455.791952 823.044094 438.288088 
C 823.044094 420.784225 816.089735 403.994918 803.712635 391.617817 
C 791.335534 379.240717 774.546227 372.286358 757.042364 372.286358 
C 739.5385 372.286358 722.749193 379.240717 710.372093 391.617817 
C 697.994992 403.994918 691.040634 420.784225 691.040634 438.288088 
C 691.040634 455.791952 697.994992 472.581259 710.372093 484.958359 
C 722.749193 497.33546 739.5385 504.289818 757.042364 504.289818 
L 757.042364 504.289818 
z
" clip-path="url(#p388d0969f5)" style="fill: none; stroke: #808080; stroke-linejoin: miter"/>
   </g>
   <g id="patch_9">
    <path d="M 823.044094 438.288088 
C 1348.159997 438.288088 1851.839206 229.657329 2223.152222 -141.655687 
C 2594.465237 -512.968703 2803.095997 -1016.647912 2803.095997 -1541.763815 
C 2803.095997 -2066.879718 2594.465237 -2570.558927 2223.152222 -2941.871943 
C 1851.839206 -3313.184958 1348.159997 -3521.815718 823.044094 -3521.815718 
C 297.928191 -3521.815718 -205.751018 -3313.184958 -577.064034 -2941.871943 
C -948.37705 -2570.558927 -1157.007809 -2066.879718 -1157.007809 -1541.763815 
C -1157.007809 -1016.647912 -948.37705 -512.968703 -577.064034 -141.655687 
C -205.751018 229.657329 297.928191 438.288088 823.044094 438.288088 
L 823.044094 438.288088 
z
" clip-path="url(#p388d0969f5)" style="fill: none; stroke: #808080; stroke-linejoin: miter"/>
   </g>
   <g id="patch_10">
    <path d="M 823.044094 438.288088 
C 1033.090455 438.288088 1234.562139 354.835784 1383.087345 206.310578 
C 1531.612551 57.785372 1615.064855 -143.686312 1615.064855 -353.732673 
C 1615.064855 -563.779034 1531.612551 -765.250718 1383.087345 -913.775924 
C 1234.562139 -1062.30113 1033.090455 -1145.753434 823.044094 -1145.753434 
C 612.997733 -1145.753434 411.526049 -1062.30113 263.000843 -913.775924 
C 114.475636 -765.250718 31.023333 -563.779034 31.023333 -353.732673 
C 31.023333 -143.686312 114.475636 57.785372 263.000843 206.310578 
C 411.526049 354.835784 612.997733 438.288088 823.044094 438.288088 
L 823.044094 438.288088 
z
" clip-path="url(#p388d0969f5)" style="fill: none; stroke: #808080; stroke-linejoin: miter"/>
   </g>
   <g id="patch_11">
    <path d="M 823.044094 438.288088 
C 928.067274 438.288088 1028.803116 396.561936 1103.065719 322.299333 
C 1177.328323 248.03673 1219.054474 147.300888 1219.054474 42.277708 
C 1219.054474 -62.745473 1177.328323 -163.481315 1103.065719 -237.743918 
C 1028.803116 -312.006521 928.067274 -353.732673 823.044094 -353.732673 
C 718.020913 -353.732673 617.285071 -312.006521 543.022468 -237.743918 
C 468.759865 -163.481315 427.033713 -62.745473 427.033713 42.277708 
C 427.033713 147.300888 468.759865 248.03673 543.022468 322.299333 
C 617.285071 396.561936 718.020913 438.288088 823.044094 438.288088 
L 823.044094 438.288088 
z
" clip-path="url(#p388d0969f5)" style="fill: none; stroke: #808080; stroke-linejoin: miter"/>
   </g>
   <g id="patch_12">
    <path d="M 823.044094 438.288088 
C 875.555684 438.288088 925.923605 417.425012 963.054907 380.293711 
C 1000.186208 343.162409 1021.049284 292.794488 1021.049284 240.282898 
C 1021.049284 187.771308 1000.186208 137.403387 963.054907 100.272085 
C 925.923605 63.140784 875.555684 42.277708 823.044094 42.277708 
C 770.532504 42.277708 720.164583 63.140784 683.033281 100.272085 
C 645.901979 137.403387 625.038904 187.771308 625.038904 240.282898 
C 625.038904 292.794488 645.901979 343.162409 683.033281 380.293711 
C 720.164583 417.425012 770.532504 438.288088 823.044094 438.288088 
L 823.044094 438.288088 
z
" clip-path="url(#p388d0969f5)" style="fill: none; stroke: #808080; stroke-linejoin: miter"/>
   </g>
   <g id="patch_13">
    <path d="M 823.044094 438.288088 
C 844.04873 438.288088 864.195898 429.942858 879.048419 415.090337 
C 893.90094 400.237817 902.24617 380.090648 902.24617 359.086012 
C 902.24617 338.081376 893.90094 317.934208 879.048419 303.081687 
C 864.195898 288.229166 844.04873 279.883936 823.044094 279.883936 
C 802.039458 279.883936 781.892289 288.229166 767.039769 303.081687 
C 752.187248 317.934208 743.842018 338.081376 743.842018 359.086012 
C 743.842018 380.090648 752.187248 400.237817 767.039769 415.090337 
C 781.892289 429.942858 802.039458 438.288088 823.044094 438.288088 
L 823.044094 438.288088 
z
" clip-path="url(#p388d0969f5)" style="fill: none; stroke: #808080; stroke-linejoin: miter"/>
   </g>
   <g id="patch_14">
    <path d="M 823.044094 438.288088 
C 297.928191 438.288088 -205.751018 646.918848 -577.064034 1018.231864 
C -948.37705 1389.544879 -1157.007809 1893.224088 -1157.007809 2418.339991 
C -1157.007809 2943.455894 -948.37705 3447.135103 -577.064034 3818.448119 
C -205.751018 4189.761135 297.928191 4398.391894 823.044094 4398.391894 
C 1348.159997 4398.391894 1851.839206 4189.761135 2223.152222 3818.448119 
C 2594.465237 3447.135103 2803.095997 2943.455894 2803.095997 2418.339991 
C 2803.095997 1893.224088 2594.465237 1389.544879 2223.152222 1018.231864 
C 1851.839206 646.918848 1348.159997 438.288088 823.044094 438.288088 
L 823.044094 438.288088 
z
" clip-path="url(#p388d0969f5)" style="fill: none; stroke: #808080; stroke-linejoin: miter"/>
   </g>
   <g id="patch_15">
    <path d="M 823.044094 438.288088 
C 612.997733 438.288088 411.526049 521.740392 263.000843 670.265598 
C 114.475636 818.790805 31.023333 1020.262488 31.023333 1230.308849 
C 31.023333 1440.355211 114.475636 1641.826894 263.000843 1790.352101 
C 411.526049 1938.877307 612.997733 2022.329611 823.044094 2022.329611 
C 1033.090455 2022.329611 1234.562139 1938.877307 1383.087345 1790.352101 
C 1531.612551 1641.826894 1615.064855 1440.355211 1615.064855 1230.308849 
C 1615.064855 1020.262488 1531.612551 818.790805 1383.087345 670.265598 
C 1234.562139 521.740392 1033.090455 438.288088 823.044094 438.288088 
L 823.044094 438.288088 
z
" clip-path="url(#p388d0969f5)" style="fill: none; stroke: #808080; stroke-linejoin: miter"/>
   </g>
   <g id="patch_16">
    <path d="M 823.044094 438.288088 
C 718.020913 438.288088 617.285071 480.01424 543.022468 554.276843 
C 468.759865 628.539446 427.033713 729.275288 427.033713 834.298469 
C 427.033713 939.321649 468.759865 1040.057491 543.022468 1114.320094 
C 617.285071 1188.582698 718.020913 1230.308849 823.044094 1230.308849 
C 928.067274 1230.308849 1028.803116 1188.582698 1103.065719 1114.320094 
C 1177.328323 1040.057491 1219.054474 939.321649 1219.054474 834.298469 
C 1219.054474 729.275288 1177.328323 628.539446 1103.065719 554.276843 
C 1028.803116 480.01424 928.067274 438.288088 823.044094 438.288088 
L 823.044094 438.288088 
z
" clip-path="url(#p388d0969f5)" style="fill: none; stroke: #808080; stroke-linejoin: miter"/>
   </g>
   <g id="patch_17">
    <path d="M 823.044094 438.288088 
C 770.532504 438.288088 720.164583 459.151164 683.033281 496.282466 
C 645.901979 533.413767 625.038904 583.781688 625.038904 636.293279 
C 625.038904 688.804869 645.901979 739.17279 683.033281 776.304091 
C 720.164583 813.435393 770.532504 834.298469 823.044094 834.298469 
C 875.555684 834.298469 925.923605 813.435393 963.054907 776.304091 
C 1000.186208 739.17279 1021.049284 688.804869 1021.049284 636.293279 
C 1021.049284 583.781688 1000.186208 533.413767 963.054907 496.282466 
C 925.923605 459.151164 875.555684 438.288088 823.044094 438.288088 
L 823.044094 438.288088 
z
" clip-path="url(#p388d0969f5)" style="fill: none; stroke: #808080; stroke-linejoin: miter"/>
   </g>
   <g id="patch_18">
    <path d="M 823.044094 438.288088 
C 802.039458 438.288088 781.892289 446.633319 767.039769 461.485839 
C 752.187248 476.33836 743.842018 496.485528 743.842018 517.490164 
C 743.842018 538.4948 752.187248 558.641969 767.039769 573.494489 
C 781.892289 588.34701 802.039458 596.69224 823.044094 596.69224 
C 844.04873 596.69224 864.195898 588.34701 879.048419 573.494489 
C 893.90094 558.641969 902.24617 538.4948 902.24617 517.490164 
C 902.24617 496.485528 893.90094 476.33836 879.048419 461.485839 
C 864.195898 446.633319 844.04873 438.288088 823.044094 438.288088 
L 823.044094 438.288088 
z
" clip-path="url(#p388d0969f5)" style="fill: none; stroke: #808080; stroke-linejoin: miter"/>
   </g>
   <g id="patch_19">
    <path d="M 427.033713 834.298469 
C 532.056894 834.298469 632.792736 792.572317 707.055339 718.309714 
C 781.317942 644.047111 823.044094 543.311269 823.044094 438.288088 
C 823.044094 333.264908 781.317942 232.529066 707.055339 158.266463 
C 632.792736 84.00386 532.056894 42.277708 427.033713 42.277708 
C 322.010533 42.277708 221.274691 84.00386 147.012088 158.266463 
C 72.749485 232.529066 31.023333 333.264908 31.023333 438.288088 
C 31.023333 543.311269 72.749485 644.047111 147.012088 718.309714 
C 221.274691 792.572317 322.010533 834.298469 427.033713 834.298469 
L 427.033713 834.298469 
z
" clip-path="url(#p388d0969f5)" style="fill: none; stroke: #000000; stroke-linejoin: miter"/>
   </g>
   <g id="patch_20">
    <path d="M 625.038904 636.293279 
C 677.550494 636.293279 727.918415 615.430203 765.049716 578.298901 
C 802.181018 541.167599 823.044094 490.799679 823.044094 438.288088 
C 823.044094 385.776498 802.181018 335.408577 765.049716 298.277275 
C 727.918415 261.145974 677.550494 240.282898 625.038904 240.282898 
C 572.527313 240.282898 522.159392 261.145974 485.028091 298.277275 
C 447.896789 335.408577 427.033713 385.776498 427.033713 438.288088 
C 427.033713 490.799679 447.896789 541.167599 485.028091 578.298901 
C 522.159392 615.430203 572.527313 636.293279 625.038904 636.293279 
L 625.038904 636.293279 
z
" clip-path="url(#p388d0969f5)" style="fill: none; stroke: #000000; stroke-linejoin: miter"/>
   </g>
   <g id="patch_21">
    <path d="M 823.044094 438.288088 
C 928.067274 438.288088 1028.803116 396.561936 1103.065719 322.299333 
C 1177.328323 248.03673 1219.054474 147.300888 1219.054474 42.277708 
C 1219.054474 -62.745473 1177.328323 -163.481315 1103.065719 -237.743918 
C 1028.803116 -312.006521 928.067274 -353.732673 823.044094 -353.732673 
C 718.020913 -353.732673 617.285071 -312.006521 543.022468 -237.743918 
C 468.759865 -163.481315 427.033713 -62.745473 427.033713 42.277708 
C 427.033713 147.300888 468.759865 248.03673 543.022468 322.299333 
C 617.285071 396.561936 718.020913 438.288088 823.044094 438.288088 
L 823.044094 438.288088 
z
" clip-path="url(#p388d0969f5)" style="fill: none; stroke: #000000; stroke-linejoin: miter"/>
   </g>
   <g id="patch_22">
    <path d="M 823.044094 438.288088 
C 718.020913 438.288088 617.285071 480.01424 543.022468 554.276843 
C 468.759865 628.539446 427.033713 729.275288 427.033713 834.298469 
C 427.033713 939.321649 468.759865 1040.057491 543.022468 1114.320094 
C 617.285071 1188.582698 718.020913 1230.308849 823.044094 1230.308849 
C 928.067274 1230.308849 1028.803116 1188.582698 1103.065719 1114.320094 
C 1177.328323 1040.057491 1219.054474 939.321649 1219.054474 834.298469 
C 1219.054474 729.275288 1177.328323 628.539446 1103.065719 554.276843 
C 1028.803116 480.01424 928.067274 438.288088 823.044094 438.288088 
L 823.044094 438.288088 
z
" clip-path="url(#p388d0969f5)" style="fill: none; stroke: #000000; stroke-linejoin: miter"/>
   </g>
   <g id="matplotlib.axis_1"/>
   <g id="matplotlib.axis_2"/>
   <g id="line2d_1">
    <path d="M 23.103125 438.288088 
L 830.964301 438.288088 
" clip-path="url(#p388d0969f5)" style="fill: none; stroke: #000000; stroke-width: 0.1; stroke-linecap: square"/>
   </g>
   <g id="line2d_2">
    <path d="M 823.044094 842.218676 
L 823.044094 34.3575 
" clip-path="url(#p388d0969f5)" style="fill: none; stroke: #000000; stroke-width: 1.5; stroke-linecap: square"/>
   </g>
   <g id="line2d_3"/>
   <g id="line2d_4"/>
   <g id="line2d_5">
    <path d="M 240.831296 633.873033 
L 243.652571 631.169391 
L 246.362908 629.176736 
L 247.975789 628.73828 
L 252.334587 627.916104 
L 253.123257 627.72809 
L 253.790062 627.79454 
L 258.599323 628.410493 
L 259.883606 628.530625 
L 262.122419 629.362666 
L 263.774409 629.99184 
L 266.643955 631.027342 
L 268.428183 632.093212 
L 271.429646 633.873033 
L 272.582299 634.693008 
L 273.404304 635.259903 
L 276.138062 637.889679 
L 278.985525 640.616684 
L 279.517664 641.262075 
L 280.164653 642.024681 
L 282.291715 645.238527 
L 283.708568 647.360335 
L 284.748751 649.531211 
L 286.925003 653.954734 
L 286.967764 654.06133 
L 286.985077 654.103985 
L 287.00464 654.183426 
L 288.278819 659.497163 
L 288.617137 660.847636 
L 288.762525 662.68062 
L 288.958271 665.56304 
L 289.123173 667.591287 
L 288.922806 669.584156 
L 288.552636 672.711325 
L 288.38403 674.334938 
L 288.045217 675.452385 
L 286.925003 678.837729 
L 286.233113 680.388407 
L 285.885341 681.078588 
L 283.304822 684.211001 
L 280.164653 687.565047 
L 279.990851 687.648866 
L 279.444426 687.822239 
L 274.555477 688.970568 
L 273.404304 689.11693 
L 272.454487 688.76971 
L 268.676119 687.822239 
L 267.143246 687.324182 
L 266.643955 687.22685 
L 264.66782 685.850985 
L 263.034138 684.679489 
L 259.883606 682.769893 
L 258.999735 681.960276 
L 257.9679 681.078588 
L 255.609889 678.598098 
L 253.123257 676.284246 
L 252.24508 675.210945 
L 251.505447 674.334938 
L 249.441421 671.264029 
L 247.713989 668.939032 
L 246.728092 667.591287 
L 246.601557 667.353227 
L 246.362908 666.980054 
L 244.383107 662.822546 
L 243.340385 660.847636 
L 242.359976 658.09703 
L 241.40446 655.901436 
L 240.68495 654.103985 
L 240.519269 653.189539 
L 239.602558 649.900876 
L 239.158389 647.803407 
L 239.039228 647.360335 
L 238.989527 646.748817 
L 238.879748 641.337709 
L 238.812836 640.616684 
L 238.900859 639.916718 
L 239.602558 636.799544 
L 240.373297 634.641868 
L 240.831296 633.873033 
" clip-path="url(#pd1100dcdf5)" style="fill: none; stroke: #1f77b4; stroke-opacity: 0.99; stroke-width: 0.2; stroke-linecap: square"/>
   </g>
   <g id="line2d_6">
    <path d="M 244.253458 633.87104 
L 245.199576 632.71013 
L 246.363443 631.610497 
L 249.425593 630.181826 
L 250.400092 629.844645 
L 253.124203 628.767077 
L 254.707582 628.70681 
L 258.272458 628.735863 
L 259.884964 628.679731 
L 261.979294 629.216464 
L 263.999253 629.767202 
L 266.645724 630.416126 
L 268.980274 631.54242 
L 272.94464 633.410369 
L 273.406485 633.629819 
L 273.550237 633.727653 
L 273.760956 633.87104 
L 277.264827 636.766085 
L 280.167245 639.132868 
L 280.886519 639.89718 
L 281.56482 640.614627 
L 283.85155 643.683267 
L 285.714369 646.14766 
L 286.627579 647.358214 
L 286.731434 647.554286 
L 286.928005 647.914917 
L 288.807229 652.22735 
L 289.640891 654.1018 
L 290.488055 657.29438 
L 290.626611 657.79101 
L 291.454726 660.845387 
L 291.631205 662.89772 
L 291.923519 665.828211 
L 292.078804 667.588973 
L 291.887875 669.385289 
L 291.632805 672.281822 
L 291.405784 674.33256 
L 290.302527 677.69851 
L 290.295703 677.717004 
L 289.124216 681.076147 
L 288.296983 682.441647 
L 286.928005 684.472849 
L 285.164318 686.060526 
L 282.704676 687.819733 
L 281.029017 688.679316 
L 280.167245 689.029062 
L 279.06419 688.919986 
L 274.546937 688.957288 
L 273.406485 688.864594 
L 272.719214 688.505258 
L 271.03355 687.819733 
L 268.145912 686.323356 
L 266.645724 685.75562 
L 264.068485 683.646839 
L 260.490488 681.076147 
L 260.180269 680.781592 
L 259.884964 680.560674 
L 257.014063 677.196168 
L 254.295817 674.33256 
L 253.813978 673.644537 
L 253.124203 672.832976 
L 251.094831 669.613191 
L 249.680619 667.588973 
L 248.558866 665.399127 
L 246.363443 661.742888 
L 246.073883 661.134212 
L 245.924349 660.845387 
L 245.680176 660.163856 
L 244.350421 656.109709 
L 243.560114 654.1018 
L 242.879175 650.83363 
L 242.793939 650.541363 
L 242.032743 647.358214 
L 242.047367 644.91974 
L 241.867994 642.874184 
L 241.884356 640.614627 
L 242.896888 637.32879 
L 242.927707 637.187619 
L 244.253458 633.87104 
" clip-path="url(#pd1100dcdf5)" style="fill: none; stroke: #ff7f0e; stroke-opacity: 0.99; stroke-width: 0.2; stroke-linecap: square"/>
   </g>
   <g id="line2d_7">
    <path d="M 252.388967 640.615968 
L 252.691298 640.181246 
L 253.127099 639.724018 
L 254.681707 639.06521 
L 257.138003 637.87331 
L 259.887471 636.933638 
L 263.190425 637.321194 
L 263.353445 637.32973 
L 266.647842 637.673708 
L 268.681065 638.587781 
L 273.349235 640.557135 
L 273.408214 640.582654 
L 273.427845 640.596386 
L 273.456086 640.615968 
L 277.047047 643.729775 
L 280.168586 646.325487 
L 280.650589 646.878787 
L 281.071852 647.359595 
L 282.703063 649.887795 
L 283.3637 650.916022 
L 285.451481 654.103223 
L 285.870024 655.159534 
L 286.928958 657.627657 
L 287.72426 660.053518 
L 287.99435 660.84685 
L 288.178022 662.092821 
L 288.691888 665.831915 
L 288.957246 667.590478 
L 288.846404 669.503175 
L 288.577886 672.689262 
L 288.477713 674.334105 
L 288.118471 675.520672 
L 286.928958 678.846211 
L 286.081891 680.232764 
L 285.352283 681.077733 
L 282.22589 683.129941 
L 280.168586 684.105981 
L 277.56602 683.673853 
L 275.970571 683.633743 
L 273.408214 683.3002 
L 272.082736 682.399929 
L 269.541004 681.077733 
L 267.898405 679.830268 
L 266.647842 679.156371 
L 264.402228 676.574158 
L 261.982775 674.334105 
L 261.104697 673.119893 
L 259.887471 671.846514 
L 258.288794 669.185195 
L 257.133198 667.590478 
L 255.839001 664.885293 
L 253.498568 661.217399 
L 253.278444 660.84685 
L 253.246957 660.727289 
L 253.127099 660.448924 
L 251.744519 655.482378 
L 251.221982 654.103223 
L 250.945519 651.927046 
L 250.879397 649.60173 
L 250.522243 647.359595 
L 250.927252 645.165197 
L 252.15484 641.585818 
L 252.388967 640.615968 
" clip-path="url(#pd1100dcdf5)" style="fill: none; stroke: #2ca02c; stroke-opacity: 0.99; stroke-width: 0.2; stroke-linecap: square"/>
   </g>
   <g id="line2d_8">
    <path d="M 255.852231 647.357736 
L 257.416688 644.889078 
L 259.891529 642.277439 
L 261.195128 641.914484 
L 265.884304 641.379935 
L 266.652014 641.214988 
L 267.548588 641.508476 
L 271.1801 642.840964 
L 273.4125 643.490223 
L 275.74946 645.026615 
L 279.485784 647.357736 
L 279.857268 647.672665 
L 280.172985 647.910227 
L 282.992621 651.288739 
L 285.404831 654.10133 
L 285.952555 655.079794 
L 286.93347 656.674901 
L 288.226743 659.554882 
L 288.829503 660.844924 
L 289.457617 663.362764 
L 289.78542 664.743694 
L 290.518258 667.588518 
L 290.573565 670.701111 
L 290.603259 671.249137 
L 290.662095 674.332112 
L 289.881843 677.273118 
L 289.433354 678.582068 
L 288.68584 681.075706 
L 287.969843 682.109489 
L 286.93347 683.282633 
L 283.946986 684.054728 
L 283.373052 684.267777 
L 280.172985 684.876171 
L 277.619051 683.623259 
L 275.226338 682.885011 
L 273.4125 682.189158 
L 272.819881 681.666844 
L 271.994343 681.075706 
L 269.346533 678.387919 
L 266.652014 676.290229 
L 265.800312 675.181686 
L 265.025362 674.332112 
L 263.056123 671.175425 
L 261.428502 669.12165 
L 260.250747 667.588518 
L 260.145852 667.33483 
L 259.891529 666.924033 
L 258.177131 662.555039 
L 257.274863 660.844924 
L 256.476677 657.50765 
L 256.434404 657.396436 
L 255.444484 654.10133 
L 255.659582 651.57911 
L 255.573713 649.794301 
L 255.852231 647.357736 
" clip-path="url(#pd1100dcdf5)" style="fill: none; stroke: #d62728; stroke-opacity: 0.99; stroke-width: 0.2; stroke-linecap: square"/>
   </g>
   <g id="line2d_9">
    <path d="M 267.227006 654.103961 
L 272.40764 653.106171 
L 273.407913 653.076264 
L 274.065861 653.447647 
L 275.439203 654.103961 
L 278.063678 656.203331 
L 280.168273 657.351778 
L 281.698797 659.320814 
L 283.037176 660.847538 
L 284.265622 663.503938 
L 286.51009 667.173612 
L 286.746944 667.591115 
L 286.730935 667.788322 
L 286.928633 669.268931 
L 287.236134 674.027955 
L 287.275036 674.334692 
L 287.207695 674.613062 
L 286.928633 675.382789 
L 283.548509 677.706537 
L 283.54838 677.706553 
L 280.168273 678.86589 
L 277.709853 676.787009 
L 274.355582 675.280009 
L 273.407913 674.762293 
L 273.216368 674.525762 
L 273.019069 674.334692 
L 272.439922 673.369105 
L 270.770278 670.222203 
L 268.537073 667.591115 
L 268.17624 666.066224 
L 266.647554 663.468643 
L 266.078228 661.41545 
L 265.818016 660.847538 
L 265.800585 660.002672 
L 266.647554 654.642872 
L 266.833218 654.289164 
L 267.227006 654.103961 
" clip-path="url(#pd1100dcdf5)" style="fill: none; stroke: #9467bd; stroke-opacity: 0.99; stroke-width: 0.2; stroke-linecap: square"/>
   </g>
   <g id="line2d_10">
    <path d="M 268.266685 660.843786 
L 270.14138 657.58551 
L 273.407906 654.617726 
L 274.16056 654.850982 
L 277.856164 656.406763 
L 280.168539 656.924065 
L 282.251511 658.766074 
L 285.006376 660.843786 
L 285.837325 661.932874 
L 286.929171 662.959381 
L 288.584885 665.93581 
L 289.613312 667.587342 
L 290.405092 670.863757 
L 290.507428 671.156561 
L 291.420147 674.330898 
L 290.755356 677.257934 
L 290.671275 678.063549 
L 289.730201 681.074454 
L 288.234637 682.376622 
L 286.929171 683.039404 
L 285.618696 682.381619 
L 280.29712 681.20271 
L 280.168539 681.158506 
L 280.126204 681.116681 
L 280.071013 681.074454 
L 279.602479 680.509824 
L 277.122662 677.369081 
L 274.430301 675.35071 
L 273.407906 674.537166 
L 273.323123 674.415467 
L 273.250074 674.330898 
L 273.098073 674.021847 
L 271.291779 669.698124 
L 269.901412 667.587342 
L 269.487033 664.754755 
L 268.752944 662.944137 
L 268.266685 660.843786 
" clip-path="url(#pd1100dcdf5)" style="fill: none; stroke: #8c564b; stroke-opacity: 0.99; stroke-width: 0.2; stroke-linecap: square"/>
   </g>
   <g id="line2d_11">
    <path d="M 269.531958 660.845924 
L 270.858558 658.302672 
L 273.408188 655.47353 
L 274.743582 655.434409 
L 278.349073 655.917399 
L 280.16867 655.878719 
L 283.306097 657.716346 
L 284.214776 658.13834 
L 286.929151 659.501887 
L 287.625238 660.151579 
L 288.431799 660.845924 
L 290.71963 663.808496 
L 293.689633 667.088995 
L 293.875383 667.404206 
L 293.992919 667.589492 
L 294.145891 668.044608 
L 295.502206 672.525022 
L 296.174036 674.333059 
L 296.154691 676.791951 
L 295.969467 678.802498 
L 295.948321 681.076627 
L 295.196122 682.579348 
L 293.689633 684.690595 
L 291.148777 685.285696 
L 289.54135 685.214532 
L 286.929151 685.600703 
L 284.273228 683.725906 
L 281.766115 682.670076 
L 280.16867 681.865467 
L 279.786169 681.458171 
L 279.343249 681.076627 
L 277.028832 677.944645 
L 276.832578 677.660804 
L 275.310464 676.230576 
L 273.408188 674.424233 
L 273.372351 674.368807 
L 273.34422 674.333059 
L 273.293064 674.218223 
L 271.511324 669.48161 
L 270.428898 667.589492 
L 270.060811 664.25049 
L 270.064492 664.181254 
L 269.531958 660.845924 
" clip-path="url(#pd1100dcdf5)" style="fill: none; stroke: #e377c2; stroke-opacity: 0.99; stroke-width: 0.2; stroke-linecap: square"/>
   </g>
   <g id="line2d_12">
    <path d="M 272.212147 660.845409 
L 272.543409 659.981773 
L 273.409209 658.681012 
L 276.774869 657.488162 
L 276.794691 657.478851 
L 280.169684 656.646446 
L 283.184367 657.838262 
L 284.192261 658.114354 
L 286.930159 659.023181 
L 287.951716 659.826405 
L 289.398128 660.845409 
L 291.372138 663.158109 
L 293.690634 665.380291 
L 294.534601 666.747128 
L 295.107877 667.588984 
L 295.744233 669.637449 
L 296.301593 671.728128 
L 297.220709 674.33256 
L 296.894834 677.52875 
L 296.797267 677.97727 
L 296.407462 681.076136 
L 295.252592 682.63419 
L 293.690634 684.09974 
L 290.844796 683.914861 
L 289.915477 684.053991 
L 286.930159 683.92525 
L 285.354153 682.648203 
L 282.389687 681.076136 
L 281.292128 679.956499 
L 280.169684 679.329101 
L 278.167485 676.329754 
L 276.243517 674.33256 
L 275.43166 672.315166 
L 273.409209 669.444644 
L 272.895737 668.101174 
L 272.61513 667.588984 
L 272.478646 666.660748 
L 272.412323 661.839803 
L 272.212147 660.845409 
" clip-path="url(#pd1100dcdf5)" style="fill: none; stroke: #7f7f7f; stroke-opacity: 0.99; stroke-width: 0.2; stroke-linecap: square"/>
   </g>
   <g id="line2d_13">
    <path d="M 279.12745 667.591418 
L 279.310533 666.735207 
L 280.168879 665.205106 
L 282.560345 665.205898 
L 284.151647 664.820623 
L 286.92935 664.821184 
L 288.393484 666.130925 
L 290.491577 667.591418 
L 291.481808 669.79394 
L 293.689821 672.278423 
L 294.224601 673.801627 
L 294.470911 674.335078 
L 294.424124 675.067555 
L 293.689821 678.589733 
L 292.224348 679.616909 
L 288.7916 679.221119 
L 286.92935 679.679052 
L 284.75894 676.50009 
L 281.628456 674.335078 
L 281.449558 673.057583 
L 280.168879 671.466553 
L 279.47711 668.281466 
L 279.12745 667.591418 
" clip-path="url(#pd1100dcdf5)" style="fill: none; stroke: #bcbd22; stroke-opacity: 0.99; stroke-width: 0.2; stroke-linecap: square"/>
   </g>
   <g id="line2d_14">
    <path d="M 279.516369 660.848492 
L 279.905998 660.585768 
L 280.169378 660.463203 
L 280.53238 660.486394 
L 286.481477 660.401243 
L 286.929843 660.425957 
L 287.222719 660.556345 
L 287.977492 660.848492 
L 291.588696 662.944873 
L 293.690307 663.896246 
L 295.543007 665.74404 
L 297.595839 667.592129 
L 298.684829 669.353675 
L 300.450772 671.641871 
L 301.316054 673.472636 
L 301.769478 674.335765 
L 302.070147 675.951109 
L 302.496259 679.039005 
L 302.923642 681.079401 
L 302.472102 683.0957 
L 301.03588 687.239385 
L 300.876124 687.823037 
L 300.680041 688.051735 
L 300.450772 688.245344 
L 300.012368 688.260349 
L 295.070841 689.200134 
L 293.690307 689.234216 
L 292.832955 688.678255 
L 290.715183 687.823037 
L 288.508777 686.248033 
L 286.929843 685.639794 
L 284.856079 683.148003 
L 282.359575 681.079401 
L 281.573457 679.678818 
L 280.169378 678.23946 
L 278.88983 675.612128 
L 277.979791 674.335765 
L 277.309229 671.482735 
L 277.214681 670.539471 
L 276.226756 667.592129 
L 277.207992 664.638114 
L 278.753976 662.260371 
L 279.516369 660.848492 
" clip-path="url(#pd1100dcdf5)" style="fill: none; stroke: #17becf; stroke-opacity: 0.99; stroke-width: 0.2; stroke-linecap: square"/>
   </g>
   <g id="line2d_15">
    <path d="M 282.346347 667.588382 
L 285.463285 666.127047 
L 286.928309 665.703 
L 288.403908 666.116499 
L 293.125133 667.026019 
L 293.688916 667.163736 
L 293.93873 667.339198 
L 294.331663 667.588382 
L 297.357192 670.672926 
L 300.449522 673.237457 
L 300.893623 673.888983 
L 301.226343 674.331966 
L 301.646956 675.526384 
L 302.671629 678.859037 
L 303.56734 681.075549 
L 303.206921 683.826004 
L 302.74723 685.527211 
L 302.362828 687.819132 
L 301.443799 688.810905 
L 300.449522 689.529384 
L 298.964935 689.299981 
L 295.36289 689.488891 
L 293.688916 689.309012 
L 292.865903 688.640073 
L 291.29979 687.819132 
L 289.134569 685.618428 
L 286.928309 684.346445 
L 285.610094 682.390445 
L 284.311157 681.075549 
L 283.197944 678.052937 
L 281.686245 675.846685 
L 280.792906 674.331966 
L 281.078122 673.423839 
L 281.537185 668.954416 
L 282.346347 667.588382 
" clip-path="url(#pd1100dcdf5)" style="fill: none; stroke: #1f77b4; stroke-opacity: 0.99; stroke-width: 0.2; stroke-linecap: square"/>
   </g>
   <g id="line2d_16">
    <path d="M 284.053143 674.331948 
L 285.048116 672.455127 
L 286.929645 670.358209 
L 289.493258 670.145588 
L 291.009273 670.262528 
L 293.690119 670.097567 
L 296.340312 671.688386 
L 299.146492 673.03111 
L 300.450593 673.70304 
L 300.761979 674.021341 
L 301.093032 674.331948 
L 302.023913 675.901331 
L 303.324054 678.209235 
L 305.291225 681.075506 
L 305.379027 682.902963 
L 306.133799 686.744492 
L 306.202417 687.819065 
L 303.484933 690.845812 
L 300.450593 692.868227 
L 297.745657 691.864455 
L 296.848425 691.41222 
L 293.690119 690.650589 
L 292.297466 689.208233 
L 290.216234 687.819065 
L 288.923374 685.830324 
L 286.929645 684.12647 
L 285.895087 682.107476 
L 285.081374 681.075506 
L 284.682364 678.833849 
L 284.66414 676.591784 
L 284.053143 674.331948 
" clip-path="url(#pd1100dcdf5)" style="fill: none; stroke: #ff7f0e; stroke-opacity: 0.99; stroke-width: 0.2; stroke-linecap: square"/>
   </g>
   <g id="line2d_17">
    <path d="M 286.513247 674.33191 
L 286.685294 674.08479 
L 286.933025 673.837176 
L 287.585846 673.680697 
L 291.723369 672.366816 
L 293.693316 671.982607 
L 295.443264 672.586272 
L 299.911163 673.790803 
L 300.453606 673.958033 
L 300.667715 674.118329 
L 300.97694 674.33191 
L 303.214254 677.085757 
L 303.763257 677.774051 
L 306.898668 681.075548 
L 306.926617 681.362121 
L 307.213897 682.437348 
L 307.870933 687.163768 
L 308.00217 687.819186 
L 307.81051 688.414329 
L 307.213897 689.735118 
L 304.563207 691.918663 
L 302.130697 692.889865 
L 300.453606 693.749116 
L 298.922381 693.03537 
L 296.570885 691.692343 
L 293.693316 690.793668 
L 292.27302 689.235982 
L 290.325588 687.819186 
L 289.173511 685.584219 
L 286.933025 683.113076 
L 286.320803 681.686262 
L 285.915982 681.075548 
L 285.87246 680.017596 
L 286.536352 674.727606 
L 286.513247 674.33191 
" clip-path="url(#pd1100dcdf5)" style="fill: none; stroke: #2ca02c; stroke-opacity: 0.99; stroke-width: 0.2; stroke-linecap: square"/>
   </g>
   <g id="line2d_18">
    <path d="M 290.303687 667.589878 
L 293.211871 667.113058 
L 293.689887 667.048943 
L 294.149347 667.131568 
L 296.994381 667.589878 
L 299.785338 668.253237 
L 300.450361 668.380656 
L 302.640129 669.774169 
L 304.086217 670.706681 
L 307.210835 672.603903 
L 308.077212 673.469232 
L 308.973224 674.333442 
L 310.85625 677.440709 
L 311.786231 678.897394 
L 313.161423 681.077006 
L 313.278082 681.768498 
L 313.971308 684.99632 
L 314.337908 687.454887 
L 314.399954 687.82057 
L 314.339727 688.188067 
L 313.971308 690.084616 
L 312.933438 693.528859 
L 312.503232 694.564134 
L 309.669855 697.017003 
L 307.210835 698.668886 
L 304.701711 698.80485 
L 303.086894 698.677759 
L 300.450361 698.788572 
L 297.662076 697.345444 
L 295.937223 696.805848 
L 293.689887 695.919631 
L 292.965655 695.286554 
L 291.884479 694.564134 
L 289.601022 691.899207 
L 286.929414 689.677681 
L 286.165217 688.582855 
L 285.474099 687.82057 
L 284.359685 685.257269 
L 283.930813 684.068106 
L 282.239965 681.077006 
L 282.299278 678.951996 
L 281.974731 676.134716 
L 282.042314 674.333442 
L 284.094882 671.506001 
L 286.929414 668.538064 
L 287.626314 668.285036 
L 290.303687 667.589878 
" clip-path="url(#pd1100dcdf5)" style="fill: none; stroke: #d62728; stroke-opacity: 0.99; stroke-width: 0.2; stroke-linecap: square"/>
   </g>
   <g id="patch_23">
    <path d="M 23.103125 842.218676 
L 23.103125 34.3575 
" style="fill: none"/>
   </g>
   <g id="patch_24">
    <path d="M 830.964301 842.218676 
L 830.964301 34.3575 
" style="fill: none"/>
   </g>
   <g id="patch_25">
    <path d="M 23.103125 842.218676 
L 830.964301 842.218676 
" style="fill: none"/>
   </g>
   <g id="patch_26">
    <path d="M 23.103125 34.3575 
L 830.964301 34.3575 
" style="fill: none"/>
   </g>
   <g id="text_1">
    <!-- 0.2 -->
    <g transform="translate(143.163564 434.327984) scale(0.1 -0.1)">
     <defs>
      <path id="DejaVuSans-30" d="M 2034 4250 
Q 1547 4250 1301 3770 
Q 1056 3291 1056 2328 
Q 1056 1369 1301 889 
Q 1547 409 2034 409 
Q 2525 409 2770 889 
Q 3016 1369 3016 2328 
Q 3016 3291 2770 3770 
Q 2525 4250 2034 4250 
z
M 2034 4750 
Q 2819 4750 3233 4129 
Q 3647 3509 3647 2328 
Q 3647 1150 3233 529 
Q 2819 -91 2034 -91 
Q 1250 -91 836 529 
Q 422 1150 422 2328 
Q 422 3509 836 4129 
Q 1250 4750 2034 4750 
z
" transform="scale(0.015625)"/>
      <path id="DejaVuSans-2e" d="M 684 794 
L 1344 794 
L 1344 0 
L 684 0 
L 684 794 
z
" transform="scale(0.015625)"/>
      <path id="DejaVuSans-32" d="M 1228 531 
L 3431 531 
L 3431 0 
L 469 0 
L 469 531 
Q 828 903 1448 1529 
Q 2069 2156 2228 2338 
Q 2531 2678 2651 2914 
Q 2772 3150 2772 3378 
Q 2772 3750 2511 3984 
Q 2250 4219 1831 4219 
Q 1534 4219 1204 4116 
Q 875 4013 500 3803 
L 500 4441 
Q 881 4594 1212 4672 
Q 1544 4750 1819 4750 
Q 2544 4750 2975 4387 
Q 3406 4025 3406 3419 
Q 3406 3131 3298 2873 
Q 3191 2616 2906 2266 
Q 2828 2175 2409 1742 
Q 1991 1309 1228 531 
z
" transform="scale(0.015625)"/>
     </defs>
     <use xlink:href="#DejaVuSans-30"/>
     <use xlink:href="#DejaVuSans-2e" transform="translate(63.623047 0)"/>
     <use xlink:href="#DejaVuSans-32" transform="translate(95.410156 0)"/>
    </g>
   </g>
   <g id="text_2">
    <!-- 0.5 -->
    <g transform="translate(275.167024 434.327984) scale(0.1 -0.1)">
     <defs>
      <path id="DejaVuSans-35" d="M 691 4666 
L 3169 4666 
L 3169 4134 
L 1269 4134 
L 1269 2991 
Q 1406 3038 1543 3061 
Q 1681 3084 1819 3084 
Q 2600 3084 3056 2656 
Q 3513 2228 3513 1497 
Q 3513 744 3044 326 
Q 2575 -91 1722 -91 
Q 1428 -91 1123 -41 
Q 819 9 494 109 
L 494 744 
Q 775 591 1075 516 
Q 1375 441 1709 441 
Q 2250 441 2565 725 
Q 2881 1009 2881 1497 
Q 2881 1984 2565 2268 
Q 2250 2553 1709 2553 
Q 1456 2553 1204 2497 
Q 953 2441 691 2322 
L 691 4666 
z
" transform="scale(0.015625)"/>
     </defs>
     <use xlink:href="#DejaVuSans-30"/>
     <use xlink:href="#DejaVuSans-2e" transform="translate(63.623047 0)"/>
     <use xlink:href="#DejaVuSans-35" transform="translate(95.410156 0)"/>
    </g>
   </g>
   <g id="text_3">
    <!-- 1.0 -->
    <g transform="translate(407.170484 434.327984) scale(0.1 -0.1)">
     <defs>
      <path id="DejaVuSans-31" d="M 794 531 
L 1825 531 
L 1825 4091 
L 703 3866 
L 703 4441 
L 1819 4666 
L 2450 4666 
L 2450 531 
L 3481 531 
L 3481 0 
L 794 0 
L 794 531 
z
" transform="scale(0.015625)"/>
     </defs>
     <use xlink:href="#DejaVuSans-31"/>
     <use xlink:href="#DejaVuSans-2e" transform="translate(63.623047 0)"/>
     <use xlink:href="#DejaVuSans-30" transform="translate(95.410156 0)"/>
    </g>
   </g>
   <g id="text_4">
    <!-- 2.0 -->
    <g transform="translate(539.173945 434.327984) scale(0.1 -0.1)">
     <use xlink:href="#DejaVuSans-32"/>
     <use xlink:href="#DejaVuSans-2e" transform="translate(63.623047 0)"/>
     <use xlink:href="#DejaVuSans-30" transform="translate(95.410156 0)"/>
    </g>
   </g>
   <g id="text_5">
    <!-- 5.0 -->
    <g transform="translate(671.177405 434.327984) scale(0.1 -0.1)">
     <use xlink:href="#DejaVuSans-35"/>
     <use xlink:href="#DejaVuSans-2e" transform="translate(63.623047 0)"/>
     <use xlink:href="#DejaVuSans-30" transform="translate(95.410156 0)"/>
    </g>
   </g>
   <g id="text_6">
    <!-- 0.2j -->
    <g transform="translate(39.148939 282.373599) scale(0.1 -0.1)">
     <defs>
      <path id="DejaVuSans-6a" d="M 603 3500 
L 1178 3500 
L 1178 -63 
Q 1178 -731 923 -1031 
Q 669 -1331 103 -1331 
L -116 -1331 
L -116 -844 
L 38 -844 
Q 366 -844 484 -692 
Q 603 -541 603 -63 
L 603 3500 
z
M 603 4863 
L 1178 4863 
L 1178 4134 
L 603 4134 
L 603 4863 
z
" transform="scale(0.015625)"/>
     </defs>
     <use xlink:href="#DejaVuSans-30"/>
     <use xlink:href="#DejaVuSans-2e" transform="translate(63.623047 0)"/>
     <use xlink:href="#DejaVuSans-32" transform="translate(95.410156 0)"/>
     <use xlink:href="#DejaVuSans-6a" transform="translate(159.033203 0)"/>
    </g>
   </g>
   <g id="text_7">
    <!-- 0.5j -->
    <g transform="translate(168.370173 116.232013) scale(0.1 -0.1)">
     <use xlink:href="#DejaVuSans-30"/>
     <use xlink:href="#DejaVuSans-2e" transform="translate(63.623047 0)"/>
     <use xlink:href="#DejaVuSans-35" transform="translate(95.410156 0)"/>
     <use xlink:href="#DejaVuSans-6a" transform="translate(159.033203 0)"/>
    </g>
   </g>
   <g id="text_8">
    <!-- 1.0j -->
    <g transform="translate(417.693088 36.237916) scale(0.1 -0.1)">
     <use xlink:href="#DejaVuSans-31"/>
     <use xlink:href="#DejaVuSans-2e" transform="translate(63.623047 0)"/>
     <use xlink:href="#DejaVuSans-30" transform="translate(95.410156 0)"/>
     <use xlink:href="#DejaVuSans-6a" transform="translate(159.033203 0)"/>
    </g>
   </g>
   <g id="text_9">
    <!-- 2.0j -->
    <g transform="translate(667.016004 116.232013) scale(0.1 -0.1)">
     <use xlink:href="#DejaVuSans-32"/>
     <use xlink:href="#DejaVuSans-2e" transform="translate(63.623047 0)"/>
     <use xlink:href="#DejaVuSans-30" transform="translate(95.410156 0)"/>
     <use xlink:href="#DejaVuSans-6a" transform="translate(159.033203 0)"/>
    </g>
   </g>
   <g id="text_10">
    <!-- 5.0j -->
    <g transform="translate(796.237237 282.373599) scale(0.1 -0.1)">
     <use xlink:href="#DejaVuSans-35"/>
     <use xlink:href="#DejaVuSans-2e" transform="translate(63.623047 0)"/>
     <use xlink:href="#DejaVuSans-30" transform="translate(95.410156 0)"/>
     <use xlink:href="#DejaVuSans-6a" transform="translate(159.033203 0)"/>
    </g>
   </g>
   <g id="text_11">
    <!-- -0.2j -->
    <g transform="translate(35.541127 599.721327) scale(0.1 -0.1)">
     <defs>
      <path id="DejaVuSans-2d" d="M 313 2009 
L 1997 2009 
L 1997 1497 
L 313 1497 
L 313 2009 
z
" transform="scale(0.015625)"/>
     </defs>
     <use xlink:href="#DejaVuSans-2d"/>
     <use xlink:href="#DejaVuSans-30" transform="translate(36.083984 0)"/>
     <use xlink:href="#DejaVuSans-2e" transform="translate(99.707031 0)"/>
     <use xlink:href="#DejaVuSans-32" transform="translate(131.494141 0)"/>
     <use xlink:href="#DejaVuSans-6a" transform="translate(195.117188 0)"/>
    </g>
   </g>
   <g id="text_12">
    <!-- -0.5j -->
    <g transform="translate(164.76236 765.862913) scale(0.1 -0.1)">
     <use xlink:href="#DejaVuSans-2d"/>
     <use xlink:href="#DejaVuSans-30" transform="translate(36.083984 0)"/>
     <use xlink:href="#DejaVuSans-2e" transform="translate(99.707031 0)"/>
     <use xlink:href="#DejaVuSans-35" transform="translate(131.494141 0)"/>
     <use xlink:href="#DejaVuSans-6a" transform="translate(195.117188 0)"/>
    </g>
   </g>
   <g id="text_13">
    <!-- -1.0j -->
    <g transform="translate(415.889182 845.85701) scale(0.1 -0.1)">
     <use xlink:href="#DejaVuSans-2d"/>
     <use xlink:href="#DejaVuSans-31" transform="translate(36.083984 0)"/>
     <use xlink:href="#DejaVuSans-2e" transform="translate(99.707031 0)"/>
     <use xlink:href="#DejaVuSans-30" transform="translate(131.494141 0)"/>
     <use xlink:href="#DejaVuSans-6a" transform="translate(195.117188 0)"/>
    </g>
   </g>
   <g id="text_14">
    <!-- -2.0j -->
    <g transform="translate(667.016004 765.862913) scale(0.1 -0.1)">
     <use xlink:href="#DejaVuSans-2d"/>
     <use xlink:href="#DejaVuSans-32" transform="translate(36.083984 0)"/>
     <use xlink:href="#DejaVuSans-2e" transform="translate(99.707031 0)"/>
     <use xlink:href="#DejaVuSans-30" transform="translate(131.494141 0)"/>
     <use xlink:href="#DejaVuSans-6a" transform="translate(195.117188 0)"/>
    </g>
   </g>
   <g id="text_15">
    <!-- -5.0j -->
    <g transform="translate(796.237237 599.721327) scale(0.1 -0.1)">
     <use xlink:href="#DejaVuSans-2d"/>
     <use xlink:href="#DejaVuSans-35" transform="translate(36.083984 0)"/>
     <use xlink:href="#DejaVuSans-2e" transform="translate(99.707031 0)"/>
     <use xlink:href="#DejaVuSans-30" transform="translate(131.494141 0)"/>
     <use xlink:href="#DejaVuSans-6a" transform="translate(195.117188 0)"/>
    </g>
   </g>
   <g id="text_16">
    <!-- 0.0 -->
    <g transform="translate(7.2 441.047463) scale(0.1 -0.1)">
     <use xlink:href="#DejaVuSans-30"/>
     <use xlink:href="#DejaVuSans-2e" transform="translate(63.623047 0)"/>
     <use xlink:href="#DejaVuSans-30" transform="translate(95.410156 0)"/>
    </g>
   </g>
   <g id="text_17">
    <!-- $\infty$ -->
    <g transform="translate(827.004198 441.047463) scale(0.1 -0.1)">
     <defs>
      <path id="DejaVuSans-221e" d="M 2916 1091 
Q 2819 1203 2666 1466 
Q 2456 1091 2272 925 
Q 2041 725 1681 725 
Q 1259 725 981 1041 
Q 688 1372 688 1919 
Q 688 2444 981 2800 
Q 1244 3116 1688 3116 
Q 1916 3116 2084 3022 
Q 2281 2919 2416 2741 
Q 2541 2581 2666 2366 
Q 2875 2741 3059 2906 
Q 3291 3106 3650 3106 
Q 4072 3106 4350 2791 
Q 4644 2459 4644 1913 
Q 4644 1388 4350 1031 
Q 4088 716 3644 716 
Q 3416 716 3247 809 
Q 3078 894 2916 1091 
z
M 1647 1134 
Q 2163 1134 2472 1884 
Q 2075 2703 1647 2703 
Q 1334 2703 1175 2478 
Q 1003 2238 1003 1919 
Q 1003 1569 1175 1353 
Q 1350 1134 1647 1134 
z
M 3684 2697 
Q 3219 2697 2859 1947 
Q 3253 1128 3684 1128 
Q 3997 1128 4156 1353 
Q 4328 1594 4328 1913 
Q 4328 2263 4156 2478 
Q 3981 2697 3684 2697 
z
" transform="scale(0.015625)"/>
     </defs>
     <use xlink:href="#DejaVuSans-221e" transform="translate(0 0.3125)"/>
    </g>
   </g>
   <g id="text_18">
    <!-- it3_load_pull - Broadband Optimum Target -->
    <g transform="translate(258.087463 19.3575) scale(0.16 -0.16)">
     <defs>
      <path id="DejaVuSans-69" d="M 603 3500 
L 1178 3500 
L 1178 0 
L 603 0 
L 603 3500 
z
M 603 4863 
L 1178 4863 
L 1178 4134 
L 603 4134 
L 603 4863 
z
" transform="scale(0.015625)"/>
      <path id="DejaVuSans-74" d="M 1172 4494 
L 1172 3500 
L 2356 3500 
L 2356 3053 
L 1172 3053 
L 1172 1153 
Q 1172 725 1289 603 
Q 1406 481 1766 481 
L 2356 481 
L 2356 0 
L 1766 0 
Q 1100 0 847 248 
Q 594 497 594 1153 
L 594 3053 
L 172 3053 
L 172 3500 
L 594 3500 
L 594 4494 
L 1172 4494 
z
" transform="scale(0.015625)"/>
      <path id="DejaVuSans-33" d="M 2597 2516 
Q 3050 2419 3304 2112 
Q 3559 1806 3559 1356 
Q 3559 666 3084 287 
Q 2609 -91 1734 -91 
Q 1441 -91 1130 -33 
Q 819 25 488 141 
L 488 750 
Q 750 597 1062 519 
Q 1375 441 1716 441 
Q 2309 441 2620 675 
Q 2931 909 2931 1356 
Q 2931 1769 2642 2001 
Q 2353 2234 1838 2234 
L 1294 2234 
L 1294 2753 
L 1863 2753 
Q 2328 2753 2575 2939 
Q 2822 3125 2822 3475 
Q 2822 3834 2567 4026 
Q 2313 4219 1838 4219 
Q 1578 4219 1281 4162 
Q 984 4106 628 3988 
L 628 4550 
Q 988 4650 1302 4700 
Q 1616 4750 1894 4750 
Q 2613 4750 3031 4423 
Q 3450 4097 3450 3541 
Q 3450 3153 3228 2886 
Q 3006 2619 2597 2516 
z
" transform="scale(0.015625)"/>
      <path id="DejaVuSans-5f" d="M 3263 -1063 
L 3263 -1509 
L -63 -1509 
L -63 -1063 
L 3263 -1063 
z
" transform="scale(0.015625)"/>
      <path id="DejaVuSans-6c" d="M 603 4863 
L 1178 4863 
L 1178 0 
L 603 0 
L 603 4863 
z
" transform="scale(0.015625)"/>
      <path id="DejaVuSans-6f" d="M 1959 3097 
Q 1497 3097 1228 2736 
Q 959 2375 959 1747 
Q 959 1119 1226 758 
Q 1494 397 1959 397 
Q 2419 397 2687 759 
Q 2956 1122 2956 1747 
Q 2956 2369 2687 2733 
Q 2419 3097 1959 3097 
z
M 1959 3584 
Q 2709 3584 3137 3096 
Q 3566 2609 3566 1747 
Q 3566 888 3137 398 
Q 2709 -91 1959 -91 
Q 1206 -91 779 398 
Q 353 888 353 1747 
Q 353 2609 779 3096 
Q 1206 3584 1959 3584 
z
" transform="scale(0.015625)"/>
      <path id="DejaVuSans-61" d="M 2194 1759 
Q 1497 1759 1228 1600 
Q 959 1441 959 1056 
Q 959 750 1161 570 
Q 1363 391 1709 391 
Q 2188 391 2477 730 
Q 2766 1069 2766 1631 
L 2766 1759 
L 2194 1759 
z
M 3341 1997 
L 3341 0 
L 2766 0 
L 2766 531 
Q 2569 213 2275 61 
Q 1981 -91 1556 -91 
Q 1019 -91 701 211 
Q 384 513 384 1019 
Q 384 1609 779 1909 
Q 1175 2209 1959 2209 
L 2766 2209 
L 2766 2266 
Q 2766 2663 2505 2880 
Q 2244 3097 1772 3097 
Q 1472 3097 1187 3025 
Q 903 2953 641 2809 
L 641 3341 
Q 956 3463 1253 3523 
Q 1550 3584 1831 3584 
Q 2591 3584 2966 3190 
Q 3341 2797 3341 1997 
z
" transform="scale(0.015625)"/>
      <path id="DejaVuSans-64" d="M 2906 2969 
L 2906 4863 
L 3481 4863 
L 3481 0 
L 2906 0 
L 2906 525 
Q 2725 213 2448 61 
Q 2172 -91 1784 -91 
Q 1150 -91 751 415 
Q 353 922 353 1747 
Q 353 2572 751 3078 
Q 1150 3584 1784 3584 
Q 2172 3584 2448 3432 
Q 2725 3281 2906 2969 
z
M 947 1747 
Q 947 1113 1208 752 
Q 1469 391 1925 391 
Q 2381 391 2643 752 
Q 2906 1113 2906 1747 
Q 2906 2381 2643 2742 
Q 2381 3103 1925 3103 
Q 1469 3103 1208 2742 
Q 947 2381 947 1747 
z
" transform="scale(0.015625)"/>
      <path id="DejaVuSans-70" d="M 1159 525 
L 1159 -1331 
L 581 -1331 
L 581 3500 
L 1159 3500 
L 1159 2969 
Q 1341 3281 1617 3432 
Q 1894 3584 2278 3584 
Q 2916 3584 3314 3078 
Q 3713 2572 3713 1747 
Q 3713 922 3314 415 
Q 2916 -91 2278 -91 
Q 1894 -91 1617 61 
Q 1341 213 1159 525 
z
M 3116 1747 
Q 3116 2381 2855 2742 
Q 2594 3103 2138 3103 
Q 1681 3103 1420 2742 
Q 1159 2381 1159 1747 
Q 1159 1113 1420 752 
Q 1681 391 2138 391 
Q 2594 391 2855 752 
Q 3116 1113 3116 1747 
z
" transform="scale(0.015625)"/>
      <path id="DejaVuSans-75" d="M 544 1381 
L 544 3500 
L 1119 3500 
L 1119 1403 
Q 1119 906 1312 657 
Q 1506 409 1894 409 
Q 2359 409 2629 706 
Q 2900 1003 2900 1516 
L 2900 3500 
L 3475 3500 
L 3475 0 
L 2900 0 
L 2900 538 
Q 2691 219 2414 64 
Q 2138 -91 1772 -91 
Q 1169 -91 856 284 
Q 544 659 544 1381 
z
M 1991 3584 
L 1991 3584 
z
" transform="scale(0.015625)"/>
      <path id="DejaVuSans-20" transform="scale(0.015625)"/>
      <path id="DejaVuSans-42" d="M 1259 2228 
L 1259 519 
L 2272 519 
Q 2781 519 3026 730 
Q 3272 941 3272 1375 
Q 3272 1813 3026 2020 
Q 2781 2228 2272 2228 
L 1259 2228 
z
M 1259 4147 
L 1259 2741 
L 2194 2741 
Q 2656 2741 2882 2914 
Q 3109 3088 3109 3444 
Q 3109 3797 2882 3972 
Q 2656 4147 2194 4147 
L 1259 4147 
z
M 628 4666 
L 2241 4666 
Q 2963 4666 3353 4366 
Q 3744 4066 3744 3513 
Q 3744 3084 3544 2831 
Q 3344 2578 2956 2516 
Q 3422 2416 3680 2098 
Q 3938 1781 3938 1306 
Q 3938 681 3513 340 
Q 3088 0 2303 0 
L 628 0 
L 628 4666 
z
" transform="scale(0.015625)"/>
      <path id="DejaVuSans-72" d="M 2631 2963 
Q 2534 3019 2420 3045 
Q 2306 3072 2169 3072 
Q 1681 3072 1420 2755 
Q 1159 2438 1159 1844 
L 1159 0 
L 581 0 
L 581 3500 
L 1159 3500 
L 1159 2956 
Q 1341 3275 1631 3429 
Q 1922 3584 2338 3584 
Q 2397 3584 2469 3576 
Q 2541 3569 2628 3553 
L 2631 2963 
z
" transform="scale(0.015625)"/>
      <path id="DejaVuSans-62" d="M 3116 1747 
Q 3116 2381 2855 2742 
Q 2594 3103 2138 3103 
Q 1681 3103 1420 2742 
Q 1159 2381 1159 1747 
Q 1159 1113 1420 752 
Q 1681 391 2138 391 
Q 2594 391 2855 752 
Q 3116 1113 3116 1747 
z
M 1159 2969 
Q 1341 3281 1617 3432 
Q 1894 3584 2278 3584 
Q 2916 3584 3314 3078 
Q 3713 2572 3713 1747 
Q 3713 922 3314 415 
Q 2916 -91 2278 -91 
Q 1894 -91 1617 61 
Q 1341 213 1159 525 
L 1159 0 
L 581 0 
L 581 4863 
L 1159 4863 
L 1159 2969 
z
" transform="scale(0.015625)"/>
      <path id="DejaVuSans-6e" d="M 3513 2113 
L 3513 0 
L 2938 0 
L 2938 2094 
Q 2938 2591 2744 2837 
Q 2550 3084 2163 3084 
Q 1697 3084 1428 2787 
Q 1159 2491 1159 1978 
L 1159 0 
L 581 0 
L 581 3500 
L 1159 3500 
L 1159 2956 
Q 1366 3272 1645 3428 
Q 1925 3584 2291 3584 
Q 2894 3584 3203 3211 
Q 3513 2838 3513 2113 
z
" transform="scale(0.015625)"/>
      <path id="DejaVuSans-4f" d="M 2522 4238 
Q 1834 4238 1429 3725 
Q 1025 3213 1025 2328 
Q 1025 1447 1429 934 
Q 1834 422 2522 422 
Q 3209 422 3611 934 
Q 4013 1447 4013 2328 
Q 4013 3213 3611 3725 
Q 3209 4238 2522 4238 
z
M 2522 4750 
Q 3503 4750 4090 4092 
Q 4678 3434 4678 2328 
Q 4678 1225 4090 567 
Q 3503 -91 2522 -91 
Q 1538 -91 948 565 
Q 359 1222 359 2328 
Q 359 3434 948 4092 
Q 1538 4750 2522 4750 
z
" transform="scale(0.015625)"/>
      <path id="DejaVuSans-6d" d="M 3328 2828 
Q 3544 3216 3844 3400 
Q 4144 3584 4550 3584 
Q 5097 3584 5394 3201 
Q 5691 2819 5691 2113 
L 5691 0 
L 5113 0 
L 5113 2094 
Q 5113 2597 4934 2840 
Q 4756 3084 4391 3084 
Q 3944 3084 3684 2787 
Q 3425 2491 3425 1978 
L 3425 0 
L 2847 0 
L 2847 2094 
Q 2847 2600 2669 2842 
Q 2491 3084 2119 3084 
Q 1678 3084 1418 2786 
Q 1159 2488 1159 1978 
L 1159 0 
L 581 0 
L 581 3500 
L 1159 3500 
L 1159 2956 
Q 1356 3278 1631 3431 
Q 1906 3584 2284 3584 
Q 2666 3584 2933 3390 
Q 3200 3197 3328 2828 
z
" transform="scale(0.015625)"/>
      <path id="DejaVuSans-54" d="M -19 4666 
L 3928 4666 
L 3928 4134 
L 2272 4134 
L 2272 0 
L 1638 0 
L 1638 4134 
L -19 4134 
L -19 4666 
z
" transform="scale(0.015625)"/>
      <path id="DejaVuSans-67" d="M 2906 1791 
Q 2906 2416 2648 2759 
Q 2391 3103 1925 3103 
Q 1463 3103 1205 2759 
Q 947 2416 947 1791 
Q 947 1169 1205 825 
Q 1463 481 1925 481 
Q 2391 481 2648 825 
Q 2906 1169 2906 1791 
z
M 3481 434 
Q 3481 -459 3084 -895 
Q 2688 -1331 1869 -1331 
Q 1566 -1331 1297 -1286 
Q 1028 -1241 775 -1147 
L 775 -588 
Q 1028 -725 1275 -790 
Q 1522 -856 1778 -856 
Q 2344 -856 2625 -561 
Q 2906 -266 2906 331 
L 2906 616 
Q 2728 306 2450 153 
Q 2172 0 1784 0 
Q 1141 0 747 490 
Q 353 981 353 1791 
Q 353 2603 747 3093 
Q 1141 3584 1784 3584 
Q 2172 3584 2450 3431 
Q 2728 3278 2906 2969 
L 2906 3500 
L 3481 3500 
L 3481 434 
z
" transform="scale(0.015625)"/>
      <path id="DejaVuSans-65" d="M 3597 1894 
L 3597 1613 
L 953 1613 
Q 991 1019 1311 708 
Q 1631 397 2203 397 
Q 2534 397 2845 478 
Q 3156 559 3463 722 
L 3463 178 
Q 3153 47 2828 -22 
Q 2503 -91 2169 -91 
Q 1331 -91 842 396 
Q 353 884 353 1716 
Q 353 2575 817 3079 
Q 1281 3584 2069 3584 
Q 2775 3584 3186 3129 
Q 3597 2675 3597 1894 
z
M 3022 2063 
Q 3016 2534 2758 2815 
Q 2500 3097 2075 3097 
Q 1594 3097 1305 2825 
Q 1016 2553 972 2059 
L 3022 2063 
z
" transform="scale(0.015625)"/>
     </defs>
     <use xlink:href="#DejaVuSans-69"/>
     <use xlink:href="#DejaVuSans-74" transform="translate(27.783203 0)"/>
     <use xlink:href="#DejaVuSans-33" transform="translate(66.992188 0)"/>
     <use xlink:href="#DejaVuSans-5f" transform="translate(130.615234 0)"/>
     <use xlink:href="#DejaVuSans-6c" transform="translate(180.615234 0)"/>
     <use xlink:href="#DejaVuSans-6f" transform="translate(208.398438 0)"/>
     <use xlink:href="#DejaVuSans-61" transform="translate(269.580078 0)"/>
     <use xlink:href="#DejaVuSans-64" transform="translate(330.859375 0)"/>
     <use xlink:href="#DejaVuSans-5f" transform="translate(394.335938 0)"/>
     <use xlink:href="#DejaVuSans-70" transform="translate(444.335938 0)"/>
     <use xlink:href="#DejaVuSans-75" transform="translate(507.8125 0)"/>
     <use xlink:href="#DejaVuSans-6c" transform="translate(571.191406 0)"/>
     <use xlink:href="#DejaVuSans-6c" transform="translate(598.974609 0)"/>
     <use xlink:href="#DejaVuSans-20" transform="translate(626.757812 0)"/>
     <use xlink:href="#DejaVuSans-2d" transform="translate(658.544922 0)"/>
     <use xlink:href="#DejaVuSans-20" transform="translate(694.628906 0)"/>
     <use xlink:href="#DejaVuSans-42" transform="translate(726.416016 0)"/>
     <use xlink:href="#DejaVuSans-72" transform="translate(795.019531 0)"/>
     <use xlink:href="#DejaVuSans-6f" transform="translate(833.882812 0)"/>
     <use xlink:href="#DejaVuSans-61" transform="translate(895.064453 0)"/>
     <use xlink:href="#DejaVuSans-64" transform="translate(956.34375 0)"/>
     <use xlink:href="#DejaVuSans-62" transform="translate(1019.820312 0)"/>
     <use xlink:href="#DejaVuSans-61" transform="translate(1083.296875 0)"/>
     <use xlink:href="#DejaVuSans-6e" transform="translate(1144.576172 0)"/>
     <use xlink:href="#DejaVuSans-64" transform="translate(1207.955078 0)"/>
     <use xlink:href="#DejaVuSans-20" transform="translate(1271.431641 0)"/>
     <use xlink:href="#DejaVuSans-4f" transform="translate(1303.21875 0)"/>
     <use xlink:href="#DejaVuSans-70" transform="translate(1381.929688 0)"/>
     <use xlink:href="#DejaVuSans-74" transform="translate(1445.40625 0)"/>
     <use xlink:href="#DejaVuSans-69" transform="translate(1484.615234 0)"/>
     <use xlink:href="#DejaVuSans-6d" transform="translate(1512.398438 0)"/>
     <use xlink:href="#DejaVuSans-75" transform="translate(1609.810547 0)"/>
     <use xlink:href="#DejaVuSans-6d" transform="translate(1673.189453 0)"/>
     <use xlink:href="#DejaVuSans-20" transform="translate(1770.601562 0)"/>
     <use xlink:href="#DejaVuSans-54" transform="translate(1802.388672 0)"/>
     <use xlink:href="#DejaVuSans-61" transform="translate(1846.972656 0)"/>
     <use xlink:href="#DejaVuSans-72" transform="translate(1908.251953 0)"/>
     <use xlink:href="#DejaVuSans-67" transform="translate(1947.615234 0)"/>
     <use xlink:href="#DejaVuSans-65" transform="translate(2011.091797 0)"/>
     <use xlink:href="#DejaVuSans-74" transform="translate(2072.615234 0)"/>
    </g>
   </g>
   <g id="legend_1">
    <g id="patch_27">
     <path d="M 854.121525 549.874026 
L 1009.182462 549.874026 
Q 1011.182462 549.874026 1011.182462 547.874026 
L 1011.182462 328.702151 
Q 1011.182462 326.702151 1009.182462 326.702151 
L 854.121525 326.702151 
Q 852.121525 326.702151 852.121525 328.702151 
L 852.121525 547.874026 
Q 852.121525 549.874026 854.121525 549.874026 
z
" style="fill: #ffffff; opacity: 0.8; stroke: #cccccc; stroke-linejoin: miter"/>
    </g>
    <g id="line2d_19">
     <path d="M 856.121525 334.800588 
L 866.121525 334.800588 
L 876.121525 334.800588 
" style="fill: none; stroke: #1f77b4; stroke-opacity: 0.99; stroke-width: 0.2; stroke-linecap: square"/>
    </g>
    <g id="text_19">
     <!-- 12.65 GHz (Target: 47.0) -->
     <g transform="translate(884.121525 338.300588) scale(0.1 -0.1)">
      <defs>
       <path id="DejaVuSans-36" d="M 2113 2584 
Q 1688 2584 1439 2293 
Q 1191 2003 1191 1497 
Q 1191 994 1439 701 
Q 1688 409 2113 409 
Q 2538 409 2786 701 
Q 3034 994 3034 1497 
Q 3034 2003 2786 2293 
Q 2538 2584 2113 2584 
z
M 3366 4563 
L 3366 3988 
Q 3128 4100 2886 4159 
Q 2644 4219 2406 4219 
Q 1781 4219 1451 3797 
Q 1122 3375 1075 2522 
Q 1259 2794 1537 2939 
Q 1816 3084 2150 3084 
Q 2853 3084 3261 2657 
Q 3669 2231 3669 1497 
Q 3669 778 3244 343 
Q 2819 -91 2113 -91 
Q 1303 -91 875 529 
Q 447 1150 447 2328 
Q 447 3434 972 4092 
Q 1497 4750 2381 4750 
Q 2619 4750 2861 4703 
Q 3103 4656 3366 4563 
z
" transform="scale(0.015625)"/>
       <path id="DejaVuSans-47" d="M 3809 666 
L 3809 1919 
L 2778 1919 
L 2778 2438 
L 4434 2438 
L 4434 434 
Q 4069 175 3628 42 
Q 3188 -91 2688 -91 
Q 1594 -91 976 548 
Q 359 1188 359 2328 
Q 359 3472 976 4111 
Q 1594 4750 2688 4750 
Q 3144 4750 3555 4637 
Q 3966 4525 4313 4306 
L 4313 3634 
Q 3963 3931 3569 4081 
Q 3175 4231 2741 4231 
Q 1884 4231 1454 3753 
Q 1025 3275 1025 2328 
Q 1025 1384 1454 906 
Q 1884 428 2741 428 
Q 3075 428 3337 486 
Q 3600 544 3809 666 
z
" transform="scale(0.015625)"/>
       <path id="DejaVuSans-48" d="M 628 4666 
L 1259 4666 
L 1259 2753 
L 3553 2753 
L 3553 4666 
L 4184 4666 
L 4184 0 
L 3553 0 
L 3553 2222 
L 1259 2222 
L 1259 0 
L 628 0 
L 628 4666 
z
" transform="scale(0.015625)"/>
       <path id="DejaVuSans-7a" d="M 353 3500 
L 3084 3500 
L 3084 2975 
L 922 459 
L 3084 459 
L 3084 0 
L 275 0 
L 275 525 
L 2438 3041 
L 353 3041 
L 353 3500 
z
" transform="scale(0.015625)"/>
       <path id="DejaVuSans-28" d="M 1984 4856 
Q 1566 4138 1362 3434 
Q 1159 2731 1159 2009 
Q 1159 1288 1364 580 
Q 1569 -128 1984 -844 
L 1484 -844 
Q 1016 -109 783 600 
Q 550 1309 550 2009 
Q 550 2706 781 3412 
Q 1013 4119 1484 4856 
L 1984 4856 
z
" transform="scale(0.015625)"/>
       <path id="DejaVuSans-3a" d="M 750 794 
L 1409 794 
L 1409 0 
L 750 0 
L 750 794 
z
M 750 3309 
L 1409 3309 
L 1409 2516 
L 750 2516 
L 750 3309 
z
" transform="scale(0.015625)"/>
       <path id="DejaVuSans-34" d="M 2419 4116 
L 825 1625 
L 2419 1625 
L 2419 4116 
z
M 2253 4666 
L 3047 4666 
L 3047 1625 
L 3713 1625 
L 3713 1100 
L 3047 1100 
L 3047 0 
L 2419 0 
L 2419 1100 
L 313 1100 
L 313 1709 
L 2253 4666 
z
" transform="scale(0.015625)"/>
       <path id="DejaVuSans-37" d="M 525 4666 
L 3525 4666 
L 3525 4397 
L 1831 0 
L 1172 0 
L 2766 4134 
L 525 4134 
L 525 4666 
z
" transform="scale(0.015625)"/>
       <path id="DejaVuSans-29" d="M 513 4856 
L 1013 4856 
Q 1481 4119 1714 3412 
Q 1947 2706 1947 2009 
Q 1947 1309 1714 600 
Q 1481 -109 1013 -844 
L 513 -844 
Q 928 -128 1133 580 
Q 1338 1288 1338 2009 
Q 1338 2731 1133 3434 
Q 928 4138 513 4856 
z
" transform="scale(0.015625)"/>
      </defs>
      <use xlink:href="#DejaVuSans-31"/>
      <use xlink:href="#DejaVuSans-32" transform="translate(63.623047 0)"/>
      <use xlink:href="#DejaVuSans-2e" transform="translate(127.246094 0)"/>
      <use xlink:href="#DejaVuSans-36" transform="translate(159.033203 0)"/>
      <use xlink:href="#DejaVuSans-35" transform="translate(222.65625 0)"/>
      <use xlink:href="#DejaVuSans-20" transform="translate(286.279297 0)"/>
      <use xlink:href="#DejaVuSans-47" transform="translate(318.066406 0)"/>
      <use xlink:href="#DejaVuSans-48" transform="translate(395.556641 0)"/>
      <use xlink:href="#DejaVuSans-7a" transform="translate(470.751953 0)"/>
      <use xlink:href="#DejaVuSans-20" transform="translate(523.242188 0)"/>
      <use xlink:href="#DejaVuSans-28" transform="translate(555.029297 0)"/>
      <use xlink:href="#DejaVuSans-54" transform="translate(594.042969 0)"/>
      <use xlink:href="#DejaVuSans-61" transform="translate(638.626953 0)"/>
      <use xlink:href="#DejaVuSans-72" transform="translate(699.90625 0)"/>
      <use xlink:href="#DejaVuSans-67" transform="translate(739.269531 0)"/>
      <use xlink:href="#DejaVuSans-65" transform="translate(802.746094 0)"/>
      <use xlink:href="#DejaVuSans-74" transform="translate(864.269531 0)"/>
      <use xlink:href="#DejaVuSans-3a" transform="translate(903.478516 0)"/>
      <use xlink:href="#DejaVuSans-20" transform="translate(937.169922 0)"/>
      <use xlink:href="#DejaVuSans-34" transform="translate(968.957031 0)"/>
      <use xlink:href="#DejaVuSans-37" transform="translate(1032.580078 0)"/>
      <use xlink:href="#DejaVuSans-2e" transform="translate(1096.203125 0)"/>
      <use xlink:href="#DejaVuSans-30" transform="translate(1127.990234 0)"/>
      <use xlink:href="#DejaVuSans-29" transform="translate(1191.613281 0)"/>
     </g>
    </g>
    <g id="line2d_20">
     <path d="M 856.121525 349.478713 
L 866.121525 349.478713 
L 876.121525 349.478713 
" style="fill: none; stroke: #ff7f0e; stroke-opacity: 0.99; stroke-width: 0.2; stroke-linecap: square"/>
    </g>
    <g id="text_20">
     <!-- 12.70 GHz (Target: 47.0) -->
     <g transform="translate(884.121525 352.978713) scale(0.1 -0.1)">
      <use xlink:href="#DejaVuSans-31"/>
      <use xlink:href="#DejaVuSans-32" transform="translate(63.623047 0)"/>
      <use xlink:href="#DejaVuSans-2e" transform="translate(127.246094 0)"/>
      <use xlink:href="#DejaVuSans-37" transform="translate(159.033203 0)"/>
      <use xlink:href="#DejaVuSans-30" transform="translate(222.65625 0)"/>
      <use xlink:href="#DejaVuSans-20" transform="translate(286.279297 0)"/>
      <use xlink:href="#DejaVuSans-47" transform="translate(318.066406 0)"/>
      <use xlink:href="#DejaVuSans-48" transform="translate(395.556641 0)"/>
      <use xlink:href="#DejaVuSans-7a" transform="translate(470.751953 0)"/>
      <use xlink:href="#DejaVuSans-20" transform="translate(523.242188 0)"/>
      <use xlink:href="#DejaVuSans-28" transform="translate(555.029297 0)"/>
      <use xlink:href="#DejaVuSans-54" transform="translate(594.042969 0)"/>
      <use xlink:href="#DejaVuSans-61" transform="translate(638.626953 0)"/>
      <use xlink:href="#DejaVuSans-72" transform="translate(699.90625 0)"/>
      <use xlink:href="#DejaVuSans-67" transform="translate(739.269531 0)"/>
      <use xlink:href="#DejaVuSans-65" transform="translate(802.746094 0)"/>
      <use xlink:href="#DejaVuSans-74" transform="translate(864.269531 0)"/>
      <use xlink:href="#DejaVuSans-3a" transform="translate(903.478516 0)"/>
      <use xlink:href="#DejaVuSans-20" transform="translate(937.169922 0)"/>
      <use xlink:href="#DejaVuSans-34" transform="translate(968.957031 0)"/>
      <use xlink:href="#DejaVuSans-37" transform="translate(1032.580078 0)"/>
      <use xlink:href="#DejaVuSans-2e" transform="translate(1096.203125 0)"/>
      <use xlink:href="#DejaVuSans-30" transform="translate(1127.990234 0)"/>
      <use xlink:href="#DejaVuSans-29" transform="translate(1191.613281 0)"/>
     </g>
    </g>
    <g id="line2d_21">
     <path d="M 856.121525 364.156838 
L 866.121525 364.156838 
L 876.121525 364.156838 
" style="fill: none; stroke: #2ca02c; stroke-opacity: 0.99; stroke-width: 0.2; stroke-linecap: square"/>
    </g>
    <g id="text_21">
     <!-- 12.75 GHz (Target: 47.5) -->
     <g transform="translate(884.121525 367.656838) scale(0.1 -0.1)">
      <use xlink:href="#DejaVuSans-31"/>
      <use xlink:href="#DejaVuSans-32" transform="translate(63.623047 0)"/>
      <use xlink:href="#DejaVuSans-2e" transform="translate(127.246094 0)"/>
      <use xlink:href="#DejaVuSans-37" transform="translate(159.033203 0)"/>
      <use xlink:href="#DejaVuSans-35" transform="translate(222.65625 0)"/>
      <use xlink:href="#DejaVuSans-20" transform="translate(286.279297 0)"/>
      <use xlink:href="#DejaVuSans-47" transform="translate(318.066406 0)"/>
      <use xlink:href="#DejaVuSans-48" transform="translate(395.556641 0)"/>
      <use xlink:href="#DejaVuSans-7a" transform="translate(470.751953 0)"/>
      <use xlink:href="#DejaVuSans-20" transform="translate(523.242188 0)"/>
      <use xlink:href="#DejaVuSans-28" transform="translate(555.029297 0)"/>
      <use xlink:href="#DejaVuSans-54" transform="translate(594.042969 0)"/>
      <use xlink:href="#DejaVuSans-61" transform="translate(638.626953 0)"/>
      <use xlink:href="#DejaVuSans-72" transform="translate(699.90625 0)"/>
      <use xlink:href="#DejaVuSans-67" transform="translate(739.269531 0)"/>
      <use xlink:href="#DejaVuSans-65" transform="translate(802.746094 0)"/>
      <use xlink:href="#DejaVuSans-74" transform="translate(864.269531 0)"/>
      <use xlink:href="#DejaVuSans-3a" transform="translate(903.478516 0)"/>
      <use xlink:href="#DejaVuSans-20" transform="translate(937.169922 0)"/>
      <use xlink:href="#DejaVuSans-34" transform="translate(968.957031 0)"/>
      <use xlink:href="#DejaVuSans-37" transform="translate(1032.580078 0)"/>
      <use xlink:href="#DejaVuSans-2e" transform="translate(1096.203125 0)"/>
      <use xlink:href="#DejaVuSans-35" transform="translate(1127.990234 0)"/>
      <use xlink:href="#DejaVuSans-29" transform="translate(1191.613281 0)"/>
     </g>
    </g>
    <g id="line2d_22">
     <path d="M 856.121525 378.834963 
L 866.121525 378.834963 
L 876.121525 378.834963 
" style="fill: none; stroke: #d62728; stroke-opacity: 0.99; stroke-width: 0.2; stroke-linecap: square"/>
    </g>
    <g id="text_22">
     <!-- 12.80 GHz (Target: 47.5) -->
     <g transform="translate(884.121525 382.334963) scale(0.1 -0.1)">
      <defs>
       <path id="DejaVuSans-38" d="M 2034 2216 
Q 1584 2216 1326 1975 
Q 1069 1734 1069 1313 
Q 1069 891 1326 650 
Q 1584 409 2034 409 
Q 2484 409 2743 651 
Q 3003 894 3003 1313 
Q 3003 1734 2745 1975 
Q 2488 2216 2034 2216 
z
M 1403 2484 
Q 997 2584 770 2862 
Q 544 3141 544 3541 
Q 544 4100 942 4425 
Q 1341 4750 2034 4750 
Q 2731 4750 3128 4425 
Q 3525 4100 3525 3541 
Q 3525 3141 3298 2862 
Q 3072 2584 2669 2484 
Q 3125 2378 3379 2068 
Q 3634 1759 3634 1313 
Q 3634 634 3220 271 
Q 2806 -91 2034 -91 
Q 1263 -91 848 271 
Q 434 634 434 1313 
Q 434 1759 690 2068 
Q 947 2378 1403 2484 
z
M 1172 3481 
Q 1172 3119 1398 2916 
Q 1625 2713 2034 2713 
Q 2441 2713 2670 2916 
Q 2900 3119 2900 3481 
Q 2900 3844 2670 4047 
Q 2441 4250 2034 4250 
Q 1625 4250 1398 4047 
Q 1172 3844 1172 3481 
z
" transform="scale(0.015625)"/>
      </defs>
      <use xlink:href="#DejaVuSans-31"/>
      <use xlink:href="#DejaVuSans-32" transform="translate(63.623047 0)"/>
      <use xlink:href="#DejaVuSans-2e" transform="translate(127.246094 0)"/>
      <use xlink:href="#DejaVuSans-38" transform="translate(159.033203 0)"/>
      <use xlink:href="#DejaVuSans-30" transform="translate(222.65625 0)"/>
      <use xlink:href="#DejaVuSans-20" transform="translate(286.279297 0)"/>
      <use xlink:href="#DejaVuSans-47" transform="translate(318.066406 0)"/>
      <use xlink:href="#DejaVuSans-48" transform="translate(395.556641 0)"/>
      <use xlink:href="#DejaVuSans-7a" transform="translate(470.751953 0)"/>
      <use xlink:href="#DejaVuSans-20" transform="translate(523.242188 0)"/>
      <use xlink:href="#DejaVuSans-28" transform="translate(555.029297 0)"/>
      <use xlink:href="#DejaVuSans-54" transform="translate(594.042969 0)"/>
      <use xlink:href="#DejaVuSans-61" transform="translate(638.626953 0)"/>
      <use xlink:href="#DejaVuSans-72" transform="translate(699.90625 0)"/>
      <use xlink:href="#DejaVuSans-67" transform="translate(739.269531 0)"/>
      <use xlink:href="#DejaVuSans-65" transform="translate(802.746094 0)"/>
      <use xlink:href="#DejaVuSans-74" transform="translate(864.269531 0)"/>
      <use xlink:href="#DejaVuSans-3a" transform="translate(903.478516 0)"/>
      <use xlink:href="#DejaVuSans-20" transform="translate(937.169922 0)"/>
      <use xlink:href="#DejaVuSans-34" transform="translate(968.957031 0)"/>
      <use xlink:href="#DejaVuSans-37" transform="translate(1032.580078 0)"/>
      <use xlink:href="#DejaVuSans-2e" transform="translate(1096.203125 0)"/>
      <use xlink:href="#DejaVuSans-35" transform="translate(1127.990234 0)"/>
      <use xlink:href="#DejaVuSans-29" transform="translate(1191.613281 0)"/>
     </g>
    </g>
    <g id="line2d_23">
     <path d="M 856.121525 393.513088 
L 866.121525 393.513088 
L 876.121525 393.513088 
" style="fill: none; stroke: #9467bd; stroke-opacity: 0.99; stroke-width: 0.2; stroke-linecap: square"/>
    </g>
    <g id="text_23">
     <!-- 12.85 GHz (Target: 48.0) -->
     <g transform="translate(884.121525 397.013088) scale(0.1 -0.1)">
      <use xlink:href="#DejaVuSans-31"/>
      <use xlink:href="#DejaVuSans-32" transform="translate(63.623047 0)"/>
      <use xlink:href="#DejaVuSans-2e" transform="translate(127.246094 0)"/>
      <use xlink:href="#DejaVuSans-38" transform="translate(159.033203 0)"/>
      <use xlink:href="#DejaVuSans-35" transform="translate(222.65625 0)"/>
      <use xlink:href="#DejaVuSans-20" transform="translate(286.279297 0)"/>
      <use xlink:href="#DejaVuSans-47" transform="translate(318.066406 0)"/>
      <use xlink:href="#DejaVuSans-48" transform="translate(395.556641 0)"/>
      <use xlink:href="#DejaVuSans-7a" transform="translate(470.751953 0)"/>
      <use xlink:href="#DejaVuSans-20" transform="translate(523.242188 0)"/>
      <use xlink:href="#DejaVuSans-28" transform="translate(555.029297 0)"/>
      <use xlink:href="#DejaVuSans-54" transform="translate(594.042969 0)"/>
      <use xlink:href="#DejaVuSans-61" transform="translate(638.626953 0)"/>
      <use xlink:href="#DejaVuSans-72" transform="translate(699.90625 0)"/>
      <use xlink:href="#DejaVuSans-67" transform="translate(739.269531 0)"/>
      <use xlink:href="#DejaVuSans-65" transform="translate(802.746094 0)"/>
      <use xlink:href="#DejaVuSans-74" transform="translate(864.269531 0)"/>
      <use xlink:href="#DejaVuSans-3a" transform="translate(903.478516 0)"/>
      <use xlink:href="#DejaVuSans-20" transform="translate(937.169922 0)"/>
      <use xlink:href="#DejaVuSans-34" transform="translate(968.957031 0)"/>
      <use xlink:href="#DejaVuSans-38" transform="translate(1032.580078 0)"/>
      <use xlink:href="#DejaVuSans-2e" transform="translate(1096.203125 0)"/>
      <use xlink:href="#DejaVuSans-30" transform="translate(1127.990234 0)"/>
      <use xlink:href="#DejaVuSans-29" transform="translate(1191.613281 0)"/>
     </g>
    </g>
    <g id="line2d_24">
     <path d="M 856.121525 408.191213 
L 866.121525 408.191213 
L 876.121525 408.191213 
" style="fill: none; stroke: #8c564b; stroke-opacity: 0.99; stroke-width: 0.2; stroke-linecap: square"/>
    </g>
    <g id="text_24">
     <!-- 12.90 GHz (Target: 48.0) -->
     <g transform="translate(884.121525 411.691213) scale(0.1 -0.1)">
      <defs>
       <path id="DejaVuSans-39" d="M 703 97 
L 703 672 
Q 941 559 1184 500 
Q 1428 441 1663 441 
Q 2288 441 2617 861 
Q 2947 1281 2994 2138 
Q 2813 1869 2534 1725 
Q 2256 1581 1919 1581 
Q 1219 1581 811 2004 
Q 403 2428 403 3163 
Q 403 3881 828 4315 
Q 1253 4750 1959 4750 
Q 2769 4750 3195 4129 
Q 3622 3509 3622 2328 
Q 3622 1225 3098 567 
Q 2575 -91 1691 -91 
Q 1453 -91 1209 -44 
Q 966 3 703 97 
z
M 1959 2075 
Q 2384 2075 2632 2365 
Q 2881 2656 2881 3163 
Q 2881 3666 2632 3958 
Q 2384 4250 1959 4250 
Q 1534 4250 1286 3958 
Q 1038 3666 1038 3163 
Q 1038 2656 1286 2365 
Q 1534 2075 1959 2075 
z
" transform="scale(0.015625)"/>
      </defs>
      <use xlink:href="#DejaVuSans-31"/>
      <use xlink:href="#DejaVuSans-32" transform="translate(63.623047 0)"/>
      <use xlink:href="#DejaVuSans-2e" transform="translate(127.246094 0)"/>
      <use xlink:href="#DejaVuSans-39" transform="translate(159.033203 0)"/>
      <use xlink:href="#DejaVuSans-30" transform="translate(222.65625 0)"/>
      <use xlink:href="#DejaVuSans-20" transform="translate(286.279297 0)"/>
      <use xlink:href="#DejaVuSans-47" transform="translate(318.066406 0)"/>
      <use xlink:href="#DejaVuSans-48" transform="translate(395.556641 0)"/>
      <use xlink:href="#DejaVuSans-7a" transform="translate(470.751953 0)"/>
      <use xlink:href="#DejaVuSans-20" transform="translate(523.242188 0)"/>
      <use xlink:href="#DejaVuSans-28" transform="translate(555.029297 0)"/>
      <use xlink:href="#DejaVuSans-54" transform="translate(594.042969 0)"/>
      <use xlink:href="#DejaVuSans-61" transform="translate(638.626953 0)"/>
      <use xlink:href="#DejaVuSans-72" transform="translate(699.90625 0)"/>
      <use xlink:href="#DejaVuSans-67" transform="translate(739.269531 0)"/>
      <use xlink:href="#DejaVuSans-65" transform="translate(802.746094 0)"/>
      <use xlink:href="#DejaVuSans-74" transform="translate(864.269531 0)"/>
      <use xlink:href="#DejaVuSans-3a" transform="translate(903.478516 0)"/>
      <use xlink:href="#DejaVuSans-20" transform="translate(937.169922 0)"/>
      <use xlink:href="#DejaVuSans-34" transform="translate(968.957031 0)"/>
      <use xlink:href="#DejaVuSans-38" transform="translate(1032.580078 0)"/>
      <use xlink:href="#DejaVuSans-2e" transform="translate(1096.203125 0)"/>
      <use xlink:href="#DejaVuSans-30" transform="translate(1127.990234 0)"/>
      <use xlink:href="#DejaVuSans-29" transform="translate(1191.613281 0)"/>
     </g>
    </g>
    <g id="line2d_25">
     <path d="M 856.121525 422.869338 
L 866.121525 422.869338 
L 876.121525 422.869338 
" style="fill: none; stroke: #e377c2; stroke-opacity: 0.99; stroke-width: 0.2; stroke-linecap: square"/>
    </g>
    <g id="text_25">
     <!-- 12.95 GHz (Target: 48.0) -->
     <g transform="translate(884.121525 426.369338) scale(0.1 -0.1)">
      <use xlink:href="#DejaVuSans-31"/>
      <use xlink:href="#DejaVuSans-32" transform="translate(63.623047 0)"/>
      <use xlink:href="#DejaVuSans-2e" transform="translate(127.246094 0)"/>
      <use xlink:href="#DejaVuSans-39" transform="translate(159.033203 0)"/>
      <use xlink:href="#DejaVuSans-35" transform="translate(222.65625 0)"/>
      <use xlink:href="#DejaVuSans-20" transform="translate(286.279297 0)"/>
      <use xlink:href="#DejaVuSans-47" transform="translate(318.066406 0)"/>
      <use xlink:href="#DejaVuSans-48" transform="translate(395.556641 0)"/>
      <use xlink:href="#DejaVuSans-7a" transform="translate(470.751953 0)"/>
      <use xlink:href="#DejaVuSans-20" transform="translate(523.242188 0)"/>
      <use xlink:href="#DejaVuSans-28" transform="translate(555.029297 0)"/>
      <use xlink:href="#DejaVuSans-54" transform="translate(594.042969 0)"/>
      <use xlink:href="#DejaVuSans-61" transform="translate(638.626953 0)"/>
      <use xlink:href="#DejaVuSans-72" transform="translate(699.90625 0)"/>
      <use xlink:href="#DejaVuSans-67" transform="translate(739.269531 0)"/>
      <use xlink:href="#DejaVuSans-65" transform="translate(802.746094 0)"/>
      <use xlink:href="#DejaVuSans-74" transform="translate(864.269531 0)"/>
      <use xlink:href="#DejaVuSans-3a" transform="translate(903.478516 0)"/>
      <use xlink:href="#DejaVuSans-20" transform="translate(937.169922 0)"/>
      <use xlink:href="#DejaVuSans-34" transform="translate(968.957031 0)"/>
      <use xlink:href="#DejaVuSans-38" transform="translate(1032.580078 0)"/>
      <use xlink:href="#DejaVuSans-2e" transform="translate(1096.203125 0)"/>
      <use xlink:href="#DejaVuSans-30" transform="translate(1127.990234 0)"/>
      <use xlink:href="#DejaVuSans-29" transform="translate(1191.613281 0)"/>
     </g>
    </g>
    <g id="line2d_26">
     <path d="M 856.121525 437.547463 
L 866.121525 437.547463 
L 876.121525 437.547463 
" style="fill: none; stroke: #7f7f7f; stroke-opacity: 0.99; stroke-width: 0.2; stroke-linecap: square"/>
    </g>
    <g id="text_26">
     <!-- 13.00 GHz (Target: 48.0) -->
     <g transform="translate(884.121525 441.047463) scale(0.1 -0.1)">
      <use xlink:href="#DejaVuSans-31"/>
      <use xlink:href="#DejaVuSans-33" transform="translate(63.623047 0)"/>
      <use xlink:href="#DejaVuSans-2e" transform="translate(127.246094 0)"/>
      <use xlink:href="#DejaVuSans-30" transform="translate(159.033203 0)"/>
      <use xlink:href="#DejaVuSans-30" transform="translate(222.65625 0)"/>
      <use xlink:href="#DejaVuSans-20" transform="translate(286.279297 0)"/>
      <use xlink:href="#DejaVuSans-47" transform="translate(318.066406 0)"/>
      <use xlink:href="#DejaVuSans-48" transform="translate(395.556641 0)"/>
      <use xlink:href="#DejaVuSans-7a" transform="translate(470.751953 0)"/>
      <use xlink:href="#DejaVuSans-20" transform="translate(523.242188 0)"/>
      <use xlink:href="#DejaVuSans-28" transform="translate(555.029297 0)"/>
      <use xlink:href="#DejaVuSans-54" transform="translate(594.042969 0)"/>
      <use xlink:href="#DejaVuSans-61" transform="translate(638.626953 0)"/>
      <use xlink:href="#DejaVuSans-72" transform="translate(699.90625 0)"/>
      <use xlink:href="#DejaVuSans-67" transform="translate(739.269531 0)"/>
      <use xlink:href="#DejaVuSans-65" transform="translate(802.746094 0)"/>
      <use xlink:href="#DejaVuSans-74" transform="translate(864.269531 0)"/>
      <use xlink:href="#DejaVuSans-3a" transform="translate(903.478516 0)"/>
      <use xlink:href="#DejaVuSans-20" transform="translate(937.169922 0)"/>
      <use xlink:href="#DejaVuSans-34" transform="translate(968.957031 0)"/>
      <use xlink:href="#DejaVuSans-38" transform="translate(1032.580078 0)"/>
      <use xlink:href="#DejaVuSans-2e" transform="translate(1096.203125 0)"/>
      <use xlink:href="#DejaVuSans-30" transform="translate(1127.990234 0)"/>
      <use xlink:href="#DejaVuSans-29" transform="translate(1191.613281 0)"/>
     </g>
    </g>
    <g id="line2d_27">
     <path d="M 856.121525 452.225588 
L 866.121525 452.225588 
L 876.121525 452.225588 
" style="fill: none; stroke: #bcbd22; stroke-opacity: 0.99; stroke-width: 0.2; stroke-linecap: square"/>
    </g>
    <g id="text_27">
     <!-- 13.05 GHz (Target: 48.0) -->
     <g transform="translate(884.121525 455.725588) scale(0.1 -0.1)">
      <use xlink:href="#DejaVuSans-31"/>
      <use xlink:href="#DejaVuSans-33" transform="translate(63.623047 0)"/>
      <use xlink:href="#DejaVuSans-2e" transform="translate(127.246094 0)"/>
      <use xlink:href="#DejaVuSans-30" transform="translate(159.033203 0)"/>
      <use xlink:href="#DejaVuSans-35" transform="translate(222.65625 0)"/>
      <use xlink:href="#DejaVuSans-20" transform="translate(286.279297 0)"/>
      <use xlink:href="#DejaVuSans-47" transform="translate(318.066406 0)"/>
      <use xlink:href="#DejaVuSans-48" transform="translate(395.556641 0)"/>
      <use xlink:href="#DejaVuSans-7a" transform="translate(470.751953 0)"/>
      <use xlink:href="#DejaVuSans-20" transform="translate(523.242188 0)"/>
      <use xlink:href="#DejaVuSans-28" transform="translate(555.029297 0)"/>
      <use xlink:href="#DejaVuSans-54" transform="translate(594.042969 0)"/>
      <use xlink:href="#DejaVuSans-61" transform="translate(638.626953 0)"/>
      <use xlink:href="#DejaVuSans-72" transform="translate(699.90625 0)"/>
      <use xlink:href="#DejaVuSans-67" transform="translate(739.269531 0)"/>
      <use xlink:href="#DejaVuSans-65" transform="translate(802.746094 0)"/>
      <use xlink:href="#DejaVuSans-74" transform="translate(864.269531 0)"/>
      <use xlink:href="#DejaVuSans-3a" transform="translate(903.478516 0)"/>
      <use xlink:href="#DejaVuSans-20" transform="translate(937.169922 0)"/>
      <use xlink:href="#DejaVuSans-34" transform="translate(968.957031 0)"/>
      <use xlink:href="#DejaVuSans-38" transform="translate(1032.580078 0)"/>
      <use xlink:href="#DejaVuSans-2e" transform="translate(1096.203125 0)"/>
      <use xlink:href="#DejaVuSans-30" transform="translate(1127.990234 0)"/>
      <use xlink:href="#DejaVuSans-29" transform="translate(1191.613281 0)"/>
     </g>
    </g>
    <g id="line2d_28">
     <path d="M 856.121525 466.903713 
L 866.121525 466.903713 
L 876.121525 466.903713 
" style="fill: none; stroke: #17becf; stroke-opacity: 0.99; stroke-width: 0.2; stroke-linecap: square"/>
    </g>
    <g id="text_28">
     <!-- 13.10 GHz (Target: 47.5) -->
     <g transform="translate(884.121525 470.403713) scale(0.1 -0.1)">
      <use xlink:href="#DejaVuSans-31"/>
      <use xlink:href="#DejaVuSans-33" transform="translate(63.623047 0)"/>
      <use xlink:href="#DejaVuSans-2e" transform="translate(127.246094 0)"/>
      <use xlink:href="#DejaVuSans-31" transform="translate(159.033203 0)"/>
      <use xlink:href="#DejaVuSans-30" transform="translate(222.65625 0)"/>
      <use xlink:href="#DejaVuSans-20" transform="translate(286.279297 0)"/>
      <use xlink:href="#DejaVuSans-47" transform="translate(318.066406 0)"/>
      <use xlink:href="#DejaVuSans-48" transform="translate(395.556641 0)"/>
      <use xlink:href="#DejaVuSans-7a" transform="translate(470.751953 0)"/>
      <use xlink:href="#DejaVuSans-20" transform="translate(523.242188 0)"/>
      <use xlink:href="#DejaVuSans-28" transform="translate(555.029297 0)"/>
      <use xlink:href="#DejaVuSans-54" transform="translate(594.042969 0)"/>
      <use xlink:href="#DejaVuSans-61" transform="translate(638.626953 0)"/>
      <use xlink:href="#DejaVuSans-72" transform="translate(699.90625 0)"/>
      <use xlink:href="#DejaVuSans-67" transform="translate(739.269531 0)"/>
      <use xlink:href="#DejaVuSans-65" transform="translate(802.746094 0)"/>
      <use xlink:href="#DejaVuSans-74" transform="translate(864.269531 0)"/>
      <use xlink:href="#DejaVuSans-3a" transform="translate(903.478516 0)"/>
      <use xlink:href="#DejaVuSans-20" transform="translate(937.169922 0)"/>
      <use xlink:href="#DejaVuSans-34" transform="translate(968.957031 0)"/>
      <use xlink:href="#DejaVuSans-37" transform="translate(1032.580078 0)"/>
      <use xlink:href="#DejaVuSans-2e" transform="translate(1096.203125 0)"/>
      <use xlink:href="#DejaVuSans-35" transform="translate(1127.990234 0)"/>
      <use xlink:href="#DejaVuSans-29" transform="translate(1191.613281 0)"/>
     </g>
    </g>
    <g id="line2d_29">
     <path d="M 856.121525 481.581838 
L 866.121525 481.581838 
L 876.121525 481.581838 
" style="fill: none; stroke: #1f77b4; stroke-opacity: 0.99; stroke-width: 0.2; stroke-linecap: square"/>
    </g>
    <g id="text_29">
     <!-- 13.15 GHz (Target: 47.5) -->
     <g transform="translate(884.121525 485.081838) scale(0.1 -0.1)">
      <use xlink:href="#DejaVuSans-31"/>
      <use xlink:href="#DejaVuSans-33" transform="translate(63.623047 0)"/>
      <use xlink:href="#DejaVuSans-2e" transform="translate(127.246094 0)"/>
      <use xlink:href="#DejaVuSans-31" transform="translate(159.033203 0)"/>
      <use xlink:href="#DejaVuSans-35" transform="translate(222.65625 0)"/>
      <use xlink:href="#DejaVuSans-20" transform="translate(286.279297 0)"/>
      <use xlink:href="#DejaVuSans-47" transform="translate(318.066406 0)"/>
      <use xlink:href="#DejaVuSans-48" transform="translate(395.556641 0)"/>
      <use xlink:href="#DejaVuSans-7a" transform="translate(470.751953 0)"/>
      <use xlink:href="#DejaVuSans-20" transform="translate(523.242188 0)"/>
      <use xlink:href="#DejaVuSans-28" transform="translate(555.029297 0)"/>
      <use xlink:href="#DejaVuSans-54" transform="translate(594.042969 0)"/>
      <use xlink:href="#DejaVuSans-61" transform="translate(638.626953 0)"/>
      <use xlink:href="#DejaVuSans-72" transform="translate(699.90625 0)"/>
      <use xlink:href="#DejaVuSans-67" transform="translate(739.269531 0)"/>
      <use xlink:href="#DejaVuSans-65" transform="translate(802.746094 0)"/>
      <use xlink:href="#DejaVuSans-74" transform="translate(864.269531 0)"/>
      <use xlink:href="#DejaVuSans-3a" transform="translate(903.478516 0)"/>
      <use xlink:href="#DejaVuSans-20" transform="translate(937.169922 0)"/>
      <use xlink:href="#DejaVuSans-34" transform="translate(968.957031 0)"/>
      <use xlink:href="#DejaVuSans-37" transform="translate(1032.580078 0)"/>
      <use xlink:href="#DejaVuSans-2e" transform="translate(1096.203125 0)"/>
      <use xlink:href="#DejaVuSans-35" transform="translate(1127.990234 0)"/>
      <use xlink:href="#DejaVuSans-29" transform="translate(1191.613281 0)"/>
     </g>
    </g>
    <g id="line2d_30">
     <path d="M 856.121525 496.259963 
L 866.121525 496.259963 
L 876.121525 496.259963 
" style="fill: none; stroke: #ff7f0e; stroke-opacity: 0.99; stroke-width: 0.2; stroke-linecap: square"/>
    </g>
    <g id="text_30">
     <!-- 13.20 GHz (Target: 47.5) -->
     <g transform="translate(884.121525 499.759963) scale(0.1 -0.1)">
      <use xlink:href="#DejaVuSans-31"/>
      <use xlink:href="#DejaVuSans-33" transform="translate(63.623047 0)"/>
      <use xlink:href="#DejaVuSans-2e" transform="translate(127.246094 0)"/>
      <use xlink:href="#DejaVuSans-32" transform="translate(159.033203 0)"/>
      <use xlink:href="#DejaVuSans-30" transform="translate(222.65625 0)"/>
      <use xlink:href="#DejaVuSans-20" transform="translate(286.279297 0)"/>
      <use xlink:href="#DejaVuSans-47" transform="translate(318.066406 0)"/>
      <use xlink:href="#DejaVuSans-48" transform="translate(395.556641 0)"/>
      <use xlink:href="#DejaVuSans-7a" transform="translate(470.751953 0)"/>
      <use xlink:href="#DejaVuSans-20" transform="translate(523.242188 0)"/>
      <use xlink:href="#DejaVuSans-28" transform="translate(555.029297 0)"/>
      <use xlink:href="#DejaVuSans-54" transform="translate(594.042969 0)"/>
      <use xlink:href="#DejaVuSans-61" transform="translate(638.626953 0)"/>
      <use xlink:href="#DejaVuSans-72" transform="translate(699.90625 0)"/>
      <use xlink:href="#DejaVuSans-67" transform="translate(739.269531 0)"/>
      <use xlink:href="#DejaVuSans-65" transform="translate(802.746094 0)"/>
      <use xlink:href="#DejaVuSans-74" transform="translate(864.269531 0)"/>
      <use xlink:href="#DejaVuSans-3a" transform="translate(903.478516 0)"/>
      <use xlink:href="#DejaVuSans-20" transform="translate(937.169922 0)"/>
      <use xlink:href="#DejaVuSans-34" transform="translate(968.957031 0)"/>
      <use xlink:href="#DejaVuSans-37" transform="translate(1032.580078 0)"/>
      <use xlink:href="#DejaVuSans-2e" transform="translate(1096.203125 0)"/>
      <use xlink:href="#DejaVuSans-35" transform="translate(1127.990234 0)"/>
      <use xlink:href="#DejaVuSans-29" transform="translate(1191.613281 0)"/>
     </g>
    </g>
    <g id="line2d_31">
     <path d="M 856.121525 510.938088 
L 866.121525 510.938088 
L 876.121525 510.938088 
" style="fill: none; stroke: #2ca02c; stroke-opacity: 0.99; stroke-width: 0.2; stroke-linecap: square"/>
    </g>
    <g id="text_31">
     <!-- 13.25 GHz (Target: 47.5) -->
     <g transform="translate(884.121525 514.438088) scale(0.1 -0.1)">
      <use xlink:href="#DejaVuSans-31"/>
      <use xlink:href="#DejaVuSans-33" transform="translate(63.623047 0)"/>
      <use xlink:href="#DejaVuSans-2e" transform="translate(127.246094 0)"/>
      <use xlink:href="#DejaVuSans-32" transform="translate(159.033203 0)"/>
      <use xlink:href="#DejaVuSans-35" transform="translate(222.65625 0)"/>
      <use xlink:href="#DejaVuSans-20" transform="translate(286.279297 0)"/>
      <use xlink:href="#DejaVuSans-47" transform="translate(318.066406 0)"/>
      <use xlink:href="#DejaVuSans-48" transform="translate(395.556641 0)"/>
      <use xlink:href="#DejaVuSans-7a" transform="translate(470.751953 0)"/>
      <use xlink:href="#DejaVuSans-20" transform="translate(523.242188 0)"/>
      <use xlink:href="#DejaVuSans-28" transform="translate(555.029297 0)"/>
      <use xlink:href="#DejaVuSans-54" transform="translate(594.042969 0)"/>
      <use xlink:href="#DejaVuSans-61" transform="translate(638.626953 0)"/>
      <use xlink:href="#DejaVuSans-72" transform="translate(699.90625 0)"/>
      <use xlink:href="#DejaVuSans-67" transform="translate(739.269531 0)"/>
      <use xlink:href="#DejaVuSans-65" transform="translate(802.746094 0)"/>
      <use xlink:href="#DejaVuSans-74" transform="translate(864.269531 0)"/>
      <use xlink:href="#DejaVuSans-3a" transform="translate(903.478516 0)"/>
      <use xlink:href="#DejaVuSans-20" transform="translate(937.169922 0)"/>
      <use xlink:href="#DejaVuSans-34" transform="translate(968.957031 0)"/>
      <use xlink:href="#DejaVuSans-37" transform="translate(1032.580078 0)"/>
      <use xlink:href="#DejaVuSans-2e" transform="translate(1096.203125 0)"/>
      <use xlink:href="#DejaVuSans-35" transform="translate(1127.990234 0)"/>
      <use xlink:href="#DejaVuSans-29" transform="translate(1191.613281 0)"/>
     </g>
    </g>
    <g id="line2d_32">
     <path d="M 856.121525 525.616213 
L 866.121525 525.616213 
L 876.121525 525.616213 
" style="fill: none; stroke: #d62728; stroke-opacity: 0.99; stroke-width: 0.2; stroke-linecap: square"/>
    </g>
    <g id="text_32">
     <!-- 13.30 GHz (Target: 47.0) -->
     <g transform="translate(884.121525 529.116213) scale(0.1 -0.1)">
      <use xlink:href="#DejaVuSans-31"/>
      <use xlink:href="#DejaVuSans-33" transform="translate(63.623047 0)"/>
      <use xlink:href="#DejaVuSans-2e" transform="translate(127.246094 0)"/>
      <use xlink:href="#DejaVuSans-33" transform="translate(159.033203 0)"/>
      <use xlink:href="#DejaVuSans-30" transform="translate(222.65625 0)"/>
      <use xlink:href="#DejaVuSans-20" transform="translate(286.279297 0)"/>
      <use xlink:href="#DejaVuSans-47" transform="translate(318.066406 0)"/>
      <use xlink:href="#DejaVuSans-48" transform="translate(395.556641 0)"/>
      <use xlink:href="#DejaVuSans-7a" transform="translate(470.751953 0)"/>
      <use xlink:href="#DejaVuSans-20" transform="translate(523.242188 0)"/>
      <use xlink:href="#DejaVuSans-28" transform="translate(555.029297 0)"/>
      <use xlink:href="#DejaVuSans-54" transform="translate(594.042969 0)"/>
      <use xlink:href="#DejaVuSans-61" transform="translate(638.626953 0)"/>
      <use xlink:href="#DejaVuSans-72" transform="translate(699.90625 0)"/>
      <use xlink:href="#DejaVuSans-67" transform="translate(739.269531 0)"/>
      <use xlink:href="#DejaVuSans-65" transform="translate(802.746094 0)"/>
      <use xlink:href="#DejaVuSans-74" transform="translate(864.269531 0)"/>
      <use xlink:href="#DejaVuSans-3a" transform="translate(903.478516 0)"/>
      <use xlink:href="#DejaVuSans-20" transform="translate(937.169922 0)"/>
      <use xlink:href="#DejaVuSans-34" transform="translate(968.957031 0)"/>
      <use xlink:href="#DejaVuSans-37" transform="translate(1032.580078 0)"/>
      <use xlink:href="#DejaVuSans-2e" transform="translate(1096.203125 0)"/>
      <use xlink:href="#DejaVuSans-30" transform="translate(1127.990234 0)"/>
      <use xlink:href="#DejaVuSans-29" transform="translate(1191.613281 0)"/>
     </g>
    </g>
    <g id="line2d_33">
     <path d="M 856.121525 540.294338 
L 866.121525 540.294338 
L 876.121525 540.294338 
" style="fill: none; stroke: #000000; stroke-width: 1.5; stroke-linecap: square"/>
     <defs>
      <path id="m5e8818e198" d="M -0.025 0.05 
L 0 0.025 
L 0.025 0.05 
L 0.05 0.025 
L 0.025 0 
L 0.05 -0.025 
L 0.025 -0.05 
L 0 -0.025 
L -0.025 -0.05 
L -0.05 -0.025 
L -0.025 0 
L -0.05 0.025 
z
" style="stroke: #000000; stroke-linejoin: miter"/>
     </defs>
     <g>
      <use xlink:href="#m5e8818e198" x="866.121525" y="540.294338" style="stroke: #000000; stroke-linejoin: miter"/>
     </g>
    </g>
    <g id="text_33">
     <!-- Optimum Target -->
     <g transform="translate(884.121525 543.794338) scale(0.1 -0.1)">
      <use xlink:href="#DejaVuSans-4f"/>
      <use xlink:href="#DejaVuSans-70" transform="translate(78.710938 0)"/>
      <use xlink:href="#DejaVuSans-74" transform="translate(142.1875 0)"/>
      <use xlink:href="#DejaVuSans-69" transform="translate(181.396484 0)"/>
      <use xlink:href="#DejaVuSans-6d" transform="translate(209.179688 0)"/>
      <use xlink:href="#DejaVuSans-75" transform="translate(306.591797 0)"/>
      <use xlink:href="#DejaVuSans-6d" transform="translate(369.970703 0)"/>
      <use xlink:href="#DejaVuSans-20" transform="translate(467.382812 0)"/>
      <use xlink:href="#DejaVuSans-54" transform="translate(499.169922 0)"/>
      <use xlink:href="#DejaVuSans-61" transform="translate(543.753906 0)"/>
      <use xlink:href="#DejaVuSans-72" transform="translate(605.033203 0)"/>
      <use xlink:href="#DejaVuSans-67" transform="translate(644.396484 0)"/>
      <use xlink:href="#DejaVuSans-65" transform="translate(707.873047 0)"/>
      <use xlink:href="#DejaVuSans-74" transform="translate(769.396484 0)"/>
     </g>
    </g>
   </g>
   <g id="patch_28">
    <path d="M 286.409322 675.739802 
L 286.536352 674.727606 
L 286.513247 674.33191 
L 286.933025 673.837176 
L 287.236048 673.764543 
L 287.275036 674.334692 
L 286.928633 675.382789 
z
" clip-path="url(#pd1100dcdf5)" style="fill: #ff0000; opacity: 0.6; stroke: #ff0000; stroke-linejoin: miter"/>
   </g>
   <g id="line2d_34">
    <path d="M 286.409322 675.739802 
L 286.536352 674.727606 
L 286.513247 674.33191 
L 286.933025 673.837176 
L 287.236048 673.764543 
L 287.275036 674.334692 
L 286.928633 675.382789 
L 286.409322 675.739802 
" clip-path="url(#pd1100dcdf5)" style="fill: none; stroke-dasharray: 0.74,0.32; stroke-dashoffset: 0; stroke: #000000; stroke-width: 0.2"/>
   </g>
   <g id="line2d_35">
    <path d="M 286.841651 674.67715 
" clip-path="url(#pd1100dcdf5)" style="fill: none; stroke: #000000; stroke-width: 1.5; stroke-linecap: square"/>
    <g clip-path="url(#pd1100dcdf5)">
     <use xlink:href="#m5e8818e198" x="286.841651" y="674.67715" style="stroke: #000000; stroke-linejoin: miter"/>
    </g>
   </g>
  </g>
 </g>
 <defs>
  <clipPath id="pd1100dcdf5">
   <rect x="23.103125" y="34.3575" width="807.861176" height="807.861176"/>
  </clipPath>
  <clipPath id="p388d0969f5">
   <path d="M 427.033713 834.298469 
C 532.056894 834.298469 632.792736 792.572317 707.055339 718.309714 
C 781.317942 644.047111 823.044094 543.311269 823.044094 438.288088 
C 823.044094 333.264908 781.317942 232.529066 707.055339 158.266463 
C 632.792736 84.00386 532.056894 42.277708 427.033713 42.277708 
C 322.010533 42.277708 221.274691 84.00386 147.012088 158.266463 
C 72.749485 232.529066 31.023333 333.264908 31.023333 438.288088 
C 31.023333 543.311269 72.749485 644.047111 147.012088 718.309714 
C 221.274691 792.572317 322.010533 834.298469 427.033713 834.298469 
z
"/>
  </clipPath>
 </defs>
</svg>
