<?xml version="1.0" encoding="utf-8" standalone="no"?>
<!DOCTYPE svg PUBLIC "-//W3C//DTD SVG 1.1//EN"
  "http://www.w3.org/Graphics/SVG/1.1/DTD/svg11.dtd">
<svg xmlns:xlink="http://www.w3.org/1999/xlink" width="1023.134025pt" height="855.136698pt" viewBox="0 0 1023.134025 855.136698" xmlns="http://www.w3.org/2000/svg" version="1.1">
 <metadata>
  <rdf:RDF xmlns:dc="http://purl.org/dc/elements/1.1/" xmlns:cc="http://creativecommons.org/ns#" xmlns:rdf="http://www.w3.org/1999/02/22-rdf-syntax-ns#">
   <cc:Work>
    <dc:type rdf:resource="http://purl.org/dc/dcmitype/StillImage"/>
    <dc:date>2026-02-16T01:43:15.443990</dc:date>
    <dc:format>image/svg+xml</dc:format>
    <dc:creator>
     <cc:Agent>
      <dc:title>Matplotlib v3.10.8, https://matplotlib.org/</dc:title>
     </cc:Agent>
    </dc:creator>
   </cc:Work>
  </rdf:RDF>
 </metadata>
 <defs>
  <style type="text/css">*{stroke-linejoin: round; stroke-linecap: butt}</style>
 </defs>
 <g id="figure_1">
  <g id="patch_1">
   <path d="M 0 855.136698 
L 1023.134025 855.136698 
L 1023.134025 0 
L 0 0 
z
" style="fill: #ffffff"/>
  </g>
  <g id="axes_1">
   <g id="patch_2">
    <path d="M 23.103125 842.218676 
L 830.964301 842.218676 
L 830.964301 34.3575 
L 23.103125 34.3575 
z
" style="fill: #ffffff"/>
   </g>
   <g id="patch_3">
    <path d="M 427.033713 834.298469 
C 532.056894 834.298469 632.792736 792.572317 707.055339 718.309714 
C 781.317942 644.047111 823.044094 543.311269 823.044094 438.288088 
C 823.044094 333.264908 781.317942 232.529066 707.055339 158.266463 
C 632.792736 84.00386 532.056894 42.277708 427.033713 42.277708 
C 322.010533 42.277708 221.274691 84.00386 147.012088 158.266463 
C 72.749485 232.529066 31.023333 333.264908 31.023333 438.288088 
C 31.023333 543.311269 72.749485 644.047111 147.012088 718.309714 
C 221.274691 792.572317 322.010533 834.298469 427.033713 834.298469 
L 427.033713 834.298469 
z
" clip-path="url(#p68d14872ea)" style="fill: none; stroke: #000000; stroke-linejoin: miter"/>
   </g>
   <g id="patch_4">
    <path d="M 493.035443 768.296739 
C 580.55476 768.296739 664.501295 733.524946 726.386798 671.639443 
C 788.272301 609.75394 823.044094 525.807405 823.044094 438.288088 
C 823.044094 350.768771 788.272301 266.822236 726.386798 204.936734 
C 664.501295 143.051231 580.55476 108.279438 493.035443 108.279438 
C 405.516126 108.279438 321.569591 143.051231 259.684089 204.936734 
C 197.798586 266.822236 163.026793 350.768771 163.026793 438.288088 
C 163.026793 525.807405 197.798586 609.75394 259.684089 671.639443 
C 321.569591 733.524946 405.516126 768.296739 493.035443 768.296739 
L 493.035443 768.296739 
z
" clip-path="url(#pe7fac61de9)" style="fill: none; stroke: #808080; stroke-linejoin: miter"/>
   </g>
   <g id="patch_5">
    <path d="M 559.037173 702.295009 
C 629.052627 702.295009 696.209855 674.477574 745.718257 624.969172 
C 795.226659 575.46077 823.044094 508.303542 823.044094 438.288088 
C 823.044094 368.272635 795.226659 301.115407 745.718257 251.607005 
C 696.209855 202.098602 629.052627 174.281168 559.037173 174.281168 
C 489.02172 174.281168 421.864492 202.098602 372.35609 251.607005 
C 322.847688 301.115407 295.030253 368.272635 295.030253 438.288088 
C 295.030253 508.303542 322.847688 575.46077 372.35609 624.969172 
C 421.864492 674.477574 489.02172 702.295009 559.037173 702.295009 
L 559.037173 702.295009 
z
" clip-path="url(#pe7fac61de9)" style="fill: none; stroke: #808080; stroke-linejoin: miter"/>
   </g>
   <g id="patch_6">
    <path d="M 625.038904 636.293279 
C 677.550494 636.293279 727.918415 615.430203 765.049716 578.298901 
C 802.181018 541.167599 823.044094 490.799679 823.044094 438.288088 
C 823.044094 385.776498 802.181018 335.408577 765.049716 298.277275 
C 727.918415 261.145974 677.550494 240.282898 625.038904 240.282898 
C 572.527313 240.282898 522.159392 261.145974 485.028091 298.277275 
C 447.896789 335.408577 427.033713 385.776498 427.033713 438.288088 
C 427.033713 490.799679 447.896789 541.167599 485.028091 578.298901 
C 522.159392 615.430203 572.527313 636.293279 625.038904 636.293279 
L 625.038904 636.293279 
z
" clip-path="url(#pe7fac61de9)" style="fill: none; stroke: #808080; stroke-linejoin: miter"/>
   </g>
   <g id="patch_7">
    <path d="M 691.040634 570.291548 
C 726.048361 570.291548 759.626974 556.382831 784.381176 531.62863 
C 809.135377 506.874429 823.044094 473.295815 823.044094 438.288088 
C 823.044094 403.280361 809.135377 369.701747 784.381176 344.947546 
C 759.626974 320.193345 726.048361 306.284628 691.040634 306.284628 
C 656.032907 306.284628 622.454293 320.193345 597.700092 344.947546 
C 572.945891 369.701747 559.037173 403.280361 559.037173 438.288088 
C 559.037173 473.295815 572.945891 506.874429 597.700092 531.62863 
C 622.454293 556.382831 656.032907 570.291548 691.040634 570.291548 
L 691.040634 570.291548 
z
" clip-path="url(#pe7fac61de9)" style="fill: none; stroke: #808080; stroke-linejoin: miter"/>
   </g>
   <g id="patch_8">
    <path d="M 757.042364 504.289818 
C 774.546227 504.289818 791.335534 497.33546 803.712635 484.958359 
C 816.089735 472.581259 823.044094 455.791952 823.044094 438.288088 
C 823.044094 420.784225 816.089735 403.994918 803.712635 391.617817 
C 791.335534 379.240717 774.546227 372.286358 757.042364 372.286358 
C 739.5385 372.286358 722.749193 379.240717 710.372093 391.617817 
C 697.994992 403.994918 691.040634 420.784225 691.040634 438.288088 
C 691.040634 455.791952 697.994992 472.581259 710.372093 484.958359 
C 722.749193 497.33546 739.5385 504.289818 757.042364 504.289818 
L 757.042364 504.289818 
z
" clip-path="url(#pe7fac61de9)" style="fill: none; stroke: #808080; stroke-linejoin: miter"/>
   </g>
   <g id="patch_9">
    <path d="M 823.044094 438.288088 
C 1348.159997 438.288088 1851.839206 229.657329 2223.152222 -141.655687 
C 2594.465237 -512.968703 2803.095997 -1016.647912 2803.095997 -1541.763815 
C 2803.095997 -2066.879718 2594.465237 -2570.558927 2223.152222 -2941.871943 
C 1851.839206 -3313.184958 1348.159997 -3521.815718 823.044094 -3521.815718 
C 297.928191 -3521.815718 -205.751018 -3313.184958 -577.064034 -2941.871943 
C -948.37705 -2570.558927 -1157.007809 -2066.879718 -1157.007809 -1541.763815 
C -1157.007809 -1016.647912 -948.37705 -512.968703 -577.064034 -141.655687 
C -205.751018 229.657329 297.928191 438.288088 823.044094 438.288088 
L 823.044094 438.288088 
z
" clip-path="url(#pe7fac61de9)" style="fill: none; stroke: #808080; stroke-linejoin: miter"/>
   </g>
   <g id="patch_10">
    <path d="M 823.044094 438.288088 
C 1033.090455 438.288088 1234.562139 354.835784 1383.087345 206.310578 
C 1531.612551 57.785372 1615.064855 -143.686312 1615.064855 -353.732673 
C 1615.064855 -563.779034 1531.612551 -765.250718 1383.087345 -913.775924 
C 1234.562139 -1062.30113 1033.090455 -1145.753434 823.044094 -1145.753434 
C 612.997733 -1145.753434 411.526049 -1062.30113 263.000843 -913.775924 
C 114.475636 -765.250718 31.023333 -563.779034 31.023333 -353.732673 
C 31.023333 -143.686312 114.475636 57.785372 263.000843 206.310578 
C 411.526049 354.835784 612.997733 438.288088 823.044094 438.288088 
L 823.044094 438.288088 
z
" clip-path="url(#pe7fac61de9)" style="fill: none; stroke: #808080; stroke-linejoin: miter"/>
   </g>
   <g id="patch_11">
    <path d="M 823.044094 438.288088 
C 928.067274 438.288088 1028.803116 396.561936 1103.065719 322.299333 
C 1177.328323 248.03673 1219.054474 147.300888 1219.054474 42.277708 
C 1219.054474 -62.745473 1177.328323 -163.481315 1103.065719 -237.743918 
C 1028.803116 -312.006521 928.067274 -353.732673 823.044094 -353.732673 
C 718.020913 -353.732673 617.285071 -312.006521 543.022468 -237.743918 
C 468.759865 -163.481315 427.033713 -62.745473 427.033713 42.277708 
C 427.033713 147.300888 468.759865 248.03673 543.022468 322.299333 
C 617.285071 396.561936 718.020913 438.288088 823.044094 438.288088 
L 823.044094 438.288088 
z
" clip-path="url(#pe7fac61de9)" style="fill: none; stroke: #808080; stroke-linejoin: miter"/>
   </g>
   <g id="patch_12">
    <path d="M 823.044094 438.288088 
C 875.555684 438.288088 925.923605 417.425012 963.054907 380.293711 
C 1000.186208 343.162409 1021.049284 292.794488 1021.049284 240.282898 
C 1021.049284 187.771308 1000.186208 137.403387 963.054907 100.272085 
C 925.923605 63.140784 875.555684 42.277708 823.044094 42.277708 
C 770.532504 42.277708 720.164583 63.140784 683.033281 100.272085 
C 645.901979 137.403387 625.038904 187.771308 625.038904 240.282898 
C 625.038904 292.794488 645.901979 343.162409 683.033281 380.293711 
C 720.164583 417.425012 770.532504 438.288088 823.044094 438.288088 
L 823.044094 438.288088 
z
" clip-path="url(#pe7fac61de9)" style="fill: none; stroke: #808080; stroke-linejoin: miter"/>
   </g>
   <g id="patch_13">
    <path d="M 823.044094 438.288088 
C 844.04873 438.288088 864.195898 429.942858 879.048419 415.090337 
C 893.90094 400.237817 902.24617 380.090648 902.24617 359.086012 
C 902.24617 338.081376 893.90094 317.934208 879.048419 303.081687 
C 864.195898 288.229166 844.04873 279.883936 823.044094 279.883936 
C 802.039458 279.883936 781.892289 288.229166 767.039769 303.081687 
C 752.187248 317.934208 743.842018 338.081376 743.842018 359.086012 
C 743.842018 380.090648 752.187248 400.237817 767.039769 415.090337 
C 781.892289 429.942858 802.039458 438.288088 823.044094 438.288088 
L 823.044094 438.288088 
z
" clip-path="url(#pe7fac61de9)" style="fill: none; stroke: #808080; stroke-linejoin: miter"/>
   </g>
   <g id="patch_14">
    <path d="M 823.044094 438.288088 
C 297.928191 438.288088 -205.751018 646.918848 -577.064034 1018.231864 
C -948.37705 1389.544879 -1157.007809 1893.224088 -1157.007809 2418.339991 
C -1157.007809 2943.455894 -948.37705 3447.135103 -577.064034 3818.448119 
C -205.751018 4189.761135 297.928191 4398.391894 823.044094 4398.391894 
C 1348.159997 4398.391894 1851.839206 4189.761135 2223.152222 3818.448119 
C 2594.465237 3447.135103 2803.095997 2943.455894 2803.095997 2418.339991 
C 2803.095997 1893.224088 2594.465237 1389.544879 2223.152222 1018.231864 
C 1851.839206 646.918848 1348.159997 438.288088 823.044094 438.288088 
L 823.044094 438.288088 
z
" clip-path="url(#pe7fac61de9)" style="fill: none; stroke: #808080; stroke-linejoin: miter"/>
   </g>
   <g id="patch_15">
    <path d="M 823.044094 438.288088 
C 612.997733 438.288088 411.526049 521.740392 263.000843 670.265598 
C 114.475636 818.790805 31.023333 1020.262488 31.023333 1230.308849 
C 31.023333 1440.355211 114.475636 1641.826894 263.000843 1790.352101 
C 411.526049 1938.877307 612.997733 2022.329611 823.044094 2022.329611 
C 1033.090455 2022.329611 1234.562139 1938.877307 1383.087345 1790.352101 
C 1531.612551 1641.826894 1615.064855 1440.355211 1615.064855 1230.308849 
C 1615.064855 1020.262488 1531.612551 818.790805 1383.087345 670.265598 
C 1234.562139 521.740392 1033.090455 438.288088 823.044094 438.288088 
L 823.044094 438.288088 
z
" clip-path="url(#pe7fac61de9)" style="fill: none; stroke: #808080; stroke-linejoin: miter"/>
   </g>
   <g id="patch_16">
    <path d="M 823.044094 438.288088 
C 718.020913 438.288088 617.285071 480.01424 543.022468 554.276843 
C 468.759865 628.539446 427.033713 729.275288 427.033713 834.298469 
C 427.033713 939.321649 468.759865 1040.057491 543.022468 1114.320094 
C 617.285071 1188.582698 718.020913 1230.308849 823.044094 1230.308849 
C 928.067274 1230.308849 1028.803116 1188.582698 1103.065719 1114.320094 
C 1177.328323 1040.057491 1219.054474 939.321649 1219.054474 834.298469 
C 1219.054474 729.275288 1177.328323 628.539446 1103.065719 554.276843 
C 1028.803116 480.01424 928.067274 438.288088 823.044094 438.288088 
L 823.044094 438.288088 
z
" clip-path="url(#pe7fac61de9)" style="fill: none; stroke: #808080; stroke-linejoin: miter"/>
   </g>
   <g id="patch_17">
    <path d="M 823.044094 438.288088 
C 770.532504 438.288088 720.164583 459.151164 683.033281 496.282466 
C 645.901979 533.413767 625.038904 583.781688 625.038904 636.293279 
C 625.038904 688.804869 645.901979 739.17279 683.033281 776.304091 
C 720.164583 813.435393 770.532504 834.298469 823.044094 834.298469 
C 875.555684 834.298469 925.923605 813.435393 963.054907 776.304091 
C 1000.186208 739.17279 1021.049284 688.804869 1021.049284 636.293279 
C 1021.049284 583.781688 1000.186208 533.413767 963.054907 496.282466 
C 925.923605 459.151164 875.555684 438.288088 823.044094 438.288088 
L 823.044094 438.288088 
z
" clip-path="url(#pe7fac61de9)" style="fill: none; stroke: #808080; stroke-linejoin: miter"/>
   </g>
   <g id="patch_18">
    <path d="M 823.044094 438.288088 
C 802.039458 438.288088 781.892289 446.633319 767.039769 461.485839 
C 752.187248 476.33836 743.842018 496.485528 743.842018 517.490164 
C 743.842018 538.4948 752.187248 558.641969 767.039769 573.494489 
C 781.892289 588.34701 802.039458 596.69224 823.044094 596.69224 
C 844.04873 596.69224 864.195898 588.34701 879.048419 573.494489 
C 893.90094 558.641969 902.24617 538.4948 902.24617 517.490164 
C 902.24617 496.485528 893.90094 476.33836 879.048419 461.485839 
C 864.195898 446.633319 844.04873 438.288088 823.044094 438.288088 
L 823.044094 438.288088 
z
" clip-path="url(#pe7fac61de9)" style="fill: none; stroke: #808080; stroke-linejoin: miter"/>
   </g>
   <g id="patch_19">
    <path d="M 427.033713 834.298469 
C 532.056894 834.298469 632.792736 792.572317 707.055339 718.309714 
C 781.317942 644.047111 823.044094 543.311269 823.044094 438.288088 
C 823.044094 333.264908 781.317942 232.529066 707.055339 158.266463 
C 632.792736 84.00386 532.056894 42.277708 427.033713 42.277708 
C 322.010533 42.277708 221.274691 84.00386 147.012088 158.266463 
C 72.749485 232.529066 31.023333 333.264908 31.023333 438.288088 
C 31.023333 543.311269 72.749485 644.047111 147.012088 718.309714 
C 221.274691 792.572317 322.010533 834.298469 427.033713 834.298469 
L 427.033713 834.298469 
z
" clip-path="url(#pe7fac61de9)" style="fill: none; stroke: #000000; stroke-linejoin: miter"/>
   </g>
   <g id="patch_20">
    <path d="M 625.038904 636.293279 
C 677.550494 636.293279 727.918415 615.430203 765.049716 578.298901 
C 802.181018 541.167599 823.044094 490.799679 823.044094 438.288088 
C 823.044094 385.776498 802.181018 335.408577 765.049716 298.277275 
C 727.918415 261.145974 677.550494 240.282898 625.038904 240.282898 
C 572.527313 240.282898 522.159392 261.145974 485.028091 298.277275 
C 447.896789 335.408577 427.033713 385.776498 427.033713 438.288088 
C 427.033713 490.799679 447.896789 541.167599 485.028091 578.298901 
C 522.159392 615.430203 572.527313 636.293279 625.038904 636.293279 
L 625.038904 636.293279 
z
" clip-path="url(#pe7fac61de9)" style="fill: none; stroke: #000000; stroke-linejoin: miter"/>
   </g>
   <g id="patch_21">
    <path d="M 823.044094 438.288088 
C 928.067274 438.288088 1028.803116 396.561936 1103.065719 322.299333 
C 1177.328323 248.03673 1219.054474 147.300888 1219.054474 42.277708 
C 1219.054474 -62.745473 1177.328323 -163.481315 1103.065719 -237.743918 
C 1028.803116 -312.006521 928.067274 -353.732673 823.044094 -353.732673 
C 718.020913 -353.732673 617.285071 -312.006521 543.022468 -237.743918 
C 468.759865 -163.481315 427.033713 -62.745473 427.033713 42.277708 
C 427.033713 147.300888 468.759865 248.03673 543.022468 322.299333 
C 617.285071 396.561936 718.020913 438.288088 823.044094 438.288088 
L 823.044094 438.288088 
z
" clip-path="url(#pe7fac61de9)" style="fill: none; stroke: #000000; stroke-linejoin: miter"/>
   </g>
   <g id="patch_22">
    <path d="M 823.044094 438.288088 
C 718.020913 438.288088 617.285071 480.01424 543.022468 554.276843 
C 468.759865 628.539446 427.033713 729.275288 427.033713 834.298469 
C 427.033713 939.321649 468.759865 1040.057491 543.022468 1114.320094 
C 617.285071 1188.582698 718.020913 1230.308849 823.044094 1230.308849 
C 928.067274 1230.308849 1028.803116 1188.582698 1103.065719 1114.320094 
C 1177.328323 1040.057491 1219.054474 939.321649 1219.054474 834.298469 
C 1219.054474 729.275288 1177.328323 628.539446 1103.065719 554.276843 
C 1028.803116 480.01424 928.067274 438.288088 823.044094 438.288088 
L 823.044094 438.288088 
z
" clip-path="url(#pe7fac61de9)" style="fill: none; stroke: #000000; stroke-linejoin: miter"/>
   </g>
   <g id="matplotlib.axis_1"/>
   <g id="matplotlib.axis_2"/>
   <g id="line2d_1">
    <path d="M 23.103125 438.288088 
L 830.964301 438.288088 
" clip-path="url(#pe7fac61de9)" style="fill: none; stroke: #000000; stroke-width: 0.1; stroke-linecap: square"/>
   </g>
   <g id="line2d_2">
    <path d="M 823.044094 842.218676 
L 823.044094 34.3575 
" clip-path="url(#pe7fac61de9)" style="fill: none; stroke: #000000; stroke-width: 1.5; stroke-linecap: square"/>
   </g>
   <g id="line2d_3"/>
   <g id="line2d_4"/>
   <g id="line2d_5">
    <path d="M 291.616033 641.122673 
L 298.986731 638.639958 
L 301.469446 637.328351 
L 304.908116 637.684004 
L 318.952227 639.287875 
L 320.787026 639.481386 
L 321.95248 639.957219 
L 325.050833 641.122673 
L 321.720122 642.055769 
L 320.787026 642.059019 
L 319.828342 642.081358 
L 303.461107 643.114335 
L 301.469446 643.157108 
L 299.569739 643.022381 
L 291.616033 641.122673 
" clip-path="url(#p68d14872ea)" style="fill: none; stroke: #1f77b4; stroke-opacity: 0.99; stroke-width: 0.2; stroke-linecap: square"/>
   </g>
   <g id="line2d_6">
    <path d="M 223.249481 699.075412 
L 223.287439 698.163723 
L 224.199128 695.238608 
L 232.714441 690.560099 
L 234.170219 689.728923 
L 243.516708 685.062047 
L 251.977019 690.615101 
L 255.91488 699.075412 
L 258.406698 703.503001 
L 262.834287 711.009628 
L 264.943927 716.283352 
L 265.221542 718.392992 
L 265.077413 720.636118 
L 264.190718 736.35414 
L 264.104838 737.710571 
L 263.388662 738.264946 
L 262.834287 738.437712 
L 262.376856 738.168002 
L 259.598401 737.710571 
L 250.452729 730.774549 
L 243.516708 731.263785 
L 238.689455 723.220244 
L 227.959101 718.392992 
L 228.089798 714.502322 
L 224.199128 705.98133 
L 223.565336 699.709204 
L 223.249481 699.075412 
" clip-path="url(#p68d14872ea)" style="fill: none; stroke: #1f77b4; stroke-opacity: 0.99; stroke-width: 0.2; stroke-linecap: square"/>
   </g>
   <g id="line2d_7">
    <path d="M 399.70197 699.075412 
L 411.555307 693.255795 
L 417.374923 694.099811 
L 418.850917 697.599418 
L 419.483626 699.075412 
L 419.002645 700.703133 
L 417.374923 710.482089 
L 412.699085 703.75125 
L 399.70197 699.075412 
" clip-path="url(#p68d14872ea)" style="fill: none; stroke: #1f77b4; stroke-opacity: 0.99; stroke-width: 0.2; stroke-linecap: square"/>
   </g>
   <g id="line2d_8">
    <path d="M 374.210257 757.028151 
L 376.491073 754.779459 
L 378.739764 752.679091 
L 385.627106 750.14081 
L 390.012231 748.983038 
L 398.057344 744.841832 
L 406.545417 746.198644 
L 409.771496 745.313998 
L 417.374923 749.127707 
L 418.786587 755.616487 
L 418.69692 757.028151 
L 418.172767 757.825994 
L 417.374923 760.819714 
L 411.119853 770.090659 
L 410.351464 776.34573 
L 400.590365 778.878751 
L 398.057344 779.609449 
L 394.542024 779.86105 
L 382.869443 780.475409 
L 378.739764 780.783292 
L 375.121713 779.963782 
L 363.415227 776.34573 
L 367.827497 767.940418 
L 368.654822 766.260788 
L 374.210257 757.028151 
" clip-path="url(#p68d14872ea)" style="fill: none; stroke: #1f77b4; stroke-opacity: 0.99; stroke-width: 0.2; stroke-linecap: square"/>
   </g>
   <g id="line2d_9">
    <path d="M 275.301741 621.805094 
L 279.693098 619.346325 
L 282.151867 617.617888 
L 287.943071 616.01389 
L 294.283877 614.619525 
L 301.469446 612.288236 
L 310.684172 611.70224 
L 311.721607 611.552933 
L 320.787026 610.88224 
L 329.736828 611.437317 
L 331.157883 611.434236 
L 340.104605 612.070645 
L 348.467635 613.442064 
L 351.847258 614.230167 
L 359.422185 615.629398 
L 363.930877 617.296402 
L 375.743355 621.805094 
L 377.656759 622.888099 
L 378.739764 623.399385 
L 386.199812 629.265142 
L 388.642682 631.219756 
L 398.057344 637.721885 
L 399.62123 639.558787 
L 401.197461 641.122673 
L 408.840141 649.657456 
L 417.374923 656.56881 
L 418.941378 658.873799 
L 420.190632 660.440253 
L 425.688748 668.754077 
L 426.742808 670.389948 
L 433.592 679.757833 
L 434.462894 681.987442 
L 436.692503 687.409306 
L 438.535936 697.231979 
L 438.700283 699.075412 
L 438.239864 700.622774 
L 436.692503 709.761825 
L 434.131733 715.832222 
L 433.303163 718.392992 
L 428.137868 726.947626 
L 427.231085 728.249153 
L 423.688597 737.710571 
L 423.662083 743.99773 
L 425.307112 749.095962 
L 425.29009 757.028151 
L 422.367579 762.020807 
L 420.370248 773.350405 
L 419.336142 776.34573 
L 418.033081 777.003888 
L 417.374923 777.3866 
L 416.004405 777.716248 
L 402.399399 780.687785 
L 398.057344 781.794815 
L 392.544738 781.858336 
L 384.116476 781.722442 
L 378.739764 781.787962 
L 374.404542 780.680952 
L 362.215353 776.34573 
L 365.093932 770.673983 
L 367.644199 765.250165 
L 372.501662 757.028151 
L 375.447403 753.735789 
L 378.739764 750.381723 
L 387.051895 746.022702 
L 396.442576 739.325339 
L 398.057344 738.239156 
L 398.577847 738.231074 
L 399.766661 737.710571 
L 399.163878 736.604037 
L 398.057344 734.738104 
L 395.062894 721.387442 
L 394.290749 718.392992 
L 388.343043 708.789713 
L 378.739764 699.540525 
L 378.544352 699.270824 
L 378.317822 699.075412 
L 377.148156 697.483803 
L 370.883097 687.6145 
L 361.525429 681.861076 
L 359.422185 680.347872 
L 359.083153 680.096864 
L 358.225632 679.757833 
L 347.60424 672.258198 
L 340.104605 669.644551 
L 332.702009 667.84285 
L 327.672478 667.325705 
L 320.787026 665.990294 
L 315.259159 665.96812 
L 307.051098 666.021905 
L 301.469446 665.999981 
L 295.102023 666.807676 
L 288.583921 666.872308 
L 282.151867 667.94052 
L 272.519503 670.072617 
L 272.448692 670.054657 
L 262.834287 678.839544 
L 255.303572 667.970968 
L 256.877561 660.440253 
L 258.346838 655.952804 
L 258.590621 645.366339 
L 259.461711 641.122673 
L 260.813931 639.102317 
L 262.834287 635.201758 
L 269.884976 628.855782 
L 275.301741 621.805094 
" clip-path="url(#p68d14872ea)" style="fill: none; stroke: #ff7f0e; stroke-opacity: 0.99; stroke-width: 0.2; stroke-linecap: square"/>
   </g>
   <g id="line2d_10">
    <path d="M 242.936911 679.757833 
L 243.180314 679.421439 
L 243.516708 678.452471 
L 247.043817 676.230723 
L 258.296404 679.757833 
L 262.619388 679.972731 
L 262.834287 680.868088 
L 265.212365 696.697335 
L 264.599083 699.075412 
L 265.531843 701.772968 
L 270.218463 711.008816 
L 271.759938 718.392992 
L 271.691447 727.250152 
L 271.688222 728.856637 
L 271.620529 737.710571 
L 266.395159 741.271443 
L 262.834287 742.125349 
L 260.142342 740.402516 
L 248.248149 737.710571 
L 246.096415 735.130863 
L 243.516708 734.868669 
L 237.953177 723.956523 
L 228.395451 718.392992 
L 228.436517 714.155602 
L 224.199128 703.681222 
L 223.717488 699.557052 
L 223.477756 699.075412 
L 223.489932 698.366216 
L 224.199128 695.692255 
L 232.356822 687.915527 
L 242.936911 679.757833 
" clip-path="url(#p68d14872ea)" style="fill: none; stroke: #ff7f0e; stroke-opacity: 0.99; stroke-width: 0.2; stroke-linecap: square"/>
   </g>
   <g id="line2d_11">
    <path d="M 306.703164 621.805094 
L 320.435545 621.453613 
L 320.787026 621.414873 
L 321.163582 621.428538 
L 324.966264 621.805094 
L 337.376434 624.533265 
L 340.104605 625.053444 
L 344.819047 626.519536 
L 352.09363 629.133649 
L 359.422185 631.113684 
L 366.261318 634.28354 
L 375.005908 637.388817 
L 378.739764 638.880767 
L 380.062212 639.800225 
L 382.339658 641.122673 
L 390.508186 648.671832 
L 398.057344 651.969686 
L 402.30131 656.196286 
L 408.56216 660.440253 
L 412.733813 665.081364 
L 417.374923 667.466318 
L 422.219778 674.912978 
L 425.931435 679.757833 
L 428.498978 687.951358 
L 430.140905 692.523814 
L 432.34205 699.075412 
L 428.158524 707.609391 
L 427.397717 709.098205 
L 423.198405 718.392992 
L 420.875557 721.893625 
L 417.374923 734.598164 
L 412.78318 722.984735 
L 410.432151 718.392992 
L 405.029911 711.420424 
L 398.057344 706.69292 
L 395.211721 701.921035 
L 392.07652 699.075412 
L 387.477611 690.337565 
L 378.739764 683.095438 
L 377.228972 681.268625 
L 374.475955 679.757833 
L 367.85291 671.327108 
L 359.422185 667.406162 
L 354.775595 665.086843 
L 342.782771 663.118419 
L 340.104605 662.269961 
L 338.557661 661.987197 
L 320.997424 660.650652 
L 320.787026 660.618556 
L 320.601111 660.626168 
L 302.284232 661.255039 
L 301.469446 661.28886 
L 300.50573 661.403969 
L 282.831179 661.119565 
L 282.151867 661.230226 
L 281.297752 661.294367 
L 279.83869 660.440253 
L 279.643673 657.932059 
L 275.523226 647.751314 
L 275.277637 641.122673 
L 278.774837 637.745644 
L 282.151867 633.018291 
L 289.808219 629.461446 
L 300.705385 622.569155 
L 301.469446 622.122264 
L 301.782323 622.117971 
L 306.703164 621.805094 
" clip-path="url(#p68d14872ea)" style="fill: none; stroke: #2ca02c; stroke-opacity: 0.99; stroke-width: 0.2; stroke-linecap: square"/>
   </g>
   <g id="line2d_12">
    <path d="M 234.313753 699.075412 
L 238.083778 693.642483 
L 243.516708 687.467254 
L 252.6144 689.977719 
L 260.0605 699.075412 
L 261.521295 700.388404 
L 262.834287 701.215341 
L 269.327607 711.899672 
L 271.135804 718.392992 
L 271.769077 727.327782 
L 271.850131 728.694727 
L 272.505281 737.710571 
L 266.440397 741.316682 
L 262.834287 741.871556 
L 260.408441 740.136417 
L 252.232163 737.710571 
L 249.079473 732.147805 
L 243.516708 730.443587 
L 239.791545 722.118154 
L 234.569027 718.392992 
L 234.332004 709.208288 
L 234.796278 707.795841 
L 234.313753 699.075412 
" clip-path="url(#p68d14872ea)" style="fill: none; stroke: #2ca02c; stroke-opacity: 0.99; stroke-width: 0.2; stroke-linecap: square"/>
   </g>
   <g id="line2d_13">
    <path d="M 382.813202 757.028151 
L 392.048074 751.018881 
L 398.057344 746.313523 
L 405.382214 745.035441 
L 415.934653 739.150842 
L 417.374923 738.656163 
L 423.248826 751.154248 
L 423.719532 757.028151 
L 421.601731 761.254958 
L 420.731394 772.989259 
L 419.794389 776.34573 
L 418.176016 777.146823 
L 417.374923 777.616501 
L 415.781167 777.939486 
L 402.037302 780.325689 
L 398.057344 781.193218 
L 393.453494 780.94958 
L 382.328551 779.934517 
L 378.739764 779.73025 
L 376.123215 778.96228 
L 369.852956 776.34573 
L 372.662424 770.26839 
L 378.739764 760.176011 
L 380.691832 758.980218 
L 382.813202 757.028151 
L 382.813202 757.028151 
" clip-path="url(#p68d14872ea)" style="fill: none; stroke: #2ca02c; stroke-opacity: 0.99; stroke-width: 0.2; stroke-linecap: square"/>
   </g>
   <g id="line2d_14">
    <path d="M 242.501335 699.075412 
L 242.829359 698.388064 
L 243.516708 697.317088 
L 245.221769 697.370351 
L 247.518159 699.075412 
L 257.578127 704.331572 
L 262.834287 705.542962 
L 268.260799 712.96648 
L 270.192413 718.392992 
L 271.439618 726.998323 
L 271.668348 728.87651 
L 273.019969 737.710571 
L 266.246565 741.122849 
L 262.834287 741.392534 
L 260.771557 739.773302 
L 255.124311 737.710571 
L 251.725184 729.502095 
L 243.516708 725.133893 
L 241.606171 720.303528 
L 239.373649 718.392992 
L 239.115513 713.991797 
L 242.606606 699.985514 
L 242.501335 699.075412 
" clip-path="url(#p68d14872ea)" style="fill: none; stroke: #d62728; stroke-opacity: 0.99; stroke-width: 0.2; stroke-linecap: square"/>
   </g>
   <g id="line2d_15">
    <path d="M 416.13925 699.075412 
L 415.53422 697.234709 
L 417.374923 694.381206 
L 417.983996 698.46634 
L 418.128193 699.075412 
L 417.835901 699.53639 
L 417.374923 700.248559 
L 416.900792 699.549543 
L 416.13925 699.075412 
" clip-path="url(#p68d14872ea)" style="fill: none; stroke: #d62728; stroke-opacity: 0.99; stroke-width: 0.2; stroke-linecap: square"/>
   </g>
   <g id="line2d_16">
    <path d="M 394.192329 757.028151 
L 396.33898 755.309787 
L 398.057344 753.85434 
L 402.675547 752.409947 
L 411.51387 751.167097 
L 417.374923 748.108785 
L 420.980292 753.422783 
L 421.666964 757.028151 
L 420.417789 760.071017 
L 420.835381 772.885273 
L 420.093968 776.34573 
L 418.25332 777.224127 
L 417.374923 777.735917 
L 415.712608 778.008045 
L 401.511945 779.800331 
L 398.057344 780.418954 
L 394.396689 780.006386 
L 380.034394 777.64036 
L 378.739764 777.480134 
L 377.883981 777.201514 
L 376.077666 776.34573 
L 376.878299 774.484264 
L 378.739764 771.36487 
L 386.517516 764.805902 
L 394.192329 757.028151 
" clip-path="url(#p68d14872ea)" style="fill: none; stroke: #d62728; stroke-opacity: 0.99; stroke-width: 0.2; stroke-linecap: square"/>
   </g>
   <g id="line2d_17">
    <path d="M 243.136617 718.392992 
L 243.10209 717.978374 
L 243.516708 715.829301 
L 246.985294 714.924405 
L 255.304199 710.862903 
L 262.834287 709.822645 
L 266.869111 714.358168 
L 268.668554 718.392992 
L 270.558019 726.116724 
L 271.218953 729.325905 
L 273.491508 737.710571 
L 265.977966 740.85425 
L 262.834287 740.867817 
L 261.136469 739.40839 
L 257.232021 737.710571 
L 254.692952 729.569236 
L 255.44593 725.781348 
L 246.802026 721.67831 
L 243.516708 719.122473 
L 243.326386 718.583313 
L 243.136617 718.392992 
" clip-path="url(#p68d14872ea)" style="fill: none; stroke: #9467bd; stroke-opacity: 0.99; stroke-width: 0.2; stroke-linecap: square"/>
   </g>
   <g id="line2d_18">
    <path d="M 411.537276 757.028151 
L 415.954452 755.607679 
L 417.374923 754.724897 
L 418.517691 755.885383 
L 418.908107 757.028151 
L 418.556812 758.21004 
L 420.822164 772.89849 
L 420.32659 776.34573 
L 418.295645 777.266452 
L 417.374923 777.793362 
L 415.724496 777.996158 
L 400.835822 779.124208 
L 398.057344 779.504366 
L 395.371036 779.032038 
L 384.316344 776.34573 
L 390.933757 769.222143 
L 398.057344 761.440818 
L 402.58423 761.555037 
L 411.537276 757.028151 
L 411.537276 757.028151 
" clip-path="url(#p68d14872ea)" style="fill: none; stroke: #9467bd; stroke-opacity: 0.99; stroke-width: 0.2; stroke-linecap: square"/>
   </g>
   <g id="line2d_19">
    <path d="M 257.138402 718.392992 
L 259.939971 715.498676 
L 262.834287 714.085892 
L 265.091025 716.136254 
L 266.32574 718.392992 
L 268.048583 723.607287 
L 269.96122 730.583638 
L 272.74791 737.710571 
L 265.289538 740.165822 
L 262.834287 740.003113 
L 261.63629 738.908568 
L 259.212844 737.710571 
L 257.952519 732.828803 
L 259.949214 721.278065 
L 257.138402 718.392992 
" clip-path="url(#p68d14872ea)" style="fill: none; stroke: #8c564b; stroke-opacity: 0.99; stroke-width: 0.2; stroke-linecap: square"/>
   </g>
   <g id="line2d_20">
    <path d="M 391.060702 776.34573 
L 394.091999 772.380385 
L 398.057344 767.73649 
L 407.120067 766.090874 
L 410.229316 764.173758 
L 417.374923 761.364232 
L 420.875135 772.845519 
L 420.673211 776.34573 
L 418.361946 777.332753 
L 417.374923 777.884658 
L 415.705039 778.015614 
L 400.051009 778.339395 
L 398.057344 778.516644 
L 396.317223 778.085851 
L 391.060702 776.34573 
" clip-path="url(#p68d14872ea)" style="fill: none; stroke: #8c564b; stroke-opacity: 0.99; stroke-width: 0.2; stroke-linecap: square"/>
   </g>
   <g id="line2d_21">
    <path d="M 251.216804 718.392992 
L 255.608133 711.166837 
L 262.834287 705.053666 
L 270.730499 710.49678 
L 276.335559 718.392992 
L 278.109813 722.435045 
L 282.151867 728.406291 
L 284.492649 735.369788 
L 284.911797 737.710571 
L 283.908707 739.467411 
L 282.151867 740.670571 
L 280.007175 739.855263 
L 267.702187 742.578471 
L 262.834287 741.851286 
L 260.73444 739.810418 
L 256.951944 737.710571 
L 255.179766 730.05605 
L 255.800117 725.427161 
L 251.216804 718.392992 
" clip-path="url(#p68d14872ea)" style="fill: none; stroke: #e377c2; stroke-opacity: 0.99; stroke-width: 0.2; stroke-linecap: square"/>
   </g>
   <g id="line2d_22">
    <path d="M 404.094435 757.028151 
L 412.419447 752.072675 
L 417.374923 748.502775 
L 423.168453 751.234622 
L 427.950763 757.028151 
L 428.956766 764.763887 
L 427.960447 767.613674 
L 428.419265 776.34573 
L 420.508726 779.479532 
L 417.374923 781.175846 
L 412.454215 781.266438 
L 402.459594 780.74798 
L 398.057344 780.841529 
L 394.712991 779.690083 
L 387.288562 776.34573 
L 391.270687 769.559074 
L 398.057344 760.487016 
L 400.554692 759.525499 
L 404.094435 757.028151 
" clip-path="url(#p68d14872ea)" style="fill: none; stroke: #e377c2; stroke-opacity: 0.99; stroke-width: 0.2; stroke-linecap: square"/>
   </g>
   <g id="line2d_23">
    <path d="M 257.673068 718.392992 
L 259.221084 714.779789 
L 262.834287 710.435936 
L 268.328893 712.898386 
L 274.110162 718.392992 
L 277.275919 723.268939 
L 282.151867 726.942303 
L 285.241637 734.620801 
L 286.023044 737.710571 
L 284.63761 740.196315 
L 282.151867 741.764108 
L 279.701718 740.16072 
L 266.495229 741.371513 
L 262.834287 740.464994 
L 261.484377 739.060482 
L 259.305838 737.710571 
L 258.318306 733.19459 
L 259.42976 721.797519 
L 257.673068 718.392992 
" clip-path="url(#p68d14872ea)" style="fill: none; stroke: #7f7f7f; stroke-opacity: 0.99; stroke-width: 0.2; stroke-linecap: square"/>
   </g>
   <g id="line2d_24">
    <path d="M 412.603522 757.028151 
L 415.371879 755.025107 
L 417.374923 753.499536 
L 420.097239 754.305835 
L 423.482452 757.028151 
L 427.959683 765.760971 
L 427.646238 767.299465 
L 429.302958 776.34573 
L 420.504359 779.475166 
L 417.374923 781.072974 
L 412.851697 780.868957 
L 401.049141 779.337527 
L 398.057344 779.178797 
L 396.08757 778.315505 
L 392.658198 776.34573 
L 394.376923 772.665309 
L 398.057344 767.122362 
L 404.459046 763.429853 
L 412.603522 757.028151 
" clip-path="url(#p68d14872ea)" style="fill: none; stroke: #7f7f7f; stroke-opacity: 0.99; stroke-width: 0.2; stroke-linecap: square"/>
   </g>
   <g id="line2d_25">
    <path d="M 261.904123 718.392992 
L 262.131715 717.69042 
L 262.834287 716.602751 
L 264.34447 716.882808 
L 267.417751 718.392992 
L 275.570017 724.974841 
L 282.151867 725.9155 
L 286.039797 733.82264 
L 287.39717 737.710571 
L 285.519403 741.078108 
L 282.151867 742.976485 
L 279.483991 740.378446 
L 264.711083 739.587367 
L 262.834287 738.922034 
L 262.260834 738.284024 
L 261.423983 737.710571 
L 261.044738 735.921022 
L 262.190678 719.036601 
L 261.904123 718.392992 
" clip-path="url(#p68d14872ea)" style="fill: none; stroke: #bcbd22; stroke-opacity: 0.99; stroke-width: 0.2; stroke-linecap: square"/>
   </g>
   <g id="line2d_26">
    <path d="M 397.407519 776.34573 
L 397.582146 775.870533 
L 398.057344 775.049547 
L 404.946897 769.456177 
L 408.022612 766.993419 
L 417.374923 758.443773 
L 426.696573 767.02408 
L 429.873208 776.34573 
L 420.304787 779.275593 
L 417.374923 780.651256 
L 413.53027 780.190384 
L 398.55143 776.839817 
L 398.057344 776.768486 
L 397.784112 776.618962 
L 397.407519 776.34573 
" clip-path="url(#p68d14872ea)" style="fill: none; stroke: #bcbd22; stroke-opacity: 0.99; stroke-width: 0.2; stroke-linecap: square"/>
   </g>
   <g id="line2d_27">
    <path d="M 259.513095 718.392992 
L 260.177901 715.736606 
L 262.834287 710.682843 
L 271.431069 709.796209 
L 273.669523 709.910648 
L 282.151867 708.672363 
L 286.750563 713.794295 
L 287.491981 718.392992 
L 292.578204 727.284234 
L 293.725485 729.96661 
L 297.410346 737.710571 
L 291.697757 747.256461 
L 282.151867 751.518922 
L 276.219788 743.64265 
L 266.737907 741.614191 
L 262.834287 739.786005 
L 261.88304 738.661819 
L 260.608945 737.710571 
L 259.995133 734.871417 
L 260.496525 720.730753 
L 259.513095 718.392992 
" clip-path="url(#p68d14872ea)" style="fill: none; stroke: #17becf; stroke-opacity: 0.99; stroke-width: 0.2; stroke-linecap: square"/>
   </g>
   <g id="line2d_28">
    <path d="M 410.730886 757.028151 
L 413.802769 753.455996 
L 417.374923 749.945753 
L 424.593387 749.809687 
L 430.820295 751.155943 
L 436.692503 750.975512 
L 439.810468 753.910186 
L 441.195565 757.028151 
L 439.694636 760.030283 
L 441.071798 771.966435 
L 440.156161 776.34573 
L 437.677574 777.330801 
L 436.692503 777.821683 
L 434.506375 778.531859 
L 422.495733 781.46654 
L 417.374923 783.58056 
L 411.327543 782.393111 
L 400.665575 778.953961 
L 398.057344 778.321019 
L 396.864995 777.538079 
L 395.502863 776.34573 
L 396.085275 774.373662 
L 398.057344 770.529756 
L 404.600271 763.571078 
L 410.730886 757.028151 
" clip-path="url(#p68d14872ea)" style="fill: none; stroke: #17becf; stroke-opacity: 0.99; stroke-width: 0.2; stroke-linecap: square"/>
   </g>
   <g id="line2d_29">
    <path d="M 272.652355 718.392992 
L 279.595929 715.837054 
L 282.151867 714.522312 
L 284.272171 716.272687 
L 284.873094 718.392992 
L 291.997377 727.865061 
L 292.632896 728.87402 
L 298.412155 737.710571 
L 291.79245 747.351154 
L 282.151867 750.208156 
L 277.517348 742.34509 
L 265.335855 737.710571 
L 266.821657 733.723202 
L 266.84737 722.406075 
L 272.652355 718.392992 
" clip-path="url(#p68d14872ea)" style="fill: none; stroke: #1f77b4; stroke-opacity: 0.99; stroke-width: 0.2; stroke-linecap: square"/>
   </g>
   <g id="line2d_30">
    <path d="M 417.174557 757.028151 
L 417.256757 756.909984 
L 417.374923 756.776289 
L 417.680442 756.722632 
L 435.872491 756.208138 
L 436.692503 756.001438 
L 437.313533 756.40712 
L 437.738465 757.028151 
L 437.469691 757.805339 
L 441.266503 771.771731 
L 440.679902 776.34573 
L 437.754731 777.407959 
L 436.692503 777.907398 
L 434.562066 778.476167 
L 421.736139 780.706946 
L 417.374923 782.20983 
L 412.724045 780.996608 
L 401.434058 776.34573 
L 408.438543 767.40935 
L 416.147061 758.256013 
L 417.174557 757.028151 
" clip-path="url(#p68d14872ea)" style="fill: none; stroke: #1f77b4; stroke-opacity: 0.99; stroke-width: 0.2; stroke-linecap: square"/>
   </g>
   <g id="line2d_31">
    <path d="M 273.668039 737.710571 
L 275.128511 730.687216 
L 282.151867 721.265417 
L 290.285028 729.577409 
L 297.959832 737.710571 
L 290.429416 745.98812 
L 282.151867 746.6783 
L 279.176556 740.685882 
L 273.668039 737.710571 
" clip-path="url(#p68d14872ea)" style="fill: none; stroke: #ff7f0e; stroke-opacity: 0.99; stroke-width: 0.2; stroke-linecap: square"/>
   </g>
   <g id="line2d_32">
    <path d="M 409.395601 776.34573 
L 412.580855 771.551662 
L 417.374923 764.992968 
L 425.583082 765.23631 
L 430.118266 763.602387 
L 436.692503 764.059153 
L 440.454751 772.583482 
L 440.262668 776.34573 
L 437.550009 777.203236 
L 436.692503 777.569421 
L 435.177251 777.860982 
L 420.148941 779.119748 
L 417.374923 779.819484 
L 414.730087 778.990567 
L 409.395601 776.34573 
" clip-path="url(#p68d14872ea)" style="fill: none; stroke: #ff7f0e; stroke-opacity: 0.99; stroke-width: 0.2; stroke-linecap: square"/>
   </g>
   <g id="patch_23">
    <path d="M 23.103125 842.218676 
L 23.103125 34.3575 
" style="fill: none"/>
   </g>
   <g id="patch_24">
    <path d="M 830.964301 842.218676 
L 830.964301 34.3575 
" style="fill: none"/>
   </g>
   <g id="patch_25">
    <path d="M 23.103125 842.218676 
L 830.964301 842.218676 
" style="fill: none"/>
   </g>
   <g id="patch_26">
    <path d="M 23.103125 34.3575 
L 830.964301 34.3575 
" style="fill: none"/>
   </g>
   <g id="text_1">
    <!-- 0.2 -->
    <g transform="translate(143.163564 434.327984) scale(0.1 -0.1)">
     <defs>
      <path id="DejaVuSans-30" d="M 2034 4250 
Q 1547 4250 1301 3770 
Q 1056 3291 1056 2328 
Q 1056 1369 1301 889 
Q 1547 409 2034 409 
Q 2525 409 2770 889 
Q 3016 1369 3016 2328 
Q 3016 3291 2770 3770 
Q 2525 4250 2034 4250 
z
M 2034 4750 
Q 2819 4750 3233 4129 
Q 3647 3509 3647 2328 
Q 3647 1150 3233 529 
Q 2819 -91 2034 -91 
Q 1250 -91 836 529 
Q 422 1150 422 2328 
Q 422 3509 836 4129 
Q 1250 4750 2034 4750 
z
" transform="scale(0.015625)"/>
      <path id="DejaVuSans-2e" d="M 684 794 
L 1344 794 
L 1344 0 
L 684 0 
L 684 794 
z
" transform="scale(0.015625)"/>
      <path id="DejaVuSans-32" d="M 1228 531 
L 3431 531 
L 3431 0 
L 469 0 
L 469 531 
Q 828 903 1448 1529 
Q 2069 2156 2228 2338 
Q 2531 2678 2651 2914 
Q 2772 3150 2772 3378 
Q 2772 3750 2511 3984 
Q 2250 4219 1831 4219 
Q 1534 4219 1204 4116 
Q 875 4013 500 3803 
L 500 4441 
Q 881 4594 1212 4672 
Q 1544 4750 1819 4750 
Q 2544 4750 2975 4387 
Q 3406 4025 3406 3419 
Q 3406 3131 3298 2873 
Q 3191 2616 2906 2266 
Q 2828 2175 2409 1742 
Q 1991 1309 1228 531 
z
" transform="scale(0.015625)"/>
     </defs>
     <use xlink:href="#DejaVuSans-30"/>
     <use xlink:href="#DejaVuSans-2e" transform="translate(63.623047 0)"/>
     <use xlink:href="#DejaVuSans-32" transform="translate(95.410156 0)"/>
    </g>
   </g>
   <g id="text_2">
    <!-- 0.5 -->
    <g transform="translate(275.167024 434.327984) scale(0.1 -0.1)">
     <defs>
      <path id="DejaVuSans-35" d="M 691 4666 
L 3169 4666 
L 3169 4134 
L 1269 4134 
L 1269 2991 
Q 1406 3038 1543 3061 
Q 1681 3084 1819 3084 
Q 2600 3084 3056 2656 
Q 3513 2228 3513 1497 
Q 3513 744 3044 326 
Q 2575 -91 1722 -91 
Q 1428 -91 1123 -41 
Q 819 9 494 109 
L 494 744 
Q 775 591 1075 516 
Q 1375 441 1709 441 
Q 2250 441 2565 725 
Q 2881 1009 2881 1497 
Q 2881 1984 2565 2268 
Q 2250 2553 1709 2553 
Q 1456 2553 1204 2497 
Q 953 2441 691 2322 
L 691 4666 
z
" transform="scale(0.015625)"/>
     </defs>
     <use xlink:href="#DejaVuSans-30"/>
     <use xlink:href="#DejaVuSans-2e" transform="translate(63.623047 0)"/>
     <use xlink:href="#DejaVuSans-35" transform="translate(95.410156 0)"/>
    </g>
   </g>
   <g id="text_3">
    <!-- 1.0 -->
    <g transform="translate(407.170484 434.327984) scale(0.1 -0.1)">
     <defs>
      <path id="DejaVuSans-31" d="M 794 531 
L 1825 531 
L 1825 4091 
L 703 3866 
L 703 4441 
L 1819 4666 
L 2450 4666 
L 2450 531 
L 3481 531 
L 3481 0 
L 794 0 
L 794 531 
z
" transform="scale(0.015625)"/>
     </defs>
     <use xlink:href="#DejaVuSans-31"/>
     <use xlink:href="#DejaVuSans-2e" transform="translate(63.623047 0)"/>
     <use xlink:href="#DejaVuSans-30" transform="translate(95.410156 0)"/>
    </g>
   </g>
   <g id="text_4">
    <!-- 2.0 -->
    <g transform="translate(539.173945 434.327984) scale(0.1 -0.1)">
     <use xlink:href="#DejaVuSans-32"/>
     <use xlink:href="#DejaVuSans-2e" transform="translate(63.623047 0)"/>
     <use xlink:href="#DejaVuSans-30" transform="translate(95.410156 0)"/>
    </g>
   </g>
   <g id="text_5">
    <!-- 5.0 -->
    <g transform="translate(671.177405 434.327984) scale(0.1 -0.1)">
     <use xlink:href="#DejaVuSans-35"/>
     <use xlink:href="#DejaVuSans-2e" transform="translate(63.623047 0)"/>
     <use xlink:href="#DejaVuSans-30" transform="translate(95.410156 0)"/>
    </g>
   </g>
   <g id="text_6">
    <!-- 0.2j -->
    <g transform="translate(39.148939 282.373599) scale(0.1 -0.1)">
     <defs>
      <path id="DejaVuSans-6a" d="M 603 3500 
L 1178 3500 
L 1178 -63 
Q 1178 -731 923 -1031 
Q 669 -1331 103 -1331 
L -116 -1331 
L -116 -844 
L 38 -844 
Q 366 -844 484 -692 
Q 603 -541 603 -63 
L 603 3500 
z
M 603 4863 
L 1178 4863 
L 1178 4134 
L 603 4134 
L 603 4863 
z
" transform="scale(0.015625)"/>
     </defs>
     <use xlink:href="#DejaVuSans-30"/>
     <use xlink:href="#DejaVuSans-2e" transform="translate(63.623047 0)"/>
     <use xlink:href="#DejaVuSans-32" transform="translate(95.410156 0)"/>
     <use xlink:href="#DejaVuSans-6a" transform="translate(159.033203 0)"/>
    </g>
   </g>
   <g id="text_7">
    <!-- 0.5j -->
    <g transform="translate(168.370173 116.232013) scale(0.1 -0.1)">
     <use xlink:href="#DejaVuSans-30"/>
     <use xlink:href="#DejaVuSans-2e" transform="translate(63.623047 0)"/>
     <use xlink:href="#DejaVuSans-35" transform="translate(95.410156 0)"/>
     <use xlink:href="#DejaVuSans-6a" transform="translate(159.033203 0)"/>
    </g>
   </g>
   <g id="text_8">
    <!-- 1.0j -->
    <g transform="translate(417.693088 36.237916) scale(0.1 -0.1)">
     <use xlink:href="#DejaVuSans-31"/>
     <use xlink:href="#DejaVuSans-2e" transform="translate(63.623047 0)"/>
     <use xlink:href="#DejaVuSans-30" transform="translate(95.410156 0)"/>
     <use xlink:href="#DejaVuSans-6a" transform="translate(159.033203 0)"/>
    </g>
   </g>
   <g id="text_9">
    <!-- 2.0j -->
    <g transform="translate(667.016004 116.232013) scale(0.1 -0.1)">
     <use xlink:href="#DejaVuSans-32"/>
     <use xlink:href="#DejaVuSans-2e" transform="translate(63.623047 0)"/>
     <use xlink:href="#DejaVuSans-30" transform="translate(95.410156 0)"/>
     <use xlink:href="#DejaVuSans-6a" transform="translate(159.033203 0)"/>
    </g>
   </g>
   <g id="text_10">
    <!-- 5.0j -->
    <g transform="translate(796.237237 282.373599) scale(0.1 -0.1)">
     <use xlink:href="#DejaVuSans-35"/>
     <use xlink:href="#DejaVuSans-2e" transform="translate(63.623047 0)"/>
     <use xlink:href="#DejaVuSans-30" transform="translate(95.410156 0)"/>
     <use xlink:href="#DejaVuSans-6a" transform="translate(159.033203 0)"/>
    </g>
   </g>
   <g id="text_11">
    <!-- -0.2j -->
    <g transform="translate(35.541127 599.721327) scale(0.1 -0.1)">
     <defs>
      <path id="DejaVuSans-2d" d="M 313 2009 
L 1997 2009 
L 1997 1497 
L 313 1497 
L 313 2009 
z
" transform="scale(0.015625)"/>
     </defs>
     <use xlink:href="#DejaVuSans-2d"/>
     <use xlink:href="#DejaVuSans-30" transform="translate(36.083984 0)"/>
     <use xlink:href="#DejaVuSans-2e" transform="translate(99.707031 0)"/>
     <use xlink:href="#DejaVuSans-32" transform="translate(131.494141 0)"/>
     <use xlink:href="#DejaVuSans-6a" transform="translate(195.117188 0)"/>
    </g>
   </g>
   <g id="text_12">
    <!-- -0.5j -->
    <g transform="translate(164.76236 765.862913) scale(0.1 -0.1)">
     <use xlink:href="#DejaVuSans-2d"/>
     <use xlink:href="#DejaVuSans-30" transform="translate(36.083984 0)"/>
     <use xlink:href="#DejaVuSans-2e" transform="translate(99.707031 0)"/>
     <use xlink:href="#DejaVuSans-35" transform="translate(131.494141 0)"/>
     <use xlink:href="#DejaVuSans-6a" transform="translate(195.117188 0)"/>
    </g>
   </g>
   <g id="text_13">
    <!-- -1.0j -->
    <g transform="translate(415.889182 845.85701) scale(0.1 -0.1)">
     <use xlink:href="#DejaVuSans-2d"/>
     <use xlink:href="#DejaVuSans-31" transform="translate(36.083984 0)"/>
     <use xlink:href="#DejaVuSans-2e" transform="translate(99.707031 0)"/>
     <use xlink:href="#DejaVuSans-30" transform="translate(131.494141 0)"/>
     <use xlink:href="#DejaVuSans-6a" transform="translate(195.117188 0)"/>
    </g>
   </g>
   <g id="text_14">
    <!-- -2.0j -->
    <g transform="translate(667.016004 765.862913) scale(0.1 -0.1)">
     <use xlink:href="#DejaVuSans-2d"/>
     <use xlink:href="#DejaVuSans-32" transform="translate(36.083984 0)"/>
     <use xlink:href="#DejaVuSans-2e" transform="translate(99.707031 0)"/>
     <use xlink:href="#DejaVuSans-30" transform="translate(131.494141 0)"/>
     <use xlink:href="#DejaVuSans-6a" transform="translate(195.117188 0)"/>
    </g>
   </g>
   <g id="text_15">
    <!-- -5.0j -->
    <g transform="translate(796.237237 599.721327) scale(0.1 -0.1)">
     <use xlink:href="#DejaVuSans-2d"/>
     <use xlink:href="#DejaVuSans-35" transform="translate(36.083984 0)"/>
     <use xlink:href="#DejaVuSans-2e" transform="translate(99.707031 0)"/>
     <use xlink:href="#DejaVuSans-30" transform="translate(131.494141 0)"/>
     <use xlink:href="#DejaVuSans-6a" transform="translate(195.117188 0)"/>
    </g>
   </g>
   <g id="text_16">
    <!-- 0.0 -->
    <g transform="translate(7.2 441.047463) scale(0.1 -0.1)">
     <use xlink:href="#DejaVuSans-30"/>
     <use xlink:href="#DejaVuSans-2e" transform="translate(63.623047 0)"/>
     <use xlink:href="#DejaVuSans-30" transform="translate(95.410156 0)"/>
    </g>
   </g>
   <g id="text_17">
    <!-- $\infty$ -->
    <g transform="translate(827.004198 441.047463) scale(0.1 -0.1)">
     <defs>
      <path id="DejaVuSans-221e" d="M 2916 1091 
Q 2819 1203 2666 1466 
Q 2456 1091 2272 925 
Q 2041 725 1681 725 
Q 1259 725 981 1041 
Q 688 1372 688 1919 
Q 688 2444 981 2800 
Q 1244 3116 1688 3116 
Q 1916 3116 2084 3022 
Q 2281 2919 2416 2741 
Q 2541 2581 2666 2366 
Q 2875 2741 3059 2906 
Q 3291 3106 3650 3106 
Q 4072 3106 4350 2791 
Q 4644 2459 4644 1913 
Q 4644 1388 4350 1031 
Q 4088 716 3644 716 
Q 3416 716 3247 809 
Q 3078 894 2916 1091 
z
M 1647 1134 
Q 2163 1134 2472 1884 
Q 2075 2703 1647 2703 
Q 1334 2703 1175 2478 
Q 1003 2238 1003 1919 
Q 1003 1569 1175 1353 
Q 1350 1134 1647 1134 
z
M 3684 2697 
Q 3219 2697 2859 1947 
Q 3253 1128 3684 1128 
Q 3997 1128 4156 1353 
Q 4328 1594 4328 1913 
Q 4328 2263 4156 2478 
Q 3981 2697 3684 2697 
z
" transform="scale(0.015625)"/>
     </defs>
     <use xlink:href="#DejaVuSans-221e" transform="translate(0 0.3125)"/>
    </g>
   </g>
   <g id="text_18">
    <!-- it1_source_pull - Broadband Optimum Target -->
    <g transform="translate(248.623713 19.3575) scale(0.16 -0.16)">
     <defs>
      <path id="DejaVuSans-69" d="M 603 3500 
L 1178 3500 
L 1178 0 
L 603 0 
L 603 3500 
z
M 603 4863 
L 1178 4863 
L 1178 4134 
L 603 4134 
L 603 4863 
z
" transform="scale(0.015625)"/>
      <path id="DejaVuSans-74" d="M 1172 4494 
L 1172 3500 
L 2356 3500 
L 2356 3053 
L 1172 3053 
L 1172 1153 
Q 1172 725 1289 603 
Q 1406 481 1766 481 
L 2356 481 
L 2356 0 
L 1766 0 
Q 1100 0 847 248 
Q 594 497 594 1153 
L 594 3053 
L 172 3053 
L 172 3500 
L 594 3500 
L 594 4494 
L 1172 4494 
z
" transform="scale(0.015625)"/>
      <path id="DejaVuSans-5f" d="M 3263 -1063 
L 3263 -1509 
L -63 -1509 
L -63 -1063 
L 3263 -1063 
z
" transform="scale(0.015625)"/>
      <path id="DejaVuSans-73" d="M 2834 3397 
L 2834 2853 
Q 2591 2978 2328 3040 
Q 2066 3103 1784 3103 
Q 1356 3103 1142 2972 
Q 928 2841 928 2578 
Q 928 2378 1081 2264 
Q 1234 2150 1697 2047 
L 1894 2003 
Q 2506 1872 2764 1633 
Q 3022 1394 3022 966 
Q 3022 478 2636 193 
Q 2250 -91 1575 -91 
Q 1294 -91 989 -36 
Q 684 19 347 128 
L 347 722 
Q 666 556 975 473 
Q 1284 391 1588 391 
Q 1994 391 2212 530 
Q 2431 669 2431 922 
Q 2431 1156 2273 1281 
Q 2116 1406 1581 1522 
L 1381 1569 
Q 847 1681 609 1914 
Q 372 2147 372 2553 
Q 372 3047 722 3315 
Q 1072 3584 1716 3584 
Q 2034 3584 2315 3537 
Q 2597 3491 2834 3397 
z
" transform="scale(0.015625)"/>
      <path id="DejaVuSans-6f" d="M 1959 3097 
Q 1497 3097 1228 2736 
Q 959 2375 959 1747 
Q 959 1119 1226 758 
Q 1494 397 1959 397 
Q 2419 397 2687 759 
Q 2956 1122 2956 1747 
Q 2956 2369 2687 2733 
Q 2419 3097 1959 3097 
z
M 1959 3584 
Q 2709 3584 3137 3096 
Q 3566 2609 3566 1747 
Q 3566 888 3137 398 
Q 2709 -91 1959 -91 
Q 1206 -91 779 398 
Q 353 888 353 1747 
Q 353 2609 779 3096 
Q 1206 3584 1959 3584 
z
" transform="scale(0.015625)"/>
      <path id="DejaVuSans-75" d="M 544 1381 
L 544 3500 
L 1119 3500 
L 1119 1403 
Q 1119 906 1312 657 
Q 1506 409 1894 409 
Q 2359 409 2629 706 
Q 2900 1003 2900 1516 
L 2900 3500 
L 3475 3500 
L 3475 0 
L 2900 0 
L 2900 538 
Q 2691 219 2414 64 
Q 2138 -91 1772 -91 
Q 1169 -91 856 284 
Q 544 659 544 1381 
z
M 1991 3584 
L 1991 3584 
z
" transform="scale(0.015625)"/>
      <path id="DejaVuSans-72" d="M 2631 2963 
Q 2534 3019 2420 3045 
Q 2306 3072 2169 3072 
Q 1681 3072 1420 2755 
Q 1159 2438 1159 1844 
L 1159 0 
L 581 0 
L 581 3500 
L 1159 3500 
L 1159 2956 
Q 1341 3275 1631 3429 
Q 1922 3584 2338 3584 
Q 2397 3584 2469 3576 
Q 2541 3569 2628 3553 
L 2631 2963 
z
" transform="scale(0.015625)"/>
      <path id="DejaVuSans-63" d="M 3122 3366 
L 3122 2828 
Q 2878 2963 2633 3030 
Q 2388 3097 2138 3097 
Q 1578 3097 1268 2742 
Q 959 2388 959 1747 
Q 959 1106 1268 751 
Q 1578 397 2138 397 
Q 2388 397 2633 464 
Q 2878 531 3122 666 
L 3122 134 
Q 2881 22 2623 -34 
Q 2366 -91 2075 -91 
Q 1284 -91 818 406 
Q 353 903 353 1747 
Q 353 2603 823 3093 
Q 1294 3584 2113 3584 
Q 2378 3584 2631 3529 
Q 2884 3475 3122 3366 
z
" transform="scale(0.015625)"/>
      <path id="DejaVuSans-65" d="M 3597 1894 
L 3597 1613 
L 953 1613 
Q 991 1019 1311 708 
Q 1631 397 2203 397 
Q 2534 397 2845 478 
Q 3156 559 3463 722 
L 3463 178 
Q 3153 47 2828 -22 
Q 2503 -91 2169 -91 
Q 1331 -91 842 396 
Q 353 884 353 1716 
Q 353 2575 817 3079 
Q 1281 3584 2069 3584 
Q 2775 3584 3186 3129 
Q 3597 2675 3597 1894 
z
M 3022 2063 
Q 3016 2534 2758 2815 
Q 2500 3097 2075 3097 
Q 1594 3097 1305 2825 
Q 1016 2553 972 2059 
L 3022 2063 
z
" transform="scale(0.015625)"/>
      <path id="DejaVuSans-70" d="M 1159 525 
L 1159 -1331 
L 581 -1331 
L 581 3500 
L 1159 3500 
L 1159 2969 
Q 1341 3281 1617 3432 
Q 1894 3584 2278 3584 
Q 2916 3584 3314 3078 
Q 3713 2572 3713 1747 
Q 3713 922 3314 415 
Q 2916 -91 2278 -91 
Q 1894 -91 1617 61 
Q 1341 213 1159 525 
z
M 3116 1747 
Q 3116 2381 2855 2742 
Q 2594 3103 2138 3103 
Q 1681 3103 1420 2742 
Q 1159 2381 1159 1747 
Q 1159 1113 1420 752 
Q 1681 391 2138 391 
Q 2594 391 2855 752 
Q 3116 1113 3116 1747 
z
" transform="scale(0.015625)"/>
      <path id="DejaVuSans-6c" d="M 603 4863 
L 1178 4863 
L 1178 0 
L 603 0 
L 603 4863 
z
" transform="scale(0.015625)"/>
      <path id="DejaVuSans-20" transform="scale(0.015625)"/>
      <path id="DejaVuSans-42" d="M 1259 2228 
L 1259 519 
L 2272 519 
Q 2781 519 3026 730 
Q 3272 941 3272 1375 
Q 3272 1813 3026 2020 
Q 2781 2228 2272 2228 
L 1259 2228 
z
M 1259 4147 
L 1259 2741 
L 2194 2741 
Q 2656 2741 2882 2914 
Q 3109 3088 3109 3444 
Q 3109 3797 2882 3972 
Q 2656 4147 2194 4147 
L 1259 4147 
z
M 628 4666 
L 2241 4666 
Q 2963 4666 3353 4366 
Q 3744 4066 3744 3513 
Q 3744 3084 3544 2831 
Q 3344 2578 2956 2516 
Q 3422 2416 3680 2098 
Q 3938 1781 3938 1306 
Q 3938 681 3513 340 
Q 3088 0 2303 0 
L 628 0 
L 628 4666 
z
" transform="scale(0.015625)"/>
      <path id="DejaVuSans-61" d="M 2194 1759 
Q 1497 1759 1228 1600 
Q 959 1441 959 1056 
Q 959 750 1161 570 
Q 1363 391 1709 391 
Q 2188 391 2477 730 
Q 2766 1069 2766 1631 
L 2766 1759 
L 2194 1759 
z
M 3341 1997 
L 3341 0 
L 2766 0 
L 2766 531 
Q 2569 213 2275 61 
Q 1981 -91 1556 -91 
Q 1019 -91 701 211 
Q 384 513 384 1019 
Q 384 1609 779 1909 
Q 1175 2209 1959 2209 
L 2766 2209 
L 2766 2266 
Q 2766 2663 2505 2880 
Q 2244 3097 1772 3097 
Q 1472 3097 1187 3025 
Q 903 2953 641 2809 
L 641 3341 
Q 956 3463 1253 3523 
Q 1550 3584 1831 3584 
Q 2591 3584 2966 3190 
Q 3341 2797 3341 1997 
z
" transform="scale(0.015625)"/>
      <path id="DejaVuSans-64" d="M 2906 2969 
L 2906 4863 
L 3481 4863 
L 3481 0 
L 2906 0 
L 2906 525 
Q 2725 213 2448 61 
Q 2172 -91 1784 -91 
Q 1150 -91 751 415 
Q 353 922 353 1747 
Q 353 2572 751 3078 
Q 1150 3584 1784 3584 
Q 2172 3584 2448 3432 
Q 2725 3281 2906 2969 
z
M 947 1747 
Q 947 1113 1208 752 
Q 1469 391 1925 391 
Q 2381 391 2643 752 
Q 2906 1113 2906 1747 
Q 2906 2381 2643 2742 
Q 2381 3103 1925 3103 
Q 1469 3103 1208 2742 
Q 947 2381 947 1747 
z
" transform="scale(0.015625)"/>
      <path id="DejaVuSans-62" d="M 3116 1747 
Q 3116 2381 2855 2742 
Q 2594 3103 2138 3103 
Q 1681 3103 1420 2742 
Q 1159 2381 1159 1747 
Q 1159 1113 1420 752 
Q 1681 391 2138 391 
Q 2594 391 2855 752 
Q 3116 1113 3116 1747 
z
M 1159 2969 
Q 1341 3281 1617 3432 
Q 1894 3584 2278 3584 
Q 2916 3584 3314 3078 
Q 3713 2572 3713 1747 
Q 3713 922 3314 415 
Q 2916 -91 2278 -91 
Q 1894 -91 1617 61 
Q 1341 213 1159 525 
L 1159 0 
L 581 0 
L 581 4863 
L 1159 4863 
L 1159 2969 
z
" transform="scale(0.015625)"/>
      <path id="DejaVuSans-6e" d="M 3513 2113 
L 3513 0 
L 2938 0 
L 2938 2094 
Q 2938 2591 2744 2837 
Q 2550 3084 2163 3084 
Q 1697 3084 1428 2787 
Q 1159 2491 1159 1978 
L 1159 0 
L 581 0 
L 581 3500 
L 1159 3500 
L 1159 2956 
Q 1366 3272 1645 3428 
Q 1925 3584 2291 3584 
Q 2894 3584 3203 3211 
Q 3513 2838 3513 2113 
z
" transform="scale(0.015625)"/>
      <path id="DejaVuSans-4f" d="M 2522 4238 
Q 1834 4238 1429 3725 
Q 1025 3213 1025 2328 
Q 1025 1447 1429 934 
Q 1834 422 2522 422 
Q 3209 422 3611 934 
Q 4013 1447 4013 2328 
Q 4013 3213 3611 3725 
Q 3209 4238 2522 4238 
z
M 2522 4750 
Q 3503 4750 4090 4092 
Q 4678 3434 4678 2328 
Q 4678 1225 4090 567 
Q 3503 -91 2522 -91 
Q 1538 -91 948 565 
Q 359 1222 359 2328 
Q 359 3434 948 4092 
Q 1538 4750 2522 4750 
z
" transform="scale(0.015625)"/>
      <path id="DejaVuSans-6d" d="M 3328 2828 
Q 3544 3216 3844 3400 
Q 4144 3584 4550 3584 
Q 5097 3584 5394 3201 
Q 5691 2819 5691 2113 
L 5691 0 
L 5113 0 
L 5113 2094 
Q 5113 2597 4934 2840 
Q 4756 3084 4391 3084 
Q 3944 3084 3684 2787 
Q 3425 2491 3425 1978 
L 3425 0 
L 2847 0 
L 2847 2094 
Q 2847 2600 2669 2842 
Q 2491 3084 2119 3084 
Q 1678 3084 1418 2786 
Q 1159 2488 1159 1978 
L 1159 0 
L 581 0 
L 581 3500 
L 1159 3500 
L 1159 2956 
Q 1356 3278 1631 3431 
Q 1906 3584 2284 3584 
Q 2666 3584 2933 3390 
Q 3200 3197 3328 2828 
z
" transform="scale(0.015625)"/>
      <path id="DejaVuSans-54" d="M -19 4666 
L 3928 4666 
L 3928 4134 
L 2272 4134 
L 2272 0 
L 1638 0 
L 1638 4134 
L -19 4134 
L -19 4666 
z
" transform="scale(0.015625)"/>
      <path id="DejaVuSans-67" d="M 2906 1791 
Q 2906 2416 2648 2759 
Q 2391 3103 1925 3103 
Q 1463 3103 1205 2759 
Q 947 2416 947 1791 
Q 947 1169 1205 825 
Q 1463 481 1925 481 
Q 2391 481 2648 825 
Q 2906 1169 2906 1791 
z
M 3481 434 
Q 3481 -459 3084 -895 
Q 2688 -1331 1869 -1331 
Q 1566 -1331 1297 -1286 
Q 1028 -1241 775 -1147 
L 775 -588 
Q 1028 -725 1275 -790 
Q 1522 -856 1778 -856 
Q 2344 -856 2625 -561 
Q 2906 -266 2906 331 
L 2906 616 
Q 2728 306 2450 153 
Q 2172 0 1784 0 
Q 1141 0 747 490 
Q 353 981 353 1791 
Q 353 2603 747 3093 
Q 1141 3584 1784 3584 
Q 2172 3584 2450 3431 
Q 2728 3278 2906 2969 
L 2906 3500 
L 3481 3500 
L 3481 434 
z
" transform="scale(0.015625)"/>
     </defs>
     <use xlink:href="#DejaVuSans-69"/>
     <use xlink:href="#DejaVuSans-74" transform="translate(27.783203 0)"/>
     <use xlink:href="#DejaVuSans-31" transform="translate(66.992188 0)"/>
     <use xlink:href="#DejaVuSans-5f" transform="translate(130.615234 0)"/>
     <use xlink:href="#DejaVuSans-73" transform="translate(180.615234 0)"/>
     <use xlink:href="#DejaVuSans-6f" transform="translate(232.714844 0)"/>
     <use xlink:href="#DejaVuSans-75" transform="translate(293.896484 0)"/>
     <use xlink:href="#DejaVuSans-72" transform="translate(357.275391 0)"/>
     <use xlink:href="#DejaVuSans-63" transform="translate(396.138672 0)"/>
     <use xlink:href="#DejaVuSans-65" transform="translate(451.119141 0)"/>
     <use xlink:href="#DejaVuSans-5f" transform="translate(512.642578 0)"/>
     <use xlink:href="#DejaVuSans-70" transform="translate(562.642578 0)"/>
     <use xlink:href="#DejaVuSans-75" transform="translate(626.119141 0)"/>
     <use xlink:href="#DejaVuSans-6c" transform="translate(689.498047 0)"/>
     <use xlink:href="#DejaVuSans-6c" transform="translate(717.28125 0)"/>
     <use xlink:href="#DejaVuSans-20" transform="translate(745.064453 0)"/>
     <use xlink:href="#DejaVuSans-2d" transform="translate(776.851562 0)"/>
     <use xlink:href="#DejaVuSans-20" transform="translate(812.935547 0)"/>
     <use xlink:href="#DejaVuSans-42" transform="translate(844.722656 0)"/>
     <use xlink:href="#DejaVuSans-72" transform="translate(913.326172 0)"/>
     <use xlink:href="#DejaVuSans-6f" transform="translate(952.189453 0)"/>
     <use xlink:href="#DejaVuSans-61" transform="translate(1013.371094 0)"/>
     <use xlink:href="#DejaVuSans-64" transform="translate(1074.650391 0)"/>
     <use xlink:href="#DejaVuSans-62" transform="translate(1138.126953 0)"/>
     <use xlink:href="#DejaVuSans-61" transform="translate(1201.603516 0)"/>
     <use xlink:href="#DejaVuSans-6e" transform="translate(1262.882812 0)"/>
     <use xlink:href="#DejaVuSans-64" transform="translate(1326.261719 0)"/>
     <use xlink:href="#DejaVuSans-20" transform="translate(1389.738281 0)"/>
     <use xlink:href="#DejaVuSans-4f" transform="translate(1421.525391 0)"/>
     <use xlink:href="#DejaVuSans-70" transform="translate(1500.236328 0)"/>
     <use xlink:href="#DejaVuSans-74" transform="translate(1563.712891 0)"/>
     <use xlink:href="#DejaVuSans-69" transform="translate(1602.921875 0)"/>
     <use xlink:href="#DejaVuSans-6d" transform="translate(1630.705078 0)"/>
     <use xlink:href="#DejaVuSans-75" transform="translate(1728.117188 0)"/>
     <use xlink:href="#DejaVuSans-6d" transform="translate(1791.496094 0)"/>
     <use xlink:href="#DejaVuSans-20" transform="translate(1888.908203 0)"/>
     <use xlink:href="#DejaVuSans-54" transform="translate(1920.695312 0)"/>
     <use xlink:href="#DejaVuSans-61" transform="translate(1965.279297 0)"/>
     <use xlink:href="#DejaVuSans-72" transform="translate(2026.558594 0)"/>
     <use xlink:href="#DejaVuSans-67" transform="translate(2065.921875 0)"/>
     <use xlink:href="#DejaVuSans-65" transform="translate(2129.398438 0)"/>
     <use xlink:href="#DejaVuSans-74" transform="translate(2190.921875 0)"/>
    </g>
   </g>
   <g id="legend_1">
    <g id="patch_27">
     <path d="M 854.121525 535.195901 
L 1013.934025 535.195901 
Q 1015.934025 535.195901 1015.934025 533.195901 
L 1015.934025 343.380276 
Q 1015.934025 341.380276 1013.934025 341.380276 
L 854.121525 341.380276 
Q 852.121525 341.380276 852.121525 343.380276 
L 852.121525 533.195901 
Q 852.121525 535.195901 854.121525 535.195901 
z
" style="fill: #ffffff; opacity: 0.8; stroke: #cccccc; stroke-linejoin: miter"/>
    </g>
    <g id="line2d_33">
     <path d="M 856.121525 349.478713 
L 866.121525 349.478713 
L 876.121525 349.478713 
" style="fill: none; stroke: #1f77b4; stroke-opacity: 0.99; stroke-width: 0.2; stroke-linecap: square"/>
    </g>
    <g id="text_19">
     <!-- 9.70 GHz (Hedef: 16.75) -->
     <g transform="translate(884.121525 352.978713) scale(0.1 -0.1)">
      <defs>
       <path id="DejaVuSans-39" d="M 703 97 
L 703 672 
Q 941 559 1184 500 
Q 1428 441 1663 441 
Q 2288 441 2617 861 
Q 2947 1281 2994 2138 
Q 2813 1869 2534 1725 
Q 2256 1581 1919 1581 
Q 1219 1581 811 2004 
Q 403 2428 403 3163 
Q 403 3881 828 4315 
Q 1253 4750 1959 4750 
Q 2769 4750 3195 4129 
Q 3622 3509 3622 2328 
Q 3622 1225 3098 567 
Q 2575 -91 1691 -91 
Q 1453 -91 1209 -44 
Q 966 3 703 97 
z
M 1959 2075 
Q 2384 2075 2632 2365 
Q 2881 2656 2881 3163 
Q 2881 3666 2632 3958 
Q 2384 4250 1959 4250 
Q 1534 4250 1286 3958 
Q 1038 3666 1038 3163 
Q 1038 2656 1286 2365 
Q 1534 2075 1959 2075 
z
" transform="scale(0.015625)"/>
       <path id="DejaVuSans-37" d="M 525 4666 
L 3525 4666 
L 3525 4397 
L 1831 0 
L 1172 0 
L 2766 4134 
L 525 4134 
L 525 4666 
z
" transform="scale(0.015625)"/>
       <path id="DejaVuSans-47" d="M 3809 666 
L 3809 1919 
L 2778 1919 
L 2778 2438 
L 4434 2438 
L 4434 434 
Q 4069 175 3628 42 
Q 3188 -91 2688 -91 
Q 1594 -91 976 548 
Q 359 1188 359 2328 
Q 359 3472 976 4111 
Q 1594 4750 2688 4750 
Q 3144 4750 3555 4637 
Q 3966 4525 4313 4306 
L 4313 3634 
Q 3963 3931 3569 4081 
Q 3175 4231 2741 4231 
Q 1884 4231 1454 3753 
Q 1025 3275 1025 2328 
Q 1025 1384 1454 906 
Q 1884 428 2741 428 
Q 3075 428 3337 486 
Q 3600 544 3809 666 
z
" transform="scale(0.015625)"/>
       <path id="DejaVuSans-48" d="M 628 4666 
L 1259 4666 
L 1259 2753 
L 3553 2753 
L 3553 4666 
L 4184 4666 
L 4184 0 
L 3553 0 
L 3553 2222 
L 1259 2222 
L 1259 0 
L 628 0 
L 628 4666 
z
" transform="scale(0.015625)"/>
       <path id="DejaVuSans-7a" d="M 353 3500 
L 3084 3500 
L 3084 2975 
L 922 459 
L 3084 459 
L 3084 0 
L 275 0 
L 275 525 
L 2438 3041 
L 353 3041 
L 353 3500 
z
" transform="scale(0.015625)"/>
       <path id="DejaVuSans-28" d="M 1984 4856 
Q 1566 4138 1362 3434 
Q 1159 2731 1159 2009 
Q 1159 1288 1364 580 
Q 1569 -128 1984 -844 
L 1484 -844 
Q 1016 -109 783 600 
Q 550 1309 550 2009 
Q 550 2706 781 3412 
Q 1013 4119 1484 4856 
L 1984 4856 
z
" transform="scale(0.015625)"/>
       <path id="DejaVuSans-66" d="M 2375 4863 
L 2375 4384 
L 1825 4384 
Q 1516 4384 1395 4259 
Q 1275 4134 1275 3809 
L 1275 3500 
L 2222 3500 
L 2222 3053 
L 1275 3053 
L 1275 0 
L 697 0 
L 697 3053 
L 147 3053 
L 147 3500 
L 697 3500 
L 697 3744 
Q 697 4328 969 4595 
Q 1241 4863 1831 4863 
L 2375 4863 
z
" transform="scale(0.015625)"/>
       <path id="DejaVuSans-3a" d="M 750 794 
L 1409 794 
L 1409 0 
L 750 0 
L 750 794 
z
M 750 3309 
L 1409 3309 
L 1409 2516 
L 750 2516 
L 750 3309 
z
" transform="scale(0.015625)"/>
       <path id="DejaVuSans-36" d="M 2113 2584 
Q 1688 2584 1439 2293 
Q 1191 2003 1191 1497 
Q 1191 994 1439 701 
Q 1688 409 2113 409 
Q 2538 409 2786 701 
Q 3034 994 3034 1497 
Q 3034 2003 2786 2293 
Q 2538 2584 2113 2584 
z
M 3366 4563 
L 3366 3988 
Q 3128 4100 2886 4159 
Q 2644 4219 2406 4219 
Q 1781 4219 1451 3797 
Q 1122 3375 1075 2522 
Q 1259 2794 1537 2939 
Q 1816 3084 2150 3084 
Q 2853 3084 3261 2657 
Q 3669 2231 3669 1497 
Q 3669 778 3244 343 
Q 2819 -91 2113 -91 
Q 1303 -91 875 529 
Q 447 1150 447 2328 
Q 447 3434 972 4092 
Q 1497 4750 2381 4750 
Q 2619 4750 2861 4703 
Q 3103 4656 3366 4563 
z
" transform="scale(0.015625)"/>
       <path id="DejaVuSans-29" d="M 513 4856 
L 1013 4856 
Q 1481 4119 1714 3412 
Q 1947 2706 1947 2009 
Q 1947 1309 1714 600 
Q 1481 -109 1013 -844 
L 513 -844 
Q 928 -128 1133 580 
Q 1338 1288 1338 2009 
Q 1338 2731 1133 3434 
Q 928 4138 513 4856 
z
" transform="scale(0.015625)"/>
      </defs>
      <use xlink:href="#DejaVuSans-39"/>
      <use xlink:href="#DejaVuSans-2e" transform="translate(63.623047 0)"/>
      <use xlink:href="#DejaVuSans-37" transform="translate(95.410156 0)"/>
      <use xlink:href="#DejaVuSans-30" transform="translate(159.033203 0)"/>
      <use xlink:href="#DejaVuSans-20" transform="translate(222.65625 0)"/>
      <use xlink:href="#DejaVuSans-47" transform="translate(254.443359 0)"/>
      <use xlink:href="#DejaVuSans-48" transform="translate(331.933594 0)"/>
      <use xlink:href="#DejaVuSans-7a" transform="translate(407.128906 0)"/>
      <use xlink:href="#DejaVuSans-20" transform="translate(459.619141 0)"/>
      <use xlink:href="#DejaVuSans-28" transform="translate(491.40625 0)"/>
      <use xlink:href="#DejaVuSans-48" transform="translate(530.419922 0)"/>
      <use xlink:href="#DejaVuSans-65" transform="translate(605.615234 0)"/>
      <use xlink:href="#DejaVuSans-64" transform="translate(667.138672 0)"/>
      <use xlink:href="#DejaVuSans-65" transform="translate(730.615234 0)"/>
      <use xlink:href="#DejaVuSans-66" transform="translate(792.138672 0)"/>
      <use xlink:href="#DejaVuSans-3a" transform="translate(823.71875 0)"/>
      <use xlink:href="#DejaVuSans-20" transform="translate(857.410156 0)"/>
      <use xlink:href="#DejaVuSans-31" transform="translate(889.197266 0)"/>
      <use xlink:href="#DejaVuSans-36" transform="translate(952.820312 0)"/>
      <use xlink:href="#DejaVuSans-2e" transform="translate(1016.443359 0)"/>
      <use xlink:href="#DejaVuSans-37" transform="translate(1048.230469 0)"/>
      <use xlink:href="#DejaVuSans-35" transform="translate(1111.853516 0)"/>
      <use xlink:href="#DejaVuSans-29" transform="translate(1175.476562 0)"/>
     </g>
    </g>
    <g id="line2d_34">
     <path d="M 856.121525 364.156838 
L 866.121525 364.156838 
L 876.121525 364.156838 
" style="fill: none; stroke: #ff7f0e; stroke-opacity: 0.99; stroke-width: 0.2; stroke-linecap: square"/>
    </g>
    <g id="text_20">
     <!-- 9.75 GHz (Hedef: 16.5) -->
     <g transform="translate(884.121525 367.656838) scale(0.1 -0.1)">
      <use xlink:href="#DejaVuSans-39"/>
      <use xlink:href="#DejaVuSans-2e" transform="translate(63.623047 0)"/>
      <use xlink:href="#DejaVuSans-37" transform="translate(95.410156 0)"/>
      <use xlink:href="#DejaVuSans-35" transform="translate(159.033203 0)"/>
      <use xlink:href="#DejaVuSans-20" transform="translate(222.65625 0)"/>
      <use xlink:href="#DejaVuSans-47" transform="translate(254.443359 0)"/>
      <use xlink:href="#DejaVuSans-48" transform="translate(331.933594 0)"/>
      <use xlink:href="#DejaVuSans-7a" transform="translate(407.128906 0)"/>
      <use xlink:href="#DejaVuSans-20" transform="translate(459.619141 0)"/>
      <use xlink:href="#DejaVuSans-28" transform="translate(491.40625 0)"/>
      <use xlink:href="#DejaVuSans-48" transform="translate(530.419922 0)"/>
      <use xlink:href="#DejaVuSans-65" transform="translate(605.615234 0)"/>
      <use xlink:href="#DejaVuSans-64" transform="translate(667.138672 0)"/>
      <use xlink:href="#DejaVuSans-65" transform="translate(730.615234 0)"/>
      <use xlink:href="#DejaVuSans-66" transform="translate(792.138672 0)"/>
      <use xlink:href="#DejaVuSans-3a" transform="translate(823.71875 0)"/>
      <use xlink:href="#DejaVuSans-20" transform="translate(857.410156 0)"/>
      <use xlink:href="#DejaVuSans-31" transform="translate(889.197266 0)"/>
      <use xlink:href="#DejaVuSans-36" transform="translate(952.820312 0)"/>
      <use xlink:href="#DejaVuSans-2e" transform="translate(1016.443359 0)"/>
      <use xlink:href="#DejaVuSans-35" transform="translate(1048.230469 0)"/>
      <use xlink:href="#DejaVuSans-29" transform="translate(1111.853516 0)"/>
     </g>
    </g>
    <g id="line2d_35">
     <path d="M 856.121525 378.834963 
L 866.121525 378.834963 
L 876.121525 378.834963 
" style="fill: none; stroke: #2ca02c; stroke-opacity: 0.99; stroke-width: 0.2; stroke-linecap: square"/>
    </g>
    <g id="text_21">
     <!-- 9.80 GHz (Hedef: 16.5) -->
     <g transform="translate(884.121525 382.334963) scale(0.1 -0.1)">
      <defs>
       <path id="DejaVuSans-38" d="M 2034 2216 
Q 1584 2216 1326 1975 
Q 1069 1734 1069 1313 
Q 1069 891 1326 650 
Q 1584 409 2034 409 
Q 2484 409 2743 651 
Q 3003 894 3003 1313 
Q 3003 1734 2745 1975 
Q 2488 2216 2034 2216 
z
M 1403 2484 
Q 997 2584 770 2862 
Q 544 3141 544 3541 
Q 544 4100 942 4425 
Q 1341 4750 2034 4750 
Q 2731 4750 3128 4425 
Q 3525 4100 3525 3541 
Q 3525 3141 3298 2862 
Q 3072 2584 2669 2484 
Q 3125 2378 3379 2068 
Q 3634 1759 3634 1313 
Q 3634 634 3220 271 
Q 2806 -91 2034 -91 
Q 1263 -91 848 271 
Q 434 634 434 1313 
Q 434 1759 690 2068 
Q 947 2378 1403 2484 
z
M 1172 3481 
Q 1172 3119 1398 2916 
Q 1625 2713 2034 2713 
Q 2441 2713 2670 2916 
Q 2900 3119 2900 3481 
Q 2900 3844 2670 4047 
Q 2441 4250 2034 4250 
Q 1625 4250 1398 4047 
Q 1172 3844 1172 3481 
z
" transform="scale(0.015625)"/>
      </defs>
      <use xlink:href="#DejaVuSans-39"/>
      <use xlink:href="#DejaVuSans-2e" transform="translate(63.623047 0)"/>
      <use xlink:href="#DejaVuSans-38" transform="translate(95.410156 0)"/>
      <use xlink:href="#DejaVuSans-30" transform="translate(159.033203 0)"/>
      <use xlink:href="#DejaVuSans-20" transform="translate(222.65625 0)"/>
      <use xlink:href="#DejaVuSans-47" transform="translate(254.443359 0)"/>
      <use xlink:href="#DejaVuSans-48" transform="translate(331.933594 0)"/>
      <use xlink:href="#DejaVuSans-7a" transform="translate(407.128906 0)"/>
      <use xlink:href="#DejaVuSans-20" transform="translate(459.619141 0)"/>
      <use xlink:href="#DejaVuSans-28" transform="translate(491.40625 0)"/>
      <use xlink:href="#DejaVuSans-48" transform="translate(530.419922 0)"/>
      <use xlink:href="#DejaVuSans-65" transform="translate(605.615234 0)"/>
      <use xlink:href="#DejaVuSans-64" transform="translate(667.138672 0)"/>
      <use xlink:href="#DejaVuSans-65" transform="translate(730.615234 0)"/>
      <use xlink:href="#DejaVuSans-66" transform="translate(792.138672 0)"/>
      <use xlink:href="#DejaVuSans-3a" transform="translate(823.71875 0)"/>
      <use xlink:href="#DejaVuSans-20" transform="translate(857.410156 0)"/>
      <use xlink:href="#DejaVuSans-31" transform="translate(889.197266 0)"/>
      <use xlink:href="#DejaVuSans-36" transform="translate(952.820312 0)"/>
      <use xlink:href="#DejaVuSans-2e" transform="translate(1016.443359 0)"/>
      <use xlink:href="#DejaVuSans-35" transform="translate(1048.230469 0)"/>
      <use xlink:href="#DejaVuSans-29" transform="translate(1111.853516 0)"/>
     </g>
    </g>
    <g id="line2d_36">
     <path d="M 856.121525 393.513088 
L 866.121525 393.513088 
L 876.121525 393.513088 
" style="fill: none; stroke: #d62728; stroke-opacity: 0.99; stroke-width: 0.2; stroke-linecap: square"/>
    </g>
    <g id="text_22">
     <!-- 9.85 GHz (Hedef: 16.5) -->
     <g transform="translate(884.121525 397.013088) scale(0.1 -0.1)">
      <use xlink:href="#DejaVuSans-39"/>
      <use xlink:href="#DejaVuSans-2e" transform="translate(63.623047 0)"/>
      <use xlink:href="#DejaVuSans-38" transform="translate(95.410156 0)"/>
      <use xlink:href="#DejaVuSans-35" transform="translate(159.033203 0)"/>
      <use xlink:href="#DejaVuSans-20" transform="translate(222.65625 0)"/>
      <use xlink:href="#DejaVuSans-47" transform="translate(254.443359 0)"/>
      <use xlink:href="#DejaVuSans-48" transform="translate(331.933594 0)"/>
      <use xlink:href="#DejaVuSans-7a" transform="translate(407.128906 0)"/>
      <use xlink:href="#DejaVuSans-20" transform="translate(459.619141 0)"/>
      <use xlink:href="#DejaVuSans-28" transform="translate(491.40625 0)"/>
      <use xlink:href="#DejaVuSans-48" transform="translate(530.419922 0)"/>
      <use xlink:href="#DejaVuSans-65" transform="translate(605.615234 0)"/>
      <use xlink:href="#DejaVuSans-64" transform="translate(667.138672 0)"/>
      <use xlink:href="#DejaVuSans-65" transform="translate(730.615234 0)"/>
      <use xlink:href="#DejaVuSans-66" transform="translate(792.138672 0)"/>
      <use xlink:href="#DejaVuSans-3a" transform="translate(823.71875 0)"/>
      <use xlink:href="#DejaVuSans-20" transform="translate(857.410156 0)"/>
      <use xlink:href="#DejaVuSans-31" transform="translate(889.197266 0)"/>
      <use xlink:href="#DejaVuSans-36" transform="translate(952.820312 0)"/>
      <use xlink:href="#DejaVuSans-2e" transform="translate(1016.443359 0)"/>
      <use xlink:href="#DejaVuSans-35" transform="translate(1048.230469 0)"/>
      <use xlink:href="#DejaVuSans-29" transform="translate(1111.853516 0)"/>
     </g>
    </g>
    <g id="line2d_37">
     <path d="M 856.121525 408.191213 
L 866.121525 408.191213 
L 876.121525 408.191213 
" style="fill: none; stroke: #9467bd; stroke-opacity: 0.99; stroke-width: 0.2; stroke-linecap: square"/>
    </g>
    <g id="text_23">
     <!-- 9.90 GHz (Hedef: 16.5) -->
     <g transform="translate(884.121525 411.691213) scale(0.1 -0.1)">
      <use xlink:href="#DejaVuSans-39"/>
      <use xlink:href="#DejaVuSans-2e" transform="translate(63.623047 0)"/>
      <use xlink:href="#DejaVuSans-39" transform="translate(95.410156 0)"/>
      <use xlink:href="#DejaVuSans-30" transform="translate(159.033203 0)"/>
      <use xlink:href="#DejaVuSans-20" transform="translate(222.65625 0)"/>
      <use xlink:href="#DejaVuSans-47" transform="translate(254.443359 0)"/>
      <use xlink:href="#DejaVuSans-48" transform="translate(331.933594 0)"/>
      <use xlink:href="#DejaVuSans-7a" transform="translate(407.128906 0)"/>
      <use xlink:href="#DejaVuSans-20" transform="translate(459.619141 0)"/>
      <use xlink:href="#DejaVuSans-28" transform="translate(491.40625 0)"/>
      <use xlink:href="#DejaVuSans-48" transform="translate(530.419922 0)"/>
      <use xlink:href="#DejaVuSans-65" transform="translate(605.615234 0)"/>
      <use xlink:href="#DejaVuSans-64" transform="translate(667.138672 0)"/>
      <use xlink:href="#DejaVuSans-65" transform="translate(730.615234 0)"/>
      <use xlink:href="#DejaVuSans-66" transform="translate(792.138672 0)"/>
      <use xlink:href="#DejaVuSans-3a" transform="translate(823.71875 0)"/>
      <use xlink:href="#DejaVuSans-20" transform="translate(857.410156 0)"/>
      <use xlink:href="#DejaVuSans-31" transform="translate(889.197266 0)"/>
      <use xlink:href="#DejaVuSans-36" transform="translate(952.820312 0)"/>
      <use xlink:href="#DejaVuSans-2e" transform="translate(1016.443359 0)"/>
      <use xlink:href="#DejaVuSans-35" transform="translate(1048.230469 0)"/>
      <use xlink:href="#DejaVuSans-29" transform="translate(1111.853516 0)"/>
     </g>
    </g>
    <g id="line2d_38">
     <path d="M 856.121525 422.869338 
L 866.121525 422.869338 
L 876.121525 422.869338 
" style="fill: none; stroke: #8c564b; stroke-opacity: 0.99; stroke-width: 0.2; stroke-linecap: square"/>
    </g>
    <g id="text_24">
     <!-- 9.95 GHz (Hedef: 16.5) -->
     <g transform="translate(884.121525 426.369338) scale(0.1 -0.1)">
      <use xlink:href="#DejaVuSans-39"/>
      <use xlink:href="#DejaVuSans-2e" transform="translate(63.623047 0)"/>
      <use xlink:href="#DejaVuSans-39" transform="translate(95.410156 0)"/>
      <use xlink:href="#DejaVuSans-35" transform="translate(159.033203 0)"/>
      <use xlink:href="#DejaVuSans-20" transform="translate(222.65625 0)"/>
      <use xlink:href="#DejaVuSans-47" transform="translate(254.443359 0)"/>
      <use xlink:href="#DejaVuSans-48" transform="translate(331.933594 0)"/>
      <use xlink:href="#DejaVuSans-7a" transform="translate(407.128906 0)"/>
      <use xlink:href="#DejaVuSans-20" transform="translate(459.619141 0)"/>
      <use xlink:href="#DejaVuSans-28" transform="translate(491.40625 0)"/>
      <use xlink:href="#DejaVuSans-48" transform="translate(530.419922 0)"/>
      <use xlink:href="#DejaVuSans-65" transform="translate(605.615234 0)"/>
      <use xlink:href="#DejaVuSans-64" transform="translate(667.138672 0)"/>
      <use xlink:href="#DejaVuSans-65" transform="translate(730.615234 0)"/>
      <use xlink:href="#DejaVuSans-66" transform="translate(792.138672 0)"/>
      <use xlink:href="#DejaVuSans-3a" transform="translate(823.71875 0)"/>
      <use xlink:href="#DejaVuSans-20" transform="translate(857.410156 0)"/>
      <use xlink:href="#DejaVuSans-31" transform="translate(889.197266 0)"/>
      <use xlink:href="#DejaVuSans-36" transform="translate(952.820312 0)"/>
      <use xlink:href="#DejaVuSans-2e" transform="translate(1016.443359 0)"/>
      <use xlink:href="#DejaVuSans-35" transform="translate(1048.230469 0)"/>
      <use xlink:href="#DejaVuSans-29" transform="translate(1111.853516 0)"/>
     </g>
    </g>
    <g id="line2d_39">
     <path d="M 856.121525 437.547463 
L 866.121525 437.547463 
L 876.121525 437.547463 
" style="fill: none; stroke: #e377c2; stroke-opacity: 0.99; stroke-width: 0.2; stroke-linecap: square"/>
    </g>
    <g id="text_25">
     <!-- 10.00 GHz (Hedef: 16.25) -->
     <g transform="translate(884.121525 441.047463) scale(0.1 -0.1)">
      <use xlink:href="#DejaVuSans-31"/>
      <use xlink:href="#DejaVuSans-30" transform="translate(63.623047 0)"/>
      <use xlink:href="#DejaVuSans-2e" transform="translate(127.246094 0)"/>
      <use xlink:href="#DejaVuSans-30" transform="translate(159.033203 0)"/>
      <use xlink:href="#DejaVuSans-30" transform="translate(222.65625 0)"/>
      <use xlink:href="#DejaVuSans-20" transform="translate(286.279297 0)"/>
      <use xlink:href="#DejaVuSans-47" transform="translate(318.066406 0)"/>
      <use xlink:href="#DejaVuSans-48" transform="translate(395.556641 0)"/>
      <use xlink:href="#DejaVuSans-7a" transform="translate(470.751953 0)"/>
      <use xlink:href="#DejaVuSans-20" transform="translate(523.242188 0)"/>
      <use xlink:href="#DejaVuSans-28" transform="translate(555.029297 0)"/>
      <use xlink:href="#DejaVuSans-48" transform="translate(594.042969 0)"/>
      <use xlink:href="#DejaVuSans-65" transform="translate(669.238281 0)"/>
      <use xlink:href="#DejaVuSans-64" transform="translate(730.761719 0)"/>
      <use xlink:href="#DejaVuSans-65" transform="translate(794.238281 0)"/>
      <use xlink:href="#DejaVuSans-66" transform="translate(855.761719 0)"/>
      <use xlink:href="#DejaVuSans-3a" transform="translate(887.341797 0)"/>
      <use xlink:href="#DejaVuSans-20" transform="translate(921.033203 0)"/>
      <use xlink:href="#DejaVuSans-31" transform="translate(952.820312 0)"/>
      <use xlink:href="#DejaVuSans-36" transform="translate(1016.443359 0)"/>
      <use xlink:href="#DejaVuSans-2e" transform="translate(1080.066406 0)"/>
      <use xlink:href="#DejaVuSans-32" transform="translate(1111.853516 0)"/>
      <use xlink:href="#DejaVuSans-35" transform="translate(1175.476562 0)"/>
      <use xlink:href="#DejaVuSans-29" transform="translate(1239.099609 0)"/>
     </g>
    </g>
    <g id="line2d_40">
     <path d="M 856.121525 452.225588 
L 866.121525 452.225588 
L 876.121525 452.225588 
" style="fill: none; stroke: #7f7f7f; stroke-opacity: 0.99; stroke-width: 0.2; stroke-linecap: square"/>
    </g>
    <g id="text_26">
     <!-- 10.05 GHz (Hedef: 16.25) -->
     <g transform="translate(884.121525 455.725588) scale(0.1 -0.1)">
      <use xlink:href="#DejaVuSans-31"/>
      <use xlink:href="#DejaVuSans-30" transform="translate(63.623047 0)"/>
      <use xlink:href="#DejaVuSans-2e" transform="translate(127.246094 0)"/>
      <use xlink:href="#DejaVuSans-30" transform="translate(159.033203 0)"/>
      <use xlink:href="#DejaVuSans-35" transform="translate(222.65625 0)"/>
      <use xlink:href="#DejaVuSans-20" transform="translate(286.279297 0)"/>
      <use xlink:href="#DejaVuSans-47" transform="translate(318.066406 0)"/>
      <use xlink:href="#DejaVuSans-48" transform="translate(395.556641 0)"/>
      <use xlink:href="#DejaVuSans-7a" transform="translate(470.751953 0)"/>
      <use xlink:href="#DejaVuSans-20" transform="translate(523.242188 0)"/>
      <use xlink:href="#DejaVuSans-28" transform="translate(555.029297 0)"/>
      <use xlink:href="#DejaVuSans-48" transform="translate(594.042969 0)"/>
      <use xlink:href="#DejaVuSans-65" transform="translate(669.238281 0)"/>
      <use xlink:href="#DejaVuSans-64" transform="translate(730.761719 0)"/>
      <use xlink:href="#DejaVuSans-65" transform="translate(794.238281 0)"/>
      <use xlink:href="#DejaVuSans-66" transform="translate(855.761719 0)"/>
      <use xlink:href="#DejaVuSans-3a" transform="translate(887.341797 0)"/>
      <use xlink:href="#DejaVuSans-20" transform="translate(921.033203 0)"/>
      <use xlink:href="#DejaVuSans-31" transform="translate(952.820312 0)"/>
      <use xlink:href="#DejaVuSans-36" transform="translate(1016.443359 0)"/>
      <use xlink:href="#DejaVuSans-2e" transform="translate(1080.066406 0)"/>
      <use xlink:href="#DejaVuSans-32" transform="translate(1111.853516 0)"/>
      <use xlink:href="#DejaVuSans-35" transform="translate(1175.476562 0)"/>
      <use xlink:href="#DejaVuSans-29" transform="translate(1239.099609 0)"/>
     </g>
    </g>
    <g id="line2d_41">
     <path d="M 856.121525 466.903713 
L 866.121525 466.903713 
L 876.121525 466.903713 
" style="fill: none; stroke: #bcbd22; stroke-opacity: 0.99; stroke-width: 0.2; stroke-linecap: square"/>
    </g>
    <g id="text_27">
     <!-- 10.10 GHz (Hedef: 16.25) -->
     <g transform="translate(884.121525 470.403713) scale(0.1 -0.1)">
      <use xlink:href="#DejaVuSans-31"/>
      <use xlink:href="#DejaVuSans-30" transform="translate(63.623047 0)"/>
      <use xlink:href="#DejaVuSans-2e" transform="translate(127.246094 0)"/>
      <use xlink:href="#DejaVuSans-31" transform="translate(159.033203 0)"/>
      <use xlink:href="#DejaVuSans-30" transform="translate(222.65625 0)"/>
      <use xlink:href="#DejaVuSans-20" transform="translate(286.279297 0)"/>
      <use xlink:href="#DejaVuSans-47" transform="translate(318.066406 0)"/>
      <use xlink:href="#DejaVuSans-48" transform="translate(395.556641 0)"/>
      <use xlink:href="#DejaVuSans-7a" transform="translate(470.751953 0)"/>
      <use xlink:href="#DejaVuSans-20" transform="translate(523.242188 0)"/>
      <use xlink:href="#DejaVuSans-28" transform="translate(555.029297 0)"/>
      <use xlink:href="#DejaVuSans-48" transform="translate(594.042969 0)"/>
      <use xlink:href="#DejaVuSans-65" transform="translate(669.238281 0)"/>
      <use xlink:href="#DejaVuSans-64" transform="translate(730.761719 0)"/>
      <use xlink:href="#DejaVuSans-65" transform="translate(794.238281 0)"/>
      <use xlink:href="#DejaVuSans-66" transform="translate(855.761719 0)"/>
      <use xlink:href="#DejaVuSans-3a" transform="translate(887.341797 0)"/>
      <use xlink:href="#DejaVuSans-20" transform="translate(921.033203 0)"/>
      <use xlink:href="#DejaVuSans-31" transform="translate(952.820312 0)"/>
      <use xlink:href="#DejaVuSans-36" transform="translate(1016.443359 0)"/>
      <use xlink:href="#DejaVuSans-2e" transform="translate(1080.066406 0)"/>
      <use xlink:href="#DejaVuSans-32" transform="translate(1111.853516 0)"/>
      <use xlink:href="#DejaVuSans-35" transform="translate(1175.476562 0)"/>
      <use xlink:href="#DejaVuSans-29" transform="translate(1239.099609 0)"/>
     </g>
    </g>
    <g id="line2d_42">
     <path d="M 856.121525 481.581838 
L 866.121525 481.581838 
L 876.121525 481.581838 
" style="fill: none; stroke: #17becf; stroke-opacity: 0.99; stroke-width: 0.2; stroke-linecap: square"/>
    </g>
    <g id="text_28">
     <!-- 10.15 GHz (Hedef: 16.0) -->
     <g transform="translate(884.121525 485.081838) scale(0.1 -0.1)">
      <use xlink:href="#DejaVuSans-31"/>
      <use xlink:href="#DejaVuSans-30" transform="translate(63.623047 0)"/>
      <use xlink:href="#DejaVuSans-2e" transform="translate(127.246094 0)"/>
      <use xlink:href="#DejaVuSans-31" transform="translate(159.033203 0)"/>
      <use xlink:href="#DejaVuSans-35" transform="translate(222.65625 0)"/>
      <use xlink:href="#DejaVuSans-20" transform="translate(286.279297 0)"/>
      <use xlink:href="#DejaVuSans-47" transform="translate(318.066406 0)"/>
      <use xlink:href="#DejaVuSans-48" transform="translate(395.556641 0)"/>
      <use xlink:href="#DejaVuSans-7a" transform="translate(470.751953 0)"/>
      <use xlink:href="#DejaVuSans-20" transform="translate(523.242188 0)"/>
      <use xlink:href="#DejaVuSans-28" transform="translate(555.029297 0)"/>
      <use xlink:href="#DejaVuSans-48" transform="translate(594.042969 0)"/>
      <use xlink:href="#DejaVuSans-65" transform="translate(669.238281 0)"/>
      <use xlink:href="#DejaVuSans-64" transform="translate(730.761719 0)"/>
      <use xlink:href="#DejaVuSans-65" transform="translate(794.238281 0)"/>
      <use xlink:href="#DejaVuSans-66" transform="translate(855.761719 0)"/>
      <use xlink:href="#DejaVuSans-3a" transform="translate(887.341797 0)"/>
      <use xlink:href="#DejaVuSans-20" transform="translate(921.033203 0)"/>
      <use xlink:href="#DejaVuSans-31" transform="translate(952.820312 0)"/>
      <use xlink:href="#DejaVuSans-36" transform="translate(1016.443359 0)"/>
      <use xlink:href="#DejaVuSans-2e" transform="translate(1080.066406 0)"/>
      <use xlink:href="#DejaVuSans-30" transform="translate(1111.853516 0)"/>
      <use xlink:href="#DejaVuSans-29" transform="translate(1175.476562 0)"/>
     </g>
    </g>
    <g id="line2d_43">
     <path d="M 856.121525 496.259963 
L 866.121525 496.259963 
L 876.121525 496.259963 
" style="fill: none; stroke: #1f77b4; stroke-opacity: 0.99; stroke-width: 0.2; stroke-linecap: square"/>
    </g>
    <g id="text_29">
     <!-- 10.20 GHz (Hedef: 16.0) -->
     <g transform="translate(884.121525 499.759963) scale(0.1 -0.1)">
      <use xlink:href="#DejaVuSans-31"/>
      <use xlink:href="#DejaVuSans-30" transform="translate(63.623047 0)"/>
      <use xlink:href="#DejaVuSans-2e" transform="translate(127.246094 0)"/>
      <use xlink:href="#DejaVuSans-32" transform="translate(159.033203 0)"/>
      <use xlink:href="#DejaVuSans-30" transform="translate(222.65625 0)"/>
      <use xlink:href="#DejaVuSans-20" transform="translate(286.279297 0)"/>
      <use xlink:href="#DejaVuSans-47" transform="translate(318.066406 0)"/>
      <use xlink:href="#DejaVuSans-48" transform="translate(395.556641 0)"/>
      <use xlink:href="#DejaVuSans-7a" transform="translate(470.751953 0)"/>
      <use xlink:href="#DejaVuSans-20" transform="translate(523.242188 0)"/>
      <use xlink:href="#DejaVuSans-28" transform="translate(555.029297 0)"/>
      <use xlink:href="#DejaVuSans-48" transform="translate(594.042969 0)"/>
      <use xlink:href="#DejaVuSans-65" transform="translate(669.238281 0)"/>
      <use xlink:href="#DejaVuSans-64" transform="translate(730.761719 0)"/>
      <use xlink:href="#DejaVuSans-65" transform="translate(794.238281 0)"/>
      <use xlink:href="#DejaVuSans-66" transform="translate(855.761719 0)"/>
      <use xlink:href="#DejaVuSans-3a" transform="translate(887.341797 0)"/>
      <use xlink:href="#DejaVuSans-20" transform="translate(921.033203 0)"/>
      <use xlink:href="#DejaVuSans-31" transform="translate(952.820312 0)"/>
      <use xlink:href="#DejaVuSans-36" transform="translate(1016.443359 0)"/>
      <use xlink:href="#DejaVuSans-2e" transform="translate(1080.066406 0)"/>
      <use xlink:href="#DejaVuSans-30" transform="translate(1111.853516 0)"/>
      <use xlink:href="#DejaVuSans-29" transform="translate(1175.476562 0)"/>
     </g>
    </g>
    <g id="line2d_44">
     <path d="M 856.121525 510.938088 
L 866.121525 510.938088 
L 876.121525 510.938088 
" style="fill: none; stroke: #ff7f0e; stroke-opacity: 0.99; stroke-width: 0.2; stroke-linecap: square"/>
    </g>
    <g id="text_30">
     <!-- 10.25 GHz (Hedef: 16.0) -->
     <g transform="translate(884.121525 514.438088) scale(0.1 -0.1)">
      <use xlink:href="#DejaVuSans-31"/>
      <use xlink:href="#DejaVuSans-30" transform="translate(63.623047 0)"/>
      <use xlink:href="#DejaVuSans-2e" transform="translate(127.246094 0)"/>
      <use xlink:href="#DejaVuSans-32" transform="translate(159.033203 0)"/>
      <use xlink:href="#DejaVuSans-35" transform="translate(222.65625 0)"/>
      <use xlink:href="#DejaVuSans-20" transform="translate(286.279297 0)"/>
      <use xlink:href="#DejaVuSans-47" transform="translate(318.066406 0)"/>
      <use xlink:href="#DejaVuSans-48" transform="translate(395.556641 0)"/>
      <use xlink:href="#DejaVuSans-7a" transform="translate(470.751953 0)"/>
      <use xlink:href="#DejaVuSans-20" transform="translate(523.242188 0)"/>
      <use xlink:href="#DejaVuSans-28" transform="translate(555.029297 0)"/>
      <use xlink:href="#DejaVuSans-48" transform="translate(594.042969 0)"/>
      <use xlink:href="#DejaVuSans-65" transform="translate(669.238281 0)"/>
      <use xlink:href="#DejaVuSans-64" transform="translate(730.761719 0)"/>
      <use xlink:href="#DejaVuSans-65" transform="translate(794.238281 0)"/>
      <use xlink:href="#DejaVuSans-66" transform="translate(855.761719 0)"/>
      <use xlink:href="#DejaVuSans-3a" transform="translate(887.341797 0)"/>
      <use xlink:href="#DejaVuSans-20" transform="translate(921.033203 0)"/>
      <use xlink:href="#DejaVuSans-31" transform="translate(952.820312 0)"/>
      <use xlink:href="#DejaVuSans-36" transform="translate(1016.443359 0)"/>
      <use xlink:href="#DejaVuSans-2e" transform="translate(1080.066406 0)"/>
      <use xlink:href="#DejaVuSans-30" transform="translate(1111.853516 0)"/>
      <use xlink:href="#DejaVuSans-29" transform="translate(1175.476562 0)"/>
     </g>
    </g>
    <g id="line2d_45">
     <path d="M 856.121525 525.616213 
L 866.121525 525.616213 
L 876.121525 525.616213 
" style="fill: none; stroke: #000000; stroke-width: 1.5; stroke-linecap: square"/>
     <defs>
      <path id="mc9b0faae35" d="M -0.025 0.05 
L 0 0.025 
L 0.025 0.05 
L 0.05 0.025 
L 0.025 0 
L 0.05 -0.025 
L 0.025 -0.05 
L 0 -0.025 
L -0.025 -0.05 
L -0.05 -0.025 
L -0.025 0 
L -0.05 0.025 
z
" style="stroke: #000000; stroke-linejoin: miter"/>
     </defs>
     <g>
      <use xlink:href="#mc9b0faae35" x="866.121525" y="525.616213" style="stroke: #000000; stroke-linejoin: miter"/>
     </g>
    </g>
    <g id="text_31">
     <!-- Optimum Target -->
     <g transform="translate(884.121525 529.116213) scale(0.1 -0.1)">
      <use xlink:href="#DejaVuSans-4f"/>
      <use xlink:href="#DejaVuSans-70" transform="translate(78.710938 0)"/>
      <use xlink:href="#DejaVuSans-74" transform="translate(142.1875 0)"/>
      <use xlink:href="#DejaVuSans-69" transform="translate(181.396484 0)"/>
      <use xlink:href="#DejaVuSans-6d" transform="translate(209.179688 0)"/>
      <use xlink:href="#DejaVuSans-75" transform="translate(306.591797 0)"/>
      <use xlink:href="#DejaVuSans-6d" transform="translate(369.970703 0)"/>
      <use xlink:href="#DejaVuSans-20" transform="translate(467.382812 0)"/>
      <use xlink:href="#DejaVuSans-54" transform="translate(499.169922 0)"/>
      <use xlink:href="#DejaVuSans-61" transform="translate(543.753906 0)"/>
      <use xlink:href="#DejaVuSans-72" transform="translate(605.033203 0)"/>
      <use xlink:href="#DejaVuSans-67" transform="translate(644.396484 0)"/>
      <use xlink:href="#DejaVuSans-65" transform="translate(707.873047 0)"/>
      <use xlink:href="#DejaVuSans-74" transform="translate(769.396484 0)"/>
     </g>
    </g>
   </g>
   <g id="patch_28">
    <path d="M 409.395601 776.34573 
L 410.568278 774.580755 
L 410.351464 776.34573 
L 409.724011 776.508555 
z
" clip-path="url(#p68d14872ea)" style="fill: #ff0000; opacity: 0.6; stroke: #ff0000; stroke-linejoin: miter"/>
   </g>
   <g id="line2d_46">
    <path d="M 409.395601 776.34573 
L 410.568278 774.580755 
L 410.351464 776.34573 
L 409.724011 776.508555 
L 409.395601 776.34573 
" clip-path="url(#p68d14872ea)" style="fill: none; stroke-dasharray: 0.74,0.32; stroke-dashoffset: 0; stroke: #000000; stroke-width: 0.2"/>
   </g>
   <g id="line2d_47">
    <path d="M 410.081345 775.81168 
" clip-path="url(#p68d14872ea)" style="fill: none; stroke: #000000; stroke-width: 1.5; stroke-linecap: square"/>
    <g clip-path="url(#p68d14872ea)">
     <use xlink:href="#mc9b0faae35" x="410.081345" y="775.81168" style="stroke: #000000; stroke-linejoin: miter"/>
    </g>
   </g>
  </g>
 </g>
 <defs>
  <clipPath id="p68d14872ea">
   <rect x="23.103125" y="34.3575" width="807.861176" height="807.861176"/>
  </clipPath>
  <clipPath id="pe7fac61de9">
   <path d="M 427.033713 834.298469 
C 532.056894 834.298469 632.792736 792.572317 707.055339 718.309714 
C 781.317942 644.047111 823.044094 543.311269 823.044094 438.288088 
C 823.044094 333.264908 781.317942 232.529066 707.055339 158.266463 
C 632.792736 84.00386 532.056894 42.277708 427.033713 42.277708 
C 322.010533 42.277708 221.274691 84.00386 147.012088 158.266463 
C 72.749485 232.529066 31.023333 333.264908 31.023333 438.288088 
C 31.023333 543.311269 72.749485 644.047111 147.012088 718.309714 
C 221.274691 792.572317 322.010533 834.298469 427.033713 834.298469 
z
"/>
  </clipPath>
 </defs>
</svg>
