<?xml version="1.0" encoding="utf-8" standalone="no"?>
<!DOCTYPE svg PUBLIC "-//W3C//DTD SVG 1.1//EN"
  "http://www.w3.org/Graphics/SVG/1.1/DTD/svg11.dtd">
<svg xmlns:xlink="http://www.w3.org/1999/xlink" width="1016.771525pt" height="855.136698pt" viewBox="0 0 1016.771525 855.136698" xmlns="http://www.w3.org/2000/svg" version="1.1">
 <metadata>
  <rdf:RDF xmlns:dc="http://purl.org/dc/elements/1.1/" xmlns:cc="http://creativecommons.org/ns#" xmlns:rdf="http://www.w3.org/1999/02/22-rdf-syntax-ns#">
   <cc:Work>
    <dc:type rdf:resource="http://purl.org/dc/dcmitype/StillImage"/>
    <dc:date>2026-02-16T01:43:25.859025</dc:date>
    <dc:format>image/svg+xml</dc:format>
    <dc:creator>
     <cc:Agent>
      <dc:title>Matplotlib v3.10.8, https://matplotlib.org/</dc:title>
     </cc:Agent>
    </dc:creator>
   </cc:Work>
  </rdf:RDF>
 </metadata>
 <defs>
  <style type="text/css">*{stroke-linejoin: round; stroke-linecap: butt}</style>
 </defs>
 <g id="figure_1">
  <g id="patch_1">
   <path d="M 0 855.136698 
L 1016.771525 855.136698 
L 1016.771525 0 
L 0 0 
z
" style="fill: #ffffff"/>
  </g>
  <g id="axes_1">
   <g id="patch_2">
    <path d="M 23.103125 842.218676 
L 830.964301 842.218676 
L 830.964301 34.3575 
L 23.103125 34.3575 
z
" style="fill: #ffffff"/>
   </g>
   <g id="patch_3">
    <path d="M 427.033713 834.298469 
C 532.056894 834.298469 632.792736 792.572317 707.055339 718.309714 
C 781.317942 644.047111 823.044094 543.311269 823.044094 438.288088 
C 823.044094 333.264908 781.317942 232.529066 707.055339 158.266463 
C 632.792736 84.00386 532.056894 42.277708 427.033713 42.277708 
C 322.010533 42.277708 221.274691 84.00386 147.012088 158.266463 
C 72.749485 232.529066 31.023333 333.264908 31.023333 438.288088 
C 31.023333 543.311269 72.749485 644.047111 147.012088 718.309714 
C 221.274691 792.572317 322.010533 834.298469 427.033713 834.298469 
L 427.033713 834.298469 
z
" clip-path="url(#pd3849926f5)" style="fill: none; stroke: #000000; stroke-linejoin: miter"/>
   </g>
   <g id="patch_4">
    <path d="M 493.035443 768.296739 
C 580.55476 768.296739 664.501295 733.524946 726.386798 671.639443 
C 788.272301 609.75394 823.044094 525.807405 823.044094 438.288088 
C 823.044094 350.768771 788.272301 266.822236 726.386798 204.936734 
C 664.501295 143.051231 580.55476 108.279438 493.035443 108.279438 
C 405.516126 108.279438 321.569591 143.051231 259.684089 204.936734 
C 197.798586 266.822236 163.026793 350.768771 163.026793 438.288088 
C 163.026793 525.807405 197.798586 609.75394 259.684089 671.639443 
C 321.569591 733.524946 405.516126 768.296739 493.035443 768.296739 
L 493.035443 768.296739 
z
" clip-path="url(#pd014a3e563)" style="fill: none; stroke: #808080; stroke-linejoin: miter"/>
   </g>
   <g id="patch_5">
    <path d="M 559.037173 702.295009 
C 629.052627 702.295009 696.209855 674.477574 745.718257 624.969172 
C 795.226659 575.46077 823.044094 508.303542 823.044094 438.288088 
C 823.044094 368.272635 795.226659 301.115407 745.718257 251.607005 
C 696.209855 202.098602 629.052627 174.281168 559.037173 174.281168 
C 489.02172 174.281168 421.864492 202.098602 372.35609 251.607005 
C 322.847688 301.115407 295.030253 368.272635 295.030253 438.288088 
C 295.030253 508.303542 322.847688 575.46077 372.35609 624.969172 
C 421.864492 674.477574 489.02172 702.295009 559.037173 702.295009 
L 559.037173 702.295009 
z
" clip-path="url(#pd014a3e563)" style="fill: none; stroke: #808080; stroke-linejoin: miter"/>
   </g>
   <g id="patch_6">
    <path d="M 625.038904 636.293279 
C 677.550494 636.293279 727.918415 615.430203 765.049716 578.298901 
C 802.181018 541.167599 823.044094 490.799679 823.044094 438.288088 
C 823.044094 385.776498 802.181018 335.408577 765.049716 298.277275 
C 727.918415 261.145974 677.550494 240.282898 625.038904 240.282898 
C 572.527313 240.282898 522.159392 261.145974 485.028091 298.277275 
C 447.896789 335.408577 427.033713 385.776498 427.033713 438.288088 
C 427.033713 490.799679 447.896789 541.167599 485.028091 578.298901 
C 522.159392 615.430203 572.527313 636.293279 625.038904 636.293279 
L 625.038904 636.293279 
z
" clip-path="url(#pd014a3e563)" style="fill: none; stroke: #808080; stroke-linejoin: miter"/>
   </g>
   <g id="patch_7">
    <path d="M 691.040634 570.291548 
C 726.048361 570.291548 759.626974 556.382831 784.381176 531.62863 
C 809.135377 506.874429 823.044094 473.295815 823.044094 438.288088 
C 823.044094 403.280361 809.135377 369.701747 784.381176 344.947546 
C 759.626974 320.193345 726.048361 306.284628 691.040634 306.284628 
C 656.032907 306.284628 622.454293 320.193345 597.700092 344.947546 
C 572.945891 369.701747 559.037173 403.280361 559.037173 438.288088 
C 559.037173 473.295815 572.945891 506.874429 597.700092 531.62863 
C 622.454293 556.382831 656.032907 570.291548 691.040634 570.291548 
L 691.040634 570.291548 
z
" clip-path="url(#pd014a3e563)" style="fill: none; stroke: #808080; stroke-linejoin: miter"/>
   </g>
   <g id="patch_8">
    <path d="M 757.042364 504.289818 
C 774.546227 504.289818 791.335534 497.33546 803.712635 484.958359 
C 816.089735 472.581259 823.044094 455.791952 823.044094 438.288088 
C 823.044094 420.784225 816.089735 403.994918 803.712635 391.617817 
C 791.335534 379.240717 774.546227 372.286358 757.042364 372.286358 
C 739.5385 372.286358 722.749193 379.240717 710.372093 391.617817 
C 697.994992 403.994918 691.040634 420.784225 691.040634 438.288088 
C 691.040634 455.791952 697.994992 472.581259 710.372093 484.958359 
C 722.749193 497.33546 739.5385 504.289818 757.042364 504.289818 
L 757.042364 504.289818 
z
" clip-path="url(#pd014a3e563)" style="fill: none; stroke: #808080; stroke-linejoin: miter"/>
   </g>
   <g id="patch_9">
    <path d="M 823.044094 438.288088 
C 1348.159997 438.288088 1851.839206 229.657329 2223.152222 -141.655687 
C 2594.465237 -512.968703 2803.095997 -1016.647912 2803.095997 -1541.763815 
C 2803.095997 -2066.879718 2594.465237 -2570.558927 2223.152222 -2941.871943 
C 1851.839206 -3313.184958 1348.159997 -3521.815718 823.044094 -3521.815718 
C 297.928191 -3521.815718 -205.751018 -3313.184958 -577.064034 -2941.871943 
C -948.37705 -2570.558927 -1157.007809 -2066.879718 -1157.007809 -1541.763815 
C -1157.007809 -1016.647912 -948.37705 -512.968703 -577.064034 -141.655687 
C -205.751018 229.657329 297.928191 438.288088 823.044094 438.288088 
L 823.044094 438.288088 
z
" clip-path="url(#pd014a3e563)" style="fill: none; stroke: #808080; stroke-linejoin: miter"/>
   </g>
   <g id="patch_10">
    <path d="M 823.044094 438.288088 
C 1033.090455 438.288088 1234.562139 354.835784 1383.087345 206.310578 
C 1531.612551 57.785372 1615.064855 -143.686312 1615.064855 -353.732673 
C 1615.064855 -563.779034 1531.612551 -765.250718 1383.087345 -913.775924 
C 1234.562139 -1062.30113 1033.090455 -1145.753434 823.044094 -1145.753434 
C 612.997733 -1145.753434 411.526049 -1062.30113 263.000843 -913.775924 
C 114.475636 -765.250718 31.023333 -563.779034 31.023333 -353.732673 
C 31.023333 -143.686312 114.475636 57.785372 263.000843 206.310578 
C 411.526049 354.835784 612.997733 438.288088 823.044094 438.288088 
L 823.044094 438.288088 
z
" clip-path="url(#pd014a3e563)" style="fill: none; stroke: #808080; stroke-linejoin: miter"/>
   </g>
   <g id="patch_11">
    <path d="M 823.044094 438.288088 
C 928.067274 438.288088 1028.803116 396.561936 1103.065719 322.299333 
C 1177.328323 248.03673 1219.054474 147.300888 1219.054474 42.277708 
C 1219.054474 -62.745473 1177.328323 -163.481315 1103.065719 -237.743918 
C 1028.803116 -312.006521 928.067274 -353.732673 823.044094 -353.732673 
C 718.020913 -353.732673 617.285071 -312.006521 543.022468 -237.743918 
C 468.759865 -163.481315 427.033713 -62.745473 427.033713 42.277708 
C 427.033713 147.300888 468.759865 248.03673 543.022468 322.299333 
C 617.285071 396.561936 718.020913 438.288088 823.044094 438.288088 
L 823.044094 438.288088 
z
" clip-path="url(#pd014a3e563)" style="fill: none; stroke: #808080; stroke-linejoin: miter"/>
   </g>
   <g id="patch_12">
    <path d="M 823.044094 438.288088 
C 875.555684 438.288088 925.923605 417.425012 963.054907 380.293711 
C 1000.186208 343.162409 1021.049284 292.794488 1021.049284 240.282898 
C 1021.049284 187.771308 1000.186208 137.403387 963.054907 100.272085 
C 925.923605 63.140784 875.555684 42.277708 823.044094 42.277708 
C 770.532504 42.277708 720.164583 63.140784 683.033281 100.272085 
C 645.901979 137.403387 625.038904 187.771308 625.038904 240.282898 
C 625.038904 292.794488 645.901979 343.162409 683.033281 380.293711 
C 720.164583 417.425012 770.532504 438.288088 823.044094 438.288088 
L 823.044094 438.288088 
z
" clip-path="url(#pd014a3e563)" style="fill: none; stroke: #808080; stroke-linejoin: miter"/>
   </g>
   <g id="patch_13">
    <path d="M 823.044094 438.288088 
C 844.04873 438.288088 864.195898 429.942858 879.048419 415.090337 
C 893.90094 400.237817 902.24617 380.090648 902.24617 359.086012 
C 902.24617 338.081376 893.90094 317.934208 879.048419 303.081687 
C 864.195898 288.229166 844.04873 279.883936 823.044094 279.883936 
C 802.039458 279.883936 781.892289 288.229166 767.039769 303.081687 
C 752.187248 317.934208 743.842018 338.081376 743.842018 359.086012 
C 743.842018 380.090648 752.187248 400.237817 767.039769 415.090337 
C 781.892289 429.942858 802.039458 438.288088 823.044094 438.288088 
L 823.044094 438.288088 
z
" clip-path="url(#pd014a3e563)" style="fill: none; stroke: #808080; stroke-linejoin: miter"/>
   </g>
   <g id="patch_14">
    <path d="M 823.044094 438.288088 
C 297.928191 438.288088 -205.751018 646.918848 -577.064034 1018.231864 
C -948.37705 1389.544879 -1157.007809 1893.224088 -1157.007809 2418.339991 
C -1157.007809 2943.455894 -948.37705 3447.135103 -577.064034 3818.448119 
C -205.751018 4189.761135 297.928191 4398.391894 823.044094 4398.391894 
C 1348.159997 4398.391894 1851.839206 4189.761135 2223.152222 3818.448119 
C 2594.465237 3447.135103 2803.095997 2943.455894 2803.095997 2418.339991 
C 2803.095997 1893.224088 2594.465237 1389.544879 2223.152222 1018.231864 
C 1851.839206 646.918848 1348.159997 438.288088 823.044094 438.288088 
L 823.044094 438.288088 
z
" clip-path="url(#pd014a3e563)" style="fill: none; stroke: #808080; stroke-linejoin: miter"/>
   </g>
   <g id="patch_15">
    <path d="M 823.044094 438.288088 
C 612.997733 438.288088 411.526049 521.740392 263.000843 670.265598 
C 114.475636 818.790805 31.023333 1020.262488 31.023333 1230.308849 
C 31.023333 1440.355211 114.475636 1641.826894 263.000843 1790.352101 
C 411.526049 1938.877307 612.997733 2022.329611 823.044094 2022.329611 
C 1033.090455 2022.329611 1234.562139 1938.877307 1383.087345 1790.352101 
C 1531.612551 1641.826894 1615.064855 1440.355211 1615.064855 1230.308849 
C 1615.064855 1020.262488 1531.612551 818.790805 1383.087345 670.265598 
C 1234.562139 521.740392 1033.090455 438.288088 823.044094 438.288088 
L 823.044094 438.288088 
z
" clip-path="url(#pd014a3e563)" style="fill: none; stroke: #808080; stroke-linejoin: miter"/>
   </g>
   <g id="patch_16">
    <path d="M 823.044094 438.288088 
C 718.020913 438.288088 617.285071 480.01424 543.022468 554.276843 
C 468.759865 628.539446 427.033713 729.275288 427.033713 834.298469 
C 427.033713 939.321649 468.759865 1040.057491 543.022468 1114.320094 
C 617.285071 1188.582698 718.020913 1230.308849 823.044094 1230.308849 
C 928.067274 1230.308849 1028.803116 1188.582698 1103.065719 1114.320094 
C 1177.328323 1040.057491 1219.054474 939.321649 1219.054474 834.298469 
C 1219.054474 729.275288 1177.328323 628.539446 1103.065719 554.276843 
C 1028.803116 480.01424 928.067274 438.288088 823.044094 438.288088 
L 823.044094 438.288088 
z
" clip-path="url(#pd014a3e563)" style="fill: none; stroke: #808080; stroke-linejoin: miter"/>
   </g>
   <g id="patch_17">
    <path d="M 823.044094 438.288088 
C 770.532504 438.288088 720.164583 459.151164 683.033281 496.282466 
C 645.901979 533.413767 625.038904 583.781688 625.038904 636.293279 
C 625.038904 688.804869 645.901979 739.17279 683.033281 776.304091 
C 720.164583 813.435393 770.532504 834.298469 823.044094 834.298469 
C 875.555684 834.298469 925.923605 813.435393 963.054907 776.304091 
C 1000.186208 739.17279 1021.049284 688.804869 1021.049284 636.293279 
C 1021.049284 583.781688 1000.186208 533.413767 963.054907 496.282466 
C 925.923605 459.151164 875.555684 438.288088 823.044094 438.288088 
L 823.044094 438.288088 
z
" clip-path="url(#pd014a3e563)" style="fill: none; stroke: #808080; stroke-linejoin: miter"/>
   </g>
   <g id="patch_18">
    <path d="M 823.044094 438.288088 
C 802.039458 438.288088 781.892289 446.633319 767.039769 461.485839 
C 752.187248 476.33836 743.842018 496.485528 743.842018 517.490164 
C 743.842018 538.4948 752.187248 558.641969 767.039769 573.494489 
C 781.892289 588.34701 802.039458 596.69224 823.044094 596.69224 
C 844.04873 596.69224 864.195898 588.34701 879.048419 573.494489 
C 893.90094 558.641969 902.24617 538.4948 902.24617 517.490164 
C 902.24617 496.485528 893.90094 476.33836 879.048419 461.485839 
C 864.195898 446.633319 844.04873 438.288088 823.044094 438.288088 
L 823.044094 438.288088 
z
" clip-path="url(#pd014a3e563)" style="fill: none; stroke: #808080; stroke-linejoin: miter"/>
   </g>
   <g id="patch_19">
    <path d="M 427.033713 834.298469 
C 532.056894 834.298469 632.792736 792.572317 707.055339 718.309714 
C 781.317942 644.047111 823.044094 543.311269 823.044094 438.288088 
C 823.044094 333.264908 781.317942 232.529066 707.055339 158.266463 
C 632.792736 84.00386 532.056894 42.277708 427.033713 42.277708 
C 322.010533 42.277708 221.274691 84.00386 147.012088 158.266463 
C 72.749485 232.529066 31.023333 333.264908 31.023333 438.288088 
C 31.023333 543.311269 72.749485 644.047111 147.012088 718.309714 
C 221.274691 792.572317 322.010533 834.298469 427.033713 834.298469 
L 427.033713 834.298469 
z
" clip-path="url(#pd014a3e563)" style="fill: none; stroke: #000000; stroke-linejoin: miter"/>
   </g>
   <g id="patch_20">
    <path d="M 625.038904 636.293279 
C 677.550494 636.293279 727.918415 615.430203 765.049716 578.298901 
C 802.181018 541.167599 823.044094 490.799679 823.044094 438.288088 
C 823.044094 385.776498 802.181018 335.408577 765.049716 298.277275 
C 727.918415 261.145974 677.550494 240.282898 625.038904 240.282898 
C 572.527313 240.282898 522.159392 261.145974 485.028091 298.277275 
C 447.896789 335.408577 427.033713 385.776498 427.033713 438.288088 
C 427.033713 490.799679 447.896789 541.167599 485.028091 578.298901 
C 522.159392 615.430203 572.527313 636.293279 625.038904 636.293279 
L 625.038904 636.293279 
z
" clip-path="url(#pd014a3e563)" style="fill: none; stroke: #000000; stroke-linejoin: miter"/>
   </g>
   <g id="patch_21">
    <path d="M 823.044094 438.288088 
C 928.067274 438.288088 1028.803116 396.561936 1103.065719 322.299333 
C 1177.328323 248.03673 1219.054474 147.300888 1219.054474 42.277708 
C 1219.054474 -62.745473 1177.328323 -163.481315 1103.065719 -237.743918 
C 1028.803116 -312.006521 928.067274 -353.732673 823.044094 -353.732673 
C 718.020913 -353.732673 617.285071 -312.006521 543.022468 -237.743918 
C 468.759865 -163.481315 427.033713 -62.745473 427.033713 42.277708 
C 427.033713 147.300888 468.759865 248.03673 543.022468 322.299333 
C 617.285071 396.561936 718.020913 438.288088 823.044094 438.288088 
L 823.044094 438.288088 
z
" clip-path="url(#pd014a3e563)" style="fill: none; stroke: #000000; stroke-linejoin: miter"/>
   </g>
   <g id="patch_22">
    <path d="M 823.044094 438.288088 
C 718.020913 438.288088 617.285071 480.01424 543.022468 554.276843 
C 468.759865 628.539446 427.033713 729.275288 427.033713 834.298469 
C 427.033713 939.321649 468.759865 1040.057491 543.022468 1114.320094 
C 617.285071 1188.582698 718.020913 1230.308849 823.044094 1230.308849 
C 928.067274 1230.308849 1028.803116 1188.582698 1103.065719 1114.320094 
C 1177.328323 1040.057491 1219.054474 939.321649 1219.054474 834.298469 
C 1219.054474 729.275288 1177.328323 628.539446 1103.065719 554.276843 
C 1028.803116 480.01424 928.067274 438.288088 823.044094 438.288088 
L 823.044094 438.288088 
z
" clip-path="url(#pd014a3e563)" style="fill: none; stroke: #000000; stroke-linejoin: miter"/>
   </g>
   <g id="matplotlib.axis_1"/>
   <g id="matplotlib.axis_2"/>
   <g id="line2d_1">
    <path d="M 23.103125 438.288088 
L 830.964301 438.288088 
" clip-path="url(#pd014a3e563)" style="fill: none; stroke: #000000; stroke-width: 0.1; stroke-linecap: square"/>
   </g>
   <g id="line2d_2">
    <path d="M 823.044094 842.218676 
L 823.044094 34.3575 
" clip-path="url(#pd014a3e563)" style="fill: none; stroke: #000000; stroke-width: 1.5; stroke-linecap: square"/>
   </g>
   <g id="line2d_3"/>
   <g id="line2d_4"/>
   <g id="line2d_5">
    <path d="M 146.799995 467.264458 
L 146.861764 467.197412 
L 146.92881 467.120872 
L 147.15446 467.038807 
L 161.383657 462.401725 
L 166.246389 460.409905 
L 170.687663 462.823184 
L 176.871527 467.264458 
L 179.747692 473.080734 
L 183.584269 484.602337 
L 184.372277 486.582037 
L 183.579177 488.566829 
L 178.850502 499.18615 
L 176.54738 505.899617 
L 171.026327 510.679555 
L 166.246389 515.091067 
L 157.915654 514.230352 
L 154.72487 513.695677 
L 146.92881 512.790591 
L 143.511185 509.317241 
L 140.480701 505.899617 
L 139.498492 498.469299 
L 138.815925 494.694922 
L 137.857354 486.582037 
L 140.984048 480.637275 
L 146.687414 467.505853 
L 146.799995 467.264458 
" clip-path="url(#pd3849926f5)" style="fill: none; stroke: #1f77b4; stroke-opacity: 0.99; stroke-width: 0.2; stroke-linecap: square"/>
   </g>
   <g id="line2d_6">
    <path d="M 143.547598 486.582037 
L 144.894752 484.547979 
L 146.92881 480.842766 
L 155.566646 475.902294 
L 163.138156 470.372691 
L 166.246389 468.1966 
L 175.248632 477.579794 
L 181.667883 486.582037 
L 180.423202 491.722804 
L 178.228573 498.564221 
L 176.786556 505.899617 
L 171.146651 510.799879 
L 166.246389 515.414219 
L 158.811347 513.334659 
L 152.078211 511.049017 
L 146.92881 509.467627 
L 145.357068 507.471358 
L 144.202199 505.899617 
L 144.17306 503.143867 
L 143.580632 489.930215 
L 143.547598 486.582037 
" clip-path="url(#pd3849926f5)" style="fill: none; stroke: #ff7f0e; stroke-opacity: 0.99; stroke-width: 0.2; stroke-linecap: square"/>
   </g>
   <g id="line2d_7">
    <path d="M 156.718558 486.582037 
L 162.614922 482.95057 
L 166.246389 480.156127 
L 170.169726 482.658701 
L 174.666951 486.582037 
L 174.134107 494.469755 
L 174.391569 497.754437 
L 173.973677 505.899617 
L 169.772011 509.425238 
L 166.246389 512.662417 
L 161.839165 510.306841 
L 154.41347 505.899617 
L 155.429418 497.399009 
L 155.698807 495.352034 
L 156.718558 486.582037 
" clip-path="url(#pd3849926f5)" style="fill: none; stroke: #2ca02c; stroke-opacity: 0.99; stroke-width: 0.2; stroke-linecap: square"/>
   </g>
   <g id="line2d_8">
    <path d="M 160.942396 486.582037 
L 164.131038 484.466685 
L 166.246389 482.808302 
L 168.986931 483.841496 
L 173.980506 486.582037 
L 175.92347 496.222536 
L 175.922537 496.258185 
L 177.246565 505.899617 
L 171.154792 510.80802 
L 166.246389 515.194273 
L 161.309471 510.836535 
L 155.915212 505.899617 
L 157.949369 497.602596 
L 159.052265 493.776162 
L 160.942396 486.582037 
" clip-path="url(#pd3849926f5)" style="fill: none; stroke: #d62728; stroke-opacity: 0.99; stroke-width: 0.2; stroke-linecap: square"/>
   </g>
   <g id="line2d_9">
    <path d="M 159.525946 505.899617 
L 161.191755 500.844982 
L 166.246389 487.748927 
L 174.271913 497.874093 
L 177.533349 505.899617 
L 171.053695 510.706922 
L 166.246389 514.833028 
L 162.39667 509.749336 
L 159.525946 505.899617 
" clip-path="url(#pd3849926f5)" style="fill: none; stroke: #9467bd; stroke-opacity: 0.99; stroke-width: 0.2; stroke-linecap: square"/>
   </g>
   <g id="line2d_10">
    <path d="M 163.645546 505.899617 
L 164.482412 504.13564 
L 166.246389 500.296174 
L 169.716871 502.429135 
L 172.665972 505.899617 
L 168.895484 508.548711 
L 166.246389 510.864868 
L 164.515738 507.630268 
L 163.645546 505.899617 
" clip-path="url(#pd3849926f5)" style="fill: none; stroke: #8c564b; stroke-opacity: 0.99; stroke-width: 0.2; stroke-linecap: square"/>
   </g>
   <g id="line2d_11">
    <path d="M 160.612012 505.899617 
L 162.64575 502.298977 
L 166.246389 494.921634 
L 175.206326 496.93968 
L 178.172461 498.508109 
L 185.563969 501.269469 
L 186.472258 504.991328 
L 186.613246 505.899617 
L 186.338252 506.673899 
L 185.563969 509.413088 
L 176.004245 515.657472 
L 174.377535 517.08605 
L 166.246389 524.070808 
L 161.820084 510.325922 
L 160.612012 505.899617 
" clip-path="url(#pd3849926f5)" style="fill: none; stroke: #e377c2; stroke-opacity: 0.99; stroke-width: 0.2; stroke-linecap: square"/>
   </g>
   <g id="line2d_12">
    <path d="M 164.422422 505.899617 
L 165.181358 504.834586 
L 166.246389 503.054915 
L 169.083214 503.062792 
L 183.179526 505.899617 
L 172.016202 511.669429 
L 166.246389 516.928863 
L 164.642954 507.503052 
L 164.422422 505.899617 
" clip-path="url(#pd3849926f5)" style="fill: none; stroke: #7f7f7f; stroke-opacity: 0.99; stroke-width: 0.2; stroke-linecap: square"/>
   </g>
   <g id="line2d_13">
    <path d="M 162.091045 505.899617 
L 163.903523 503.556751 
L 166.246389 499.893894 
L 173.425842 498.720164 
L 178.206017 498.541664 
L 185.563969 496.911543 
L 188.627979 502.835607 
L 189.88463 505.899617 
L 189.277035 509.612683 
L 188.206509 522.574656 
L 187.830406 525.217196 
L 186.902541 526.555768 
L 185.563969 528.924396 
L 181.709876 529.071289 
L 170.850966 529.821773 
L 166.246389 529.986311 
L 164.162302 527.301283 
L 162.257044 525.217196 
L 162.280028 521.250835 
L 162.067996 510.07801 
L 162.091045 505.899617 
" clip-path="url(#pd3849926f5)" style="fill: none; stroke: #bcbd22; stroke-opacity: 0.99; stroke-width: 0.2; stroke-linecap: square"/>
   </g>
   <g id="line2d_14">
    <path d="M 169.940627 505.899617 
L 182.094287 502.429935 
L 185.563969 500.986255 
L 187.598596 503.86499 
L 188.791149 505.899617 
L 188.680682 509.01633 
L 189.269429 521.511736 
L 189.157492 525.217196 
L 187.773349 527.426576 
L 185.563969 532.01408 
L 179.828282 530.952883 
L 170.058806 529.029612 
L 166.246389 528.310004 
L 165.247381 526.216204 
L 164.77954 525.217196 
L 164.941458 523.912264 
L 166.246389 511.475668 
L 168.785049 508.438276 
L 169.940627 505.899617 
" clip-path="url(#pd3849926f5)" style="fill: none; stroke: #17becf; stroke-opacity: 0.99; stroke-width: 0.2; stroke-linecap: square"/>
   </g>
   <g id="line2d_15">
    <path d="M 165.300567 505.899617 
L 165.664648 505.317875 
L 166.246389 504.390741 
L 168.999437 503.146569 
L 178.784231 499.119879 
L 185.563969 495.568299 
L 190.536066 500.92752 
L 194.466369 505.899617 
L 195.592507 515.188658 
L 195.603175 515.938823 
L 196.532013 525.217196 
L 192.69157 532.344797 
L 189.694547 540.404197 
L 187.904588 544.534776 
L 186.657758 545.628565 
L 185.563969 546.609895 
L 183.639534 546.45921 
L 166.618057 544.534776 
L 166.35195 544.429215 
L 166.246389 544.37501 
L 161.905378 529.558208 
L 160.785931 525.217196 
L 161.898983 520.869789 
L 164.995378 507.150628 
L 165.300567 505.899617 
" clip-path="url(#pd3849926f5)" style="fill: none; stroke: #1f77b4; stroke-opacity: 0.99; stroke-width: 0.2; stroke-linecap: square"/>
   </g>
   <g id="line2d_16">
    <path d="M 171.709291 505.899617 
L 181.019585 501.355233 
L 185.563969 498.684767 
L 189.467946 501.995639 
L 193.600075 505.899617 
L 196.075602 514.705563 
L 196.397642 516.73329 
L 198.366955 525.217196 
L 194.068917 533.722144 
L 192.930036 537.168709 
L 189.982569 544.534776 
L 187.598629 546.569436 
L 185.563969 548.333702 
L 182.295364 547.803381 
L 166.60666 544.895046 
L 166.246389 544.83422 
L 166.089339 544.691826 
L 165.935784 544.534776 
L 165.858563 544.146949 
L 162.614017 528.849569 
L 161.913839 525.217196 
L 163.086982 522.057789 
L 166.246389 511.704446 
L 169.274842 508.928069 
L 171.709291 505.899617 
" clip-path="url(#pd3849926f5)" style="fill: none; stroke: #ff7f0e; stroke-opacity: 0.99; stroke-width: 0.2; stroke-linecap: square"/>
   </g>
   <g id="patch_23">
    <path d="M 23.103125 842.218676 
L 23.103125 34.3575 
" style="fill: none"/>
   </g>
   <g id="patch_24">
    <path d="M 830.964301 842.218676 
L 830.964301 34.3575 
" style="fill: none"/>
   </g>
   <g id="patch_25">
    <path d="M 23.103125 842.218676 
L 830.964301 842.218676 
" style="fill: none"/>
   </g>
   <g id="patch_26">
    <path d="M 23.103125 34.3575 
L 830.964301 34.3575 
" style="fill: none"/>
   </g>
   <g id="text_1">
    <!-- 0.2 -->
    <g transform="translate(143.163564 434.327984) scale(0.1 -0.1)">
     <defs>
      <path id="DejaVuSans-30" d="M 2034 4250 
Q 1547 4250 1301 3770 
Q 1056 3291 1056 2328 
Q 1056 1369 1301 889 
Q 1547 409 2034 409 
Q 2525 409 2770 889 
Q 3016 1369 3016 2328 
Q 3016 3291 2770 3770 
Q 2525 4250 2034 4250 
z
M 2034 4750 
Q 2819 4750 3233 4129 
Q 3647 3509 3647 2328 
Q 3647 1150 3233 529 
Q 2819 -91 2034 -91 
Q 1250 -91 836 529 
Q 422 1150 422 2328 
Q 422 3509 836 4129 
Q 1250 4750 2034 4750 
z
" transform="scale(0.015625)"/>
      <path id="DejaVuSans-2e" d="M 684 794 
L 1344 794 
L 1344 0 
L 684 0 
L 684 794 
z
" transform="scale(0.015625)"/>
      <path id="DejaVuSans-32" d="M 1228 531 
L 3431 531 
L 3431 0 
L 469 0 
L 469 531 
Q 828 903 1448 1529 
Q 2069 2156 2228 2338 
Q 2531 2678 2651 2914 
Q 2772 3150 2772 3378 
Q 2772 3750 2511 3984 
Q 2250 4219 1831 4219 
Q 1534 4219 1204 4116 
Q 875 4013 500 3803 
L 500 4441 
Q 881 4594 1212 4672 
Q 1544 4750 1819 4750 
Q 2544 4750 2975 4387 
Q 3406 4025 3406 3419 
Q 3406 3131 3298 2873 
Q 3191 2616 2906 2266 
Q 2828 2175 2409 1742 
Q 1991 1309 1228 531 
z
" transform="scale(0.015625)"/>
     </defs>
     <use xlink:href="#DejaVuSans-30"/>
     <use xlink:href="#DejaVuSans-2e" transform="translate(63.623047 0)"/>
     <use xlink:href="#DejaVuSans-32" transform="translate(95.410156 0)"/>
    </g>
   </g>
   <g id="text_2">
    <!-- 0.5 -->
    <g transform="translate(275.167024 434.327984) scale(0.1 -0.1)">
     <defs>
      <path id="DejaVuSans-35" d="M 691 4666 
L 3169 4666 
L 3169 4134 
L 1269 4134 
L 1269 2991 
Q 1406 3038 1543 3061 
Q 1681 3084 1819 3084 
Q 2600 3084 3056 2656 
Q 3513 2228 3513 1497 
Q 3513 744 3044 326 
Q 2575 -91 1722 -91 
Q 1428 -91 1123 -41 
Q 819 9 494 109 
L 494 744 
Q 775 591 1075 516 
Q 1375 441 1709 441 
Q 2250 441 2565 725 
Q 2881 1009 2881 1497 
Q 2881 1984 2565 2268 
Q 2250 2553 1709 2553 
Q 1456 2553 1204 2497 
Q 953 2441 691 2322 
L 691 4666 
z
" transform="scale(0.015625)"/>
     </defs>
     <use xlink:href="#DejaVuSans-30"/>
     <use xlink:href="#DejaVuSans-2e" transform="translate(63.623047 0)"/>
     <use xlink:href="#DejaVuSans-35" transform="translate(95.410156 0)"/>
    </g>
   </g>
   <g id="text_3">
    <!-- 1.0 -->
    <g transform="translate(407.170484 434.327984) scale(0.1 -0.1)">
     <defs>
      <path id="DejaVuSans-31" d="M 794 531 
L 1825 531 
L 1825 4091 
L 703 3866 
L 703 4441 
L 1819 4666 
L 2450 4666 
L 2450 531 
L 3481 531 
L 3481 0 
L 794 0 
L 794 531 
z
" transform="scale(0.015625)"/>
     </defs>
     <use xlink:href="#DejaVuSans-31"/>
     <use xlink:href="#DejaVuSans-2e" transform="translate(63.623047 0)"/>
     <use xlink:href="#DejaVuSans-30" transform="translate(95.410156 0)"/>
    </g>
   </g>
   <g id="text_4">
    <!-- 2.0 -->
    <g transform="translate(539.173945 434.327984) scale(0.1 -0.1)">
     <use xlink:href="#DejaVuSans-32"/>
     <use xlink:href="#DejaVuSans-2e" transform="translate(63.623047 0)"/>
     <use xlink:href="#DejaVuSans-30" transform="translate(95.410156 0)"/>
    </g>
   </g>
   <g id="text_5">
    <!-- 5.0 -->
    <g transform="translate(671.177405 434.327984) scale(0.1 -0.1)">
     <use xlink:href="#DejaVuSans-35"/>
     <use xlink:href="#DejaVuSans-2e" transform="translate(63.623047 0)"/>
     <use xlink:href="#DejaVuSans-30" transform="translate(95.410156 0)"/>
    </g>
   </g>
   <g id="text_6">
    <!-- 0.2j -->
    <g transform="translate(39.148939 282.373599) scale(0.1 -0.1)">
     <defs>
      <path id="DejaVuSans-6a" d="M 603 3500 
L 1178 3500 
L 1178 -63 
Q 1178 -731 923 -1031 
Q 669 -1331 103 -1331 
L -116 -1331 
L -116 -844 
L 38 -844 
Q 366 -844 484 -692 
Q 603 -541 603 -63 
L 603 3500 
z
M 603 4863 
L 1178 4863 
L 1178 4134 
L 603 4134 
L 603 4863 
z
" transform="scale(0.015625)"/>
     </defs>
     <use xlink:href="#DejaVuSans-30"/>
     <use xlink:href="#DejaVuSans-2e" transform="translate(63.623047 0)"/>
     <use xlink:href="#DejaVuSans-32" transform="translate(95.410156 0)"/>
     <use xlink:href="#DejaVuSans-6a" transform="translate(159.033203 0)"/>
    </g>
   </g>
   <g id="text_7">
    <!-- 0.5j -->
    <g transform="translate(168.370173 116.232013) scale(0.1 -0.1)">
     <use xlink:href="#DejaVuSans-30"/>
     <use xlink:href="#DejaVuSans-2e" transform="translate(63.623047 0)"/>
     <use xlink:href="#DejaVuSans-35" transform="translate(95.410156 0)"/>
     <use xlink:href="#DejaVuSans-6a" transform="translate(159.033203 0)"/>
    </g>
   </g>
   <g id="text_8">
    <!-- 1.0j -->
    <g transform="translate(417.693088 36.237916) scale(0.1 -0.1)">
     <use xlink:href="#DejaVuSans-31"/>
     <use xlink:href="#DejaVuSans-2e" transform="translate(63.623047 0)"/>
     <use xlink:href="#DejaVuSans-30" transform="translate(95.410156 0)"/>
     <use xlink:href="#DejaVuSans-6a" transform="translate(159.033203 0)"/>
    </g>
   </g>
   <g id="text_9">
    <!-- 2.0j -->
    <g transform="translate(667.016004 116.232013) scale(0.1 -0.1)">
     <use xlink:href="#DejaVuSans-32"/>
     <use xlink:href="#DejaVuSans-2e" transform="translate(63.623047 0)"/>
     <use xlink:href="#DejaVuSans-30" transform="translate(95.410156 0)"/>
     <use xlink:href="#DejaVuSans-6a" transform="translate(159.033203 0)"/>
    </g>
   </g>
   <g id="text_10">
    <!-- 5.0j -->
    <g transform="translate(796.237237 282.373599) scale(0.1 -0.1)">
     <use xlink:href="#DejaVuSans-35"/>
     <use xlink:href="#DejaVuSans-2e" transform="translate(63.623047 0)"/>
     <use xlink:href="#DejaVuSans-30" transform="translate(95.410156 0)"/>
     <use xlink:href="#DejaVuSans-6a" transform="translate(159.033203 0)"/>
    </g>
   </g>
   <g id="text_11">
    <!-- -0.2j -->
    <g transform="translate(35.541127 599.721327) scale(0.1 -0.1)">
     <defs>
      <path id="DejaVuSans-2d" d="M 313 2009 
L 1997 2009 
L 1997 1497 
L 313 1497 
L 313 2009 
z
" transform="scale(0.015625)"/>
     </defs>
     <use xlink:href="#DejaVuSans-2d"/>
     <use xlink:href="#DejaVuSans-30" transform="translate(36.083984 0)"/>
     <use xlink:href="#DejaVuSans-2e" transform="translate(99.707031 0)"/>
     <use xlink:href="#DejaVuSans-32" transform="translate(131.494141 0)"/>
     <use xlink:href="#DejaVuSans-6a" transform="translate(195.117188 0)"/>
    </g>
   </g>
   <g id="text_12">
    <!-- -0.5j -->
    <g transform="translate(164.76236 765.862913) scale(0.1 -0.1)">
     <use xlink:href="#DejaVuSans-2d"/>
     <use xlink:href="#DejaVuSans-30" transform="translate(36.083984 0)"/>
     <use xlink:href="#DejaVuSans-2e" transform="translate(99.707031 0)"/>
     <use xlink:href="#DejaVuSans-35" transform="translate(131.494141 0)"/>
     <use xlink:href="#DejaVuSans-6a" transform="translate(195.117188 0)"/>
    </g>
   </g>
   <g id="text_13">
    <!-- -1.0j -->
    <g transform="translate(415.889182 845.85701) scale(0.1 -0.1)">
     <use xlink:href="#DejaVuSans-2d"/>
     <use xlink:href="#DejaVuSans-31" transform="translate(36.083984 0)"/>
     <use xlink:href="#DejaVuSans-2e" transform="translate(99.707031 0)"/>
     <use xlink:href="#DejaVuSans-30" transform="translate(131.494141 0)"/>
     <use xlink:href="#DejaVuSans-6a" transform="translate(195.117188 0)"/>
    </g>
   </g>
   <g id="text_14">
    <!-- -2.0j -->
    <g transform="translate(667.016004 765.862913) scale(0.1 -0.1)">
     <use xlink:href="#DejaVuSans-2d"/>
     <use xlink:href="#DejaVuSans-32" transform="translate(36.083984 0)"/>
     <use xlink:href="#DejaVuSans-2e" transform="translate(99.707031 0)"/>
     <use xlink:href="#DejaVuSans-30" transform="translate(131.494141 0)"/>
     <use xlink:href="#DejaVuSans-6a" transform="translate(195.117188 0)"/>
    </g>
   </g>
   <g id="text_15">
    <!-- -5.0j -->
    <g transform="translate(796.237237 599.721327) scale(0.1 -0.1)">
     <use xlink:href="#DejaVuSans-2d"/>
     <use xlink:href="#DejaVuSans-35" transform="translate(36.083984 0)"/>
     <use xlink:href="#DejaVuSans-2e" transform="translate(99.707031 0)"/>
     <use xlink:href="#DejaVuSans-30" transform="translate(131.494141 0)"/>
     <use xlink:href="#DejaVuSans-6a" transform="translate(195.117188 0)"/>
    </g>
   </g>
   <g id="text_16">
    <!-- 0.0 -->
    <g transform="translate(7.2 441.047463) scale(0.1 -0.1)">
     <use xlink:href="#DejaVuSans-30"/>
     <use xlink:href="#DejaVuSans-2e" transform="translate(63.623047 0)"/>
     <use xlink:href="#DejaVuSans-30" transform="translate(95.410156 0)"/>
    </g>
   </g>
   <g id="text_17">
    <!-- $\infty$ -->
    <g transform="translate(827.004198 441.047463) scale(0.1 -0.1)">
     <defs>
      <path id="DejaVuSans-221e" d="M 2916 1091 
Q 2819 1203 2666 1466 
Q 2456 1091 2272 925 
Q 2041 725 1681 725 
Q 1259 725 981 1041 
Q 688 1372 688 1919 
Q 688 2444 981 2800 
Q 1244 3116 1688 3116 
Q 1916 3116 2084 3022 
Q 2281 2919 2416 2741 
Q 2541 2581 2666 2366 
Q 2875 2741 3059 2906 
Q 3291 3106 3650 3106 
Q 4072 3106 4350 2791 
Q 4644 2459 4644 1913 
Q 4644 1388 4350 1031 
Q 4088 716 3644 716 
Q 3416 716 3247 809 
Q 3078 894 2916 1091 
z
M 1647 1134 
Q 2163 1134 2472 1884 
Q 2075 2703 1647 2703 
Q 1334 2703 1175 2478 
Q 1003 2238 1003 1919 
Q 1003 1569 1175 1353 
Q 1350 1134 1647 1134 
z
M 3684 2697 
Q 3219 2697 2859 1947 
Q 3253 1128 3684 1128 
Q 3997 1128 4156 1353 
Q 4328 1594 4328 1913 
Q 4328 2263 4156 2478 
Q 3981 2697 3684 2697 
z
" transform="scale(0.015625)"/>
     </defs>
     <use xlink:href="#DejaVuSans-221e" transform="translate(0 0.3125)"/>
    </g>
   </g>
   <g id="text_18">
    <!-- it1_load_pull - Broadband Optimum Target -->
    <g transform="translate(258.087463 19.3575) scale(0.16 -0.16)">
     <defs>
      <path id="DejaVuSans-69" d="M 603 3500 
L 1178 3500 
L 1178 0 
L 603 0 
L 603 3500 
z
M 603 4863 
L 1178 4863 
L 1178 4134 
L 603 4134 
L 603 4863 
z
" transform="scale(0.015625)"/>
      <path id="DejaVuSans-74" d="M 1172 4494 
L 1172 3500 
L 2356 3500 
L 2356 3053 
L 1172 3053 
L 1172 1153 
Q 1172 725 1289 603 
Q 1406 481 1766 481 
L 2356 481 
L 2356 0 
L 1766 0 
Q 1100 0 847 248 
Q 594 497 594 1153 
L 594 3053 
L 172 3053 
L 172 3500 
L 594 3500 
L 594 4494 
L 1172 4494 
z
" transform="scale(0.015625)"/>
      <path id="DejaVuSans-5f" d="M 3263 -1063 
L 3263 -1509 
L -63 -1509 
L -63 -1063 
L 3263 -1063 
z
" transform="scale(0.015625)"/>
      <path id="DejaVuSans-6c" d="M 603 4863 
L 1178 4863 
L 1178 0 
L 603 0 
L 603 4863 
z
" transform="scale(0.015625)"/>
      <path id="DejaVuSans-6f" d="M 1959 3097 
Q 1497 3097 1228 2736 
Q 959 2375 959 1747 
Q 959 1119 1226 758 
Q 1494 397 1959 397 
Q 2419 397 2687 759 
Q 2956 1122 2956 1747 
Q 2956 2369 2687 2733 
Q 2419 3097 1959 3097 
z
M 1959 3584 
Q 2709 3584 3137 3096 
Q 3566 2609 3566 1747 
Q 3566 888 3137 398 
Q 2709 -91 1959 -91 
Q 1206 -91 779 398 
Q 353 888 353 1747 
Q 353 2609 779 3096 
Q 1206 3584 1959 3584 
z
" transform="scale(0.015625)"/>
      <path id="DejaVuSans-61" d="M 2194 1759 
Q 1497 1759 1228 1600 
Q 959 1441 959 1056 
Q 959 750 1161 570 
Q 1363 391 1709 391 
Q 2188 391 2477 730 
Q 2766 1069 2766 1631 
L 2766 1759 
L 2194 1759 
z
M 3341 1997 
L 3341 0 
L 2766 0 
L 2766 531 
Q 2569 213 2275 61 
Q 1981 -91 1556 -91 
Q 1019 -91 701 211 
Q 384 513 384 1019 
Q 384 1609 779 1909 
Q 1175 2209 1959 2209 
L 2766 2209 
L 2766 2266 
Q 2766 2663 2505 2880 
Q 2244 3097 1772 3097 
Q 1472 3097 1187 3025 
Q 903 2953 641 2809 
L 641 3341 
Q 956 3463 1253 3523 
Q 1550 3584 1831 3584 
Q 2591 3584 2966 3190 
Q 3341 2797 3341 1997 
z
" transform="scale(0.015625)"/>
      <path id="DejaVuSans-64" d="M 2906 2969 
L 2906 4863 
L 3481 4863 
L 3481 0 
L 2906 0 
L 2906 525 
Q 2725 213 2448 61 
Q 2172 -91 1784 -91 
Q 1150 -91 751 415 
Q 353 922 353 1747 
Q 353 2572 751 3078 
Q 1150 3584 1784 3584 
Q 2172 3584 2448 3432 
Q 2725 3281 2906 2969 
z
M 947 1747 
Q 947 1113 1208 752 
Q 1469 391 1925 391 
Q 2381 391 2643 752 
Q 2906 1113 2906 1747 
Q 2906 2381 2643 2742 
Q 2381 3103 1925 3103 
Q 1469 3103 1208 2742 
Q 947 2381 947 1747 
z
" transform="scale(0.015625)"/>
      <path id="DejaVuSans-70" d="M 1159 525 
L 1159 -1331 
L 581 -1331 
L 581 3500 
L 1159 3500 
L 1159 2969 
Q 1341 3281 1617 3432 
Q 1894 3584 2278 3584 
Q 2916 3584 3314 3078 
Q 3713 2572 3713 1747 
Q 3713 922 3314 415 
Q 2916 -91 2278 -91 
Q 1894 -91 1617 61 
Q 1341 213 1159 525 
z
M 3116 1747 
Q 3116 2381 2855 2742 
Q 2594 3103 2138 3103 
Q 1681 3103 1420 2742 
Q 1159 2381 1159 1747 
Q 1159 1113 1420 752 
Q 1681 391 2138 391 
Q 2594 391 2855 752 
Q 3116 1113 3116 1747 
z
" transform="scale(0.015625)"/>
      <path id="DejaVuSans-75" d="M 544 1381 
L 544 3500 
L 1119 3500 
L 1119 1403 
Q 1119 906 1312 657 
Q 1506 409 1894 409 
Q 2359 409 2629 706 
Q 2900 1003 2900 1516 
L 2900 3500 
L 3475 3500 
L 3475 0 
L 2900 0 
L 2900 538 
Q 2691 219 2414 64 
Q 2138 -91 1772 -91 
Q 1169 -91 856 284 
Q 544 659 544 1381 
z
M 1991 3584 
L 1991 3584 
z
" transform="scale(0.015625)"/>
      <path id="DejaVuSans-20" transform="scale(0.015625)"/>
      <path id="DejaVuSans-42" d="M 1259 2228 
L 1259 519 
L 2272 519 
Q 2781 519 3026 730 
Q 3272 941 3272 1375 
Q 3272 1813 3026 2020 
Q 2781 2228 2272 2228 
L 1259 2228 
z
M 1259 4147 
L 1259 2741 
L 2194 2741 
Q 2656 2741 2882 2914 
Q 3109 3088 3109 3444 
Q 3109 3797 2882 3972 
Q 2656 4147 2194 4147 
L 1259 4147 
z
M 628 4666 
L 2241 4666 
Q 2963 4666 3353 4366 
Q 3744 4066 3744 3513 
Q 3744 3084 3544 2831 
Q 3344 2578 2956 2516 
Q 3422 2416 3680 2098 
Q 3938 1781 3938 1306 
Q 3938 681 3513 340 
Q 3088 0 2303 0 
L 628 0 
L 628 4666 
z
" transform="scale(0.015625)"/>
      <path id="DejaVuSans-72" d="M 2631 2963 
Q 2534 3019 2420 3045 
Q 2306 3072 2169 3072 
Q 1681 3072 1420 2755 
Q 1159 2438 1159 1844 
L 1159 0 
L 581 0 
L 581 3500 
L 1159 3500 
L 1159 2956 
Q 1341 3275 1631 3429 
Q 1922 3584 2338 3584 
Q 2397 3584 2469 3576 
Q 2541 3569 2628 3553 
L 2631 2963 
z
" transform="scale(0.015625)"/>
      <path id="DejaVuSans-62" d="M 3116 1747 
Q 3116 2381 2855 2742 
Q 2594 3103 2138 3103 
Q 1681 3103 1420 2742 
Q 1159 2381 1159 1747 
Q 1159 1113 1420 752 
Q 1681 391 2138 391 
Q 2594 391 2855 752 
Q 3116 1113 3116 1747 
z
M 1159 2969 
Q 1341 3281 1617 3432 
Q 1894 3584 2278 3584 
Q 2916 3584 3314 3078 
Q 3713 2572 3713 1747 
Q 3713 922 3314 415 
Q 2916 -91 2278 -91 
Q 1894 -91 1617 61 
Q 1341 213 1159 525 
L 1159 0 
L 581 0 
L 581 4863 
L 1159 4863 
L 1159 2969 
z
" transform="scale(0.015625)"/>
      <path id="DejaVuSans-6e" d="M 3513 2113 
L 3513 0 
L 2938 0 
L 2938 2094 
Q 2938 2591 2744 2837 
Q 2550 3084 2163 3084 
Q 1697 3084 1428 2787 
Q 1159 2491 1159 1978 
L 1159 0 
L 581 0 
L 581 3500 
L 1159 3500 
L 1159 2956 
Q 1366 3272 1645 3428 
Q 1925 3584 2291 3584 
Q 2894 3584 3203 3211 
Q 3513 2838 3513 2113 
z
" transform="scale(0.015625)"/>
      <path id="DejaVuSans-4f" d="M 2522 4238 
Q 1834 4238 1429 3725 
Q 1025 3213 1025 2328 
Q 1025 1447 1429 934 
Q 1834 422 2522 422 
Q 3209 422 3611 934 
Q 4013 1447 4013 2328 
Q 4013 3213 3611 3725 
Q 3209 4238 2522 4238 
z
M 2522 4750 
Q 3503 4750 4090 4092 
Q 4678 3434 4678 2328 
Q 4678 1225 4090 567 
Q 3503 -91 2522 -91 
Q 1538 -91 948 565 
Q 359 1222 359 2328 
Q 359 3434 948 4092 
Q 1538 4750 2522 4750 
z
" transform="scale(0.015625)"/>
      <path id="DejaVuSans-6d" d="M 3328 2828 
Q 3544 3216 3844 3400 
Q 4144 3584 4550 3584 
Q 5097 3584 5394 3201 
Q 5691 2819 5691 2113 
L 5691 0 
L 5113 0 
L 5113 2094 
Q 5113 2597 4934 2840 
Q 4756 3084 4391 3084 
Q 3944 3084 3684 2787 
Q 3425 2491 3425 1978 
L 3425 0 
L 2847 0 
L 2847 2094 
Q 2847 2600 2669 2842 
Q 2491 3084 2119 3084 
Q 1678 3084 1418 2786 
Q 1159 2488 1159 1978 
L 1159 0 
L 581 0 
L 581 3500 
L 1159 3500 
L 1159 2956 
Q 1356 3278 1631 3431 
Q 1906 3584 2284 3584 
Q 2666 3584 2933 3390 
Q 3200 3197 3328 2828 
z
" transform="scale(0.015625)"/>
      <path id="DejaVuSans-54" d="M -19 4666 
L 3928 4666 
L 3928 4134 
L 2272 4134 
L 2272 0 
L 1638 0 
L 1638 4134 
L -19 4134 
L -19 4666 
z
" transform="scale(0.015625)"/>
      <path id="DejaVuSans-67" d="M 2906 1791 
Q 2906 2416 2648 2759 
Q 2391 3103 1925 3103 
Q 1463 3103 1205 2759 
Q 947 2416 947 1791 
Q 947 1169 1205 825 
Q 1463 481 1925 481 
Q 2391 481 2648 825 
Q 2906 1169 2906 1791 
z
M 3481 434 
Q 3481 -459 3084 -895 
Q 2688 -1331 1869 -1331 
Q 1566 -1331 1297 -1286 
Q 1028 -1241 775 -1147 
L 775 -588 
Q 1028 -725 1275 -790 
Q 1522 -856 1778 -856 
Q 2344 -856 2625 -561 
Q 2906 -266 2906 331 
L 2906 616 
Q 2728 306 2450 153 
Q 2172 0 1784 0 
Q 1141 0 747 490 
Q 353 981 353 1791 
Q 353 2603 747 3093 
Q 1141 3584 1784 3584 
Q 2172 3584 2450 3431 
Q 2728 3278 2906 2969 
L 2906 3500 
L 3481 3500 
L 3481 434 
z
" transform="scale(0.015625)"/>
      <path id="DejaVuSans-65" d="M 3597 1894 
L 3597 1613 
L 953 1613 
Q 991 1019 1311 708 
Q 1631 397 2203 397 
Q 2534 397 2845 478 
Q 3156 559 3463 722 
L 3463 178 
Q 3153 47 2828 -22 
Q 2503 -91 2169 -91 
Q 1331 -91 842 396 
Q 353 884 353 1716 
Q 353 2575 817 3079 
Q 1281 3584 2069 3584 
Q 2775 3584 3186 3129 
Q 3597 2675 3597 1894 
z
M 3022 2063 
Q 3016 2534 2758 2815 
Q 2500 3097 2075 3097 
Q 1594 3097 1305 2825 
Q 1016 2553 972 2059 
L 3022 2063 
z
" transform="scale(0.015625)"/>
     </defs>
     <use xlink:href="#DejaVuSans-69"/>
     <use xlink:href="#DejaVuSans-74" transform="translate(27.783203 0)"/>
     <use xlink:href="#DejaVuSans-31" transform="translate(66.992188 0)"/>
     <use xlink:href="#DejaVuSans-5f" transform="translate(130.615234 0)"/>
     <use xlink:href="#DejaVuSans-6c" transform="translate(180.615234 0)"/>
     <use xlink:href="#DejaVuSans-6f" transform="translate(208.398438 0)"/>
     <use xlink:href="#DejaVuSans-61" transform="translate(269.580078 0)"/>
     <use xlink:href="#DejaVuSans-64" transform="translate(330.859375 0)"/>
     <use xlink:href="#DejaVuSans-5f" transform="translate(394.335938 0)"/>
     <use xlink:href="#DejaVuSans-70" transform="translate(444.335938 0)"/>
     <use xlink:href="#DejaVuSans-75" transform="translate(507.8125 0)"/>
     <use xlink:href="#DejaVuSans-6c" transform="translate(571.191406 0)"/>
     <use xlink:href="#DejaVuSans-6c" transform="translate(598.974609 0)"/>
     <use xlink:href="#DejaVuSans-20" transform="translate(626.757812 0)"/>
     <use xlink:href="#DejaVuSans-2d" transform="translate(658.544922 0)"/>
     <use xlink:href="#DejaVuSans-20" transform="translate(694.628906 0)"/>
     <use xlink:href="#DejaVuSans-42" transform="translate(726.416016 0)"/>
     <use xlink:href="#DejaVuSans-72" transform="translate(795.019531 0)"/>
     <use xlink:href="#DejaVuSans-6f" transform="translate(833.882812 0)"/>
     <use xlink:href="#DejaVuSans-61" transform="translate(895.064453 0)"/>
     <use xlink:href="#DejaVuSans-64" transform="translate(956.34375 0)"/>
     <use xlink:href="#DejaVuSans-62" transform="translate(1019.820312 0)"/>
     <use xlink:href="#DejaVuSans-61" transform="translate(1083.296875 0)"/>
     <use xlink:href="#DejaVuSans-6e" transform="translate(1144.576172 0)"/>
     <use xlink:href="#DejaVuSans-64" transform="translate(1207.955078 0)"/>
     <use xlink:href="#DejaVuSans-20" transform="translate(1271.431641 0)"/>
     <use xlink:href="#DejaVuSans-4f" transform="translate(1303.21875 0)"/>
     <use xlink:href="#DejaVuSans-70" transform="translate(1381.929688 0)"/>
     <use xlink:href="#DejaVuSans-74" transform="translate(1445.40625 0)"/>
     <use xlink:href="#DejaVuSans-69" transform="translate(1484.615234 0)"/>
     <use xlink:href="#DejaVuSans-6d" transform="translate(1512.398438 0)"/>
     <use xlink:href="#DejaVuSans-75" transform="translate(1609.810547 0)"/>
     <use xlink:href="#DejaVuSans-6d" transform="translate(1673.189453 0)"/>
     <use xlink:href="#DejaVuSans-20" transform="translate(1770.601562 0)"/>
     <use xlink:href="#DejaVuSans-54" transform="translate(1802.388672 0)"/>
     <use xlink:href="#DejaVuSans-61" transform="translate(1846.972656 0)"/>
     <use xlink:href="#DejaVuSans-72" transform="translate(1908.251953 0)"/>
     <use xlink:href="#DejaVuSans-67" transform="translate(1947.615234 0)"/>
     <use xlink:href="#DejaVuSans-65" transform="translate(2011.091797 0)"/>
     <use xlink:href="#DejaVuSans-74" transform="translate(2072.615234 0)"/>
    </g>
   </g>
   <g id="legend_1">
    <g id="patch_27">
     <path d="M 854.121525 535.195901 
L 1007.571525 535.195901 
Q 1009.571525 535.195901 1009.571525 533.195901 
L 1009.571525 343.380276 
Q 1009.571525 341.380276 1007.571525 341.380276 
L 854.121525 341.380276 
Q 852.121525 341.380276 852.121525 343.380276 
L 852.121525 533.195901 
Q 852.121525 535.195901 854.121525 535.195901 
z
" style="fill: #ffffff; opacity: 0.8; stroke: #cccccc; stroke-linejoin: miter"/>
    </g>
    <g id="line2d_17">
     <path d="M 856.121525 349.478713 
L 866.121525 349.478713 
L 876.121525 349.478713 
" style="fill: none; stroke: #1f77b4; stroke-opacity: 0.99; stroke-width: 0.2; stroke-linecap: square"/>
    </g>
    <g id="text_19">
     <!-- 9.70 GHz (Hedef: 51.0) -->
     <g transform="translate(884.121525 352.978713) scale(0.1 -0.1)">
      <defs>
       <path id="DejaVuSans-39" d="M 703 97 
L 703 672 
Q 941 559 1184 500 
Q 1428 441 1663 441 
Q 2288 441 2617 861 
Q 2947 1281 2994 2138 
Q 2813 1869 2534 1725 
Q 2256 1581 1919 1581 
Q 1219 1581 811 2004 
Q 403 2428 403 3163 
Q 403 3881 828 4315 
Q 1253 4750 1959 4750 
Q 2769 4750 3195 4129 
Q 3622 3509 3622 2328 
Q 3622 1225 3098 567 
Q 2575 -91 1691 -91 
Q 1453 -91 1209 -44 
Q 966 3 703 97 
z
M 1959 2075 
Q 2384 2075 2632 2365 
Q 2881 2656 2881 3163 
Q 2881 3666 2632 3958 
Q 2384 4250 1959 4250 
Q 1534 4250 1286 3958 
Q 1038 3666 1038 3163 
Q 1038 2656 1286 2365 
Q 1534 2075 1959 2075 
z
" transform="scale(0.015625)"/>
       <path id="DejaVuSans-37" d="M 525 4666 
L 3525 4666 
L 3525 4397 
L 1831 0 
L 1172 0 
L 2766 4134 
L 525 4134 
L 525 4666 
z
" transform="scale(0.015625)"/>
       <path id="DejaVuSans-47" d="M 3809 666 
L 3809 1919 
L 2778 1919 
L 2778 2438 
L 4434 2438 
L 4434 434 
Q 4069 175 3628 42 
Q 3188 -91 2688 -91 
Q 1594 -91 976 548 
Q 359 1188 359 2328 
Q 359 3472 976 4111 
Q 1594 4750 2688 4750 
Q 3144 4750 3555 4637 
Q 3966 4525 4313 4306 
L 4313 3634 
Q 3963 3931 3569 4081 
Q 3175 4231 2741 4231 
Q 1884 4231 1454 3753 
Q 1025 3275 1025 2328 
Q 1025 1384 1454 906 
Q 1884 428 2741 428 
Q 3075 428 3337 486 
Q 3600 544 3809 666 
z
" transform="scale(0.015625)"/>
       <path id="DejaVuSans-48" d="M 628 4666 
L 1259 4666 
L 1259 2753 
L 3553 2753 
L 3553 4666 
L 4184 4666 
L 4184 0 
L 3553 0 
L 3553 2222 
L 1259 2222 
L 1259 0 
L 628 0 
L 628 4666 
z
" transform="scale(0.015625)"/>
       <path id="DejaVuSans-7a" d="M 353 3500 
L 3084 3500 
L 3084 2975 
L 922 459 
L 3084 459 
L 3084 0 
L 275 0 
L 275 525 
L 2438 3041 
L 353 3041 
L 353 3500 
z
" transform="scale(0.015625)"/>
       <path id="DejaVuSans-28" d="M 1984 4856 
Q 1566 4138 1362 3434 
Q 1159 2731 1159 2009 
Q 1159 1288 1364 580 
Q 1569 -128 1984 -844 
L 1484 -844 
Q 1016 -109 783 600 
Q 550 1309 550 2009 
Q 550 2706 781 3412 
Q 1013 4119 1484 4856 
L 1984 4856 
z
" transform="scale(0.015625)"/>
       <path id="DejaVuSans-66" d="M 2375 4863 
L 2375 4384 
L 1825 4384 
Q 1516 4384 1395 4259 
Q 1275 4134 1275 3809 
L 1275 3500 
L 2222 3500 
L 2222 3053 
L 1275 3053 
L 1275 0 
L 697 0 
L 697 3053 
L 147 3053 
L 147 3500 
L 697 3500 
L 697 3744 
Q 697 4328 969 4595 
Q 1241 4863 1831 4863 
L 2375 4863 
z
" transform="scale(0.015625)"/>
       <path id="DejaVuSans-3a" d="M 750 794 
L 1409 794 
L 1409 0 
L 750 0 
L 750 794 
z
M 750 3309 
L 1409 3309 
L 1409 2516 
L 750 2516 
L 750 3309 
z
" transform="scale(0.015625)"/>
       <path id="DejaVuSans-29" d="M 513 4856 
L 1013 4856 
Q 1481 4119 1714 3412 
Q 1947 2706 1947 2009 
Q 1947 1309 1714 600 
Q 1481 -109 1013 -844 
L 513 -844 
Q 928 -128 1133 580 
Q 1338 1288 1338 2009 
Q 1338 2731 1133 3434 
Q 928 4138 513 4856 
z
" transform="scale(0.015625)"/>
      </defs>
      <use xlink:href="#DejaVuSans-39"/>
      <use xlink:href="#DejaVuSans-2e" transform="translate(63.623047 0)"/>
      <use xlink:href="#DejaVuSans-37" transform="translate(95.410156 0)"/>
      <use xlink:href="#DejaVuSans-30" transform="translate(159.033203 0)"/>
      <use xlink:href="#DejaVuSans-20" transform="translate(222.65625 0)"/>
      <use xlink:href="#DejaVuSans-47" transform="translate(254.443359 0)"/>
      <use xlink:href="#DejaVuSans-48" transform="translate(331.933594 0)"/>
      <use xlink:href="#DejaVuSans-7a" transform="translate(407.128906 0)"/>
      <use xlink:href="#DejaVuSans-20" transform="translate(459.619141 0)"/>
      <use xlink:href="#DejaVuSans-28" transform="translate(491.40625 0)"/>
      <use xlink:href="#DejaVuSans-48" transform="translate(530.419922 0)"/>
      <use xlink:href="#DejaVuSans-65" transform="translate(605.615234 0)"/>
      <use xlink:href="#DejaVuSans-64" transform="translate(667.138672 0)"/>
      <use xlink:href="#DejaVuSans-65" transform="translate(730.615234 0)"/>
      <use xlink:href="#DejaVuSans-66" transform="translate(792.138672 0)"/>
      <use xlink:href="#DejaVuSans-3a" transform="translate(823.71875 0)"/>
      <use xlink:href="#DejaVuSans-20" transform="translate(857.410156 0)"/>
      <use xlink:href="#DejaVuSans-35" transform="translate(889.197266 0)"/>
      <use xlink:href="#DejaVuSans-31" transform="translate(952.820312 0)"/>
      <use xlink:href="#DejaVuSans-2e" transform="translate(1016.443359 0)"/>
      <use xlink:href="#DejaVuSans-30" transform="translate(1048.230469 0)"/>
      <use xlink:href="#DejaVuSans-29" transform="translate(1111.853516 0)"/>
     </g>
    </g>
    <g id="line2d_18">
     <path d="M 856.121525 364.156838 
L 866.121525 364.156838 
L 876.121525 364.156838 
" style="fill: none; stroke: #ff7f0e; stroke-opacity: 0.99; stroke-width: 0.2; stroke-linecap: square"/>
    </g>
    <g id="text_20">
     <!-- 9.75 GHz (Hedef: 51.5) -->
     <g transform="translate(884.121525 367.656838) scale(0.1 -0.1)">
      <use xlink:href="#DejaVuSans-39"/>
      <use xlink:href="#DejaVuSans-2e" transform="translate(63.623047 0)"/>
      <use xlink:href="#DejaVuSans-37" transform="translate(95.410156 0)"/>
      <use xlink:href="#DejaVuSans-35" transform="translate(159.033203 0)"/>
      <use xlink:href="#DejaVuSans-20" transform="translate(222.65625 0)"/>
      <use xlink:href="#DejaVuSans-47" transform="translate(254.443359 0)"/>
      <use xlink:href="#DejaVuSans-48" transform="translate(331.933594 0)"/>
      <use xlink:href="#DejaVuSans-7a" transform="translate(407.128906 0)"/>
      <use xlink:href="#DejaVuSans-20" transform="translate(459.619141 0)"/>
      <use xlink:href="#DejaVuSans-28" transform="translate(491.40625 0)"/>
      <use xlink:href="#DejaVuSans-48" transform="translate(530.419922 0)"/>
      <use xlink:href="#DejaVuSans-65" transform="translate(605.615234 0)"/>
      <use xlink:href="#DejaVuSans-64" transform="translate(667.138672 0)"/>
      <use xlink:href="#DejaVuSans-65" transform="translate(730.615234 0)"/>
      <use xlink:href="#DejaVuSans-66" transform="translate(792.138672 0)"/>
      <use xlink:href="#DejaVuSans-3a" transform="translate(823.71875 0)"/>
      <use xlink:href="#DejaVuSans-20" transform="translate(857.410156 0)"/>
      <use xlink:href="#DejaVuSans-35" transform="translate(889.197266 0)"/>
      <use xlink:href="#DejaVuSans-31" transform="translate(952.820312 0)"/>
      <use xlink:href="#DejaVuSans-2e" transform="translate(1016.443359 0)"/>
      <use xlink:href="#DejaVuSans-35" transform="translate(1048.230469 0)"/>
      <use xlink:href="#DejaVuSans-29" transform="translate(1111.853516 0)"/>
     </g>
    </g>
    <g id="line2d_19">
     <path d="M 856.121525 378.834963 
L 866.121525 378.834963 
L 876.121525 378.834963 
" style="fill: none; stroke: #2ca02c; stroke-opacity: 0.99; stroke-width: 0.2; stroke-linecap: square"/>
    </g>
    <g id="text_21">
     <!-- 9.80 GHz (Hedef: 52.0) -->
     <g transform="translate(884.121525 382.334963) scale(0.1 -0.1)">
      <defs>
       <path id="DejaVuSans-38" d="M 2034 2216 
Q 1584 2216 1326 1975 
Q 1069 1734 1069 1313 
Q 1069 891 1326 650 
Q 1584 409 2034 409 
Q 2484 409 2743 651 
Q 3003 894 3003 1313 
Q 3003 1734 2745 1975 
Q 2488 2216 2034 2216 
z
M 1403 2484 
Q 997 2584 770 2862 
Q 544 3141 544 3541 
Q 544 4100 942 4425 
Q 1341 4750 2034 4750 
Q 2731 4750 3128 4425 
Q 3525 4100 3525 3541 
Q 3525 3141 3298 2862 
Q 3072 2584 2669 2484 
Q 3125 2378 3379 2068 
Q 3634 1759 3634 1313 
Q 3634 634 3220 271 
Q 2806 -91 2034 -91 
Q 1263 -91 848 271 
Q 434 634 434 1313 
Q 434 1759 690 2068 
Q 947 2378 1403 2484 
z
M 1172 3481 
Q 1172 3119 1398 2916 
Q 1625 2713 2034 2713 
Q 2441 2713 2670 2916 
Q 2900 3119 2900 3481 
Q 2900 3844 2670 4047 
Q 2441 4250 2034 4250 
Q 1625 4250 1398 4047 
Q 1172 3844 1172 3481 
z
" transform="scale(0.015625)"/>
      </defs>
      <use xlink:href="#DejaVuSans-39"/>
      <use xlink:href="#DejaVuSans-2e" transform="translate(63.623047 0)"/>
      <use xlink:href="#DejaVuSans-38" transform="translate(95.410156 0)"/>
      <use xlink:href="#DejaVuSans-30" transform="translate(159.033203 0)"/>
      <use xlink:href="#DejaVuSans-20" transform="translate(222.65625 0)"/>
      <use xlink:href="#DejaVuSans-47" transform="translate(254.443359 0)"/>
      <use xlink:href="#DejaVuSans-48" transform="translate(331.933594 0)"/>
      <use xlink:href="#DejaVuSans-7a" transform="translate(407.128906 0)"/>
      <use xlink:href="#DejaVuSans-20" transform="translate(459.619141 0)"/>
      <use xlink:href="#DejaVuSans-28" transform="translate(491.40625 0)"/>
      <use xlink:href="#DejaVuSans-48" transform="translate(530.419922 0)"/>
      <use xlink:href="#DejaVuSans-65" transform="translate(605.615234 0)"/>
      <use xlink:href="#DejaVuSans-64" transform="translate(667.138672 0)"/>
      <use xlink:href="#DejaVuSans-65" transform="translate(730.615234 0)"/>
      <use xlink:href="#DejaVuSans-66" transform="translate(792.138672 0)"/>
      <use xlink:href="#DejaVuSans-3a" transform="translate(823.71875 0)"/>
      <use xlink:href="#DejaVuSans-20" transform="translate(857.410156 0)"/>
      <use xlink:href="#DejaVuSans-35" transform="translate(889.197266 0)"/>
      <use xlink:href="#DejaVuSans-32" transform="translate(952.820312 0)"/>
      <use xlink:href="#DejaVuSans-2e" transform="translate(1016.443359 0)"/>
      <use xlink:href="#DejaVuSans-30" transform="translate(1048.230469 0)"/>
      <use xlink:href="#DejaVuSans-29" transform="translate(1111.853516 0)"/>
     </g>
    </g>
    <g id="line2d_20">
     <path d="M 856.121525 393.513088 
L 866.121525 393.513088 
L 876.121525 393.513088 
" style="fill: none; stroke: #d62728; stroke-opacity: 0.99; stroke-width: 0.2; stroke-linecap: square"/>
    </g>
    <g id="text_22">
     <!-- 9.85 GHz (Hedef: 52.0) -->
     <g transform="translate(884.121525 397.013088) scale(0.1 -0.1)">
      <use xlink:href="#DejaVuSans-39"/>
      <use xlink:href="#DejaVuSans-2e" transform="translate(63.623047 0)"/>
      <use xlink:href="#DejaVuSans-38" transform="translate(95.410156 0)"/>
      <use xlink:href="#DejaVuSans-35" transform="translate(159.033203 0)"/>
      <use xlink:href="#DejaVuSans-20" transform="translate(222.65625 0)"/>
      <use xlink:href="#DejaVuSans-47" transform="translate(254.443359 0)"/>
      <use xlink:href="#DejaVuSans-48" transform="translate(331.933594 0)"/>
      <use xlink:href="#DejaVuSans-7a" transform="translate(407.128906 0)"/>
      <use xlink:href="#DejaVuSans-20" transform="translate(459.619141 0)"/>
      <use xlink:href="#DejaVuSans-28" transform="translate(491.40625 0)"/>
      <use xlink:href="#DejaVuSans-48" transform="translate(530.419922 0)"/>
      <use xlink:href="#DejaVuSans-65" transform="translate(605.615234 0)"/>
      <use xlink:href="#DejaVuSans-64" transform="translate(667.138672 0)"/>
      <use xlink:href="#DejaVuSans-65" transform="translate(730.615234 0)"/>
      <use xlink:href="#DejaVuSans-66" transform="translate(792.138672 0)"/>
      <use xlink:href="#DejaVuSans-3a" transform="translate(823.71875 0)"/>
      <use xlink:href="#DejaVuSans-20" transform="translate(857.410156 0)"/>
      <use xlink:href="#DejaVuSans-35" transform="translate(889.197266 0)"/>
      <use xlink:href="#DejaVuSans-32" transform="translate(952.820312 0)"/>
      <use xlink:href="#DejaVuSans-2e" transform="translate(1016.443359 0)"/>
      <use xlink:href="#DejaVuSans-30" transform="translate(1048.230469 0)"/>
      <use xlink:href="#DejaVuSans-29" transform="translate(1111.853516 0)"/>
     </g>
    </g>
    <g id="line2d_21">
     <path d="M 856.121525 408.191213 
L 866.121525 408.191213 
L 876.121525 408.191213 
" style="fill: none; stroke: #9467bd; stroke-opacity: 0.99; stroke-width: 0.2; stroke-linecap: square"/>
    </g>
    <g id="text_23">
     <!-- 9.90 GHz (Hedef: 52.0) -->
     <g transform="translate(884.121525 411.691213) scale(0.1 -0.1)">
      <use xlink:href="#DejaVuSans-39"/>
      <use xlink:href="#DejaVuSans-2e" transform="translate(63.623047 0)"/>
      <use xlink:href="#DejaVuSans-39" transform="translate(95.410156 0)"/>
      <use xlink:href="#DejaVuSans-30" transform="translate(159.033203 0)"/>
      <use xlink:href="#DejaVuSans-20" transform="translate(222.65625 0)"/>
      <use xlink:href="#DejaVuSans-47" transform="translate(254.443359 0)"/>
      <use xlink:href="#DejaVuSans-48" transform="translate(331.933594 0)"/>
      <use xlink:href="#DejaVuSans-7a" transform="translate(407.128906 0)"/>
      <use xlink:href="#DejaVuSans-20" transform="translate(459.619141 0)"/>
      <use xlink:href="#DejaVuSans-28" transform="translate(491.40625 0)"/>
      <use xlink:href="#DejaVuSans-48" transform="translate(530.419922 0)"/>
      <use xlink:href="#DejaVuSans-65" transform="translate(605.615234 0)"/>
      <use xlink:href="#DejaVuSans-64" transform="translate(667.138672 0)"/>
      <use xlink:href="#DejaVuSans-65" transform="translate(730.615234 0)"/>
      <use xlink:href="#DejaVuSans-66" transform="translate(792.138672 0)"/>
      <use xlink:href="#DejaVuSans-3a" transform="translate(823.71875 0)"/>
      <use xlink:href="#DejaVuSans-20" transform="translate(857.410156 0)"/>
      <use xlink:href="#DejaVuSans-35" transform="translate(889.197266 0)"/>
      <use xlink:href="#DejaVuSans-32" transform="translate(952.820312 0)"/>
      <use xlink:href="#DejaVuSans-2e" transform="translate(1016.443359 0)"/>
      <use xlink:href="#DejaVuSans-30" transform="translate(1048.230469 0)"/>
      <use xlink:href="#DejaVuSans-29" transform="translate(1111.853516 0)"/>
     </g>
    </g>
    <g id="line2d_22">
     <path d="M 856.121525 422.869338 
L 866.121525 422.869338 
L 876.121525 422.869338 
" style="fill: none; stroke: #8c564b; stroke-opacity: 0.99; stroke-width: 0.2; stroke-linecap: square"/>
    </g>
    <g id="text_24">
     <!-- 9.95 GHz (Hedef: 52.0) -->
     <g transform="translate(884.121525 426.369338) scale(0.1 -0.1)">
      <use xlink:href="#DejaVuSans-39"/>
      <use xlink:href="#DejaVuSans-2e" transform="translate(63.623047 0)"/>
      <use xlink:href="#DejaVuSans-39" transform="translate(95.410156 0)"/>
      <use xlink:href="#DejaVuSans-35" transform="translate(159.033203 0)"/>
      <use xlink:href="#DejaVuSans-20" transform="translate(222.65625 0)"/>
      <use xlink:href="#DejaVuSans-47" transform="translate(254.443359 0)"/>
      <use xlink:href="#DejaVuSans-48" transform="translate(331.933594 0)"/>
      <use xlink:href="#DejaVuSans-7a" transform="translate(407.128906 0)"/>
      <use xlink:href="#DejaVuSans-20" transform="translate(459.619141 0)"/>
      <use xlink:href="#DejaVuSans-28" transform="translate(491.40625 0)"/>
      <use xlink:href="#DejaVuSans-48" transform="translate(530.419922 0)"/>
      <use xlink:href="#DejaVuSans-65" transform="translate(605.615234 0)"/>
      <use xlink:href="#DejaVuSans-64" transform="translate(667.138672 0)"/>
      <use xlink:href="#DejaVuSans-65" transform="translate(730.615234 0)"/>
      <use xlink:href="#DejaVuSans-66" transform="translate(792.138672 0)"/>
      <use xlink:href="#DejaVuSans-3a" transform="translate(823.71875 0)"/>
      <use xlink:href="#DejaVuSans-20" transform="translate(857.410156 0)"/>
      <use xlink:href="#DejaVuSans-35" transform="translate(889.197266 0)"/>
      <use xlink:href="#DejaVuSans-32" transform="translate(952.820312 0)"/>
      <use xlink:href="#DejaVuSans-2e" transform="translate(1016.443359 0)"/>
      <use xlink:href="#DejaVuSans-30" transform="translate(1048.230469 0)"/>
      <use xlink:href="#DejaVuSans-29" transform="translate(1111.853516 0)"/>
     </g>
    </g>
    <g id="line2d_23">
     <path d="M 856.121525 437.547463 
L 866.121525 437.547463 
L 876.121525 437.547463 
" style="fill: none; stroke: #e377c2; stroke-opacity: 0.99; stroke-width: 0.2; stroke-linecap: square"/>
    </g>
    <g id="text_25">
     <!-- 10.00 GHz (Hedef: 51.5) -->
     <g transform="translate(884.121525 441.047463) scale(0.1 -0.1)">
      <use xlink:href="#DejaVuSans-31"/>
      <use xlink:href="#DejaVuSans-30" transform="translate(63.623047 0)"/>
      <use xlink:href="#DejaVuSans-2e" transform="translate(127.246094 0)"/>
      <use xlink:href="#DejaVuSans-30" transform="translate(159.033203 0)"/>
      <use xlink:href="#DejaVuSans-30" transform="translate(222.65625 0)"/>
      <use xlink:href="#DejaVuSans-20" transform="translate(286.279297 0)"/>
      <use xlink:href="#DejaVuSans-47" transform="translate(318.066406 0)"/>
      <use xlink:href="#DejaVuSans-48" transform="translate(395.556641 0)"/>
      <use xlink:href="#DejaVuSans-7a" transform="translate(470.751953 0)"/>
      <use xlink:href="#DejaVuSans-20" transform="translate(523.242188 0)"/>
      <use xlink:href="#DejaVuSans-28" transform="translate(555.029297 0)"/>
      <use xlink:href="#DejaVuSans-48" transform="translate(594.042969 0)"/>
      <use xlink:href="#DejaVuSans-65" transform="translate(669.238281 0)"/>
      <use xlink:href="#DejaVuSans-64" transform="translate(730.761719 0)"/>
      <use xlink:href="#DejaVuSans-65" transform="translate(794.238281 0)"/>
      <use xlink:href="#DejaVuSans-66" transform="translate(855.761719 0)"/>
      <use xlink:href="#DejaVuSans-3a" transform="translate(887.341797 0)"/>
      <use xlink:href="#DejaVuSans-20" transform="translate(921.033203 0)"/>
      <use xlink:href="#DejaVuSans-35" transform="translate(952.820312 0)"/>
      <use xlink:href="#DejaVuSans-31" transform="translate(1016.443359 0)"/>
      <use xlink:href="#DejaVuSans-2e" transform="translate(1080.066406 0)"/>
      <use xlink:href="#DejaVuSans-35" transform="translate(1111.853516 0)"/>
      <use xlink:href="#DejaVuSans-29" transform="translate(1175.476562 0)"/>
     </g>
    </g>
    <g id="line2d_24">
     <path d="M 856.121525 452.225588 
L 866.121525 452.225588 
L 876.121525 452.225588 
" style="fill: none; stroke: #7f7f7f; stroke-opacity: 0.99; stroke-width: 0.2; stroke-linecap: square"/>
    </g>
    <g id="text_26">
     <!-- 10.05 GHz (Hedef: 51.5) -->
     <g transform="translate(884.121525 455.725588) scale(0.1 -0.1)">
      <use xlink:href="#DejaVuSans-31"/>
      <use xlink:href="#DejaVuSans-30" transform="translate(63.623047 0)"/>
      <use xlink:href="#DejaVuSans-2e" transform="translate(127.246094 0)"/>
      <use xlink:href="#DejaVuSans-30" transform="translate(159.033203 0)"/>
      <use xlink:href="#DejaVuSans-35" transform="translate(222.65625 0)"/>
      <use xlink:href="#DejaVuSans-20" transform="translate(286.279297 0)"/>
      <use xlink:href="#DejaVuSans-47" transform="translate(318.066406 0)"/>
      <use xlink:href="#DejaVuSans-48" transform="translate(395.556641 0)"/>
      <use xlink:href="#DejaVuSans-7a" transform="translate(470.751953 0)"/>
      <use xlink:href="#DejaVuSans-20" transform="translate(523.242188 0)"/>
      <use xlink:href="#DejaVuSans-28" transform="translate(555.029297 0)"/>
      <use xlink:href="#DejaVuSans-48" transform="translate(594.042969 0)"/>
      <use xlink:href="#DejaVuSans-65" transform="translate(669.238281 0)"/>
      <use xlink:href="#DejaVuSans-64" transform="translate(730.761719 0)"/>
      <use xlink:href="#DejaVuSans-65" transform="translate(794.238281 0)"/>
      <use xlink:href="#DejaVuSans-66" transform="translate(855.761719 0)"/>
      <use xlink:href="#DejaVuSans-3a" transform="translate(887.341797 0)"/>
      <use xlink:href="#DejaVuSans-20" transform="translate(921.033203 0)"/>
      <use xlink:href="#DejaVuSans-35" transform="translate(952.820312 0)"/>
      <use xlink:href="#DejaVuSans-31" transform="translate(1016.443359 0)"/>
      <use xlink:href="#DejaVuSans-2e" transform="translate(1080.066406 0)"/>
      <use xlink:href="#DejaVuSans-35" transform="translate(1111.853516 0)"/>
      <use xlink:href="#DejaVuSans-29" transform="translate(1175.476562 0)"/>
     </g>
    </g>
    <g id="line2d_25">
     <path d="M 856.121525 466.903713 
L 866.121525 466.903713 
L 876.121525 466.903713 
" style="fill: none; stroke: #bcbd22; stroke-opacity: 0.99; stroke-width: 0.2; stroke-linecap: square"/>
    </g>
    <g id="text_27">
     <!-- 10.10 GHz (Hedef: 51.0) -->
     <g transform="translate(884.121525 470.403713) scale(0.1 -0.1)">
      <use xlink:href="#DejaVuSans-31"/>
      <use xlink:href="#DejaVuSans-30" transform="translate(63.623047 0)"/>
      <use xlink:href="#DejaVuSans-2e" transform="translate(127.246094 0)"/>
      <use xlink:href="#DejaVuSans-31" transform="translate(159.033203 0)"/>
      <use xlink:href="#DejaVuSans-30" transform="translate(222.65625 0)"/>
      <use xlink:href="#DejaVuSans-20" transform="translate(286.279297 0)"/>
      <use xlink:href="#DejaVuSans-47" transform="translate(318.066406 0)"/>
      <use xlink:href="#DejaVuSans-48" transform="translate(395.556641 0)"/>
      <use xlink:href="#DejaVuSans-7a" transform="translate(470.751953 0)"/>
      <use xlink:href="#DejaVuSans-20" transform="translate(523.242188 0)"/>
      <use xlink:href="#DejaVuSans-28" transform="translate(555.029297 0)"/>
      <use xlink:href="#DejaVuSans-48" transform="translate(594.042969 0)"/>
      <use xlink:href="#DejaVuSans-65" transform="translate(669.238281 0)"/>
      <use xlink:href="#DejaVuSans-64" transform="translate(730.761719 0)"/>
      <use xlink:href="#DejaVuSans-65" transform="translate(794.238281 0)"/>
      <use xlink:href="#DejaVuSans-66" transform="translate(855.761719 0)"/>
      <use xlink:href="#DejaVuSans-3a" transform="translate(887.341797 0)"/>
      <use xlink:href="#DejaVuSans-20" transform="translate(921.033203 0)"/>
      <use xlink:href="#DejaVuSans-35" transform="translate(952.820312 0)"/>
      <use xlink:href="#DejaVuSans-31" transform="translate(1016.443359 0)"/>
      <use xlink:href="#DejaVuSans-2e" transform="translate(1080.066406 0)"/>
      <use xlink:href="#DejaVuSans-30" transform="translate(1111.853516 0)"/>
      <use xlink:href="#DejaVuSans-29" transform="translate(1175.476562 0)"/>
     </g>
    </g>
    <g id="line2d_26">
     <path d="M 856.121525 481.581838 
L 866.121525 481.581838 
L 876.121525 481.581838 
" style="fill: none; stroke: #17becf; stroke-opacity: 0.99; stroke-width: 0.2; stroke-linecap: square"/>
    </g>
    <g id="text_28">
     <!-- 10.15 GHz (Hedef: 51.0) -->
     <g transform="translate(884.121525 485.081838) scale(0.1 -0.1)">
      <use xlink:href="#DejaVuSans-31"/>
      <use xlink:href="#DejaVuSans-30" transform="translate(63.623047 0)"/>
      <use xlink:href="#DejaVuSans-2e" transform="translate(127.246094 0)"/>
      <use xlink:href="#DejaVuSans-31" transform="translate(159.033203 0)"/>
      <use xlink:href="#DejaVuSans-35" transform="translate(222.65625 0)"/>
      <use xlink:href="#DejaVuSans-20" transform="translate(286.279297 0)"/>
      <use xlink:href="#DejaVuSans-47" transform="translate(318.066406 0)"/>
      <use xlink:href="#DejaVuSans-48" transform="translate(395.556641 0)"/>
      <use xlink:href="#DejaVuSans-7a" transform="translate(470.751953 0)"/>
      <use xlink:href="#DejaVuSans-20" transform="translate(523.242188 0)"/>
      <use xlink:href="#DejaVuSans-28" transform="translate(555.029297 0)"/>
      <use xlink:href="#DejaVuSans-48" transform="translate(594.042969 0)"/>
      <use xlink:href="#DejaVuSans-65" transform="translate(669.238281 0)"/>
      <use xlink:href="#DejaVuSans-64" transform="translate(730.761719 0)"/>
      <use xlink:href="#DejaVuSans-65" transform="translate(794.238281 0)"/>
      <use xlink:href="#DejaVuSans-66" transform="translate(855.761719 0)"/>
      <use xlink:href="#DejaVuSans-3a" transform="translate(887.341797 0)"/>
      <use xlink:href="#DejaVuSans-20" transform="translate(921.033203 0)"/>
      <use xlink:href="#DejaVuSans-35" transform="translate(952.820312 0)"/>
      <use xlink:href="#DejaVuSans-31" transform="translate(1016.443359 0)"/>
      <use xlink:href="#DejaVuSans-2e" transform="translate(1080.066406 0)"/>
      <use xlink:href="#DejaVuSans-30" transform="translate(1111.853516 0)"/>
      <use xlink:href="#DejaVuSans-29" transform="translate(1175.476562 0)"/>
     </g>
    </g>
    <g id="line2d_27">
     <path d="M 856.121525 496.259963 
L 866.121525 496.259963 
L 876.121525 496.259963 
" style="fill: none; stroke: #1f77b4; stroke-opacity: 0.99; stroke-width: 0.2; stroke-linecap: square"/>
    </g>
    <g id="text_29">
     <!-- 10.20 GHz (Hedef: 50.5) -->
     <g transform="translate(884.121525 499.759963) scale(0.1 -0.1)">
      <use xlink:href="#DejaVuSans-31"/>
      <use xlink:href="#DejaVuSans-30" transform="translate(63.623047 0)"/>
      <use xlink:href="#DejaVuSans-2e" transform="translate(127.246094 0)"/>
      <use xlink:href="#DejaVuSans-32" transform="translate(159.033203 0)"/>
      <use xlink:href="#DejaVuSans-30" transform="translate(222.65625 0)"/>
      <use xlink:href="#DejaVuSans-20" transform="translate(286.279297 0)"/>
      <use xlink:href="#DejaVuSans-47" transform="translate(318.066406 0)"/>
      <use xlink:href="#DejaVuSans-48" transform="translate(395.556641 0)"/>
      <use xlink:href="#DejaVuSans-7a" transform="translate(470.751953 0)"/>
      <use xlink:href="#DejaVuSans-20" transform="translate(523.242188 0)"/>
      <use xlink:href="#DejaVuSans-28" transform="translate(555.029297 0)"/>
      <use xlink:href="#DejaVuSans-48" transform="translate(594.042969 0)"/>
      <use xlink:href="#DejaVuSans-65" transform="translate(669.238281 0)"/>
      <use xlink:href="#DejaVuSans-64" transform="translate(730.761719 0)"/>
      <use xlink:href="#DejaVuSans-65" transform="translate(794.238281 0)"/>
      <use xlink:href="#DejaVuSans-66" transform="translate(855.761719 0)"/>
      <use xlink:href="#DejaVuSans-3a" transform="translate(887.341797 0)"/>
      <use xlink:href="#DejaVuSans-20" transform="translate(921.033203 0)"/>
      <use xlink:href="#DejaVuSans-35" transform="translate(952.820312 0)"/>
      <use xlink:href="#DejaVuSans-30" transform="translate(1016.443359 0)"/>
      <use xlink:href="#DejaVuSans-2e" transform="translate(1080.066406 0)"/>
      <use xlink:href="#DejaVuSans-35" transform="translate(1111.853516 0)"/>
      <use xlink:href="#DejaVuSans-29" transform="translate(1175.476562 0)"/>
     </g>
    </g>
    <g id="line2d_28">
     <path d="M 856.121525 510.938088 
L 866.121525 510.938088 
L 876.121525 510.938088 
" style="fill: none; stroke: #ff7f0e; stroke-opacity: 0.99; stroke-width: 0.2; stroke-linecap: square"/>
    </g>
    <g id="text_30">
     <!-- 10.25 GHz (Hedef: 50.5) -->
     <g transform="translate(884.121525 514.438088) scale(0.1 -0.1)">
      <use xlink:href="#DejaVuSans-31"/>
      <use xlink:href="#DejaVuSans-30" transform="translate(63.623047 0)"/>
      <use xlink:href="#DejaVuSans-2e" transform="translate(127.246094 0)"/>
      <use xlink:href="#DejaVuSans-32" transform="translate(159.033203 0)"/>
      <use xlink:href="#DejaVuSans-35" transform="translate(222.65625 0)"/>
      <use xlink:href="#DejaVuSans-20" transform="translate(286.279297 0)"/>
      <use xlink:href="#DejaVuSans-47" transform="translate(318.066406 0)"/>
      <use xlink:href="#DejaVuSans-48" transform="translate(395.556641 0)"/>
      <use xlink:href="#DejaVuSans-7a" transform="translate(470.751953 0)"/>
      <use xlink:href="#DejaVuSans-20" transform="translate(523.242188 0)"/>
      <use xlink:href="#DejaVuSans-28" transform="translate(555.029297 0)"/>
      <use xlink:href="#DejaVuSans-48" transform="translate(594.042969 0)"/>
      <use xlink:href="#DejaVuSans-65" transform="translate(669.238281 0)"/>
      <use xlink:href="#DejaVuSans-64" transform="translate(730.761719 0)"/>
      <use xlink:href="#DejaVuSans-65" transform="translate(794.238281 0)"/>
      <use xlink:href="#DejaVuSans-66" transform="translate(855.761719 0)"/>
      <use xlink:href="#DejaVuSans-3a" transform="translate(887.341797 0)"/>
      <use xlink:href="#DejaVuSans-20" transform="translate(921.033203 0)"/>
      <use xlink:href="#DejaVuSans-35" transform="translate(952.820312 0)"/>
      <use xlink:href="#DejaVuSans-30" transform="translate(1016.443359 0)"/>
      <use xlink:href="#DejaVuSans-2e" transform="translate(1080.066406 0)"/>
      <use xlink:href="#DejaVuSans-35" transform="translate(1111.853516 0)"/>
      <use xlink:href="#DejaVuSans-29" transform="translate(1175.476562 0)"/>
     </g>
    </g>
    <g id="line2d_29">
     <path d="M 856.121525 525.616213 
L 866.121525 525.616213 
L 876.121525 525.616213 
" style="fill: none; stroke: #000000; stroke-width: 1.5; stroke-linecap: square"/>
     <defs>
      <path id="m271a4b5584" d="M -0.025 0.05 
L 0 0.025 
L 0.025 0.05 
L 0.05 0.025 
L 0.025 0 
L 0.05 -0.025 
L 0.025 -0.05 
L 0 -0.025 
L -0.025 -0.05 
L -0.05 -0.025 
L -0.025 0 
L -0.05 0.025 
z
" style="stroke: #000000; stroke-linejoin: miter"/>
     </defs>
     <g>
      <use xlink:href="#m271a4b5584" x="866.121525" y="525.616213" style="stroke: #000000; stroke-linejoin: miter"/>
     </g>
    </g>
    <g id="text_31">
     <!-- Optimum Target -->
     <g transform="translate(884.121525 529.116213) scale(0.1 -0.1)">
      <use xlink:href="#DejaVuSans-4f"/>
      <use xlink:href="#DejaVuSans-70" transform="translate(78.710938 0)"/>
      <use xlink:href="#DejaVuSans-74" transform="translate(142.1875 0)"/>
      <use xlink:href="#DejaVuSans-69" transform="translate(181.396484 0)"/>
      <use xlink:href="#DejaVuSans-6d" transform="translate(209.179688 0)"/>
      <use xlink:href="#DejaVuSans-75" transform="translate(306.591797 0)"/>
      <use xlink:href="#DejaVuSans-6d" transform="translate(369.970703 0)"/>
      <use xlink:href="#DejaVuSans-20" transform="translate(467.382812 0)"/>
      <use xlink:href="#DejaVuSans-54" transform="translate(499.169922 0)"/>
      <use xlink:href="#DejaVuSans-61" transform="translate(543.753906 0)"/>
      <use xlink:href="#DejaVuSans-72" transform="translate(605.033203 0)"/>
      <use xlink:href="#DejaVuSans-67" transform="translate(644.396484 0)"/>
      <use xlink:href="#DejaVuSans-65" transform="translate(707.873047 0)"/>
      <use xlink:href="#DejaVuSans-74" transform="translate(769.396484 0)"/>
     </g>
    </g>
   </g>
   <g id="patch_28">
    <path d="M 171.709291 505.899617 
L 172.385498 505.569558 
L 172.665972 505.899617 
L 170.467813 507.444014 
z
" clip-path="url(#pd3849926f5)" style="fill: #ff0000; opacity: 0.6; stroke: #ff0000; stroke-linejoin: miter"/>
   </g>
   <g id="line2d_30">
    <path d="M 171.709291 505.899617 
L 172.385498 505.569558 
L 172.665972 505.899617 
L 170.467813 507.444014 
L 171.709291 505.899617 
" clip-path="url(#pd3849926f5)" style="fill: none; stroke-dasharray: 0.74,0.32; stroke-dashoffset: 0; stroke: #000000; stroke-width: 0.2"/>
   </g>
   <g id="line2d_31">
    <path d="M 171.726916 506.304396 
" clip-path="url(#pd3849926f5)" style="fill: none; stroke: #000000; stroke-width: 1.5; stroke-linecap: square"/>
    <g clip-path="url(#pd3849926f5)">
     <use xlink:href="#m271a4b5584" x="171.726916" y="506.304396" style="stroke: #000000; stroke-linejoin: miter"/>
    </g>
   </g>
  </g>
 </g>
 <defs>
  <clipPath id="pd3849926f5">
   <rect x="23.103125" y="34.3575" width="807.861176" height="807.861176"/>
  </clipPath>
  <clipPath id="pd014a3e563">
   <path d="M 427.033713 834.298469 
C 532.056894 834.298469 632.792736 792.572317 707.055339 718.309714 
C 781.317942 644.047111 823.044094 543.311269 823.044094 438.288088 
C 823.044094 333.264908 781.317942 232.529066 707.055339 158.266463 
C 632.792736 84.00386 532.056894 42.277708 427.033713 42.277708 
C 322.010533 42.277708 221.274691 84.00386 147.012088 158.266463 
C 72.749485 232.529066 31.023333 333.264908 31.023333 438.288088 
C 31.023333 543.311269 72.749485 644.047111 147.012088 718.309714 
C 221.274691 792.572317 322.010533 834.298469 427.033713 834.298469 
z
"/>
  </clipPath>
 </defs>
</svg>
