<?xml version="1.0" encoding="utf-8" standalone="no"?>
<!DOCTYPE svg PUBLIC "-//W3C//DTD SVG 1.1//EN"
  "http://www.w3.org/Graphics/SVG/1.1/DTD/svg11.dtd">
<svg xmlns:xlink="http://www.w3.org/1999/xlink" width="1023.134025pt" height="855.136698pt" viewBox="0 0 1023.134025 855.136698" xmlns="http://www.w3.org/2000/svg" version="1.1">
 <metadata>
  <rdf:RDF xmlns:dc="http://purl.org/dc/elements/1.1/" xmlns:cc="http://creativecommons.org/ns#" xmlns:rdf="http://www.w3.org/1999/02/22-rdf-syntax-ns#">
   <cc:Work>
    <dc:type rdf:resource="http://purl.org/dc/dcmitype/StillImage"/>
    <dc:date>2026-02-16T01:20:43.747615</dc:date>
    <dc:format>image/svg+xml</dc:format>
    <dc:creator>
     <cc:Agent>
      <dc:title>Matplotlib v3.10.8, https://matplotlib.org/</dc:title>
     </cc:Agent>
    </dc:creator>
   </cc:Work>
  </rdf:RDF>
 </metadata>
 <defs>
  <style type="text/css">*{stroke-linejoin: round; stroke-linecap: butt}</style>
 </defs>
 <g id="figure_1">
  <g id="patch_1">
   <path d="M 0 855.136698 
L 1023.134025 855.136698 
L 1023.134025 0 
L 0 0 
z
" style="fill: #ffffff"/>
  </g>
  <g id="axes_1">
   <g id="patch_2">
    <path d="M 23.103125 842.218676 
L 830.964301 842.218676 
L 830.964301 34.3575 
L 23.103125 34.3575 
z
" style="fill: #ffffff"/>
   </g>
   <g id="patch_3">
    <path d="M 427.033713 834.298469 
C 532.056894 834.298469 632.792736 792.572317 707.055339 718.309714 
C 781.317942 644.047111 823.044094 543.311269 823.044094 438.288088 
C 823.044094 333.264908 781.317942 232.529066 707.055339 158.266463 
C 632.792736 84.00386 532.056894 42.277708 427.033713 42.277708 
C 322.010533 42.277708 221.274691 84.00386 147.012088 158.266463 
C 72.749485 232.529066 31.023333 333.264908 31.023333 438.288088 
C 31.023333 543.311269 72.749485 644.047111 147.012088 718.309714 
C 221.274691 792.572317 322.010533 834.298469 427.033713 834.298469 
L 427.033713 834.298469 
z
" clip-path="url(#pbea384bbfe)" style="fill: none; stroke: #000000; stroke-linejoin: miter"/>
   </g>
   <g id="patch_4">
    <path d="M 493.035443 768.296739 
C 580.55476 768.296739 664.501295 733.524946 726.386798 671.639443 
C 788.272301 609.75394 823.044094 525.807405 823.044094 438.288088 
C 823.044094 350.768771 788.272301 266.822236 726.386798 204.936734 
C 664.501295 143.051231 580.55476 108.279438 493.035443 108.279438 
C 405.516126 108.279438 321.569591 143.051231 259.684089 204.936734 
C 197.798586 266.822236 163.026793 350.768771 163.026793 438.288088 
C 163.026793 525.807405 197.798586 609.75394 259.684089 671.639443 
C 321.569591 733.524946 405.516126 768.296739 493.035443 768.296739 
L 493.035443 768.296739 
z
" clip-path="url(#p565f2b6acb)" style="fill: none; stroke: #808080; stroke-linejoin: miter"/>
   </g>
   <g id="patch_5">
    <path d="M 559.037173 702.295009 
C 629.052627 702.295009 696.209855 674.477574 745.718257 624.969172 
C 795.226659 575.46077 823.044094 508.303542 823.044094 438.288088 
C 823.044094 368.272635 795.226659 301.115407 745.718257 251.607005 
C 696.209855 202.098602 629.052627 174.281168 559.037173 174.281168 
C 489.02172 174.281168 421.864492 202.098602 372.35609 251.607005 
C 322.847688 301.115407 295.030253 368.272635 295.030253 438.288088 
C 295.030253 508.303542 322.847688 575.46077 372.35609 624.969172 
C 421.864492 674.477574 489.02172 702.295009 559.037173 702.295009 
L 559.037173 702.295009 
z
" clip-path="url(#p565f2b6acb)" style="fill: none; stroke: #808080; stroke-linejoin: miter"/>
   </g>
   <g id="patch_6">
    <path d="M 625.038904 636.293279 
C 677.550494 636.293279 727.918415 615.430203 765.049716 578.298901 
C 802.181018 541.167599 823.044094 490.799679 823.044094 438.288088 
C 823.044094 385.776498 802.181018 335.408577 765.049716 298.277275 
C 727.918415 261.145974 677.550494 240.282898 625.038904 240.282898 
C 572.527313 240.282898 522.159392 261.145974 485.028091 298.277275 
C 447.896789 335.408577 427.033713 385.776498 427.033713 438.288088 
C 427.033713 490.799679 447.896789 541.167599 485.028091 578.298901 
C 522.159392 615.430203 572.527313 636.293279 625.038904 636.293279 
L 625.038904 636.293279 
z
" clip-path="url(#p565f2b6acb)" style="fill: none; stroke: #808080; stroke-linejoin: miter"/>
   </g>
   <g id="patch_7">
    <path d="M 691.040634 570.291548 
C 726.048361 570.291548 759.626974 556.382831 784.381176 531.62863 
C 809.135377 506.874429 823.044094 473.295815 823.044094 438.288088 
C 823.044094 403.280361 809.135377 369.701747 784.381176 344.947546 
C 759.626974 320.193345 726.048361 306.284628 691.040634 306.284628 
C 656.032907 306.284628 622.454293 320.193345 597.700092 344.947546 
C 572.945891 369.701747 559.037173 403.280361 559.037173 438.288088 
C 559.037173 473.295815 572.945891 506.874429 597.700092 531.62863 
C 622.454293 556.382831 656.032907 570.291548 691.040634 570.291548 
L 691.040634 570.291548 
z
" clip-path="url(#p565f2b6acb)" style="fill: none; stroke: #808080; stroke-linejoin: miter"/>
   </g>
   <g id="patch_8">
    <path d="M 757.042364 504.289818 
C 774.546227 504.289818 791.335534 497.33546 803.712635 484.958359 
C 816.089735 472.581259 823.044094 455.791952 823.044094 438.288088 
C 823.044094 420.784225 816.089735 403.994918 803.712635 391.617817 
C 791.335534 379.240717 774.546227 372.286358 757.042364 372.286358 
C 739.5385 372.286358 722.749193 379.240717 710.372093 391.617817 
C 697.994992 403.994918 691.040634 420.784225 691.040634 438.288088 
C 691.040634 455.791952 697.994992 472.581259 710.372093 484.958359 
C 722.749193 497.33546 739.5385 504.289818 757.042364 504.289818 
L 757.042364 504.289818 
z
" clip-path="url(#p565f2b6acb)" style="fill: none; stroke: #808080; stroke-linejoin: miter"/>
   </g>
   <g id="patch_9">
    <path d="M 823.044094 438.288088 
C 1348.159997 438.288088 1851.839206 229.657329 2223.152222 -141.655687 
C 2594.465237 -512.968703 2803.095997 -1016.647912 2803.095997 -1541.763815 
C 2803.095997 -2066.879718 2594.465237 -2570.558927 2223.152222 -2941.871943 
C 1851.839206 -3313.184958 1348.159997 -3521.815718 823.044094 -3521.815718 
C 297.928191 -3521.815718 -205.751018 -3313.184958 -577.064034 -2941.871943 
C -948.37705 -2570.558927 -1157.007809 -2066.879718 -1157.007809 -1541.763815 
C -1157.007809 -1016.647912 -948.37705 -512.968703 -577.064034 -141.655687 
C -205.751018 229.657329 297.928191 438.288088 823.044094 438.288088 
L 823.044094 438.288088 
z
" clip-path="url(#p565f2b6acb)" style="fill: none; stroke: #808080; stroke-linejoin: miter"/>
   </g>
   <g id="patch_10">
    <path d="M 823.044094 438.288088 
C 1033.090455 438.288088 1234.562139 354.835784 1383.087345 206.310578 
C 1531.612551 57.785372 1615.064855 -143.686312 1615.064855 -353.732673 
C 1615.064855 -563.779034 1531.612551 -765.250718 1383.087345 -913.775924 
C 1234.562139 -1062.30113 1033.090455 -1145.753434 823.044094 -1145.753434 
C 612.997733 -1145.753434 411.526049 -1062.30113 263.000843 -913.775924 
C 114.475636 -765.250718 31.023333 -563.779034 31.023333 -353.732673 
C 31.023333 -143.686312 114.475636 57.785372 263.000843 206.310578 
C 411.526049 354.835784 612.997733 438.288088 823.044094 438.288088 
L 823.044094 438.288088 
z
" clip-path="url(#p565f2b6acb)" style="fill: none; stroke: #808080; stroke-linejoin: miter"/>
   </g>
   <g id="patch_11">
    <path d="M 823.044094 438.288088 
C 928.067274 438.288088 1028.803116 396.561936 1103.065719 322.299333 
C 1177.328323 248.03673 1219.054474 147.300888 1219.054474 42.277708 
C 1219.054474 -62.745473 1177.328323 -163.481315 1103.065719 -237.743918 
C 1028.803116 -312.006521 928.067274 -353.732673 823.044094 -353.732673 
C 718.020913 -353.732673 617.285071 -312.006521 543.022468 -237.743918 
C 468.759865 -163.481315 427.033713 -62.745473 427.033713 42.277708 
C 427.033713 147.300888 468.759865 248.03673 543.022468 322.299333 
C 617.285071 396.561936 718.020913 438.288088 823.044094 438.288088 
L 823.044094 438.288088 
z
" clip-path="url(#p565f2b6acb)" style="fill: none; stroke: #808080; stroke-linejoin: miter"/>
   </g>
   <g id="patch_12">
    <path d="M 823.044094 438.288088 
C 875.555684 438.288088 925.923605 417.425012 963.054907 380.293711 
C 1000.186208 343.162409 1021.049284 292.794488 1021.049284 240.282898 
C 1021.049284 187.771308 1000.186208 137.403387 963.054907 100.272085 
C 925.923605 63.140784 875.555684 42.277708 823.044094 42.277708 
C 770.532504 42.277708 720.164583 63.140784 683.033281 100.272085 
C 645.901979 137.403387 625.038904 187.771308 625.038904 240.282898 
C 625.038904 292.794488 645.901979 343.162409 683.033281 380.293711 
C 720.164583 417.425012 770.532504 438.288088 823.044094 438.288088 
L 823.044094 438.288088 
z
" clip-path="url(#p565f2b6acb)" style="fill: none; stroke: #808080; stroke-linejoin: miter"/>
   </g>
   <g id="patch_13">
    <path d="M 823.044094 438.288088 
C 844.04873 438.288088 864.195898 429.942858 879.048419 415.090337 
C 893.90094 400.237817 902.24617 380.090648 902.24617 359.086012 
C 902.24617 338.081376 893.90094 317.934208 879.048419 303.081687 
C 864.195898 288.229166 844.04873 279.883936 823.044094 279.883936 
C 802.039458 279.883936 781.892289 288.229166 767.039769 303.081687 
C 752.187248 317.934208 743.842018 338.081376 743.842018 359.086012 
C 743.842018 380.090648 752.187248 400.237817 767.039769 415.090337 
C 781.892289 429.942858 802.039458 438.288088 823.044094 438.288088 
L 823.044094 438.288088 
z
" clip-path="url(#p565f2b6acb)" style="fill: none; stroke: #808080; stroke-linejoin: miter"/>
   </g>
   <g id="patch_14">
    <path d="M 823.044094 438.288088 
C 297.928191 438.288088 -205.751018 646.918848 -577.064034 1018.231864 
C -948.37705 1389.544879 -1157.007809 1893.224088 -1157.007809 2418.339991 
C -1157.007809 2943.455894 -948.37705 3447.135103 -577.064034 3818.448119 
C -205.751018 4189.761135 297.928191 4398.391894 823.044094 4398.391894 
C 1348.159997 4398.391894 1851.839206 4189.761135 2223.152222 3818.448119 
C 2594.465237 3447.135103 2803.095997 2943.455894 2803.095997 2418.339991 
C 2803.095997 1893.224088 2594.465237 1389.544879 2223.152222 1018.231864 
C 1851.839206 646.918848 1348.159997 438.288088 823.044094 438.288088 
L 823.044094 438.288088 
z
" clip-path="url(#p565f2b6acb)" style="fill: none; stroke: #808080; stroke-linejoin: miter"/>
   </g>
   <g id="patch_15">
    <path d="M 823.044094 438.288088 
C 612.997733 438.288088 411.526049 521.740392 263.000843 670.265598 
C 114.475636 818.790805 31.023333 1020.262488 31.023333 1230.308849 
C 31.023333 1440.355211 114.475636 1641.826894 263.000843 1790.352101 
C 411.526049 1938.877307 612.997733 2022.329611 823.044094 2022.329611 
C 1033.090455 2022.329611 1234.562139 1938.877307 1383.087345 1790.352101 
C 1531.612551 1641.826894 1615.064855 1440.355211 1615.064855 1230.308849 
C 1615.064855 1020.262488 1531.612551 818.790805 1383.087345 670.265598 
C 1234.562139 521.740392 1033.090455 438.288088 823.044094 438.288088 
L 823.044094 438.288088 
z
" clip-path="url(#p565f2b6acb)" style="fill: none; stroke: #808080; stroke-linejoin: miter"/>
   </g>
   <g id="patch_16">
    <path d="M 823.044094 438.288088 
C 718.020913 438.288088 617.285071 480.01424 543.022468 554.276843 
C 468.759865 628.539446 427.033713 729.275288 427.033713 834.298469 
C 427.033713 939.321649 468.759865 1040.057491 543.022468 1114.320094 
C 617.285071 1188.582698 718.020913 1230.308849 823.044094 1230.308849 
C 928.067274 1230.308849 1028.803116 1188.582698 1103.065719 1114.320094 
C 1177.328323 1040.057491 1219.054474 939.321649 1219.054474 834.298469 
C 1219.054474 729.275288 1177.328323 628.539446 1103.065719 554.276843 
C 1028.803116 480.01424 928.067274 438.288088 823.044094 438.288088 
L 823.044094 438.288088 
z
" clip-path="url(#p565f2b6acb)" style="fill: none; stroke: #808080; stroke-linejoin: miter"/>
   </g>
   <g id="patch_17">
    <path d="M 823.044094 438.288088 
C 770.532504 438.288088 720.164583 459.151164 683.033281 496.282466 
C 645.901979 533.413767 625.038904 583.781688 625.038904 636.293279 
C 625.038904 688.804869 645.901979 739.17279 683.033281 776.304091 
C 720.164583 813.435393 770.532504 834.298469 823.044094 834.298469 
C 875.555684 834.298469 925.923605 813.435393 963.054907 776.304091 
C 1000.186208 739.17279 1021.049284 688.804869 1021.049284 636.293279 
C 1021.049284 583.781688 1000.186208 533.413767 963.054907 496.282466 
C 925.923605 459.151164 875.555684 438.288088 823.044094 438.288088 
L 823.044094 438.288088 
z
" clip-path="url(#p565f2b6acb)" style="fill: none; stroke: #808080; stroke-linejoin: miter"/>
   </g>
   <g id="patch_18">
    <path d="M 823.044094 438.288088 
C 802.039458 438.288088 781.892289 446.633319 767.039769 461.485839 
C 752.187248 476.33836 743.842018 496.485528 743.842018 517.490164 
C 743.842018 538.4948 752.187248 558.641969 767.039769 573.494489 
C 781.892289 588.34701 802.039458 596.69224 823.044094 596.69224 
C 844.04873 596.69224 864.195898 588.34701 879.048419 573.494489 
C 893.90094 558.641969 902.24617 538.4948 902.24617 517.490164 
C 902.24617 496.485528 893.90094 476.33836 879.048419 461.485839 
C 864.195898 446.633319 844.04873 438.288088 823.044094 438.288088 
L 823.044094 438.288088 
z
" clip-path="url(#p565f2b6acb)" style="fill: none; stroke: #808080; stroke-linejoin: miter"/>
   </g>
   <g id="patch_19">
    <path d="M 427.033713 834.298469 
C 532.056894 834.298469 632.792736 792.572317 707.055339 718.309714 
C 781.317942 644.047111 823.044094 543.311269 823.044094 438.288088 
C 823.044094 333.264908 781.317942 232.529066 707.055339 158.266463 
C 632.792736 84.00386 532.056894 42.277708 427.033713 42.277708 
C 322.010533 42.277708 221.274691 84.00386 147.012088 158.266463 
C 72.749485 232.529066 31.023333 333.264908 31.023333 438.288088 
C 31.023333 543.311269 72.749485 644.047111 147.012088 718.309714 
C 221.274691 792.572317 322.010533 834.298469 427.033713 834.298469 
L 427.033713 834.298469 
z
" clip-path="url(#p565f2b6acb)" style="fill: none; stroke: #000000; stroke-linejoin: miter"/>
   </g>
   <g id="patch_20">
    <path d="M 625.038904 636.293279 
C 677.550494 636.293279 727.918415 615.430203 765.049716 578.298901 
C 802.181018 541.167599 823.044094 490.799679 823.044094 438.288088 
C 823.044094 385.776498 802.181018 335.408577 765.049716 298.277275 
C 727.918415 261.145974 677.550494 240.282898 625.038904 240.282898 
C 572.527313 240.282898 522.159392 261.145974 485.028091 298.277275 
C 447.896789 335.408577 427.033713 385.776498 427.033713 438.288088 
C 427.033713 490.799679 447.896789 541.167599 485.028091 578.298901 
C 522.159392 615.430203 572.527313 636.293279 625.038904 636.293279 
L 625.038904 636.293279 
z
" clip-path="url(#p565f2b6acb)" style="fill: none; stroke: #000000; stroke-linejoin: miter"/>
   </g>
   <g id="patch_21">
    <path d="M 823.044094 438.288088 
C 928.067274 438.288088 1028.803116 396.561936 1103.065719 322.299333 
C 1177.328323 248.03673 1219.054474 147.300888 1219.054474 42.277708 
C 1219.054474 -62.745473 1177.328323 -163.481315 1103.065719 -237.743918 
C 1028.803116 -312.006521 928.067274 -353.732673 823.044094 -353.732673 
C 718.020913 -353.732673 617.285071 -312.006521 543.022468 -237.743918 
C 468.759865 -163.481315 427.033713 -62.745473 427.033713 42.277708 
C 427.033713 147.300888 468.759865 248.03673 543.022468 322.299333 
C 617.285071 396.561936 718.020913 438.288088 823.044094 438.288088 
L 823.044094 438.288088 
z
" clip-path="url(#p565f2b6acb)" style="fill: none; stroke: #000000; stroke-linejoin: miter"/>
   </g>
   <g id="patch_22">
    <path d="M 823.044094 438.288088 
C 718.020913 438.288088 617.285071 480.01424 543.022468 554.276843 
C 468.759865 628.539446 427.033713 729.275288 427.033713 834.298469 
C 427.033713 939.321649 468.759865 1040.057491 543.022468 1114.320094 
C 617.285071 1188.582698 718.020913 1230.308849 823.044094 1230.308849 
C 928.067274 1230.308849 1028.803116 1188.582698 1103.065719 1114.320094 
C 1177.328323 1040.057491 1219.054474 939.321649 1219.054474 834.298469 
C 1219.054474 729.275288 1177.328323 628.539446 1103.065719 554.276843 
C 1028.803116 480.01424 928.067274 438.288088 823.044094 438.288088 
L 823.044094 438.288088 
z
" clip-path="url(#p565f2b6acb)" style="fill: none; stroke: #000000; stroke-linejoin: miter"/>
   </g>
   <g id="matplotlib.axis_1"/>
   <g id="matplotlib.axis_2"/>
   <g id="line2d_1">
    <path d="M 23.103125 438.288088 
L 830.964301 438.288088 
" clip-path="url(#p565f2b6acb)" style="fill: none; stroke: #000000; stroke-width: 0.1; stroke-linecap: square"/>
   </g>
   <g id="line2d_2">
    <path d="M 823.044094 842.218676 
L 823.044094 34.3575 
" clip-path="url(#p565f2b6acb)" style="fill: none; stroke: #000000; stroke-width: 1.5; stroke-linecap: square"/>
   </g>
   <g id="line2d_3"/>
   <g id="line2d_4"/>
   <g id="line2d_5">
    <path d="M 428.154883 641.122673 
L 433.240038 637.670208 
L 436.692503 635.24844 
L 446.163098 631.275689 
L 446.840796 630.97438 
L 456.010083 626.989416 
L 460.496496 626.291507 
L 472.943859 624.188897 
L 475.327662 623.809397 
L 477.340265 623.817697 
L 492.555717 623.894619 
L 494.645242 623.90322 
L 497.133417 624.293269 
L 509.324863 626.443052 
L 513.962821 627.137115 
L 522.344633 630.186905 
L 524.17307 630.912424 
L 533.280401 633.899926 
L 537.57145 636.831624 
L 544.778099 641.122673 
L 549.234162 644.486492 
L 552.59798 646.598318 
L 558.812283 654.22595 
L 564.172367 660.440253 
L 567.058931 665.296882 
L 571.91556 672.407975 
L 573.97124 677.702153 
L 574.71481 679.757833 
L 575.699817 683.542089 
L 577.872727 693.118245 
L 579.569889 699.075412 
L 582.359892 707.948659 
L 583.032162 710.192015 
L 585.553528 718.392992 
L 586.166053 723.460078 
L 585.042956 731.520388 
L 585.509268 737.710571 
L 580.17913 745.974142 
L 579.654169 749.289542 
L 576.941822 757.028151 
L 574.143798 759.256389 
L 571.91556 761.438858 
L 564.24005 764.70366 
L 561.145249 765.575419 
L 552.59798 771.634912 
L 548.66884 772.41659 
L 543.050035 776.34573 
L 535.450617 778.515946 
L 533.280401 779.702752 
L 529.481566 780.144565 
L 516.31343 778.696339 
L 513.962821 779.157914 
L 511.271076 779.037475 
L 498.383166 776.34573 
L 496.454528 774.536444 
L 494.645242 772.168038 
L 492.841501 774.54199 
L 492.600408 776.34573 
L 480.651912 781.669981 
L 475.327662 783.919733 
L 468.175821 788.511468 
L 457.84418 793.829213 
L 456.010083 794.837285 
L 455.117374 794.770601 
L 440.690499 791.665314 
L 436.692503 791.44543 
L 430.532089 789.502896 
L 425.467814 787.57042 
L 417.374923 785.468895 
L 411.73765 781.983004 
L 399.810841 776.34573 
L 399.506975 774.896099 
L 398.057344 772.275016 
L 394.186708 760.898786 
L 391.848795 757.028151 
L 391.607661 750.578468 
L 392.118417 743.649498 
L 391.838438 737.710571 
L 391.406821 731.060048 
L 391.405404 725.044931 
L 390.909552 718.392992 
L 390.929549 711.265196 
L 391.263944 705.868812 
L 391.285392 699.075412 
L 392.593101 693.611169 
L 395.724394 682.090783 
L 396.312774 679.757833 
L 396.841157 678.541645 
L 398.057344 675.885875 
L 404.47449 666.8574 
L 408.825432 660.440253 
L 412.804105 655.869434 
L 417.374923 650.281309 
L 422.484579 646.232329 
L 428.154883 641.122673 
" clip-path="url(#pbea384bbfe)" style="fill: none; stroke: #1f77b4; stroke-opacity: 0.99; stroke-width: 0.2; stroke-linecap: square"/>
   </g>
   <g id="line2d_6">
    <path d="M 446.997077 660.440253 
L 452.134041 656.564212 
L 456.010083 653.215367 
L 464.610193 649.722784 
L 468.606392 647.843944 
L 475.327662 644.853846 
L 478.611067 644.406078 
L 493.776059 641.991857 
L 494.645242 641.868464 
L 495.437249 641.91468 
L 512.042414 643.04308 
L 513.962821 643.152879 
L 516.286791 643.446643 
L 528.523881 645.879193 
L 533.280401 646.38844 
L 542.881077 650.839577 
L 543.057647 650.89992 
L 552.59798 654.643074 
L 555.54587 657.492363 
L 559.034047 660.440253 
L 564.480707 667.875105 
L 571.91556 675.619345 
L 573.214723 678.458669 
L 573.829258 679.757833 
L 574.995683 682.837956 
L 578.064974 692.925997 
L 581.027744 699.075412 
L 584.999283 705.309268 
L 591.233139 713.024612 
L 592.643472 716.982659 
L 592.987282 718.392992 
L 592.617234 719.777087 
L 592.936552 736.007158 
L 592.649327 737.710571 
L 591.935023 738.412455 
L 591.233139 739.65716 
L 582.690899 748.485911 
L 579.364701 757.028151 
L 574.89557 760.008161 
L 571.91556 762.689703 
L 564.806233 764.137478 
L 559.642809 764.072979 
L 552.59798 766.576447 
L 543.917187 765.708944 
L 540.293945 764.041695 
L 533.280401 762.658178 
L 527.962258 762.346293 
L 518.21361 757.028151 
L 520.291813 750.699159 
L 522.240654 745.988404 
L 524.345924 737.710571 
L 521.875629 729.797764 
L 513.962821 722.666843 
L 507.502844 724.852969 
L 502.691226 726.438976 
L 494.645242 729.235155 
L 489.458697 732.524026 
L 482.971222 737.710571 
L 489.440365 742.915448 
L 494.645242 750.821556 
L 498.438996 753.234396 
L 503.34313 757.028151 
L 498.15564 760.538549 
L 494.645242 775.069722 
L 494.504133 776.204622 
L 494.52394 776.34573 
L 480.800755 781.818823 
L 475.327662 783.464252 
L 466.027451 786.363099 
L 465.069351 786.604042 
L 456.010083 789.179904 
L 446.957149 785.398664 
L 445.298376 784.951603 
L 436.692503 782.037353 
L 433.178242 779.859991 
L 426.392711 776.34573 
L 425.227301 768.493353 
L 422.420563 762.073791 
L 421.168539 757.028151 
L 422.063719 752.339355 
L 422.206804 742.542452 
L 423.64339 737.710571 
L 422.680347 732.405147 
L 418.664762 719.68283 
L 418.370673 718.392992 
L 418.397933 717.369982 
L 418.932881 700.63337 
L 418.973946 699.075412 
L 420.994336 695.455999 
L 425.431373 687.814282 
L 429.494079 679.757833 
L 432.598996 675.664326 
L 436.692503 669.782802 
L 441.836706 665.584456 
L 446.997077 660.440253 
" clip-path="url(#pbea384bbfe)" style="fill: none; stroke: #ff7f0e; stroke-opacity: 0.99; stroke-width: 0.2; stroke-linecap: square"/>
   </g>
   <g id="line2d_7">
    <path d="M 497.8524 641.122673 
L 512.622036 639.781888 
L 513.962821 639.675682 
L 515.249307 639.836187 
L 530.81202 641.122673 
L 533.017996 641.385078 
L 533.280401 641.401451 
L 533.70077 641.543043 
L 547.114342 646.606312 
L 552.59798 648.240016 
L 560.007227 653.031007 
L 570.390348 658.915041 
L 571.91556 659.809963 
L 572.219097 660.136716 
L 572.501422 660.440253 
L 573.161125 661.685818 
L 578.853589 672.819804 
L 582.826994 679.757833 
L 585.32039 685.670582 
L 591.233139 693.313279 
L 592.82828 697.480271 
L 593.713005 699.075412 
L 600.985737 708.640394 
L 601.290929 709.133202 
L 607.286974 718.392992 
L 607.182425 721.761285 
L 604.319224 731.479077 
L 604.208535 737.710571 
L 596.237471 742.714903 
L 591.233139 749.267595 
L 585.968358 751.76337 
L 582.190766 757.028151 
L 575.04854 760.161131 
L 571.91556 762.534379 
L 565.757447 763.186264 
L 557.501076 761.931247 
L 552.59798 762.870972 
L 547.367695 762.258436 
L 534.599245 757.028151 
L 534.571847 755.736705 
L 534.697888 739.128058 
L 534.669465 737.710571 
L 534.894293 736.096679 
L 533.280401 729.934888 
L 526.448722 725.224671 
L 521.500299 725.93047 
L 513.962821 724.163468 
L 507.501601 731.249351 
L 504.241198 737.710571 
L 509.505437 742.167955 
L 513.962821 748.217225 
L 522.300129 748.690843 
L 529.943183 757.028151 
L 518.146206 761.211535 
L 513.962821 771.823767 
L 513.031301 775.41421 
L 513.052186 776.34573 
L 500.463007 782.163496 
L 494.645242 784.274682 
L 486.692376 784.298596 
L 483.455257 784.473325 
L 475.327662 784.495388 
L 468.116444 783.556949 
L 462.623009 782.958656 
L 456.010083 782.129806 
L 452.151941 780.203871 
L 443.102426 776.34573 
L 442.003308 771.034926 
L 436.692503 760.543377 
L 435.82976 757.890894 
L 435.371709 757.028151 
L 435.299888 755.635535 
L 436.692503 738.181431 
L 436.757189 737.775257 
L 436.795025 737.710571 
L 436.795384 737.60769 
L 436.692503 736.04963 
L 436.188836 718.896658 
L 436.104436 718.392992 
L 436.10182 717.802308 
L 436.692503 704.142941 
L 437.085693 699.468602 
L 437.100953 699.075412 
L 437.462897 698.305018 
L 443.366146 686.431475 
L 446.193814 679.757833 
L 450.426233 674.173983 
L 456.010083 665.917911 
L 458.977155 663.407326 
L 461.906689 660.440253 
L 469.74455 654.857141 
L 475.327662 650.386921 
L 481.818031 647.613042 
L 493.872797 641.895119 
L 494.645242 641.542534 
L 495.017111 641.494543 
L 497.8524 641.122673 
" clip-path="url(#pbea384bbfe)" style="fill: none; stroke: #2ca02c; stroke-opacity: 0.99; stroke-width: 0.2; stroke-linecap: square"/>
   </g>
   <g id="line2d_8">
    <path d="M 505.544617 641.122673 
L 511.871712 639.031564 
L 513.962821 638.362794 
L 516.876182 638.209312 
L 529.454916 637.297188 
L 533.280401 637.103919 
L 536.675672 637.727402 
L 551.101017 639.62571 
L 552.59798 639.877449 
L 553.50683 640.213824 
L 556.689338 641.122673 
L 567.495691 645.542542 
L 571.91556 646.99673 
L 579.582893 652.77292 
L 591.074364 660.440253 
L 591.137201 660.536192 
L 591.233139 660.639541 
L 596.912349 674.078623 
L 600.468954 679.757833 
L 604.344385 685.964167 
L 610.550719 690.703683 
L 613.226916 696.399215 
L 614.413534 699.075412 
L 615.195382 703.720075 
L 617.894145 711.049565 
L 618.65125 718.392992 
L 615.821576 723.663848 
L 615.097622 733.163668 
L 613.782457 737.710571 
L 612.145598 739.30545 
L 610.550719 741.286705 
L 603.965771 744.295519 
L 599.227901 745.705333 
L 591.233139 752.392547 
L 586.829968 752.624979 
L 578.906219 757.028151 
L 573.220596 758.333187 
L 571.91556 759.122832 
L 569.223108 759.720602 
L 555.372597 759.802768 
L 552.59798 760.89257 
L 547.200818 762.425313 
L 539.451804 763.199554 
L 533.280401 766.165163 
L 527.970643 771.035973 
L 525.043505 776.34573 
L 516.560446 778.943355 
L 513.962821 779.566924 
L 509.787343 780.521208 
L 501.104054 782.804543 
L 494.645242 784.154602 
L 488.27879 782.712182 
L 479.925776 780.943844 
L 475.327662 779.927018 
L 472.70924 778.964152 
L 465.842009 776.34573 
L 463.105332 769.250481 
L 456.010083 758.750808 
L 455.431072 757.607161 
L 455.044097 757.028151 
L 454.919992 755.93806 
L 455.036769 738.683885 
L 454.89104 737.710571 
L 454.627873 736.328361 
L 452.745835 721.657239 
L 452.021044 718.392992 
L 451.951913 714.334823 
L 452.296578 702.788916 
L 452.226982 699.075412 
L 453.102652 696.167982 
L 456.010083 688.106374 
L 459.33205 683.0798 
L 461.160826 679.757833 
L 467.688546 672.118716 
L 475.327662 662.137966 
L 476.265043 661.377633 
L 477.148882 660.440253 
L 486.960032 652.755044 
L 494.645242 646.159248 
L 498.135288 644.61272 
L 505.544617 641.122673 
" clip-path="url(#pbea384bbfe)" style="fill: none; stroke: #d62728; stroke-opacity: 0.99; stroke-width: 0.2; stroke-linecap: square"/>
   </g>
   <g id="line2d_9">
    <path d="M 552.100685 660.440253 
L 552.51872 660.360993 
L 552.59798 660.346747 
L 552.682589 660.355644 
L 554.03066 660.440253 
L 566.733079 665.622734 
L 571.91556 668.519902 
L 574.983703 676.68969 
L 578.766535 679.757833 
L 574.93299 682.775263 
L 571.91556 682.298256 
L 569.146672 682.52672 
L 557.069912 684.229764 
L 552.59798 684.554511 
L 545.031267 687.324545 
L 541.491698 687.96913 
L 533.280401 693.433324 
L 527.913309 693.708321 
L 522.999526 699.075412 
L 516.201552 701.314143 
L 513.962821 702.927577 
L 509.079615 703.958618 
L 498.065163 702.495334 
L 494.645242 704.334107 
L 493.532132 700.188522 
L 493.312884 699.075412 
L 493.804297 698.234467 
L 494.645242 696.308185 
L 502.054313 691.66634 
L 505.656172 690.768763 
L 505.634397 688.086256 
L 509.303881 679.757833 
L 512.346949 678.141961 
L 513.962821 677.004101 
L 518.755144 674.96551 
L 526.257155 672.734587 
L 533.280401 668.034318 
L 540.236083 667.395935 
L 552.100685 660.440253 
" clip-path="url(#pbea384bbfe)" style="fill: none; stroke: #9467bd; stroke-opacity: 0.99; stroke-width: 0.2; stroke-linecap: square"/>
   </g>
   <g id="line2d_10">
    <path d="M 594.369888 699.075412 
L 602.493221 691.017914 
L 610.550719 690.839389 
L 614.336412 695.289718 
L 618.849873 699.075412 
L 622.417751 706.525959 
L 622.460619 710.985312 
L 624.299017 718.392992 
L 617.023581 724.865854 
L 615.599626 732.661664 
L 613.41014 737.710571 
L 611.794149 738.954001 
L 610.550719 740.324048 
L 606.951508 741.309782 
L 595.448159 741.925591 
L 591.233139 744.085789 
L 585.474975 743.468736 
L 575.060005 737.710571 
L 576.123546 733.502585 
L 578.140325 724.617756 
L 579.8259 718.392992 
L 582.554564 709.714416 
L 591.233139 701.314293 
L 592.430166 700.272439 
L 594.369888 699.075412 
" clip-path="url(#pbea384bbfe)" style="fill: none; stroke: #9467bd; stroke-opacity: 0.99; stroke-width: 0.2; stroke-linecap: square"/>
   </g>
   <g id="line2d_11">
    <path d="M 493.198568 737.710571 
L 493.156772 736.222102 
L 494.645242 730.154748 
L 497.962456 734.393357 
L 499.824692 737.710571 
L 511.505889 740.167504 
L 513.962821 740.15621 
L 516.824539 740.572289 
L 529.769887 741.221085 
L 533.280401 741.859583 
L 542.155148 748.153404 
L 547.54646 757.028151 
L 539.020449 762.768199 
L 533.280401 770.09831 
L 528.612307 771.677636 
L 518.109757 776.34573 
L 514.237743 776.620652 
L 513.962821 776.640623 
L 513.66378 776.644771 
L 495.030573 776.731061 
L 494.645242 776.736508 
L 494.342408 776.648564 
L 493.412238 776.34573 
L 492.220781 773.921269 
L 488.031687 763.641705 
L 483.497067 757.028151 
L 486.049294 748.432203 
L 491.247527 741.108286 
L 493.198568 737.710571 
" clip-path="url(#pbea384bbfe)" style="fill: none; stroke: #9467bd; stroke-opacity: 0.99; stroke-width: 0.2; stroke-linecap: square"/>
   </g>
   <g id="line2d_12">
    <path d="M 546.992808 660.440253 
L 551.314402 659.156674 
L 552.59798 658.666995 
L 554.621565 658.416668 
L 568.772414 657.297107 
L 571.91556 656.866595 
L 574.5831 657.772713 
L 583.554315 660.440253 
L 581.161178 669.685871 
L 578.37618 673.297212 
L 574.408475 679.757833 
L 572.281255 680.123527 
L 571.91556 680.064287 
L 571.48987 680.183523 
L 556.124682 683.284534 
L 552.59798 684.513392 
L 543.114896 689.592328 
L 536.039312 699.075412 
L 534.795285 700.590296 
L 533.280401 703.412899 
L 527.565327 704.790485 
L 520.253632 705.366223 
L 513.962821 707.707555 
L 511.778026 701.260208 
L 510.966643 699.075412 
L 511.72966 696.842251 
L 513.962821 684.736282 
L 516.391744 682.186756 
L 516.160145 679.757833 
L 527.382203 673.859635 
L 533.280401 668.197052 
L 540.014764 667.174616 
L 546.992808 660.440253 
" clip-path="url(#pbea384bbfe)" style="fill: none; stroke: #8c564b; stroke-opacity: 0.99; stroke-width: 0.2; stroke-linecap: square"/>
   </g>
   <g id="line2d_13">
    <path d="M 597.385675 699.075412 
L 599.701447 690.607104 
L 596.896844 685.421537 
L 603.509526 686.799026 
L 610.550719 682.65904 
L 614.041096 683.24821 
L 622.670742 686.955389 
L 629.868298 687.590025 
L 635.012525 693.931186 
L 637.755672 699.075412 
L 636.130545 705.337658 
L 636.579046 711.682244 
L 635.560995 718.392992 
L 632.273187 720.79788 
L 629.868298 724.012968 
L 620.73166 727.52963 
L 619.74313 727.585402 
L 616.250852 732.010438 
L 611.181631 737.710571 
L 610.763572 737.923424 
L 610.550719 738.118085 
L 609.988585 738.272705 
L 592.502476 738.979908 
L 591.233139 739.663173 
L 588.899055 740.044655 
L 579.110142 737.710571 
L 585.002159 731.479591 
L 588.284498 721.341633 
L 589.722111 718.392992 
L 589.995479 717.155331 
L 591.233139 715.553177 
L 595.388411 703.230684 
L 597.385675 699.075412 
" clip-path="url(#pbea384bbfe)" style="fill: none; stroke: #8c564b; stroke-opacity: 0.99; stroke-width: 0.2; stroke-linecap: square"/>
   </g>
   <g id="line2d_14">
    <path d="M 512.164271 737.710571 
L 512.194818 735.942568 
L 513.962821 729.013607 
L 519.07844 723.508611 
L 526.431551 725.241842 
L 533.280401 723.57921 
L 541.440819 729.550153 
L 551.687518 736.800109 
L 552.59798 737.447961 
L 552.858722 737.449829 
L 554.026884 737.710571 
L 553.48081 738.593401 
L 560.833623 748.792508 
L 560.353019 757.028151 
L 554.950601 759.380772 
L 552.59798 760.816955 
L 544.383422 765.242709 
L 542.381709 766.129459 
L 533.280401 773.603057 
L 527.638004 770.703334 
L 522.472851 767.835701 
L 513.962821 764.146797 
L 509.86075 761.130222 
L 504.105924 757.028151 
L 505.768963 748.834292 
L 510.815479 740.857913 
L 512.164271 737.710571 
" clip-path="url(#pbea384bbfe)" style="fill: none; stroke: #8c564b; stroke-opacity: 0.99; stroke-width: 0.2; stroke-linecap: square"/>
   </g>
   <g id="line2d_15">
    <path d="M 550.219406 660.440253 
L 551.839334 659.681606 
L 552.59798 659.233624 
L 554.491817 658.546416 
L 566.674716 655.199409 
L 571.91556 652.687092 
L 579.412077 652.943735 
L 584.658124 653.865237 
L 591.233139 654.161644 
L 594.795648 656.877744 
L 601.281124 660.440253 
L 598.637368 667.844482 
L 591.233139 670.868411 
L 585.369028 673.893722 
L 578.421297 679.757833 
L 573.490476 681.332749 
L 571.91556 681.528679 
L 569.409856 682.263536 
L 556.883563 684.043415 
L 552.59798 685.984323 
L 544.801916 687.553897 
L 539.165431 685.642862 
L 533.280401 691.785225 
L 531.453617 681.584617 
L 531.537087 679.757833 
L 532.321793 678.799225 
L 533.280401 677.176378 
L 539.840931 673.197303 
L 544.38448 671.544333 
L 546.23829 666.799943 
L 550.219406 660.440253 
" clip-path="url(#pbea384bbfe)" style="fill: none; stroke: #e377c2; stroke-opacity: 0.99; stroke-width: 0.2; stroke-linecap: square"/>
   </g>
   <g id="line2d_16">
    <path d="M 615.813679 679.757833 
L 625.04003 674.929564 
L 629.868298 675.77286 
L 631.878387 677.747744 
L 637.743663 679.757833 
L 646.172809 682.770902 
L 649.185878 685.544276 
L 651.282682 696.978608 
L 651.138983 699.075412 
L 650.376598 700.266132 
L 649.185878 705.601778 
L 643.296725 712.503838 
L 641.661638 718.392992 
L 633.712677 722.23737 
L 629.868298 726.035928 
L 621.329454 726.931836 
L 618.202714 726.044987 
L 610.550719 728.079597 
L 601.078537 727.865173 
L 595.245312 718.392992 
L 597.16688 712.459251 
L 599.002497 706.844769 
L 601.495498 699.075412 
L 601.935743 690.460436 
L 610.550719 681.829872 
L 611.507957 680.71507 
L 615.813679 679.757833 
" clip-path="url(#pbea384bbfe)" style="fill: none; stroke: #e377c2; stroke-opacity: 0.99; stroke-width: 0.2; stroke-linecap: square"/>
   </g>
   <g id="line2d_17">
    <path d="M 521.955638 737.710571 
L 524.597369 729.027539 
L 533.280401 720.034185 
L 535.177388 720.289979 
L 547.03393 723.957042 
L 552.59798 724.455521 
L 558.654365 724.449376 
L 566.18187 724.126681 
L 571.91556 724.120356 
L 579.371291 725.848723 
L 584.790392 724.835739 
L 591.233139 729.908826 
L 599.927466 729.016245 
L 594.160735 737.710571 
L 591.937942 738.415374 
L 591.233139 739.091583 
L 584.937108 744.006602 
L 580.774648 746.56966 
L 580.419944 748.523767 
L 576.407109 757.028151 
L 573.143987 758.256578 
L 571.91556 758.755944 
L 569.705397 759.238313 
L 556.699683 761.129853 
L 552.59798 762.208935 
L 546.670573 762.955558 
L 539.139712 762.887462 
L 533.280401 763.895153 
L 528.848104 761.460448 
L 520.483728 757.028151 
L 521.252173 749.738799 
L 520.856418 744.604168 
L 521.955638 737.710571 
" clip-path="url(#pbea384bbfe)" style="fill: none; stroke: #e377c2; stroke-opacity: 0.99; stroke-width: 0.2; stroke-linecap: square"/>
   </g>
   <g id="line2d_18">
    <path d="M 555.591781 660.440253 
L 567.351845 655.876538 
L 571.91556 652.674242 
L 580.215509 652.140303 
L 584.090182 653.297296 
L 591.233139 652.255417 
L 596.973255 654.700137 
L 605.927242 660.440253 
L 595.363909 664.571022 
L 591.233139 665.367898 
L 582.488083 671.012776 
L 576.804161 679.757833 
L 574.270535 682.112807 
L 571.91556 684.211807 
L 564.40403 687.269362 
L 560.890876 688.050728 
L 552.59798 694.479182 
L 547.17235 685.183462 
L 545.591831 679.757833 
L 548.53073 675.690582 
L 552.59798 664.049585 
L 555.121137 662.96341 
L 555.591781 660.440253 
" clip-path="url(#pbea384bbfe)" style="fill: none; stroke: #7f7f7f; stroke-opacity: 0.99; stroke-width: 0.2; stroke-linecap: square"/>
   </g>
   <g id="line2d_19">
    <path d="M 618.858496 679.757833 
L 620.045223 670.263328 
L 618.795719 668.685253 
L 621.178808 669.129743 
L 629.868298 662.46443 
L 631.058378 661.630333 
L 643.956309 665.669822 
L 649.185878 664.7426 
L 657.607036 671.336674 
L 668.415587 679.757833 
L 668.362548 679.898742 
L 661.068767 691.640721 
L 659.847901 699.075412 
L 653.615251 703.504785 
L 649.185878 712.533437 
L 644.626613 713.833727 
L 641.166935 718.392992 
L 632.849416 721.374109 
L 629.868298 723.955717 
L 623.047896 725.213394 
L 615.873925 723.716197 
L 610.550719 726.524351 
L 603.073337 730.233189 
L 602.163051 737.710571 
L 594.770049 741.247481 
L 591.233139 744.836076 
L 584.382734 750.177746 
L 580.720626 757.028151 
L 574.05026 759.162851 
L 571.91556 759.853283 
L 569.156293 759.787418 
L 553.417094 757.847265 
L 552.59798 757.823507 
L 551.912235 757.713896 
L 549.626668 757.028151 
L 547.01857 751.44874 
L 544.679252 745.629299 
L 539.939986 737.710571 
L 543.273572 728.386163 
L 552.59798 718.913826 
L 552.92231 718.717321 
L 554.087297 718.392992 
L 562.532244 709.009676 
L 571.91556 708.169163 
L 578.940557 711.367994 
L 587.047383 714.207235 
L 591.233139 715.856425 
L 600.798767 708.64104 
L 609.030911 699.075412 
L 608.989874 697.514567 
L 610.550719 695.952436 
L 614.858536 684.065649 
L 618.858496 679.757833 
" clip-path="url(#pbea384bbfe)" style="fill: none; stroke: #7f7f7f; stroke-opacity: 0.99; stroke-width: 0.2; stroke-linecap: square"/>
   </g>
   <g id="line2d_20">
    <path d="M 582.446635 641.122673 
L 588.753764 638.643298 
L 591.233139 637.488166 
L 595.347701 637.008112 
L 605.681561 636.253516 
L 610.550719 635.626358 
L 614.660063 637.01333 
L 626.762549 641.122673 
L 627.432878 643.558093 
L 629.868298 644.841885 
L 638.227617 652.080935 
L 640.183483 651.437858 
L 649.185878 653.147459 
L 653.809725 655.816406 
L 665.363944 657.30074 
L 668.503458 658.310124 
L 669.436789 659.506922 
L 669.983599 660.440253 
L 670.263054 662.199849 
L 674.761138 673.500153 
L 675.314848 679.757833 
L 672.815185 684.06956 
L 669.210389 698.36848 
L 668.941352 699.075412 
L 668.72942 699.301374 
L 668.503458 699.613155 
L 667.45629 700.122579 
L 654.144828 704.034362 
L 649.185878 709.342694 
L 641.632167 710.839281 
L 635.732058 718.392992 
L 631.738952 720.263646 
L 629.868298 722.308012 
L 620.540819 728.383091 
L 615.461821 737.710571 
L 612.049773 739.209626 
L 610.550719 740.049624 
L 607.113776 741.147514 
L 596.721765 743.199197 
L 591.233139 745.718434 
L 581.767883 747.562894 
L 580.911522 748.032188 
L 571.91556 751.256147 
L 564.377144 745.248987 
L 555.393163 737.710571 
L 556.3244 733.984152 
L 556.8 722.595011 
L 558.656677 718.392992 
L 560.70767 710.283302 
L 559.330468 705.8079 
L 571.27218 699.075412 
L 561.96415 689.709242 
L 557.789122 684.948975 
L 553.200893 679.757833 
L 553.841667 678.514146 
L 561.018964 668.861236 
L 562.579358 660.440253 
L 567.545948 656.070641 
L 571.91556 650.06965 
L 578.003568 647.210682 
L 582.446635 641.122673 
" clip-path="url(#pbea384bbfe)" style="fill: none; stroke: #bcbd22; stroke-opacity: 0.99; stroke-width: 0.2; stroke-linecap: square"/>
   </g>
   <g id="line2d_21">
    <path d="M 582.41509 679.757833 
L 586.260577 674.78527 
L 591.233139 673.158881 
L 600.20506 669.412174 
L 602.056442 668.93453 
L 610.550719 666.105234 
L 619.419083 670.889469 
L 623.992356 679.757833 
L 617.571779 686.778893 
L 610.550719 696.32424 
L 608.122596 696.647289 
L 607.081645 699.075412 
L 594.742465 702.584737 
L 591.233139 703.390412 
L 587.019516 703.289036 
L 572.266428 699.075412 
L 572.661144 698.329828 
L 578.98891 686.831182 
L 582.41509 679.757833 
" clip-path="url(#pbea384bbfe)" style="fill: none; stroke: #bcbd22; stroke-opacity: 0.99; stroke-width: 0.2; stroke-linecap: square"/>
   </g>
   <g id="line2d_22">
    <path d="M 586.540972 641.122673 
L 589.252591 639.142125 
L 591.233139 637.155237 
L 597.158741 635.197072 
L 603.465471 634.037426 
L 610.550719 630.383478 
L 619.970014 631.703378 
L 620.783253 632.037628 
L 629.868298 634.104142 
L 632.861829 638.129143 
L 639.694564 641.122673 
L 643.608634 646.699918 
L 649.185878 645.681428 
L 651.367508 643.304304 
L 666.120082 643.506049 
L 668.503458 642.703819 
L 673.784651 646.403867 
L 678.948401 649.995309 
L 687.821037 656.426904 
L 688.676924 659.584366 
L 688.737468 660.440253 
L 688.416733 661.035949 
L 687.821037 664.208849 
L 681.703352 673.640148 
L 681.305239 679.757833 
L 675.093252 686.347627 
L 671.646631 695.932239 
L 670.05167 699.075412 
L 669.252317 699.824272 
L 668.503458 700.761082 
L 665.471947 702.106923 
L 654.750363 704.639897 
L 649.185878 710.056111 
L 643.053411 712.260525 
L 639.925478 718.392992 
L 633.229888 721.754581 
L 629.868298 725.224359 
L 622.585786 730.428059 
L 618.583142 737.710571 
L 612.807515 739.967367 
L 610.550719 740.97962 
L 607.013108 741.248182 
L 594.094996 740.572428 
L 591.233139 740.859699 
L 588.41165 740.53206 
L 579.401822 737.710571 
L 577.873236 731.752895 
L 572.197609 718.67504 
L 572.101448 718.392992 
L 572.275804 718.032747 
L 575.224594 702.384446 
L 581.120392 699.075412 
L 578.884776 692.106196 
L 571.91556 688.317334 
L 569.911559 681.761833 
L 569.1325 679.757833 
L 569.385468 677.227741 
L 570.185605 662.170208 
L 570.344442 660.440253 
L 570.906111 659.430804 
L 571.91556 657.273284 
L 581.22893 650.436043 
L 586.540972 641.122673 
" clip-path="url(#pbea384bbfe)" style="fill: none; stroke: #17becf; stroke-opacity: 0.99; stroke-width: 0.2; stroke-linecap: square"/>
   </g>
   <g id="line2d_23">
    <path d="M 621.951545 660.440253 
L 627.271855 657.843809 
L 629.868298 655.606897 
L 632.965743 657.342808 
L 631.730937 660.440253 
L 630.553553 661.125507 
L 629.868298 672.695984 
L 626.98996 676.879494 
L 628.283136 679.757833 
L 614.099731 683.306845 
L 610.550719 684.315059 
L 605.528709 684.779842 
L 598.0091 679.757833 
L 602.936432 672.143545 
L 610.550719 663.967974 
L 615.522928 665.412462 
L 621.951545 660.440253 
" clip-path="url(#pbea384bbfe)" style="fill: none; stroke: #17becf; stroke-opacity: 0.99; stroke-width: 0.2; stroke-linecap: square"/>
   </g>
   <g id="line2d_24">
    <path d="M 600.323107 602.487514 
L 607.329067 599.265863 
L 610.550719 597.859639 
L 616.258319 596.779914 
L 622.824673 595.443889 
L 629.868298 594.157584 
L 637.589725 594.766088 
L 641.71779 595.019427 
L 649.185878 595.589242 
L 653.73786 597.935532 
L 664.202573 602.487514 
L 666.759788 604.231184 
L 668.503458 604.918814 
L 677.758783 612.549768 
L 679.119274 613.10333 
L 687.821037 617.605248 
L 689.997873 619.628258 
L 692.529296 621.805094 
L 699.796785 629.146926 
L 707.138617 639.266772 
L 707.522297 640.738993 
L 707.537465 641.122673 
L 707.470323 641.45438 
L 707.629018 659.949852 
L 707.55939 660.440253 
L 707.42275 660.724387 
L 707.138617 661.396576 
L 698.085936 670.705152 
L 693.107455 679.757833 
L 690.600901 682.537696 
L 687.821037 687.084737 
L 680.620612 691.874987 
L 675.656298 699.075412 
L 671.728664 702.300618 
L 668.503458 706.090659 
L 661.046111 710.935645 
L 655.422415 718.392992 
L 651.367431 720.574545 
L 649.185878 721.993824 
L 643.152624 724.426245 
L 637.551476 726.076169 
L 629.868298 730.551834 
L 624.245021 732.087294 
L 616.262889 737.710571 
L 611.689766 738.849618 
L 610.550719 739.230112 
L 608.990714 739.270576 
L 595.413176 737.710571 
L 592.551593 736.392118 
L 591.233139 735.455886 
L 583.763498 725.862633 
L 578.151255 718.392992 
L 577.334882 712.973669 
L 571.91556 700.523746 
L 571.533965 699.457007 
L 571.296751 699.075412 
L 570.786861 697.946714 
L 565.8734 685.799993 
L 562.629107 679.757833 
L 561.371686 670.984127 
L 560.975856 668.818129 
L 559.689389 660.440253 
L 561.7587 651.279533 
L 561.932938 650.457631 
L 564.118696 641.122673 
L 566.837933 636.045046 
L 571.91556 626.967673 
L 574.260861 624.150395 
L 576.015359 621.805094 
L 584.041227 614.613181 
L 591.233139 608.068405 
L 594.81445 606.068825 
L 600.323107 602.487514 
" clip-path="url(#pbea384bbfe)" style="fill: none; stroke: #1f77b4; stroke-opacity: 0.99; stroke-width: 0.2; stroke-linecap: square"/>
   </g>
   <g id="patch_23">
    <path d="M 23.103125 842.218676 
L 23.103125 34.3575 
" style="fill: none"/>
   </g>
   <g id="patch_24">
    <path d="M 830.964301 842.218676 
L 830.964301 34.3575 
" style="fill: none"/>
   </g>
   <g id="patch_25">
    <path d="M 23.103125 842.218676 
L 830.964301 842.218676 
" style="fill: none"/>
   </g>
   <g id="patch_26">
    <path d="M 23.103125 34.3575 
L 830.964301 34.3575 
" style="fill: none"/>
   </g>
   <g id="text_1">
    <!-- 0.2 -->
    <g transform="translate(143.163564 434.327984) scale(0.1 -0.1)">
     <defs>
      <path id="DejaVuSans-30" d="M 2034 4250 
Q 1547 4250 1301 3770 
Q 1056 3291 1056 2328 
Q 1056 1369 1301 889 
Q 1547 409 2034 409 
Q 2525 409 2770 889 
Q 3016 1369 3016 2328 
Q 3016 3291 2770 3770 
Q 2525 4250 2034 4250 
z
M 2034 4750 
Q 2819 4750 3233 4129 
Q 3647 3509 3647 2328 
Q 3647 1150 3233 529 
Q 2819 -91 2034 -91 
Q 1250 -91 836 529 
Q 422 1150 422 2328 
Q 422 3509 836 4129 
Q 1250 4750 2034 4750 
z
" transform="scale(0.015625)"/>
      <path id="DejaVuSans-2e" d="M 684 794 
L 1344 794 
L 1344 0 
L 684 0 
L 684 794 
z
" transform="scale(0.015625)"/>
      <path id="DejaVuSans-32" d="M 1228 531 
L 3431 531 
L 3431 0 
L 469 0 
L 469 531 
Q 828 903 1448 1529 
Q 2069 2156 2228 2338 
Q 2531 2678 2651 2914 
Q 2772 3150 2772 3378 
Q 2772 3750 2511 3984 
Q 2250 4219 1831 4219 
Q 1534 4219 1204 4116 
Q 875 4013 500 3803 
L 500 4441 
Q 881 4594 1212 4672 
Q 1544 4750 1819 4750 
Q 2544 4750 2975 4387 
Q 3406 4025 3406 3419 
Q 3406 3131 3298 2873 
Q 3191 2616 2906 2266 
Q 2828 2175 2409 1742 
Q 1991 1309 1228 531 
z
" transform="scale(0.015625)"/>
     </defs>
     <use xlink:href="#DejaVuSans-30"/>
     <use xlink:href="#DejaVuSans-2e" transform="translate(63.623047 0)"/>
     <use xlink:href="#DejaVuSans-32" transform="translate(95.410156 0)"/>
    </g>
   </g>
   <g id="text_2">
    <!-- 0.5 -->
    <g transform="translate(275.167024 434.327984) scale(0.1 -0.1)">
     <defs>
      <path id="DejaVuSans-35" d="M 691 4666 
L 3169 4666 
L 3169 4134 
L 1269 4134 
L 1269 2991 
Q 1406 3038 1543 3061 
Q 1681 3084 1819 3084 
Q 2600 3084 3056 2656 
Q 3513 2228 3513 1497 
Q 3513 744 3044 326 
Q 2575 -91 1722 -91 
Q 1428 -91 1123 -41 
Q 819 9 494 109 
L 494 744 
Q 775 591 1075 516 
Q 1375 441 1709 441 
Q 2250 441 2565 725 
Q 2881 1009 2881 1497 
Q 2881 1984 2565 2268 
Q 2250 2553 1709 2553 
Q 1456 2553 1204 2497 
Q 953 2441 691 2322 
L 691 4666 
z
" transform="scale(0.015625)"/>
     </defs>
     <use xlink:href="#DejaVuSans-30"/>
     <use xlink:href="#DejaVuSans-2e" transform="translate(63.623047 0)"/>
     <use xlink:href="#DejaVuSans-35" transform="translate(95.410156 0)"/>
    </g>
   </g>
   <g id="text_3">
    <!-- 1.0 -->
    <g transform="translate(407.170484 434.327984) scale(0.1 -0.1)">
     <defs>
      <path id="DejaVuSans-31" d="M 794 531 
L 1825 531 
L 1825 4091 
L 703 3866 
L 703 4441 
L 1819 4666 
L 2450 4666 
L 2450 531 
L 3481 531 
L 3481 0 
L 794 0 
L 794 531 
z
" transform="scale(0.015625)"/>
     </defs>
     <use xlink:href="#DejaVuSans-31"/>
     <use xlink:href="#DejaVuSans-2e" transform="translate(63.623047 0)"/>
     <use xlink:href="#DejaVuSans-30" transform="translate(95.410156 0)"/>
    </g>
   </g>
   <g id="text_4">
    <!-- 2.0 -->
    <g transform="translate(539.173945 434.327984) scale(0.1 -0.1)">
     <use xlink:href="#DejaVuSans-32"/>
     <use xlink:href="#DejaVuSans-2e" transform="translate(63.623047 0)"/>
     <use xlink:href="#DejaVuSans-30" transform="translate(95.410156 0)"/>
    </g>
   </g>
   <g id="text_5">
    <!-- 5.0 -->
    <g transform="translate(671.177405 434.327984) scale(0.1 -0.1)">
     <use xlink:href="#DejaVuSans-35"/>
     <use xlink:href="#DejaVuSans-2e" transform="translate(63.623047 0)"/>
     <use xlink:href="#DejaVuSans-30" transform="translate(95.410156 0)"/>
    </g>
   </g>
   <g id="text_6">
    <!-- 0.2j -->
    <g transform="translate(39.148939 282.373599) scale(0.1 -0.1)">
     <defs>
      <path id="DejaVuSans-6a" d="M 603 3500 
L 1178 3500 
L 1178 -63 
Q 1178 -731 923 -1031 
Q 669 -1331 103 -1331 
L -116 -1331 
L -116 -844 
L 38 -844 
Q 366 -844 484 -692 
Q 603 -541 603 -63 
L 603 3500 
z
M 603 4863 
L 1178 4863 
L 1178 4134 
L 603 4134 
L 603 4863 
z
" transform="scale(0.015625)"/>
     </defs>
     <use xlink:href="#DejaVuSans-30"/>
     <use xlink:href="#DejaVuSans-2e" transform="translate(63.623047 0)"/>
     <use xlink:href="#DejaVuSans-32" transform="translate(95.410156 0)"/>
     <use xlink:href="#DejaVuSans-6a" transform="translate(159.033203 0)"/>
    </g>
   </g>
   <g id="text_7">
    <!-- 0.5j -->
    <g transform="translate(168.370173 116.232013) scale(0.1 -0.1)">
     <use xlink:href="#DejaVuSans-30"/>
     <use xlink:href="#DejaVuSans-2e" transform="translate(63.623047 0)"/>
     <use xlink:href="#DejaVuSans-35" transform="translate(95.410156 0)"/>
     <use xlink:href="#DejaVuSans-6a" transform="translate(159.033203 0)"/>
    </g>
   </g>
   <g id="text_8">
    <!-- 1.0j -->
    <g transform="translate(417.693088 36.237916) scale(0.1 -0.1)">
     <use xlink:href="#DejaVuSans-31"/>
     <use xlink:href="#DejaVuSans-2e" transform="translate(63.623047 0)"/>
     <use xlink:href="#DejaVuSans-30" transform="translate(95.410156 0)"/>
     <use xlink:href="#DejaVuSans-6a" transform="translate(159.033203 0)"/>
    </g>
   </g>
   <g id="text_9">
    <!-- 2.0j -->
    <g transform="translate(667.016004 116.232013) scale(0.1 -0.1)">
     <use xlink:href="#DejaVuSans-32"/>
     <use xlink:href="#DejaVuSans-2e" transform="translate(63.623047 0)"/>
     <use xlink:href="#DejaVuSans-30" transform="translate(95.410156 0)"/>
     <use xlink:href="#DejaVuSans-6a" transform="translate(159.033203 0)"/>
    </g>
   </g>
   <g id="text_10">
    <!-- 5.0j -->
    <g transform="translate(796.237237 282.373599) scale(0.1 -0.1)">
     <use xlink:href="#DejaVuSans-35"/>
     <use xlink:href="#DejaVuSans-2e" transform="translate(63.623047 0)"/>
     <use xlink:href="#DejaVuSans-30" transform="translate(95.410156 0)"/>
     <use xlink:href="#DejaVuSans-6a" transform="translate(159.033203 0)"/>
    </g>
   </g>
   <g id="text_11">
    <!-- -0.2j -->
    <g transform="translate(35.541127 599.721327) scale(0.1 -0.1)">
     <defs>
      <path id="DejaVuSans-2d" d="M 313 2009 
L 1997 2009 
L 1997 1497 
L 313 1497 
L 313 2009 
z
" transform="scale(0.015625)"/>
     </defs>
     <use xlink:href="#DejaVuSans-2d"/>
     <use xlink:href="#DejaVuSans-30" transform="translate(36.083984 0)"/>
     <use xlink:href="#DejaVuSans-2e" transform="translate(99.707031 0)"/>
     <use xlink:href="#DejaVuSans-32" transform="translate(131.494141 0)"/>
     <use xlink:href="#DejaVuSans-6a" transform="translate(195.117188 0)"/>
    </g>
   </g>
   <g id="text_12">
    <!-- -0.5j -->
    <g transform="translate(164.76236 765.862913) scale(0.1 -0.1)">
     <use xlink:href="#DejaVuSans-2d"/>
     <use xlink:href="#DejaVuSans-30" transform="translate(36.083984 0)"/>
     <use xlink:href="#DejaVuSans-2e" transform="translate(99.707031 0)"/>
     <use xlink:href="#DejaVuSans-35" transform="translate(131.494141 0)"/>
     <use xlink:href="#DejaVuSans-6a" transform="translate(195.117188 0)"/>
    </g>
   </g>
   <g id="text_13">
    <!-- -1.0j -->
    <g transform="translate(415.889182 845.85701) scale(0.1 -0.1)">
     <use xlink:href="#DejaVuSans-2d"/>
     <use xlink:href="#DejaVuSans-31" transform="translate(36.083984 0)"/>
     <use xlink:href="#DejaVuSans-2e" transform="translate(99.707031 0)"/>
     <use xlink:href="#DejaVuSans-30" transform="translate(131.494141 0)"/>
     <use xlink:href="#DejaVuSans-6a" transform="translate(195.117188 0)"/>
    </g>
   </g>
   <g id="text_14">
    <!-- -2.0j -->
    <g transform="translate(667.016004 765.862913) scale(0.1 -0.1)">
     <use xlink:href="#DejaVuSans-2d"/>
     <use xlink:href="#DejaVuSans-32" transform="translate(36.083984 0)"/>
     <use xlink:href="#DejaVuSans-2e" transform="translate(99.707031 0)"/>
     <use xlink:href="#DejaVuSans-30" transform="translate(131.494141 0)"/>
     <use xlink:href="#DejaVuSans-6a" transform="translate(195.117188 0)"/>
    </g>
   </g>
   <g id="text_15">
    <!-- -5.0j -->
    <g transform="translate(796.237237 599.721327) scale(0.1 -0.1)">
     <use xlink:href="#DejaVuSans-2d"/>
     <use xlink:href="#DejaVuSans-35" transform="translate(36.083984 0)"/>
     <use xlink:href="#DejaVuSans-2e" transform="translate(99.707031 0)"/>
     <use xlink:href="#DejaVuSans-30" transform="translate(131.494141 0)"/>
     <use xlink:href="#DejaVuSans-6a" transform="translate(195.117188 0)"/>
    </g>
   </g>
   <g id="text_16">
    <!-- 0.0 -->
    <g transform="translate(7.2 441.047463) scale(0.1 -0.1)">
     <use xlink:href="#DejaVuSans-30"/>
     <use xlink:href="#DejaVuSans-2e" transform="translate(63.623047 0)"/>
     <use xlink:href="#DejaVuSans-30" transform="translate(95.410156 0)"/>
    </g>
   </g>
   <g id="text_17">
    <!-- $\infty$ -->
    <g transform="translate(827.004198 441.047463) scale(0.1 -0.1)">
     <defs>
      <path id="DejaVuSans-221e" d="M 2916 1091 
Q 2819 1203 2666 1466 
Q 2456 1091 2272 925 
Q 2041 725 1681 725 
Q 1259 725 981 1041 
Q 688 1372 688 1919 
Q 688 2444 981 2800 
Q 1244 3116 1688 3116 
Q 1916 3116 2084 3022 
Q 2281 2919 2416 2741 
Q 2541 2581 2666 2366 
Q 2875 2741 3059 2906 
Q 3291 3106 3650 3106 
Q 4072 3106 4350 2791 
Q 4644 2459 4644 1913 
Q 4644 1388 4350 1031 
Q 4088 716 3644 716 
Q 3416 716 3247 809 
Q 3078 894 2916 1091 
z
M 1647 1134 
Q 2163 1134 2472 1884 
Q 2075 2703 1647 2703 
Q 1334 2703 1175 2478 
Q 1003 2238 1003 1919 
Q 1003 1569 1175 1353 
Q 1350 1134 1647 1134 
z
M 3684 2697 
Q 3219 2697 2859 1947 
Q 3253 1128 3684 1128 
Q 3997 1128 4156 1353 
Q 4328 1594 4328 1913 
Q 4328 2263 4156 2478 
Q 3981 2697 3684 2697 
z
" transform="scale(0.015625)"/>
     </defs>
     <use xlink:href="#DejaVuSans-221e" transform="translate(0 0.3125)"/>
    </g>
   </g>
   <g id="text_18">
    <!-- it1_source_pull - Broadband Optimum Target -->
    <g transform="translate(248.623713 19.3575) scale(0.16 -0.16)">
     <defs>
      <path id="DejaVuSans-69" d="M 603 3500 
L 1178 3500 
L 1178 0 
L 603 0 
L 603 3500 
z
M 603 4863 
L 1178 4863 
L 1178 4134 
L 603 4134 
L 603 4863 
z
" transform="scale(0.015625)"/>
      <path id="DejaVuSans-74" d="M 1172 4494 
L 1172 3500 
L 2356 3500 
L 2356 3053 
L 1172 3053 
L 1172 1153 
Q 1172 725 1289 603 
Q 1406 481 1766 481 
L 2356 481 
L 2356 0 
L 1766 0 
Q 1100 0 847 248 
Q 594 497 594 1153 
L 594 3053 
L 172 3053 
L 172 3500 
L 594 3500 
L 594 4494 
L 1172 4494 
z
" transform="scale(0.015625)"/>
      <path id="DejaVuSans-5f" d="M 3263 -1063 
L 3263 -1509 
L -63 -1509 
L -63 -1063 
L 3263 -1063 
z
" transform="scale(0.015625)"/>
      <path id="DejaVuSans-73" d="M 2834 3397 
L 2834 2853 
Q 2591 2978 2328 3040 
Q 2066 3103 1784 3103 
Q 1356 3103 1142 2972 
Q 928 2841 928 2578 
Q 928 2378 1081 2264 
Q 1234 2150 1697 2047 
L 1894 2003 
Q 2506 1872 2764 1633 
Q 3022 1394 3022 966 
Q 3022 478 2636 193 
Q 2250 -91 1575 -91 
Q 1294 -91 989 -36 
Q 684 19 347 128 
L 347 722 
Q 666 556 975 473 
Q 1284 391 1588 391 
Q 1994 391 2212 530 
Q 2431 669 2431 922 
Q 2431 1156 2273 1281 
Q 2116 1406 1581 1522 
L 1381 1569 
Q 847 1681 609 1914 
Q 372 2147 372 2553 
Q 372 3047 722 3315 
Q 1072 3584 1716 3584 
Q 2034 3584 2315 3537 
Q 2597 3491 2834 3397 
z
" transform="scale(0.015625)"/>
      <path id="DejaVuSans-6f" d="M 1959 3097 
Q 1497 3097 1228 2736 
Q 959 2375 959 1747 
Q 959 1119 1226 758 
Q 1494 397 1959 397 
Q 2419 397 2687 759 
Q 2956 1122 2956 1747 
Q 2956 2369 2687 2733 
Q 2419 3097 1959 3097 
z
M 1959 3584 
Q 2709 3584 3137 3096 
Q 3566 2609 3566 1747 
Q 3566 888 3137 398 
Q 2709 -91 1959 -91 
Q 1206 -91 779 398 
Q 353 888 353 1747 
Q 353 2609 779 3096 
Q 1206 3584 1959 3584 
z
" transform="scale(0.015625)"/>
      <path id="DejaVuSans-75" d="M 544 1381 
L 544 3500 
L 1119 3500 
L 1119 1403 
Q 1119 906 1312 657 
Q 1506 409 1894 409 
Q 2359 409 2629 706 
Q 2900 1003 2900 1516 
L 2900 3500 
L 3475 3500 
L 3475 0 
L 2900 0 
L 2900 538 
Q 2691 219 2414 64 
Q 2138 -91 1772 -91 
Q 1169 -91 856 284 
Q 544 659 544 1381 
z
M 1991 3584 
L 1991 3584 
z
" transform="scale(0.015625)"/>
      <path id="DejaVuSans-72" d="M 2631 2963 
Q 2534 3019 2420 3045 
Q 2306 3072 2169 3072 
Q 1681 3072 1420 2755 
Q 1159 2438 1159 1844 
L 1159 0 
L 581 0 
L 581 3500 
L 1159 3500 
L 1159 2956 
Q 1341 3275 1631 3429 
Q 1922 3584 2338 3584 
Q 2397 3584 2469 3576 
Q 2541 3569 2628 3553 
L 2631 2963 
z
" transform="scale(0.015625)"/>
      <path id="DejaVuSans-63" d="M 3122 3366 
L 3122 2828 
Q 2878 2963 2633 3030 
Q 2388 3097 2138 3097 
Q 1578 3097 1268 2742 
Q 959 2388 959 1747 
Q 959 1106 1268 751 
Q 1578 397 2138 397 
Q 2388 397 2633 464 
Q 2878 531 3122 666 
L 3122 134 
Q 2881 22 2623 -34 
Q 2366 -91 2075 -91 
Q 1284 -91 818 406 
Q 353 903 353 1747 
Q 353 2603 823 3093 
Q 1294 3584 2113 3584 
Q 2378 3584 2631 3529 
Q 2884 3475 3122 3366 
z
" transform="scale(0.015625)"/>
      <path id="DejaVuSans-65" d="M 3597 1894 
L 3597 1613 
L 953 1613 
Q 991 1019 1311 708 
Q 1631 397 2203 397 
Q 2534 397 2845 478 
Q 3156 559 3463 722 
L 3463 178 
Q 3153 47 2828 -22 
Q 2503 -91 2169 -91 
Q 1331 -91 842 396 
Q 353 884 353 1716 
Q 353 2575 817 3079 
Q 1281 3584 2069 3584 
Q 2775 3584 3186 3129 
Q 3597 2675 3597 1894 
z
M 3022 2063 
Q 3016 2534 2758 2815 
Q 2500 3097 2075 3097 
Q 1594 3097 1305 2825 
Q 1016 2553 972 2059 
L 3022 2063 
z
" transform="scale(0.015625)"/>
      <path id="DejaVuSans-70" d="M 1159 525 
L 1159 -1331 
L 581 -1331 
L 581 3500 
L 1159 3500 
L 1159 2969 
Q 1341 3281 1617 3432 
Q 1894 3584 2278 3584 
Q 2916 3584 3314 3078 
Q 3713 2572 3713 1747 
Q 3713 922 3314 415 
Q 2916 -91 2278 -91 
Q 1894 -91 1617 61 
Q 1341 213 1159 525 
z
M 3116 1747 
Q 3116 2381 2855 2742 
Q 2594 3103 2138 3103 
Q 1681 3103 1420 2742 
Q 1159 2381 1159 1747 
Q 1159 1113 1420 752 
Q 1681 391 2138 391 
Q 2594 391 2855 752 
Q 3116 1113 3116 1747 
z
" transform="scale(0.015625)"/>
      <path id="DejaVuSans-6c" d="M 603 4863 
L 1178 4863 
L 1178 0 
L 603 0 
L 603 4863 
z
" transform="scale(0.015625)"/>
      <path id="DejaVuSans-20" transform="scale(0.015625)"/>
      <path id="DejaVuSans-42" d="M 1259 2228 
L 1259 519 
L 2272 519 
Q 2781 519 3026 730 
Q 3272 941 3272 1375 
Q 3272 1813 3026 2020 
Q 2781 2228 2272 2228 
L 1259 2228 
z
M 1259 4147 
L 1259 2741 
L 2194 2741 
Q 2656 2741 2882 2914 
Q 3109 3088 3109 3444 
Q 3109 3797 2882 3972 
Q 2656 4147 2194 4147 
L 1259 4147 
z
M 628 4666 
L 2241 4666 
Q 2963 4666 3353 4366 
Q 3744 4066 3744 3513 
Q 3744 3084 3544 2831 
Q 3344 2578 2956 2516 
Q 3422 2416 3680 2098 
Q 3938 1781 3938 1306 
Q 3938 681 3513 340 
Q 3088 0 2303 0 
L 628 0 
L 628 4666 
z
" transform="scale(0.015625)"/>
      <path id="DejaVuSans-61" d="M 2194 1759 
Q 1497 1759 1228 1600 
Q 959 1441 959 1056 
Q 959 750 1161 570 
Q 1363 391 1709 391 
Q 2188 391 2477 730 
Q 2766 1069 2766 1631 
L 2766 1759 
L 2194 1759 
z
M 3341 1997 
L 3341 0 
L 2766 0 
L 2766 531 
Q 2569 213 2275 61 
Q 1981 -91 1556 -91 
Q 1019 -91 701 211 
Q 384 513 384 1019 
Q 384 1609 779 1909 
Q 1175 2209 1959 2209 
L 2766 2209 
L 2766 2266 
Q 2766 2663 2505 2880 
Q 2244 3097 1772 3097 
Q 1472 3097 1187 3025 
Q 903 2953 641 2809 
L 641 3341 
Q 956 3463 1253 3523 
Q 1550 3584 1831 3584 
Q 2591 3584 2966 3190 
Q 3341 2797 3341 1997 
z
" transform="scale(0.015625)"/>
      <path id="DejaVuSans-64" d="M 2906 2969 
L 2906 4863 
L 3481 4863 
L 3481 0 
L 2906 0 
L 2906 525 
Q 2725 213 2448 61 
Q 2172 -91 1784 -91 
Q 1150 -91 751 415 
Q 353 922 353 1747 
Q 353 2572 751 3078 
Q 1150 3584 1784 3584 
Q 2172 3584 2448 3432 
Q 2725 3281 2906 2969 
z
M 947 1747 
Q 947 1113 1208 752 
Q 1469 391 1925 391 
Q 2381 391 2643 752 
Q 2906 1113 2906 1747 
Q 2906 2381 2643 2742 
Q 2381 3103 1925 3103 
Q 1469 3103 1208 2742 
Q 947 2381 947 1747 
z
" transform="scale(0.015625)"/>
      <path id="DejaVuSans-62" d="M 3116 1747 
Q 3116 2381 2855 2742 
Q 2594 3103 2138 3103 
Q 1681 3103 1420 2742 
Q 1159 2381 1159 1747 
Q 1159 1113 1420 752 
Q 1681 391 2138 391 
Q 2594 391 2855 752 
Q 3116 1113 3116 1747 
z
M 1159 2969 
Q 1341 3281 1617 3432 
Q 1894 3584 2278 3584 
Q 2916 3584 3314 3078 
Q 3713 2572 3713 1747 
Q 3713 922 3314 415 
Q 2916 -91 2278 -91 
Q 1894 -91 1617 61 
Q 1341 213 1159 525 
L 1159 0 
L 581 0 
L 581 4863 
L 1159 4863 
L 1159 2969 
z
" transform="scale(0.015625)"/>
      <path id="DejaVuSans-6e" d="M 3513 2113 
L 3513 0 
L 2938 0 
L 2938 2094 
Q 2938 2591 2744 2837 
Q 2550 3084 2163 3084 
Q 1697 3084 1428 2787 
Q 1159 2491 1159 1978 
L 1159 0 
L 581 0 
L 581 3500 
L 1159 3500 
L 1159 2956 
Q 1366 3272 1645 3428 
Q 1925 3584 2291 3584 
Q 2894 3584 3203 3211 
Q 3513 2838 3513 2113 
z
" transform="scale(0.015625)"/>
      <path id="DejaVuSans-4f" d="M 2522 4238 
Q 1834 4238 1429 3725 
Q 1025 3213 1025 2328 
Q 1025 1447 1429 934 
Q 1834 422 2522 422 
Q 3209 422 3611 934 
Q 4013 1447 4013 2328 
Q 4013 3213 3611 3725 
Q 3209 4238 2522 4238 
z
M 2522 4750 
Q 3503 4750 4090 4092 
Q 4678 3434 4678 2328 
Q 4678 1225 4090 567 
Q 3503 -91 2522 -91 
Q 1538 -91 948 565 
Q 359 1222 359 2328 
Q 359 3434 948 4092 
Q 1538 4750 2522 4750 
z
" transform="scale(0.015625)"/>
      <path id="DejaVuSans-6d" d="M 3328 2828 
Q 3544 3216 3844 3400 
Q 4144 3584 4550 3584 
Q 5097 3584 5394 3201 
Q 5691 2819 5691 2113 
L 5691 0 
L 5113 0 
L 5113 2094 
Q 5113 2597 4934 2840 
Q 4756 3084 4391 3084 
Q 3944 3084 3684 2787 
Q 3425 2491 3425 1978 
L 3425 0 
L 2847 0 
L 2847 2094 
Q 2847 2600 2669 2842 
Q 2491 3084 2119 3084 
Q 1678 3084 1418 2786 
Q 1159 2488 1159 1978 
L 1159 0 
L 581 0 
L 581 3500 
L 1159 3500 
L 1159 2956 
Q 1356 3278 1631 3431 
Q 1906 3584 2284 3584 
Q 2666 3584 2933 3390 
Q 3200 3197 3328 2828 
z
" transform="scale(0.015625)"/>
      <path id="DejaVuSans-54" d="M -19 4666 
L 3928 4666 
L 3928 4134 
L 2272 4134 
L 2272 0 
L 1638 0 
L 1638 4134 
L -19 4134 
L -19 4666 
z
" transform="scale(0.015625)"/>
      <path id="DejaVuSans-67" d="M 2906 1791 
Q 2906 2416 2648 2759 
Q 2391 3103 1925 3103 
Q 1463 3103 1205 2759 
Q 947 2416 947 1791 
Q 947 1169 1205 825 
Q 1463 481 1925 481 
Q 2391 481 2648 825 
Q 2906 1169 2906 1791 
z
M 3481 434 
Q 3481 -459 3084 -895 
Q 2688 -1331 1869 -1331 
Q 1566 -1331 1297 -1286 
Q 1028 -1241 775 -1147 
L 775 -588 
Q 1028 -725 1275 -790 
Q 1522 -856 1778 -856 
Q 2344 -856 2625 -561 
Q 2906 -266 2906 331 
L 2906 616 
Q 2728 306 2450 153 
Q 2172 0 1784 0 
Q 1141 0 747 490 
Q 353 981 353 1791 
Q 353 2603 747 3093 
Q 1141 3584 1784 3584 
Q 2172 3584 2450 3431 
Q 2728 3278 2906 2969 
L 2906 3500 
L 3481 3500 
L 3481 434 
z
" transform="scale(0.015625)"/>
     </defs>
     <use xlink:href="#DejaVuSans-69"/>
     <use xlink:href="#DejaVuSans-74" transform="translate(27.783203 0)"/>
     <use xlink:href="#DejaVuSans-31" transform="translate(66.992188 0)"/>
     <use xlink:href="#DejaVuSans-5f" transform="translate(130.615234 0)"/>
     <use xlink:href="#DejaVuSans-73" transform="translate(180.615234 0)"/>
     <use xlink:href="#DejaVuSans-6f" transform="translate(232.714844 0)"/>
     <use xlink:href="#DejaVuSans-75" transform="translate(293.896484 0)"/>
     <use xlink:href="#DejaVuSans-72" transform="translate(357.275391 0)"/>
     <use xlink:href="#DejaVuSans-63" transform="translate(396.138672 0)"/>
     <use xlink:href="#DejaVuSans-65" transform="translate(451.119141 0)"/>
     <use xlink:href="#DejaVuSans-5f" transform="translate(512.642578 0)"/>
     <use xlink:href="#DejaVuSans-70" transform="translate(562.642578 0)"/>
     <use xlink:href="#DejaVuSans-75" transform="translate(626.119141 0)"/>
     <use xlink:href="#DejaVuSans-6c" transform="translate(689.498047 0)"/>
     <use xlink:href="#DejaVuSans-6c" transform="translate(717.28125 0)"/>
     <use xlink:href="#DejaVuSans-20" transform="translate(745.064453 0)"/>
     <use xlink:href="#DejaVuSans-2d" transform="translate(776.851562 0)"/>
     <use xlink:href="#DejaVuSans-20" transform="translate(812.935547 0)"/>
     <use xlink:href="#DejaVuSans-42" transform="translate(844.722656 0)"/>
     <use xlink:href="#DejaVuSans-72" transform="translate(913.326172 0)"/>
     <use xlink:href="#DejaVuSans-6f" transform="translate(952.189453 0)"/>
     <use xlink:href="#DejaVuSans-61" transform="translate(1013.371094 0)"/>
     <use xlink:href="#DejaVuSans-64" transform="translate(1074.650391 0)"/>
     <use xlink:href="#DejaVuSans-62" transform="translate(1138.126953 0)"/>
     <use xlink:href="#DejaVuSans-61" transform="translate(1201.603516 0)"/>
     <use xlink:href="#DejaVuSans-6e" transform="translate(1262.882812 0)"/>
     <use xlink:href="#DejaVuSans-64" transform="translate(1326.261719 0)"/>
     <use xlink:href="#DejaVuSans-20" transform="translate(1389.738281 0)"/>
     <use xlink:href="#DejaVuSans-4f" transform="translate(1421.525391 0)"/>
     <use xlink:href="#DejaVuSans-70" transform="translate(1500.236328 0)"/>
     <use xlink:href="#DejaVuSans-74" transform="translate(1563.712891 0)"/>
     <use xlink:href="#DejaVuSans-69" transform="translate(1602.921875 0)"/>
     <use xlink:href="#DejaVuSans-6d" transform="translate(1630.705078 0)"/>
     <use xlink:href="#DejaVuSans-75" transform="translate(1728.117188 0)"/>
     <use xlink:href="#DejaVuSans-6d" transform="translate(1791.496094 0)"/>
     <use xlink:href="#DejaVuSans-20" transform="translate(1888.908203 0)"/>
     <use xlink:href="#DejaVuSans-54" transform="translate(1920.695312 0)"/>
     <use xlink:href="#DejaVuSans-61" transform="translate(1965.279297 0)"/>
     <use xlink:href="#DejaVuSans-72" transform="translate(2026.558594 0)"/>
     <use xlink:href="#DejaVuSans-67" transform="translate(2065.921875 0)"/>
     <use xlink:href="#DejaVuSans-65" transform="translate(2129.398438 0)"/>
     <use xlink:href="#DejaVuSans-74" transform="translate(2190.921875 0)"/>
    </g>
   </g>
   <g id="legend_1">
    <g id="patch_27">
     <path d="M 854.121525 527.856838 
L 1013.934025 527.856838 
Q 1015.934025 527.856838 1015.934025 525.856838 
L 1015.934025 350.719338 
Q 1015.934025 348.719338 1013.934025 348.719338 
L 854.121525 348.719338 
Q 852.121525 348.719338 852.121525 350.719338 
L 852.121525 525.856838 
Q 852.121525 527.856838 854.121525 527.856838 
z
" style="fill: #ffffff; opacity: 0.8; stroke: #cccccc; stroke-linejoin: miter"/>
    </g>
    <g id="line2d_25">
     <path d="M 856.121525 356.817776 
L 866.121525 356.817776 
L 876.121525 356.817776 
" style="fill: none; stroke: #1f77b4; stroke-opacity: 0.99; stroke-width: 0.2; stroke-linecap: square"/>
    </g>
    <g id="text_19">
     <!-- 12.00 GHz (Hedef: 12.75) -->
     <g transform="translate(884.121525 360.317776) scale(0.1 -0.1)">
      <defs>
       <path id="DejaVuSans-47" d="M 3809 666 
L 3809 1919 
L 2778 1919 
L 2778 2438 
L 4434 2438 
L 4434 434 
Q 4069 175 3628 42 
Q 3188 -91 2688 -91 
Q 1594 -91 976 548 
Q 359 1188 359 2328 
Q 359 3472 976 4111 
Q 1594 4750 2688 4750 
Q 3144 4750 3555 4637 
Q 3966 4525 4313 4306 
L 4313 3634 
Q 3963 3931 3569 4081 
Q 3175 4231 2741 4231 
Q 1884 4231 1454 3753 
Q 1025 3275 1025 2328 
Q 1025 1384 1454 906 
Q 1884 428 2741 428 
Q 3075 428 3337 486 
Q 3600 544 3809 666 
z
" transform="scale(0.015625)"/>
       <path id="DejaVuSans-48" d="M 628 4666 
L 1259 4666 
L 1259 2753 
L 3553 2753 
L 3553 4666 
L 4184 4666 
L 4184 0 
L 3553 0 
L 3553 2222 
L 1259 2222 
L 1259 0 
L 628 0 
L 628 4666 
z
" transform="scale(0.015625)"/>
       <path id="DejaVuSans-7a" d="M 353 3500 
L 3084 3500 
L 3084 2975 
L 922 459 
L 3084 459 
L 3084 0 
L 275 0 
L 275 525 
L 2438 3041 
L 353 3041 
L 353 3500 
z
" transform="scale(0.015625)"/>
       <path id="DejaVuSans-28" d="M 1984 4856 
Q 1566 4138 1362 3434 
Q 1159 2731 1159 2009 
Q 1159 1288 1364 580 
Q 1569 -128 1984 -844 
L 1484 -844 
Q 1016 -109 783 600 
Q 550 1309 550 2009 
Q 550 2706 781 3412 
Q 1013 4119 1484 4856 
L 1984 4856 
z
" transform="scale(0.015625)"/>
       <path id="DejaVuSans-66" d="M 2375 4863 
L 2375 4384 
L 1825 4384 
Q 1516 4384 1395 4259 
Q 1275 4134 1275 3809 
L 1275 3500 
L 2222 3500 
L 2222 3053 
L 1275 3053 
L 1275 0 
L 697 0 
L 697 3053 
L 147 3053 
L 147 3500 
L 697 3500 
L 697 3744 
Q 697 4328 969 4595 
Q 1241 4863 1831 4863 
L 2375 4863 
z
" transform="scale(0.015625)"/>
       <path id="DejaVuSans-3a" d="M 750 794 
L 1409 794 
L 1409 0 
L 750 0 
L 750 794 
z
M 750 3309 
L 1409 3309 
L 1409 2516 
L 750 2516 
L 750 3309 
z
" transform="scale(0.015625)"/>
       <path id="DejaVuSans-37" d="M 525 4666 
L 3525 4666 
L 3525 4397 
L 1831 0 
L 1172 0 
L 2766 4134 
L 525 4134 
L 525 4666 
z
" transform="scale(0.015625)"/>
       <path id="DejaVuSans-29" d="M 513 4856 
L 1013 4856 
Q 1481 4119 1714 3412 
Q 1947 2706 1947 2009 
Q 1947 1309 1714 600 
Q 1481 -109 1013 -844 
L 513 -844 
Q 928 -128 1133 580 
Q 1338 1288 1338 2009 
Q 1338 2731 1133 3434 
Q 928 4138 513 4856 
z
" transform="scale(0.015625)"/>
      </defs>
      <use xlink:href="#DejaVuSans-31"/>
      <use xlink:href="#DejaVuSans-32" transform="translate(63.623047 0)"/>
      <use xlink:href="#DejaVuSans-2e" transform="translate(127.246094 0)"/>
      <use xlink:href="#DejaVuSans-30" transform="translate(159.033203 0)"/>
      <use xlink:href="#DejaVuSans-30" transform="translate(222.65625 0)"/>
      <use xlink:href="#DejaVuSans-20" transform="translate(286.279297 0)"/>
      <use xlink:href="#DejaVuSans-47" transform="translate(318.066406 0)"/>
      <use xlink:href="#DejaVuSans-48" transform="translate(395.556641 0)"/>
      <use xlink:href="#DejaVuSans-7a" transform="translate(470.751953 0)"/>
      <use xlink:href="#DejaVuSans-20" transform="translate(523.242188 0)"/>
      <use xlink:href="#DejaVuSans-28" transform="translate(555.029297 0)"/>
      <use xlink:href="#DejaVuSans-48" transform="translate(594.042969 0)"/>
      <use xlink:href="#DejaVuSans-65" transform="translate(669.238281 0)"/>
      <use xlink:href="#DejaVuSans-64" transform="translate(730.761719 0)"/>
      <use xlink:href="#DejaVuSans-65" transform="translate(794.238281 0)"/>
      <use xlink:href="#DejaVuSans-66" transform="translate(855.761719 0)"/>
      <use xlink:href="#DejaVuSans-3a" transform="translate(887.341797 0)"/>
      <use xlink:href="#DejaVuSans-20" transform="translate(921.033203 0)"/>
      <use xlink:href="#DejaVuSans-31" transform="translate(952.820312 0)"/>
      <use xlink:href="#DejaVuSans-32" transform="translate(1016.443359 0)"/>
      <use xlink:href="#DejaVuSans-2e" transform="translate(1080.066406 0)"/>
      <use xlink:href="#DejaVuSans-37" transform="translate(1111.853516 0)"/>
      <use xlink:href="#DejaVuSans-35" transform="translate(1175.476562 0)"/>
      <use xlink:href="#DejaVuSans-29" transform="translate(1239.099609 0)"/>
     </g>
    </g>
    <g id="line2d_26">
     <path d="M 856.121525 371.495901 
L 866.121525 371.495901 
L 876.121525 371.495901 
" style="fill: none; stroke: #ff7f0e; stroke-opacity: 0.99; stroke-width: 0.2; stroke-linecap: square"/>
    </g>
    <g id="text_20">
     <!-- 12.20 GHz (Hedef: 12.75) -->
     <g transform="translate(884.121525 374.995901) scale(0.1 -0.1)">
      <use xlink:href="#DejaVuSans-31"/>
      <use xlink:href="#DejaVuSans-32" transform="translate(63.623047 0)"/>
      <use xlink:href="#DejaVuSans-2e" transform="translate(127.246094 0)"/>
      <use xlink:href="#DejaVuSans-32" transform="translate(159.033203 0)"/>
      <use xlink:href="#DejaVuSans-30" transform="translate(222.65625 0)"/>
      <use xlink:href="#DejaVuSans-20" transform="translate(286.279297 0)"/>
      <use xlink:href="#DejaVuSans-47" transform="translate(318.066406 0)"/>
      <use xlink:href="#DejaVuSans-48" transform="translate(395.556641 0)"/>
      <use xlink:href="#DejaVuSans-7a" transform="translate(470.751953 0)"/>
      <use xlink:href="#DejaVuSans-20" transform="translate(523.242188 0)"/>
      <use xlink:href="#DejaVuSans-28" transform="translate(555.029297 0)"/>
      <use xlink:href="#DejaVuSans-48" transform="translate(594.042969 0)"/>
      <use xlink:href="#DejaVuSans-65" transform="translate(669.238281 0)"/>
      <use xlink:href="#DejaVuSans-64" transform="translate(730.761719 0)"/>
      <use xlink:href="#DejaVuSans-65" transform="translate(794.238281 0)"/>
      <use xlink:href="#DejaVuSans-66" transform="translate(855.761719 0)"/>
      <use xlink:href="#DejaVuSans-3a" transform="translate(887.341797 0)"/>
      <use xlink:href="#DejaVuSans-20" transform="translate(921.033203 0)"/>
      <use xlink:href="#DejaVuSans-31" transform="translate(952.820312 0)"/>
      <use xlink:href="#DejaVuSans-32" transform="translate(1016.443359 0)"/>
      <use xlink:href="#DejaVuSans-2e" transform="translate(1080.066406 0)"/>
      <use xlink:href="#DejaVuSans-37" transform="translate(1111.853516 0)"/>
      <use xlink:href="#DejaVuSans-35" transform="translate(1175.476562 0)"/>
      <use xlink:href="#DejaVuSans-29" transform="translate(1239.099609 0)"/>
     </g>
    </g>
    <g id="line2d_27">
     <path d="M 856.121525 386.174026 
L 866.121525 386.174026 
L 876.121525 386.174026 
" style="fill: none; stroke: #2ca02c; stroke-opacity: 0.99; stroke-width: 0.2; stroke-linecap: square"/>
    </g>
    <g id="text_21">
     <!-- 12.40 GHz (Hedef: 12.5) -->
     <g transform="translate(884.121525 389.674026) scale(0.1 -0.1)">
      <defs>
       <path id="DejaVuSans-34" d="M 2419 4116 
L 825 1625 
L 2419 1625 
L 2419 4116 
z
M 2253 4666 
L 3047 4666 
L 3047 1625 
L 3713 1625 
L 3713 1100 
L 3047 1100 
L 3047 0 
L 2419 0 
L 2419 1100 
L 313 1100 
L 313 1709 
L 2253 4666 
z
" transform="scale(0.015625)"/>
      </defs>
      <use xlink:href="#DejaVuSans-31"/>
      <use xlink:href="#DejaVuSans-32" transform="translate(63.623047 0)"/>
      <use xlink:href="#DejaVuSans-2e" transform="translate(127.246094 0)"/>
      <use xlink:href="#DejaVuSans-34" transform="translate(159.033203 0)"/>
      <use xlink:href="#DejaVuSans-30" transform="translate(222.65625 0)"/>
      <use xlink:href="#DejaVuSans-20" transform="translate(286.279297 0)"/>
      <use xlink:href="#DejaVuSans-47" transform="translate(318.066406 0)"/>
      <use xlink:href="#DejaVuSans-48" transform="translate(395.556641 0)"/>
      <use xlink:href="#DejaVuSans-7a" transform="translate(470.751953 0)"/>
      <use xlink:href="#DejaVuSans-20" transform="translate(523.242188 0)"/>
      <use xlink:href="#DejaVuSans-28" transform="translate(555.029297 0)"/>
      <use xlink:href="#DejaVuSans-48" transform="translate(594.042969 0)"/>
      <use xlink:href="#DejaVuSans-65" transform="translate(669.238281 0)"/>
      <use xlink:href="#DejaVuSans-64" transform="translate(730.761719 0)"/>
      <use xlink:href="#DejaVuSans-65" transform="translate(794.238281 0)"/>
      <use xlink:href="#DejaVuSans-66" transform="translate(855.761719 0)"/>
      <use xlink:href="#DejaVuSans-3a" transform="translate(887.341797 0)"/>
      <use xlink:href="#DejaVuSans-20" transform="translate(921.033203 0)"/>
      <use xlink:href="#DejaVuSans-31" transform="translate(952.820312 0)"/>
      <use xlink:href="#DejaVuSans-32" transform="translate(1016.443359 0)"/>
      <use xlink:href="#DejaVuSans-2e" transform="translate(1080.066406 0)"/>
      <use xlink:href="#DejaVuSans-35" transform="translate(1111.853516 0)"/>
      <use xlink:href="#DejaVuSans-29" transform="translate(1175.476562 0)"/>
     </g>
    </g>
    <g id="line2d_28">
     <path d="M 856.121525 400.852151 
L 866.121525 400.852151 
L 876.121525 400.852151 
" style="fill: none; stroke: #d62728; stroke-opacity: 0.99; stroke-width: 0.2; stroke-linecap: square"/>
    </g>
    <g id="text_22">
     <!-- 12.60 GHz (Hedef: 12.25) -->
     <g transform="translate(884.121525 404.352151) scale(0.1 -0.1)">
      <defs>
       <path id="DejaVuSans-36" d="M 2113 2584 
Q 1688 2584 1439 2293 
Q 1191 2003 1191 1497 
Q 1191 994 1439 701 
Q 1688 409 2113 409 
Q 2538 409 2786 701 
Q 3034 994 3034 1497 
Q 3034 2003 2786 2293 
Q 2538 2584 2113 2584 
z
M 3366 4563 
L 3366 3988 
Q 3128 4100 2886 4159 
Q 2644 4219 2406 4219 
Q 1781 4219 1451 3797 
Q 1122 3375 1075 2522 
Q 1259 2794 1537 2939 
Q 1816 3084 2150 3084 
Q 2853 3084 3261 2657 
Q 3669 2231 3669 1497 
Q 3669 778 3244 343 
Q 2819 -91 2113 -91 
Q 1303 -91 875 529 
Q 447 1150 447 2328 
Q 447 3434 972 4092 
Q 1497 4750 2381 4750 
Q 2619 4750 2861 4703 
Q 3103 4656 3366 4563 
z
" transform="scale(0.015625)"/>
      </defs>
      <use xlink:href="#DejaVuSans-31"/>
      <use xlink:href="#DejaVuSans-32" transform="translate(63.623047 0)"/>
      <use xlink:href="#DejaVuSans-2e" transform="translate(127.246094 0)"/>
      <use xlink:href="#DejaVuSans-36" transform="translate(159.033203 0)"/>
      <use xlink:href="#DejaVuSans-30" transform="translate(222.65625 0)"/>
      <use xlink:href="#DejaVuSans-20" transform="translate(286.279297 0)"/>
      <use xlink:href="#DejaVuSans-47" transform="translate(318.066406 0)"/>
      <use xlink:href="#DejaVuSans-48" transform="translate(395.556641 0)"/>
      <use xlink:href="#DejaVuSans-7a" transform="translate(470.751953 0)"/>
      <use xlink:href="#DejaVuSans-20" transform="translate(523.242188 0)"/>
      <use xlink:href="#DejaVuSans-28" transform="translate(555.029297 0)"/>
      <use xlink:href="#DejaVuSans-48" transform="translate(594.042969 0)"/>
      <use xlink:href="#DejaVuSans-65" transform="translate(669.238281 0)"/>
      <use xlink:href="#DejaVuSans-64" transform="translate(730.761719 0)"/>
      <use xlink:href="#DejaVuSans-65" transform="translate(794.238281 0)"/>
      <use xlink:href="#DejaVuSans-66" transform="translate(855.761719 0)"/>
      <use xlink:href="#DejaVuSans-3a" transform="translate(887.341797 0)"/>
      <use xlink:href="#DejaVuSans-20" transform="translate(921.033203 0)"/>
      <use xlink:href="#DejaVuSans-31" transform="translate(952.820312 0)"/>
      <use xlink:href="#DejaVuSans-32" transform="translate(1016.443359 0)"/>
      <use xlink:href="#DejaVuSans-2e" transform="translate(1080.066406 0)"/>
      <use xlink:href="#DejaVuSans-32" transform="translate(1111.853516 0)"/>
      <use xlink:href="#DejaVuSans-35" transform="translate(1175.476562 0)"/>
      <use xlink:href="#DejaVuSans-29" transform="translate(1239.099609 0)"/>
     </g>
    </g>
    <g id="line2d_29">
     <path d="M 856.121525 415.530276 
L 866.121525 415.530276 
L 876.121525 415.530276 
" style="fill: none; stroke: #9467bd; stroke-opacity: 0.99; stroke-width: 0.2; stroke-linecap: square"/>
    </g>
    <g id="text_23">
     <!-- 12.80 GHz (Hedef: 12.25) -->
     <g transform="translate(884.121525 419.030276) scale(0.1 -0.1)">
      <defs>
       <path id="DejaVuSans-38" d="M 2034 2216 
Q 1584 2216 1326 1975 
Q 1069 1734 1069 1313 
Q 1069 891 1326 650 
Q 1584 409 2034 409 
Q 2484 409 2743 651 
Q 3003 894 3003 1313 
Q 3003 1734 2745 1975 
Q 2488 2216 2034 2216 
z
M 1403 2484 
Q 997 2584 770 2862 
Q 544 3141 544 3541 
Q 544 4100 942 4425 
Q 1341 4750 2034 4750 
Q 2731 4750 3128 4425 
Q 3525 4100 3525 3541 
Q 3525 3141 3298 2862 
Q 3072 2584 2669 2484 
Q 3125 2378 3379 2068 
Q 3634 1759 3634 1313 
Q 3634 634 3220 271 
Q 2806 -91 2034 -91 
Q 1263 -91 848 271 
Q 434 634 434 1313 
Q 434 1759 690 2068 
Q 947 2378 1403 2484 
z
M 1172 3481 
Q 1172 3119 1398 2916 
Q 1625 2713 2034 2713 
Q 2441 2713 2670 2916 
Q 2900 3119 2900 3481 
Q 2900 3844 2670 4047 
Q 2441 4250 2034 4250 
Q 1625 4250 1398 4047 
Q 1172 3844 1172 3481 
z
" transform="scale(0.015625)"/>
      </defs>
      <use xlink:href="#DejaVuSans-31"/>
      <use xlink:href="#DejaVuSans-32" transform="translate(63.623047 0)"/>
      <use xlink:href="#DejaVuSans-2e" transform="translate(127.246094 0)"/>
      <use xlink:href="#DejaVuSans-38" transform="translate(159.033203 0)"/>
      <use xlink:href="#DejaVuSans-30" transform="translate(222.65625 0)"/>
      <use xlink:href="#DejaVuSans-20" transform="translate(286.279297 0)"/>
      <use xlink:href="#DejaVuSans-47" transform="translate(318.066406 0)"/>
      <use xlink:href="#DejaVuSans-48" transform="translate(395.556641 0)"/>
      <use xlink:href="#DejaVuSans-7a" transform="translate(470.751953 0)"/>
      <use xlink:href="#DejaVuSans-20" transform="translate(523.242188 0)"/>
      <use xlink:href="#DejaVuSans-28" transform="translate(555.029297 0)"/>
      <use xlink:href="#DejaVuSans-48" transform="translate(594.042969 0)"/>
      <use xlink:href="#DejaVuSans-65" transform="translate(669.238281 0)"/>
      <use xlink:href="#DejaVuSans-64" transform="translate(730.761719 0)"/>
      <use xlink:href="#DejaVuSans-65" transform="translate(794.238281 0)"/>
      <use xlink:href="#DejaVuSans-66" transform="translate(855.761719 0)"/>
      <use xlink:href="#DejaVuSans-3a" transform="translate(887.341797 0)"/>
      <use xlink:href="#DejaVuSans-20" transform="translate(921.033203 0)"/>
      <use xlink:href="#DejaVuSans-31" transform="translate(952.820312 0)"/>
      <use xlink:href="#DejaVuSans-32" transform="translate(1016.443359 0)"/>
      <use xlink:href="#DejaVuSans-2e" transform="translate(1080.066406 0)"/>
      <use xlink:href="#DejaVuSans-32" transform="translate(1111.853516 0)"/>
      <use xlink:href="#DejaVuSans-35" transform="translate(1175.476562 0)"/>
      <use xlink:href="#DejaVuSans-29" transform="translate(1239.099609 0)"/>
     </g>
    </g>
    <g id="line2d_30">
     <path d="M 856.121525 430.208401 
L 866.121525 430.208401 
L 876.121525 430.208401 
" style="fill: none; stroke: #8c564b; stroke-opacity: 0.99; stroke-width: 0.2; stroke-linecap: square"/>
    </g>
    <g id="text_24">
     <!-- 13.00 GHz (Hedef: 12.0) -->
     <g transform="translate(884.121525 433.708401) scale(0.1 -0.1)">
      <defs>
       <path id="DejaVuSans-33" d="M 2597 2516 
Q 3050 2419 3304 2112 
Q 3559 1806 3559 1356 
Q 3559 666 3084 287 
Q 2609 -91 1734 -91 
Q 1441 -91 1130 -33 
Q 819 25 488 141 
L 488 750 
Q 750 597 1062 519 
Q 1375 441 1716 441 
Q 2309 441 2620 675 
Q 2931 909 2931 1356 
Q 2931 1769 2642 2001 
Q 2353 2234 1838 2234 
L 1294 2234 
L 1294 2753 
L 1863 2753 
Q 2328 2753 2575 2939 
Q 2822 3125 2822 3475 
Q 2822 3834 2567 4026 
Q 2313 4219 1838 4219 
Q 1578 4219 1281 4162 
Q 984 4106 628 3988 
L 628 4550 
Q 988 4650 1302 4700 
Q 1616 4750 1894 4750 
Q 2613 4750 3031 4423 
Q 3450 4097 3450 3541 
Q 3450 3153 3228 2886 
Q 3006 2619 2597 2516 
z
" transform="scale(0.015625)"/>
      </defs>
      <use xlink:href="#DejaVuSans-31"/>
      <use xlink:href="#DejaVuSans-33" transform="translate(63.623047 0)"/>
      <use xlink:href="#DejaVuSans-2e" transform="translate(127.246094 0)"/>
      <use xlink:href="#DejaVuSans-30" transform="translate(159.033203 0)"/>
      <use xlink:href="#DejaVuSans-30" transform="translate(222.65625 0)"/>
      <use xlink:href="#DejaVuSans-20" transform="translate(286.279297 0)"/>
      <use xlink:href="#DejaVuSans-47" transform="translate(318.066406 0)"/>
      <use xlink:href="#DejaVuSans-48" transform="translate(395.556641 0)"/>
      <use xlink:href="#DejaVuSans-7a" transform="translate(470.751953 0)"/>
      <use xlink:href="#DejaVuSans-20" transform="translate(523.242188 0)"/>
      <use xlink:href="#DejaVuSans-28" transform="translate(555.029297 0)"/>
      <use xlink:href="#DejaVuSans-48" transform="translate(594.042969 0)"/>
      <use xlink:href="#DejaVuSans-65" transform="translate(669.238281 0)"/>
      <use xlink:href="#DejaVuSans-64" transform="translate(730.761719 0)"/>
      <use xlink:href="#DejaVuSans-65" transform="translate(794.238281 0)"/>
      <use xlink:href="#DejaVuSans-66" transform="translate(855.761719 0)"/>
      <use xlink:href="#DejaVuSans-3a" transform="translate(887.341797 0)"/>
      <use xlink:href="#DejaVuSans-20" transform="translate(921.033203 0)"/>
      <use xlink:href="#DejaVuSans-31" transform="translate(952.820312 0)"/>
      <use xlink:href="#DejaVuSans-32" transform="translate(1016.443359 0)"/>
      <use xlink:href="#DejaVuSans-2e" transform="translate(1080.066406 0)"/>
      <use xlink:href="#DejaVuSans-30" transform="translate(1111.853516 0)"/>
      <use xlink:href="#DejaVuSans-29" transform="translate(1175.476562 0)"/>
     </g>
    </g>
    <g id="line2d_31">
     <path d="M 856.121525 444.886526 
L 866.121525 444.886526 
L 876.121525 444.886526 
" style="fill: none; stroke: #e377c2; stroke-opacity: 0.99; stroke-width: 0.2; stroke-linecap: square"/>
    </g>
    <g id="text_25">
     <!-- 13.20 GHz (Hedef: 11.75) -->
     <g transform="translate(884.121525 448.386526) scale(0.1 -0.1)">
      <use xlink:href="#DejaVuSans-31"/>
      <use xlink:href="#DejaVuSans-33" transform="translate(63.623047 0)"/>
      <use xlink:href="#DejaVuSans-2e" transform="translate(127.246094 0)"/>
      <use xlink:href="#DejaVuSans-32" transform="translate(159.033203 0)"/>
      <use xlink:href="#DejaVuSans-30" transform="translate(222.65625 0)"/>
      <use xlink:href="#DejaVuSans-20" transform="translate(286.279297 0)"/>
      <use xlink:href="#DejaVuSans-47" transform="translate(318.066406 0)"/>
      <use xlink:href="#DejaVuSans-48" transform="translate(395.556641 0)"/>
      <use xlink:href="#DejaVuSans-7a" transform="translate(470.751953 0)"/>
      <use xlink:href="#DejaVuSans-20" transform="translate(523.242188 0)"/>
      <use xlink:href="#DejaVuSans-28" transform="translate(555.029297 0)"/>
      <use xlink:href="#DejaVuSans-48" transform="translate(594.042969 0)"/>
      <use xlink:href="#DejaVuSans-65" transform="translate(669.238281 0)"/>
      <use xlink:href="#DejaVuSans-64" transform="translate(730.761719 0)"/>
      <use xlink:href="#DejaVuSans-65" transform="translate(794.238281 0)"/>
      <use xlink:href="#DejaVuSans-66" transform="translate(855.761719 0)"/>
      <use xlink:href="#DejaVuSans-3a" transform="translate(887.341797 0)"/>
      <use xlink:href="#DejaVuSans-20" transform="translate(921.033203 0)"/>
      <use xlink:href="#DejaVuSans-31" transform="translate(952.820312 0)"/>
      <use xlink:href="#DejaVuSans-31" transform="translate(1016.443359 0)"/>
      <use xlink:href="#DejaVuSans-2e" transform="translate(1080.066406 0)"/>
      <use xlink:href="#DejaVuSans-37" transform="translate(1111.853516 0)"/>
      <use xlink:href="#DejaVuSans-35" transform="translate(1175.476562 0)"/>
      <use xlink:href="#DejaVuSans-29" transform="translate(1239.099609 0)"/>
     </g>
    </g>
    <g id="line2d_32">
     <path d="M 856.121525 459.564651 
L 866.121525 459.564651 
L 876.121525 459.564651 
" style="fill: none; stroke: #7f7f7f; stroke-opacity: 0.99; stroke-width: 0.2; stroke-linecap: square"/>
    </g>
    <g id="text_26">
     <!-- 13.40 GHz (Hedef: 11.5) -->
     <g transform="translate(884.121525 463.064651) scale(0.1 -0.1)">
      <use xlink:href="#DejaVuSans-31"/>
      <use xlink:href="#DejaVuSans-33" transform="translate(63.623047 0)"/>
      <use xlink:href="#DejaVuSans-2e" transform="translate(127.246094 0)"/>
      <use xlink:href="#DejaVuSans-34" transform="translate(159.033203 0)"/>
      <use xlink:href="#DejaVuSans-30" transform="translate(222.65625 0)"/>
      <use xlink:href="#DejaVuSans-20" transform="translate(286.279297 0)"/>
      <use xlink:href="#DejaVuSans-47" transform="translate(318.066406 0)"/>
      <use xlink:href="#DejaVuSans-48" transform="translate(395.556641 0)"/>
      <use xlink:href="#DejaVuSans-7a" transform="translate(470.751953 0)"/>
      <use xlink:href="#DejaVuSans-20" transform="translate(523.242188 0)"/>
      <use xlink:href="#DejaVuSans-28" transform="translate(555.029297 0)"/>
      <use xlink:href="#DejaVuSans-48" transform="translate(594.042969 0)"/>
      <use xlink:href="#DejaVuSans-65" transform="translate(669.238281 0)"/>
      <use xlink:href="#DejaVuSans-64" transform="translate(730.761719 0)"/>
      <use xlink:href="#DejaVuSans-65" transform="translate(794.238281 0)"/>
      <use xlink:href="#DejaVuSans-66" transform="translate(855.761719 0)"/>
      <use xlink:href="#DejaVuSans-3a" transform="translate(887.341797 0)"/>
      <use xlink:href="#DejaVuSans-20" transform="translate(921.033203 0)"/>
      <use xlink:href="#DejaVuSans-31" transform="translate(952.820312 0)"/>
      <use xlink:href="#DejaVuSans-31" transform="translate(1016.443359 0)"/>
      <use xlink:href="#DejaVuSans-2e" transform="translate(1080.066406 0)"/>
      <use xlink:href="#DejaVuSans-35" transform="translate(1111.853516 0)"/>
      <use xlink:href="#DejaVuSans-29" transform="translate(1175.476562 0)"/>
     </g>
    </g>
    <g id="line2d_33">
     <path d="M 856.121525 474.242776 
L 866.121525 474.242776 
L 876.121525 474.242776 
" style="fill: none; stroke: #bcbd22; stroke-opacity: 0.99; stroke-width: 0.2; stroke-linecap: square"/>
    </g>
    <g id="text_27">
     <!-- 13.60 GHz (Hedef: 11.25) -->
     <g transform="translate(884.121525 477.742776) scale(0.1 -0.1)">
      <use xlink:href="#DejaVuSans-31"/>
      <use xlink:href="#DejaVuSans-33" transform="translate(63.623047 0)"/>
      <use xlink:href="#DejaVuSans-2e" transform="translate(127.246094 0)"/>
      <use xlink:href="#DejaVuSans-36" transform="translate(159.033203 0)"/>
      <use xlink:href="#DejaVuSans-30" transform="translate(222.65625 0)"/>
      <use xlink:href="#DejaVuSans-20" transform="translate(286.279297 0)"/>
      <use xlink:href="#DejaVuSans-47" transform="translate(318.066406 0)"/>
      <use xlink:href="#DejaVuSans-48" transform="translate(395.556641 0)"/>
      <use xlink:href="#DejaVuSans-7a" transform="translate(470.751953 0)"/>
      <use xlink:href="#DejaVuSans-20" transform="translate(523.242188 0)"/>
      <use xlink:href="#DejaVuSans-28" transform="translate(555.029297 0)"/>
      <use xlink:href="#DejaVuSans-48" transform="translate(594.042969 0)"/>
      <use xlink:href="#DejaVuSans-65" transform="translate(669.238281 0)"/>
      <use xlink:href="#DejaVuSans-64" transform="translate(730.761719 0)"/>
      <use xlink:href="#DejaVuSans-65" transform="translate(794.238281 0)"/>
      <use xlink:href="#DejaVuSans-66" transform="translate(855.761719 0)"/>
      <use xlink:href="#DejaVuSans-3a" transform="translate(887.341797 0)"/>
      <use xlink:href="#DejaVuSans-20" transform="translate(921.033203 0)"/>
      <use xlink:href="#DejaVuSans-31" transform="translate(952.820312 0)"/>
      <use xlink:href="#DejaVuSans-31" transform="translate(1016.443359 0)"/>
      <use xlink:href="#DejaVuSans-2e" transform="translate(1080.066406 0)"/>
      <use xlink:href="#DejaVuSans-32" transform="translate(1111.853516 0)"/>
      <use xlink:href="#DejaVuSans-35" transform="translate(1175.476562 0)"/>
      <use xlink:href="#DejaVuSans-29" transform="translate(1239.099609 0)"/>
     </g>
    </g>
    <g id="line2d_34">
     <path d="M 856.121525 488.920901 
L 866.121525 488.920901 
L 876.121525 488.920901 
" style="fill: none; stroke: #17becf; stroke-opacity: 0.99; stroke-width: 0.2; stroke-linecap: square"/>
    </g>
    <g id="text_28">
     <!-- 13.80 GHz (Hedef: 11.0) -->
     <g transform="translate(884.121525 492.420901) scale(0.1 -0.1)">
      <use xlink:href="#DejaVuSans-31"/>
      <use xlink:href="#DejaVuSans-33" transform="translate(63.623047 0)"/>
      <use xlink:href="#DejaVuSans-2e" transform="translate(127.246094 0)"/>
      <use xlink:href="#DejaVuSans-38" transform="translate(159.033203 0)"/>
      <use xlink:href="#DejaVuSans-30" transform="translate(222.65625 0)"/>
      <use xlink:href="#DejaVuSans-20" transform="translate(286.279297 0)"/>
      <use xlink:href="#DejaVuSans-47" transform="translate(318.066406 0)"/>
      <use xlink:href="#DejaVuSans-48" transform="translate(395.556641 0)"/>
      <use xlink:href="#DejaVuSans-7a" transform="translate(470.751953 0)"/>
      <use xlink:href="#DejaVuSans-20" transform="translate(523.242188 0)"/>
      <use xlink:href="#DejaVuSans-28" transform="translate(555.029297 0)"/>
      <use xlink:href="#DejaVuSans-48" transform="translate(594.042969 0)"/>
      <use xlink:href="#DejaVuSans-65" transform="translate(669.238281 0)"/>
      <use xlink:href="#DejaVuSans-64" transform="translate(730.761719 0)"/>
      <use xlink:href="#DejaVuSans-65" transform="translate(794.238281 0)"/>
      <use xlink:href="#DejaVuSans-66" transform="translate(855.761719 0)"/>
      <use xlink:href="#DejaVuSans-3a" transform="translate(887.341797 0)"/>
      <use xlink:href="#DejaVuSans-20" transform="translate(921.033203 0)"/>
      <use xlink:href="#DejaVuSans-31" transform="translate(952.820312 0)"/>
      <use xlink:href="#DejaVuSans-31" transform="translate(1016.443359 0)"/>
      <use xlink:href="#DejaVuSans-2e" transform="translate(1080.066406 0)"/>
      <use xlink:href="#DejaVuSans-30" transform="translate(1111.853516 0)"/>
      <use xlink:href="#DejaVuSans-29" transform="translate(1175.476562 0)"/>
     </g>
    </g>
    <g id="line2d_35">
     <path d="M 856.121525 503.599026 
L 866.121525 503.599026 
L 876.121525 503.599026 
" style="fill: none; stroke: #1f77b4; stroke-opacity: 0.99; stroke-width: 0.2; stroke-linecap: square"/>
    </g>
    <g id="text_29">
     <!-- 14.00 GHz (Hedef: 10.5) -->
     <g transform="translate(884.121525 507.099026) scale(0.1 -0.1)">
      <use xlink:href="#DejaVuSans-31"/>
      <use xlink:href="#DejaVuSans-34" transform="translate(63.623047 0)"/>
      <use xlink:href="#DejaVuSans-2e" transform="translate(127.246094 0)"/>
      <use xlink:href="#DejaVuSans-30" transform="translate(159.033203 0)"/>
      <use xlink:href="#DejaVuSans-30" transform="translate(222.65625 0)"/>
      <use xlink:href="#DejaVuSans-20" transform="translate(286.279297 0)"/>
      <use xlink:href="#DejaVuSans-47" transform="translate(318.066406 0)"/>
      <use xlink:href="#DejaVuSans-48" transform="translate(395.556641 0)"/>
      <use xlink:href="#DejaVuSans-7a" transform="translate(470.751953 0)"/>
      <use xlink:href="#DejaVuSans-20" transform="translate(523.242188 0)"/>
      <use xlink:href="#DejaVuSans-28" transform="translate(555.029297 0)"/>
      <use xlink:href="#DejaVuSans-48" transform="translate(594.042969 0)"/>
      <use xlink:href="#DejaVuSans-65" transform="translate(669.238281 0)"/>
      <use xlink:href="#DejaVuSans-64" transform="translate(730.761719 0)"/>
      <use xlink:href="#DejaVuSans-65" transform="translate(794.238281 0)"/>
      <use xlink:href="#DejaVuSans-66" transform="translate(855.761719 0)"/>
      <use xlink:href="#DejaVuSans-3a" transform="translate(887.341797 0)"/>
      <use xlink:href="#DejaVuSans-20" transform="translate(921.033203 0)"/>
      <use xlink:href="#DejaVuSans-31" transform="translate(952.820312 0)"/>
      <use xlink:href="#DejaVuSans-30" transform="translate(1016.443359 0)"/>
      <use xlink:href="#DejaVuSans-2e" transform="translate(1080.066406 0)"/>
      <use xlink:href="#DejaVuSans-35" transform="translate(1111.853516 0)"/>
      <use xlink:href="#DejaVuSans-29" transform="translate(1175.476562 0)"/>
     </g>
    </g>
    <g id="line2d_36">
     <path d="M 856.121525 518.277151 
L 866.121525 518.277151 
L 876.121525 518.277151 
" style="fill: none; stroke: #000000; stroke-width: 1.5; stroke-linecap: square"/>
     <defs>
      <path id="m879119a316" d="M -0.025 0.05 
L 0 0.025 
L 0.025 0.05 
L 0.05 0.025 
L 0.025 0 
L 0.05 -0.025 
L 0.025 -0.05 
L 0 -0.025 
L -0.025 -0.05 
L -0.05 -0.025 
L -0.025 0 
L -0.05 0.025 
z
" style="stroke: #000000; stroke-linejoin: miter"/>
     </defs>
     <g>
      <use xlink:href="#m879119a316" x="866.121525" y="518.277151" style="stroke: #000000; stroke-linejoin: miter"/>
     </g>
    </g>
    <g id="text_30">
     <!-- Optimum Target -->
     <g transform="translate(884.121525 521.777151) scale(0.1 -0.1)">
      <use xlink:href="#DejaVuSans-4f"/>
      <use xlink:href="#DejaVuSans-70" transform="translate(78.710938 0)"/>
      <use xlink:href="#DejaVuSans-74" transform="translate(142.1875 0)"/>
      <use xlink:href="#DejaVuSans-69" transform="translate(181.396484 0)"/>
      <use xlink:href="#DejaVuSans-6d" transform="translate(209.179688 0)"/>
      <use xlink:href="#DejaVuSans-75" transform="translate(306.591797 0)"/>
      <use xlink:href="#DejaVuSans-6d" transform="translate(369.970703 0)"/>
      <use xlink:href="#DejaVuSans-20" transform="translate(467.382812 0)"/>
      <use xlink:href="#DejaVuSans-54" transform="translate(499.169922 0)"/>
      <use xlink:href="#DejaVuSans-61" transform="translate(543.753906 0)"/>
      <use xlink:href="#DejaVuSans-72" transform="translate(605.033203 0)"/>
      <use xlink:href="#DejaVuSans-67" transform="translate(644.396484 0)"/>
      <use xlink:href="#DejaVuSans-65" transform="translate(707.873047 0)"/>
      <use xlink:href="#DejaVuSans-74" transform="translate(769.396484 0)"/>
     </g>
    </g>
   </g>
   <g id="patch_28">
    <path d="M 569.385468 677.227741 
L 569.599149 673.206542 
L 571.91556 675.619345 
L 573.829258 679.757833 
L 573.864661 679.851321 
L 572.281255 680.123527 
L 571.91556 680.064287 
L 569.447314 680.567639 
L 569.1325 679.757833 
z
" clip-path="url(#pbea384bbfe)" style="fill: #ff0000; opacity: 0.6; stroke: #ff0000; stroke-linejoin: miter"/>
   </g>
   <g id="line2d_37">
    <path d="M 569.385468 677.227741 
L 569.599149 673.206542 
L 571.91556 675.619345 
L 573.829258 679.757833 
L 573.864661 679.851321 
L 572.281255 680.123527 
L 571.91556 680.064287 
L 569.447314 680.567639 
L 569.1325 679.757833 
L 569.385468 677.227741 
" clip-path="url(#pbea384bbfe)" style="fill: none; stroke-dasharray: 0.74,0.32; stroke-dashoffset: 0; stroke: #000000; stroke-width: 0.2"/>
   </g>
   <g id="line2d_38">
    <path d="M 570.999961 677.657201 
" clip-path="url(#pbea384bbfe)" style="fill: none; stroke: #000000; stroke-width: 1.5; stroke-linecap: square"/>
    <g clip-path="url(#pbea384bbfe)">
     <use xlink:href="#m879119a316" x="570.999961" y="677.657201" style="stroke: #000000; stroke-linejoin: miter"/>
    </g>
   </g>
  </g>
 </g>
 <defs>
  <clipPath id="pbea384bbfe">
   <rect x="23.103125" y="34.3575" width="807.861176" height="807.861176"/>
  </clipPath>
  <clipPath id="p565f2b6acb">
   <path d="M 427.033713 834.298469 
C 532.056894 834.298469 632.792736 792.572317 707.055339 718.309714 
C 781.317942 644.047111 823.044094 543.311269 823.044094 438.288088 
C 823.044094 333.264908 781.317942 232.529066 707.055339 158.266463 
C 632.792736 84.00386 532.056894 42.277708 427.033713 42.277708 
C 322.010533 42.277708 221.274691 84.00386 147.012088 158.266463 
C 72.749485 232.529066 31.023333 333.264908 31.023333 438.288088 
C 31.023333 543.311269 72.749485 644.047111 147.012088 718.309714 
C 221.274691 792.572317 322.010533 834.298469 427.033713 834.298469 
z
"/>
  </clipPath>
 </defs>
</svg>
