<?xml version="1.0" encoding="utf-8" standalone="no"?>
<!DOCTYPE svg PUBLIC "-//W3C//DTD SVG 1.1//EN"
  "http://www.w3.org/Graphics/SVG/1.1/DTD/svg11.dtd">
<svg xmlns:xlink="http://www.w3.org/1999/xlink" width="1016.771525pt" height="855.136698pt" viewBox="0 0 1016.771525 855.136698" xmlns="http://www.w3.org/2000/svg" version="1.1">
 <metadata>
  <rdf:RDF xmlns:dc="http://purl.org/dc/elements/1.1/" xmlns:cc="http://creativecommons.org/ns#" xmlns:rdf="http://www.w3.org/1999/02/22-rdf-syntax-ns#">
   <cc:Work>
    <dc:type rdf:resource="http://purl.org/dc/dcmitype/StillImage"/>
    <dc:date>2026-02-16T01:22:20.950247</dc:date>
    <dc:format>image/svg+xml</dc:format>
    <dc:creator>
     <cc:Agent>
      <dc:title>Matplotlib v3.10.8, https://matplotlib.org/</dc:title>
     </cc:Agent>
    </dc:creator>
   </cc:Work>
  </rdf:RDF>
 </metadata>
 <defs>
  <style type="text/css">*{stroke-linejoin: round; stroke-linecap: butt}</style>
 </defs>
 <g id="figure_1">
  <g id="patch_1">
   <path d="M 0 855.136698 
L 1016.771525 855.136698 
L 1016.771525 0 
L 0 0 
z
" style="fill: #ffffff"/>
  </g>
  <g id="axes_1">
   <g id="patch_2">
    <path d="M 23.103125 842.218676 
L 830.964301 842.218676 
L 830.964301 34.3575 
L 23.103125 34.3575 
z
" style="fill: #ffffff"/>
   </g>
   <g id="patch_3">
    <path d="M 427.033713 834.298469 
C 532.056894 834.298469 632.792736 792.572317 707.055339 718.309714 
C 781.317942 644.047111 823.044094 543.311269 823.044094 438.288088 
C 823.044094 333.264908 781.317942 232.529066 707.055339 158.266463 
C 632.792736 84.00386 532.056894 42.277708 427.033713 42.277708 
C 322.010533 42.277708 221.274691 84.00386 147.012088 158.266463 
C 72.749485 232.529066 31.023333 333.264908 31.023333 438.288088 
C 31.023333 543.311269 72.749485 644.047111 147.012088 718.309714 
C 221.274691 792.572317 322.010533 834.298469 427.033713 834.298469 
L 427.033713 834.298469 
z
" clip-path="url(#p793a28393d)" style="fill: none; stroke: #000000; stroke-linejoin: miter"/>
   </g>
   <g id="patch_4">
    <path d="M 493.035443 768.296739 
C 580.55476 768.296739 664.501295 733.524946 726.386798 671.639443 
C 788.272301 609.75394 823.044094 525.807405 823.044094 438.288088 
C 823.044094 350.768771 788.272301 266.822236 726.386798 204.936734 
C 664.501295 143.051231 580.55476 108.279438 493.035443 108.279438 
C 405.516126 108.279438 321.569591 143.051231 259.684089 204.936734 
C 197.798586 266.822236 163.026793 350.768771 163.026793 438.288088 
C 163.026793 525.807405 197.798586 609.75394 259.684089 671.639443 
C 321.569591 733.524946 405.516126 768.296739 493.035443 768.296739 
L 493.035443 768.296739 
z
" clip-path="url(#p4086180954)" style="fill: none; stroke: #808080; stroke-linejoin: miter"/>
   </g>
   <g id="patch_5">
    <path d="M 559.037173 702.295009 
C 629.052627 702.295009 696.209855 674.477574 745.718257 624.969172 
C 795.226659 575.46077 823.044094 508.303542 823.044094 438.288088 
C 823.044094 368.272635 795.226659 301.115407 745.718257 251.607005 
C 696.209855 202.098602 629.052627 174.281168 559.037173 174.281168 
C 489.02172 174.281168 421.864492 202.098602 372.35609 251.607005 
C 322.847688 301.115407 295.030253 368.272635 295.030253 438.288088 
C 295.030253 508.303542 322.847688 575.46077 372.35609 624.969172 
C 421.864492 674.477574 489.02172 702.295009 559.037173 702.295009 
L 559.037173 702.295009 
z
" clip-path="url(#p4086180954)" style="fill: none; stroke: #808080; stroke-linejoin: miter"/>
   </g>
   <g id="patch_6">
    <path d="M 625.038904 636.293279 
C 677.550494 636.293279 727.918415 615.430203 765.049716 578.298901 
C 802.181018 541.167599 823.044094 490.799679 823.044094 438.288088 
C 823.044094 385.776498 802.181018 335.408577 765.049716 298.277275 
C 727.918415 261.145974 677.550494 240.282898 625.038904 240.282898 
C 572.527313 240.282898 522.159392 261.145974 485.028091 298.277275 
C 447.896789 335.408577 427.033713 385.776498 427.033713 438.288088 
C 427.033713 490.799679 447.896789 541.167599 485.028091 578.298901 
C 522.159392 615.430203 572.527313 636.293279 625.038904 636.293279 
L 625.038904 636.293279 
z
" clip-path="url(#p4086180954)" style="fill: none; stroke: #808080; stroke-linejoin: miter"/>
   </g>
   <g id="patch_7">
    <path d="M 691.040634 570.291548 
C 726.048361 570.291548 759.626974 556.382831 784.381176 531.62863 
C 809.135377 506.874429 823.044094 473.295815 823.044094 438.288088 
C 823.044094 403.280361 809.135377 369.701747 784.381176 344.947546 
C 759.626974 320.193345 726.048361 306.284628 691.040634 306.284628 
C 656.032907 306.284628 622.454293 320.193345 597.700092 344.947546 
C 572.945891 369.701747 559.037173 403.280361 559.037173 438.288088 
C 559.037173 473.295815 572.945891 506.874429 597.700092 531.62863 
C 622.454293 556.382831 656.032907 570.291548 691.040634 570.291548 
L 691.040634 570.291548 
z
" clip-path="url(#p4086180954)" style="fill: none; stroke: #808080; stroke-linejoin: miter"/>
   </g>
   <g id="patch_8">
    <path d="M 757.042364 504.289818 
C 774.546227 504.289818 791.335534 497.33546 803.712635 484.958359 
C 816.089735 472.581259 823.044094 455.791952 823.044094 438.288088 
C 823.044094 420.784225 816.089735 403.994918 803.712635 391.617817 
C 791.335534 379.240717 774.546227 372.286358 757.042364 372.286358 
C 739.5385 372.286358 722.749193 379.240717 710.372093 391.617817 
C 697.994992 403.994918 691.040634 420.784225 691.040634 438.288088 
C 691.040634 455.791952 697.994992 472.581259 710.372093 484.958359 
C 722.749193 497.33546 739.5385 504.289818 757.042364 504.289818 
L 757.042364 504.289818 
z
" clip-path="url(#p4086180954)" style="fill: none; stroke: #808080; stroke-linejoin: miter"/>
   </g>
   <g id="patch_9">
    <path d="M 823.044094 438.288088 
C 1348.159997 438.288088 1851.839206 229.657329 2223.152222 -141.655687 
C 2594.465237 -512.968703 2803.095997 -1016.647912 2803.095997 -1541.763815 
C 2803.095997 -2066.879718 2594.465237 -2570.558927 2223.152222 -2941.871943 
C 1851.839206 -3313.184958 1348.159997 -3521.815718 823.044094 -3521.815718 
C 297.928191 -3521.815718 -205.751018 -3313.184958 -577.064034 -2941.871943 
C -948.37705 -2570.558927 -1157.007809 -2066.879718 -1157.007809 -1541.763815 
C -1157.007809 -1016.647912 -948.37705 -512.968703 -577.064034 -141.655687 
C -205.751018 229.657329 297.928191 438.288088 823.044094 438.288088 
L 823.044094 438.288088 
z
" clip-path="url(#p4086180954)" style="fill: none; stroke: #808080; stroke-linejoin: miter"/>
   </g>
   <g id="patch_10">
    <path d="M 823.044094 438.288088 
C 1033.090455 438.288088 1234.562139 354.835784 1383.087345 206.310578 
C 1531.612551 57.785372 1615.064855 -143.686312 1615.064855 -353.732673 
C 1615.064855 -563.779034 1531.612551 -765.250718 1383.087345 -913.775924 
C 1234.562139 -1062.30113 1033.090455 -1145.753434 823.044094 -1145.753434 
C 612.997733 -1145.753434 411.526049 -1062.30113 263.000843 -913.775924 
C 114.475636 -765.250718 31.023333 -563.779034 31.023333 -353.732673 
C 31.023333 -143.686312 114.475636 57.785372 263.000843 206.310578 
C 411.526049 354.835784 612.997733 438.288088 823.044094 438.288088 
L 823.044094 438.288088 
z
" clip-path="url(#p4086180954)" style="fill: none; stroke: #808080; stroke-linejoin: miter"/>
   </g>
   <g id="patch_11">
    <path d="M 823.044094 438.288088 
C 928.067274 438.288088 1028.803116 396.561936 1103.065719 322.299333 
C 1177.328323 248.03673 1219.054474 147.300888 1219.054474 42.277708 
C 1219.054474 -62.745473 1177.328323 -163.481315 1103.065719 -237.743918 
C 1028.803116 -312.006521 928.067274 -353.732673 823.044094 -353.732673 
C 718.020913 -353.732673 617.285071 -312.006521 543.022468 -237.743918 
C 468.759865 -163.481315 427.033713 -62.745473 427.033713 42.277708 
C 427.033713 147.300888 468.759865 248.03673 543.022468 322.299333 
C 617.285071 396.561936 718.020913 438.288088 823.044094 438.288088 
L 823.044094 438.288088 
z
" clip-path="url(#p4086180954)" style="fill: none; stroke: #808080; stroke-linejoin: miter"/>
   </g>
   <g id="patch_12">
    <path d="M 823.044094 438.288088 
C 875.555684 438.288088 925.923605 417.425012 963.054907 380.293711 
C 1000.186208 343.162409 1021.049284 292.794488 1021.049284 240.282898 
C 1021.049284 187.771308 1000.186208 137.403387 963.054907 100.272085 
C 925.923605 63.140784 875.555684 42.277708 823.044094 42.277708 
C 770.532504 42.277708 720.164583 63.140784 683.033281 100.272085 
C 645.901979 137.403387 625.038904 187.771308 625.038904 240.282898 
C 625.038904 292.794488 645.901979 343.162409 683.033281 380.293711 
C 720.164583 417.425012 770.532504 438.288088 823.044094 438.288088 
L 823.044094 438.288088 
z
" clip-path="url(#p4086180954)" style="fill: none; stroke: #808080; stroke-linejoin: miter"/>
   </g>
   <g id="patch_13">
    <path d="M 823.044094 438.288088 
C 844.04873 438.288088 864.195898 429.942858 879.048419 415.090337 
C 893.90094 400.237817 902.24617 380.090648 902.24617 359.086012 
C 902.24617 338.081376 893.90094 317.934208 879.048419 303.081687 
C 864.195898 288.229166 844.04873 279.883936 823.044094 279.883936 
C 802.039458 279.883936 781.892289 288.229166 767.039769 303.081687 
C 752.187248 317.934208 743.842018 338.081376 743.842018 359.086012 
C 743.842018 380.090648 752.187248 400.237817 767.039769 415.090337 
C 781.892289 429.942858 802.039458 438.288088 823.044094 438.288088 
L 823.044094 438.288088 
z
" clip-path="url(#p4086180954)" style="fill: none; stroke: #808080; stroke-linejoin: miter"/>
   </g>
   <g id="patch_14">
    <path d="M 823.044094 438.288088 
C 297.928191 438.288088 -205.751018 646.918848 -577.064034 1018.231864 
C -948.37705 1389.544879 -1157.007809 1893.224088 -1157.007809 2418.339991 
C -1157.007809 2943.455894 -948.37705 3447.135103 -577.064034 3818.448119 
C -205.751018 4189.761135 297.928191 4398.391894 823.044094 4398.391894 
C 1348.159997 4398.391894 1851.839206 4189.761135 2223.152222 3818.448119 
C 2594.465237 3447.135103 2803.095997 2943.455894 2803.095997 2418.339991 
C 2803.095997 1893.224088 2594.465237 1389.544879 2223.152222 1018.231864 
C 1851.839206 646.918848 1348.159997 438.288088 823.044094 438.288088 
L 823.044094 438.288088 
z
" clip-path="url(#p4086180954)" style="fill: none; stroke: #808080; stroke-linejoin: miter"/>
   </g>
   <g id="patch_15">
    <path d="M 823.044094 438.288088 
C 612.997733 438.288088 411.526049 521.740392 263.000843 670.265598 
C 114.475636 818.790805 31.023333 1020.262488 31.023333 1230.308849 
C 31.023333 1440.355211 114.475636 1641.826894 263.000843 1790.352101 
C 411.526049 1938.877307 612.997733 2022.329611 823.044094 2022.329611 
C 1033.090455 2022.329611 1234.562139 1938.877307 1383.087345 1790.352101 
C 1531.612551 1641.826894 1615.064855 1440.355211 1615.064855 1230.308849 
C 1615.064855 1020.262488 1531.612551 818.790805 1383.087345 670.265598 
C 1234.562139 521.740392 1033.090455 438.288088 823.044094 438.288088 
L 823.044094 438.288088 
z
" clip-path="url(#p4086180954)" style="fill: none; stroke: #808080; stroke-linejoin: miter"/>
   </g>
   <g id="patch_16">
    <path d="M 823.044094 438.288088 
C 718.020913 438.288088 617.285071 480.01424 543.022468 554.276843 
C 468.759865 628.539446 427.033713 729.275288 427.033713 834.298469 
C 427.033713 939.321649 468.759865 1040.057491 543.022468 1114.320094 
C 617.285071 1188.582698 718.020913 1230.308849 823.044094 1230.308849 
C 928.067274 1230.308849 1028.803116 1188.582698 1103.065719 1114.320094 
C 1177.328323 1040.057491 1219.054474 939.321649 1219.054474 834.298469 
C 1219.054474 729.275288 1177.328323 628.539446 1103.065719 554.276843 
C 1028.803116 480.01424 928.067274 438.288088 823.044094 438.288088 
L 823.044094 438.288088 
z
" clip-path="url(#p4086180954)" style="fill: none; stroke: #808080; stroke-linejoin: miter"/>
   </g>
   <g id="patch_17">
    <path d="M 823.044094 438.288088 
C 770.532504 438.288088 720.164583 459.151164 683.033281 496.282466 
C 645.901979 533.413767 625.038904 583.781688 625.038904 636.293279 
C 625.038904 688.804869 645.901979 739.17279 683.033281 776.304091 
C 720.164583 813.435393 770.532504 834.298469 823.044094 834.298469 
C 875.555684 834.298469 925.923605 813.435393 963.054907 776.304091 
C 1000.186208 739.17279 1021.049284 688.804869 1021.049284 636.293279 
C 1021.049284 583.781688 1000.186208 533.413767 963.054907 496.282466 
C 925.923605 459.151164 875.555684 438.288088 823.044094 438.288088 
L 823.044094 438.288088 
z
" clip-path="url(#p4086180954)" style="fill: none; stroke: #808080; stroke-linejoin: miter"/>
   </g>
   <g id="patch_18">
    <path d="M 823.044094 438.288088 
C 802.039458 438.288088 781.892289 446.633319 767.039769 461.485839 
C 752.187248 476.33836 743.842018 496.485528 743.842018 517.490164 
C 743.842018 538.4948 752.187248 558.641969 767.039769 573.494489 
C 781.892289 588.34701 802.039458 596.69224 823.044094 596.69224 
C 844.04873 596.69224 864.195898 588.34701 879.048419 573.494489 
C 893.90094 558.641969 902.24617 538.4948 902.24617 517.490164 
C 902.24617 496.485528 893.90094 476.33836 879.048419 461.485839 
C 864.195898 446.633319 844.04873 438.288088 823.044094 438.288088 
L 823.044094 438.288088 
z
" clip-path="url(#p4086180954)" style="fill: none; stroke: #808080; stroke-linejoin: miter"/>
   </g>
   <g id="patch_19">
    <path d="M 427.033713 834.298469 
C 532.056894 834.298469 632.792736 792.572317 707.055339 718.309714 
C 781.317942 644.047111 823.044094 543.311269 823.044094 438.288088 
C 823.044094 333.264908 781.317942 232.529066 707.055339 158.266463 
C 632.792736 84.00386 532.056894 42.277708 427.033713 42.277708 
C 322.010533 42.277708 221.274691 84.00386 147.012088 158.266463 
C 72.749485 232.529066 31.023333 333.264908 31.023333 438.288088 
C 31.023333 543.311269 72.749485 644.047111 147.012088 718.309714 
C 221.274691 792.572317 322.010533 834.298469 427.033713 834.298469 
L 427.033713 834.298469 
z
" clip-path="url(#p4086180954)" style="fill: none; stroke: #000000; stroke-linejoin: miter"/>
   </g>
   <g id="patch_20">
    <path d="M 625.038904 636.293279 
C 677.550494 636.293279 727.918415 615.430203 765.049716 578.298901 
C 802.181018 541.167599 823.044094 490.799679 823.044094 438.288088 
C 823.044094 385.776498 802.181018 335.408577 765.049716 298.277275 
C 727.918415 261.145974 677.550494 240.282898 625.038904 240.282898 
C 572.527313 240.282898 522.159392 261.145974 485.028091 298.277275 
C 447.896789 335.408577 427.033713 385.776498 427.033713 438.288088 
C 427.033713 490.799679 447.896789 541.167599 485.028091 578.298901 
C 522.159392 615.430203 572.527313 636.293279 625.038904 636.293279 
L 625.038904 636.293279 
z
" clip-path="url(#p4086180954)" style="fill: none; stroke: #000000; stroke-linejoin: miter"/>
   </g>
   <g id="patch_21">
    <path d="M 823.044094 438.288088 
C 928.067274 438.288088 1028.803116 396.561936 1103.065719 322.299333 
C 1177.328323 248.03673 1219.054474 147.300888 1219.054474 42.277708 
C 1219.054474 -62.745473 1177.328323 -163.481315 1103.065719 -237.743918 
C 1028.803116 -312.006521 928.067274 -353.732673 823.044094 -353.732673 
C 718.020913 -353.732673 617.285071 -312.006521 543.022468 -237.743918 
C 468.759865 -163.481315 427.033713 -62.745473 427.033713 42.277708 
C 427.033713 147.300888 468.759865 248.03673 543.022468 322.299333 
C 617.285071 396.561936 718.020913 438.288088 823.044094 438.288088 
L 823.044094 438.288088 
z
" clip-path="url(#p4086180954)" style="fill: none; stroke: #000000; stroke-linejoin: miter"/>
   </g>
   <g id="patch_22">
    <path d="M 823.044094 438.288088 
C 718.020913 438.288088 617.285071 480.01424 543.022468 554.276843 
C 468.759865 628.539446 427.033713 729.275288 427.033713 834.298469 
C 427.033713 939.321649 468.759865 1040.057491 543.022468 1114.320094 
C 617.285071 1188.582698 718.020913 1230.308849 823.044094 1230.308849 
C 928.067274 1230.308849 1028.803116 1188.582698 1103.065719 1114.320094 
C 1177.328323 1040.057491 1219.054474 939.321649 1219.054474 834.298469 
C 1219.054474 729.275288 1177.328323 628.539446 1103.065719 554.276843 
C 1028.803116 480.01424 928.067274 438.288088 823.044094 438.288088 
L 823.044094 438.288088 
z
" clip-path="url(#p4086180954)" style="fill: none; stroke: #000000; stroke-linejoin: miter"/>
   </g>
   <g id="matplotlib.axis_1"/>
   <g id="matplotlib.axis_2"/>
   <g id="line2d_1">
    <path d="M 23.103125 438.288088 
L 830.964301 438.288088 
" clip-path="url(#p4086180954)" style="fill: none; stroke: #000000; stroke-width: 0.1; stroke-linecap: square"/>
   </g>
   <g id="line2d_2">
    <path d="M 823.044094 842.218676 
L 823.044094 34.3575 
" clip-path="url(#p4086180954)" style="fill: none; stroke: #000000; stroke-width: 1.5; stroke-linecap: square"/>
   </g>
   <g id="line2d_3"/>
   <g id="line2d_4"/>
   <g id="line2d_5">
    <path d="M 506.475747 650.307544 
L 510.831055 649.639913 
L 522.294076 649.980368 
L 524.735123 650.307544 
L 533.00783 651.723645 
L 544.096217 655.07086 
L 547.738613 656.810292 
L 555.184604 660.094327 
L 566.272991 667.389704 
L 567.592147 668.522962 
L 569.119223 669.67501 
L 572.993993 673.489143 
L 577.361379 677.152589 
L 578.379705 678.469415 
L 579.268997 679.358742 
L 582.884952 684.218617 
L 588.449766 690.776951 
L 590.999617 696.499367 
L 592.140536 698.726208 
L 593.901821 703.648541 
L 595.331508 708.409941 
L 595.334933 712.080706 
L 595.179442 714.287116 
L 595.182577 718.093674 
L 592.41564 727.777407 
L 592.969678 731.724745 
L 592.933405 733.545479 
L 593.691632 737.46114 
L 597.25971 739.450955 
L 599.538153 740.284326 
L 602.249286 744.777181 
L 603.108978 747.144873 
L 602.147354 749.423545 
L 602.566465 754.183914 
L 601.998505 756.828606 
L 600.582072 757.740283 
L 599.538153 759.337207 
L 594.887551 762.450865 
L 592.332176 766.512339 
L 589.671546 767.579346 
L 588.449766 768.717824 
L 584.678341 769.806007 
L 581.079624 769.759564 
L 577.361379 773.11507 
L 573.939058 773.207283 
L 571.126527 776.196071 
L 568.478639 778.122312 
L 568.596803 783.850368 
L 567.795555 785.879804 
L 567.120933 786.620331 
L 566.272991 788.310031 
L 561.311364 791.230439 
L 558.082077 795.563537 
L 556.041385 796.311783 
L 555.184604 796.819103 
L 553.612206 796.936747 
L 542.528794 795.563537 
L 542.674132 794.321599 
L 541.636466 788.027959 
L 541.796056 785.879804 
L 542.90895 784.842938 
L 544.096217 784.123553 
L 553.578843 776.196071 
L 555.184604 774.621828 
L 560.416473 771.081445 
L 562.904079 766.512339 
L 563.913599 756.828606 
L 564.081494 754.914723 
L 566.952224 747.738061 
L 567.851382 747.144873 
L 568.487572 745.210831 
L 568.662508 739.547958 
L 570.138805 737.46114 
L 568.054935 735.904929 
L 566.272991 734.906963 
L 562.56652 731.01435 
L 558.786973 727.777407 
L 557.091756 726.111849 
L 555.184604 724.601947 
L 550.927126 721.811824 
L 543.91647 718.093674 
L 533.00783 716.081787 
L 530.886006 716.240639 
L 521.29274 717.546361 
L 520.085524 718.093674 
L 513.53634 720.456259 
L 510.831055 721.915097 
L 507.095635 724.515182 
L 503.911981 727.777407 
L 501.874964 729.639588 
L 499.742668 732.605341 
L 497.477851 735.483225 
L 496.490195 737.46114 
L 494.213203 742.315869 
L 492.509333 747.144873 
L 491.878879 749.960986 
L 491.518407 754.327301 
L 491.063226 756.828606 
L 491.418034 759.242252 
L 492.245418 763.37612 
L 492.659827 766.512339 
L 495.217361 770.464389 
L 499.569903 776.346951 
L 499.742668 776.418321 
L 504.773978 781.485851 
L 509.95405 785.879804 
L 510.24552 786.391165 
L 515.326259 791.637777 
L 518.479904 795.563537 
L 513.251294 797.677185 
L 510.831055 798.2777 
L 507.453512 798.51322 
L 503.929163 799.219696 
L 499.742668 799.429934 
L 496.629228 798.282573 
L 488.654281 796.358212 
L 486.209633 795.563537 
L 482.3792 791.359971 
L 477.565893 788.423941 
L 476.029554 787.221523 
L 473.803151 785.879804 
L 471.215866 781.741691 
L 466.477506 777.760405 
L 465.779163 776.80595 
L 465.078273 776.196071 
L 463.382281 773.492943 
L 461.885222 770.522881 
L 457.794211 766.512339 
L 457.172489 764.954882 
L 455.389119 762.596243 
L 453.577684 758.410572 
L 452.499192 756.828606 
L 451.461184 753.398253 
L 450.979135 750.996209 
L 449.49298 747.144873 
L 448.725488 743.280635 
L 447.722582 740.449517 
L 446.973546 737.46114 
L 446.79441 735.283355 
L 445.382071 727.777407 
L 445.42969 726.791463 
L 445.712891 718.093674 
L 445.993138 716.615658 
L 447.675086 708.409941 
L 450.949817 698.726208 
L 452.281218 696.01201 
L 455.389119 688.597532 
L 459.726321 683.146516 
L 462.328196 679.358742 
L 464.199127 677.368984 
L 466.477506 674.646867 
L 469.485889 672.302297 
L 472.232233 669.67501 
L 475.121886 667.540604 
L 477.565893 665.337538 
L 481.199356 663.16446 
L 485.163545 659.991277 
L 487.211442 658.731214 
L 488.654281 657.686513 
L 494.794168 654.629178 
L 499.742668 651.910803 
L 506.475747 650.307544 
L 506.475747 650.307544 
" clip-path="url(#p793a28393d)" style="fill: none; stroke: #1f77b4; stroke-opacity: 0.99; stroke-width: 0.2; stroke-linecap: square"/>
   </g>
   <g id="line2d_6">
    <path d="M 515.58504 669.67501 
L 521.919442 668.840931 
L 528.998151 669.67501 
L 533.00783 670.727689 
L 547.017548 676.80748 
L 555.184604 679.490434 
L 560.499876 684.400531 
L 561.008516 684.444893 
L 566.272991 686.218577 
L 567.962804 687.566725 
L 572.167488 689.042475 
L 574.968144 691.13254 
L 577.361379 691.366189 
L 581.276886 695.30671 
L 587.09807 697.545742 
L 588.449766 698.229837 
L 588.947773 699.161129 
L 592.826194 708.409941 
L 590.896898 715.95654 
L 590.361569 718.093674 
L 589.529943 719.037016 
L 588.449766 719.925262 
L 586.963379 719.391769 
L 581.116842 718.093674 
L 578.996561 716.665633 
L 577.361379 716.15333 
L 573.08339 712.146003 
L 566.958614 708.409941 
L 566.94214 707.825559 
L 566.272991 706.970983 
L 562.942033 701.635208 
L 558.293897 698.726208 
L 557.682512 696.544731 
L 555.184604 695.303439 
L 549.508881 693.769474 
L 544.096217 692.970094 
L 539.439635 693.109171 
L 537.931937 693.342807 
L 533.00783 693.451884 
L 528.595362 694.872703 
L 521.005496 697.928039 
L 520.104572 698.726208 
L 514.44608 701.883289 
L 510.831055 704.977625 
L 508.606127 706.466863 
L 507.07737 708.409941 
L 503.139034 711.376063 
L 499.742668 715.606732 
L 498.120649 716.67713 
L 496.960323 718.093674 
L 493.102318 721.978243 
L 491.647836 725.163069 
L 489.648461 728.645647 
L 488.654281 733.637387 
L 487.041768 736.052897 
L 486.75433 737.46114 
L 486.660453 739.202394 
L 485.408014 744.309836 
L 485.300768 747.144873 
L 485.942086 749.513492 
L 486.594095 755.0294 
L 486.986474 756.828606 
L 487.372941 757.947628 
L 488.654281 759.000869 
L 490.990882 766.512339 
L 494.807697 770.822157 
L 499.742668 774.280857 
L 500.904173 776.196071 
L 504.851485 781.418162 
L 509.257572 785.879804 
L 505.208739 790.653445 
L 499.742668 795.172995 
L 495.289827 789.768568 
L 492.081417 788.872798 
L 488.654281 787.286213 
L 487.869743 786.564958 
L 486.687876 785.879804 
L 485.323363 782.970841 
L 484.765387 779.592328 
L 480.569698 776.196071 
L 480.512169 773.623024 
L 477.565893 771.59041 
L 476.164097 767.736558 
L 474.712165 766.512339 
L 473.703893 763.139568 
L 473.608797 760.284425 
L 471.630154 756.828606 
L 471.589738 752.363981 
L 471.312271 751.36718 
L 471.250781 747.144873 
L 471.633769 737.46114 
L 473.320826 724.070096 
L 473.339679 721.78452 
L 473.781273 718.093674 
L 474.414037 715.341089 
L 474.624131 710.979047 
L 475.076833 708.409941 
L 475.711979 706.790877 
L 477.565893 699.834401 
L 478.06255 699.15995 
L 478.21513 698.726208 
L 483.581811 694.296309 
L 485.411474 691.87449 
L 487.7299 689.042475 
L 488.654281 688.129879 
L 494.263203 684.257138 
L 494.543491 683.899298 
L 498.465548 679.358742 
L 499.742668 678.14309 
L 505.559807 674.755246 
L 510.831055 670.91633 
L 511.963665 670.664143 
L 515.58504 669.67501 
L 515.58504 669.67501 
" clip-path="url(#p793a28393d)" style="fill: none; stroke: #ff7f0e; stroke-opacity: 0.99; stroke-width: 0.2; stroke-linecap: square"/>
   </g>
   <g id="line2d_7">
    <path d="M 583.07115 747.144873 
L 584.929978 744.070964 
L 588.449766 741.26639 
L 591.825241 740.409017 
L 596.342512 740.251964 
L 599.538153 739.704574 
L 603.670511 743.535993 
L 606.030997 747.144873 
L 604.585421 751.552763 
L 604.777905 752.252615 
L 604.148982 756.828606 
L 601.395509 758.450675 
L 599.538153 761.409048 
L 595.939993 763.369986 
L 593.936823 766.512339 
L 589.971358 767.841178 
L 588.449766 769.192036 
L 584.615616 769.860786 
L 580.014318 768.829209 
L 577.361379 770.52039 
L 573.734732 769.679569 
L 572.214724 766.512339 
L 572.362671 762.146857 
L 572.370231 761.187485 
L 572.511577 756.828606 
L 574.065884 753.950578 
L 577.361379 751.322858 
L 579.682846 749.172261 
L 583.07115 747.144873 
" clip-path="url(#p793a28393d)" style="fill: none; stroke: #ff7f0e; stroke-opacity: 0.99; stroke-width: 0.2; stroke-linecap: square"/>
   </g>
   <g id="line2d_8">
    <path d="M 544.879695 785.879804 
L 551.311791 782.497592 
L 555.184604 780.665674 
L 560.572722 781.174243 
L 561.28372 781.522564 
L 566.272991 782.64452 
L 567.096214 785.160866 
L 566.897292 785.879804 
L 566.609674 786.173837 
L 566.272991 786.814696 
L 563.743134 788.089185 
L 559.415802 789.575002 
L 555.184604 794.97698 
L 551.289879 792.162188 
L 549.44571 790.891708 
L 548.175348 789.442199 
L 544.879695 785.879804 
" clip-path="url(#p793a28393d)" style="fill: none; stroke: #ff7f0e; stroke-opacity: 0.99; stroke-width: 0.2; stroke-linecap: square"/>
   </g>
   <g id="line2d_9">
    <path d="M 590.279585 747.144873 
L 594.985126 743.168614 
L 599.538153 740.944151 
L 604.595042 742.728581 
L 607.698898 744.588098 
L 610.62654 746.140326 
L 610.969596 746.845275 
L 610.988256 747.144873 
L 610.833791 747.325869 
L 610.62654 748.0027 
L 606.831457 753.514276 
L 606.728939 756.828606 
L 602.021405 758.997284 
L 599.538153 762.621882 
L 596.385287 763.758871 
L 594.380422 766.512339 
L 589.84216 767.728347 
L 588.449766 768.908832 
L 585.361985 769.208966 
L 578.585236 766.512339 
L 578.518197 765.502064 
L 579.054556 758.307295 
L 578.976882 756.828606 
L 583.104206 752.16021 
L 588.449766 748.049849 
L 589.238523 747.833712 
L 590.279585 747.144873 
" clip-path="url(#p793a28393d)" style="fill: none; stroke: #2ca02c; stroke-opacity: 0.99; stroke-width: 0.2; stroke-linecap: square"/>
   </g>
   <g id="line2d_10">
    <path d="M 544.807329 785.879804 
L 552.707674 783.716646 
L 555.184604 783.258746 
L 557.776466 783.616274 
L 564.848897 785.879804 
L 557.759457 788.12848 
L 555.184604 790.364297 
L 551.79193 788.842701 
L 544.807329 785.879804 
" clip-path="url(#p793a28393d)" style="fill: none; stroke: #2ca02c; stroke-opacity: 0.99; stroke-width: 0.2; stroke-linecap: square"/>
   </g>
   <g id="line2d_11">
    <path d="M 595.048886 747.144873 
L 597.070152 744.989513 
L 599.538153 743.508167 
L 603.943379 743.297692 
L 606.25106 743.32367 
L 610.62654 743.082414 
L 612.911744 745.149154 
L 613.625078 747.144873 
L 612.39598 748.690164 
L 611.043117 756.4648 
L 610.894125 756.828606 
L 610.71554 756.906331 
L 610.62654 756.964802 
L 610.287272 757.124896 
L 602.517132 759.430214 
L 599.538153 763.012867 
L 596.20694 763.603117 
L 593.562038 766.512339 
L 589.423846 767.363024 
L 588.449766 768.134566 
L 586.451236 768.257699 
L 582.827196 766.512339 
L 582.8295 761.736908 
L 582.842919 761.615756 
L 582.844823 756.828606 
L 585.257017 754.040308 
L 588.449766 751.565865 
L 591.661946 749.950141 
L 595.048886 747.144873 
" clip-path="url(#p793a28393d)" style="fill: none; stroke: #d62728; stroke-opacity: 0.99; stroke-width: 0.2; stroke-linecap: square"/>
   </g>
   <g id="line2d_12">
    <path d="M 601.172316 747.144873 
L 608.104061 744.941936 
L 610.62654 744.12454 
L 613.118676 744.968436 
L 615.0603 747.144873 
L 613.093176 749.29904 
L 612.835987 754.899048 
L 612.118657 756.828606 
L 611.056069 757.203722 
L 610.62654 757.447944 
L 609.384738 757.913099 
L 602.067114 759.037203 
L 599.538153 761.491601 
L 594.202543 761.852632 
L 589.371364 766.512339 
L 588.602126 766.645398 
L 588.449766 766.763112 
L 588.135255 766.787008 
L 587.553872 766.512339 
L 587.622185 765.789594 
L 587.287867 757.843318 
L 587.364736 756.828606 
L 587.864436 756.317424 
L 588.449766 755.916862 
L 591.953958 753.768318 
L 594.432343 752.369589 
L 599.538153 747.794904 
L 600.345604 747.850038 
L 601.172316 747.144873 
" clip-path="url(#p793a28393d)" style="fill: none; stroke: #9467bd; stroke-opacity: 0.99; stroke-width: 0.2; stroke-linecap: square"/>
   </g>
   <g id="line2d_13">
    <path d="M 607.847692 747.144873 
L 609.650958 746.292875 
L 610.62654 745.85859 
L 612.189208 745.780161 
L 615.98208 747.144873 
L 612.669857 748.929346 
L 613.182423 754.596497 
L 612.29933 756.828606 
L 611.027332 757.178625 
L 610.62654 757.373459 
L 609.654815 757.677234 
L 601.139841 758.227395 
L 599.538153 759.522332 
L 596.185068 759.756929 
L 592.131194 756.828606 
L 596.751505 754.394964 
L 599.538153 752.144676 
L 604.195873 751.212562 
L 607.847692 747.144873 
" clip-path="url(#p793a28393d)" style="fill: none; stroke: #8c564b; stroke-opacity: 0.99; stroke-width: 0.2; stroke-linecap: square"/>
   </g>
   <g id="line2d_14">
    <path d="M 615.016803 737.46114 
L 617.29799 733.603731 
L 621.714928 728.902853 
L 623.629566 729.449503 
L 630.567424 729.730059 
L 632.803315 731.281352 
L 633.786043 736.602902 
L 633.694235 737.46114 
L 633.34238 737.931917 
L 632.803315 739.701918 
L 629.32762 744.109472 
L 629.18709 747.144873 
L 624.934451 749.956554 
L 621.714928 755.922964 
L 621.034829 756.23466 
L 620.763612 756.828606 
L 612.677468 758.619726 
L 610.62654 759.505249 
L 606.03052 760.842411 
L 604.203723 760.90315 
L 599.538153 764.415126 
L 597.416858 764.659764 
L 595.703024 766.512339 
L 589.738737 767.638025 
L 588.449766 768.610647 
L 585.483682 769.102685 
L 578.504281 767.510461 
L 577.361379 768.176764 
L 575.596215 768.053895 
L 573.298859 766.512339 
L 574.822491 764.295072 
L 577.361379 761.586821 
L 579.023854 758.280482 
L 579.300529 756.828606 
L 584.716813 753.568535 
L 588.449766 752.058319 
L 592.069171 750.305779 
L 596.655722 747.144873 
L 598.110015 745.897649 
L 599.538153 745.25716 
L 604.549898 742.768006 
L 605.223176 742.425995 
L 610.62654 739.898855 
L 612.716793 739.286604 
L 615.016803 737.46114 
" clip-path="url(#p793a28393d)" style="fill: none; stroke: #e377c2; stroke-opacity: 0.99; stroke-width: 0.2; stroke-linecap: square"/>
   </g>
   <g id="line2d_15">
    <path d="M 619.939397 737.46114 
L 620.497573 736.397997 
L 621.714928 735.019348 
L 625.550701 734.111274 
L 628.853361 734.011558 
L 632.803315 732.1782 
L 634.299862 736.154172 
L 634.186451 737.46114 
L 633.563245 738.124804 
L 632.803315 740.425102 
L 628.920691 743.754092 
L 628.941133 747.144873 
L 624.419891 749.507177 
L 621.714928 754.136943 
L 619.525536 754.916562 
L 618.727569 756.828606 
L 612.147654 758.157027 
L 610.62654 758.793013 
L 607.180029 759.83852 
L 603.184108 760.012698 
L 599.538153 762.971026 
L 596.186278 763.585072 
L 593.909112 766.512339 
L 589.472722 767.405708 
L 588.449766 768.155464 
L 586.099417 768.56495 
L 578.241419 767.280897 
L 577.361379 767.720646 
L 576.109702 767.605455 
L 573.545973 766.512339 
L 574.879593 764.344941 
L 577.361379 762.084225 
L 579.531671 758.72397 
L 580.072699 756.828606 
L 585.591222 754.332176 
L 588.449766 753.541723 
L 593.603287 751.645557 
L 595.587293 750.595246 
L 599.538153 748.706878 
L 600.956823 748.383829 
L 602.320875 747.144873 
L 607.743206 744.626793 
L 610.62654 743.419668 
L 615.336691 741.574618 
L 619.939397 737.46114 
" clip-path="url(#p793a28393d)" style="fill: none; stroke: #7f7f7f; stroke-opacity: 0.99; stroke-width: 0.2; stroke-linecap: square"/>
   </g>
   <g id="line2d_16">
    <path d="M 629.456126 737.46114 
L 631.82326 736.605236 
L 632.803315 735.775341 
L 633.566366 736.79475 
L 633.533554 737.46114 
L 633.162368 737.774708 
L 632.803315 738.779077 
L 628.382753 741.321714 
L 629.456126 737.46114 
" clip-path="url(#p793a28393d)" style="fill: none; stroke: #bcbd22; stroke-opacity: 0.99; stroke-width: 0.2; stroke-linecap: square"/>
   </g>
   <g id="line2d_17">
    <path d="M 606.454429 747.144873 
L 609.383214 746.059049 
L 610.62654 745.641308 
L 613.781637 744.389457 
L 617.607136 743.557448 
L 621.714928 739.961699 
L 627.05482 742.481427 
L 627.385449 747.144873 
L 623.584021 748.777193 
L 621.714928 751.686151 
L 617.471484 753.122713 
L 615.98516 756.828606 
L 611.631003 757.705825 
L 610.62654 758.125254 
L 608.259473 758.895817 
L 602.443407 759.365828 
L 599.538153 761.838985 
L 595.285777 762.798645 
L 592.273301 766.512339 
L 589.164943 767.136918 
L 588.449766 767.619447 
L 586.914048 767.853514 
L 577.780423 766.512339 
L 577.835916 766.097914 
L 580.243095 759.345272 
L 580.458492 756.828606 
L 585.802593 754.516771 
L 588.449766 753.859658 
L 593.520274 752.400419 
L 594.276704 752.233666 
L 599.538153 750.325913 
L 602.692373 749.899523 
L 606.454429 747.144873 
" clip-path="url(#p793a28393d)" style="fill: none; stroke: #bcbd22; stroke-opacity: 0.99; stroke-width: 0.2; stroke-linecap: square"/>
   </g>
   <g id="line2d_18">
    <path d="M 609.923287 747.144873 
L 610.454515 746.994639 
L 610.62654 746.9518 
L 610.981016 746.835301 
L 619.990583 745.638964 
L 621.714928 744.435802 
L 623.814146 745.311579 
L 624.024611 747.144873 
L 622.477238 747.810615 
L 621.714928 748.993878 
L 617.726228 750.628292 
L 612.176349 748.498355 
L 615.042309 752.972218 
L 613.562607 756.828606 
L 611.197809 757.327507 
L 610.62654 757.565945 
L 609.263477 758.018999 
L 601.807499 758.810475 
L 599.538153 760.649156 
L 594.068205 761.735312 
L 589.020495 766.512339 
L 588.547542 766.597728 
L 588.449766 766.656236 
L 588.262562 766.675828 
L 587.337129 766.512339 
L 586.617411 764.912103 
L 584.235247 760.509238 
L 582.964104 756.828606 
L 586.308819 754.958869 
L 588.449766 754.299802 
L 592.67601 753.137734 
L 594.786294 752.678702 
L 599.538153 751.094595 
L 603.800915 750.867637 
L 609.923287 747.144873 
" clip-path="url(#p793a28393d)" style="fill: none; stroke: #17becf; stroke-opacity: 0.99; stroke-width: 0.2; stroke-linecap: square"/>
   </g>
   <g id="line2d_19">
    <path d="M 641.983874 718.093674 
L 642.261988 716.670409 
L 643.891702 712.229785 
L 648.405106 714.152019 
L 649.338265 718.093674 
L 646.119067 720.038881 
L 646.527645 725.47538 
L 645.627881 727.777407 
L 644.673326 728.460017 
L 643.891702 730.519941 
L 639.19165 733.356481 
L 639.465042 737.46114 
L 635.681087 739.974361 
L 633.459579 746.571743 
L 633.124816 747.144873 
L 632.928087 747.253839 
L 632.803315 747.355612 
L 632.074317 747.781523 
L 625.723257 750.645436 
L 621.949574 756.623684 
L 621.786469 756.828606 
L 621.737895 756.848663 
L 621.714928 756.859019 
L 621.663031 756.873928 
L 612.733278 758.668466 
L 610.62654 759.48278 
L 605.987089 760.880341 
L 604.342984 761.024771 
L 599.538153 764.194202 
L 597.231439 764.497834 
L 594.041794 766.512339 
L 589.26939 767.228135 
L 588.449766 767.652692 
L 587.036667 767.746429 
L 580.79377 766.512339 
L 579.200939 764.90581 
L 577.361379 762.67136 
L 574.417585 759.399485 
L 571.226256 756.828606 
L 573.011712 753.029946 
L 577.361379 751.215337 
L 579.725572 749.209575 
L 586.655617 747.144873 
L 587.824803 746.599079 
L 588.449766 746.566698 
L 589.315958 746.388408 
L 595.713496 743.804715 
L 599.538153 743.377711 
L 604.990469 742.222767 
L 605.213564 742.188412 
L 610.62654 741.157832 
L 613.864361 740.2888 
L 618.339381 737.46114 
L 619.898783 735.875061 
L 621.714928 734.794759 
L 627.234372 732.597659 
L 627.529229 732.383383 
L 632.803315 728.820178 
L 635.59081 730.211788 
L 636.295056 727.777407 
L 640.362627 724.695387 
L 640.760596 720.828138 
L 641.983874 718.093674 
" clip-path="url(#p793a28393d)" style="fill: none; stroke: #1f77b4; stroke-opacity: 0.99; stroke-width: 0.2; stroke-linecap: square"/>
   </g>
   <g id="patch_23">
    <path d="M 23.103125 842.218676 
L 23.103125 34.3575 
" style="fill: none"/>
   </g>
   <g id="patch_24">
    <path d="M 830.964301 842.218676 
L 830.964301 34.3575 
" style="fill: none"/>
   </g>
   <g id="patch_25">
    <path d="M 23.103125 842.218676 
L 830.964301 842.218676 
" style="fill: none"/>
   </g>
   <g id="patch_26">
    <path d="M 23.103125 34.3575 
L 830.964301 34.3575 
" style="fill: none"/>
   </g>
   <g id="text_1">
    <!-- 0.2 -->
    <g transform="translate(143.163564 434.327984) scale(0.1 -0.1)">
     <defs>
      <path id="DejaVuSans-30" d="M 2034 4250 
Q 1547 4250 1301 3770 
Q 1056 3291 1056 2328 
Q 1056 1369 1301 889 
Q 1547 409 2034 409 
Q 2525 409 2770 889 
Q 3016 1369 3016 2328 
Q 3016 3291 2770 3770 
Q 2525 4250 2034 4250 
z
M 2034 4750 
Q 2819 4750 3233 4129 
Q 3647 3509 3647 2328 
Q 3647 1150 3233 529 
Q 2819 -91 2034 -91 
Q 1250 -91 836 529 
Q 422 1150 422 2328 
Q 422 3509 836 4129 
Q 1250 4750 2034 4750 
z
" transform="scale(0.015625)"/>
      <path id="DejaVuSans-2e" d="M 684 794 
L 1344 794 
L 1344 0 
L 684 0 
L 684 794 
z
" transform="scale(0.015625)"/>
      <path id="DejaVuSans-32" d="M 1228 531 
L 3431 531 
L 3431 0 
L 469 0 
L 469 531 
Q 828 903 1448 1529 
Q 2069 2156 2228 2338 
Q 2531 2678 2651 2914 
Q 2772 3150 2772 3378 
Q 2772 3750 2511 3984 
Q 2250 4219 1831 4219 
Q 1534 4219 1204 4116 
Q 875 4013 500 3803 
L 500 4441 
Q 881 4594 1212 4672 
Q 1544 4750 1819 4750 
Q 2544 4750 2975 4387 
Q 3406 4025 3406 3419 
Q 3406 3131 3298 2873 
Q 3191 2616 2906 2266 
Q 2828 2175 2409 1742 
Q 1991 1309 1228 531 
z
" transform="scale(0.015625)"/>
     </defs>
     <use xlink:href="#DejaVuSans-30"/>
     <use xlink:href="#DejaVuSans-2e" transform="translate(63.623047 0)"/>
     <use xlink:href="#DejaVuSans-32" transform="translate(95.410156 0)"/>
    </g>
   </g>
   <g id="text_2">
    <!-- 0.5 -->
    <g transform="translate(275.167024 434.327984) scale(0.1 -0.1)">
     <defs>
      <path id="DejaVuSans-35" d="M 691 4666 
L 3169 4666 
L 3169 4134 
L 1269 4134 
L 1269 2991 
Q 1406 3038 1543 3061 
Q 1681 3084 1819 3084 
Q 2600 3084 3056 2656 
Q 3513 2228 3513 1497 
Q 3513 744 3044 326 
Q 2575 -91 1722 -91 
Q 1428 -91 1123 -41 
Q 819 9 494 109 
L 494 744 
Q 775 591 1075 516 
Q 1375 441 1709 441 
Q 2250 441 2565 725 
Q 2881 1009 2881 1497 
Q 2881 1984 2565 2268 
Q 2250 2553 1709 2553 
Q 1456 2553 1204 2497 
Q 953 2441 691 2322 
L 691 4666 
z
" transform="scale(0.015625)"/>
     </defs>
     <use xlink:href="#DejaVuSans-30"/>
     <use xlink:href="#DejaVuSans-2e" transform="translate(63.623047 0)"/>
     <use xlink:href="#DejaVuSans-35" transform="translate(95.410156 0)"/>
    </g>
   </g>
   <g id="text_3">
    <!-- 1.0 -->
    <g transform="translate(407.170484 434.327984) scale(0.1 -0.1)">
     <defs>
      <path id="DejaVuSans-31" d="M 794 531 
L 1825 531 
L 1825 4091 
L 703 3866 
L 703 4441 
L 1819 4666 
L 2450 4666 
L 2450 531 
L 3481 531 
L 3481 0 
L 794 0 
L 794 531 
z
" transform="scale(0.015625)"/>
     </defs>
     <use xlink:href="#DejaVuSans-31"/>
     <use xlink:href="#DejaVuSans-2e" transform="translate(63.623047 0)"/>
     <use xlink:href="#DejaVuSans-30" transform="translate(95.410156 0)"/>
    </g>
   </g>
   <g id="text_4">
    <!-- 2.0 -->
    <g transform="translate(539.173945 434.327984) scale(0.1 -0.1)">
     <use xlink:href="#DejaVuSans-32"/>
     <use xlink:href="#DejaVuSans-2e" transform="translate(63.623047 0)"/>
     <use xlink:href="#DejaVuSans-30" transform="translate(95.410156 0)"/>
    </g>
   </g>
   <g id="text_5">
    <!-- 5.0 -->
    <g transform="translate(671.177405 434.327984) scale(0.1 -0.1)">
     <use xlink:href="#DejaVuSans-35"/>
     <use xlink:href="#DejaVuSans-2e" transform="translate(63.623047 0)"/>
     <use xlink:href="#DejaVuSans-30" transform="translate(95.410156 0)"/>
    </g>
   </g>
   <g id="text_6">
    <!-- 0.2j -->
    <g transform="translate(39.148939 282.373599) scale(0.1 -0.1)">
     <defs>
      <path id="DejaVuSans-6a" d="M 603 3500 
L 1178 3500 
L 1178 -63 
Q 1178 -731 923 -1031 
Q 669 -1331 103 -1331 
L -116 -1331 
L -116 -844 
L 38 -844 
Q 366 -844 484 -692 
Q 603 -541 603 -63 
L 603 3500 
z
M 603 4863 
L 1178 4863 
L 1178 4134 
L 603 4134 
L 603 4863 
z
" transform="scale(0.015625)"/>
     </defs>
     <use xlink:href="#DejaVuSans-30"/>
     <use xlink:href="#DejaVuSans-2e" transform="translate(63.623047 0)"/>
     <use xlink:href="#DejaVuSans-32" transform="translate(95.410156 0)"/>
     <use xlink:href="#DejaVuSans-6a" transform="translate(159.033203 0)"/>
    </g>
   </g>
   <g id="text_7">
    <!-- 0.5j -->
    <g transform="translate(168.370173 116.232013) scale(0.1 -0.1)">
     <use xlink:href="#DejaVuSans-30"/>
     <use xlink:href="#DejaVuSans-2e" transform="translate(63.623047 0)"/>
     <use xlink:href="#DejaVuSans-35" transform="translate(95.410156 0)"/>
     <use xlink:href="#DejaVuSans-6a" transform="translate(159.033203 0)"/>
    </g>
   </g>
   <g id="text_8">
    <!-- 1.0j -->
    <g transform="translate(417.693088 36.237916) scale(0.1 -0.1)">
     <use xlink:href="#DejaVuSans-31"/>
     <use xlink:href="#DejaVuSans-2e" transform="translate(63.623047 0)"/>
     <use xlink:href="#DejaVuSans-30" transform="translate(95.410156 0)"/>
     <use xlink:href="#DejaVuSans-6a" transform="translate(159.033203 0)"/>
    </g>
   </g>
   <g id="text_9">
    <!-- 2.0j -->
    <g transform="translate(667.016004 116.232013) scale(0.1 -0.1)">
     <use xlink:href="#DejaVuSans-32"/>
     <use xlink:href="#DejaVuSans-2e" transform="translate(63.623047 0)"/>
     <use xlink:href="#DejaVuSans-30" transform="translate(95.410156 0)"/>
     <use xlink:href="#DejaVuSans-6a" transform="translate(159.033203 0)"/>
    </g>
   </g>
   <g id="text_10">
    <!-- 5.0j -->
    <g transform="translate(796.237237 282.373599) scale(0.1 -0.1)">
     <use xlink:href="#DejaVuSans-35"/>
     <use xlink:href="#DejaVuSans-2e" transform="translate(63.623047 0)"/>
     <use xlink:href="#DejaVuSans-30" transform="translate(95.410156 0)"/>
     <use xlink:href="#DejaVuSans-6a" transform="translate(159.033203 0)"/>
    </g>
   </g>
   <g id="text_11">
    <!-- -0.2j -->
    <g transform="translate(35.541127 599.721327) scale(0.1 -0.1)">
     <defs>
      <path id="DejaVuSans-2d" d="M 313 2009 
L 1997 2009 
L 1997 1497 
L 313 1497 
L 313 2009 
z
" transform="scale(0.015625)"/>
     </defs>
     <use xlink:href="#DejaVuSans-2d"/>
     <use xlink:href="#DejaVuSans-30" transform="translate(36.083984 0)"/>
     <use xlink:href="#DejaVuSans-2e" transform="translate(99.707031 0)"/>
     <use xlink:href="#DejaVuSans-32" transform="translate(131.494141 0)"/>
     <use xlink:href="#DejaVuSans-6a" transform="translate(195.117188 0)"/>
    </g>
   </g>
   <g id="text_12">
    <!-- -0.5j -->
    <g transform="translate(164.76236 765.862913) scale(0.1 -0.1)">
     <use xlink:href="#DejaVuSans-2d"/>
     <use xlink:href="#DejaVuSans-30" transform="translate(36.083984 0)"/>
     <use xlink:href="#DejaVuSans-2e" transform="translate(99.707031 0)"/>
     <use xlink:href="#DejaVuSans-35" transform="translate(131.494141 0)"/>
     <use xlink:href="#DejaVuSans-6a" transform="translate(195.117188 0)"/>
    </g>
   </g>
   <g id="text_13">
    <!-- -1.0j -->
    <g transform="translate(415.889182 845.85701) scale(0.1 -0.1)">
     <use xlink:href="#DejaVuSans-2d"/>
     <use xlink:href="#DejaVuSans-31" transform="translate(36.083984 0)"/>
     <use xlink:href="#DejaVuSans-2e" transform="translate(99.707031 0)"/>
     <use xlink:href="#DejaVuSans-30" transform="translate(131.494141 0)"/>
     <use xlink:href="#DejaVuSans-6a" transform="translate(195.117188 0)"/>
    </g>
   </g>
   <g id="text_14">
    <!-- -2.0j -->
    <g transform="translate(667.016004 765.862913) scale(0.1 -0.1)">
     <use xlink:href="#DejaVuSans-2d"/>
     <use xlink:href="#DejaVuSans-32" transform="translate(36.083984 0)"/>
     <use xlink:href="#DejaVuSans-2e" transform="translate(99.707031 0)"/>
     <use xlink:href="#DejaVuSans-30" transform="translate(131.494141 0)"/>
     <use xlink:href="#DejaVuSans-6a" transform="translate(195.117188 0)"/>
    </g>
   </g>
   <g id="text_15">
    <!-- -5.0j -->
    <g transform="translate(796.237237 599.721327) scale(0.1 -0.1)">
     <use xlink:href="#DejaVuSans-2d"/>
     <use xlink:href="#DejaVuSans-35" transform="translate(36.083984 0)"/>
     <use xlink:href="#DejaVuSans-2e" transform="translate(99.707031 0)"/>
     <use xlink:href="#DejaVuSans-30" transform="translate(131.494141 0)"/>
     <use xlink:href="#DejaVuSans-6a" transform="translate(195.117188 0)"/>
    </g>
   </g>
   <g id="text_16">
    <!-- 0.0 -->
    <g transform="translate(7.2 441.047463) scale(0.1 -0.1)">
     <use xlink:href="#DejaVuSans-30"/>
     <use xlink:href="#DejaVuSans-2e" transform="translate(63.623047 0)"/>
     <use xlink:href="#DejaVuSans-30" transform="translate(95.410156 0)"/>
    </g>
   </g>
   <g id="text_17">
    <!-- $\infty$ -->
    <g transform="translate(827.004198 441.047463) scale(0.1 -0.1)">
     <defs>
      <path id="DejaVuSans-221e" d="M 2916 1091 
Q 2819 1203 2666 1466 
Q 2456 1091 2272 925 
Q 2041 725 1681 725 
Q 1259 725 981 1041 
Q 688 1372 688 1919 
Q 688 2444 981 2800 
Q 1244 3116 1688 3116 
Q 1916 3116 2084 3022 
Q 2281 2919 2416 2741 
Q 2541 2581 2666 2366 
Q 2875 2741 3059 2906 
Q 3291 3106 3650 3106 
Q 4072 3106 4350 2791 
Q 4644 2459 4644 1913 
Q 4644 1388 4350 1031 
Q 4088 716 3644 716 
Q 3416 716 3247 809 
Q 3078 894 2916 1091 
z
M 1647 1134 
Q 2163 1134 2472 1884 
Q 2075 2703 1647 2703 
Q 1334 2703 1175 2478 
Q 1003 2238 1003 1919 
Q 1003 1569 1175 1353 
Q 1350 1134 1647 1134 
z
M 3684 2697 
Q 3219 2697 2859 1947 
Q 3253 1128 3684 1128 
Q 3997 1128 4156 1353 
Q 4328 1594 4328 1913 
Q 4328 2263 4156 2478 
Q 3981 2697 3684 2697 
z
" transform="scale(0.015625)"/>
     </defs>
     <use xlink:href="#DejaVuSans-221e" transform="translate(0 0.3125)"/>
    </g>
   </g>
   <g id="text_18">
    <!-- it2_source_pull - Broadband Optimum Target -->
    <g transform="translate(248.623713 19.3575) scale(0.16 -0.16)">
     <defs>
      <path id="DejaVuSans-69" d="M 603 3500 
L 1178 3500 
L 1178 0 
L 603 0 
L 603 3500 
z
M 603 4863 
L 1178 4863 
L 1178 4134 
L 603 4134 
L 603 4863 
z
" transform="scale(0.015625)"/>
      <path id="DejaVuSans-74" d="M 1172 4494 
L 1172 3500 
L 2356 3500 
L 2356 3053 
L 1172 3053 
L 1172 1153 
Q 1172 725 1289 603 
Q 1406 481 1766 481 
L 2356 481 
L 2356 0 
L 1766 0 
Q 1100 0 847 248 
Q 594 497 594 1153 
L 594 3053 
L 172 3053 
L 172 3500 
L 594 3500 
L 594 4494 
L 1172 4494 
z
" transform="scale(0.015625)"/>
      <path id="DejaVuSans-5f" d="M 3263 -1063 
L 3263 -1509 
L -63 -1509 
L -63 -1063 
L 3263 -1063 
z
" transform="scale(0.015625)"/>
      <path id="DejaVuSans-73" d="M 2834 3397 
L 2834 2853 
Q 2591 2978 2328 3040 
Q 2066 3103 1784 3103 
Q 1356 3103 1142 2972 
Q 928 2841 928 2578 
Q 928 2378 1081 2264 
Q 1234 2150 1697 2047 
L 1894 2003 
Q 2506 1872 2764 1633 
Q 3022 1394 3022 966 
Q 3022 478 2636 193 
Q 2250 -91 1575 -91 
Q 1294 -91 989 -36 
Q 684 19 347 128 
L 347 722 
Q 666 556 975 473 
Q 1284 391 1588 391 
Q 1994 391 2212 530 
Q 2431 669 2431 922 
Q 2431 1156 2273 1281 
Q 2116 1406 1581 1522 
L 1381 1569 
Q 847 1681 609 1914 
Q 372 2147 372 2553 
Q 372 3047 722 3315 
Q 1072 3584 1716 3584 
Q 2034 3584 2315 3537 
Q 2597 3491 2834 3397 
z
" transform="scale(0.015625)"/>
      <path id="DejaVuSans-6f" d="M 1959 3097 
Q 1497 3097 1228 2736 
Q 959 2375 959 1747 
Q 959 1119 1226 758 
Q 1494 397 1959 397 
Q 2419 397 2687 759 
Q 2956 1122 2956 1747 
Q 2956 2369 2687 2733 
Q 2419 3097 1959 3097 
z
M 1959 3584 
Q 2709 3584 3137 3096 
Q 3566 2609 3566 1747 
Q 3566 888 3137 398 
Q 2709 -91 1959 -91 
Q 1206 -91 779 398 
Q 353 888 353 1747 
Q 353 2609 779 3096 
Q 1206 3584 1959 3584 
z
" transform="scale(0.015625)"/>
      <path id="DejaVuSans-75" d="M 544 1381 
L 544 3500 
L 1119 3500 
L 1119 1403 
Q 1119 906 1312 657 
Q 1506 409 1894 409 
Q 2359 409 2629 706 
Q 2900 1003 2900 1516 
L 2900 3500 
L 3475 3500 
L 3475 0 
L 2900 0 
L 2900 538 
Q 2691 219 2414 64 
Q 2138 -91 1772 -91 
Q 1169 -91 856 284 
Q 544 659 544 1381 
z
M 1991 3584 
L 1991 3584 
z
" transform="scale(0.015625)"/>
      <path id="DejaVuSans-72" d="M 2631 2963 
Q 2534 3019 2420 3045 
Q 2306 3072 2169 3072 
Q 1681 3072 1420 2755 
Q 1159 2438 1159 1844 
L 1159 0 
L 581 0 
L 581 3500 
L 1159 3500 
L 1159 2956 
Q 1341 3275 1631 3429 
Q 1922 3584 2338 3584 
Q 2397 3584 2469 3576 
Q 2541 3569 2628 3553 
L 2631 2963 
z
" transform="scale(0.015625)"/>
      <path id="DejaVuSans-63" d="M 3122 3366 
L 3122 2828 
Q 2878 2963 2633 3030 
Q 2388 3097 2138 3097 
Q 1578 3097 1268 2742 
Q 959 2388 959 1747 
Q 959 1106 1268 751 
Q 1578 397 2138 397 
Q 2388 397 2633 464 
Q 2878 531 3122 666 
L 3122 134 
Q 2881 22 2623 -34 
Q 2366 -91 2075 -91 
Q 1284 -91 818 406 
Q 353 903 353 1747 
Q 353 2603 823 3093 
Q 1294 3584 2113 3584 
Q 2378 3584 2631 3529 
Q 2884 3475 3122 3366 
z
" transform="scale(0.015625)"/>
      <path id="DejaVuSans-65" d="M 3597 1894 
L 3597 1613 
L 953 1613 
Q 991 1019 1311 708 
Q 1631 397 2203 397 
Q 2534 397 2845 478 
Q 3156 559 3463 722 
L 3463 178 
Q 3153 47 2828 -22 
Q 2503 -91 2169 -91 
Q 1331 -91 842 396 
Q 353 884 353 1716 
Q 353 2575 817 3079 
Q 1281 3584 2069 3584 
Q 2775 3584 3186 3129 
Q 3597 2675 3597 1894 
z
M 3022 2063 
Q 3016 2534 2758 2815 
Q 2500 3097 2075 3097 
Q 1594 3097 1305 2825 
Q 1016 2553 972 2059 
L 3022 2063 
z
" transform="scale(0.015625)"/>
      <path id="DejaVuSans-70" d="M 1159 525 
L 1159 -1331 
L 581 -1331 
L 581 3500 
L 1159 3500 
L 1159 2969 
Q 1341 3281 1617 3432 
Q 1894 3584 2278 3584 
Q 2916 3584 3314 3078 
Q 3713 2572 3713 1747 
Q 3713 922 3314 415 
Q 2916 -91 2278 -91 
Q 1894 -91 1617 61 
Q 1341 213 1159 525 
z
M 3116 1747 
Q 3116 2381 2855 2742 
Q 2594 3103 2138 3103 
Q 1681 3103 1420 2742 
Q 1159 2381 1159 1747 
Q 1159 1113 1420 752 
Q 1681 391 2138 391 
Q 2594 391 2855 752 
Q 3116 1113 3116 1747 
z
" transform="scale(0.015625)"/>
      <path id="DejaVuSans-6c" d="M 603 4863 
L 1178 4863 
L 1178 0 
L 603 0 
L 603 4863 
z
" transform="scale(0.015625)"/>
      <path id="DejaVuSans-20" transform="scale(0.015625)"/>
      <path id="DejaVuSans-42" d="M 1259 2228 
L 1259 519 
L 2272 519 
Q 2781 519 3026 730 
Q 3272 941 3272 1375 
Q 3272 1813 3026 2020 
Q 2781 2228 2272 2228 
L 1259 2228 
z
M 1259 4147 
L 1259 2741 
L 2194 2741 
Q 2656 2741 2882 2914 
Q 3109 3088 3109 3444 
Q 3109 3797 2882 3972 
Q 2656 4147 2194 4147 
L 1259 4147 
z
M 628 4666 
L 2241 4666 
Q 2963 4666 3353 4366 
Q 3744 4066 3744 3513 
Q 3744 3084 3544 2831 
Q 3344 2578 2956 2516 
Q 3422 2416 3680 2098 
Q 3938 1781 3938 1306 
Q 3938 681 3513 340 
Q 3088 0 2303 0 
L 628 0 
L 628 4666 
z
" transform="scale(0.015625)"/>
      <path id="DejaVuSans-61" d="M 2194 1759 
Q 1497 1759 1228 1600 
Q 959 1441 959 1056 
Q 959 750 1161 570 
Q 1363 391 1709 391 
Q 2188 391 2477 730 
Q 2766 1069 2766 1631 
L 2766 1759 
L 2194 1759 
z
M 3341 1997 
L 3341 0 
L 2766 0 
L 2766 531 
Q 2569 213 2275 61 
Q 1981 -91 1556 -91 
Q 1019 -91 701 211 
Q 384 513 384 1019 
Q 384 1609 779 1909 
Q 1175 2209 1959 2209 
L 2766 2209 
L 2766 2266 
Q 2766 2663 2505 2880 
Q 2244 3097 1772 3097 
Q 1472 3097 1187 3025 
Q 903 2953 641 2809 
L 641 3341 
Q 956 3463 1253 3523 
Q 1550 3584 1831 3584 
Q 2591 3584 2966 3190 
Q 3341 2797 3341 1997 
z
" transform="scale(0.015625)"/>
      <path id="DejaVuSans-64" d="M 2906 2969 
L 2906 4863 
L 3481 4863 
L 3481 0 
L 2906 0 
L 2906 525 
Q 2725 213 2448 61 
Q 2172 -91 1784 -91 
Q 1150 -91 751 415 
Q 353 922 353 1747 
Q 353 2572 751 3078 
Q 1150 3584 1784 3584 
Q 2172 3584 2448 3432 
Q 2725 3281 2906 2969 
z
M 947 1747 
Q 947 1113 1208 752 
Q 1469 391 1925 391 
Q 2381 391 2643 752 
Q 2906 1113 2906 1747 
Q 2906 2381 2643 2742 
Q 2381 3103 1925 3103 
Q 1469 3103 1208 2742 
Q 947 2381 947 1747 
z
" transform="scale(0.015625)"/>
      <path id="DejaVuSans-62" d="M 3116 1747 
Q 3116 2381 2855 2742 
Q 2594 3103 2138 3103 
Q 1681 3103 1420 2742 
Q 1159 2381 1159 1747 
Q 1159 1113 1420 752 
Q 1681 391 2138 391 
Q 2594 391 2855 752 
Q 3116 1113 3116 1747 
z
M 1159 2969 
Q 1341 3281 1617 3432 
Q 1894 3584 2278 3584 
Q 2916 3584 3314 3078 
Q 3713 2572 3713 1747 
Q 3713 922 3314 415 
Q 2916 -91 2278 -91 
Q 1894 -91 1617 61 
Q 1341 213 1159 525 
L 1159 0 
L 581 0 
L 581 4863 
L 1159 4863 
L 1159 2969 
z
" transform="scale(0.015625)"/>
      <path id="DejaVuSans-6e" d="M 3513 2113 
L 3513 0 
L 2938 0 
L 2938 2094 
Q 2938 2591 2744 2837 
Q 2550 3084 2163 3084 
Q 1697 3084 1428 2787 
Q 1159 2491 1159 1978 
L 1159 0 
L 581 0 
L 581 3500 
L 1159 3500 
L 1159 2956 
Q 1366 3272 1645 3428 
Q 1925 3584 2291 3584 
Q 2894 3584 3203 3211 
Q 3513 2838 3513 2113 
z
" transform="scale(0.015625)"/>
      <path id="DejaVuSans-4f" d="M 2522 4238 
Q 1834 4238 1429 3725 
Q 1025 3213 1025 2328 
Q 1025 1447 1429 934 
Q 1834 422 2522 422 
Q 3209 422 3611 934 
Q 4013 1447 4013 2328 
Q 4013 3213 3611 3725 
Q 3209 4238 2522 4238 
z
M 2522 4750 
Q 3503 4750 4090 4092 
Q 4678 3434 4678 2328 
Q 4678 1225 4090 567 
Q 3503 -91 2522 -91 
Q 1538 -91 948 565 
Q 359 1222 359 2328 
Q 359 3434 948 4092 
Q 1538 4750 2522 4750 
z
" transform="scale(0.015625)"/>
      <path id="DejaVuSans-6d" d="M 3328 2828 
Q 3544 3216 3844 3400 
Q 4144 3584 4550 3584 
Q 5097 3584 5394 3201 
Q 5691 2819 5691 2113 
L 5691 0 
L 5113 0 
L 5113 2094 
Q 5113 2597 4934 2840 
Q 4756 3084 4391 3084 
Q 3944 3084 3684 2787 
Q 3425 2491 3425 1978 
L 3425 0 
L 2847 0 
L 2847 2094 
Q 2847 2600 2669 2842 
Q 2491 3084 2119 3084 
Q 1678 3084 1418 2786 
Q 1159 2488 1159 1978 
L 1159 0 
L 581 0 
L 581 3500 
L 1159 3500 
L 1159 2956 
Q 1356 3278 1631 3431 
Q 1906 3584 2284 3584 
Q 2666 3584 2933 3390 
Q 3200 3197 3328 2828 
z
" transform="scale(0.015625)"/>
      <path id="DejaVuSans-54" d="M -19 4666 
L 3928 4666 
L 3928 4134 
L 2272 4134 
L 2272 0 
L 1638 0 
L 1638 4134 
L -19 4134 
L -19 4666 
z
" transform="scale(0.015625)"/>
      <path id="DejaVuSans-67" d="M 2906 1791 
Q 2906 2416 2648 2759 
Q 2391 3103 1925 3103 
Q 1463 3103 1205 2759 
Q 947 2416 947 1791 
Q 947 1169 1205 825 
Q 1463 481 1925 481 
Q 2391 481 2648 825 
Q 2906 1169 2906 1791 
z
M 3481 434 
Q 3481 -459 3084 -895 
Q 2688 -1331 1869 -1331 
Q 1566 -1331 1297 -1286 
Q 1028 -1241 775 -1147 
L 775 -588 
Q 1028 -725 1275 -790 
Q 1522 -856 1778 -856 
Q 2344 -856 2625 -561 
Q 2906 -266 2906 331 
L 2906 616 
Q 2728 306 2450 153 
Q 2172 0 1784 0 
Q 1141 0 747 490 
Q 353 981 353 1791 
Q 353 2603 747 3093 
Q 1141 3584 1784 3584 
Q 2172 3584 2450 3431 
Q 2728 3278 2906 2969 
L 2906 3500 
L 3481 3500 
L 3481 434 
z
" transform="scale(0.015625)"/>
     </defs>
     <use xlink:href="#DejaVuSans-69"/>
     <use xlink:href="#DejaVuSans-74" transform="translate(27.783203 0)"/>
     <use xlink:href="#DejaVuSans-32" transform="translate(66.992188 0)"/>
     <use xlink:href="#DejaVuSans-5f" transform="translate(130.615234 0)"/>
     <use xlink:href="#DejaVuSans-73" transform="translate(180.615234 0)"/>
     <use xlink:href="#DejaVuSans-6f" transform="translate(232.714844 0)"/>
     <use xlink:href="#DejaVuSans-75" transform="translate(293.896484 0)"/>
     <use xlink:href="#DejaVuSans-72" transform="translate(357.275391 0)"/>
     <use xlink:href="#DejaVuSans-63" transform="translate(396.138672 0)"/>
     <use xlink:href="#DejaVuSans-65" transform="translate(451.119141 0)"/>
     <use xlink:href="#DejaVuSans-5f" transform="translate(512.642578 0)"/>
     <use xlink:href="#DejaVuSans-70" transform="translate(562.642578 0)"/>
     <use xlink:href="#DejaVuSans-75" transform="translate(626.119141 0)"/>
     <use xlink:href="#DejaVuSans-6c" transform="translate(689.498047 0)"/>
     <use xlink:href="#DejaVuSans-6c" transform="translate(717.28125 0)"/>
     <use xlink:href="#DejaVuSans-20" transform="translate(745.064453 0)"/>
     <use xlink:href="#DejaVuSans-2d" transform="translate(776.851562 0)"/>
     <use xlink:href="#DejaVuSans-20" transform="translate(812.935547 0)"/>
     <use xlink:href="#DejaVuSans-42" transform="translate(844.722656 0)"/>
     <use xlink:href="#DejaVuSans-72" transform="translate(913.326172 0)"/>
     <use xlink:href="#DejaVuSans-6f" transform="translate(952.189453 0)"/>
     <use xlink:href="#DejaVuSans-61" transform="translate(1013.371094 0)"/>
     <use xlink:href="#DejaVuSans-64" transform="translate(1074.650391 0)"/>
     <use xlink:href="#DejaVuSans-62" transform="translate(1138.126953 0)"/>
     <use xlink:href="#DejaVuSans-61" transform="translate(1201.603516 0)"/>
     <use xlink:href="#DejaVuSans-6e" transform="translate(1262.882812 0)"/>
     <use xlink:href="#DejaVuSans-64" transform="translate(1326.261719 0)"/>
     <use xlink:href="#DejaVuSans-20" transform="translate(1389.738281 0)"/>
     <use xlink:href="#DejaVuSans-4f" transform="translate(1421.525391 0)"/>
     <use xlink:href="#DejaVuSans-70" transform="translate(1500.236328 0)"/>
     <use xlink:href="#DejaVuSans-74" transform="translate(1563.712891 0)"/>
     <use xlink:href="#DejaVuSans-69" transform="translate(1602.921875 0)"/>
     <use xlink:href="#DejaVuSans-6d" transform="translate(1630.705078 0)"/>
     <use xlink:href="#DejaVuSans-75" transform="translate(1728.117188 0)"/>
     <use xlink:href="#DejaVuSans-6d" transform="translate(1791.496094 0)"/>
     <use xlink:href="#DejaVuSans-20" transform="translate(1888.908203 0)"/>
     <use xlink:href="#DejaVuSans-54" transform="translate(1920.695312 0)"/>
     <use xlink:href="#DejaVuSans-61" transform="translate(1965.279297 0)"/>
     <use xlink:href="#DejaVuSans-72" transform="translate(2026.558594 0)"/>
     <use xlink:href="#DejaVuSans-67" transform="translate(2065.921875 0)"/>
     <use xlink:href="#DejaVuSans-65" transform="translate(2129.398438 0)"/>
     <use xlink:href="#DejaVuSans-74" transform="translate(2190.921875 0)"/>
    </g>
   </g>
   <g id="legend_1">
    <g id="patch_27">
     <path d="M 854.121525 527.856838 
L 1007.571525 527.856838 
Q 1009.571525 527.856838 1009.571525 525.856838 
L 1009.571525 350.719338 
Q 1009.571525 348.719338 1007.571525 348.719338 
L 854.121525 348.719338 
Q 852.121525 348.719338 852.121525 350.719338 
L 852.121525 525.856838 
Q 852.121525 527.856838 854.121525 527.856838 
z
" style="fill: #ffffff; opacity: 0.8; stroke: #cccccc; stroke-linejoin: miter"/>
    </g>
    <g id="line2d_20">
     <path d="M 856.121525 356.817776 
L 866.121525 356.817776 
L 876.121525 356.817776 
" style="fill: none; stroke: #1f77b4; stroke-opacity: 0.99; stroke-width: 0.2; stroke-linecap: square"/>
    </g>
    <g id="text_19">
     <!-- 12.50 GHz (Hedef: 12.5) -->
     <g transform="translate(884.121525 360.317776) scale(0.1 -0.1)">
      <defs>
       <path id="DejaVuSans-47" d="M 3809 666 
L 3809 1919 
L 2778 1919 
L 2778 2438 
L 4434 2438 
L 4434 434 
Q 4069 175 3628 42 
Q 3188 -91 2688 -91 
Q 1594 -91 976 548 
Q 359 1188 359 2328 
Q 359 3472 976 4111 
Q 1594 4750 2688 4750 
Q 3144 4750 3555 4637 
Q 3966 4525 4313 4306 
L 4313 3634 
Q 3963 3931 3569 4081 
Q 3175 4231 2741 4231 
Q 1884 4231 1454 3753 
Q 1025 3275 1025 2328 
Q 1025 1384 1454 906 
Q 1884 428 2741 428 
Q 3075 428 3337 486 
Q 3600 544 3809 666 
z
" transform="scale(0.015625)"/>
       <path id="DejaVuSans-48" d="M 628 4666 
L 1259 4666 
L 1259 2753 
L 3553 2753 
L 3553 4666 
L 4184 4666 
L 4184 0 
L 3553 0 
L 3553 2222 
L 1259 2222 
L 1259 0 
L 628 0 
L 628 4666 
z
" transform="scale(0.015625)"/>
       <path id="DejaVuSans-7a" d="M 353 3500 
L 3084 3500 
L 3084 2975 
L 922 459 
L 3084 459 
L 3084 0 
L 275 0 
L 275 525 
L 2438 3041 
L 353 3041 
L 353 3500 
z
" transform="scale(0.015625)"/>
       <path id="DejaVuSans-28" d="M 1984 4856 
Q 1566 4138 1362 3434 
Q 1159 2731 1159 2009 
Q 1159 1288 1364 580 
Q 1569 -128 1984 -844 
L 1484 -844 
Q 1016 -109 783 600 
Q 550 1309 550 2009 
Q 550 2706 781 3412 
Q 1013 4119 1484 4856 
L 1984 4856 
z
" transform="scale(0.015625)"/>
       <path id="DejaVuSans-66" d="M 2375 4863 
L 2375 4384 
L 1825 4384 
Q 1516 4384 1395 4259 
Q 1275 4134 1275 3809 
L 1275 3500 
L 2222 3500 
L 2222 3053 
L 1275 3053 
L 1275 0 
L 697 0 
L 697 3053 
L 147 3053 
L 147 3500 
L 697 3500 
L 697 3744 
Q 697 4328 969 4595 
Q 1241 4863 1831 4863 
L 2375 4863 
z
" transform="scale(0.015625)"/>
       <path id="DejaVuSans-3a" d="M 750 794 
L 1409 794 
L 1409 0 
L 750 0 
L 750 794 
z
M 750 3309 
L 1409 3309 
L 1409 2516 
L 750 2516 
L 750 3309 
z
" transform="scale(0.015625)"/>
       <path id="DejaVuSans-29" d="M 513 4856 
L 1013 4856 
Q 1481 4119 1714 3412 
Q 1947 2706 1947 2009 
Q 1947 1309 1714 600 
Q 1481 -109 1013 -844 
L 513 -844 
Q 928 -128 1133 580 
Q 1338 1288 1338 2009 
Q 1338 2731 1133 3434 
Q 928 4138 513 4856 
z
" transform="scale(0.015625)"/>
      </defs>
      <use xlink:href="#DejaVuSans-31"/>
      <use xlink:href="#DejaVuSans-32" transform="translate(63.623047 0)"/>
      <use xlink:href="#DejaVuSans-2e" transform="translate(127.246094 0)"/>
      <use xlink:href="#DejaVuSans-35" transform="translate(159.033203 0)"/>
      <use xlink:href="#DejaVuSans-30" transform="translate(222.65625 0)"/>
      <use xlink:href="#DejaVuSans-20" transform="translate(286.279297 0)"/>
      <use xlink:href="#DejaVuSans-47" transform="translate(318.066406 0)"/>
      <use xlink:href="#DejaVuSans-48" transform="translate(395.556641 0)"/>
      <use xlink:href="#DejaVuSans-7a" transform="translate(470.751953 0)"/>
      <use xlink:href="#DejaVuSans-20" transform="translate(523.242188 0)"/>
      <use xlink:href="#DejaVuSans-28" transform="translate(555.029297 0)"/>
      <use xlink:href="#DejaVuSans-48" transform="translate(594.042969 0)"/>
      <use xlink:href="#DejaVuSans-65" transform="translate(669.238281 0)"/>
      <use xlink:href="#DejaVuSans-64" transform="translate(730.761719 0)"/>
      <use xlink:href="#DejaVuSans-65" transform="translate(794.238281 0)"/>
      <use xlink:href="#DejaVuSans-66" transform="translate(855.761719 0)"/>
      <use xlink:href="#DejaVuSans-3a" transform="translate(887.341797 0)"/>
      <use xlink:href="#DejaVuSans-20" transform="translate(921.033203 0)"/>
      <use xlink:href="#DejaVuSans-31" transform="translate(952.820312 0)"/>
      <use xlink:href="#DejaVuSans-32" transform="translate(1016.443359 0)"/>
      <use xlink:href="#DejaVuSans-2e" transform="translate(1080.066406 0)"/>
      <use xlink:href="#DejaVuSans-35" transform="translate(1111.853516 0)"/>
      <use xlink:href="#DejaVuSans-29" transform="translate(1175.476562 0)"/>
     </g>
    </g>
    <g id="line2d_21">
     <path d="M 856.121525 371.495901 
L 866.121525 371.495901 
L 876.121525 371.495901 
" style="fill: none; stroke: #ff7f0e; stroke-opacity: 0.99; stroke-width: 0.2; stroke-linecap: square"/>
    </g>
    <g id="text_20">
     <!-- 12.60 GHz (Hedef: 12.5) -->
     <g transform="translate(884.121525 374.995901) scale(0.1 -0.1)">
      <defs>
       <path id="DejaVuSans-36" d="M 2113 2584 
Q 1688 2584 1439 2293 
Q 1191 2003 1191 1497 
Q 1191 994 1439 701 
Q 1688 409 2113 409 
Q 2538 409 2786 701 
Q 3034 994 3034 1497 
Q 3034 2003 2786 2293 
Q 2538 2584 2113 2584 
z
M 3366 4563 
L 3366 3988 
Q 3128 4100 2886 4159 
Q 2644 4219 2406 4219 
Q 1781 4219 1451 3797 
Q 1122 3375 1075 2522 
Q 1259 2794 1537 2939 
Q 1816 3084 2150 3084 
Q 2853 3084 3261 2657 
Q 3669 2231 3669 1497 
Q 3669 778 3244 343 
Q 2819 -91 2113 -91 
Q 1303 -91 875 529 
Q 447 1150 447 2328 
Q 447 3434 972 4092 
Q 1497 4750 2381 4750 
Q 2619 4750 2861 4703 
Q 3103 4656 3366 4563 
z
" transform="scale(0.015625)"/>
      </defs>
      <use xlink:href="#DejaVuSans-31"/>
      <use xlink:href="#DejaVuSans-32" transform="translate(63.623047 0)"/>
      <use xlink:href="#DejaVuSans-2e" transform="translate(127.246094 0)"/>
      <use xlink:href="#DejaVuSans-36" transform="translate(159.033203 0)"/>
      <use xlink:href="#DejaVuSans-30" transform="translate(222.65625 0)"/>
      <use xlink:href="#DejaVuSans-20" transform="translate(286.279297 0)"/>
      <use xlink:href="#DejaVuSans-47" transform="translate(318.066406 0)"/>
      <use xlink:href="#DejaVuSans-48" transform="translate(395.556641 0)"/>
      <use xlink:href="#DejaVuSans-7a" transform="translate(470.751953 0)"/>
      <use xlink:href="#DejaVuSans-20" transform="translate(523.242188 0)"/>
      <use xlink:href="#DejaVuSans-28" transform="translate(555.029297 0)"/>
      <use xlink:href="#DejaVuSans-48" transform="translate(594.042969 0)"/>
      <use xlink:href="#DejaVuSans-65" transform="translate(669.238281 0)"/>
      <use xlink:href="#DejaVuSans-64" transform="translate(730.761719 0)"/>
      <use xlink:href="#DejaVuSans-65" transform="translate(794.238281 0)"/>
      <use xlink:href="#DejaVuSans-66" transform="translate(855.761719 0)"/>
      <use xlink:href="#DejaVuSans-3a" transform="translate(887.341797 0)"/>
      <use xlink:href="#DejaVuSans-20" transform="translate(921.033203 0)"/>
      <use xlink:href="#DejaVuSans-31" transform="translate(952.820312 0)"/>
      <use xlink:href="#DejaVuSans-32" transform="translate(1016.443359 0)"/>
      <use xlink:href="#DejaVuSans-2e" transform="translate(1080.066406 0)"/>
      <use xlink:href="#DejaVuSans-35" transform="translate(1111.853516 0)"/>
      <use xlink:href="#DejaVuSans-29" transform="translate(1175.476562 0)"/>
     </g>
    </g>
    <g id="line2d_22">
     <path d="M 856.121525 386.174026 
L 866.121525 386.174026 
L 876.121525 386.174026 
" style="fill: none; stroke: #2ca02c; stroke-opacity: 0.99; stroke-width: 0.2; stroke-linecap: square"/>
    </g>
    <g id="text_21">
     <!-- 12.70 GHz (Hedef: 12.5) -->
     <g transform="translate(884.121525 389.674026) scale(0.1 -0.1)">
      <defs>
       <path id="DejaVuSans-37" d="M 525 4666 
L 3525 4666 
L 3525 4397 
L 1831 0 
L 1172 0 
L 2766 4134 
L 525 4134 
L 525 4666 
z
" transform="scale(0.015625)"/>
      </defs>
      <use xlink:href="#DejaVuSans-31"/>
      <use xlink:href="#DejaVuSans-32" transform="translate(63.623047 0)"/>
      <use xlink:href="#DejaVuSans-2e" transform="translate(127.246094 0)"/>
      <use xlink:href="#DejaVuSans-37" transform="translate(159.033203 0)"/>
      <use xlink:href="#DejaVuSans-30" transform="translate(222.65625 0)"/>
      <use xlink:href="#DejaVuSans-20" transform="translate(286.279297 0)"/>
      <use xlink:href="#DejaVuSans-47" transform="translate(318.066406 0)"/>
      <use xlink:href="#DejaVuSans-48" transform="translate(395.556641 0)"/>
      <use xlink:href="#DejaVuSans-7a" transform="translate(470.751953 0)"/>
      <use xlink:href="#DejaVuSans-20" transform="translate(523.242188 0)"/>
      <use xlink:href="#DejaVuSans-28" transform="translate(555.029297 0)"/>
      <use xlink:href="#DejaVuSans-48" transform="translate(594.042969 0)"/>
      <use xlink:href="#DejaVuSans-65" transform="translate(669.238281 0)"/>
      <use xlink:href="#DejaVuSans-64" transform="translate(730.761719 0)"/>
      <use xlink:href="#DejaVuSans-65" transform="translate(794.238281 0)"/>
      <use xlink:href="#DejaVuSans-66" transform="translate(855.761719 0)"/>
      <use xlink:href="#DejaVuSans-3a" transform="translate(887.341797 0)"/>
      <use xlink:href="#DejaVuSans-20" transform="translate(921.033203 0)"/>
      <use xlink:href="#DejaVuSans-31" transform="translate(952.820312 0)"/>
      <use xlink:href="#DejaVuSans-32" transform="translate(1016.443359 0)"/>
      <use xlink:href="#DejaVuSans-2e" transform="translate(1080.066406 0)"/>
      <use xlink:href="#DejaVuSans-35" transform="translate(1111.853516 0)"/>
      <use xlink:href="#DejaVuSans-29" transform="translate(1175.476562 0)"/>
     </g>
    </g>
    <g id="line2d_23">
     <path d="M 856.121525 400.852151 
L 866.121525 400.852151 
L 876.121525 400.852151 
" style="fill: none; stroke: #d62728; stroke-opacity: 0.99; stroke-width: 0.2; stroke-linecap: square"/>
    </g>
    <g id="text_22">
     <!-- 12.80 GHz (Hedef: 12.5) -->
     <g transform="translate(884.121525 404.352151) scale(0.1 -0.1)">
      <defs>
       <path id="DejaVuSans-38" d="M 2034 2216 
Q 1584 2216 1326 1975 
Q 1069 1734 1069 1313 
Q 1069 891 1326 650 
Q 1584 409 2034 409 
Q 2484 409 2743 651 
Q 3003 894 3003 1313 
Q 3003 1734 2745 1975 
Q 2488 2216 2034 2216 
z
M 1403 2484 
Q 997 2584 770 2862 
Q 544 3141 544 3541 
Q 544 4100 942 4425 
Q 1341 4750 2034 4750 
Q 2731 4750 3128 4425 
Q 3525 4100 3525 3541 
Q 3525 3141 3298 2862 
Q 3072 2584 2669 2484 
Q 3125 2378 3379 2068 
Q 3634 1759 3634 1313 
Q 3634 634 3220 271 
Q 2806 -91 2034 -91 
Q 1263 -91 848 271 
Q 434 634 434 1313 
Q 434 1759 690 2068 
Q 947 2378 1403 2484 
z
M 1172 3481 
Q 1172 3119 1398 2916 
Q 1625 2713 2034 2713 
Q 2441 2713 2670 2916 
Q 2900 3119 2900 3481 
Q 2900 3844 2670 4047 
Q 2441 4250 2034 4250 
Q 1625 4250 1398 4047 
Q 1172 3844 1172 3481 
z
" transform="scale(0.015625)"/>
      </defs>
      <use xlink:href="#DejaVuSans-31"/>
      <use xlink:href="#DejaVuSans-32" transform="translate(63.623047 0)"/>
      <use xlink:href="#DejaVuSans-2e" transform="translate(127.246094 0)"/>
      <use xlink:href="#DejaVuSans-38" transform="translate(159.033203 0)"/>
      <use xlink:href="#DejaVuSans-30" transform="translate(222.65625 0)"/>
      <use xlink:href="#DejaVuSans-20" transform="translate(286.279297 0)"/>
      <use xlink:href="#DejaVuSans-47" transform="translate(318.066406 0)"/>
      <use xlink:href="#DejaVuSans-48" transform="translate(395.556641 0)"/>
      <use xlink:href="#DejaVuSans-7a" transform="translate(470.751953 0)"/>
      <use xlink:href="#DejaVuSans-20" transform="translate(523.242188 0)"/>
      <use xlink:href="#DejaVuSans-28" transform="translate(555.029297 0)"/>
      <use xlink:href="#DejaVuSans-48" transform="translate(594.042969 0)"/>
      <use xlink:href="#DejaVuSans-65" transform="translate(669.238281 0)"/>
      <use xlink:href="#DejaVuSans-64" transform="translate(730.761719 0)"/>
      <use xlink:href="#DejaVuSans-65" transform="translate(794.238281 0)"/>
      <use xlink:href="#DejaVuSans-66" transform="translate(855.761719 0)"/>
      <use xlink:href="#DejaVuSans-3a" transform="translate(887.341797 0)"/>
      <use xlink:href="#DejaVuSans-20" transform="translate(921.033203 0)"/>
      <use xlink:href="#DejaVuSans-31" transform="translate(952.820312 0)"/>
      <use xlink:href="#DejaVuSans-32" transform="translate(1016.443359 0)"/>
      <use xlink:href="#DejaVuSans-2e" transform="translate(1080.066406 0)"/>
      <use xlink:href="#DejaVuSans-35" transform="translate(1111.853516 0)"/>
      <use xlink:href="#DejaVuSans-29" transform="translate(1175.476562 0)"/>
     </g>
    </g>
    <g id="line2d_24">
     <path d="M 856.121525 415.530276 
L 866.121525 415.530276 
L 876.121525 415.530276 
" style="fill: none; stroke: #9467bd; stroke-opacity: 0.99; stroke-width: 0.2; stroke-linecap: square"/>
    </g>
    <g id="text_23">
     <!-- 12.90 GHz (Hedef: 12.5) -->
     <g transform="translate(884.121525 419.030276) scale(0.1 -0.1)">
      <defs>
       <path id="DejaVuSans-39" d="M 703 97 
L 703 672 
Q 941 559 1184 500 
Q 1428 441 1663 441 
Q 2288 441 2617 861 
Q 2947 1281 2994 2138 
Q 2813 1869 2534 1725 
Q 2256 1581 1919 1581 
Q 1219 1581 811 2004 
Q 403 2428 403 3163 
Q 403 3881 828 4315 
Q 1253 4750 1959 4750 
Q 2769 4750 3195 4129 
Q 3622 3509 3622 2328 
Q 3622 1225 3098 567 
Q 2575 -91 1691 -91 
Q 1453 -91 1209 -44 
Q 966 3 703 97 
z
M 1959 2075 
Q 2384 2075 2632 2365 
Q 2881 2656 2881 3163 
Q 2881 3666 2632 3958 
Q 2384 4250 1959 4250 
Q 1534 4250 1286 3958 
Q 1038 3666 1038 3163 
Q 1038 2656 1286 2365 
Q 1534 2075 1959 2075 
z
" transform="scale(0.015625)"/>
      </defs>
      <use xlink:href="#DejaVuSans-31"/>
      <use xlink:href="#DejaVuSans-32" transform="translate(63.623047 0)"/>
      <use xlink:href="#DejaVuSans-2e" transform="translate(127.246094 0)"/>
      <use xlink:href="#DejaVuSans-39" transform="translate(159.033203 0)"/>
      <use xlink:href="#DejaVuSans-30" transform="translate(222.65625 0)"/>
      <use xlink:href="#DejaVuSans-20" transform="translate(286.279297 0)"/>
      <use xlink:href="#DejaVuSans-47" transform="translate(318.066406 0)"/>
      <use xlink:href="#DejaVuSans-48" transform="translate(395.556641 0)"/>
      <use xlink:href="#DejaVuSans-7a" transform="translate(470.751953 0)"/>
      <use xlink:href="#DejaVuSans-20" transform="translate(523.242188 0)"/>
      <use xlink:href="#DejaVuSans-28" transform="translate(555.029297 0)"/>
      <use xlink:href="#DejaVuSans-48" transform="translate(594.042969 0)"/>
      <use xlink:href="#DejaVuSans-65" transform="translate(669.238281 0)"/>
      <use xlink:href="#DejaVuSans-64" transform="translate(730.761719 0)"/>
      <use xlink:href="#DejaVuSans-65" transform="translate(794.238281 0)"/>
      <use xlink:href="#DejaVuSans-66" transform="translate(855.761719 0)"/>
      <use xlink:href="#DejaVuSans-3a" transform="translate(887.341797 0)"/>
      <use xlink:href="#DejaVuSans-20" transform="translate(921.033203 0)"/>
      <use xlink:href="#DejaVuSans-31" transform="translate(952.820312 0)"/>
      <use xlink:href="#DejaVuSans-32" transform="translate(1016.443359 0)"/>
      <use xlink:href="#DejaVuSans-2e" transform="translate(1080.066406 0)"/>
      <use xlink:href="#DejaVuSans-35" transform="translate(1111.853516 0)"/>
      <use xlink:href="#DejaVuSans-29" transform="translate(1175.476562 0)"/>
     </g>
    </g>
    <g id="line2d_25">
     <path d="M 856.121525 430.208401 
L 866.121525 430.208401 
L 876.121525 430.208401 
" style="fill: none; stroke: #8c564b; stroke-opacity: 0.99; stroke-width: 0.2; stroke-linecap: square"/>
    </g>
    <g id="text_24">
     <!-- 13.00 GHz (Hedef: 12.5) -->
     <g transform="translate(884.121525 433.708401) scale(0.1 -0.1)">
      <defs>
       <path id="DejaVuSans-33" d="M 2597 2516 
Q 3050 2419 3304 2112 
Q 3559 1806 3559 1356 
Q 3559 666 3084 287 
Q 2609 -91 1734 -91 
Q 1441 -91 1130 -33 
Q 819 25 488 141 
L 488 750 
Q 750 597 1062 519 
Q 1375 441 1716 441 
Q 2309 441 2620 675 
Q 2931 909 2931 1356 
Q 2931 1769 2642 2001 
Q 2353 2234 1838 2234 
L 1294 2234 
L 1294 2753 
L 1863 2753 
Q 2328 2753 2575 2939 
Q 2822 3125 2822 3475 
Q 2822 3834 2567 4026 
Q 2313 4219 1838 4219 
Q 1578 4219 1281 4162 
Q 984 4106 628 3988 
L 628 4550 
Q 988 4650 1302 4700 
Q 1616 4750 1894 4750 
Q 2613 4750 3031 4423 
Q 3450 4097 3450 3541 
Q 3450 3153 3228 2886 
Q 3006 2619 2597 2516 
z
" transform="scale(0.015625)"/>
      </defs>
      <use xlink:href="#DejaVuSans-31"/>
      <use xlink:href="#DejaVuSans-33" transform="translate(63.623047 0)"/>
      <use xlink:href="#DejaVuSans-2e" transform="translate(127.246094 0)"/>
      <use xlink:href="#DejaVuSans-30" transform="translate(159.033203 0)"/>
      <use xlink:href="#DejaVuSans-30" transform="translate(222.65625 0)"/>
      <use xlink:href="#DejaVuSans-20" transform="translate(286.279297 0)"/>
      <use xlink:href="#DejaVuSans-47" transform="translate(318.066406 0)"/>
      <use xlink:href="#DejaVuSans-48" transform="translate(395.556641 0)"/>
      <use xlink:href="#DejaVuSans-7a" transform="translate(470.751953 0)"/>
      <use xlink:href="#DejaVuSans-20" transform="translate(523.242188 0)"/>
      <use xlink:href="#DejaVuSans-28" transform="translate(555.029297 0)"/>
      <use xlink:href="#DejaVuSans-48" transform="translate(594.042969 0)"/>
      <use xlink:href="#DejaVuSans-65" transform="translate(669.238281 0)"/>
      <use xlink:href="#DejaVuSans-64" transform="translate(730.761719 0)"/>
      <use xlink:href="#DejaVuSans-65" transform="translate(794.238281 0)"/>
      <use xlink:href="#DejaVuSans-66" transform="translate(855.761719 0)"/>
      <use xlink:href="#DejaVuSans-3a" transform="translate(887.341797 0)"/>
      <use xlink:href="#DejaVuSans-20" transform="translate(921.033203 0)"/>
      <use xlink:href="#DejaVuSans-31" transform="translate(952.820312 0)"/>
      <use xlink:href="#DejaVuSans-32" transform="translate(1016.443359 0)"/>
      <use xlink:href="#DejaVuSans-2e" transform="translate(1080.066406 0)"/>
      <use xlink:href="#DejaVuSans-35" transform="translate(1111.853516 0)"/>
      <use xlink:href="#DejaVuSans-29" transform="translate(1175.476562 0)"/>
     </g>
    </g>
    <g id="line2d_26">
     <path d="M 856.121525 444.886526 
L 866.121525 444.886526 
L 876.121525 444.886526 
" style="fill: none; stroke: #e377c2; stroke-opacity: 0.99; stroke-width: 0.2; stroke-linecap: square"/>
    </g>
    <g id="text_25">
     <!-- 13.10 GHz (Hedef: 12.0) -->
     <g transform="translate(884.121525 448.386526) scale(0.1 -0.1)">
      <use xlink:href="#DejaVuSans-31"/>
      <use xlink:href="#DejaVuSans-33" transform="translate(63.623047 0)"/>
      <use xlink:href="#DejaVuSans-2e" transform="translate(127.246094 0)"/>
      <use xlink:href="#DejaVuSans-31" transform="translate(159.033203 0)"/>
      <use xlink:href="#DejaVuSans-30" transform="translate(222.65625 0)"/>
      <use xlink:href="#DejaVuSans-20" transform="translate(286.279297 0)"/>
      <use xlink:href="#DejaVuSans-47" transform="translate(318.066406 0)"/>
      <use xlink:href="#DejaVuSans-48" transform="translate(395.556641 0)"/>
      <use xlink:href="#DejaVuSans-7a" transform="translate(470.751953 0)"/>
      <use xlink:href="#DejaVuSans-20" transform="translate(523.242188 0)"/>
      <use xlink:href="#DejaVuSans-28" transform="translate(555.029297 0)"/>
      <use xlink:href="#DejaVuSans-48" transform="translate(594.042969 0)"/>
      <use xlink:href="#DejaVuSans-65" transform="translate(669.238281 0)"/>
      <use xlink:href="#DejaVuSans-64" transform="translate(730.761719 0)"/>
      <use xlink:href="#DejaVuSans-65" transform="translate(794.238281 0)"/>
      <use xlink:href="#DejaVuSans-66" transform="translate(855.761719 0)"/>
      <use xlink:href="#DejaVuSans-3a" transform="translate(887.341797 0)"/>
      <use xlink:href="#DejaVuSans-20" transform="translate(921.033203 0)"/>
      <use xlink:href="#DejaVuSans-31" transform="translate(952.820312 0)"/>
      <use xlink:href="#DejaVuSans-32" transform="translate(1016.443359 0)"/>
      <use xlink:href="#DejaVuSans-2e" transform="translate(1080.066406 0)"/>
      <use xlink:href="#DejaVuSans-30" transform="translate(1111.853516 0)"/>
      <use xlink:href="#DejaVuSans-29" transform="translate(1175.476562 0)"/>
     </g>
    </g>
    <g id="line2d_27">
     <path d="M 856.121525 459.564651 
L 866.121525 459.564651 
L 876.121525 459.564651 
" style="fill: none; stroke: #7f7f7f; stroke-opacity: 0.99; stroke-width: 0.2; stroke-linecap: square"/>
    </g>
    <g id="text_26">
     <!-- 13.20 GHz (Hedef: 12.0) -->
     <g transform="translate(884.121525 463.064651) scale(0.1 -0.1)">
      <use xlink:href="#DejaVuSans-31"/>
      <use xlink:href="#DejaVuSans-33" transform="translate(63.623047 0)"/>
      <use xlink:href="#DejaVuSans-2e" transform="translate(127.246094 0)"/>
      <use xlink:href="#DejaVuSans-32" transform="translate(159.033203 0)"/>
      <use xlink:href="#DejaVuSans-30" transform="translate(222.65625 0)"/>
      <use xlink:href="#DejaVuSans-20" transform="translate(286.279297 0)"/>
      <use xlink:href="#DejaVuSans-47" transform="translate(318.066406 0)"/>
      <use xlink:href="#DejaVuSans-48" transform="translate(395.556641 0)"/>
      <use xlink:href="#DejaVuSans-7a" transform="translate(470.751953 0)"/>
      <use xlink:href="#DejaVuSans-20" transform="translate(523.242188 0)"/>
      <use xlink:href="#DejaVuSans-28" transform="translate(555.029297 0)"/>
      <use xlink:href="#DejaVuSans-48" transform="translate(594.042969 0)"/>
      <use xlink:href="#DejaVuSans-65" transform="translate(669.238281 0)"/>
      <use xlink:href="#DejaVuSans-64" transform="translate(730.761719 0)"/>
      <use xlink:href="#DejaVuSans-65" transform="translate(794.238281 0)"/>
      <use xlink:href="#DejaVuSans-66" transform="translate(855.761719 0)"/>
      <use xlink:href="#DejaVuSans-3a" transform="translate(887.341797 0)"/>
      <use xlink:href="#DejaVuSans-20" transform="translate(921.033203 0)"/>
      <use xlink:href="#DejaVuSans-31" transform="translate(952.820312 0)"/>
      <use xlink:href="#DejaVuSans-32" transform="translate(1016.443359 0)"/>
      <use xlink:href="#DejaVuSans-2e" transform="translate(1080.066406 0)"/>
      <use xlink:href="#DejaVuSans-30" transform="translate(1111.853516 0)"/>
      <use xlink:href="#DejaVuSans-29" transform="translate(1175.476562 0)"/>
     </g>
    </g>
    <g id="line2d_28">
     <path d="M 856.121525 474.242776 
L 866.121525 474.242776 
L 876.121525 474.242776 
" style="fill: none; stroke: #bcbd22; stroke-opacity: 0.99; stroke-width: 0.2; stroke-linecap: square"/>
    </g>
    <g id="text_27">
     <!-- 13.30 GHz (Hedef: 12.0) -->
     <g transform="translate(884.121525 477.742776) scale(0.1 -0.1)">
      <use xlink:href="#DejaVuSans-31"/>
      <use xlink:href="#DejaVuSans-33" transform="translate(63.623047 0)"/>
      <use xlink:href="#DejaVuSans-2e" transform="translate(127.246094 0)"/>
      <use xlink:href="#DejaVuSans-33" transform="translate(159.033203 0)"/>
      <use xlink:href="#DejaVuSans-30" transform="translate(222.65625 0)"/>
      <use xlink:href="#DejaVuSans-20" transform="translate(286.279297 0)"/>
      <use xlink:href="#DejaVuSans-47" transform="translate(318.066406 0)"/>
      <use xlink:href="#DejaVuSans-48" transform="translate(395.556641 0)"/>
      <use xlink:href="#DejaVuSans-7a" transform="translate(470.751953 0)"/>
      <use xlink:href="#DejaVuSans-20" transform="translate(523.242188 0)"/>
      <use xlink:href="#DejaVuSans-28" transform="translate(555.029297 0)"/>
      <use xlink:href="#DejaVuSans-48" transform="translate(594.042969 0)"/>
      <use xlink:href="#DejaVuSans-65" transform="translate(669.238281 0)"/>
      <use xlink:href="#DejaVuSans-64" transform="translate(730.761719 0)"/>
      <use xlink:href="#DejaVuSans-65" transform="translate(794.238281 0)"/>
      <use xlink:href="#DejaVuSans-66" transform="translate(855.761719 0)"/>
      <use xlink:href="#DejaVuSans-3a" transform="translate(887.341797 0)"/>
      <use xlink:href="#DejaVuSans-20" transform="translate(921.033203 0)"/>
      <use xlink:href="#DejaVuSans-31" transform="translate(952.820312 0)"/>
      <use xlink:href="#DejaVuSans-32" transform="translate(1016.443359 0)"/>
      <use xlink:href="#DejaVuSans-2e" transform="translate(1080.066406 0)"/>
      <use xlink:href="#DejaVuSans-30" transform="translate(1111.853516 0)"/>
      <use xlink:href="#DejaVuSans-29" transform="translate(1175.476562 0)"/>
     </g>
    </g>
    <g id="line2d_29">
     <path d="M 856.121525 488.920901 
L 866.121525 488.920901 
L 876.121525 488.920901 
" style="fill: none; stroke: #17becf; stroke-opacity: 0.99; stroke-width: 0.2; stroke-linecap: square"/>
    </g>
    <g id="text_28">
     <!-- 13.40 GHz (Hedef: 12.0) -->
     <g transform="translate(884.121525 492.420901) scale(0.1 -0.1)">
      <defs>
       <path id="DejaVuSans-34" d="M 2419 4116 
L 825 1625 
L 2419 1625 
L 2419 4116 
z
M 2253 4666 
L 3047 4666 
L 3047 1625 
L 3713 1625 
L 3713 1100 
L 3047 1100 
L 3047 0 
L 2419 0 
L 2419 1100 
L 313 1100 
L 313 1709 
L 2253 4666 
z
" transform="scale(0.015625)"/>
      </defs>
      <use xlink:href="#DejaVuSans-31"/>
      <use xlink:href="#DejaVuSans-33" transform="translate(63.623047 0)"/>
      <use xlink:href="#DejaVuSans-2e" transform="translate(127.246094 0)"/>
      <use xlink:href="#DejaVuSans-34" transform="translate(159.033203 0)"/>
      <use xlink:href="#DejaVuSans-30" transform="translate(222.65625 0)"/>
      <use xlink:href="#DejaVuSans-20" transform="translate(286.279297 0)"/>
      <use xlink:href="#DejaVuSans-47" transform="translate(318.066406 0)"/>
      <use xlink:href="#DejaVuSans-48" transform="translate(395.556641 0)"/>
      <use xlink:href="#DejaVuSans-7a" transform="translate(470.751953 0)"/>
      <use xlink:href="#DejaVuSans-20" transform="translate(523.242188 0)"/>
      <use xlink:href="#DejaVuSans-28" transform="translate(555.029297 0)"/>
      <use xlink:href="#DejaVuSans-48" transform="translate(594.042969 0)"/>
      <use xlink:href="#DejaVuSans-65" transform="translate(669.238281 0)"/>
      <use xlink:href="#DejaVuSans-64" transform="translate(730.761719 0)"/>
      <use xlink:href="#DejaVuSans-65" transform="translate(794.238281 0)"/>
      <use xlink:href="#DejaVuSans-66" transform="translate(855.761719 0)"/>
      <use xlink:href="#DejaVuSans-3a" transform="translate(887.341797 0)"/>
      <use xlink:href="#DejaVuSans-20" transform="translate(921.033203 0)"/>
      <use xlink:href="#DejaVuSans-31" transform="translate(952.820312 0)"/>
      <use xlink:href="#DejaVuSans-32" transform="translate(1016.443359 0)"/>
      <use xlink:href="#DejaVuSans-2e" transform="translate(1080.066406 0)"/>
      <use xlink:href="#DejaVuSans-30" transform="translate(1111.853516 0)"/>
      <use xlink:href="#DejaVuSans-29" transform="translate(1175.476562 0)"/>
     </g>
    </g>
    <g id="line2d_30">
     <path d="M 856.121525 503.599026 
L 866.121525 503.599026 
L 876.121525 503.599026 
" style="fill: none; stroke: #1f77b4; stroke-opacity: 0.99; stroke-width: 0.2; stroke-linecap: square"/>
    </g>
    <g id="text_29">
     <!-- 13.50 GHz (Hedef: 11.5) -->
     <g transform="translate(884.121525 507.099026) scale(0.1 -0.1)">
      <use xlink:href="#DejaVuSans-31"/>
      <use xlink:href="#DejaVuSans-33" transform="translate(63.623047 0)"/>
      <use xlink:href="#DejaVuSans-2e" transform="translate(127.246094 0)"/>
      <use xlink:href="#DejaVuSans-35" transform="translate(159.033203 0)"/>
      <use xlink:href="#DejaVuSans-30" transform="translate(222.65625 0)"/>
      <use xlink:href="#DejaVuSans-20" transform="translate(286.279297 0)"/>
      <use xlink:href="#DejaVuSans-47" transform="translate(318.066406 0)"/>
      <use xlink:href="#DejaVuSans-48" transform="translate(395.556641 0)"/>
      <use xlink:href="#DejaVuSans-7a" transform="translate(470.751953 0)"/>
      <use xlink:href="#DejaVuSans-20" transform="translate(523.242188 0)"/>
      <use xlink:href="#DejaVuSans-28" transform="translate(555.029297 0)"/>
      <use xlink:href="#DejaVuSans-48" transform="translate(594.042969 0)"/>
      <use xlink:href="#DejaVuSans-65" transform="translate(669.238281 0)"/>
      <use xlink:href="#DejaVuSans-64" transform="translate(730.761719 0)"/>
      <use xlink:href="#DejaVuSans-65" transform="translate(794.238281 0)"/>
      <use xlink:href="#DejaVuSans-66" transform="translate(855.761719 0)"/>
      <use xlink:href="#DejaVuSans-3a" transform="translate(887.341797 0)"/>
      <use xlink:href="#DejaVuSans-20" transform="translate(921.033203 0)"/>
      <use xlink:href="#DejaVuSans-31" transform="translate(952.820312 0)"/>
      <use xlink:href="#DejaVuSans-31" transform="translate(1016.443359 0)"/>
      <use xlink:href="#DejaVuSans-2e" transform="translate(1080.066406 0)"/>
      <use xlink:href="#DejaVuSans-35" transform="translate(1111.853516 0)"/>
      <use xlink:href="#DejaVuSans-29" transform="translate(1175.476562 0)"/>
     </g>
    </g>
    <g id="line2d_31">
     <path d="M 856.121525 518.277151 
L 866.121525 518.277151 
L 876.121525 518.277151 
" style="fill: none; stroke: #000000; stroke-width: 1.5; stroke-linecap: square"/>
     <defs>
      <path id="md9e1dcae09" d="M -0.025 0.05 
L 0 0.025 
L 0.025 0.05 
L 0.05 0.025 
L 0.025 0 
L 0.05 -0.025 
L 0.025 -0.05 
L 0 -0.025 
L -0.025 -0.05 
L -0.05 -0.025 
L -0.025 0 
L -0.05 0.025 
z
" style="stroke: #000000; stroke-linejoin: miter"/>
     </defs>
     <g>
      <use xlink:href="#md9e1dcae09" x="866.121525" y="518.277151" style="stroke: #000000; stroke-linejoin: miter"/>
     </g>
    </g>
    <g id="text_30">
     <!-- Optimum Target -->
     <g transform="translate(884.121525 521.777151) scale(0.1 -0.1)">
      <use xlink:href="#DejaVuSans-4f"/>
      <use xlink:href="#DejaVuSans-70" transform="translate(78.710938 0)"/>
      <use xlink:href="#DejaVuSans-74" transform="translate(142.1875 0)"/>
      <use xlink:href="#DejaVuSans-69" transform="translate(181.396484 0)"/>
      <use xlink:href="#DejaVuSans-6d" transform="translate(209.179688 0)"/>
      <use xlink:href="#DejaVuSans-75" transform="translate(306.591797 0)"/>
      <use xlink:href="#DejaVuSans-6d" transform="translate(369.970703 0)"/>
      <use xlink:href="#DejaVuSans-20" transform="translate(467.382812 0)"/>
      <use xlink:href="#DejaVuSans-54" transform="translate(499.169922 0)"/>
      <use xlink:href="#DejaVuSans-61" transform="translate(543.753906 0)"/>
      <use xlink:href="#DejaVuSans-72" transform="translate(605.033203 0)"/>
      <use xlink:href="#DejaVuSans-67" transform="translate(644.396484 0)"/>
      <use xlink:href="#DejaVuSans-65" transform="translate(707.873047 0)"/>
      <use xlink:href="#DejaVuSans-74" transform="translate(769.396484 0)"/>
     </g>
    </g>
   </g>
   <g id="patch_28">
    <path d="M 599.229381 759.543935 
L 596.185068 759.756929 
L 592.131194 756.828606 
L 596.751505 754.394964 
L 599.538153 752.144676 
L 602.337603 751.584444 
L 602.566465 754.183914 
L 601.998505 756.828606 
L 600.582072 757.740283 
L 599.538153 759.337207 
z
" clip-path="url(#p793a28393d)" style="fill: #ff0000; opacity: 0.6; stroke: #ff0000; stroke-linejoin: miter"/>
   </g>
   <g id="line2d_32">
    <path d="M 599.229381 759.543935 
L 596.185068 759.756929 
L 592.131194 756.828606 
L 596.751505 754.394964 
L 599.538153 752.144676 
L 602.337603 751.584444 
L 602.566465 754.183914 
L 601.998505 756.828606 
L 600.582072 757.740283 
L 599.538153 759.337207 
L 599.229381 759.543935 
" clip-path="url(#p793a28393d)" style="fill: none; stroke-dasharray: 0.74,0.32; stroke-dashoffset: 0; stroke: #000000; stroke-width: 0.2"/>
   </g>
   <g id="line2d_33">
    <path d="M 598.301445 756.032451 
" clip-path="url(#p793a28393d)" style="fill: none; stroke: #000000; stroke-width: 1.5; stroke-linecap: square"/>
    <g clip-path="url(#p793a28393d)">
     <use xlink:href="#md9e1dcae09" x="598.301445" y="756.032451" style="stroke: #000000; stroke-linejoin: miter"/>
    </g>
   </g>
  </g>
 </g>
 <defs>
  <clipPath id="p793a28393d">
   <rect x="23.103125" y="34.3575" width="807.861176" height="807.861176"/>
  </clipPath>
  <clipPath id="p4086180954">
   <path d="M 427.033713 834.298469 
C 532.056894 834.298469 632.792736 792.572317 707.055339 718.309714 
C 781.317942 644.047111 823.044094 543.311269 823.044094 438.288088 
C 823.044094 333.264908 781.317942 232.529066 707.055339 158.266463 
C 632.792736 84.00386 532.056894 42.277708 427.033713 42.277708 
C 322.010533 42.277708 221.274691 84.00386 147.012088 158.266463 
C 72.749485 232.529066 31.023333 333.264908 31.023333 438.288088 
C 31.023333 543.311269 72.749485 644.047111 147.012088 718.309714 
C 221.274691 792.572317 322.010533 834.298469 427.033713 834.298469 
z
"/>
  </clipPath>
 </defs>
</svg>
